<?xml version="1.0" encoding="utf-8" ?>
<svg baseProfile="full" height="200mm" version="1.1" viewBox="0,0,200,200" width="200mm" xmlns="http://www.w3.org/2000/svg" xmlns:ev="http://www.w3.org/2001/xml-events" xmlns:xlink="http://www.w3.org/1999/xlink"><defs /><rect fill="#1a1a1a" height="200" width="200" x="0" y="0" /><text alignment-baseline="middle" fill="#e1ed5e" style="dominant-baseline: central; font-size:9.0px; font-family:Arial;" text-anchor="middle" x="100.0" y="100.0">2018</text><line stroke="#e1ed5e" stroke-width="0.3" x1="100.0" x2="100.0" y1="15.0" y2="10.0" /><path d="M 100.0 14.0 a86.0,86.0 0 0,1 42.46469731375804,11.215312516191453" fill="none" id="id61" stroke="none" /><text fill="#e1ed5e" style="font-size:6.75px; font-family:Arial;" text-anchor="middle"><textPath startOffset="22.20632615414155" xlink:href="#id61">January</textPath></text><path d="M 100.36148047927253 79.00311137660856 l 0.2440172239723397 -14.173939583812434 a35.17603991709815,35.17603991709815 0 0,0 0.6053182812076858,0.015633585340711017 l -0.4879621403748933 14.167639206329364" fill="#ff730a" stroke="none" /><path d="M 100.72285384407766 79.0124445844662 l 0.2931211828202956 -8.510568378808859 a29.515614725796326,29.515614725796326 0 0,0 0.5076111831374186,0.02185880533438517 l -0.43957319834704567 8.50426184695028" fill="#ff1b02" stroke="none" /><path d="M 101.44485096284872 79.0497635885617 l 0.5839616226159611 -8.46740208062032 a29.487514899638267,29.487514899638267 0 0,0 0.5060756981501796,0.0392812141919584 l -0.7296275101284818 8.456095604239897" fill="#ff1b02" stroke="none" /><path d="M 101.80526077348638 79.07773832637324 l 1.2168756664083733 -14.103109916744156 a35.15551114270566,35.15551114270566 0 0,0 0.6024564335504144,0.05721049764726433 l -1.459457227049032 14.080073874581714" fill="#ff720a" stroke="none" /><path d="M 103.2404852339499 79.25152402106235 l 2.1928565946037173 -14.040623268920475 a35.21083114473774,35.21083114473774 0 0,0 0.5980321474716014,0.09868042846998426 l -2.4342179482141937 14.000796577510867" fill="#ff730a" stroke="none" /><path d="M 105.71112130821622 79.79150937346287 l 2.313676495437059 -8.186817832710785 a29.507472312710117,29.507472312710117 0 0,0 0.48758959727454954,0.1423407740315535 l -2.454256310435036 8.145778729760528" fill="#ff1b02" stroke="none" /><path d="M 108.43124777332544 80.76684994638697 l 5.822368486961836 -13.281840338206191 a35.50197426447749,35.50197426447749 0 0,0 0.5575802829598502,0.250170019888952 l -6.050130888388467 13.179649987800708" fill="#ff770b" stroke="none" /><path d="M 109.73455568895987 81.39251694778311 l 6.577665669284231 -12.573126743027855 a35.18975693072727,35.18975693072727 0 0,0 0.5343061099441468,0.2854078197397711 l -6.793116825756689 12.45804019678633" fill="#ff730a" stroke="none" /><path d="M 110.36928655335952 81.73862282372117 l 7.003731569908909 -12.334289652558665 a35.184038816097285,35.184038816097285 0 0,0 0.5240801098448549,0.30358102665256914 l -7.215008412219092 12.211904468516046" fill="#ff730a" stroke="none" /><line stroke="#e1ed5e" stroke-width="0.3" x1="143.23703022742887" x2="145.7803849466894" y1="26.81831364943548" y2="22.513508569990506" /><path d="M 143.74570117128098 25.957352633546492 a86.0,86.0 0 0,1 28.547481713284135,27.462654790039103" fill="none" id="id62" stroke="none" /><text fill="#e1ed5e" style="font-size:6.75px; font-family:Arial;" text-anchor="middle"><textPath startOffset="19.985693538727396" xlink:href="#id62">February</textPath></text><path d="M 111.2981086023043 82.29822771554956 l 7.650487971038335 -11.986713944370033 a35.220101173309466,35.220101173309466 0 0,0 0.5082310481298349,0.3305676110699793 l -7.85568604495245 11.853247409140526" fill="#ff730a" stroke="none" /><path d="M 114.42810811169701 84.74124197986012 l 5.897774707269057 -6.237319295005966 a29.584165567226457,29.584165567226457 0 0,0 0.3670081359050962,0.3530615359605375 l -6.004266086786571 6.134874672283126" fill="#ff1c02" stroke="none" /><path d="M 114.94478906791727 85.2469230424477 l 10.148851465918465 -10.01866175742076 a35.260882493270906,35.260882493270906 0 0,0 0.42268686747246204,0.43561597215498227 l -10.319802597094036 9.842481589715664" fill="#ff740a" stroke="none" /><path d="M 115.9244219780498 86.31012108654704 l 10.800699653062269 -9.285126369723573 a35.24319783957927,35.24319783957927 0 0,0 0.39151733346417156,0.4634330318976486 l -10.958927600013558 9.097834388196818" fill="#ff740a" stroke="none" /><path d="M 116.38621287248628 86.86637796730983 l 6.6727709453880255 -5.348255401624458 a29.551590959033284,29.551590959033284 0 0,0 0.31471870142590946,0.39966079062638465 l -6.763843727407899 5.232602217045034" fill="#ff1c02" stroke="none" /><line stroke="#e1ed5e" stroke-width="0.3" x1="172.23445277983987" x2="176.4835382374775" y1="55.19839476539836" y2="52.563006222186495" /><path d="M 173.08426987136738 54.67131705675599 a86.0,86.0 0 0,1 12.851231095245387,41.99856678651699" fill="none" id="id63" stroke="none" /><text fill="#e1ed5e" style="font-size:6.75px; font-family:Arial;" text-anchor="middle"><textPath startOffset="22.20632615414155" xlink:href="#id63">March</textPath></text><line stroke="#e1ed5e" stroke-width="0.3" x1="184.98032266829074" x2="189.97916517819016" y1="98.17113171792111" y2="98.06355123074" /><path d="M 185.9800911702706 98.14961562048488 a86.0,86.0 0 0,1 -9.607161424134198,41.387399972396054" fill="none" id="id64" stroke="none" /><text fill="#e1ed5e" style="font-size:6.75px; font-family:Arial;" text-anchor="middle"><textPath startOffset="21.466115282336823" xlink:href="#id64">April</textPath></text><path d="M 120.89721153311464 102.0752229133903 l 7.107958916318062 0.7058644732195812 a28.142921293883827,28.142921293883827 0 0,0 -0.05202111588883854,0.48165092504422247 l -7.094755498928172 -0.8281117201485952" fill="#ff0500" stroke="none" /><path d="M 120.81339534386255 102.79330883721812 l 7.073509958871952 0.9493164162710119 a28.136928246554138,28.136928246554138 0 0,0 -0.06855488739108274,0.47947272274246283 l -7.056121020464269 -1.0709346109938842" fill="#ff0500" stroke="none" /><path d="M 120.70491114924044 103.5080841355445 l 7.035044022754823 1.1919648508121572 a28.135308305018782,28.135308305018782 0 0,0 -0.08501359084939104,0.4768013651474353 l -7.013483989566243 -1.3128849666928109" fill="#ff0500" stroke="none" /><path d="M 119.79798401119884 107.00284435728193 l 6.697415834585086 2.368976591710802 a28.104043141298114,28.104043141298114 0 0,0 -0.1652460712196559,0.4546862176328936 l -6.655645502360203 -2.4839106063498266" fill="#ff0500" stroke="none" /><path d="M 119.67450827220406 107.3425965602758 l 6.625455990927972 2.472643773159801 a28.07181973162985,28.07181973162985 0 0,0 -0.1728498511199814,0.45125641797650373 l -6.581911860214484 -2.5863237579694487" fill="#ff0400" stroke="none" /><path d="M 119.54520255179757 107.68017299344265 l 6.6334176741077195 2.606562666203824 a28.12715924980018,28.12715924980018 0 0,0 -0.18094788966733366,0.4490978227258979 l -6.587567170182994 -2.7203598567725353" fill="#ff0500" stroke="none" /><path d="M 119.41010516605496 108.01547362559984 l 13.172823371701693 5.439765390617927 a35.25181823793073,35.25181823793073 0 0,0 -0.23643733380950535,0.5588680146663465 l -13.077235056699877 -5.665707930950437" fill="#ff740a" stroke="none" /><line stroke="#e1ed5e" stroke-width="0.3" x1="174.80103733775053" x2="179.2010983576182" y1="140.37084112569926" y2="142.7455964860345" /><path d="M 175.68104954172406 140.8457921977663 a86.0,86.0 0 0,1 -30.038265399797805,32.042727171017184" fill="none" id="id65" stroke="none" /><text fill="#e1ed5e" style="font-size:6.75px; font-family:Arial;" text-anchor="middle"><textPath startOffset="22.206326154141568" xlink:href="#id65">May</textPath></text><path d="M 118.30583269289576 110.29060199501025 l 12.424500543613602 6.984418148360712 a35.2530807416995,35.2530807416995 0 0,0 -0.30191410480350694,0.5264126901405425 l -12.302434442657715 -7.197250684359569" fill="#ff740a" stroke="none" /><path d="M 118.12598468904814 110.60418214915192 l 6.15348644053744 3.5999528956471947 a28.12916939234556,28.12916939234556 0 0,0 -0.2480981010564988,0.4158266879468021 l -6.090607463782714 -3.7053416774801007" fill="#ff0500" stroke="none" /><path d="M 115.07121518719521 114.62390073753431 l 10.127826116909512 9.827231711649107 a35.11195751725452,35.11195751725452 0 0,0 -0.42461956115040694,0.430137373631466 l -9.957165930703571 -10.000109579261238" fill="#ff720a" stroke="none" /><path d="M 114.81725581225074 114.88116024355365 l 5.019081604850901 5.040728093221286 a28.11337612290697,28.11337612290697 0 0,0 -0.34586152667762976,0.33849829805600234 l -4.931570125797477 -5.126376494199861" fill="#ff0500" stroke="none" /><path d="M 112.34349029814194 116.9893568818739 l 8.332477550277657 11.468671452934098 a35.17605752743783,35.17605752743783 0 0,0 -0.49292154496859464,0.3516864344563531 l -8.133828677460178 -11.610402149234671" fill="#ff730a" stroke="none" /><path d="M 111.45004920935366 117.60387380957326 l 3.8684037829108093 5.947475927283089 a28.09485854215928,28.09485854215928 0 0,0 -0.4076673650815799,0.26019260050886384 l -3.765454615782299 -6.013182956615762" fill="#ff0500" stroke="none" /><path d="M 111.1453310114006 117.79835938074945 l 3.7615043984549845 6.006874719780833 a28.087415554258,28.087415554258 0 0,0 -0.411976581469346,0.25306966475474363 l -3.65754861705333 -6.070732851363954" fill="#ff0500" stroke="none" /><line stroke="#e1ed5e" stroke-width="0.3" x1="143.8653032363475" x2="146.44561519142675" y1="172.8068346515853" y2="177.08958963109032" /><path d="M 144.38136562736335 173.6633856474863 a86.0,86.0 0 0,1 -40.68145358897372,12.25698825130547" fill="none" id="id66" stroke="none" /><text fill="#e1ed5e" style="font-size:6.75px; font-family:Arial;" text-anchor="middle"><textPath startOffset="21.466115282336833" xlink:href="#id66">June</textPath></text><path d="M 109.89434966115114 118.52300852407294 l 6.670941999158406 12.488533329196212 a35.158563905657246,35.158563905657246 0 0,0 -0.5362670415755048,0.2805495706066806 l -6.454984055056405 -12.60151231874761" fill="#ff720a" stroke="none" /><path d="M 108.92500713936063 119.00905698771935 l 3.0309681146912038 6.455551768247982 a28.131683976790082,28.131683976790082 0 0,0 -0.44010278663487706,0.20202960366550904 l -2.9193973322889075 -6.506768442247566" fill="#ff0500" stroke="none" /><path d="M 105.53697534728816 120.25689768951611 l 1.8425636708075512 6.7409770542410445 a27.98826248267651,27.98826248267651 0 0,0 -0.4658173917521832,0.12302660691014246 l -1.7262558362438705 -6.7716950104547715" fill="#ff0300" stroke="none" /><path d="M 104.83641907484287 120.43548508189849 l 9.126811216986086 38.56382409873833 a60.62912075871649,60.62912075871649 0 0,0 -1.0176449251178339,0.2316126717893932 l -8.46164614247539 -38.71521350410541" fill="#42ff2d" stroke="none" /><path d="M 104.48393922423573 120.51570834832081 l 1.5165939400472508 6.938987662604506 a28.10278867493364,28.10278867493364 0 0,0 -0.4734765043255856,0.09922160500724858 l -1.3969259742922873 -6.964065248338296" fill="#ff0500" stroke="none" /><path d="M 101.98527174616119 120.90594882070398 l 0.6605583518795827 6.9560245967263565 a27.98731819273317,27.98731819273317 0 0,0 -0.4799900799184942,0.04141556378829285 l -0.5407239542195469 -6.966364412793313" fill="#ff0300" stroke="none" /><path d="M 101.62511606390274 120.93702456842531 l 0.5491190477459951 7.074521782793931 a28.095800883890647,28.095800883890647 0 0,0 -0.4824948602129148,0.033275670482056145 l -0.42726142675414996 -7.082925797792272" fill="#ff0500" stroke="none" /><path d="M 101.26447882468166 120.96189622390904 l 0.42942689950958907 7.118823919840022 a28.131764260245067,28.131764260245067 0 0,0 -0.48361440735846245,0.02499734081982645 l -0.306824423737647 -7.12516106742205" fill="#ff0500" stroke="none" /><line stroke="#e1ed5e" stroke-width="0.3" x1="102.19456741930631" x2="102.32365962044197" y1="184.97166512339345" y2="189.96999836594603" /><path d="M 102.22038585953345 185.97133177190398 a86.0,86.0 0 0,1 -42.740103519485714,-10.115201625700543" fill="none" id="id67" stroke="none" /><text fill="#e1ed5e" style="font-size:6.75px; font-family:Arial;" text-anchor="middle"><textPath startOffset="22.20632615414155" xlink:href="#id67">July</textPath></text><path d="M 97.2962882734958 120.8252237178851 l -0.9125862888761868 7.029156785251535 a28.088149183411176,28.088149183411176 0 0,0 -0.4789315785265953,-0.06637555274930068 l 1.033446458589613 -7.01240666700963" fill="#ff0500" stroke="none" /><path d="M 93.76903079525671 120.05430185196036 l -2.0937372285726354 6.738668897371388 a28.056443444874446,28.056443444874446 0 0,0 -0.45996355289207036,-0.14726580446578313 l 2.209422126555646 -6.701630246245899" fill="#ff0400" stroke="none" /><path d="M 93.08242187328487 119.8279376855182 l -19.262780982619095 55.21314164824974 a79.4768821146788,79.4768821146788 0 0,0 -1.2878299221791583,-0.4617699912994933 l 20.21033046542798 -54.873384115910284" fill="#47fffd" stroke="none" /><path d="M 92.40401165467489 119.57807347666478 l -2.543925474868313 6.556771495941449 a28.032980113129444,28.032980113129444 0 0,0 -0.4483660569399004,-0.1784141072772253 l 2.6564126078500716 -6.512010544258158" fill="#ff0400" stroke="none" /><path d="M 92.06813273071674 119.44442032107085 l -2.6761647241690714 6.560431482090117 a28.08527479086634,28.08527479086634 0 0,0 -0.44605908145763645,-0.18645273222575534 l 2.78869526512417 -6.513393706844388" fill="#ff0400" stroke="none" /><path d="M 91.7346041902142 119.30500536409082 l -2.7798092210632483 6.492639089375429 a28.06269790167993,28.06269790167993 0 0,0 -0.442427575646274,-0.19394724741538832 l 2.8911574713672654 -6.443827288665589" fill="#ff0400" stroke="none" /><line stroke="#e1ed5e" stroke-width="0.3" x1="58.666819895761336" x2="56.23545636021788" y1="174.27360380694188" y2="178.64263932499728" /><path d="M 58.180547188652646 175.14741091055294 a86.0,86.0 0 0,1 -31.652253787137756,-30.449443065178592" fill="none" id="id68" stroke="none" /><text fill="#e1ed5e" style="font-size:6.75px; font-family:Arial;" text-anchor="middle"><textPath startOffset="22.20632615414155" xlink:href="#id68">August</textPath></text><path d="M 87.95078237400918 117.19931262002967 l -4.085514555608665 5.831751424592336 a28.12044618421662,28.12044618421662 0 0,0 -0.39405137336719026,-0.2811451921846242 l 4.185293256824742 -5.760561970563493" fill="#ff0500" stroke="none" /><path d="M 87.65650970185807 116.9893568818739 l -4.186469599620681 5.762181067520099 a28.122447498117147,28.122447498117147 0 0,0 -0.3891812338841756,-0.28790697281825833 l 4.28503580392342 -5.689264145962074" fill="#ff0500" stroke="none" /><path d="M 87.36589467227662 116.77436683061367 l -8.593576095703801 11.409735321725712 a35.28396339341736,35.28396339341736 0 0,0 -0.48199787821232887,-0.36957541956929424 l 8.788702702409617 -11.260120560329051" fill="#ff740a" stroke="none" /><path d="M 85.97065885151581 115.62618273729859 l -9.446427002877739 10.521634123742732 a35.14000593191549,35.14000593191549 0 0,0 -0.446613495950745,-0.40797083944722023 l 9.626140048295339 -10.357470517708936" fill="#ff720a" stroke="none" /><path d="M 85.70375840098266 115.38237550388516 l -9.637958617250996 10.37018698338527 a35.15736643511836,35.15736643511836 0 0,0 -0.4397419199855554,-0.41580343265307584 l 9.815036371627368 -10.202748913986264" fill="#ff720a" stroke="none" /><path d="M 85.44109423537348 115.13401014063109 l -11.754349611786381 12.218668703352353 a37.95466306590564,37.95466306590564 0 0,0 -0.4669328100303527,-0.45699203094394225 l 11.962932374192528 -12.01452656948584" fill="#ff9c0e" stroke="none" /><path d="M 84.9287848128048 114.62390073753433 l -4.885877700059541 4.740864596114923 a27.80790702188529,27.80790702188529 0 0,0 -0.33037574389635543,-0.3463976466505102 l 4.966759995334853 -4.656059832881913" fill="#ff0000" stroke="none" /><path d="M 84.19399662182784 113.82643327865904 l -23.101657499703602 20.208367567932434 a51.69307249192031,51.69307249192031 0 0,0 -0.5800885588581786,-0.6747740468923094 l 23.44608856813256 -19.807716421878595" fill="#aaff21" stroke="none" /><path d="M 83.72743513129214 113.27417163493432 l -14.401958192312003 11.748244143830442 a39.5859527664349,39.5859527664349 0 0,0 -0.42617499308253604,-0.5317188312712847 l 14.6020510974494 -11.498597478980898" fill="#ffb310" stroke="none" /><path d="M 83.50135304334701 112.99209946851258 l -11.159570131366538 8.787765781853475 a35.20425404425037,35.20425404425037 0 0,0 -0.3708067142624488,-0.47931766343231913 l 11.309183662847055 -8.594370124307902" fill="#ff730a" stroke="none" /><path d="M 82.85270091963577 112.12312394758628 l -6.039580067397261 4.26997729527403 a28.39656903521207,28.39656903521207 0 0,0 -0.278744903839355,-0.40155282375790186 l 6.11218587839875 -4.165383209329115" fill="#ff0901" stroke="none" /><path d="M 82.44556493220864 111.52570212397912 l -25.00086761058051 16.41480069326109 a50.90801001539986,50.90801001539986 0 0,0 -0.47464479886514016,-0.7366592683172665 l 25.279717272822694 -15.982019825022373" fill="#b4ff20" stroke="none" /><line stroke="#e1ed5e" stroke-width="0.3" x1="26.63291911575756" x2="22.317208475507996" y1="142.92168965132927" y2="145.44649492493687" /><path d="M 25.769776987707644 143.4266507060508 a86.0,86.0 0 0,1 -11.730757126820373,-40.83630448921669" fill="none" id="id69" stroke="none" /><text fill="#e1ed5e" style="font-size:6.75px; font-family:Arial;" text-anchor="middle"><textPath startOffset="21.46611528233685" xlink:href="#id69">September</textPath></text><path d="M 81.87401531095188 110.60418214915194 l -12.280668490138918 7.18451702441676 a35.227863628768205,35.227863628768205 0 0,0 -0.3016981406404874,-0.5260361384186513 l 12.402518626931784 -6.972061040139801" fill="#ff730a" stroke="none" /><path d="M 81.51974371655577 109.97397251340807 l -15.000746187284394 8.096047363078059 a38.04606608811929,38.04606608811929 0 0,0 -0.3060851160713321,-0.5789976884192309 l 15.137883811580611 -7.836634659572701" fill="#ff9d0e" stroke="none" /><path d="M 80.87730276802145 108.67885076344099 l -9.49557635040812 4.3095745886850025 a31.427770776243094,31.427770776243094 0 0,0 -0.21933428544191283,-0.4945409111112271 l 9.568351720581314 -4.14548534108108" fill="#ff3905" stroke="none" /><path d="M 80.32549172779594 107.34259656027581 l -6.63593360245827 2.476554055100168 a28.08300323055608,28.08300323055608 0 0,0 -0.16512236081359916,-0.4543458197269408 l 6.677580224277094 -2.3619604383671104" fill="#ff0400" stroke="none" /><path d="M 79.76711848015287 105.62410040840567 l -60.698644559541364 16.872301225217015 a84.0,84.0 0 0,0 -0.3752476946329004,-1.3964362672978443 l 60.98008033051604 -15.824974024743632" fill="#4dd2ff" stroke="none" /><path d="M 79.35854240842038 103.8639653848113 l -11.203527273842374 2.097237628779458 a32.398132700021456,32.398132700021456 0 0,0 -0.09789413244682986,-0.549042282818798 l 11.237967848628392 -1.9040765952274463" fill="#ff4806" stroke="none" /><path d="M 79.10278846688536 102.07522291339032 l -11.277935397995126 1.1199690406812326 a32.33340890877215,32.33340890877215 0 0,0 -0.05023288187557621,-0.5543156656584557 l 11.295542876147778 -0.9256719864742107" fill="#ff4706" stroke="none" /><path d="M 79.0235259727143 100.99374915477108 l -14.120112713173398 0.6689327317706555 a35.13594899652497,35.13594899652497 0 0,0 -0.023420397438111373,-0.6043763916809783 l 14.12953524346271 -0.4257790930756803" fill="#ff720a" stroke="none" /><line stroke="#e1ed5e" stroke-width="0.3" x1="15.007084014347285" x2="10.007500721073583" y1="101.09737516637583" y2="101.16192664675087" /><path d="M 14.007167355692545 101.11028546245083 a86.0,86.0 0 0,1 10.666146001902534,-42.60595125391555" fill="none" id="id70" stroke="none" /><text fill="#e1ed5e" style="font-size:6.75px; font-family:Arial;" text-anchor="middle"><textPath startOffset="22.20632615414155" xlink:href="#id70">October</textPath></text><path d="M 79.01574976396665 99.18683210126434 l -15.2451883820101 -0.5907715387963148 a36.25663068354306,36.25663068354306 0 0,0 0.029534291838382645,-0.623422221480896 l 15.23276048193822 0.8531048669002199" fill="#ff830c" stroke="none" /><path d="M 79.12142395522702 97.74499172005258 l -7.039121420493733 -0.7602662678110446 a28.080058980716547,28.080058980716547 0 0,0 0.05603930283429683,-0.48011052405873694 l 7.024991764655847 0.8813205301946433" fill="#ff0400" stroke="none" /><path d="M 79.16333360222342 97.38593545837743 l -8.447635826361964 -1.059798379101064 a29.51385480608986,29.51385480608986 0 0,0 0.06757829630014188,-0.503536801523276 l 8.428141531003988 1.2050535226889991" fill="#ff1b02" stroke="none" /><path d="M 79.21141760316559 97.0276538004421 l -7.008179580652138 -1.0020277258319783 a28.07945199842513,28.07945199842513 0 0,0 0.0725307041127891,-0.4778867175133708 l 6.989892983100047 1.122513555737441" fill="#ff0400" stroke="none" /><path d="M 79.26566170972629 96.67025291283419 l -11.211899239735397 -1.8005295521110491 a32.355553321173055,32.355553321173055 0 0,0 0.09304245878803839,-0.5491418585986233 l 11.179244919427136 1.9932571990255004" fill="#ff4806" stroke="none" /><path d="M 79.62865764111835 94.90015583598534 l -6.878579332677286 -1.7220113455690738 a28.090851620941148,28.090851620941148 0 0,0 0.12146439847944661,-0.4680518757878 l 6.847918602327532 1.8401596469057375" fill="#ff0500" stroke="none" /><path d="M 79.71946130924805 94.55025226153421 l -13.690064869942566 -3.6787681630193014 a35.17572613097756,35.17572613097756 0 0,0 0.16216550687681855,-0.5833956097833531 l 13.624712592499387 3.913875076221597" fill="#ff730a" stroke="none" /><path d="M 80.38941819471856 92.48833698450439 l -13.241082781289943 -5.07188174226145 a35.179219217871555,35.179219217871555 0 0,0 0.2214723662251709,-0.5636230148972842 l 13.151816865183081 5.2990537620544975" fill="#ff730a" stroke="none" /><path d="M 80.803312248108 91.48605970444005 l -10.388970139869093 -4.607621515044065 a32.364896682019975,32.364896682019975 0 0,0 0.23024955123877583,-0.50732436542006 l 10.308118271666967 4.785767889306196" fill="#ff4806" stroke="none" /><path d="M 80.95270993114464 91.15688171328213 l -15.457564988251843 -7.176510418101399 a38.042259742978544,38.042259742978544 0 0,0 0.2808638409948866,-0.5915708783448811 l 15.331742953415205 7.441523712086813" fill="#ff9d0e" stroke="none" /><path d="M 81.26839172434947 90.50648371742162 l -12.64608697287838 -6.409264534107595 a35.17752402903179,35.17752402903179 0 0,0 0.2783891742099287,-0.537759275079129 l 12.533888365508338 6.625996531447059" fill="#ff730a" stroke="none" /><path d="M 81.43458229118936 90.18545643968196 l -6.302046671640788 -3.331555074498686 a28.12846768008081,28.12846768008081 0 0,0 0.22997286105070747,-0.42610478470245855 l 6.2437657113716085 3.4395408425336176" fill="#ff0500" stroke="none" /><path d="M 81.6062741919709 89.86733742301443 l -7.790465759439209 -4.29158081847124 a29.894325307209368,29.894325307209368 0 0,0 0.2521691093757357,-0.4485807077940742 l 7.7154390087710425 4.425045036200099" fill="#ff2103" stroke="none" /><line stroke="#e1ed5e" stroke-width="0.3" x1="26.266209847984243" x2="21.928928074336255" y1="57.711370442889674" y2="55.22380399835377" /><path d="M 25.398753493254645 57.213857153982495 a86.0,86.0 0 0,1 29.58750427330803,-30.492523968695096" fill="none" id="id71" stroke="none" /><text fill="#e1ed5e" style="font-size:6.75px; font-family:Arial;" text-anchor="middle"><textPath startOffset="21.46611528233685" xlink:href="#id71">November</textPath></text><path d="M 82.54541684631803 88.32363383020206 l -5.90251695975528 -3.948530236369854 a28.1014503791638,28.1014503791638 0 0,0 0.27241751316293566,-0.399739086011054 l 5.833674980923604 4.049547345651324" fill="#ff0500" stroke="none" /><path d="M 82.7489923806493 88.02491185347247 l -11.658180508119285 -8.09272955489611 a35.19173859710576,35.19173859710576 0 0,0 0.34971770154174964,-0.49465088767222215 l 11.517150186773657 8.292206942900119" fill="#ff730a" stroke="none" /><path d="M 83.39014120810768 87.1503855733568 l -11.226602753332154 -8.685053768899275 a35.19389898335889,35.19389898335889 0 0,0 0.3748081855055337,-0.47596833322485843 l 11.07544048723265 8.877014496077182" fill="#ff730a" stroke="none" /><path d="M 83.6137871275137 86.86637796730984 l -13.346067273729432 -10.696931900007852 a38.1038552305706,38.1038552305706 0 0,0 0.41460897037562955,-0.5082615737640336 l 13.15995981127741 10.925077643379968" fill="#ff9e0e" stroke="none" /><path d="M 84.80347519578584 85.50635884689758 l -5.30317207783983 -5.057884882209929 a28.32842640468387,28.32842640468387 0 0,0 0.3395846323388151,-0.3499718139570609 l 5.2153231817978964 5.148420891717113" fill="#ff0801" stroke="none" /><path d="M 85.05521093208273 85.24692304244772 l -5.053792415421671 -4.98896224586197 a28.10144788538293,28.10144788538293 0 0,0 0.34278975769995557,-0.3413177095421657 l 4.967166857554402 5.075215806054245" fill="#ff0500" stroke="none" /><path d="M 85.57189188830299 84.74124197986013 l -6.789483503155173 -7.180365232527435 a30.882040837403224,30.882040837403224 0 0,0 0.38939623552712727,-0.3619013629876374 l 6.66487938383319 7.2961711815897194" fill="#ff3104" stroke="none" /><path d="M 86.10567301691215 84.25364557470407 l -9.395521157247478 -10.647885740163172 a35.20046789904668,35.20046789904668 0 0,0 0.4577840987507061,-0.3969858593571925 l 9.210843259849998 10.808036592940045" fill="#ff730a" stroke="none" /><path d="M 86.37877921826538 84.01681056812374 l -4.607490121791244 -5.406445472261845 a28.10342296832622,28.10342296832622 0 0,0 0.3708881838724685,-0.3106081878200317 l 4.5137444009596654 5.484954817475689" fill="#ff0500" stroke="none" /><path d="M 86.65592168130627 83.78471172551755 l -9.018710355081833 -10.959242352980105 a35.19303101596742,35.19303101596742 0 0,0 0.4710781625144079,-0.3809124461296954 l 8.828728794002924 11.112860896373935" fill="#ff730a" stroke="none" /><path d="M 88.09926311788651 82.69761687909137 l -4.009787932075943 -5.8297975765390335 a28.07565820568251,28.07565820568251 0 0,0 0.4005397809461428,-0.27044624806589507 l 3.9088434567232606 5.897955736903594" fill="#ff0400" stroke="none" /><line stroke="#e1ed5e" stroke-width="0.3" x1="56.762969772571076" x2="54.21961505331055" y1="26.818313649435495" y2="22.513508569990535" /><path d="M 56.25429882871897 25.957352633546506 a86.0,86.0 0 0,1 42.265352541879196,-11.944610805530505" fill="none" id="id72" stroke="none" /><text fill="#e1ed5e" style="font-size:6.75px; font-family:Arial;" text-anchor="middle"><textPath startOffset="22.20632615414155" xlink:href="#id72">December</textPath></text><path d="M 90.91171255644093 81.06846463323043 l -3.9998651809391585 -8.331997596414675 a30.24235388915342,30.24235388915342 0 0,0 0.47123605400566787,-0.22125164594129143 l 3.8558509156338823 8.399614224995974" fill="#ff2703" stroke="none" /><path d="M 91.56875222667455 80.76684994638697 l -6.828585536741598 -15.577197327493748 a38.008193819811524,38.008193819811524 0 0,0 0.6014638163513045,-0.25751541704593794 l 6.5594379625999855 15.692432272502472" fill="#ff9c0e" stroke="none" /><path d="M 93.25333710446033 80.11325718540243 l -2.2736985821231053 -6.702048055563991 a28.07722780341552,28.07722780341552 0 0,0 0.459018790891694,-0.151331278485414 l 2.1579969689890017 6.7401930583086385" fill="#ff0400" stroke="none" /><path d="M 94.98787191387505 79.60689891045804 l -2.0223312480763704 -8.228362258484559 a29.47323840888472,29.47323840888472 0 0,0 0.4937136733691284,-0.11684607523744497 l 1.8803938877447077 8.261954245862874" fill="#ff1b02" stroke="none" /><path d="M 96.40284397218896 79.31037775812273 l -2.4128540285826148 -13.877918552936482 a35.086109751282855,35.086109751282855 0 0,0 0.5959138389756305,-0.0983308894177805 l 2.1736109834680986 13.917395705293888" fill="#ff710a" stroke="none" /><path d="M 96.75951476605007 79.25152402106235 l -2.1891961466384267 -14.01718581705848 a35.18710957166406,35.18710957166406 0 0,0 0.5992381843753842,-0.0883121314694791 l 1.9475889818343934 14.052792432688928" fill="#ff730a" stroke="none" /></svg>