<?xml version="1.0" encoding="utf-8" ?>
<svg baseProfile="full" height="300mm" version="1.1" viewBox="0,0,200,300" width="200mm" xmlns="http://www.w3.org/2000/svg" xmlns:ev="http://www.w3.org/2001/xml-events" xmlns:xlink="http://www.w3.org/1999/xlink"><defs /><rect fill="#222222" height="300" width="200" x="0" y="0" /><text fill="#FFFFFF" style="font-size:12px; font-family:Arial; font-weight:bold;" x="10" y="20">Over 10km Workouts</text><text fill="#FFFFFF" style="font-size:4px; font-family:Arial" x="10" y="280">ATHLETE</text><text fill="#FFFFFF" style="font-size:9px; font-family:Arial" x="10" y="290">kick</text><text fill="#FFFFFF" style="font-size:4px; font-family:Arial" x="120" y="280">STATISTICS</text><text fill="#FFFFFF" style="font-size:3px; font-family:Arial" x="120" y="285">Number: 4</text><text fill="#FFFFFF" style="font-size:3px; font-family:Arial" x="120" y="290">Weekly: 1.3</text><text fill="#FFFFFF" style="font-size:3px; font-family:Arial" x="141" y="285">Total: 56.3 km</text><text fill="#FFFFFF" style="font-size:3px; font-family:Arial" x="141" y="290">Avg: 14.1 km</text><text fill="#FFFFFF" style="font-size:3px; font-family:Arial" x="167" y="285">Min: 11.3 km</text><text fill="#FFFFFF" style="font-size:3px; font-family:Arial" x="167" y="290">Max: 16.0 km</text><polyline fill="none" points="57.033817126299255,71.52706818384468 57.22191582003143,71.12673281221942 57.4100145137636,70.98375572961231 62.20653120463248,70.26886902145634 64.98098693753127,70.0115092779597 65.14557329448871,70.24027350824326 65.56879535550252,73.5859251144866 65.89796806965023,73.75749571697088 65.96850507974159,73.9290661951236 66.25065312045626,76.2166606879473 66.48577648762148,76.78855585685233 66.41523947753012,77.24607099719287 66.46226415084675,78.04672036493139 66.90899854863528,81.10631978746096 66.97953555861022,82.53602558694547 67.30870827287436,83.87994116517075 67.30870827287436,84.16587966562656 65.73338171257637,84.42322402072023 59.52612481848337,85.19525540739414 59.03236574737821,85.30963021353818 58.91480406385381,85.45259864346008 58.985341073945165,86.59634297472076 59.45558780839201,89.94176342403807 59.5496371552581,90.08472905663075 59.714223512331955,90.14191528542142 60.4195936138276,89.97035655740183 60.56066763412673,89.94176342403807 60.6312046443345,90.02754281388479 59.831785195856355,90.17050839470176 59.808272859081626,90.3992531443073 59.9728592162719,90.99970706054592 62.27706821472384,90.77096289105248 62.37111756158993,90.94252103890176 63.33512336725835,97.97629806256737 63.3116110303672,98.09066669415915 62.81785195926204,98.43377225739823 62.72380261251237,98.89124556822935 62.58272859209683,99.03420579656085 62.20653120463248,99.14857391704572 61.75979680684395,99.06279783183709 61.030914368573576,99.17716593867226 60.27851959352847,99.14857391704572 56.58708272851072,99.63463781298196 55.78766328014899,99.63463781298196 54.941219158121385,99.8919653539051 55.08229317853693,99.69182173514855 54.75312046438921,99.66322977583332 54.11828737298492,99.74900564349082 53.36589259793982,100.06351689247822 51.97866473137401,100.23506830677798 51.038171262596734,100.54957891011145 50.75602322188206,100.54957891011145 50.54441219137516,100.12070071106427 50.285776487668045,99.83478148007998 50.23875181411859,99.00561375782127 50.09767779381946,98.54814066793188 49.88606676342897,96.6038701745274 49.32177068211604,92.80105967153213 49.29825834534131,92.65809567940596 49.06313497829251,92.45794594520703 43.678809869335964,93.2585438665119 43.020464441156946,93.28713659931964 42.338606676319614,93.11558015056653 36.084325108793564,93.91617584794585 34.48548621183727,94.43084308094694 26.04455732938368,95.63172894029412 25.691872278694063,95.374396768937 25.480261248187162,94.6309911471617 24.58679245284293,87.82586196776538 24.375181422336027,86.5105623415875 24.187082728603855,85.9386906594591 23.129027576185763,78.10390950193687 22.846879535587505,77.84655827686947 20.237010159529746,78.18969318141171 19.766763425199315,78.33266591145366 19.578664731583558,78.27547682980367 19.343541364185512,77.9323420496803 19.225979680661112,76.93152943319001 19.01436865015421,76.2166606879473 18.379535558633506,71.64144959424448 18.073875181376934,71.58425889597856 15.934252539882436,71.92740287839842 15.581567489076406,71.78442627951154 15.48751814221032,71.4984728226409 14.6175616835244,64.80706330739486 14.5,63.94917661152431 14.547024673316628,63.66321368863282 14.97024673433043,63.32005772506818 18.967343976721168,61.48988418318913 20.636719883885235,60.8607587597362 22.658780841855332,59.91706748884462 24.469230769202113,58.97337245522067 28.96008708269801,57.114568202072405 31.452394774882123,55.82769516707049 32.46342525386717,55.455930543132126 37.00130624091253,53.311123232662794 38.10638606664725,52.91075704853574 38.43555878079496,52.91075704853574 38.788243831600994,53.053745049168356 39.04687953554094,53.311123232662794 39.5406386066461,54.16904848933336 40.998403483303264,57.486330220635864 41.28055152390152,57.65791249377071 41.844847605214454,57.829494642457576 44.007982583367266,57.572121372722904 44.71335268497933,57.37194196940982 45.32467343960889,57.37194196940982 47.62888243829366,57.028776884122635 48.19317851960659,56.85719415485801 48.87503628432751,56.79999988414056 49.22772133513354,56.51402832318854 49.11015965160914,54.712399543393985 49.18069666181691,54.569412544806255 49.34528301877435,54.54081513476558 49.909579100087285,54.483620304163196 50.262264150893316,54.82678907997615 50.403338171192445,56.17086199390178 50.59143686504103,56.59981982775207 50.73251088534016,56.65701414686919 57.59811320749577,55.656111567033804 61.148476052097976,55.255749349918915 61.50116110302042,54.99837328125432 61.57169811311178,54.798191701003816 61.66574746009428,53.6542937085178 61.947895500576124,52.36740185816598 62.27706821472384,49.87939110476873 62.62975326552987,49.47901911503868 62.935413643019274,49.4504210899031 71.11770682153292,50.70873092886177 72.41088534111623,50.99470950468094 73.02220609574579,51.023307343246415 75.77314949198626,51.509470070304815 79.11190130608156,51.99563179854886 80.42859216255601,53.08234263898339 80.78127721336205,53.25392810496851 89.76298984023742,54.62660735458485 92.74905660375953,55.14136002061423 93.8071117560612,55.37013862392632 94.06574746000115,55.68470884238195 94.27735849050805,56.7714027435286 94.81814223504625,61.26111149544886 95.4059506530175,65.12162098348199 95.26487663271837,65.75073508148489 94.88867924525402,65.95090739832085 93.94818577647675,65.92231136343617 71.02365747455042,61.63286700085155 70.5769230768783,61.63286700085155 70.34179970959667,61.83304280032462 70.27126269950531,62.09041143655486 70.41233671980444,63.06269042586791 70.64746008696966,63.89198405465868 70.60043541353662,64.23513918901153 70.74150943383574,65.6649468937685 71.14121915807482,67.75245063220791 71.14121915807482,68.12419594207313 71.3293178519234,68.72470636307844 71.35283018858172,70.1258914207283 71.58795355586335,71.72723561576277 71.79956458637025,72.52790365069814 71.79956458637025,73.15699806397606 71.91712627001107,74.18642167921644 72.1757619738346,74.50096689091879 72.55195936129894,74.64394184896082 77.16037735843565,75.55897953551903 84.16705370100681,76.78855585685233 87.01204644399695,77.38904429717513 88.68142235127743,77.6178013976023 94.13628447020892,78.67580011134851 94.30087082728278,78.81877254774736 94.44194484758191,79.30487818585243 94.88867924525402,83.02212359169789 95.0767779389862,83.90853503080143 95.14731494907755,84.88072440565156 95.21785195928533,85.16666169726523 95.5,85.62416064538411 95.42946298979223,86.1674394980364 95.21785195928533,86.28181383447372 91.15021770680323,86.88227819412714 86.33018867927603,87.45414759684354 78.64165457175113,88.51210234999598 77.25442670530174,88.76944198050478 76.57256894034799,88.79803525547322 75.51451378804632,89.026781331253 73.53947750350926,89.19834074299433 70.88258345425129,89.62723872851348 69.91857764858287,89.71301823240356 69.75399129174184,89.82739085580397 69.6129172713263,90.08472905663075 70.1537010158645,93.74461985497328 69.80101596505847,95.00269424983708 69.84804063849151,96.14639244390128 68.81349782284815,96.37513141972886 65.4512336718617,96.77542409562739 65.16908563126344,96.63246250328666 65.004499274306,96.31794669650844 64.22859216248617,90.51362543622963 63.94644412188791,90.48503236846591 61.712772133527324,90.82814895414049 59.8788098692894,91.0283000661293 60.0904208997963,90.82814895414049 59.9728592162719,90.7423698543571 59.78476052253973,90.25628770170442 59.502612481825054,89.82739085580397 58.985341073945165,85.59556698707456 59.05587808415294,85.45259864346008 59.17343976779375,85.39541128186102 60.842815674841404,85.22384911407426 62.6532656023046,84.93791189159674 62.81785195926204,84.7663493922737 62.79433962260373,84.50900541021838 62.935413643019274,84.39463021732809 66.69738751812838,83.90853503080143 66.90899854863528,83.67978400942229 66.9325108852936,83.07931152662786 66.74441219156142,82.04992658394622 66.67387518135365,81.02053716493538 66.22714078368153,77.76077447307762 65.94499274296686,76.96012413816061 66.03904209006578,76.44541892135749 65.19259796803817,70.18308247138339 64.93396226409823,69.98291373364918 63.61727140774019,70.09729589019844 57.1984034832567,70.95516030276485 56.89274310588371,70.1258914207283 56.96328011609148,69.03925883270858 56.42249637155328,66.7515949729277 56.304934687912464,65.52196651199483 56.02278664719779,64.09215794352349 56.09332365752198,64.0635616840591 56.163860667613335,64.97864027346077 56.54005805507768,67.18053363080253 56.58708272851072,68.09560016974865 56.86923076910898,69.98291373364918 57.127866473048925,71.04094657300448 58.844267053646035,70.78358766897873 59.05587808415294,70.81218311660632 57.127866473048925,70.98375572961231 57.033817126299255,71.04094657300448 57.033817126299255,71.2125190202496 57.4100145137636,71.01235115305462" stroke="#4dd2ff" stroke-linecap="round" stroke-linejoin="round" stroke-width="0.5"><title>2026-07-19 16.0km</title><desc>23653284667</desc></polyline><polyline fill="none" points="147.8895011600107,70.88725500306464 149.20504640368745,70.80154332108214 150.96693735499866,70.48726688796887 154.84309744776692,70.00156612442515 155.0075406031683,70.08727809634001 155.10150812054053,70.28727257667924 155.21896751737222,71.65865874318115 155.7122969836928,74.74424854243989 155.9237238977803,76.48701758348034 155.85324825986754,76.80128604386118 156.0881670532981,77.65837972243025 156.3700696056476,80.11536438662733 156.55800464039203,81.20100064251164 156.8399071926251,83.51510339829838 156.81641531316563,83.71508652418561 156.55800464039203,83.85793151057442 152.77581206487957,84.34360381912848 152.68184454762377,84.4007416722161 152.68184454762377,84.74356850080949 152.56438515079208,84.85784399996919 151.06090487237088,84.97211944387527 149.13457076565828,85.28637662994151 148.87616009288467,85.45778946456267 149.36948955908883,89.51452362425334 149.48694895592052,89.94304781747633 149.7688515080372,90.28586661323789 149.88631090486888,90.9715027140337 150.05075406027026,91.02863896604686 152.30597447790205,90.80009387512109 153.26914153131656,98.08485999134427 152.77581206487957,98.39909975671617 152.58787703013513,98.99901087689796 152.37645011593122,99.11327948916005 151.5307424593484,99.08471234129684 151.08439675171394,99.19898091221694 150.3091647331603,99.08471234129684 146.26856148487423,99.6560546438559 145.44634570763446,99.62748756153451 145.07047563802917,99.77032293878437 144.10730858473107,100.37023058150953 143.96635730855633,100.34166358543735 143.70794663578272,100.08456046521314 143.21461716934573,100.11312749242643 142.86223897896707,100.02742640052747 141.82859628775623,100.22739556648594 141.05336426908616,100.51306551037123 140.70098607894033,100.54163248573605 140.16067285381723,99.77032293878437 140.16067285381723,98.94187655004498 140.04321345710196,98.62763750569138 139.33845707657747,93.02839909202885 139.29147331789136,92.74272010907589 139.08004640368745,92.54274461574096 134.47563805093523,93.11410271959903 133.55945475643966,93.2855098816508 132.92517401394434,93.2855098816508 132.43184454750735,93.11410271959903 129.73027842235751,93.45691691948741 125.94808584684506,93.97113728770637 124.60904872382525,94.42822112100839 121.67256380512845,94.88530407098006 117.51450116012711,95.399521334155 117.18561484920792,95.3423861378833 115.799593967502,95.48522410262376 115.58816705341451,95.31381853458879 115.32975638052449,94.54249194126169 114.55452436185442,88.9431568254804 114.36658932710998,86.6576758284209 114.13167053367943,85.51492704849807 114.01421113684773,84.20075912603352 113.63834106724244,81.94380152533995 113.16850348026492,78.11549508092867 112.957076566061,77.91550722029933 112.6986658932874,77.82979808533855 110.2320185614517,78.17263443862612 109.73868909513112,78.37262208183529 109.43329466355499,78.28691311263538 109.31583526683971,78.08692539692856 109.24535962881055,77.25840305892052 109.03393271460664,76.54415733458882 108.32917633408215,71.65865874318115 108.00029002316296,71.57294734079915 105.83903712290339,71.91579276406264 105.60411832947284,71.858651894785 105.5101508119842,71.74437011452392 104.52349187934306,64.45879264709947 104.5,63.85879391108756 104.61745939671528,63.60165112964751 104.85237819026224,63.43022245330212 106.0504640371073,62.97307870905206 110.7723317865748,60.71591851739504 111.61803944315761,60.43020050130144 114.7894431555178,58.88731724862009 115.61165893275756,58.601597023167415 117.39704176329542,57.71586212984403 118.78306264500134,57.201562927511986 120.80336426920258,56.230105826529325 122.00145011604764,55.7443757794681 123.22302784223575,55.00149260103353 128.10933874698821,52.94426546487375 128.53219257527962,52.915692739741644 129.0255220417166,53.22999252624868 129.3074245939497,53.744300366801326 130.4820185614517,56.57297349430155 130.88138051040005,57.315851735766046 131.30423433869146,57.68728998131701 131.8680394431576,57.83015068959503 132.64327146171127,57.71586212984403 134.05278422276024,57.630145673814695 134.80452436197083,57.430140488868346 137.48259860789403,57.08727406396065 138.06989559158683,56.91584066502401 138.98607888631523,56.77297940425342 139.1505220417166,56.57297349430155 139.17401392105967,56.31582279011491 139.00957076565828,54.801485192685504 139.1505220417166,54.54433256198536 139.62035962881055,54.45861495619465 139.808294663555,54.43004241415474 140.0667053363286,54.6586226545478 140.1841647331603,54.9729201245209 140.4425754060503,56.31582279011491 140.58352668210864,56.630118057350046 140.72447795816697,56.68726260650146 146.66792343382258,55.80152054261998 151.107888631057,55.2586447345966 151.34280742460396,55.11578247271245 151.4837587006623,54.88720267408644 152.16502320184372,50.05840279032418 152.42343387473375,49.601233194276574 152.75232018565293,49.4583675142494 156.9338747098809,50.086975860685925 158.15545243618544,50.34413333896373 159.23607888631523,50.45842546176573 162.43097447790205,51.02988524707325 163.20620649657212,51.0870311496401 164.23984918789938,51.28704169986304 169.00870069605298,52.001363712435705 169.59599767974578,52.40138309689064 170.51218097447418,53.20141983569192 182.68097447801847,55.17292738784454 183.69112529000267,55.40150691018789 183.87906032486353,55.57294140695012 184.09048723895103,56.20153349838802 185.21809744776692,64.7159344964166 185.24158932710998,65.20164611576183 185.14762180973776,65.68735673745687 184.77175174013246,65.94449725106824 183.97302784223575,65.97306840200326 160.73955916462,61.63021384929016 160.45765661261976,61.68735719007964 160.2697215777589,61.887358774460154 160.19924593961332,62.11593180646014 160.34019721567165,63.08736472792225 160.55162412987556,63.54450825139065 160.57511600921862,64.77307709172601 161.04495359631255,68.1158948825032 161.232888631057,68.5730286854232 161.20939675171394,69.4872936404281 161.39733178645838,71.08724880700174 161.58526682131924,72.05864487717918 161.77320185606368,72.54434141598176 161.72621809749398,73.17288839737012 161.84367749420926,74.17284606129397 162.10208816709928,74.51568771569873 162.9477958236821,74.77281863021199 165.25,75.17279949734802 167.01189095131122,75.60134967570775 170.30075406038668,76.11560886463849 178.45243619487155,77.68694945822062 181.3654292342253,78.14406476146542 184.13747099763714,78.7440272562526 184.30191415303852,79.05829271765833 185.14762180973776,85.11496367110522 185.5,85.62920217489591 185.42952436197083,86.00059595453786 185.26508120645303,86.25771438346419 181.6473317865748,86.82908766923356 171.4518561483128,88.14324098856014 166.35411832947284,88.8860200696945 165.36745939671528,88.9431568254804 161.32685614854563,89.57166022823367 159.82337587000802,89.71450167772127 159.18909512762912,89.91447956212505 158.06148491881322,89.94304781747633 153.87993039446883,90.48584401457629 151.38979118329007,90.88579831006064 149.9802784222411,91.00007084172103 149.7688515080372,90.25729839924315 149.51044083526358,89.94304781747633 149.3929814385483,89.54309192790242 148.92314385145437,85.71490848355461 148.94663573079742,85.45778946456267 149.08758700697217,85.37208306277171 152.6583526681643,84.88641286615166 152.72882830619346,84.77213738080172 152.72882830619346,84.45787951149396 152.8227958236821,84.37217274743307 156.79292343382258,83.85793151057442 156.91038283065427,83.57224145150394 156.79292343382258,82.11521678243298 156.58149651973508,81.11529269824678 156.18213457078673,77.77265864491346 155.9237238977803,77.14412388802157 155.97070765669923,76.25845844093419 155.05452436185442,70.08727809634001 154.93706496513914,70.00156612442515 154.60817865421996,69.97299546022259 153.08120649657212,70.25870194702293 149.51044083526358,70.65869044867577 148.38283062644769,70.88725500306464 147.20823665894568,70.9729666539788 147.11426914157346,71.03010773735878 147.16125290014315,71.11581933656998 147.349187935004,71.00153719742957 151.6951856148662,70.43012567344704 148.0539443155285,70.83011388518207 147.20823665894568,71.00153719742957 147.16125290014315,71.2015309046401" stroke="#4dd2ff" stroke-linecap="round" stroke-linejoin="round" stroke-width="0.5"><title>2026-07-12 15.0km</title><desc>23569170146</desc></polyline><polyline fill="none" points="59.39601702650543,220.9729732163978 59.469899665680714,220.82321466645226 60.38111888116691,220.6135525444406 64.49391912447754,220.01451693339914 66.85816357564181,219.7749022837379 67.37534204940312,219.7749022837379 67.547734873835,220.01451693339914 67.96640316210687,223.54880611719273 68.33581635763403,225.82510129049479 68.4096989966929,226.45407390332548 68.31118881131988,226.63378007108986 66.31635755556636,226.99319201578328 64.64168440271169,227.14294683896878 63.92748555797152,227.38255436797044 63.65658254805021,227.712014342178 63.11477652785834,227.92167046148097 60.2826086957939,228.28108053935284 60.036333231953904,228.70039163831098 60.92292490135878,234.96002302241686 61.095317725790665,235.40927278567688 61.070690179476514,236.1879704472085 61.61249619955197,240.53066255847807 61.78488902398385,240.77025715087075 61.95728184864856,240.80020645858895 62.89312861056533,240.7103585244622 63.139404074288905,240.59056122828042 61.95728184864856,240.77025715087075 62.055792034137994,241.5788871908735 62.203557312255725,241.7885315856256 64.59242930985056,241.51898875980987 65.65141380368732,249.15592204310815 65.13423533004243,249.48535308931605 64.96184250537772,250.11426568962634 64.3954089388717,250.44369546278904 64.19838856800925,250.95281334233005 63.97674065071624,251.1025536962843 63.58269990887493,251.13250175617577 63.09014898154419,250.9827614203823 61.66175129218027,251.25229395975475 57.81985405902378,251.67156621659524 57.49969595624134,251.16244981248747 57.031772575341165,250.9827614203823 56.34220127703156,251.34213807442575 56.12055335973855,251.61167022323934 55.923532988876104,251.5517742154625 55.70188507146668,251.2822420016746 54.74141076323576,251.25229395975475 53.51003344496712,251.43198215664597 52.524931590189226,251.76141017928603 51.884615384740755,250.9827614203823 51.909242931054905,250.11426568962634 51.61371237458661,248.85643889399944 51.56445728195831,247.80824502406176 51.293554271920584,246.4605606811674 50.94876862282399,243.58547627012013 50.801003344589844,243.4057823875919 50.67786561278626,243.3458843979024 50.234569778083824,243.37583339455887 47.57479477056768,243.79511896849726 44.57023411372211,244.1545060389908 43.708269990980625,243.97481256880565 41.31939799338579,244.24435272527626 39.201429005828686,244.60373914461525 37.94542414112948,245.0529714365548 33.88187899067998,245.56210038348217 26.813773183501326,246.61030374759866 26.592125266091898,246.55040653186734 26.370477348798886,246.4006634291727 26.050319246016443,245.7118439925107 25.582395864999853,242.86669995896227 25.23761021590326,240.47076387419656 24.794314381317236,236.2179203083797 24.351018546847627,233.70211935510451 23.63681970210746,228.1612772379449 23.24277896026615,227.9516213212628 20.459866220713593,228.25112971939961 19.942687747068703,228.46078538284928 19.64715719060041,228.25112971939961 19.524019458913244,227.92167046148097 19.474764366052113,227.14294683896878 19.2038613561308,226.364220770658 18.53891760413535,221.45219996839296 18.440407418762334,221.3922966750397 18.194131955038756,221.3922966750397 15.928397689247504,221.7217646093195 15.706749772070907,221.66186138120247 15.55898449383676,221.45219996839296 14.647765278234147,214.83279848794336 14.5,213.45498229240184 14.549255092744716,213.1854086627427 14.770903010037728,212.88588206397253 15.164943751995452,212.67621322935156 16.470203709439375,212.19696951314108 19.2531164487591,210.84909159423842 20.65688659180887,210.30993837480491 23.04575858928729,209.081862775216 24.474156278534792,208.57265891313727 27.79887503804639,206.92522748761985 30.064609303721227,205.99667040513305 32.28108847688418,204.91834168645437 33.6356035269564,204.3791755680577 34.448312557069585,203.92986957362154 37.157342657330446,202.8215779721504 38.38871997583192,202.1326374521159 39.250684098456986,201.83309749844193 39.79249011864886,201.8930055181554 40.21115840692073,202.25245333230123 40.72833688056562,203.2109782887128 42.25524475541897,206.56578644899128 42.723168136319146,206.89527408767026 43.51124962011818,206.92522748761985 49.1017026451882,206.1464379117242 50.357707509887405,205.90680985778454 50.801003344589844,205.60727446444798 50.87488598364871,205.48746020581166 50.702493158984,203.75014694788842 50.825630890903994,203.51051657744392 51.56445728195831,203.45060894855123 51.76147765282076,203.66028558606922 51.95849802379962,204.01973083762277 52.10626330191735,205.18792430585017 52.401793858385645,205.75704220637272 58.115384615492076,204.88838804401166 61.51398601394612,204.43908297239977 63.3117968988372,204.28931443433976 63.60732745518908,204.04968458502844 63.73046518699266,203.78010072784673 64.49391912447754,198.6879061308573 64.61705685628112,198.44827086672012 64.98647005180828,198.23858982071397 65.8976892674109,198.26854426668433 69.4933110368438,198.927541163328 82.07798723015003,200.84461308299797 83.60489510500338,202.01282151413034 84.46685922774486,202.31236125064606 85.30419580428861,202.3722691545554 87.9393432654906,202.8215779721504 88.75205229560379,202.8814857530233 91.31331711774692,203.45060894855123 95.17984189733397,203.98977708660823 95.17984189733397,204.13954580570862 94.76117360917851,204.8284807480959 95.25372453639284,208.09340726399387 95.25372453639284,208.54270571222878 94.98282152647153,209.02195649276837 94.9335664336104,209.74083092647197 95.03207661909983,211.1486206540285 95.22909699007869,211.65781922498718 95.5,214.08398628815485 95.35223472188227,214.32360643813445 95.13058680458926,214.35355894053646 93.43128610530403,214.08398628815485 92.4708117969567,213.84436590650876 84.63925205240957,212.4365914871014 81.8070842201123,211.83753611800785 80.25554879906122,211.65781922498718 75.6255700821057,210.7592328057799 74.54195804195479,210.4597032754973 72.91653998184483,210.25003238902718 72.8180297963554,210.30993837480491 72.79340224992484,210.1901263888867 73.03967771364842,212.5564023872139 73.21207053819671,212.97574008154334 73.23669808451086,214.14389134729572 73.58148373384029,216.95941280269471 73.7292490118416,217.79807258734945 73.95089692925103,218.3372095222876 74.00015202199575,220.22417956196296 74.24642748560291,221.751716217972 74.44344785658177,222.29084455553675 74.51733049564064,223.60870888952923 74.46807540301234,223.87827118579298 74.27105503203347,224.14783318899572 73.60611128003802,224.35749232217495 73.55685618740972,224.68695631617447 73.33520827011671,225.13622469335678 72.89191243541427,225.61544339831744 70.20750988146756,226.00480791411246 70.03511705691926,226.09466117706324 69.69033140782267,226.5738780295651 69.2716631195508,226.66373108634434 69.02538765582722,226.6936820980045 68.48358163586818,226.5738780295651 68.36044390394818,226.09466117706324 67.52310732752085,219.95461329274985 67.32608695654199,219.7149985851429" stroke="#4dd2ff" stroke-linecap="round" stroke-linejoin="round" stroke-width="0.5"><title>2026-07-09 11.3km</title><desc>23534944827</desc></polyline><polyline fill="none" points="152.23298429325223,220.2592386418546 153.92931937170215,220.14462366468797 154.8952879582066,220.00135486538056 155.10732984298375,220.115969911727 155.24869109957945,221.4340389641875 155.57853403140325,223.1819018456008 155.71989528811537,225.073017669376 156.30890052358154,228.9698148523894 156.4031413611956,230.31648722941463 156.59162303665653,231.00414677108347 156.92146596871316,233.382287317203 156.92146596871316,233.66880866530119 156.78010471211746,233.84072130794812 153.8586387434043,234.1558941626863 152.86910994770005,234.3564584885462 152.70418848167174,234.6143266583822 152.13874345552176,234.8435425739881 149.59424083773047,235.18736603208527 149.14659685862716,235.3306256592041 148.98167539271526,235.5598408827209 149.09947643976193,236.19018160519772 149.17015706805978,237.65141956525622 149.54712041886523,239.94353940825386 149.80628272262402,240.14409884085762 151.03141361265443,239.97219076618785 150.93717277492397,239.91488804694382 149.97120418853592,240.086796163072 149.3350785340881,240.05814481907873 148.6047120419098,240.28735547454562 148.79319371725433,240.25870415470854 148.7460732985055,240.51656590853236 148.84031413611956,241.08959102460358 148.95811518328264,241.23284708734718 149.1937172776088,241.23284708734718 152.3507853404153,240.80307863962662 153.3874345549848,248.13768673944287 152.84554973815102,248.48149093020766 152.70418848167174,249.0258465467341 152.28010471211746,249.19774806083296 150.67801047116518,249.22639830103435 149.9476439791033,249.398299669876 147.3795811518794,249.7421020338952 146.86125654459465,249.68480167447706 145.25916230364237,249.8280525470036 144.19895287964027,250.40105517218763 144.03403141372837,250.34375497196743 143.82198952883482,250.14320416211558 143.30366492143366,250.22915453002497 142.97382198960986,250.14320416211558 142.54973821993917,250.17185428817174 141.44240837695543,250.40105517218763 140.9240837696707,250.63025583482522 140.73560209432617,250.54430561226036 140.57068062829785,250.20050441082276 140.28795811522286,249.91400302898546 140.26439790590666,249.25504853796156 139.95811518328264,247.8511828664632 139.34554973815102,242.80865806802467 139.13350785337389,242.60810088818835 138.403141361312,242.63675192421942 133.47905759175774,243.3816776475578 133.14921465981752,243.3816776475578 132.58376963355113,243.152469981811 130.86387434555218,243.32437575186486 125.9397905759979,244.01199758633447 125.35078534041531,244.15525188438187 124.71465968596749,244.47041103547963 123.65445026184898,244.67096664088604 121.95811518328264,244.7569189912756 119.0366492146859,245.32993386490853 116.16230366495438,245.7310434529354 115.50261780107394,245.70239279059751 115.38481675391085,245.1866802762088 115.00785340322182,241.71991705363325 114.8429319371935,241.06093980174046 114.48952879582066,238.45366402957006 114.37172774877399,237.45085802525864 114.41884816752281,236.7059136777243 114.18324607331306,236.0469224970875 113.73560209432617,233.12441780803783 113.4764397906838,230.48840230173664 113.14659685862716,228.13888552907156 112.98167539271526,227.9383159458812 112.69895287964027,227.8810103195574 112.06282722519245,227.99562155845342 111.47382198949344,227.99562155845342 110.17801047116518,228.22484386990254 109.75392670161091,228.42541321074532 109.56544502626639,228.36810770207376 109.40052356023807,228.22484386990254 109.30628272262402,227.9383159458812 109.28272251307499,227.10738300903176 108.97643979056738,226.50567113423313 108.97643979056738,225.81799855096324 108.57591623044573,223.38247545078048 108.59947643976193,222.55152655365237 108.34031413611956,221.69192118292267 108.05759162316099,221.5773068980634 105.86649214662611,221.92114958645834 105.63089005241636,221.83518896102032 105.46596858650446,221.5773068980634 104.5,213.86936913490354 105.04188481695019,213.32493283235817 106.95026178017724,212.52260337155894 108.71727748692501,211.5769973081624 109.80104712035973,211.08986544051731 110.4842931937892,210.8892814394785 110.814136125613,210.68869726879348 114.58376963355113,208.99805251767975 115.71465968585107,208.3676395255752 118.35340314137284,207.30739571416052 120.49738219904248,206.24714716279414 121.91099476441741,205.7026933619054 124.71465968596749,204.32722556043882 125.39790575916413,204.1266358395369 125.7984293194022,203.8400788010622 127.30628272262402,203.1236846898246 128.29581151832826,202.7798147477879 128.62565445026848,202.80847059530788 129.04973821993917,203.09502888041607 130.48691099474672,206.18983629517606 130.84031413611956,207.22142979199998 131.09947643976193,207.65125909128983 131.3350785340881,207.76588010622072 138.99214659701101,206.73428897770646 139.25130890065338,206.50504589533375 139.10994764405768,205.30151607726293 139.20418848167174,204.556470748008 139.81675392680336,204.38453687811852 140.26439790590666,204.69974887777062 140.5,206.27580259136448 140.71204188489355,206.61966746425605 140.85340314137284,206.64832284780277 142.03141361253802,206.36176885629538 143.0445026179077,206.30445801648602 143.42146596871316,206.18983629517606 151.21989528811537,205.21554942788498 151.4319371727761,205.07227160982438 151.62041884823702,204.72840449327487 151.99738219904248,201.74820192983316 152.23298429325223,200.25808660323673 152.42146596871316,199.65630660561146 152.7984293194022,199.36974416518933 154.63612565456424,199.6276503771951 157.86387434555218,200.22943044755084 159.23036649206188,200.37271119156503 162.12827225134242,200.83120899078494 162.52879581146408,200.94583330210298 163.18848167534452,201.00314543696004 169.00785340322182,201.9201377111749 169.33769633516204,202.0634174336592 170.53926701575983,203.0663730675151 170.86910994770005,203.20965209740098 175.34554973826744,203.868734520438 179.98691099486314,204.64243763619743 180.22251308895648,204.613782010274 183.8507853404153,205.30151607726293 184.06282722519245,205.4734492823918 184.2984293194022,206.16118085624475 184.7696335078217,209.59980881049705 184.69895287964027,210.0869437388319 184.7460732985055,210.4594580088742 185.00523560214788,211.20448479353217 185.1937172776088,212.52260337155894 185.5,215.18747290223837 185.45287958125118,215.70325064312783 185.0759162303293,216.0184475994174 184.7225130890729,216.10441033293318 183.2617801047163,215.76055921189254 168.30104712035973,213.03838690790872 166.8638743456686,212.7518406373565 166.4397905759979,212.6085673722264 164.9554973822087,212.40798465562693 160.78534031414893,211.63430687396612 160.50261780107394,211.74892596376594 160.38481675391085,211.97816397738643 160.38481675391085,212.46529402048327 160.52617801050656,213.23896909139876 160.69109947641846,213.69744201649155 160.66753926710226,214.44245862949174 160.80890052358154,215.58863346435828 161.09162303665653,216.96403595466109 161.2094240838196,218.25346854538657 161.42146596871316,218.79789353445813 161.3507853404153,219.45693263871362 161.6570680628065,221.8065354123537 161.89267015701625,222.55152655365237 161.86910994770005,223.2392086073378 161.9397905759979,224.21342143679794 162.1047120419098,224.47130063363875 162.34031413611956,224.6718731484725 162.41099476453383,224.87244549376192 162.41099476453383,225.18763026493252 162.17539267020766,225.70338626002194 162.50523560214788,227.9096631345019 162.76439790590666,228.7692459718819 162.64659685862716,229.34229946626874 162.67015706805978,229.62882569426438 163.40052356023807,234.64297865996195 163.63612565456424,236.90647584754333 163.84816753934138,238.25310316783725 164.13089005241636,238.6542247217294 164.27225130889565,239.11264852422755 164.15445026184898,239.22725433642336 162.97643979056738,239.4564657947485 159.93717277492397,239.80028256693913 159.72513089014683,239.97219076618785 159.46596858650446,240.0294934715057 158.6413612565957,239.97219076618785 153.43455497385003,240.6311710424925 151.314136125613,241.03228857528302 148.81675392668694,241.23284708734718 149.17015706805978,241.26149828957568 150.7015706805978,241.06093980174046 150.15968586399686,241.14689346011437 150.04188481671736,241.06093980174046 149.82984293194022,240.25870415470854 149.61780104704667,240.0294934715057 149.5,239.6856770315644 149.24083769635763,237.16434124534135 148.98167539271526,235.6744484113151 149.07591623044573,235.01545436537708 151.2905759162968,234.6143266583822 153.3638743456686,234.4710665986495 156.73298429325223,233.98398174837348 156.99214659701101,233.81206920952536 157.03926701575983,233.26767868106253 156.4031413611956,229.02712021568732 156.28534031426534,227.68044051837933 156.04973821993917,226.84950667819066 156.12041884823702,226.24779414913792 155.55497382197063,222.55152655365237 155.31937172776088,220.54577584243088 155.2015706805978,220.0873161553318 155.0602094241185,219.97270109516103 154.282722513075,220.05866239542956 147.28534031438176,221.03288828885707 146.97905759175774,220.3451998383971 146.9554973822087,219.22770185365516 146.7905759162968,218.540008169075 146.67277486913372,217.50846390357765 146.41361256549135,216.96403595466109 146.39005235605873,215.96113909308042 146.13089005241636,214.1559140552563 146.50785340322182,217.45115575724049 146.74345549731515,218.68327785117435 146.9083769634599,220.20193116017617" stroke="#4dd2ff" stroke-linecap="round" stroke-linejoin="round" stroke-width="0.5"><title>2026-07-05 14.0km</title><desc>23482775954</desc></polyline></svg>