<?xml version="1.0" encoding="utf-8" ?>
<svg baseProfile="full" height="300mm" version="1.1" viewBox="0,0,200,300" width="200mm" xmlns="http://www.w3.org/2000/svg" xmlns:ev="http://www.w3.org/2001/xml-events" xmlns:xlink="http://www.w3.org/1999/xlink"><defs /><rect fill="#222222" height="300" width="200" x="0" y="0" /><text fill="#FFFFFF" style="font-size:12px; font-family:Arial; font-weight:bold;" x="10" y="20">Over 10km Workouts</text><text fill="#FFFFFF" style="font-size:4px; font-family:Arial" x="10" y="280">ATHLETE</text><text fill="#FFFFFF" style="font-size:9px; font-family:Arial" x="10" y="290">kick</text><text fill="#FFFFFF" style="font-size:4px; font-family:Arial" x="120" y="280">STATISTICS</text><text fill="#FFFFFF" style="font-size:3px; font-family:Arial" x="120" y="285">Number: 2</text><text fill="#FFFFFF" style="font-size:3px; font-family:Arial" x="120" y="290">Weekly: 1.0</text><text fill="#FFFFFF" style="font-size:3px; font-family:Arial" x="141" y="285">Total: 25.3 km</text><text fill="#FFFFFF" style="font-size:3px; font-family:Arial" x="141" y="290">Avg: 12.7 km</text><text fill="#FFFFFF" style="font-size:3px; font-family:Arial" x="167" y="285">Min: 11.3 km</text><text fill="#FFFFFF" style="font-size:3px; font-family:Arial" x="167" y="290">Max: 14.0 km</text><polyline fill="none" points="105.86135603522416,84.63063095521647 105.9598662207136,84.43095288862241 107.17482517485041,84.15140339260688 112.6585588324815,83.35268924455158 115.81088476732839,83.03320304499357 116.5004560657544,83.03320304499357 116.73031316499691,83.35268924455158 117.28853754932061,88.06507482295274 117.78108847676776,91.10013505400275 117.87959866214078,91.93876520445338 117.74825174827129,92.17837342811981 115.08847674063873,92.65758935440681 112.85557920346037,92.85726245198748 111.90331407729536,93.17673915732303 111.54211006395053,93.61601912291371 110.81970203714445,93.89556061531766 107.0434782608645,94.37477405249956 106.71511097589973,94.93385551776737 107.89723320165649,103.28003069656552 108.127090300899,103.8790303809219 108.09425357251894,104.91729392961133 108.81666159932502,110.70755007799016 109.04651869856752,111.02700953450403 109.27637579815928,111.06694194479496 110.52417148067616,110.94714469928294 110.85253876552451,110.78741497104056 109.27637579815928,111.02700953450403 109.40772271202877,112.10518292116467 109.60474308289122,112.38470878085354 112.789905746351,112.02531834642286 114.20188507146668,122.20789605748723 113.51231377327349,122.6471374524408 113.28245667368174,123.48568758618785 112.5272119184956,123.92492728371872 112.2645180906402,124.60375112312613 111.9689875341719,124.80340492838877 111.4435998784611,124.84333567493013 110.78686530864798,124.64368189385277 108.88233505620155,125.00305861301604 103.75980541203171,125.56208828880335 103.33292794157751,124.88326641666936 102.70903010026086,124.64368189385277 101.78960170270875,125.1228507659107 101.49407114624046,125.48222696431912 101.23137731838506,125.40236562062637 100.93584676191676,125.04298933557584 99.6552143509034,125.00305861301604 98.0133779264288,125.24264287552796 96.69990878680255,125.68188023904804 95.84615384612698,124.64368189385277 95.87899057462346,123.48568758618785 95.48494983266573,121.80858519201865 95.4192763757892,120.41099336542538 95.05807236244436,118.61408090824261 94.5983581636101,114.78063502683653 94.40133779263124,114.54104318347527 94.23715415026527,114.46117919721291 93.6460930374451,114.50111119277426 90.09972636064049,115.06015862469212 86.0936454848852,115.53934138533077 84.94435998785775,115.29975009174086 81.75919732439797,115.65913696703501 78.93523867428303,116.1383188595064 77.26056552142836,116.73729524874943 71.84250532079022,117.4161338446429 62.418364244513214,118.81373833015095 62.12283368804492,118.73387537585222 61.82730313169304,118.53421790557331 61.40042566123884,117.61579199004336 60.776527819922194,113.8222666119691 60.31681362108793,110.62768516561482 59.725752508384176,104.95722707782988 59.13469139568042,101.60282580682542 58.182426269399,94.21503631726955 57.657038613571785,93.93549509503646 53.94648829428479,94.33483962586615 53.25691699597519,94.61438051046571 52.86287625413388,94.33483962586615 52.69869261176791,93.89556061531766 52.63301915465854,92.85726245198748 52.27181514131371,91.8189610275731 51.385223472025245,85.26959995788638 51.25387655827217,85.18972890006262 50.9255092733074,85.18972890006262 47.904530252330005,85.62901947909268 47.60899969597813,85.54914850828936 47.411979324999265,85.26959995788638 46.19702037097886,76.44373131726752 46.0,74.60664305655519 46.06567345687654,74.2472115503333 46.36120401334483,73.84784275197308 46.886591669288464,73.56828430583118 48.626938279136084,72.92929268418811 52.33748859830666,71.13212212568033 54.20918212225661,70.41325116640655 57.39434478559997,68.77581703363103 59.29887503804639,68.0968785508594 63.73183338402305,65.90030331682647 66.75281240488403,64.66222720686346 69.7081179691013,63.22445558194886 71.51413803594187,62.50556742408662 72.59775007609278,61.90649276485783 76.20979020965751,60.42877062954358 77.85162663424853,59.51018326950725 79.00091213127598,59.11079666460864 79.72332015819848,59.19067402422661 80.28154454252217,59.66993777643074 80.97111584071536,60.94797105161706 83.00699300703127,65.42104859868414 83.6308908482315,65.86036545023671 84.68166616000235,65.90030331682647 92.13560352683999,64.86191721566138 93.81027667981107,64.54241314373212 94.40133779263124,64.14303261929308 94.49984797812067,63.98328027440584 94.26999087864533,61.66686259719427 94.43417452112772,61.3473554365919 95.4192763757892,61.267478598078014 95.6819702036446,61.5470474481117 95.94466403161641,62.02630778349703 96.14168440247886,63.5838990744669 96.53572514443658,64.34272294183029 104.15384615387302,63.184517392044654 108.68531468522269,62.5854439632094 111.08239586499985,62.38575257913908 111.47643660684116,62.06624611339066 111.64062024920713,61.70680097048171 112.6585588324815,54.9172081744764 112.82274247484747,54.597694488969864 113.31529340229463,54.31811976095196 114.53025235643145,54.358059022255475 119.32441471563652,55.23672155110398 136.10398297349457,57.79281744401669 138.13986013981048,59.35042868551682 139.28914563695434,59.74981500089052 140.40559440560173,59.829692206083564 143.91912435390987,60.42877062954358 145.00273639394436,60.50864767070743 148.4177561569959,61.267478598078014 153.57312252977863,61.986369448830374 153.57312252977863,62.18606107428786 153.01489814545494,63.1046409974806 153.67163271503523,67.45787635201123 153.67163271503523,68.05694094963837 153.31042870192323,68.69594199038693 153.24475524469744,69.65444123529596 153.37610215879977,71.53149420538102 153.63879598665517,72.21042563332594 154.0,75.44531505089253 153.80297962913755,75.76480858417926 153.50744907266926,75.80474525404861 151.24171480699442,75.44531505089253 149.96108239574824,75.12582120869774 139.51900273642968,73.24878864947823 135.74277896014974,72.4500481573632 133.67406506533735,72.21042563332594 127.50076010939665,71.01231040770654 126.05594405590091,70.61293770067277 123.8887199757155,70.33337651871261 123.75737306161318,70.41325116640655 123.72453633323312,70.25350185186835 124.05290361808147,73.4085365163046 124.28276071755681,73.96765344205778 124.31559744593687,75.52518846307066 124.77531164500397,79.27921707025962 124.97233201575,80.39743011648534 125.26786257221829,81.11627936305013 125.33353602921125,83.63223941595061 125.6619033140596,85.66895495730569 125.924597141915,86.38779274071567 126.02310732740443,88.14494518603897 125.9574338705279,88.50436158105731 125.69474004267249,88.86377758532763 124.80814837338403,89.14332309624297 124.74247491650749,89.58260842156596 124.4469443600392,90.18163292447571 123.85588324710261,90.82059119775658 120.27667984191794,91.33974388550268 120.04682274255902,91.45954823610373 119.58710854372475,92.09850403942983 119.02888415940106,92.21830811514519 118.70051687431987,92.25824279733934 117.97810884763021,92.09850403942983 117.81392520514783,91.45954823610373 116.69747643661685,83.27281772368588 116.43478260864504,82.9533314468863" stroke="#4dd2ff" stroke-linecap="round" stroke-linejoin="round" stroke-width="0.5"><title>2026-07-09 11.3km</title><desc>23534944827</desc></polyline><polyline fill="none" points="109.64397905755322,203.67898485576734 111.90575916226953,203.52616488622152 113.1937172774924,203.33513982049772 113.47643979056738,203.48795988227357 113.66492146602832,205.24538528555422 114.1047120419098,207.57586912743864 114.29319371737074,210.0973568924819 115.07853403151967,215.29308646984282 115.20418848155532,217.0886496391904 115.4554973822087,218.0055290281016 115.89528795820661,221.1763830895943 115.89528795820661,221.5584115537058 115.70680628274567,221.78762841055868 111.81151832453907,222.20785888357204 110.4921465968946,222.47527798471856 110.27225130889565,222.81910221115686 109.51832460740115,223.12472343197442 106.1256544503849,223.58315470942762 105.5287958115805,223.77416754557635 105.30890052358154,224.07978784359875 105.46596858638804,224.92024214024423 105.56020942411851,226.86855942031252 106.06282722519245,229.92471921100514 106.40837696345989,230.19213178780046 108.04188481683377,229.9629210215644 107.91623036656529,229.88651739590568 106.62827225122601,230.11572821740992 105.78010471211746,230.0775264254189 104.8062827225076,230.3831406327081 105.05759162304457,230.34493887293502 104.99476439796854,230.6887545446807 105.12041884823702,231.45278803279507 105.27748691104352,231.6437961164338 105.59162303677294,231.6437961164338 109.80104712047614,231.07077151950216 111.18324607331306,240.85024898589472 110.46073298424017,241.3086545736005 110.27225130889565,242.03446206229273 109.70680628274567,242.26366408108152 107.57068062829785,242.30186440137913 106.5968586388044,242.53106622648193 103.17277486913372,242.98946937848814 102.48167539283168,242.91306889927364 100.34554973815102,243.10407006266178 98.93193717277609,243.86807356291683 98.71204188489355,243.79167329592747 98.42931937181856,243.5242722161347 97.73821989516728,243.63887270668056 97.2984293194022,243.5242722161347 96.73298429325223,243.5624723842193 95.25654450256843,243.86807356291683 94.56544502626639,244.17367444641422 94.31413612572942,244.05907414967078 94.09424083773047,243.60067254773458 93.71727748692501,243.21867070530425 93.685863874387,242.34006471725297 93.27748691092711,240.46824382193154 92.46073298424017,233.7448774240038 92.17801047116518,233.4774678508984 91.20418848167174,233.51566923226346 84.63874345563818,234.50890353004797 84.19895287964027,234.50890353004797 83.44502617802937,234.20329330905224 81.15183246065862,234.43250100247678 74.58638743462507,235.34933011507383 73.80104712047614,235.5403358458134 72.95287958125118,235.96054804726737 71.53926701575983,236.22795552117168 69.27748691104352,236.34255865501473 65.38219895295333,237.106578486535 61.54973821993917,237.64139127056114 60.67015706805978,237.60319038745365 60.51308900525328,236.91557370158262 60.010471204295754,232.29322273816797 59.79057591618039,231.4145864023012 59.31937172776088,227.9382187060546 59.16230366495438,226.60114403365878 59.225130890030414,225.607884903613 58.91099476441741,224.72922999609727 58.31413612572942,220.83255707737408 57.9685863875784,217.31786973561975 57.528795811580494,214.18518070541904 57.30890052358154,213.91775459449855 56.93193717277609,213.84134709270438 56.08376963366754,213.9941620779282 55.29842931928579,213.9941620779282 53.57068062829785,214.29979182651732 53.00523560214788,214.567217614298 52.75392670161091,214.49081026943168 52.534031413611956,214.29979182651732 52.40837696345989,213.91775459449855 52.376963350805454,212.80984401202295 51.96858638746198,212.00756151229143 51.96858638746198,211.09066473459825 51.43455497385003,207.84330060100183 51.465968586388044,206.73536873818375 51.12041884823702,205.5892282438581 50.74345549743157,205.43640919739846 47.82198952883482,205.89486611523898 47.507853403221816,205.7802519480174 47.287958115222864,205.43640919739846 46.0,195.15915884650894 46.722513089189306,194.43324377646786 49.267015706864186,193.3634711620689 51.62303664907813,192.10266307753045 53.06806282722391,191.45315392068005 53.97905759164132,191.18570858595194 54.41884816752281,190.91826302502886 59.445026178029366,188.6640700235439 60.952879581134766,187.82351936740451 64.47120418853592,186.40986095220433 67.32984293194022,184.99619621704915 69.21465968585107,184.27025781586417 72.95287958125118,182.43630074721295 73.86387434555218,182.1688477860298 74.39790575916413,181.7867717347399 76.40837696345989,180.83157958640368 77.72774869110435,180.37308633036446 78.16753926698584,180.41129412705777 78.73298429325223,180.79337184052565 80.64921465958469,184.91978172687232 81.12041884823702,186.29523972264724 81.46596858638804,186.8683454550337 81.78010471211746,187.02117347493186 91.98952879593708,185.64571863692254 92.3350785340881,185.34006119376863 92.14659685862716,183.7353547696839 92.27225130889565,182.7419609973149 93.089005235699,182.51271583748166 93.685863874387,182.93299850367475 94.0,185.03440345512354 94.28272251307499,185.492889952322 94.47120418853592,185.5310971303843 96.04188481671736,185.14902514169808 97.39267015713267,185.07261068862863 97.89528795820661,184.91978172687232 108.29319371737074,183.6207325705036 108.57591623044573,183.42969547974644 108.8272251309827,182.97120599102345 109.32984293194022,178.99760257307207 109.64397905755322,177.01078213762958 109.89528795820661,176.20840880746255 110.39790575916413,175.82632555355667 112.84816753934138,176.1702005029074 117.15183246065862,176.97257393004838 118.97382198949344,177.1636149220576 122.83769633504562,177.7749453210272 123.37172774865758,177.9277777360985 124.25130890042055,178.00419391592732 132.01047120429575,179.22685028152773 132.45026178017724,179.4178899115068 134.0523560210131,180.755164089991 134.4921465968946,180.94620279650553 140.46073298435658,181.8249793605646 146.6492146597011,182.8565835148911 146.9633507853141,182.81837601368898 151.80104712047614,183.7353547696839 152.08376963355113,183.96459904315998 152.39790575916413,184.8815744749736 153.02617801050656,189.4664117473003 152.9319371727761,190.1159249850898 152.99476439796854,190.61261067847954 153.34031413611956,191.60597972469986 153.59162303677294,193.3634711620689 154.0,196.91663053628872 153.93717277492397,197.6043341908371 153.4345549737336,198.02459679919411 152.96335078543052,198.13921377720544 151.01570680632722,197.68074561585672 131.0680628272239,194.05118254385889 129.15183246077504,193.66912084977957 128.58638743462507,193.47808982961578 126.60732984298375,193.21064620747347 121.04712041886523,192.17907583195483 120.67015706805978,192.33190128501155 120.51308900525328,192.63755196981947 120.51308900525328,193.287058693968 120.7015706805978,194.31862545516924 120.92146596859675,194.929922688636 120.89005235605873,195.92327817264595 121.07853403151967,197.45151128579164 121.4554973822087,199.28538127287175 121.61256544513162,201.004624727153 121.89528795820661,201.73052471259143 121.80104712047614,202.60924351826543 122.2094240837032,205.7420472164522 122.52356020943262,206.73536873818375 122.4921465968946,207.65227814309765 122.58638743462507,208.95122858235845 122.8062827225076,209.29506751149893 123.12041884823702,209.56249753126758 123.21465968596749,209.82992732498678 123.21465968596749,210.2501736865379 122.90052356023807,210.93784834665712 123.34031413611956,213.87955084597343 123.685863874387,215.02566129583283 123.5287958115805,215.78973262166255 123.56020942411851,216.1717675923137 124.53403141361196,222.85730487992987 124.84816753934138,225.87530113005778 125.13089005253278,227.6708042237442 125.50785340322182,228.20563296228647 125.69633507844992,228.81686469895067 125.53926701575983,228.96967244855477 123.96858638746198,229.27528772631194 119.91623036656529,229.73371008923277 119.63350785337389,229.9629210215644 119.28795811522286,230.03932462865487 118.18848167534452,229.9629210215644 111.24607329838909,230.8415613899706 108.41884816752281,231.37638476703432 105.08900523558259,231.6437961164338 105.56020942411851,231.68199771942454 107.60209424071945,231.4145864023012 106.87958115199581,231.5291912801331 106.72251308895648,231.4145864023012 106.43979057588149,230.34493887293502 106.15706806269009,230.03932462865487 106.0,229.58090270872344 105.65445026173256,226.21912166042603 105.30890052358154,224.23259788172436 105.43455497385003,223.353939153807 108.38743455510121,222.81910221115686 111.15183246077504,222.6280887981702 115.64397905755322,221.97864233114524 115.98952879593708,221.74942561268108 116.05235602101311,221.02357157471124 115.20418848155532,215.36949362090672 115.04712041898165,213.57392069115303 114.73298429325223,212.4660089042154 114.8272251309827,211.66372553215479 114.07329842937179,206.73536873818375 113.75916230364237,204.0610344565648 113.60209424071945,203.44975487375632 113.41361256549135,203.29693479352864 112.37696335080545,203.41154986055335 103.04712041909806,204.71051771845669 102.63874345563818,203.79359978449065 102.60732984298375,202.30360247154022 102.3874345549848,201.38667755876668 102.23036649206188,200.0112852047605 101.88481675391085,199.28538127287175 101.85340314137284,197.94818545741145 101.50785340322182,195.54121874031262 102.01047120429575,199.9348743429873 102.32460732979234,201.5777038015367 102.54450261790771,203.6025748802349" stroke="#4dd2ff" stroke-linecap="round" stroke-linejoin="round" stroke-width="0.5"><title>2026-07-05 14.0km</title><desc>23482775954</desc></polyline></svg>