<?xml version="1.0" encoding="utf-8" ?>
<svg baseProfile="full" height="300mm" version="1.1" viewBox="0,0,200,300" width="200mm" xmlns="http://www.w3.org/2000/svg" xmlns:ev="http://www.w3.org/2001/xml-events" xmlns:xlink="http://www.w3.org/1999/xlink"><defs /><rect fill="#222222" height="300" width="200" x="0" y="0" /><text fill="#FFFFFF" style="font-size:12px; font-family:Arial; font-weight:bold;" x="10" y="20">Over 10km Workouts</text><text fill="#FFFFFF" style="font-size:4px; font-family:Arial" x="10" y="280">ATHLETE</text><text fill="#FFFFFF" style="font-size:9px; font-family:Arial" x="10" y="290">kick</text><text fill="#FFFFFF" style="font-size:4px; font-family:Arial" x="120" y="280">STATISTICS</text><text fill="#FFFFFF" style="font-size:3px; font-family:Arial" x="120" y="285">Number: 3</text><text fill="#FFFFFF" style="font-size:3px; font-family:Arial" x="120" y="290">Weekly: 1.5</text><text fill="#FFFFFF" style="font-size:3px; font-family:Arial" x="141" y="285">Total: 40.3 km</text><text fill="#FFFFFF" style="font-size:3px; font-family:Arial" x="141" y="290">Avg: 13.4 km</text><text fill="#FFFFFF" style="font-size:3px; font-family:Arial" x="167" y="285">Min: 11.3 km</text><text fill="#FFFFFF" style="font-size:3px; font-family:Arial" x="167" y="290">Max: 15.0 km</text><polyline fill="none" points="57.889501160010695,70.88725500306464 59.20504640368745,70.80154332108214 60.96693735499866,70.48726688796887 64.84309744776692,70.00156612442515 65.00754060316831,70.08727809634001 65.10150812054053,70.28727257667924 65.21896751737222,71.65865874318115 65.7122969836928,74.74424854243989 65.92372389778029,76.48701758348034 65.85324825986754,76.80128604386118 66.0881670532981,77.65837972243025 66.37006960564759,80.11536438662733 66.55800464039203,81.20100064251164 66.8399071926251,83.51510339829838 66.81641531316563,83.71508652418561 66.55800464039203,83.85793151057442 62.775812064879574,84.34360381912848 62.68184454762377,84.4007416722161 62.68184454762377,84.74356850080949 62.56438515079208,84.85784399996919 61.060904872370884,84.97211944387527 59.13457076565828,85.28637662994151 58.876160092884675,85.45778946456267 59.369489559088834,89.51452362425334 59.486948955920525,89.94304781747633 59.76885150803719,90.28586661323789 59.88631090486888,90.9715027140337 60.050754060270265,91.02863896604686 62.305974477902055,90.80009387512109 63.26914153131656,98.08485999134427 62.775812064879574,98.39909975671617 62.58787703013513,98.99901087689796 62.37645011593122,99.11327948916005 61.5307424593484,99.08471234129684 61.08439675171394,99.19898091221694 60.30916473316029,99.08471234129684 56.268561484874226,99.6560546438559 55.446345707634464,99.62748756153451 55.070475638029166,99.77032293878437 54.10730858473107,100.37023058150953 53.966357308556326,100.34166358543735 53.70794663578272,100.08456046521314 53.21461716934573,100.11312749242643 52.86223897896707,100.02742640052747 51.82859628775623,100.22739556648594 51.05336426908616,100.51306551037123 50.70098607894033,100.54163248573605 50.16067285381723,99.77032293878437 50.16067285381723,98.94187655004498 50.043213457101956,98.62763750569138 49.33845707657747,93.02839909202885 49.29147331789136,92.74272010907589 49.08004640368745,92.54274461574096 44.47563805093523,93.11410271959903 43.55945475643966,93.2855098816508 42.92517401394434,93.2855098816508 42.43184454750735,93.11410271959903 39.730278422357515,93.45691691948741 35.94808584684506,93.97113728770637 34.60904872382525,94.42822112100839 31.672563805128448,94.88530407098006 27.51450116012711,95.399521334155 27.185614849207923,95.3423861378833 25.799593967502005,95.48522410262376 25.58816705341451,95.31381853458879 25.329756380524486,94.54249194126169 24.55452436185442,88.9431568254804 24.366589327109978,86.6576758284209 24.131670533679426,85.51492704849807 24.014211136847734,84.20075912603352 23.638341067242436,81.94380152533995 23.168503480264917,78.11549508092867 22.957076566061005,77.91550722029933 22.698665893287398,77.82979808533855 20.232018561451696,78.17263443862612 19.73868909513112,78.37262208183529 19.43329466355499,78.28691311263538 19.315835266839713,78.08692539692856 19.245359628810547,77.25840305892052 19.033932714606635,76.54415733458882 18.32917633408215,71.65865874318115 18.00029002316296,71.57294734079915 15.839037122903392,71.91579276406264 15.60411832947284,71.858651894785 15.510150811984204,71.74437011452392 14.523491879343055,64.45879264709947 14.5,63.85879391108756 14.617459396715276,63.60165112964751 14.852378190262243,63.43022245330212 16.050464037107304,62.97307870905206 20.772331786574796,60.71591851739504 21.618039443157613,60.43020050130144 24.7894431555178,58.88731724862009 25.611658932757564,58.601597023167415 27.39704176329542,57.71586212984403 28.783062645001337,57.201562927511986 30.803364269202575,56.230105826529325 32.001450116047636,55.7443757794681 33.22302784223575,55.00149260103353 38.109338746988215,52.94426546487375 38.53219257527962,52.915692739741644 39.02552204171661,53.22999252624868 39.30742459394969,53.744300366801326 40.482018561451696,56.57297349430155 40.88138051040005,57.315851735766046 41.30423433869146,57.68728998131701 41.86803944315761,57.83015068959503 42.643271461711265,57.71586212984403 44.05278422276024,57.630145673814695 44.804524361970834,57.430140488868346 47.48259860789403,57.08727406396065 48.06989559158683,56.91584066502401 48.98607888631523,56.77297940425342 49.15052204171661,56.57297349430155 49.17401392105967,56.31582279011491 49.00957076565828,54.801485192685504 49.15052204171661,54.54433256198536 49.62035962881055,54.45861495619465 49.80829466355499,54.43004241415474 50.066705336328596,54.6586226545478 50.18416473316029,54.9729201245209 50.44257540605031,56.31582279011491 50.58352668210864,56.630118057350046 50.72447795816697,56.68726260650146 56.66792343382258,55.80152054261998 61.107888631056994,55.2586447345966 61.34280742460396,55.11578247271245 61.48375870066229,54.88720267408644 62.165023201843724,50.05840279032418 62.423433874733746,49.601233194276574 62.752320185652934,49.4583675142494 66.93387470988091,50.086975860685925 68.15545243618544,50.34413333896373 69.23607888631523,50.45842546176573 72.43097447790205,51.02988524707325 73.20620649657212,51.0870311496401 74.23984918789938,51.28704169986304 79.00870069605298,52.001363712435705 79.59599767974578,52.40138309689064 80.51218097447418,53.20141983569192 92.68097447801847,55.17292738784454 93.69112529000267,55.40150691018789 93.87906032486353,55.57294140695012 94.09048723895103,56.20153349838802 95.21809744776692,64.7159344964166 95.24158932710998,65.20164611576183 95.14762180973776,65.68735673745687 94.77175174013246,65.94449725106824 93.97302784223575,65.97306840200326 70.73955916462,61.63021384929016 70.45765661261976,61.68735719007964 70.2697215777589,61.887358774460154 70.19924593961332,62.11593180646014 70.34019721567165,63.08736472792225 70.55162412987556,63.54450825139065 70.57511600921862,64.77307709172601 71.04495359631255,68.1158948825032 71.232888631057,68.5730286854232 71.20939675171394,69.4872936404281 71.39733178645838,71.08724880700174 71.58526682131924,72.05864487717918 71.77320185606368,72.54434141598176 71.72621809749398,73.17288839737012 71.84367749420926,74.17284606129397 72.10208816709928,74.51568771569873 72.9477958236821,74.77281863021199 75.25,75.17279949734802 77.01189095131122,75.60134967570775 80.30075406038668,76.11560886463849 88.45243619487155,77.68694945822062 91.3654292342253,78.14406476146542 94.13747099763714,78.7440272562526 94.30191415303852,79.05829271765833 95.14762180973776,85.11496367110522 95.5,85.62920217489591 95.42952436197083,86.00059595453786 95.26508120645303,86.25771438346419 91.6473317865748,86.82908766923356 81.4518561483128,88.14324098856014 76.35411832947284,88.8860200696945 75.36745939671528,88.9431568254804 71.32685614854563,89.57166022823367 69.82337587000802,89.71450167772127 69.18909512762912,89.91447956212505 68.06148491881322,89.94304781747633 63.87993039446883,90.48584401457629 61.38979118329007,90.88579831006064 59.9802784222411,91.00007084172103 59.76885150803719,90.25729839924315 59.51044083526358,89.94304781747633 59.392981438548304,89.54309192790242 58.92314385145437,85.71490848355461 58.946635730797425,85.45778946456267 59.08758700697217,85.37208306277171 62.6583526681643,84.88641286615166 62.72882830619346,84.77213738080172 62.72882830619346,84.45787951149396 62.8227958236821,84.37217274743307 66.79292343382258,83.85793151057442 66.91038283065427,83.57224145150394 66.79292343382258,82.11521678243298 66.58149651973508,81.11529269824678 66.18213457078673,77.77265864491346 65.92372389778029,77.14412388802157 65.97070765669923,76.25845844093419 65.05452436185442,70.08727809634001 64.93706496513914,70.00156612442515 64.60817865421996,69.97299546022259 63.08120649657212,70.25870194702293 59.51044083526358,70.65869044867577 58.382830626447685,70.88725500306464 57.20823665894568,70.9729666539788 57.11426914157346,71.03010773735878 57.161252900143154,71.11581933656998 57.34918793500401,71.00153719742957 61.695185614866205,70.43012567344704 58.0539443155285,70.83011388518207 57.20823665894568,71.00153719742957 57.161252900143154,71.2015309046401" stroke="#4dd2ff" stroke-linecap="round" stroke-linejoin="round" stroke-width="0.5"><title>2026-07-12 15.0km</title><desc>23569170146</desc></polyline><polyline fill="none" points="149.39601702650543,70.9729732163978 149.4698996656807,70.82321466645226 150.3811188811669,70.61355254444061 154.49391912447754,70.01451693339914 156.8581635756418,69.7749022837379 157.37534204940312,69.7749022837379 157.547734873835,70.01451693339914 157.96640316210687,73.54880611719273 158.33581635763403,75.82510129049479 158.4096989966929,76.45407390332548 158.31118881131988,76.63378007108986 156.31635755556636,76.99319201578328 154.6416844027117,77.14294683896878 153.92748555797152,77.38255436797044 153.6565825480502,77.71201434217801 153.11477652785834,77.92167046148097 150.2826086957939,78.28108053935284 150.0363332319539,78.70039163831098 150.92292490135878,84.96002302241686 151.09531772579066,85.40927278567688 151.07069017947651,86.1879704472085 151.61249619955197,90.53066255847807 151.78488902398385,90.77025715087075 151.95728184864856,90.80020645858895 152.89312861056533,90.71035852446221 153.1394040742889,90.59056122828042 151.95728184864856,90.77025715087075 152.055792034138,91.5788871908735 152.20355731225573,91.7885315856256 154.59242930985056,91.51898875980987 155.65141380368732,99.15592204310815 155.13423533004243,99.48535308931605 154.96184250537772,100.11426568962634 154.3954089388717,100.44369546278904 154.19838856800925,100.95281334233005 153.97674065071624,101.1025536962843 153.58269990887493,101.13250175617577 153.0901489815442,100.9827614203823 151.66175129218027,101.25229395975475 147.81985405902378,101.67156621659524 147.49969595624134,101.16244981248747 147.03177257534117,100.9827614203823 146.34220127703156,101.34213807442575 146.12055335973855,101.61167022323934 145.9235329888761,101.5517742154625 145.70188507146668,101.2822420016746 144.74141076323576,101.25229395975475 143.51003344496712,101.43198215664597 142.52493159018923,101.76141017928603 141.88461538474075,100.9827614203823 141.9092429310549,100.11426568962634 141.6137123745866,98.85643889399944 141.5644572819583,97.80824502406176 141.29355427192058,96.46056068116741 140.948768622824,93.58547627012013 140.80100334458984,93.4057823875919 140.67786561278626,93.34588439790241 140.23456977808382,93.37583339455887 137.57479477056768,93.79511896849726 134.5702341137221,94.1545060389908 133.70826999098063,93.97481256880565 131.3193979933858,94.24435272527626 129.2014290058287,94.60373914461525 127.94542414112948,95.0529714365548 123.88187899067998,95.56210038348217 116.81377318350133,96.61030374759866 116.5921252660919,96.55040653186734 116.37047734879889,96.40066342917271 116.05031924601644,95.7118439925107 115.58239586499985,92.86669995896227 115.23761021590326,90.47076387419656 114.79431438131724,86.21792030837969 114.35101854684763,83.70211935510451 113.63681970210746,78.16127723794489 113.24277896026615,77.95162132126279 110.4598662207136,78.25112971939961 109.9426877470687,78.46078538284928 109.64715719060041,78.25112971939961 109.52401945891324,77.92167046148097 109.47476436605211,77.14294683896878 109.2038613561308,76.364220770658 108.53891760413535,71.45219996839296 108.44040741876233,71.39229667503969 108.19413195503876,71.39229667503969 105.9283976892475,71.72176460931951 105.7067497720709,71.66186138120247 105.55898449383676,71.45219996839296 104.64776527823415,64.83279848794336 104.5,63.45498229240184 104.54925509274472,63.1854086627427 104.77090301003773,62.88588206397253 105.16494375199545,62.67621322935156 106.47020370943937,62.196969513141084 109.2531164487591,60.849091594238416 110.65688659180887,60.309938374804915 113.04575858928729,59.081862775215995 114.47415627853479,58.572658913137275 117.79887503804639,56.92522748761985 120.06460930372123,55.996670405133045 122.28108847688418,54.91834168645437 123.6356035269564,54.37917556805769 124.44831255706958,53.929869573621545 127.15734265733045,52.82157797215041 128.38871997583192,52.13263745211589 129.250684098457,51.83309749844193 129.79249011864886,51.893005518155405 130.21115840692073,52.25245333230123 130.72833688056562,53.210978288712795 132.25524475541897,56.565786448991275 132.72316813631915,56.89527408767026 133.51124962011818,56.92522748761985 139.1017026451882,56.146437911724206 140.3577075098874,55.90680985778454 140.80100334458984,55.60727446444798 140.8748859836487,55.48746020581166 140.702493158984,53.750146947888425 140.825630890904,53.51051657744392 141.5644572819583,53.450608948551235 141.76147765282076,53.66028558606922 141.95849802379962,54.019730837622774 142.10626330191735,55.187924305850174 142.40179385838564,55.75704220637272 148.11538461549208,54.88838804401166 151.51398601394612,54.439082972399774 153.3117968988372,54.28931443433976 153.60732745518908,54.049684585028444 153.73046518699266,53.78010072784673 154.49391912447754,48.6879061308573 154.61705685628112,48.44827086672012 154.98647005180828,48.23858982071397 155.8976892674109,48.26854426668433 159.4933110368438,48.92754116332799 172.07798723015003,50.84461308299797 173.60489510500338,52.01282151413034 174.46685922774486,52.31236125064606 175.3041958042886,52.3722691545554 177.9393432654906,52.82157797215041 178.7520522956038,52.8814857530233 181.31331711774692,53.450608948551235 185.17984189733397,53.98977708660823 185.17984189733397,54.13954580570862 184.7611736091785,54.8284807480959 185.25372453639284,58.09340726399387 185.25372453639284,58.54270571222878 184.98282152647153,59.02195649276837 184.9335664336104,59.74083092647197 185.03207661909983,61.14862065402849 185.2290969900787,61.65781922498718 185.5,64.08398628815485 185.35223472188227,64.32360643813445 185.13058680458926,64.35355894053646 183.43128610530403,64.08398628815485 182.4708117969567,63.844365906508756 174.63925205240957,62.436591487101396 171.8070842201123,61.83753611800785 170.25554879906122,61.65781922498718 165.6255700821057,60.7592328057799 164.54195804195479,60.459703275497304 162.91653998184483,60.25003238902718 162.8180297963554,60.309938374804915 162.79340224992484,60.19012638888671 163.03967771364842,62.55640238721389 163.2120705381967,62.975740081543336 163.23669808451086,64.14389134729572 163.5814837338403,66.95941280269471 163.7292490118416,67.79807258734945 163.95089692925103,68.3372095222876 164.00015202199575,70.22417956196296 164.2464274856029,71.75171621797199 164.44344785658177,72.29084455553675 164.51733049564064,73.60870888952923 164.46807540301234,73.87827118579298 164.27105503203347,74.14783318899572 163.60611128003802,74.35749232217495 163.55685618740972,74.68695631617447 163.3352082701167,75.13622469335678 162.89191243541427,75.61544339831744 160.20750988146756,76.00480791411246 160.03511705691926,76.09466117706324 159.69033140782267,76.5738780295651 159.2716631195508,76.66373108634434 159.02538765582722,76.6936820980045 158.48358163586818,76.5738780295651 158.36044390394818,76.09466117706324 157.52310732752085,69.95461329274985 157.32608695654199,69.7149985851429" stroke="#4dd2ff" stroke-linecap="round" stroke-linejoin="round" stroke-width="0.5"><title>2026-07-09 11.3km</title><desc>23534944827</desc></polyline><polyline fill="none" points="62.23298429325223,220.2592386418546 63.92931937170215,220.14462366468797 64.89528795820661,220.00135486538056 65.10732984298375,220.115969911727 65.24869109957945,221.4340389641875 65.57853403140325,223.1819018456008 65.71989528811537,225.073017669376 66.30890052358154,228.9698148523894 66.4031413611956,230.31648722941463 66.59162303665653,231.00414677108347 66.92146596871316,233.382287317203 66.92146596871316,233.66880866530119 66.78010471211746,233.84072130794812 63.8586387434043,234.1558941626863 62.86910994770005,234.3564584885462 62.704188481671736,234.6143266583822 62.13874345552176,234.8435425739881 59.59424083773047,235.18736603208527 59.14659685862716,235.3306256592041 58.98167539271526,235.5598408827209 59.09947643976193,236.19018160519772 59.17015706805978,237.65141956525622 59.547120418865234,239.94353940825386 59.80628272262402,240.14409884085762 61.03141361265443,239.97219076618785 60.937172774923965,239.91488804694382 59.97120418853592,240.086796163072 59.3350785340881,240.05814481907873 58.604712041909806,240.28735547454562 58.793193717254326,240.25870415470854 58.74607329850551,240.51656590853236 58.84031413611956,241.08959102460358 58.958115183282644,241.23284708734718 59.19371727760881,241.23284708734718 62.350785340415314,240.80307863962662 63.38743455498479,248.13768673944287 62.84554973815102,248.48149093020766 62.704188481671736,249.0258465467341 62.28010471211746,249.19774806083296 60.67801047116518,249.22639830103435 59.947643979103304,249.398299669876 57.37958115187939,249.7421020338952 56.86125654459465,249.68480167447706 55.25916230364237,249.8280525470036 54.198952879640274,250.40105517218763 54.03403141372837,250.34375497196743 53.82198952883482,250.14320416211558 53.303664921433665,250.22915453002497 52.97382198960986,250.14320416211558 52.54973821993917,250.17185428817174 51.44240837695543,250.40105517218763 50.92408376967069,250.63025583482522 50.73560209432617,250.54430561226036 50.57068062829785,250.20050441082276 50.287958115222864,249.91400302898546 50.26439790590666,249.25504853796156 49.958115183282644,247.8511828664632 49.34554973815102,242.80865806802467 49.133507853373885,242.60810088818835 48.40314136131201,242.63675192421942 43.47905759175774,243.3816776475578 43.14921465981752,243.3816776475578 42.58376963355113,243.152469981811 40.863874345552176,243.32437575186486 35.939790575997904,244.01199758633447 35.350785340415314,244.15525188438187 34.71465968596749,244.47041103547963 33.65445026184898,244.67096664088604 31.958115183282644,244.7569189912756 29.036649214685895,245.32993386490853 26.16230366495438,245.7310434529354 25.50261780107394,245.70239279059751 25.384816753910854,245.1866802762088 25.007853403221816,241.71991705363325 24.842931937193498,241.06093980174046 24.48952879582066,238.45366402957006 24.371727748773992,237.45085802525864 24.41884816752281,236.7059136777243 24.183246073313057,236.0469224970875 23.73560209432617,233.12441780803783 23.4764397906838,230.48840230173664 23.146596858627163,228.13888552907156 22.98167539271526,227.9383159458812 22.698952879640274,227.8810103195574 22.06282722519245,227.99562155845342 21.473821989493445,227.99562155845342 20.17801047116518,228.22484386990254 19.753926701610908,228.42541321074532 19.56544502626639,228.36810770207376 19.40052356023807,228.22484386990254 19.30628272262402,227.9383159458812 19.282722513074987,227.10738300903176 18.976439790567383,226.50567113423313 18.976439790567383,225.81799855096324 18.575916230445728,223.38247545078048 18.59947643976193,222.55152655365237 18.34031413611956,221.69192118292267 18.057591623160988,221.5773068980634 15.866492146626115,221.92114958645834 15.630890052416362,221.83518896102032 15.46596858650446,221.5773068980634 14.5,213.86936913490354 15.041884816950187,213.32493283235817 16.950261780177243,212.52260337155894 18.717277486925013,211.5769973081624 19.801047120359726,211.08986544051731 20.4842931937892,210.8892814394785 20.814136125613004,210.68869726879348 24.583769633551128,208.99805251767975 25.714659685851075,208.3676395255752 28.353403141372837,207.30739571416052 30.497382199042477,206.24714716279414 31.91099476441741,205.7026933619054 34.71465968596749,204.32722556043882 35.39790575916413,204.1266358395369 35.7984293194022,203.8400788010622 37.30628272262402,203.1236846898246 38.295811518328264,202.7798147477879 38.625654450268485,202.80847059530788 39.04973821993917,203.09502888041607 40.48691099474672,206.18983629517606 40.84031413611956,207.22142979199998 41.09947643976193,207.65125909128983 41.3350785340881,207.76588010622072 48.992146597011015,206.73428897770646 49.251308900653385,206.50504589533375 49.109947644057684,205.30151607726293 49.204188481671736,204.556470748008 49.81675392680336,204.38453687811852 50.26439790590666,204.69974887777062 50.5,206.27580259136448 50.71204188489355,206.61966746425605 50.85340314137284,206.64832284780277 52.03141361253802,206.36176885629538 53.04450261790771,206.30445801648602 53.421465968713164,206.18983629517606 61.21989528811537,205.21554942788498 61.43193717277609,205.07227160982438 61.62041884823702,204.72840449327487 61.99738219904248,201.74820192983316 62.23298429325223,200.25808660323673 62.421465968713164,199.65630660561146 62.7984293194022,199.36974416518933 64.63612565456424,199.6276503771951 67.86387434555218,200.22943044755084 69.23036649206188,200.37271119156503 72.12827225134242,200.83120899078494 72.52879581146408,200.94583330210298 73.18848167534452,201.00314543696004 79.00785340322182,201.9201377111749 79.33769633516204,202.0634174336592 80.53926701575983,203.0663730675151 80.86910994770005,203.20965209740098 85.34554973826744,203.868734520438 89.98691099486314,204.64243763619743 90.22251308895648,204.613782010274 93.85078534041531,205.30151607726293 94.06282722519245,205.4734492823918 94.2984293194022,206.16118085624475 94.76963350782171,209.59980881049705 94.69895287964027,210.0869437388319 94.74607329850551,210.4594580088742 95.00523560214788,211.20448479353217 95.19371727760881,212.52260337155894 95.5,215.18747290223837 95.45287958125118,215.70325064312783 95.07591623032931,216.0184475994174 94.72251308907289,216.10441033293318 93.26178010471631,215.76055921189254 78.30104712035973,213.03838690790872 76.86387434566859,212.7518406373565 76.4397905759979,212.6085673722264 74.9554973822087,212.40798465562693 70.78534031414893,211.63430687396612 70.50261780107394,211.74892596376594 70.38481675391085,211.97816397738643 70.38481675391085,212.46529402048327 70.52617801050656,213.23896909139876 70.69109947641846,213.69744201649155 70.66753926710226,214.44245862949174 70.80890052358154,215.58863346435828 71.09162303665653,216.96403595466109 71.20942408381961,218.25346854538657 71.42146596871316,218.79789353445813 71.35078534041531,219.45693263871362 71.6570680628065,221.8065354123537 71.89267015701625,222.55152655365237 71.86910994770005,223.2392086073378 71.9397905759979,224.21342143679794 72.1047120419098,224.47130063363875 72.34031413611956,224.6718731484725 72.41099476453383,224.87244549376192 72.41099476453383,225.18763026493252 72.17539267020766,225.70338626002194 72.50523560214788,227.9096631345019 72.76439790590666,228.7692459718819 72.64659685862716,229.34229946626874 72.67015706805978,229.62882569426438 73.40052356023807,234.64297865996195 73.63612565456424,236.90647584754333 73.84816753934138,238.25310316783725 74.13089005241636,238.6542247217294 74.27225130889565,239.11264852422755 74.15445026184898,239.22725433642336 72.97643979056738,239.4564657947485 69.93717277492397,239.80028256693913 69.72513089014683,239.97219076618785 69.46596858650446,240.0294934715057 68.6413612565957,239.97219076618785 63.43455497385003,240.6311710424925 61.314136125613004,241.03228857528302 58.81675392668694,241.23284708734718 59.17015706805978,241.26149828957568 60.7015706805978,241.06093980174046 60.159685863996856,241.14689346011437 60.041884816717356,241.06093980174046 59.82984293194022,240.25870415470854 59.61780104704667,240.0294934715057 59.5,239.6856770315644 59.24083769635763,237.16434124534135 58.98167539271526,235.6744484113151 59.07591623044573,235.01545436537708 61.2905759162968,234.6143266583822 63.36387434566859,234.4710665986495 66.73298429325223,233.98398174837348 66.99214659701101,233.81206920952536 67.03926701575983,233.26767868106253 66.4031413611956,229.02712021568732 66.28534031426534,227.68044051837933 66.04973821993917,226.84950667819066 66.12041884823702,226.24779414913792 65.55497382197063,222.55152655365237 65.31937172776088,220.54577584243088 65.2015706805978,220.0873161553318 65.06020942411851,219.97270109516103 64.28272251307499,220.05866239542956 57.285340314381756,221.03288828885707 56.97905759175774,220.3451998383971 56.955497382208705,219.22770185365516 56.7905759162968,218.540008169075 56.67277486913372,217.50846390357765 56.41361256549135,216.96403595466109 56.39005235605873,215.96113909308042 56.13089005241636,214.1559140552563 56.507853403221816,217.45115575724049 56.74345549731515,218.68327785117435 56.90837696345989,220.20193116017617" stroke="#4dd2ff" stroke-linecap="round" stroke-linejoin="round" stroke-width="0.5"><title>2026-07-05 14.0km</title><desc>23482775954</desc></polyline></svg>