<?xml version="1.0" encoding="utf-8" ?>
<svg baseProfile="full" height="200mm" version="1.1" viewBox="0,0,200,200" width="200mm" xmlns="http://www.w3.org/2000/svg" xmlns:ev="http://www.w3.org/2001/xml-events" xmlns:xlink="http://www.w3.org/1999/xlink"><defs /><rect fill="#1a1a1a" height="200" width="200" x="0" y="0" /><text alignment-baseline="middle" fill="#e1ed5e" style="dominant-baseline: central; font-size:9.0px; font-family:Arial;" text-anchor="middle" x="100.0" y="100.0">2025</text><line stroke="#e1ed5e" stroke-width="0.3" x1="100.0" x2="100.0" y1="15.0" y2="10.0" /><path d="M 100.0 14.0 a86.0,86.0 0 0,1 42.46469731375804,11.215312516191453" fill="none" id="id145" stroke="none" /><text fill="#e1ed5e" style="font-size:6.75px; font-family:Arial;" text-anchor="middle"><textPath startOffset="22.20632615414155" xlink:href="#id145">January</textPath></text><path d="M 100.0 79.0 l 0.0 -7.391770628721609 a28.39177062872161,28.39177062872161 0 0,0 0.4887176597269515,0.004206547190941578 l -0.12723718045442312 7.390675458139227" fill="#ff0000" stroke="none" /><path d="M 101.44485096284872 79.0497635885617 l 1.332781236227875 -19.32523332970679 a40.371137010285466,40.371137010285466 0 0,0 0.6928644688144745,0.05377961776268153 l -1.6652358944046908 19.299428449755645" fill="#ffb811" stroke="none" /><path d="M 102.16513564639614 79.11191278185805 l 1.8826628144919848 -18.162938260666486 a39.26025042363476,39.26025042363476 0 0,0 0.671599484796001,0.07546202737406939 l -2.195029002797711 18.127840279821815" fill="#ffa80f" stroke="none" /><path d="M 102.88285421437855 79.19881850522331 l 2.4262088954523136 -17.50626560539563 a38.6735911758485,38.6735911758485 0 0,0 0.6586131353668591,0.09706245582242355 l -2.7271910112478284 17.46190866541224" fill="#ff9f0e" stroke="none" /><path d="M 103.59715602781102 79.31037775812273 l 2.642167108444077 -15.196849664285093 a36.42482696006103,36.42482696006103 0 0,0 0.6168021990466808,0.11271665937534324 l -2.9033644285936586 15.149117523559012" fill="#ff7e0b" stroke="none" /><path d="M 103.95276090670814 79.375362276772 l 3.5210723106282136 -18.372181499962046 a39.70654974291679,39.70654974291679 0 0,0 0.6701588091930566,0.13442755259737738 l -3.8367975292883956 18.30884999128746" fill="#ffae10" stroke="none" /><path d="M 104.66035177308747 79.52364482259891 l 4.349185437798616 -19.109172460117968 a40.59785411933895,40.59785411933895 0 0,0 0.6800649256825896,0.16094939589255441 l -4.677474050443729 19.031477152084545" fill="#ffbb11" stroke="none" /><path d="M 105.36241919743992 79.69619591428918 l 4.98051055502204 -18.85777796041378 a40.50439117206568,40.50439117206568 0 0,0 0.6725698427337046,0.18383874449211976 l -5.304378286979455 18.769252675095366" fill="#ffba11" stroke="none" /><path d="M 106.0581310904928 79.89281104454417 l 9.134898416202702 -30.319107625738248 a52.66535419501007,52.66535419501007 0 0,0 0.8657547914042101,0.2689942279676695 l -9.65543858031763 30.157373262888058" fill="#a2ff22" stroke="none" /><path d="M 106.74666289553966 80.11325718540242 l 4.840696815699445 -14.268638304264382 a36.067394755545614,36.067394755545614 0 0,0 0.5862119474581725,0.20451783789483668 l -5.085590767220892 14.183199613197338" fill="#ff790b" stroke="none" /><path d="M 107.08798089147638 80.2323363322302 l 6.021074891699443 -16.79217046432759 a38.83901151281901,38.83901151281901 0 0,0 0.6273751978414568,0.23106758000210192 l -6.309232415313477 16.686039616519164" fill="#ffa20e" stroke="none" /><path d="M 107.76421540070413 80.48803036053334 l 6.651689481327336 -16.71612088441651 a38.99093300466728,38.99093300466728 0 0,0 0.6214711531647934,0.25351368758727144 l -6.9384445040805165 16.59914631064566" fill="#ffa40f" stroke="none" /><path d="M 108.43124777332544 80.76684994638697 l 15.370008984552673 -35.06167735463036 a59.28261217714159,59.28261217714159 0 0,0 0.9310697885723951,0.41774387409952723 l -15.971260891591848 34.7919131500143" fill="#54ff2b" stroke="none" /><path d="M 109.41281617654863 81.2277094730956 l 5.270186478968429 -10.510507148821683 a32.75779001549753,32.75779001549753 0 0,0 0.5018797803455288,0.2570823166094062 l -5.4503267469027135 10.418232306899775" fill="#ff4606" stroke="none" /><path d="M 110.05341064243156 81.56283822128135 l 8.672122196938636 -15.903987770572474 a39.1147048114275,39.1147048114275 0 0,0 0.5883520482375292,0.32741727784893815 l -8.9445983342482 15.752355095163356" fill="#ffa60f" stroke="none" /><line stroke="#e1ed5e" stroke-width="0.3" x1="143.23703022742887" x2="145.7803849466894" y1="26.81831364943548" y2="22.513508569990506" /><path d="M 143.74570117128098 25.957352633546492 a86.0,86.0 0 0,1 28.547481713284135,27.462654790039103" fill="none" id="id146" stroke="none" /><text fill="#e1ed5e" style="font-size:6.75px; font-family:Arial;" text-anchor="middle"><textPath startOffset="19.985693538727396" xlink:href="#id146">February</textPath></text><path d="M 111.2981086023043 82.29822771554956 l 23.814304340385323 -37.312032251143606 a65.26408071932451,65.26408071932451 0 0,0 0.9417699280872249,0.6125533582627746 l -24.45304129425683 36.896579968721305" fill="#33ff53" stroke="none" /><path d="M 111.90073688211348 82.69761687909136 l 6.739640332624635 -9.798707448734913 a32.89274650696944,32.89274650696944 0 0,0 0.46373895115629943,0.3248787708890035 l -6.907310423364585 9.681243835081974" fill="#ff4806" stroke="none" /><path d="M 112.48926042617603 83.11751280151076 l 10.52524949409963 -14.227615069393536 a38.6976243455408,38.6976243455408 0 0,0 0.5320994223899117,0.4007662533661793 l -10.768595070247924 14.04433222652151" fill="#ffa00e" stroke="none" /><path d="M 113.6212207817346 84.01681056812373 l 11.667412910114699 -13.690584251621988 a38.9877908917652,38.9877908917652 0 0,0 0.5070384509335372,0.4396987482096996 l -11.901345159695 13.487720509992618" fill="#ffa40f" stroke="none" /><path d="M 114.16331599549186 84.49514656593476 l 14.38506906424635 -15.747610767918907 a42.32879407938979,42.32879407938979 0 0,0 0.5337300457473229,0.496043909520416 l -14.654006993788519 15.49766227232385" fill="#ffd413" stroke="none" /><path d="M 114.68862486808459 84.99185889309783 l 9.801141040111867 -10.01434164598081 a35.01247316823803,35.01247316823803 0 0,0 0.427092484443085,0.4252584135853418 l -9.972069324722275 9.84414738174535" fill="#ff6909" stroke="none" /><path d="M 114.94478906791727 85.2469230424477 l 12.32208641015226 -12.164018391991933 a38.314651510786376,38.314651510786376 0 0,0 0.45929366709650443,0.47334249699609005 l -12.529644340951872 11.950111699445728" fill="#ff9a0e" stroke="none" /><path d="M 115.4437574822437 85.77008943001954 l 11.297387688176334 -10.409436735974438 a36.3618794988508,36.3618794988508 0 0,0 0.4201638714071212,0.4639554410170285 l -11.47489520019949 10.21342850768786" fill="#ff7d0b" stroke="none" /><path d="M 115.9244219780498 86.31012108654704 l 9.286606901784761 -7.983493791957357 a33.24651954126143,33.24651954126143 0 0,0 0.3693361974985451,0.43717756320477924 l -9.422653712770423 7.822457279123471" fill="#ff4e07" stroke="none" /><path d="M 116.15771136456269 86.58626213691792 l 9.096053642991674 -7.551321867478182 a32.8220410176262,32.8220410176262 0 0,0 0.3571374221741689,0.437808251181397 l -9.22468955724225 7.393629446688684" fill="#ff4706" stroke="none" /><path d="M 116.82858285166822 87.43820079747576 l 50.48574855500462 -37.68539760757273 a84.0,84.0 0 0,0 0.8549495499454944,1.1661502253140252 l -51.126960717463746 36.81078493858721" fill="#4dd2ff" stroke="none" /><line stroke="#e1ed5e" stroke-width="0.3" x1="172.23445277983987" x2="176.4835382374775" y1="55.19839476539836" y2="52.563006222186495" /><path d="M 173.08426987136738 54.67131705675599 a86.0,86.0 0 0,1 12.851231095245387,41.99856678651699" fill="none" id="id147" stroke="none" /><text fill="#e1ed5e" style="font-size:6.75px; font-family:Arial;" text-anchor="middle"><textPath startOffset="22.20632615414155" xlink:href="#id147">March</textPath></text><path d="M 118.21658344932153 89.55222093294921 l 12.763286638339498 -7.320143172718756 a35.713462606793705,35.713462606793705 0 0,0 0.3012555716086634,0.5359000468918008 l -12.887399851240595 7.099359615892161" fill="#ff730a" stroke="none" /><path d="M 118.56541770881063 90.18545643968196 l 12.258932263270152 -6.480641943421216 a34.86651146591226,34.86651146591226 0 0,0 0.2759278716309172,0.533004821913347 l -12.368669568061186 6.268664399247524" fill="#ff6709" stroke="none" /><path d="M 119.04729006885535 91.15688171328212 l 19.45928417960448 -9.034395504716622 a42.45423135230552,42.45423135230552 0 0,0 0.30202684757792747,0.6654761234622023 l -19.611913344145755 8.698097372412356" fill="#ffd513" stroke="none" /><path d="M 119.61058180528143 92.48833698450437 l 14.48822700114673 -5.5495895025057 a36.51472414460143,36.51472414460143 0 0,0 0.21977588495269226,0.5888901059777559 l -14.581607474601046 5.299376259498612" fill="#ff7f0b" stroke="none" /><path d="M 119.97218684219823 93.5106431181261 l 9.80033230182641 -3.184320994490977 a31.304679200352535,31.304679200352535 0 0,0 0.1621053426397064,0.5139182354474225 l -9.853693128234323 3.0151525926171354" fill="#ff2f04" stroke="none" /><path d="M 120.08093135843002 93.85539295169968 l 12.284730413773763 -3.7590308805699304 a33.84698075425415,33.84698075425415 0 0,0 0.16567952486243015,0.5585889941323934 l -12.347615835747895 3.5470124996910073" fill="#ff5708" stroke="none" /><path d="M 120.28053869075195 94.5502522615342 l 15.68973949096849 -4.216116919370287 a37.246340116230996,37.246340116230996 0 0,0 0.16105258604571768,0.6206013115186891 l -15.75998840888451 3.945419182302748" fill="#ff8a0c" stroke="none" /><path d="M 120.53481517161879 95.60439243477599 l 21.630789745345723 -4.6302078811901195 a43.12080220133051,43.12080220133051 0 0,0 0.14911728650337017,0.7271488469168321 l -21.70728632776409 4.257183378109875" fill="#ffdf14" stroke="none" /><path d="M 120.73433829027371 96.67025291283417 l 17.45761959727133 -2.8035357188192167 a38.681297874582825,38.681297874582825 0 0,0 0.0999158306578597,0.6583204854381984 l -17.503291321368486 2.502616120988936" fill="#ff9f0e" stroke="none" /><path d="M 120.83666639777658 97.38593545837742 l 14.659526073633867 -1.8391112366307811 a35.7744385627425,35.7744385627425 0 0,0 0.07139495674568258,0.611668389231693 l -14.689011383383137 1.5864991090742355" fill="#ff740a" stroke="none" /><path d="M 120.87857604477298 97.74499172005257 l 14.605801673344544 -1.5775119739024368 a35.69074492831728,35.69074492831728 0 0,0 0.06071314263723393,0.6113730608620149 l -14.630791941664008 1.3258633823359869" fill="#ff730a" stroke="none" /><path d="M 120.94382443527127 98.46500227214037 l 14.025258128610432 -1.0279277992707745 a35.06287670196488,35.06287670196488 0 0,0 0.03893550297023189,0.6023149976879648 l -14.04087422258508 0.7863537373297745" fill="#ff6909" stroke="none" /><path d="M 120.96714384426684 98.82574320788733 l 13.129842130591225 -0.7353317369179772 a34.15041699481682,34.15041699481682 0 0,0 0.02781859105251412,0.5872064895724528 l -13.140554329877235 0.5092141407225246" fill="#ff5c08" stroke="none" /><line stroke="#e1ed5e" stroke-width="0.3" x1="184.98032266829074" x2="189.97916517819016" y1="98.17113171792111" y2="98.06355123074" /><path d="M 185.9800911702706 98.14961562048488 a86.0,86.0 0 0,1 -9.607161424134198,41.387399972396054" fill="none" id="id148" stroke="none" /><text fill="#e1ed5e" style="font-size:6.75px; font-family:Arial;" text-anchor="middle"><textPath startOffset="21.466115282336823" xlink:href="#id148">April</textPath></text><path d="M 120.99513854157772 99.54816195383933 l 17.855741776162656 -0.3842748387162805 a38.859876302166,38.859876302166 0 0,0 0.008636131719460136,0.6688779190232605 l -17.85971091499983 0.07686066163255721" fill="#ffa20f" stroke="none" /><path d="M 120.99824983174949 100.27111621757518 l 19.15887001430467 0.24736730027086024 a40.16046687338975,40.16046687338975 0 0,0 -0.01487455208962191,0.6911619871746086 l -19.151773399530043 -0.5771191032355837" fill="#ffb510" stroke="none" /><path d="M 120.95626037817324 101.35467743843564 l 25.395976483174497 1.6416744088859978 a46.44898262011162,46.44898262011162 0 0,0 -0.05844485558874849,0.7974336198545178 l -25.363955068921413 -2.078581165237286" fill="#f2ff19" stroke="none" /><path d="M 120.89721153311464 102.0752229133903 l 18.000519913449182 1.7875634420474518 a39.08906023578409,39.08906023578409 0 0,0 -0.0722546359447566,0.6689881915622735 l -17.967082976003375 -2.0971479554945165" fill="#ffa50f" stroke="none" /><path d="M 120.8583938346157 102.4346265915055 l 13.356761966698164 1.5590235815073197 a34.447440082139444,34.447440082139444 0 0,0 -0.07381346733361453,0.5883659603672468 l -13.3279469901177 -1.7887072961619612" fill="#ff6008" stroke="none" /><path d="M 120.76222939487914 103.15116336523771 l 16.526114964877365 2.5082319945791767 a37.71537327046495,37.71537327046495 0 0,0 -0.10294185854629556,0.6410190514334599 l -16.48049135196978 -2.7923302757058415" fill="#ff910d" stroke="none" /><path d="M 120.49622156327973 104.57218783832717 l 17.24765963628292 3.8475159621567 a38.67159138301114,38.67159138301114 0 0,0 -0.1505235235339162,0.6484513998174943 l -17.17887554681845 -4.143836019322759" fill="#ff9f0e" stroke="none" /><path d="M 120.32669344350535 105.2749913415812 l 12.86123053169543 3.3376249750276012 a34.28724919851143,34.28724919851143 0 0,0 -0.15316918115529593,0.5699995034128456 l -12.801873274198357 -3.5585154116159954" fill="#ff5e08" stroke="none" /><path d="M 120.23288151984713 105.62410040840565 l 17.037252815860228 4.735816815108496 a38.683210806236566,38.683210806236566 0 0,0 -0.18385091749283888,0.6400091627670127 l -16.95320926148129 -5.028383453380091" fill="#ff9f0e" stroke="none" /><path d="M 120.02730092923936 106.31721596034902 l 24.13651908430019 7.613387551589605 a46.308797354230144,46.308797354230144 0 0,0 -0.2463357862183727,0.7581435938614137 l -24.00189104706557 -8.027730045428813" fill="#f4ff19" stroke="none" /><path d="M 119.79798401119884 107.00284435728193 l 14.210125433661933 5.026334835561981 a36.07287984160922,36.07287984160922 0 0,0 -0.2121012141005885,0.5836114473580885 l -14.121499958556118 -5.2701940799262" fill="#ff790b" stroke="none" /><path d="M 119.54520255179757 107.68017299344265 l 9.618113772618273 3.7793815361370067 a31.33401361227682,31.33401361227682 0 0,0 -0.20157825351627986,0.5003006939151573 l -9.551632904844599 -3.9443815978949774" fill="#ff3004" stroke="none" /><path d="M 119.12269723197855 108.67885076344098 l 14.231299819247564 6.458886306817036 a36.62840704837522,36.62840704837522 0 0,0 -0.2655130141659781,0.5718914113668988 l -14.118012188241753 -6.702897785462765" fill="#ff810b" stroke="none" /><path d="M 118.81262510543309 109.33194174019688 l 14.806398336884126 7.344665929798728 a37.52796264912379,37.52796264912379 0 0,0 -0.2920414083967153,0.5762254047423127 l -14.677778258701142 -7.598445546243735" fill="#ff8e0d" stroke="none" /><path d="M 118.64920377521936 109.65438752849418 l 11.774871041211359 6.0956579969892655 a34.259134000884714,34.259134000884714 0 0,0 -0.2756187980874646,0.5213668963254687 l -11.668199734899002 -6.297439908400868" fill="#ff5d08" stroke="none" /><line stroke="#e1ed5e" stroke-width="0.3" x1="174.80103733775053" x2="179.2010983576182" y1="140.37084112569926" y2="142.7455964860345" /><path d="M 175.68104954172406 140.8457921977663 a86.0,86.0 0 0,1 -30.038265399797805,32.042727171017184" fill="none" id="id149" stroke="none" /><text fill="#e1ed5e" style="font-size:6.75px; font-family:Arial;" text-anchor="middle"><textPath startOffset="22.206326154141568" xlink:href="#id149">May</textPath></text><path d="M 118.48025628344425 109.97397251340804 l 17.024667231215385 9.18837706629542 a40.34594447025119,40.34594447025119 0 0,0 -0.33510878564624885,0.6083197848745989 l -16.863982036117626 -9.480067369567823" fill="#ffb811" stroke="none" /><path d="M 118.12598468904814 110.60418214915192 l 11.588102978135748 6.779347817585208 a34.42548648890147,34.42548648890147 0 0,0 -0.3036313552922305,0.5089036163127041 l -11.46969074714529 -6.977813527784017" fill="#ff6008" stroke="none" /><path d="M 117.94076556474637 110.91462005526583 l 19.360971739727276 11.778630609560036 a43.66237776013327,43.66237776013327 0 0,0 -0.3961536609276436,0.6387258394870586 l -19.15535343913167 -12.110152780412369" fill="#ffe615" stroke="none" /><path d="M 117.55443506779139 111.5257021239791 l 12.629512255234253 8.292149286652474 a36.10841883180511,36.10841883180511 0 0,0 -0.34560381208199364,0.5166308069215866 l -12.484905337741537 -8.508317007779867" fill="#ff790b" stroke="none" /><path d="M 117.35343817320211 111.8261652097733 l 14.261033224912092 9.718727395492028 a38.25777305534911,38.25777305534911 0 0,0 -0.37554393483935883,0.5409990475262821 l -14.091628382910597 -9.96276770520533" fill="#ff990e" stroke="none" /><path d="M 117.14729908036423 112.12312394758627 l 10.83714375435511 7.661850204870089 a34.27206213496704,34.27206213496704 0 0,0 -0.3447120038030466,0.47877482391857556 l -10.70365195817646 -7.847258634239796" fill="#ff5d08" stroke="none" /><path d="M 116.0416608686014 113.55231037782055 l 10.156280073477502 8.580225013311951 a34.29549871986682,34.29549871986682 0 0,0 -0.384856721968685,0.4476753140377141 l -10.00708084193804 -8.753777426511194" fill="#ff5e08" stroke="none" /><path d="M 115.80600337817218 113.82643327865902 l 10.233676455652871 8.951993829437663 a34.596555715374166,34.596555715374166 0 0,0 -0.395951238039923,0.4448554133881086 l -10.07806636796461 -9.126823412566639" fill="#ff6209" stroke="none" /><path d="M 115.32070863581623 114.36230785411682 l 13.6509497181061 12.797002215300186 a39.711271840916076,39.711271840916076 0 0,0 -0.4717953409865509,0.49467552881148225 l -13.428647825740585 -13.030084860694176" fill="#ffae10" stroke="none" /><path d="M 114.81725581225074 114.88116024355365 l 18.68947460112513 18.770079286693676 a47.487965895758556,47.487965895758556 0 0,0 -0.5842151547974229,0.5717774899599506 l -18.363609493951916 -19.0890068795762" fill="#e4ff1a" stroke="none" /><path d="M 114.29624159901734 115.38237550388516 l 10.099723793469952 10.867034024338038 a35.83566140050735,35.83566140050735 0 0,0 -0.45545496061658686,0.4160473077903654 l -9.911169283386501 -11.039274098714987" fill="#ff750a" stroke="none" /><path d="M 114.0293411484842 115.62618273729858 l 9.049589975404087 10.079628484090875 a34.54599531596812,34.54599531596812 0 0,0 -0.44590267651649335,0.39345726781059437 l -8.874744945981005 -10.233908893673759" fill="#ff6209" stroke="none" /><path d="M 113.75828350139079 115.86535959552629 l 12.75604423762899 14.709627754506357 a40.47022889615044,40.47022889615044 0 0,0 -0.5302265304838172,0.45187055229722817 l -12.500952230568126 -14.927022697026533" fill="#ffb911" stroke="none" /><path d="M 112.92097659922987 116.55440617244103 l 18.145456555971855 23.248030495608578 a50.49115995598356,50.49115995598356 0 0,0 -0.6897363455433999,0.5288604178960767 l -17.74259148193496 -23.556930255332027" fill="#bdff1f" stroke="none" /><path d="M 112.34349029814194 116.9893568818739 l 8.258169335374394 11.36639496939876 a35.04963684128851,35.04963684128851 0 0,0 -0.49115001386724527,0.3504224940526084 l -8.061291993658264 -11.506861725295588" fill="#ff6909" stroke="none" /><path d="M 112.04921762599082 117.19931262002967 l 7.605124457780056 10.855718364771153 a34.25460445405875,34.25460445405875 0 0,0 -0.48583324317179605,0.3341605347175908 l -7.417134329985376 -10.985019688853837" fill="#ff5d08" stroke="none" /><path d="M 111.7513745106137 117.40417183066458 l 9.931806073436658 14.709331179498124 a38.748385718946636,38.748385718946636 0 0,0 -0.5559937619096031,0.3684823479805019 l -9.67713761278709 -14.878111548569944" fill="#ffa00e" stroke="none" /><path d="M 111.1453310114006 117.79835938074945 l 7.839967483063485 12.519911580393542 a35.77204373525766,35.77204373525766 0 0,0 -0.5246920729233575,0.32230872570621016 l -7.623296210207818 -12.65300877292813" fill="#ff740a" stroke="none" /><line stroke="#e1ed5e" stroke-width="0.3" x1="143.8653032363475" x2="146.44561519142675" y1="172.8068346515853" y2="177.08958963109032" /><path d="M 144.38136562736335 173.6633856474863 a86.0,86.0 0 0,1 -40.68145358897372,12.25698825130547" fill="none" id="id150" stroke="none" /><text fill="#e1ed5e" style="font-size:6.75px; font-family:Arial;" text-anchor="middle"><textPath startOffset="21.466115282336833" xlink:href="#id150">June</textPath></text><path d="M 110.8373102113329 117.98757091392108 l 10.335275178694245 17.154302273016313 a41.02718151646272,41.02718151646272 0 0,0 -0.6080465261463668,0.3592446053338407 l -10.038460781519495 -17.329665450643905" fill="#ffc112" stroke="none" /><path d="M 110.21172684928248 118.3499491758327 l 7.21231344445976 12.960157189800908 a35.831828599518104,35.831828599518104 0 0,0 -0.5415335717390282,0.2952872811280104 l -6.988157060852083 -13.082385122688688" fill="#ff750a" stroke="none" /><path d="M 109.89434966115114 118.52300852407294 l 6.263402028335002 11.72558613084704 a34.29359150419718,34.29359150419718 0 0,0 -0.5230737782778303,0.27364747880146884 l -6.060637347530676 -11.831663028593224" fill="#ff5e08" stroke="none" /><path d="M 109.57404056367764 118.69057910512821 l 8.748990703534952 17.079904952025572 a40.19030983337082,40.19030983337082 0 0,0 -0.6184448367463288,0.31010107984881813 l -8.453691959105864 -17.227973872783693" fill="#ffb510" stroke="none" /><path d="M 108.92500713936063 119.00905698771935 l 5.648985785691156 12.031574994427668 a34.29172062802547,34.29172062802547 0 0,0 -0.5364727479289969,0.2462683262475227 l -5.44104504199474 -12.127030391009265" fill="#ff5e08" stroke="none" /><path d="M 108.59647513512805 119.15986991738527 l 12.076201944909704 26.91550370628723 a50.50049140569361,50.50049140569361 0 0,0 -0.796174696383283,0.34901958947690004 l -11.611106573868666 -27.119387849058583" fill="#bdff1f" stroke="none" /><path d="M 107.93186726928326 119.44442032107085 l 5.02893598531509 12.328086407207513 a34.314349837974504,34.314349837974504 0 0,0 -0.5488317571381827,0.21839148276187575 l -4.815983152135041 -12.412824734375457" fill="#ff5e08" stroke="none" /><path d="M 107.59598834532513 119.57807347666477 l 5.344017871399601 13.773793453917264 a35.77416370293129,35.77416370293129 0 0,0 -0.5760147654932356,0.21779949668531498 l -5.106132885146091 -13.86374120070921" fill="#ff740a" stroke="none" /><path d="M 106.91757812671514 119.82793768551818 l 5.144431611886839 14.745546426714403 a36.61718015621804,36.61718015621804 0 0,0 -0.5969128124744664,0.20250523483602303 l -4.889849066475146 -14.83191464844855" fill="#ff810b" stroke="none" /><path d="M 106.2309692047433 120.05430185196036 l 7.96095608581102 25.6222444902345 a47.83050939728062,47.83050939728062 0 0,0 -0.7883493470318961,0.23752319133240637 l -7.518731764338878 -25.755483050672634" fill="#e0ff1b" stroke="none" /><path d="M 105.53697534728816 120.25689768951611 l 3.9018927301979223 14.274985325661152 a35.798647672196694,35.798647672196694 0 0,0 -0.5958080712312707,0.15735832682747006 l -3.655594216155154 -14.340035001792206" fill="#ff750a" stroke="none" /><path d="M 105.18746579009965 120.34920634021253 l 3.6447575193463115 14.297525192892778 a35.75477834520855,35.75477834520855 0 0,0 -0.5976951187057156,0.1468989183278745 l -3.398109115897385 -14.358145369534682" fill="#ff740a" stroke="none" /><path d="M 104.83641907484287 120.43548508189849 l 4.360200830477879 18.423304028550728 a39.93223395720942,39.93223395720942 0 0,0 -0.6702527552212598,0.15254734493273564 l -4.042427925863757 -18.495628107061147" fill="#ffb210" stroke="none" /><path d="M 104.13013068566511 120.58985236759428 l 2.8947382082174964 14.431076613846766 a35.71854209929874,35.71854209929874 0 0,0 -0.6038685335969063,0.11573284168307023 l -2.6459020600488854 -14.478766653878305" fill="#ff730a" stroke="none" /><path d="M 103.7750983002368 120.6578951692458 l 4.431362085810959 24.249067479888087 a45.65064387758926,45.65064387758926 0 0,0 -0.7742154176174563,0.13460727430150732 l -4.0132976967214535 -24.3217533327106" fill="#fdff18" stroke="none" /><path d="M 103.06178313531738 120.77559828337769 l 1.9398546733719133 13.162800773585861 a34.30497502285951,34.30497502285951 0 0,0 -0.5849347969398047,0.08106663291784853 l -1.7129912852452782 -13.194241971996313" fill="#ff5e08" stroke="none" /><path d="M 102.70371172650421 120.8252237178851 l 1.7658778424713766 13.60159841281268 a34.7157502141866,34.7157502141866 0 0,0 -0.5932633685747496,0.07183593192667924 l -1.5314870508452467 -13.629979873464709" fill="#ff6409" stroke="none" /><path d="M 102.34483914955558 120.86867818915974 l 2.081904994588462 18.528607968996635 a39.64520425405037,39.64520425405037 0 0,0 -0.6788153881271146,0.07036199048804337 l -1.7626570098557448 -18.561699327940435" fill="#ffad10" stroke="none" /><path d="M 101.62511606390274 120.93702456842531 l 1.1399767020524667 14.686778839036513 a35.73095446832937,35.73095446832937 0 0,0 -0.6136148940091452,0.042318475697170926 l -0.8869990472643912 -14.70422565924997" fill="#ff740a" stroke="none" /><path d="M 101.26447882468166 120.96189622390904 l 1.3303313016099974 22.05356558247392 a43.09365375560415,43.09365375560415 0 0,0 -0.7408249134014935,0.03829218601915893 l -0.9505183197950242 -22.07319757525528" fill="#ffde14" stroke="none" /><line stroke="#e1ed5e" stroke-width="0.3" x1="102.19456741930631" x2="102.32365962044197" y1="184.97166512339345" y2="189.96999836594603" /><path d="M 102.22038585953345 185.97133177190398 a86.0,86.0 0 0,1 -42.740103519485714,-10.115201625700543" fill="none" id="id151" stroke="none" /><text fill="#e1ed5e" style="font-size:6.75px; font-family:Arial;" text-anchor="middle"><textPath startOffset="22.20632615414155" xlink:href="#id151">July</textPath></text><path d="M 100.54218724476979 120.99299961872073 l 0.3796506396695125 14.699729310698032 a35.70463112138473,35.70463112138473 0 0,0 -0.6145282354657712,0.010579660875811409 l -0.12656271431107335 -14.704086448853003" fill="#ff730a" stroke="none" /><path d="M 100.18074693466247 120.99922214144158 l 0.13336496322031768 15.494373355645374 a36.494947302186866,36.494947302186866 0 0,0 -0.6282237957655356,0.0 l 0.133364963220307 -15.494373355645374" fill="#ff7f0b" stroke="none" /><path d="M 99.81925306533755 120.99922214144158 l -0.11635024785281889 13.51759965078257 a34.5181003731668,34.5181003731668 0 0,0 -0.5941063287234963,-0.01022807923106085 l 0.34901626646898315 -13.51359409427235" fill="#ff6109" stroke="none" /><path d="M 99.09653310690486 120.98055641714683 l -0.5708594026888416 13.256653891700248 a34.268939402302266,34.268939402302266 0 0,0 -0.5891188574783923,-0.030450715776254942 l 0.7989663285807229 -13.244863369161791" fill="#ff5d08" stroke="none" /><path d="M 98.73552117531835 120.96189622390904 l -1.3532585463838047 22.433641955654807 a43.47442101785664,43.47442101785664 0 0,0 -0.7465950082197275,-0.05148956294810009 l 1.7392163153824622 -22.40702404819042" fill="#ffe415" stroke="none" /><path d="M 98.01472825383883 120.90594882070398 l -1.3932478563625184 14.671627919952082 a35.73763228645552,35.73763228645552 0 0,0 -0.6119089354621393,-0.06342686310533299 l 1.645589388430251 -14.64547168839099" fill="#ff740a" stroke="none" /><path d="M 97.2962882734958 120.8252237178851 l -2.194345543219502 16.90185251775189 a38.043701795527966,38.043701795527966 0 0,0 -0.6486838999234659,-0.08990167770823058 l 2.4849580343297992 -16.861576274551055" fill="#ff960d" stroke="none" /><path d="M 96.58105272829116 120.7198165907248 l -2.1954566666688033 13.305107055226758 a34.485025165948535,34.485025165948535 0 0,0 -0.5848512943649911,-0.10168389419116229 l 2.424156932505844 -13.265344582514588" fill="#ff6108" stroke="none" /><path d="M 96.22490169976321 120.6578951692458 l -4.268607106698761 23.35844820871273 a44.74527551641535,44.74527551641535 0 0,0 -0.7564772334876033,-0.14498066222888548 l 4.670051954758059 -23.281510348135377" fill="#fff517" stroke="none" /><path d="M 95.51606077576429 120.51570834832081 l -3.132625271150656 14.33293878742541 a35.671280631680915,35.671280631680915 0 0,0 -0.5987336984771505,-0.1362698404638305 l 3.3788791190206693 -14.276892213383894" fill="#ff730a" stroke="none" /><path d="M 95.16358092515715 120.4354850818985 l -3.5111800884595867 14.835907973898312 a36.24573878247868,36.24573878247868 0 0,0 -0.605902263887846,-0.14891603493479166 l 3.7660356370906434 -14.77327068064949" fill="#ff7b0b" stroke="none" /><path d="M 94.81253420990036 120.34920634021253 l -4.376751956353366 17.1689669413806 a38.71805247541791,38.71805247541791 0 0,0 -0.644396636946897,-0.17019100864756898 l 4.671639036111752 -17.091084583429446" fill="#ffa00e" stroke="none" /><path d="M 94.11515582081647 120.15858648285463 l -4.13043174077999 14.148830949945939 a35.739399024905694,35.739399024905694 0 0,0 -0.5890619238564636,-0.17747952550930865 l 4.373368639076699 -14.075636055330905" fill="#ff740a" stroke="none" /><path d="M 93.76903079525671 120.05430185196036 l -7.418209330288605 23.875420375595553 a46.001310521238366,46.001310521238366 0 0,0 -0.7541556814431389,-0.2414568337466188 l 7.828086356822685 -23.74419069518923" fill="#f8ff18" stroke="none" /><path d="M 93.08242187328487 119.8279376855182 l -4.635312955840083 13.286253477402498 a35.07162597798737,35.07162597798737 0 0,0 -0.568294680819973,-0.20377025358576825 l 4.863327197289783 -13.204495682776773" fill="#ff6a09" stroke="none" /><path d="M 92.7421414339146 119.70592522655815 l -5.107130556398815 13.866449993520193 a35.777050380332966,35.777050380332966 0 0,0 -0.5760612450928676,-0.21781707129279587 l 5.345062022251966 -13.776484672120764" fill="#ff740a" stroke="none" /><path d="M 92.40401165467489 119.57807347666478 l -5.389169713475671 13.890168840711572 a35.89899126196529,35.89899126196529 0 0,0 -0.5741768836310305,-0.22847683165717636 l 5.62746767314856 -13.79534516464833" fill="#ff760a" stroke="none" /><path d="M 91.7346041902142 119.30500536409082 l -7.81445883916423 18.251778049022676 a40.85429849931188,40.85429849931188 0 0,0 -0.6440958849753975,-0.2823527077399724 l 8.12747539879737 -18.114560787988253" fill="#ffbf11" stroke="none" /><path d="M 91.07499286063937 119.00905698771935 l -3.747115682529839 7.9808491395659855 a29.816735729666178,29.816735729666178 0 0,0 -0.46270935504203653,-0.2221286092213797 l 3.883937705572117 -7.915166253845044" fill="#ff1702" stroke="none" /><path d="M 90.7491055286396 118.85261126421891 l -3.2445649777569208 6.612173821301321 a28.36532718472094,28.36532718472094 0 0,0 -0.4364830779544065,-0.21886167652640007 l 3.3579019633940876 -6.555344303865619" fill="#ff0000" stroke="none" /><path d="M 90.42595943632237 118.69057910512821 l -7.62575046146726 14.887099264730141 a37.726559557138366,37.726559557138366 0 0,0 -0.5754362020251144,-0.30104102410506783 l 7.88087756601887 -14.753628821680355" fill="#ff910d" stroke="none" /><line stroke="#e1ed5e" stroke-width="0.3" x1="58.666819895761336" x2="56.23545636021788" y1="174.27360380694188" y2="178.64263932499728" /><path d="M 58.180547188652646 175.14741091055294 a86.0,86.0 0 0,1 -31.652253787137756,-30.449443065178592" fill="none" id="id152" stroke="none" /><text fill="#e1ed5e" style="font-size:6.75px; font-family:Arial;" text-anchor="middle"><textPath startOffset="22.20632615414155" xlink:href="#id152">August</textPath></text><path d="M 89.7882731507175 118.34994917583269 l -4.28544139947551 7.700718305240436 a29.812835548505586,29.812835548505586 0 0,0 -0.44627150553561895,-0.2534046078139747 l 4.417361671932336 -7.625810531631828" fill="#ff1702" stroke="none" /><path d="M 89.4739219176387 118.17145234162733 l -11.272352368938664 19.459765759617923 a43.488850823212715,43.488850823212715 0 0,0 -0.6445298870589329,-0.38079961803221435 l 11.60565012702598 -19.262847569291957" fill="#ffe415" stroke="none" /><path d="M 88.54995079064634 117.60387380957326 l -8.106273176960544 12.462986618133243 a35.86733669031808,35.86733669031808 0 0,0 -0.5146540968383485,-0.3410846721543087 l 8.319601972538853 -12.321603924887615" fill="#ff760a" stroke="none" /><path d="M 87.65650970185807 116.9893568818739 l -7.387763558355411 10.168384194436175 a33.56881408565755,33.56881408565755 0 0,0 -0.4645524713579564,-0.34366481242955993 l 7.561701000131932 -10.039709433266848" fill="#ff5307" stroke="none" /><path d="M 85.18274418774928 114.88116024355367 l -8.321341265038061 8.357229866001557 a32.793558050156605,32.793558050156605 0 0,0 -0.39658245260108843,-0.4017359306952231 l 8.463964342694682 -8.212753441325669" fill="#ff4706" stroke="none" /><path d="M 84.67929136418377 114.36230785411682 l -6.657971369754035 6.241475950580847 a30.126039929900784,30.126039929900784 0 0,0 -0.35140389017587115,-0.38137951967470124 l 6.764421667925635 -6.1259451761048025" fill="#ff1c02" stroke="none" /><path d="M 84.43433777217949 114.09645910891817 l -11.669740396194756 10.568263392779746 a36.74392047914839,36.74392047914839 0 0,0 -0.42052743411373833,-0.47246703020750996 l 11.849926679956832 -10.365822192831372" fill="#ff830c" stroke="none" /><path d="M 84.19399662182784 113.82643327865904 l -12.51543645704526 10.947982420755636 a37.628122828374586,37.628122828374586 0 0,0 -0.42225471406177356,-0.4911776277533469 l 12.702033680677811 -10.730927693840759" fill="#ff900d" stroke="none" /><path d="M 83.95833913139862 113.55231037782056 l -7.1101173781738884 6.006766900324671 a30.30779338652542,30.30779338652542 0 0,0 -0.3332471774928068,-0.401417692961145 l 7.212460555560232 -5.883487950249765" fill="#ff1f03" stroke="none" /><path d="M 83.50135304334701 112.99209946851258 l -20.851107090677967 16.419507494307425 a47.539949006404264,47.539949006404264 0 0,0 -0.5007386966674897,-0.6472722656983232 l 21.130652604563526 -16.058157234495848" fill="#e3ff1b" stroke="none" /><path d="M 83.06392112726016 112.41649034213515 l -19.26849420415223 14.126473665544458 a44.89209340176723,44.89209340176723 0 0,0 -0.45152939471499504,-0.6271348373822476 l 19.508803391242832 -13.79270522271107" fill="#fff717" stroke="none" /><path d="M 82.85270091963577 112.12312394758628 l -9.892563048073228 6.994032554575136 a33.11525051472567,33.11525051472567 0 0,0 -0.3250641762002014,-0.4682791902482771 l 10.011488131435565 -6.822712102139846" fill="#ff4c07" stroke="none" /><path d="M 82.6465618267979 111.8261652097733 l -12.204970683216052 8.317544813859737 a35.76966015549201,35.76966015549201 0 0,0 -0.34236145770321075,-0.5117839270537251 l 12.346335246329993 -8.10622397260019" fill="#ff740a" stroke="none" /><path d="M 82.05923443525364 110.91462005526583 l -20.56958854488031 12.513916580108374 a45.07708622486497,45.07708622486497 0 0,0 -0.3975780207926088,-0.6663636314934431 l 20.781947441371152 -12.15799085472882" fill="#fffa17" stroke="none" /><line stroke="#e1ed5e" stroke-width="0.3" x1="26.63291911575756" x2="22.317208475507996" y1="142.92168965132927" y2="145.44649492493687" /><path d="M 25.769776987707644 143.4266507060508 a86.0,86.0 0 0,1 -11.730757126820373,-40.83630448921669" fill="none" id="id153" stroke="none" /><text fill="#e1ed5e" style="font-size:6.75px; font-family:Arial;" text-anchor="middle"><textPath startOffset="21.46611528233685" xlink:href="#id153">September</textPath></text><path d="M 81.69416730710424 110.29060199501025 l -11.573870968991855 6.506237748459302 a34.2772594629445,34.2772594629445 0 0,0 -0.28470298427089336,-0.5168186140235927 l 11.684150362714265 -6.306048616037887" fill="#ff5d08" stroke="none" /><path d="M 81.51974371655577 109.97397251340807 l -10.993928516394734 5.933529230064214 a33.49292733300021,33.49292733300021 0 0,0 -0.2694545745293591,-0.509706508401826 l 11.09443559914898 -5.743407706576262" fill="#ff5107" stroke="none" /><path d="M 81.35079622478065 109.6543875284942 l -16.178793715892148 8.375496678541293 a39.21818626300784,39.21818626300784 0 0,0 -0.3051946746509858,-0.6021780469126902 l 16.3205670603294 -8.095764419925917" fill="#ffa70f" stroke="none" /><path d="M 80.87730276802145 108.67885076344099 l -23.55116588186007 10.688714647005822 a46.863217804442016,46.863217804442016 0 0,0 -0.32705820797241875,-0.7374299181325228 l 23.731665174563766 -10.281736392380603" fill="#ecff1a" stroke="none" /><path d="M 80.58989483394504 108.01547362559985 l -12.55546494832023 5.184824981082704 a34.583891568801526,34.583891568801526 0 0,0 -0.22248539713100257,-0.552190509784525 l 12.642852959708621 -4.967935103455373" fill="#ff6209" stroke="none" /><path d="M 80.45479744820244 107.68017299344265 l -13.053929906523196 5.129465384698828 a35.02556598277746,35.02556598277746 0 0,0 -0.21566695438324385,-0.5630383635293283 l 13.140291140499949 -4.904003454336342" fill="#ff6909" stroke="none" /><path d="M 80.32549172779594 107.34259656027581 l -15.69157447091842 5.856151479945985 a37.7487318783379,37.7487318783379 0 0,0 -0.22195488403778169,-0.610724515042415 l 15.790053615961424 -5.5851791678974525" fill="#ff920d" stroke="none" /><path d="M 80.20201598880116 107.00284435728193 l -7.5953292196897815 2.6865820448039837 a29.05647249352572,29.05647249352572 0 0,0 -0.1627289326516428,-0.47296645001057597 l 7.640448983284653 -2.5554428917041108" fill="#ff0b01" stroke="none" /><path d="M 80.0844068197444 106.66101706037122 l -12.57169157573561 4.204758116204167 a34.25622193127463,34.25622193127463 0 0,0 -0.18222311622049914,-0.5608250848846055 l 12.642206942972358 -3.987734131341758" fill="#ff5d08" stroke="none" /><path d="M 79.97269907076064 106.31721596034903 l -21.542797396386057 6.795249346072729 a43.589102092315215,43.589102092315215 0 0,0 -0.21955047675542697,-0.717503661142308 l 21.656574645647613 -6.423418712378373" fill="#ffe515" stroke="none" /><path d="M 79.67330655649465 105.27499134158121 l -12.861557770404714 3.337709896924169 a34.28758727675884,34.28758727675884 0 0,0 -0.143336296334292,-0.572557252961501 l 12.917105381034064 -3.1158248045652766" fill="#ff5e08" stroke="none" /><path d="M 79.58551787078972 104.9243191809786 l -17.58171773750474 4.241008385192649 a39.08598769004787,39.08598769004787 0 0,0 -0.15213650065856194,-0.655400063054936 l 17.652114804093856 -3.937739664789139" fill="#ffa50f" stroke="none" /><path d="M 79.4281124754447 104.21870165774334 l -9.241084756250531 1.895080338836511 a30.433396894165465,30.433396894165465 0 0,0 -0.10082159341453505,-0.5140871327094255 l 9.272336282640733 -1.7357294790591307" fill="#ff2103" stroke="none" /><path d="M 79.35854240842038 103.8639653848113 l -37.76710863003262 7.069791451664938 a59.42312383764129,59.42312383764129 0 0,0 -0.17955279118177625,-1.007027406984511 l 37.88320786355358 -6.418645293947214" fill="#52ff2b" stroke="none" /><path d="M 79.23777060512086 103.15116336523772 l -9.180601237849618 1.3933751400850567 a30.2857381704102,30.2857381704102 0 0,0 -0.07379040638818325,-0.5160899304141575 l 9.203225695254401 -1.2351397376904985" fill="#ff1f03" stroke="none" /><path d="M 79.18660465613746 102.79330883721812 l -14.6362007118993 1.9642844483758009 a35.7674230884448,35.7674230884448 0 0,0 -0.07664190748140258,-0.6109114112721796 l 14.66784412862755 -1.7120552828162126" fill="#ff740a" stroke="none" /><path d="M 79.10278846688536 102.07522291339032 l -17.784022866275336 1.7660639404386222 a38.871498290572106,38.871498290572106 0 0,0 -0.060390396430709085,-0.666402992362312 l 17.811787858983124 -1.459679559527744" fill="#ffa20f" stroke="none" /><path d="M 79.07016306316243 101.71520430193888 l -10.458376793303238 0.8570660593919504 a31.49343639523609,31.49343639523609 0 0,0 -0.03962690328800033,-0.5406776116434873 l 10.471580255255573 -0.6769153112517025" fill="#ff3204" stroke="none" /><path d="M 79.04373962182676 101.35467743843564 l -39.01953187394567 2.522343134417683 a60.10097291052495,60.10097291052495 0 0,0 -0.05785047513006277,-1.0329590951983871 l 39.05716869996326 -1.850312322883858" fill="#4aff2c" stroke="none" /><path d="M 79.0095281055655 100.63252640178507 l -54.73571778969465 1.6494048726850519 a75.76056371502335,75.76056371502335 0 0,0 -0.02806004359637859,-1.3038399660995368 l 54.75599989597603 -0.7069750907953862" fill="#42ffd4" stroke="none" /><line stroke="#e1ed5e" stroke-width="0.3" x1="15.007084014347285" x2="10.007500721073583" y1="101.09737516637583" y2="101.16192664675087" /><path d="M 14.007167355692545 101.11028546245083 a86.0,86.0 0 0,1 10.666146001902534,-42.60595125391555" fill="none" id="id154" stroke="none" /><text fill="#e1ed5e" style="font-size:6.75px; font-family:Arial;" text-anchor="middle"><textPath startOffset="22.20632615414155" xlink:href="#id154">October</textPath></text><path d="M 79.00175016825051 100.2711162175752 l -10.35239906500979 0.13366367672656138 a31.353261919786036,31.353261919786036 0 0,0 -0.0023226835500730044,-0.539709857685728 l 10.353166045849365 0.04455565916284203" fill="#ff3004" stroke="none" /><path d="M 79.00019446554 99.90962569577889 l -14.035539554357678 -0.060403041328720826 a35.03566952836026,35.03566952836026 0 0,0 0.007786248586425118,-0.6030535337656094 l 14.032420298653538 0.30199283315480224" fill="#ff6909" stroke="none" /><path d="M 79.01574976396665 99.18683210126434 l -18.433549671322158 -0.7143248238018446 a39.44738500273144,39.44738500273144 0 0,0 0.032133448667653705,-0.6782863141548763 l 18.418522614421004 1.03152224457973" fill="#ffab0f" stroke="none" /><path d="M 79.03285615573316 98.82574320788736 l -10.315734150348993 -0.5777287064774858 a31.33189922129347,31.33189922129347 0 0,0 0.03479244631189765,-0.538223744943797 l 10.304261113032682 0.7552115156742946" fill="#ff3004" stroke="none" /><path d="M 79.08570108090925 98.10471618934814 l -14.7046109848638 -1.3325529700690244 a35.76486646178071,35.76486646178071 0 0,0 0.0608392299812413,-0.6126427432090946 l 14.679494629200331 1.5854712439825493" fill="#ff740a" stroke="none" /><path d="M 79.12142395522702 97.74499172005258 l -9.502558127277688 -1.0263318346874295 a30.55782234597317,30.55782234597317 0 0,0 0.060984168928513244,-0.522475116975149 l 9.483483605345587 1.1897506899874402" fill="#ff2303" stroke="none" /><path d="M 79.16333360222342 97.38593545837743 l -32.221919678030105 -4.04240179716736 a53.474499534668205,53.474499534668205 0 0,0 0.12244132790508803,-0.912330111930644 l 32.14756235106718 4.596450251162663" fill="#98ff23" stroke="none" /><path d="M 79.26566170972629 96.67025291283419 l -31.38515027516747 -5.040171103893981 a52.787277054686086,52.787277054686086 0 0,0 0.15179644746422558,-0.8959112256380917 l 31.29374196618302 5.579668117847901" fill="#a0ff22" stroke="none" /><path d="M 79.32604984820605 96.31383870115002 l -41.55651683433017 -7.4095188846347995 a63.211906631941254,63.211906631941254 0 0,0 0.20021400999528524,-1.0695512472246533 l 41.42281710042502 8.123748209322025" fill="#30ff38" stroke="none" /><path d="M 79.46518482838121 95.60439243477599 l -14.46176099412458 -3.095631760060506 a35.78937006924495,35.78937006924495 0 0,0 0.13413449095765964,-0.6012986218326146 l 14.406332116164883 3.34410855144308" fill="#ff750a" stroke="none" /><path d="M 79.54389044137918 95.25157060432595 l -10.166585471125295 -2.3599459695100893 a31.436896335630763,31.436896335630763 0 0,0 0.12689607956487967,-0.5260661734825354 l 10.1244565912996 2.5345973746520216" fill="#ff3104" stroke="none" /><path d="M 79.62865764111835 94.90015583598534 l -31.51004080761899 -7.888350943674444 a53.482437598006456,53.482437598006456 0 0,0 0.23125721497220833,-0.8911283850429665 l 31.369587260776473 8.429575754266274" fill="#98ff23" stroke="none" /><path d="M 79.81627453868168 94.20196356495316 l -9.921096397323833 -2.849963377550738 a31.322327498116515,31.322327498116515 0 0,0 0.15332145502581904,-0.5169237261689513 l 9.870569045186306 3.0203164904662287" fill="#ff2f04" stroke="none" /><path d="M 79.91906864156998 93.8553929516997 l -43.73901581858419 -13.383794809485533 a66.7408730598878,66.7408730598878 0 0,0 0.3456049501802484,-1.095662137140577 l 43.50215538463574 14.134707113052524" fill="#35ff66" stroke="none" /><path d="M 80.14247586403 93.16781622104843 l -13.938244605862643 -4.795595264101249 a35.74016270703717,35.74016270703717 0 0,0 0.2051603097947366,-0.5800158229741612 l 13.853631215258098 5.034808713502021" fill="#ff740a" stroke="none" /><path d="M 80.2630227832202 92.82701384747504 l -9.732104161582786 -3.5369270389902914 a31.354887941983613,31.354887941983613 0 0,0 0.1887197125672559,-0.5056750041422637 l 9.669779860513904 3.7039251801618964" fill="#ff3004" stroke="none" /><path d="M 80.38941819471856 92.48833698450439 l -32.63755479392937 -12.501531861525132 a55.94993965390312,55.94993965390312 0 0,0 0.3522353764750541,-0.8964006129798902 l 32.41752586757262 13.061481479400786" fill="#7aff26" stroke="none" /><path d="M 80.65960295795068 91.81776055985345 l -13.584896694569114 -5.747290362392773 a35.75061912977783,35.75061912977783 0 0,0 0.24465219513452624,-0.564690997471714 l 13.483953789591906 5.980280504451087" fill="#ff740a" stroke="none" /><path d="M 80.803312248108 91.48605970444005 l -40.75641104107228 -18.075912613142844 a65.58501606758503,65.58501606758503 0 0,0 0.46658330678183607,-1.0280544685327686 l 40.439225417327094 18.774789090517682" fill="#34ff57" stroke="none" /><path d="M 81.10775173730289 90.83032412892265 l -13.271983614853047 -6.441784282220606 a35.75269920426741,35.75269920426741 0 0,0 0.2734911017644784,-0.5513413725039432 l 13.159132500135156 6.669285243223511" fill="#ff740a" stroke="none" /><path d="M 81.26839172434947 90.50648371742162 l -13.155679830945902 -6.6675353683230645 a35.74882841795225,35.74882841795225 0 0,0 0.2829103837448242,-0.5464928128284555 l 13.038960014040963 6.893000903411856" fill="#ff740a" stroke="none" /><path d="M 81.43458229118936 90.18545643968196 l -32.64900349346431 -17.259782247480043 a57.93044154009903,57.93044154009903 0 0,0 0.47362798195870487,-0.8775607189453324 l 32.34706741228714 17.81922394975785" fill="#63ff29" stroke="none" /><line stroke="#e1ed5e" stroke-width="0.3" x1="26.266209847984243" x2="21.928928074336255" y1="57.711370442889674" y2="55.22380399835377" /><path d="M 25.398753493254645 57.213857153982495 a86.0,86.0 0 0,1 29.58750427330803,-30.492523968695096" fill="none" id="id155" stroke="none" /><text fill="#e1ed5e" style="font-size:6.75px; font-family:Arial;" text-anchor="middle"><textPath startOffset="21.46611528233685" xlink:href="#id155">November</textPath></text><path d="M 81.78341655067845 89.55222093294921 l -12.78191066409894 -7.330824632665121 a35.734932304557624,35.734932304557624 0 0,0 0.3106221988407071,-0.5309540274839031 l 12.653828790787907 7.549758072502915" fill="#ff740a" stroke="none" /><path d="M 81.96595687620814 89.24020034530311 l -41.829036497992206 -24.956802497252067 a69.70842109160603,69.70842109160603 0 0,0 0.6236719547392684,-1.0251527100923632 l 41.39324874496672 25.673122980551508" fill="#39ff8c" stroke="none" /><path d="M 82.34701348167596 88.62581576622439 l -12.38913835618542 -7.982578019572818 a35.73812406811911,35.73812406811911 0 0,0 0.3376459076719487,-0.5142578819385986 l 12.249895813155552 8.194653965489083" fill="#ff740a" stroke="none" /><path d="M 82.54541684631803 88.32363383020206 l -12.267234280085498 -8.206252654894294 a35.758984366089166,35.758984366089166 0 0,0 0.3466502071176077,-0.5086664045562121 l 12.12415960729915 8.416197082720922" fill="#ff740a" stroke="none" /><path d="M 82.7489923806493 88.02491185347247 l -13.933579397225015 -9.672237422887967 a37.96162762188487,37.96162762188487 0 0,0 0.3772434579234231,-0.5335841180120615 l 13.765023319497713 9.910648041231816" fill="#ff950d" stroke="none" /><path d="M 83.17141714833178 87.43820079747576 l -8.255261536593226 -6.162190762053735 a31.301550272919894,31.301550272919894 0 0,0 0.326019150141533,-0.4290029860510359 l 8.147966446227585 6.303378523985797" fill="#ff2f04" stroke="none" /><path d="M 83.39014120810768 87.1503855733568 l -13.445539711704978 -10.401653814050585 a37.999321757246335,37.999321757246335 0 0,0 0.40468539291451794,-0.5139093525563524 l 13.264500238196488 10.631555560559985" fill="#ff950d" stroke="none" /><path d="M 83.84228863543731 86.58626213691792 l -9.084758863844819 -7.541945217327747 a32.80736131721986,32.80736131721986 0 0,0 0.36445758070478446,-0.43140281971591443 l 8.95359066965291 7.697206986672777" fill="#ff4706" stroke="none" /><path d="M 84.07557802195018 86.31012108654704 l -8.940270769172848 -7.685756158192935 a32.78979597572948,32.78979597572948 0 0,0 0.3716303920879095,-0.4248377809654919 l 8.806648513507096 7.83850949536137" fill="#ff4706" stroke="none" /><path d="M 84.5562425177563 85.77008943001954 l -6.519761193395736 -6.00732165253943 a29.865393361604326,29.865393361604326 0 0,0 0.3516048181521526,-0.3750675050677295 l 6.4153890532731275 6.1186585744852096" fill="#ff1802" stroke="none" /><path d="M 85.05521093208273 85.24692304244772 l -44.51553931163285 -43.9444929123371 a83.55199195491679,83.55199195491679 0 0,0 1.0191918649313496,-1.0148151311652265 l 43.75251164653419 44.704243894152434" fill="#4cd7ff" stroke="none" /><path d="M 85.83668400450813 84.49514656593479 l -6.314355380872702 -6.912445838403555 a30.36231762678551,30.36231762678551 0 0,0 0.3889109444155459,-0.34916808585384285 l 6.194433448861185 7.020112933026677" fill="#ff2003" stroke="none" /><path d="M 86.10567301691215 84.25364557470407 l -6.354377915478921 -7.20137700308875 a30.60405900821844,30.60405900821844 0 0,0 0.39800753817735857,-0.34514821507599514 l 6.229476578654789 7.309690211584425" fill="#ff2403" stroke="none" /><path d="M 86.65592168130627 83.78471172551755 l -5.668340276957201 -6.887982027200681 a29.920447180630287,29.920447180630287 0 0,0 0.4005017150431213,-0.323844533870847 l 5.5489351633495785 6.984532658335662" fill="#ff1902" stroke="none" /><path d="M 87.51073957382395 83.11751280151077 l -8.783134685929577 -11.872693325141393 a35.768354739240124,35.768354739240124 0 0,0 0.4981248985623897,-0.36190892306393363 l 8.577464471013405 12.022121483021994" fill="#ff740a" stroke="none" /><path d="M 87.80319425747018 82.90503203632743 l -8.571791819084282 -12.014170728943876 a35.758587781150744,35.758587781150744 0 0,0 0.5041430635458548,-0.35318443367460683 l 8.363717615954767 12.159940005382426" fill="#ff740a" stroke="none" /><path d="M 88.09926311788651 82.69761687909137 l -5.8554313331813175 -8.513163282951558 a31.33247430095019,31.33247430095019 0 0,0 0.44700296253297234,-0.30181839568049634 l 5.708023676241806 8.61269359093072" fill="#ff3004" stroke="none" /><path d="M 88.70189139769569 82.29822771554957 l -5.155183611671867 -8.077094104028523 a30.58203356471801,30.58203356471801 0 0,0 0.44617854122565914,-0.27939696158301097 l 5.015385918073966 8.164635406934464" fill="#ff2403" stroke="none" /><path d="M 89.00827224532344 82.1063720568725 l -8.962708958491564 -14.590552372219213 a38.123503449968894,38.123503449968894 0 0,0 0.5621182303234615,-0.3386699441860821 l 8.710228661950453 14.742668925863914" fill="#ff970e" stroke="none" /><line stroke="#e1ed5e" stroke-width="0.3" x1="56.762969772571076" x2="54.21961505331055" y1="26.818313649435495" y2="22.513508569990535" /><path d="M 56.25429882871897 25.957352633546506 a86.0,86.0 0 0,1 42.265352541879196,-11.944610805530505" fill="none" id="id156" stroke="none" /><text fill="#e1ed5e" style="font-size:6.75px; font-family:Arial;" text-anchor="middle"><textPath startOffset="22.20632615414155" xlink:href="#id156">December</textPath></text><path d="M 89.3179101791058 81.91981866633112 l -8.786619199041198 -14.871965232666676 a38.27368017622781,38.27368017622781 0 0,0 0.5701015342714933,-0.33023960615787834 l 8.529320932304383 15.021008996214603" fill="#ff990e" stroke="none" /><path d="M 90.26544431104013 81.39251694778311 l -4.779059884957958 -9.13511398529854 a31.30969063107188,31.30969063107188 0 0,0 0.4796935522565581,-0.24571766886446056 l 4.621105845112636 9.216024179475506" fill="#ff2f04" stroke="none" /><path d="M 90.58718382345135 81.22770947309562 l -7.677095692452726 -15.310685775488233 a38.12760628887802,38.12760628887802 0 0,0 0.5892144648026142,-0.2891249789483163 l 7.412409960639685 15.44056591457138" fill="#ff970e" stroke="none" /><path d="M 91.23893434514133 80.91482961587045 l -14.141907655322512 -30.80683649582923 a54.89770976057859,54.89770976057859 0 0,0 0.8622022063933292,-0.3868449974176164 l 13.609523330462409 31.045701823763373" fill="#87ff25" stroke="none" /><path d="M 91.90106846888425 80.62456947434976 l -5.704125733708928 -13.646231164992347 a35.79042512554554,35.79042512554554 0 0,0 0.5704586954194955,-0.23270442522642995 l 5.4683831687010525 13.742396476402353" fill="#ff750a" stroke="none" /><path d="M 92.23578459929587 80.48803036053334 l -3.628388616374755 -9.118372542378214 a30.813761856344122,30.813761856344122 0 0,0 0.4945122140608949,-0.19186305634742948 l 3.4708932373141836 9.179478302616195" fill="#ff2703" stroke="none" /><path d="M 92.57280143429618 80.3572730644239 l -6.277135963709556 -16.601154066620417 a38.74826054154501,38.74826054154501 0 0,0 0.6259092772029246,-0.23052766905951688 l 5.990444360734061 16.706745003486255" fill="#ffa00e" stroke="none" /><path d="M 93.25333710446033 80.11325718540243 l -3.0850030490704374 -9.093482684554031 a30.60253462097679,30.60253462097679 0 0,0 0.5003036103953672,-0.16494223437982003 l 2.928016616432661 9.145238643193085" fill="#ff2403" stroke="none" /><path d="M 93.59665428221793 80.00007090966166 l -10.628257349768937 -33.19583272834312 a55.855747945224955,55.855747945224955 0 0,0 0.9182010099463959,-0.2852895233638332 l 10.055270967111811 33.37386238658948" fill="#7bff26" stroke="none" /><path d="M 94.28887869178378 79.79150937346287 l -4.021064602565469 -14.22831733809285 a35.78560025198431,35.78560025198431 0 0,0 0.5942149687268103,-0.1624213975535238 l 3.775551744614935 14.29542527647267" fill="#ff740a" stroke="none" /><path d="M 94.63758080256005 79.69619591428918 l -3.0166875734167076 -11.422127070500649 a32.813779697043216,32.813779697043216 0 0,0 0.5473512074534701,-0.13953201006290225 l 2.819627477278238 11.472362076732415" fill="#ff4706" stroke="none" /><path d="M 94.98787191387505 79.60689891045804 l -4.433469262617952 -18.038682431167825 a39.57551381671853,39.57551381671853 0 0,0 0.6629394446194541,-0.1568963478270123 l 4.122306131035963 18.112324691135708" fill="#ffac10" stroke="none" /><path d="M 95.33964822691252 79.52364482259891 l -1.9694302091546114 -8.65315633309729 a29.874444764251592,29.874444764251592 0 0,0 0.502398930017581,-0.10980494703241836 l 1.8201885549835095 8.685774778225575" fill="#ff1802" stroke="none" /><path d="M 95.692805502759 79.44645832069477 l -8.179183995874178 -39.03032455803671 a60.87813042187469,60.87813042187469 0 0,0 1.027488302397762,-0.20610448735290005 l 7.50612928400928 39.16533300146682" fill="#42ff2d" stroke="none" /><path d="M 96.40284397218896 79.31037775812273 l -2.5307647920645446 -14.55610129948167 a35.77446633464388,35.77446633464388 0 0,0 0.6076051098826258,-0.10026004929210938 l 2.279830476043033 14.597507611713407" fill="#ff740a" stroke="none" /><path d="M 96.75951476605007 79.25152402106235 l -2.281253364302513 -14.606618211127108 a35.78368737757166,35.78368737757166 0 0,0 0.6093979333744497,-0.0898094143741685 l 2.0294864504994146 14.643722109662246" fill="#ff740a" stroke="none" /><path d="M 97.11714578562143 79.19881850522333 l -2.4320858780507217 -17.548670865107084 a38.71640174668863,38.71640174668863 0 0,0 0.6609171329219298,-0.08580601230199218 l 2.1296540166209343 17.587935200573213" fill="#ffa00e" stroke="none" /><path d="M 97.83486435360386 79.11191278185805 l -1.5236126906075522 -14.699011963084892 a35.777765335865,35.777765335865 0 0,0 0.6131199406304649,-0.058223126134134995 l 1.270367622886851 14.723060633734208" fill="#ff740a" stroke="none" /><path d="M 98.55514903715128 79.0497635885617 l -2.905071104777466 -42.12332482869293 a63.2233813514194,63.2233813514194 0 0,0 1.0863521615370173,-0.06553172908297643 l 2.1795568944008257 42.16708982715621" fill="#30ff38" stroke="none" /><path d="M 99.27714615592234 79.0124445844662 l -0.558461540290715 -16.214539938223655 a37.224154360096364,37.224154360096364 0 0,0 0.6405627577682494,-0.016543846188936617 l 0.27927214732758654 16.221750576554953" fill="#ff8a0c" stroke="none" /><path d="M 99.63851952072746 79.00311137660856 l -0.2550710367624624 -14.81600932015042 a35.81820479709263,35.81820479709263 0 0,0 0.6165515160349945,-0.0053068535507735754 l 3.62941341477389e-15 14.818204797092633" fill="#ff750a" stroke="none" /></svg>