<?xml version="1.0" encoding="utf-8" ?>
<svg baseProfile="full" height="200mm" version="1.1" viewBox="0,0,200,200" width="200mm" xmlns="http://www.w3.org/2000/svg" xmlns:ev="http://www.w3.org/2001/xml-events" xmlns:xlink="http://www.w3.org/1999/xlink"><defs /><rect fill="#1a1a1a" height="200" width="200" x="0" y="0" /><text alignment-baseline="middle" fill="#e1ed5e" style="dominant-baseline: central; font-size:9.0px; font-family:Arial;" text-anchor="middle" x="100.0" y="100.0">2015</text><line stroke="#e1ed5e" stroke-width="0.3" x1="100.0" x2="100.0" y1="15.0" y2="10.0" /><path d="M 100.0 14.0 a86.0,86.0 0 0,1 42.46469731375804,11.215312516191453" fill="none" id="id25" stroke="none" /><text fill="#e1ed5e" style="font-size:6.75px; font-family:Arial;" text-anchor="middle"><textPath startOffset="22.20632615414155" xlink:href="#id25">January</textPath></text><path d="M 101.08401301168833 79.027996857942 l 2.135402987733541 -41.31286034893452 a62.3680115080552,62.3680115080552 0 0,0 1.0716545471673402,0.06464512884675869 l -2.8462195837404933 41.269981950707454" fill="#30ff34" stroke="none" /><path d="M 102.88285421437855 79.19881850522331 l 1.2228852373770145 -8.823705910305888 a29.908043236051434,29.908043236051434 0 0,0 0.5093354283758533,0.07506280221391115 l -1.3745896461815237 8.801348623931009" fill="#ff2e04" stroke="none" /><path d="M 103.59715602781102 79.31037775812273 l 1.271612145130034 -7.313882055022644 a28.423602101569323,28.423602101569323 0 0,0 0.48131293253085194,0.08795686194517234 l -1.3973201987637869 7.290909711726734" fill="#ff1702" stroke="none" /><path d="M 106.0581310904928 79.89281104454417 l 2.1408426830039344 -7.105545870180831 a28.42105043148309,28.42105043148309 0 0,0 0.4672077300892531,0.1451637159894265 l -2.262835785803906 7.067642019308884" fill="#ff1702" stroke="none" /><path d="M 107.76421540070413 80.48803036053334 l 2.7424173241295517 -6.891870048106909 a28.417460855284578,28.417460855284578 0 0,0 0.45294202540972983,0.18476642486158956 l -2.860643219127669 6.84364273706174" fill="#ff1702" stroke="none" /><path d="M 110.05341064243156 81.56283822128135 l 3.5502651758602948 -6.510906172321202 a28.415947815599612,28.415947815599612 0 0,0 0.4274244476730496,0.2378612423674215 l -3.6618137126053796 6.4488295323936" fill="#ff1702" stroke="none" /><path d="M 110.36928655335952 81.73862282372117 l 7.324169601676212 -12.898613893152758 a35.83299365329707,35.83299365329707 0 0,0 0.533746547633356,0.30918045134505573 l -7.545112881774897 12.770629284417653" fill="#ff870c" stroke="none" /><line stroke="#e1ed5e" stroke-width="0.3" x1="143.23703022742887" x2="145.7803849466894" y1="26.81831364943548" y2="22.513508569990506" /><path d="M 143.74570117128098 25.957352633546492 a86.0,86.0 0 0,1 28.547481713284135,27.462654790039103" fill="none" id="id26" stroke="none" /><text fill="#e1ed5e" style="font-size:6.75px; font-family:Arial;" text-anchor="middle"><textPath startOffset="19.985693538727396" xlink:href="#id26">February</textPath></text><path d="M 111.90073688211348 82.69761687909136 l 4.209422874880517 -6.120045172040208 a28.42793334968617,28.42793334968617 0 0,0 0.40079170623016713,0.2807802031248341 l -4.314145720694335 6.046680126151438" fill="#ff1702" stroke="none" /><path d="M 112.48926042617603 83.11751280151076 l 4.414969915520608 -5.9679813325274065 a28.423527499804095,28.423527499804095 0 0,0 0.3908287090153717,0.29436408090151095 l -4.517044778294363 5.8911006621200475" fill="#ff1702" stroke="none" /><path d="M 112.77801427241765 83.33499621200491 l 4.534455589757601 -5.913807730119905 a28.452141260356644,28.452141260356644 0 0,0 0.3860920950098466,0.30135100424651867 l -4.635580239926878 5.834878336650163" fill="#ff1802" stroke="none" /><path d="M 114.16331599549186 84.49514656593476 l 4.687613012001519 -5.13161979368636 a27.95034081590533,27.95034081590533 0 0,0 0.3524299949189924,0.3275452710688139 l -4.775250890715358 5.050169936542906" fill="#ff1001" stroke="none" /><path d="M 115.4437574822437 85.77008943001954 l 5.4650831024950035 -5.035539045172644 a28.431270873318685,28.431270873318685 0 0,0 0.32852517537042175,0.3627657040423903 l -5.550951918481461 4.940720553860705" fill="#ff1702" stroke="none" /><path d="M 116.15771136456269 86.58626213691792 l 8.569307734094423 -7.114030262065856 a32.13743514509509,32.13743514509509 0 0,0 0.3496882091167068,0.428676396777815 l -8.690494435287539 6.965469695679939" fill="#ff5007" stroke="none" /><path d="M 116.82858285166822 87.43820079747576 l 5.588466799165645 -4.171545423632223 a27.973718691401572,27.973718691401572 0 0,0 0.28471569292280524,0.38835188517677505 l -5.659445104602077 4.074731094783954" fill="#ff1001" stroke="none" /><path d="M 117.45458315368197 88.32363383020206 l 6.1715869674282215 -4.128526510542513 a28.425174532950873,28.425174532950873 0 0,0 0.26855477466074656,0.4090273462923624 l -6.241738377446893 4.021681100272477" fill="#ff1702" stroke="none" /><line stroke="#e1ed5e" stroke-width="0.3" x1="172.23445277983987" x2="176.4835382374775" y1="55.19839476539836" y2="52.563006222186495" /><path d="M 173.08426987136738 54.67131705675599 a86.0,86.0 0 0,1 12.851231095245387,41.99856678651699" fill="none" id="id27" stroke="none" /><text fill="#e1ed5e" style="font-size:6.75px; font-family:Arial;" text-anchor="middle"><textPath startOffset="22.20632615414155" xlink:href="#id27">March</textPath></text><path d="M 117.84615892207809 88.93136811851018 l 6.308199841337909 -3.9125025269309477 a28.42300890889245,28.42300890889245 0 0,0 0.2542968732928954,0.41799719683277226 l -6.374612512917028 3.8033375568910937" fill="#ff1702" stroke="none" /><path d="M 119.04729006885535 91.15688171328212 l 6.732596209912617 -3.125754080803141 a28.42281552373405,28.42281552373405 0 0,0 0.20220489450590862,0.4455316817693052 l -6.785403421381873 3.009400390191773" fill="#ff1702" stroke="none" /><path d="M 120.45610955862082 95.25157060432595 l 7.233328014581301 -1.6790557009172664 a28.425648942234574,28.425648942234574 0 0,0 0.106536101183974,0.4775804519775874 l -7.261158502767312 1.554297079389715" fill="#ff1702" stroke="none" /><path d="M 120.53481517161879 95.60439243477599 l 7.259766093528746 -1.5539990253516445 a28.424224990094487,28.424224990094487 0 0,0 0.09829463008815247,0.47931952493717916 l -7.285440019531895 1.4288038442510536" fill="#ff1702" stroke="none" /><path d="M 120.6074358757038 95.95851677861258 l 29.288819828456546 -5.744056399103266 a50.84676114522091,50.84676114522091 0 0,0 0.16104930995726965,0.8603318535677027 l -29.383354862323678 5.239046468073" fill="#aeff20" stroke="none" /><line stroke="#e1ed5e" stroke-width="0.3" x1="184.98032266829074" x2="189.97916517819016" y1="98.17113171792111" y2="98.06355123074" /><path d="M 185.9800911702706 98.14961562048488 a86.0,86.0 0 0,1 -9.607161424134198,41.387399972396054" fill="none" id="id28" stroke="none" /><text fill="#e1ed5e" style="font-size:6.75px; font-family:Arial;" text-anchor="middle"><textPath startOffset="21.466115282336823" xlink:href="#id28">April</textPath></text><line stroke="#e1ed5e" stroke-width="0.3" x1="174.80103733775053" x2="179.2010983576182" y1="140.37084112569926" y2="142.7455964860345" /><path d="M 175.68104954172406 140.8457921977663 a86.0,86.0 0 0,1 -30.038265399797805,32.042727171017184" fill="none" id="id29" stroke="none" /><text fill="#e1ed5e" style="font-size:6.75px; font-family:Arial;" text-anchor="middle"><textPath startOffset="22.206326154141568" xlink:href="#id29">May</textPath></text><path d="M 118.12598468904814 110.60418214915192 l 6.398917052066188 3.743536317694389 a28.41351492890655,28.41351492890655 0 0,0 -0.25060601683178185,0.4200300990412224 l -6.3335301595361795 -3.853128510621716" fill="#ff1702" stroke="none" /><path d="M 117.75023020441432 111.22182372390056 l 6.408221442300344 4.051323874736584 a28.58145943678185,28.58145943678185 0 0,0 -0.266481464538476,0.41358515074091234 l -6.337535114384818 -4.161030625398949" fill="#ff1a02" stroke="none" /><path d="M 116.93607887273984 112.41649034213515 l 7.243996532830341 5.31085227367021 a29.98224012373339,29.98224012373339 0 0,0 -0.3087296012380807,0.41359375272879073 l -7.151505664897169 -5.434758905908315" fill="#ff2f04" stroke="none" /><path d="M 116.498646956653 112.99209946851258 l 5.884129778584014 4.633543560865966 a28.48950660468776,28.48950660468776 0 0,0 -0.3067127208435637,0.3826712784890964 l -5.803499145685596 -4.734142672933312" fill="#ff1802" stroke="none" /><path d="M 115.80600337817218 113.82643327865902 l 5.633608775385931 4.928046261113044 a28.484863912308334,28.484863912308334 0 0,0 -0.32600404572832,0.366269001320928 l -5.547945880009273 -5.0242894321748395" fill="#ff1802" stroke="none" /><path d="M 114.55890576462653 115.13401014063108 l 5.160907144686628 5.3647727600733175 a28.44417553012435,28.44417553012435 0 0,0 -0.3557745539076914,0.33640704704771934 l -5.0677967563881285 -5.452814443866958" fill="#ff1802" stroke="none" /><path d="M 114.0293411484842 115.62618273729858 l 9.930296104346162 11.060577964401618 a35.86429162881969,35.86429162881969 0 0,0 -0.4629185954085633,0.40847183782588076 l -9.738435156031011 -11.229872943999789" fill="#ff880c" stroke="none" /><path d="M 111.45004920935366 117.60387380957326 l 34.35014762806101 52.81162142871979 a84.0,84.0 0 0,0 -1.2188727918122781,0.7779422847047646 l -33.4359930342018 -53.39507814224836" fill="#4dd2ff" stroke="none" /><line stroke="#e1ed5e" stroke-width="0.3" x1="143.8653032363475" x2="146.44561519142675" y1="172.8068346515853" y2="177.08958963109032" /><path d="M 144.38136562736335 173.6633856474863 a86.0,86.0 0 0,1 -40.68145358897372,12.25698825130547" fill="none" id="id30" stroke="none" /><text fill="#e1ed5e" style="font-size:6.75px; font-family:Arial;" text-anchor="middle"><textPath startOffset="21.466115282336833" xlink:href="#id30">June</textPath></text><path d="M 110.5260780823613 118.17145234162733 l 3.736217161358411 6.449932401638077 a28.453921562676243,28.453921562676243 0 0,0 -0.425929777578798,0.24185404379360323 l -3.6246386168584137 -6.513289611226309" fill="#ff1802" stroke="none" /><path d="M 110.21172684928248 118.3499491758327 l 5.136698354419973 9.230383374562438 a31.563410776150832,31.563410776150832 0 0,0 -0.4770241219033116,0.26011158557901426 l -4.977051420648013 -9.317435611901223" fill="#ff4806" stroke="none" /><path d="M 108.92500713936063 119.00905698771935 l 3.171966455888017 6.755859147405566 a28.46344451422145,28.46344451422145 0 0,0 -0.4452929749342868,0.20441216455110744 l -3.0552054851863106 -6.809458382290748" fill="#ff1802" stroke="none" /><path d="M 108.2653958097858 119.30500536409082 l 17.76261016395716 41.4870978216751 a66.12969760038231,66.12969760038231 0 0,0 -1.0502924535490363,0.4390223307647373 l -17.04584625091066 -41.78670519545981" fill="#35ff64" stroke="none" /><path d="M 107.59598834532513 119.57807347666477 l 2.6955525586049096 6.947578597202258 a28.452170956204935,28.452170956204935 0 0,0 -0.458120299252976,0.17322189738171875 l -2.575562038591659 -6.992948744690608" fill="#ff1802" stroke="none" /><path d="M 107.2578585660854 119.70592522655815 l 4.11239948775299 11.165640122290977 a32.8988801526608,32.8988801526608 0 0,0 -0.5330878758636721,0.19114634592656174 l -3.919592051259583 -11.2347740092575" fill="#ff5c08" stroke="none" /><path d="M 106.91757812671514 119.82793768551818 l 2.45622529176519 7.04030820246628 a28.456472508473492,28.456472508473492 0 0,0 -0.4638815158804852,0.15737379621665656 l -2.3346740429474777 -7.0815449855810595" fill="#ff1802" stroke="none" /><path d="M 106.57524785965236 119.94407469862006 l 2.3337081870119274 7.078615346525941 a28.453387761695957,28.453387761695957 0 0,0 -0.4664711460096468,0.14934933027901373 l -2.2115156959113405 -7.117737523464662" fill="#ff1802" stroke="none" /><path d="M 106.2309692047433 120.05430185196036 l 4.432014240445353 14.264386240653794 a35.937050078581905,35.937050078581905 0 0,0 -0.592319636999587,0.17846104775590332 l -4.185819629005521 -14.338562657515423" fill="#ff890c" stroke="none" /><path d="M 105.18746579009965 120.34920634021253 l 1.83681357626693 7.20538698169254 a28.435824478153236,28.435824478153236 0 0,0 -0.4753477513654422,0.11682891213229367 l -1.7125125401582768 -7.235937152138864" fill="#ff1702" stroke="none" /><path d="M 104.83641907484287 120.43548508189849 l 9.71133673645298 41.03363954446513 a63.16716300006291,63.16716300006291 0 0,0 -1.0602453417875668,0.24130838792837533 l -9.00357124527255 -41.194724665971194" fill="#31ff3e" stroke="none" /><path d="M 104.48393922423573 120.51570834832081 l 8.8106127653166 40.3118670490091 a62.26346473912904,62.26346473912904 0 0,0 -1.0490164507473665,0.21983159665001462 l -8.115404853139855 -40.45755462638566" fill="#30ff32" stroke="none" /><path d="M 102.70371172650421 120.8252237178851 l 0.9587086338461448 7.384412171015109 a28.446386060099705,28.446386060099705 0 0,0 -0.48612513667920354,0.05886298409124669 l -0.8314560741155609 -7.399820683831707" fill="#ff1802" stroke="none" /><path d="M 100.90346689309514 120.98055641714683 l 0.3190838208359542 7.40985215508336 a28.41671918336624,28.41671918336624 0 0,0 -0.48887534824412937,0.016837855469891132 l -0.19148812091717254 -7.414246808979345" fill="#ff1702" stroke="none" /><line stroke="#e1ed5e" stroke-width="0.3" x1="102.19456741930631" x2="102.32365962044197" y1="184.97166512339345" y2="189.96999836594603" /><path d="M 102.22038585953345 185.97133177190398 a86.0,86.0 0 0,1 -42.740103519485714,-10.115201625700543" fill="none" id="id31" stroke="none" /><text fill="#e1ed5e" style="font-size:6.75px; font-family:Arial;" text-anchor="middle"><textPath startOffset="22.20632615414155" xlink:href="#id31">July</textPath></text><path d="M 100.54218724476979 120.99299961872073 l 0.19210125690434365 7.437986879718878 a28.440467170532667,28.440467170532667 0 0,0 -0.48950148922451064,0.008427212055235871 l -0.06404007778716507 -7.440191569053273" fill="#ff1702" stroke="none" /><path d="M 100.18074693466247 120.99922214144158 l 0.06410544701854375 7.4477861820047995 a28.44806206480579,28.44806206480579 0 0,0 -0.48970476336199326,0.0 l 0.06410544701853861 -7.4477861820047995" fill="#ff1802" stroke="none" /><path d="M 99.45781275523022 120.99299961872073 l -0.1921123647113527 7.438416963957603 a28.440897398188422,28.440897398188422 0 0,0 -0.48929130524167014,-0.016852181869925875 l 0.3201240216276659 -7.4340079836615836" fill="#ff1702" stroke="none" /><path d="M 97.65516085044442 120.86867818915974 l -1.6578323289411552 14.754431821396064 a35.847278080614885,35.847278080614885 0 0,0 -0.6126002410182719,-0.0741773578870724 l 1.9115599930108162 -14.723708934783643" fill="#ff870c" stroke="none" /><path d="M 97.2962882734958 120.8252237178851 l -5.7411521500593485 44.22097842434959 a65.59210424298143,65.59210424298143 0 0,0 -1.118412246347838,-0.1550017463482051 l 6.501492987594018 -44.115602112508775" fill="#34ff5d" stroke="none" /><path d="M 95.86986931433489 120.58985236759428 l -1.4673728772011827 7.315262690027691 a28.460981931680095,28.460981931680095 0 0,0 -0.4795113535015411,-0.100486266327812 l 1.5930756921321108 -7.288920442973338" fill="#ff1802" stroke="none" /><path d="M 95.51606077576429 120.51570834832081 l -1.5889709493605955 7.270139701010976 a28.44175785349993,28.44175785349993 0 0,0 -0.47738793139076335,-0.10865193894286881 l 1.7138790301442215 -7.24171102849042" fill="#ff1802" stroke="none" /><path d="M 95.16358092515715 120.4354850818985 l -1.7096804763177613 7.2239707370147554 a28.423527499804095,28.423527499804095 0 0,0 -0.4751421888008216,-0.11677838985522208 l 1.8337759498617934 -7.193471088845504" fill="#ff1702" stroke="none" /><path d="M 92.7421414339146 119.70592522655815 l -2.5695587878401955 6.976649224749923 a28.43480105782061,28.43480105782061 0 0,0 -0.45784061925743597,-0.17311614633867248 l 2.6892696278579145 -6.931384828304617" fill="#ff1702" stroke="none" /><path d="M 90.7491055286396 118.85261126421891 l -3.2736536560305574 6.671454309840087 a28.431359960863563,28.431359960863563 0 0,0 -0.43749918431513735,-0.21937117334969256 l 3.3880067480284555 -6.614115295581092" fill="#ff1702" stroke="none" /><path d="M 90.10565033884886 118.52300852407294 l -3.5138380080712706 6.578183873091788 a28.45785227898563,28.45785227898563 0 0,0 -0.43008919697914566,-0.23451892227229124 l 3.6265500169190568 -6.516724299059731" fill="#ff1802" stroke="none" /><line stroke="#e1ed5e" stroke-width="0.3" x1="58.666819895761336" x2="56.23545636021788" y1="174.27360380694188" y2="178.64263932499728" /><path d="M 58.180547188652646 175.14741091055294 a86.0,86.0 0 0,1 -31.652253787137756,-30.449443065178592" fill="none" id="id32" stroke="none" /><text fill="#e1ed5e" style="font-size:6.75px; font-family:Arial;" text-anchor="middle"><textPath startOffset="22.20632615414155" xlink:href="#id32">August</textPath></text><path d="M 89.1626897886671 117.98757091392108 l -4.606391492302849 7.645605044915418 a29.92603602296093,29.92603602296093 0 0,0 -0.43894483612604646,-0.2696357694120773 l 4.737315528361204 -7.565180808674962" fill="#ff2f04" stroke="none" /><path d="M 88.8546689885994 117.79835938074946 l -3.9669552315632237 6.33496616533722 a28.47452541136855,28.47452541136855 0 0,0 -0.4131764795676814,-0.26370877802862447 l 4.075413513177828 -6.265742958484791" fill="#ff1802" stroke="none" /><path d="M 88.24862548938628 117.40417183066458 l -4.211367409700415 6.237173530150644 a28.525818832837967,28.525818832837967 0 0,0 -0.4045818452312137,-0.27827508232425324 l 4.318106139554518 -6.163757658461289" fill="#ff1902" stroke="none" /><path d="M 87.65650970185807 116.9893568818739 l -4.392038154114126 6.045121909342272 a28.472181612220368,28.472181612220368 0 0,0 -0.3940211381658777,-0.29148741830009184 l 4.495444262698569 -5.968624542302413" fill="#ff1802" stroke="none" /><path d="M 87.36589467227662 116.77436683061367 l -4.4714828235037265 5.936810815851856 a28.432353685347895,28.432353685347895 0 0,0 -0.3884012120780309,-0.29780948714410554 l 4.573012764075244 -5.8589619868803835" fill="#ff1702" stroke="none" /><path d="M 87.07902340077011 116.55440617244103 l -4.5767820198178315 5.86379117220174 a28.438479721564,28.438479721564 0 0,0 -0.3832999335094306,-0.3045166488872647 l 4.6770394460446205 -5.784140609309345" fill="#ff1702" stroke="none" /><path d="M 85.97065885151581 115.62618273729859 l -4.966724020986179 5.53204433025324 a28.434504823626664,28.434504823626664 0 0,0 -0.361389626100612,-0.3301208549775751 l 5.061213196553646 -5.445730708689089" fill="#ff1702" stroke="none" /><path d="M 85.70375840098266 115.38237550388516 l -5.079581782122396 5.465494817929742 a28.461486761101074,28.461486761101074 0 0,0 -0.3559910796238773,-0.3366117856272262 l 5.17290869613709 -5.3772483955565855" fill="#ff1802" stroke="none" /><path d="M 85.44109423537348 115.13401014063109 l -5.181423415518938 5.386099462494776 a28.473768529381577,28.473768529381577 0 0,0 -0.35029521217173054,-0.34283759247908124 l 5.273368580066463 -5.296111767093125" fill="#ff1802" stroke="none" /><path d="M 84.9287848128048 114.62390073753433 l -27.799876549752465 26.974774769634706 a59.735921443203054,59.735921443203054 0 0,0 -0.7097010022581148,-0.7441186635204166 l 28.260084103389538 -26.492248989531788" fill="#48ff2c" stroke="none" /><path d="M 84.43433777217949 114.09645910891817 l -5.525120785476517 5.00361874004309 a28.454070041917706,28.454070041917706 0 0,0 -0.3256516155267265,-0.36587304225335393 l 5.610431250651581 -4.907771528048872" fill="#ff1802" stroke="none" /><path d="M 84.19399662182784 113.82643327865904 l -5.584663181239056 4.885230694422064 a28.41983435028105,28.41983435028105 0 0,0 -0.3189212781619719,-0.3709774968308489 l 5.667926968971806 -4.788376098429684" fill="#ff1702" stroke="none" /><path d="M 83.95833913139862 113.55231037782056 l -6.835471786239096 5.774740906489715 a29.948257208951716,29.948257208951716 0 0,0 -0.3292939231316279,-0.3966557434157891 l 6.933861709264261 -5.656223905960165" fill="#ff2f04" stroke="none" /><path d="M 83.72743513129214 113.27417163493432 l -5.772879015180208 4.709164627303013 a28.449990846366855,28.449990846366855 0 0,0 -0.30628730155079587,-0.3821405025101611 l 5.853084228785865 -4.609096291214592" fill="#ff1802" stroke="none" /><path d="M 83.50135304334701 112.99209946851258 l -5.846930656889587 4.604250571539934 a28.44215838530739,28.44215838530739 0 0,0 -0.29958150183018784,-0.3872494751083647 l 5.925318975937843 -4.502923102318317" fill="#ff1802" stroke="none" /><path d="M 83.06392112726016 112.41649034213515 l -5.986579089577346 4.388991218493317 a28.423097272148343,28.423097272148343 0 0,0 -0.2858825003405466,-0.3970657889829404 l 6.061241382293501 -4.285291824059238" fill="#ff1702" stroke="none" /><path d="M 82.44556493220864 111.52570212397912 l -4.975235075021625 3.2665863213498922 a26.951768665409944,26.951768665409944 0 0,0 -0.25128691562258093,-0.3900028733967627 l 5.0307268540212515 -3.1804618480316815" fill="#ff0000" stroke="none" /><path d="M 82.24976979558568 111.22182372390057 l -7.531245238275661 4.761307628809064 a29.91009007671669,29.91009007671669 0 0,0 -0.2713776090633862,-0.4375471143220368 l 7.6120874870070026 -4.630964183121763" fill="#ff2e04" stroke="none" /><path d="M 82.05923443525364 110.91462005526583 l -6.39829993271937 3.892532484928668 a28.48932915388699,28.48932915388699 0 0,0 -0.2512746951346562,-0.4211508423391451 l 6.464355503552258 -3.7818195487034116" fill="#ff1802" stroke="none" /><line stroke="#e1ed5e" stroke-width="0.3" x1="26.63291911575756" x2="22.317208475507996" y1="142.92168965132927" y2="145.44649492493687" /><path d="M 25.769776987707644 143.4266507060508 a86.0,86.0 0 0,1 -11.730757126820373,-40.83630448921669" fill="none" id="id33" stroke="none" /><text fill="#e1ed5e" style="font-size:6.75px; font-family:Arial;" text-anchor="middle"><textPath startOffset="21.46611528233685" xlink:href="#id33">September</textPath></text><path d="M 81.87401531095188 110.60418214915194 l -5.188039066985497 3.0351405568863217 a27.01064285751732,27.01064285751732 0 0,0 -0.23132429526502568,-0.4033334071774524 l 5.239515358402899 -2.9453873038505622" fill="#ff0100" stroke="none" /><path d="M 81.51974371655577 109.97397251340807 l -7.920132508390797 4.274571885239942 a30.000025763993815,30.000025763993815 0 0,0 -0.24135376695312147,-0.45655037053341857 l 7.992538783568804 -4.1376064996203965" fill="#ff3004" stroke="none" /><path d="M 80.87730276802145 108.67885076344099 l -8.104884443827496 3.678408003306311 a29.90055263939183,29.90055263939183 0 0,0 -0.20867583622688252,-0.4705089218797497 l 8.167001364785659 -3.538350744933865" fill="#ff2e04" stroke="none" /><path d="M 80.58989483394504 108.01547362559985 l -6.90808553858317 2.8527190844249932 a28.473931494402695,28.473931494402695 0 0,0 -0.18317874793847788,-0.45463463000351795 l 6.956166900779036 -2.7333850865786697" fill="#ff1802" stroke="none" /><path d="M 80.32549172779594 107.34259656027581 l -6.975671766979637 2.603345548117216 a28.445629902401713,28.445629902401713 0 0,0 -0.16725453206528276,-0.4602126392804596 l 7.019450560050145 -2.4828851118306394" fill="#ff1802" stroke="none" /><path d="M 80.20201598880116 107.00284435728193 l -7.032386120166549 2.4874606137665034 a28.45935083289094,28.45935083289094 0 0,0 -0.15938479063578298,-0.46324680795430845 l 7.074161741745561 -2.3660411027228982" fill="#ff1802" stroke="none" /><path d="M 80.0844068197444 106.66101706037122 l -7.076201111754597 2.366723195307319 a28.46150124688073,28.46150124688073 0 0,0 -0.15139858271367904,-0.46595692556955787 l 7.115891945484526 -2.244567369759958" fill="#ff1802" stroke="none" /><path d="M 79.50377843672027 104.57218783832718 l -7.2450071177133575 1.6161775637490825 a28.42308278636869,28.42308278636869 0 0,0 -0.10241237530692322,-0.47843652259864994 l 7.2717535317447215 -1.4912272217342688" fill="#ff1702" stroke="none" /><path d="M 79.23777060512086 103.15116336523772 l -7.34834832948286 1.1152870730049553 a28.43250216458936,28.43250216458936 0 0,0 -0.06927504548684844,-0.48450950678692206 l 7.366457425986307 -0.9886320942376328" fill="#ff1702" stroke="none" /><path d="M 79.1416061653843 102.43462659150553 l -7.380939836352383 0.8615156343468804 a28.43104851660098,28.43104851660098 0 0,0 -0.05255370806316109,-0.48658206712088586 l 7.394675845916596 -0.7343372453412125" fill="#ff1702" stroke="none" /><path d="M 79.10278846688536 102.07522291339032 l -7.429452455662111 0.7377907787123785 a28.465996184307677,28.465996184307677 0 0,0 -0.044224505613727184,-0.4880137342788697 l 7.441051557552914 -0.6097956558849427" fill="#ff1802" stroke="none" /><path d="M 79.07016306316243 101.71520430193888 l -7.42186211227509 0.6082230770257918 a28.44674241027922,28.44674241027922 0 0,0 -0.0357933728223227,-0.4883721341934546 l 7.431232043761748 -0.48037780633557653" fill="#ff1802" stroke="none" /><line stroke="#e1ed5e" stroke-width="0.3" x1="15.007084014347285" x2="10.007500721073583" y1="101.09737516637583" y2="101.16192664675087" /><path d="M 14.007167355692545 101.11028546245083 a86.0,86.0 0 0,1 10.666146001902534,-42.60595125391555" fill="none" id="id34" stroke="none" /><text fill="#e1ed5e" style="font-size:6.75px; font-family:Arial;" text-anchor="middle"><textPath startOffset="22.20632615414155" xlink:href="#id34">October</textPath></text><path d="M 79.01574976396665 99.18683210126434 l -9.712558279793376 -0.3763746866764443 a30.7198480565878,30.7198480565878 0 0,0 0.025024083612541964,-0.5282188542601235 l 9.704640587947335 0.5435046475595768" fill="#ff3b05" stroke="none" /><path d="M 79.08570108090925 98.10471618934814 l -7.402391543898656 -0.6708153549651589 a28.432724521307065,28.432724521307065 0 0,0 0.048366602123165105,-0.48704508281211023 l 7.389747816093261 0.7981359684816994" fill="#ff1702" stroke="none" /><path d="M 79.16333360222342 97.38593545837743 l -9.138771907465292 -1.14650487468718 a30.21040853623542,30.21040853623542 0 0,0 0.06917320535807465,-0.5154207265364948 l 9.117682703049384 1.3036439432883342" fill="#ff3304" stroke="none" /><path d="M 79.26566170972629 96.67025291283419 l -7.3735387963020695 -1.18412360140801 a28.468013329124638,28.468013329124638 0 0,0 0.08186334910301502,-0.4831621204244981 l 7.352063585678832 1.3108715101483361" fill="#ff1802" stroke="none" /><path d="M 79.62865764111835 94.90015583598534 l -7.19518071248893 -1.8012706143352994 a28.417223288498235,28.417223288498235 0 0,0 0.12287562441219843,-0.4734899049819811 l 7.163108756206424 1.9248569448661443" fill="#ff1702" stroke="none" /><path d="M 79.81627453868168 94.20196356495316 l -7.416075767091639 -2.130363771795815 a28.715998288194726,28.715998288194726 0 0,0 0.14056358488460646,-0.47391053032976077 l 7.378306285095326 2.2577036888721147" fill="#ff1c02" stroke="none" /><path d="M 80.2630227832202 92.82701384747504 l -7.021743171566935 -2.5519037683954893 a28.471083590122518,28.471083590122518 0 0,0 0.17136258696086162,-0.4591665369370519 l 6.976775996104446 2.6723934423618827" fill="#ff1802" stroke="none" /><path d="M 80.65960295795068 91.81776055985345 l -14.05505013826882 -5.946195692081539 a36.26111652526706,36.26111652526706 0 0,0 0.24814568172180804,-0.5727544461750517 l 13.950613746704331 6.18724928284319" fill="#ff8d0d" stroke="none" /><path d="M 80.95270993114464 91.15688171328213 l -6.769568142465489 -3.142919103841674 a28.463577783394275,28.463577783394275 0 0,0 0.210144976631583,-0.4426189144368119 l 6.714464971992154 3.258980433919018" fill="#ff1802" stroke="none" /><path d="M 81.10775173730289 90.83032412892265 l -7.239068792774507 -3.513605872374704 a29.04671008629662,29.04671008629662 0 0,0 0.22219348247660303,-0.44792850224274583 l 7.177515297344491 3.637693963116411" fill="#ff2103" stroke="none" /><path d="M 81.26839172434947 90.50648371742162 l -6.6530061394506 -3.371863279624062 a28.458683038448847,28.458683038448847 0 0,0 0.22521736503221249,-0.4350482639947237 l 6.593979341258274 3.485884265879121" fill="#ff1802" stroke="none" /><path d="M 81.43458229118936 90.18545643968196 l -6.562991677879366 -3.4695027453103475 a28.423631797417613,28.423631797417613 0 0,0 0.23238606525775782,-0.43057608559592153 l 6.502297513403137 3.5819598142387417" fill="#ff1702" stroke="none" /><path d="M 81.6062741919709 89.86733742301443 l -6.516277123423382 -3.5896608462521233 a28.439592229441505,28.439592229441505 0 0,0 0.23989792610498709,-0.4267516420108372 l 6.453521556025965 3.701295998197745" fill="#ff1702" stroke="none" /><line stroke="#e1ed5e" stroke-width="0.3" x1="26.266209847984243" x2="21.928928074336255" y1="57.711370442889674" y2="55.22380399835377" /><path d="M 25.398753493254645 57.213857153982495 a86.0,86.0 0 0,1 29.58750427330803,-30.492523968695096" fill="none" id="id35" stroke="none" /><text fill="#e1ed5e" style="font-size:6.75px; font-family:Arial;" text-anchor="middle"><textPath startOffset="21.46611528233685" xlink:href="#id35">November</textPath></text><path d="M 82.7489923806493 88.02491185347247 l -8.538181818135918 -5.926927988169571 a31.39370117602457,31.39370117602457 0 0,0 0.31197472633735596,-0.44126612588882347 l 8.434894471994683 6.073020614390181" fill="#ff4506" stroke="none" /><path d="M 82.95767976084542 87.72973835380427 l -6.047439201059979 -4.354082087718582 a28.451815330314403,28.451815330314403 0 0,0 0.28958174656885505,-0.39498917688140933 l 5.97159484197749 4.457533708271492" fill="#ff1802" stroke="none" /><path d="M 84.31358615837235 86.03803664274999 l -5.552148662803092 -4.941785736797693 a28.43287300054853,28.43287300054853 0 0,0 0.32854368805425976,-0.36278614621027017 l 5.4662613341327875 5.0366246702775195" fill="#ff1702" stroke="none" /><path d="M 85.83668400450813 84.49514656593479 l -6.019687933967965 -6.589867737519387 a29.92541313443576,29.92541313443576 0 0,0 0.38331463451497244,-0.34414366356928955 l 5.905362311857021 6.692510409857955" fill="#ff2f04" stroke="none" /><path d="M 87.51073957382395 83.11751280151077 l -4.449842896809345 -6.0151212463485795 a28.48216448726962,28.48216448726962 0 0,0 0.39665440022304715,-0.28818629068250373 l 4.345643180232517 6.090826771847751" fill="#ff1802" stroke="none" /><path d="M 87.80319425747018 82.90503203632743 l -4.34582406714539 -6.091080301833051 a28.482475931532203,28.482475931532203 0 0,0 0.4015606757564078,-0.28131891541957016 l 4.240332251805322 6.164984060016564" fill="#ff1802" stroke="none" /><path d="M 88.09926311788651 82.69761687909137 l -5.885580860126644 -8.556997431314775 a31.385676054095697,31.385676054095697 0 0,0 0.4477619623182931,-0.302330875723647 l 5.737414203401811 8.657040219337087" fill="#ff4506" stroke="none" /><line stroke="#e1ed5e" stroke-width="0.3" x1="56.762969772571076" x2="54.21961505331055" y1="26.818313649435495" y2="22.513508569990535" /><path d="M 56.25429882871897 25.957352633546506 a86.0,86.0 0 0,1 42.265352541879196,-11.944610805530505" fill="none" id="id36" stroke="none" /><text fill="#e1ed5e" style="font-size:6.75px; font-family:Arial;" text-anchor="middle"><textPath startOffset="22.20632615414155" xlink:href="#id36">December</textPath></text><path d="M 89.63071344664047 81.73862282372117 l -3.6896539018885215 -6.497858961230603 a28.472330091461835,28.472330091461835 0 0,0 0.4282725335181864,-0.23833320122203866 l 3.5772572792982897 6.560407560012825" fill="#ff1802" stroke="none" /><path d="M 90.26544431104013 81.39251694778311 l -4.885532600760297 -9.338635267431881 a31.539380316281132,31.539380316281132 0 0,0 0.4832126116529921,-0.2475202677683226 l 4.724059501518541 9.42134806051271" fill="#ff4706" stroke="none" /><path d="M 90.58718382345135 81.22770947309562 l -3.3498162568366214 -6.680649319568648 a28.47344259933934,28.47344259933934 0 0,0 0.44002144050547426,-0.21591660986390063 l 3.234323549320721 6.737321089567378" fill="#ff1802" stroke="none" /><path d="M 92.23578459929587 80.48803036053334 l -2.7555247146370028 -6.9248097583589985 a28.452912628123272,28.452912628123272 0 0,0 0.4566243124033736,-0.1771631391281801 l 2.6359172372339525 6.97121560137773" fill="#ff1802" stroke="none" /><path d="M 92.57280143429618 80.3572730644239 l -3.6987620240979386 -9.782123339818073 a31.458048457830103,31.458048457830103 0 0,0 0.5081488587428065,-0.18715551311960252 l 3.529830839582563 9.844342120743999" fill="#ff4606" stroke="none" /><path d="M 93.94186890950719 79.89281104454417 l -2.1401623592305334 -7.103287847292506 a28.418692146555255,28.418692146555255 0 0,0 0.46959829401720266,-0.13708861925671892 l 2.0175738474899094 7.139074795467924" fill="#ff1702" stroke="none" /><path d="M 94.28887869178378 79.79150937346287 l -2.029373515601637 -7.180827276209149 a28.462079953777945,28.462079953777945 0 0,0 0.472608921760264,-0.12918187122252925 l 1.9054667046176508 7.214695688257974" fill="#ff1802" stroke="none" /><path d="M 94.98787191387505 79.60689891045804 l -2.4787356779993286 -10.085358232490007 a31.38549860329492,31.38549860329492 0 0,0 0.5257464276909345,-0.12442719324863269 l 2.30476556334586 10.12653133787951" fill="#ff4506" stroke="none" /><path d="M 98.19473922651362 79.07773832637324 l -0.638975642723643 -7.405476148645048 a28.4329917839417,28.4329917839417 0 0,0 0.487977580224416,-0.037876451921589414 l 0.5114078731368928 7.4153778627551" fill="#ff1702" stroke="none" /></svg>