<?xml version="1.0" encoding="utf-8" ?>
<svg baseProfile="full" height="200mm" version="1.1" viewBox="0,0,200,200" width="200mm" xmlns="http://www.w3.org/2000/svg" xmlns:ev="http://www.w3.org/2001/xml-events" xmlns:xlink="http://www.w3.org/1999/xlink"><defs /><rect fill="#1a1a1a" height="200" width="200" x="0" y="0" /><text alignment-baseline="middle" fill="#e1ed5e" style="dominant-baseline: central; font-size:9.0px; font-family:Arial;" text-anchor="middle" x="100.0" y="100.0">2021</text><line stroke="#e1ed5e" stroke-width="0.3" x1="100.0" x2="100.0" y1="15.0" y2="10.0" /><path d="M 100.0 14.0 a86.0,86.0 0 0,1 42.46469731375804,11.215312516191453" fill="none" id="id97" stroke="none" /><text fill="#e1ed5e" style="font-size:6.75px; font-family:Arial;" text-anchor="middle"><textPath startOffset="22.20632615414155" xlink:href="#id97">January</textPath></text><path d="M 100.72285384407766 79.0124445844662 l 0.4335547441879927 -12.587958539424314 a33.59542257752686,33.59542257752686 0 0,0 0.5777759454108695,0.024880247593378063 l -0.6501715219881937 12.57863056530674" fill="#ff7f0b" stroke="none" /><path d="M 101.44485096284872 79.0497635885617 l 1.097149880098971 -15.908595390029388 a36.946383450270645,36.946383450270645 0 0,0 0.6340875744313512,0.04921739952884642 l -1.3708276438926632 15.887352728312077" fill="#ffae10" stroke="none" /><path d="M 102.16513564639614 79.11191278185805 l 1.551075765804731 -14.963961233562282 a36.04413413363566,36.04413413363566 0 0,0 0.6165834820935033,0.06928033844199881 l -1.8084259514079597 14.935044941649682" fill="#ffa20e" stroke="none" /><path d="M 102.88285421437855 79.19881850522331 l 3.1416046405113818 -22.668190429531244 a43.884853879078506,43.884853879078506 0 0,0 0.747361192214967,0.11014161243892073 l -3.5313348131550044 22.610754332931354" fill="#f5ff19" stroke="none" /><path d="M 103.59715602781102 79.31037775812273 l 2.0949179342490583 -12.049257900475999 a33.23001623479796,33.23001623479796 0 0,0 0.5627026618535221,0.10283031474883282 l -2.302015717205481 12.011412104376427" fill="#ff7a0b" stroke="none" /><path d="M 104.307194497241 79.44645832069477 l 2.490871946041968 -11.886215120673032 a33.14440418244119,33.14440418244119 0 0,0 0.5573898805059688,0.12182383888282064 l -2.695104550701465 11.841577783694342" fill="#ff790b" stroke="none" /><path d="M 105.01212808612495 79.60689891045804 l 2.856869541769498 -11.623890763330817 a32.96981787900458,32.96981787900458 0 0,0 0.549954006889945,0.14019552159300958 l -3.056532437344468 11.572992245568939" fill="#ff770a" stroke="none" /><path d="M 105.71112130821622 79.79150937346287 l 6.557918184008675 -23.204835092625455 a45.113702797042464,45.113702797042464 0 0,0 0.7454712469186534,0.21762349914311246 l -6.956379648650755 23.08851326456364" fill="#e6ff1a" stroke="none" /><path d="M 106.0581310904928 79.89281104454417 l 4.3657227233015865 -14.49001522306307 a36.13340926762213,36.13340926762213 0 0,0 0.5939895910958691,0.1845554573466586 l -4.614497687108174 14.412719630833891" fill="#ffa30f" stroke="none" /><path d="M 106.40334571778207 80.00007090966166 l 3.658895004145523 -11.428032134621375 a32.999476285292616,32.999476285292616 0 0,0 0.5394898602735683,0.17786132486323455 l -3.8550676866615086 11.363357085498905" fill="#ff770b" stroke="none" /><path d="M 109.41281617654863 81.2277094730956 l 6.843214115866518 -13.647648175783527 a36.26721586162854,36.26721586162854 0 0,0 0.5556474451349389,0.2846242028619726 l -7.077122048590212 13.527831447609053" fill="#ffa50f" stroke="none" /><path d="M 109.73455568895987 81.39251694778311 l 5.906818213537148 -11.290810111197024 a33.742562315911314,33.742562315911314 0 0,0 0.5123325303454983,0.27367029451142555 l -6.100295790410957 11.187461090183843" fill="#ff810b" stroke="none" /><line stroke="#e1ed5e" stroke-width="0.3" x1="143.23703022742887" x2="145.7803849466894" y1="26.81831364943548" y2="22.513508569990506" /><path d="M 143.74570117128098 25.957352633546492 a86.0,86.0 0 0,1 28.547481713284135,27.462654790039103" fill="none" id="id98" stroke="none" /><text fill="#e1ed5e" style="font-size:6.75px; font-family:Arial;" text-anchor="middle"><textPath startOffset="19.985693538727396" xlink:href="#id98">February</textPath></text><path d="M 110.99172775467656 82.1063720568725 l 7.884996036875708 -12.836124453397227 a36.06450309451486,36.06450309451486 0 0,0 0.5261653822557428,0.3294847140980412 l -8.104780571503714 12.698495397976242" fill="#ffa20e" stroke="none" /><path d="M 111.2981086023043 82.29822771554956 l 8.67884877741513 -13.597940164750241 a37.13153411258111,37.13153411258111 0 0,0 0.5358132961584721,0.3485078724379486 l -8.911629099357883 13.446533368152764" fill="#ffb010" stroke="none" /><path d="M 111.90073688211348 82.69761687909136 l 9.309377650045514 -13.534827323205734 a37.42729627480321,37.42729627480321 0 0,0 0.5276693788831454,0.3696661210361465 l -9.54097816851231 13.372576359405652" fill="#ffb410" stroke="none" /><path d="M 112.48926042617603 83.11751280151076 l 20.972121941803376 -28.349283154155334 a56.263462026527485,56.263462026527485 0 0,0 0.7736329077632846,0.5826842670351166 l -21.457001003325043 27.984082297614368" fill="#64ff29" stroke="none" /><path d="M 114.68862486808459 84.99185889309783 l 14.312952053780897 -14.624296420436844 a41.462908939997575,41.462908939997575 0 0,0 0.5057768043499832,0.5036048380167653 l -14.562564658298204 14.37575573176996" fill="#ffea16" stroke="none" /><path d="M 115.19652480421416 85.50635884689758 l 11.95472684847825 -11.401785819949687 a37.520175964732715,37.520175964732715 0 0,0 0.4417244563762066,0.4712008517150929 l -12.14921862682492 11.194315551356539" fill="#ffb610" stroke="none" /><path d="M 116.38621287248628 86.86637796730983 l 14.19478976136555 -11.377186724597246 a39.191548426005966,39.191548426005966 0 0,0 0.41738237527048977,0.5300332307496914 l -14.388526217230005 11.131161099894516" fill="#ffcc13" stroke="none" /><path d="M 116.60985879189232 87.15038557335679 l 11.995843891440893 -9.280149257046014 a36.166457757198,36.166457757198 0 0,0 0.37668926039844997,0.495678911665575 l -12.153809092063456 9.072285569499405" fill="#ffa30f" stroke="none" /><line stroke="#e1ed5e" stroke-width="0.3" x1="172.23445277983987" x2="176.4835382374775" y1="55.19839476539836" y2="52.563006222186495" /><path d="M 173.08426987136738 54.67131705675599 a86.0,86.0 0 0,1 12.851231095245387,41.99856678651699" fill="none" id="id99" stroke="none" /><text fill="#e1ed5e" style="font-size:6.75px; font-family:Arial;" text-anchor="middle"><textPath startOffset="22.20632615414155" xlink:href="#id99">March</textPath></text><path d="M 117.84615892207809 88.93136811851018 l 12.663825033482214 -7.854419436655332 a35.90182435695576,35.90182435695576 0 0,0 0.32120883854165877,0.5279828743850898 l -12.797149670310096 7.635268789063161" fill="#ffa00e" stroke="none" /><path d="M 118.73160827565052 90.50648371742162 l 28.126067894812362 -14.254797537668104 a52.53212565088981,52.53212565088981 0 0,0 0.4018457135280417,0.8100964375147156 l -28.367273621293812 13.768541511654439" fill="#8dff24" stroke="none" /><path d="M 120.45610955862082 95.25157060432595 l 14.736267621345526 -3.420695717100695 a36.12807795448277,36.12807795448277 0 0,0 0.13540392961170183,0.6069892664067718 l -14.792965937959265 3.1665282811439592" fill="#ffa30f" stroke="none" /><path d="M 120.53481517161879 95.60439243477599 l 30.892559277074152 -6.612748453422475 a52.592382955322975,52.592382955322975 0 0,0 0.18187123236779382,0.8868687192788721 l -31.00180980535694 6.080004077980192" fill="#8dff24" stroke="none" /><path d="M 120.73433829027371 96.67025291283417 l 11.922057472278908 -1.9145745374457412 a33.07481055883515,33.07481055883515 0 0,0 0.08543397849659158,0.562903173866258 l -11.9532473442148 1.709072251187401" fill="#ff780b" stroke="none" /><path d="M 120.78858239683441 97.02765380044208 l 12.742492926556974 -1.8219183828962116 a33.87208268219598,33.87208268219598 0 0,0 0.07755739312398865,0.5778926638619022 l -12.7719663187388 1.602307376969645" fill="#ff830c" stroke="none" /><path d="M 120.94382443527127 98.46500227214037 l 12.164509658920313 -0.8915513374683899 a33.197137329279656,33.197137329279656 0 0,0 0.03686369632685989,0.5702650659183256 l -12.178053946251588 0.682027207297029" fill="#ff7a0b" stroke="none" /><path d="M 120.96714384426684 98.82574320788733 l 12.178841181903532 -0.6820712961256341 a33.197925798553946,33.197925798553946 0 0,0 0.027042701168827534,0.5708286804291244 l -12.188777491305856 0.47233150907351" fill="#ff7a0b" stroke="none" /><path d="M 120.98425023603335 99.18683210126433 l 15.028858649278591 -0.5823884709134776 a36.04013858417032,36.04013858417032 0 0,0 0.018686478131682952,0.6201132362571841 l -15.03665682186592 0.32360508723129444" fill="#ffa10e" stroke="none" /><line stroke="#e1ed5e" stroke-width="0.3" x1="184.98032266829074" x2="189.97916517819016" y1="98.17113171792111" y2="98.06355123074" /><path d="M 185.9800911702706 98.14961562048488 a86.0,86.0 0 0,1 -9.607161424134198,41.387399972396054" fill="none" id="id100" stroke="none" /><text fill="#e1ed5e" style="font-size:6.75px; font-family:Arial;" text-anchor="middle"><textPath startOffset="21.466115282336823" xlink:href="#id100">April</textPath></text><path d="M 120.99980553446 99.90962569577887 l 12.77625314721572 -0.05498360386423147 a33.77637145978597,33.77637145978597 0 0,0 -0.002502190125273433,0.5814208639706763 l -12.775306659800943 -0.16494673831012951" fill="#ff820c" stroke="none" /><path d="M 120.99824983174949 100.27111621757518 l 15.081518972209613 0.19472310367750292 a36.082775991050994,36.082775991050994 0 0,0 -0.013364265229014887,0.6209848913204649 l -15.075932644295591 -0.45429781078808257" fill="#ffa20f" stroke="none" /><path d="M 120.9764740272857 100.99374915477107 l 8.976634463760087 0.42526322104691117 a29.986702126093896,29.986702126093896 0 0,0 -0.028863841657954338,0.5153832824348563 l -8.967984271214604 -0.5797182198171907" fill="#ff4c07" stroke="none" /><path d="M 120.95626037817324 101.35467743843564 l 3.9380437495198835 0.25456731891933654 a24.94626318090854,24.94626318090854 0 0,0 -0.031388862938320466,0.4282760962256695 l -3.933078327917225 -0.3223165516417763" fill="#ff0000" stroke="none" /><path d="M 120.92983693683757 101.71520430193887 l 8.971170241785444 0.7351891865461114 a30.001244283270566,30.001244283270566 0 0,0 -0.046609652711037515,0.5143336337465811 l -8.957185992797331 -0.8895042088412632" fill="#ff4c07" stroke="none" /><path d="M 120.81339534386255 102.79330883721812 l 62.44018603158764 8.379926511654341 a84.0,84.0 0 0,0 -0.20466379593359463,1.4314181120783627 l -62.28668818463745 -9.453490095713112" fill="#4dd2ff" stroke="none" /><path d="M 120.64145759157962 103.86396538481128 l 11.722774046268832 2.194437719709524 a32.92639879618144,32.92639879618144 0 0,0 -0.10908056052954071,0.5561994280967575 l -11.683263552763627 -2.3959008748742265" fill="#ff760a" stroke="none" /><path d="M 120.5718875245553 104.21870165774334 l 14.629440143129798 3.000076843216785 a35.93388696778649,35.93388696778649 0 0,0 -0.12947486189451296,0.604863450370188 l -14.575631242510843 -3.251454113003142" fill="#ffa00e" stroke="none" /><path d="M 120.32669344350535 105.2749913415812 l 11.486385430663208 2.9808381703209306 a32.86686337914928,32.86686337914928 0 0,0 -0.14682398467666619,0.5463866668448358 l -11.433373369644766 -3.1781157703413148" fill="#ff750a" stroke="none" /><path d="M 120.23288151984713 105.62410040840565 l 11.40486101796212 3.170190239388856 a32.83726999746767,32.83726999746767 0 0,0 -0.15606673001459284,0.543288761212277 l -11.348601651061426 -3.366036476105715" fill="#ff750a" stroke="none" /><path d="M 120.02730092923936 106.31721596034902 l 11.333407027152159 3.5748990845056707 a32.883855363790886,32.883855363790886 0 0,0 -0.17492292669506632,0.538357411763923 l -11.270191849440845 -3.769455396247389" fill="#ff750a" stroke="none" /><path d="M 119.79798401119884 107.00284435728193 l 14.041409077319612 4.966657325805195 a35.893920030287795,35.893920030287795 0 0,0 -0.21104896672186094,0.5807161144940969 l -13.953835849592524 -5.207621237305423" fill="#ff9f0e" stroke="none" /><path d="M 119.54520255179757 107.68017299344265 l 19.396095502564293 7.621582250797824 a41.83979454673849,41.83979454673849 0 0,0 -0.26916413634629416,0.6680433124213437 l -19.262028751960607 -7.954324931061982" fill="#ffef16" stroke="none" /><path d="M 118.97047184881838 109.00673069616215 l 13.455986586310061 6.388583710510813 a35.895555606863425,35.895555606863425 0 0,0 -0.2698093597404202,0.5558871959578364 l -13.344023969954927 -6.619259862433926" fill="#ff9f0e" stroke="none" /><path d="M 118.64920377521936 109.65438752849418 l 31.487982328126982 16.30081302935083 a56.457150710601255,56.457150710601255 0 0,0 -0.45420447644406087,0.8591836980060639 l -31.20272534345803 -16.840411742443028" fill="#62ff29" stroke="none" /><line stroke="#e1ed5e" stroke-width="0.3" x1="174.80103733775053" x2="179.2010983576182" y1="140.37084112569926" y2="142.7455964860345" /><path d="M 175.68104954172406 140.8457921977663 a86.0,86.0 0 0,1 -30.038265399797805,32.042727171017184" fill="none" id="id101" stroke="none" /><text fill="#e1ed5e" style="font-size:6.75px; font-family:Arial;" text-anchor="middle"><textPath startOffset="22.206326154141568" xlink:href="#id101">May</textPath></text><path d="M 118.30583269289576 110.29060199501025 l 12.959833608292332 7.285354991595153 a35.86720163676352,35.86720163676352 0 0,0 -0.30717355323676304,0.5355829818041522 l -12.832508058903189 -7.507357819257621" fill="#ff9f0e" stroke="none" /><path d="M 117.94076556474637 110.91462005526583 l 10.313401850693293 6.274362276868874 a33.072028815210764,33.072028815210764 0 0,0 -0.3000662346294142,0.48380231339172064 l -10.203870976395917 -6.450960921625867" fill="#ff780b" stroke="none" /><path d="M 117.75023020441432 111.22182372390056 l 12.640574580241395 7.991462537370935 a35.95485202885164,35.95485202885164 0 0,0 -0.33522786501175933,0.520281090932778 l -12.501141851852585 -8.207865228225165" fill="#ffa00e" stroke="none" /><path d="M 117.35343817320211 111.8261652097733 l 12.29963752180884 8.382059157467681 a35.884219794372015,35.884219794372015 0 0,0 -0.35224478645744584,0.5074348865495373 l -12.153531828189259 -8.592535306204237" fill="#ff9f0e" stroke="none" /><path d="M 117.14729908036423 112.12312394758627 l 14.621365961256016 10.33729166328627 a38.906533486546856,38.906533486546856 0 0,0 -0.3913260038559042,0.5435175930163372 l -14.441260165024508 -10.58744286175374" fill="#ffc812" stroke="none" /><path d="M 116.71984013943494 112.70617746262583 l 12.049114983226554 9.156678052403588 a36.133602506818534,36.133602506818534 0 0,0 -0.38059554970763676,0.4919710527935217 l -11.889712616300848 -9.362727099310362" fill="#ffa30f" stroke="none" /><path d="M 116.498646956653 112.99209946851258 l 9.834303143163751 7.7441650200271335 a33.517412279263326,33.517412279263326 0 0,0 -0.36084221669591093,0.4502061473553696 l -9.699543014412987 -7.912299000960753" fill="#ff7e0b" stroke="none" /><path d="M 115.80600337817218 113.82643327865902 l 9.129435748455421 7.9860500613419765 a33.129451457812756,33.129451457812756 0 0,0 -0.37916049875667873,0.4259908398059786 l -8.990616400050405 -8.14201507088882" fill="#ff790b" stroke="none" /><path d="M 115.32070863581623 114.36230785411682 l 13.014313075126088 12.20019095316869 a38.83863795560572,38.83863795560572 0 0,0 -0.4614278915851388,0.48380529956261814 l -12.802378632161984 -12.422403369313814" fill="#ffc712" stroke="none" /><path d="M 115.07121518719521 114.62390073753431 l 8.770351223596577 8.510046743686495 a33.22047282902634,33.22047282902634 0 0,0 -0.4017452626199568,0.4069658299868604 l -8.622565335921085 -8.65975306765402" fill="#ff7a0b" stroke="none" /><path d="M 114.81725581225074 114.88116024355365 l 10.993064968345232 11.04047628215256 a36.5801025007871,36.5801025007871 0 0,0 -0.4500224391988893,0.44044167392408495 l -10.80139257677055 -11.228068058999218" fill="#ffa90f" stroke="none" /><path d="M 114.0293411484842 115.62618273729858 l 10.187207243006757 11.346731131358547 a36.248852375812106,36.248852375812106 0 0,0 -0.4678823159440037,0.41285174407651637 l -9.990382574156165 -11.520406017207353" fill="#ffa40f" stroke="none" /><path d="M 113.20401910651253 116.32954008644616 l 15.047143702248489 18.60895037263247 a44.931351143786564,44.931351143786564 0 0,0 -0.6055943944444983,0.4811208128649805 l -14.724591815086638 -18.865205099502578" fill="#e8ff1a" stroke="none" /><path d="M 112.63410532772338 116.77436683061366 l 9.937449223693124 13.194002607611885 a37.517705708818895,37.517705708818895 0 0,0 -0.5192004359236192,0.3840920701669159 l -9.70886381735094 -13.363104626518572" fill="#ffb610" stroke="none" /><path d="M 112.34349029814194 116.9893568818739 l 6.9749526658325545 9.60019874539414 a32.866498246815354,32.866498246815354 0 0,0 -0.46055772682572876,0.3285957095240853 l -6.808667611157941 -9.718838716762445" fill="#ff750a" stroke="none" /><path d="M 112.04921762599082 117.19931262002967 l 10.30453932339031 14.70892125361584 a38.959284370830844,38.959284370830844 0 0,0 -0.5525597442795843,0.38005563062424913 l -10.049822694487842 -14.884117673605182" fill="#ffc912" stroke="none" /><path d="M 111.45004920935366 117.60387380957326 l 14.86773812605671 22.858398336932357 a48.26822347559283,48.26822347559283 0 0,0 -0.7003907655180331,0.4470225243957481 l -14.472065558491746 -23.110935290151915" fill="#bfff1e" stroke="none" /><line stroke="#e1ed5e" stroke-width="0.3" x1="143.8653032363475" x2="146.44561519142675" y1="172.8068346515853" y2="177.08958963109032" /><path d="M 144.38136562736335 173.6633856474863 a86.0,86.0 0 0,1 -40.68145358897372,12.25698825130547" fill="none" id="id102" stroke="none" /><text fill="#e1ed5e" style="font-size:6.75px; font-family:Arial;" text-anchor="middle"><textPath startOffset="21.466115282336833" xlink:href="#id102">June</textPath></text><path d="M 110.8373102113329 117.98757091392108 l 6.169754932559404 10.240447325653976 a32.95544383773914,32.95544383773914 0 0,0 -0.48841871175353035,0.2885663839798394 l -5.992568349777492 -10.345132281927565" fill="#ff760a" stroke="none" /><path d="M 110.5260780823613 118.17145234162733 l 9.277986602705598 16.016838375903554 a39.5100012684981,39.5100012684981 0 0,0 -0.5914294103665413,0.3358290545655774 l -9.000908425417858 -16.174170596263757" fill="#ffd013" stroke="none" /><path d="M 110.21172684928248 118.3499491758327 l 5.810196670939325 10.440625291580357 a32.94843260993599,32.94843260993599 0 0,0 -0.4979562330988955,0.2715254415720308 l -5.629617625971781 -10.539091384912158" fill="#ff760a" stroke="none" /><path d="M 109.89434966115114 118.52300852407294 l 8.747372352583303 16.375775892206498 a39.56562843392354,39.56562843392354 0 0,0 -0.6034871778400988,0.31571596888047637 l -8.464194272216709 -16.523921280031693" fill="#ffd113" stroke="none" /><path d="M 109.57404056367764 118.69057910512821 l 14.469360057121891 28.24729192961931 a52.73754687778768,52.73754687778768 0 0,0 -0.8115205805692535,0.40691326598832533 l -13.980985568869878 -28.492173036516935" fill="#8bff24" stroke="none" /><path d="M 108.92500713936063 119.00905698771935 l 5.10501999898428 10.873001507883503 a33.011802153734735,33.011802153734735 0 0,0 -0.5164492154712329,0.23707650458841184 l -4.917102787745628 -10.95926508280599" fill="#ff770b" stroke="none" /><path d="M 108.2653958097858 119.30500536409082 l 5.853191981949045 13.670960860071382 a35.87128196273463,35.87128196273463 0 0,0 -0.5697188723326633,0.2381425348406219 l -5.6170016501189215 -13.769688437931977" fill="#ff9f0e" stroke="none" /><path d="M 107.93186726928326 119.44442032107085 l 4.491165595210558 11.009779740388613 a32.89057687143372,32.89057687143372 0 0,0 -0.5260595984733066,0.20932997086532776 l -4.300984920695385 -11.08545655566001" fill="#ff750a" stroke="none" /><path d="M 107.59598834532513 119.57807347666477 l 8.862641958932304 22.842775367886908 a45.50181236153702,45.50181236153702 0 0,0 -0.7326437032768529,0.27702315874963057 l -8.468128034895177 -22.99194677674317" fill="#e1ff1b" stroke="none" /><path d="M 106.2309692047433 120.05430185196036 l 4.3945098344200435 14.143678746442864 a35.810650396501636,35.810650396501636 0 0,0 -0.5902362992285975,0.17783335517538454 l -4.1503985607512 -14.217227470723975" fill="#ff9e0e" stroke="none" /><path d="M 105.53697534728816 120.25689768951611 l 4.884914548330654 17.871348167736947 a39.5269391826326,39.5269391826326 0 0,0 -0.6578591909875615,0.17374659152895777 l -4.576564914531595 -17.952786108569487" fill="#ffd113" stroke="none" /><path d="M 105.18746579009965 120.34920634021253 l 4.5237749532759155 17.745703525714905 a39.31323383377324,39.31323383377324 0 0,0 -0.6571800763556264,0.1615188736563933 l -4.2176415921770785 -17.820943657685326" fill="#ffce13" stroke="none" /><path d="M 104.83641907484287 120.43548508189849 l 3.442447333918223 14.54548914163165 a35.94729734822068,35.94729734822068 0 0,0 -0.6033665713824377,0.1373242672537384 l -3.191560613142923 -14.602590142463074" fill="#ffa00e" stroke="none" /><path d="M 104.13013068566511 120.58985236759428 l 3.213969136473382 16.02253174788698 a37.34169884749593,37.34169884749593 0 0,0 -0.631310115131977,0.12099208609578102 l -2.9376914067697006 -16.07548103233123" fill="#ffb310" stroke="none" /><path d="M 103.7750983002368 120.6578951692458 l 3.334261084423144 18.2455688490518 a39.54772437806288,39.54772437806288 0 0,0 -0.6707125101517609,0.11661196713091002 l -3.0196996027993337 -18.30025939470372" fill="#ffd113" stroke="none" /><path d="M 103.41894727170886 120.7198165907248 l 2.01844245176834 12.232349339119674 a33.39776109970514,33.39776109970514 0 0,0 -0.5680229762183452,0.08871350690278758 l -1.8075836119414777 -12.265281153369566" fill="#ff7d0b" stroke="none" /><path d="M 101.98527174616119 120.90594882070398 l 2.002340509595014 21.085691818341566 a42.18055162110849,42.18055162110849 0 0,0 -0.7234078736732594,0.06241867528211346 l -1.639088318180213 -21.11703474590234" fill="#fff316" stroke="none" /><line stroke="#e1ed5e" stroke-width="0.3" x1="102.19456741930631" x2="102.32365962044197" y1="184.97166512339345" y2="189.96999836594603" /><path d="M 102.22038585953345 185.97133177190398 a86.0,86.0 0 0,1 -42.740103519485714,-10.115201625700543" fill="none" id="id103" stroke="none" /><text fill="#e1ed5e" style="font-size:6.75px; font-family:Arial;" text-anchor="middle"><textPath startOffset="22.20632615414155" xlink:href="#id103">July</textPath></text><path d="M 100.18074693466247 120.99922214144158 l 0.17393164981359865 20.207420716063275 a41.20816924451075,41.20816924451075 0 0,0 -0.7093571689520943,0.0 l 0.17393164981358472 -20.207420716063275" fill="#ffe715" stroke="none" /><path d="M 99.81925306533755 120.99922214144158 l -0.2741002837976764 31.845036593560692 a52.846216205552544,52.846216205552544 0 0,0 -0.909559655873049,-0.01565889433569008 l 0.8222196295633932 -31.835600221945842" fill="#8aff24" stroke="none" /><path d="M 99.45781275523022 120.99299961872073 l -0.24720570024850735 9.571581074848183 a30.57477283963579,30.57477283963579 0 0,0 -0.5260020561491092,-0.01811657435809434 l 0.41192810807225966 -9.565907702063994" fill="#ff5407" stroke="none" /><path d="M 99.09653310690486 120.98055641714683 l -0.5162982847161777 11.98962061958284 a33.000731916026076,33.000731916026076 0 0,0 -0.5673170463225332,-0.029323811168657996 l 0.7226033994521999 -11.978957001651981" fill="#ff770b" stroke="none" /><path d="M 98.01472825383883 120.90594882070398 l -1.4476516815245999 15.244528625705975 a36.313110344113305,36.313110344113305 0 0,0 -0.6217624188384472,-0.06444821694575002 l 1.7098466969686403 -15.217351040304465" fill="#ffa50f" stroke="none" /><path d="M 96.93821686468263 120.77559828337769 l -2.1844345793973114 14.822387246957511 a35.98248704756441,35.98248704756441 0 0,0 -0.6119835195981458,-0.0955792396844755 l 2.4392539626039746 -14.78258969992593" fill="#ffa10e" stroke="none" /><path d="M 96.22490169976321 120.6578951692458 l -2.3957770066400057 13.110045438804692 a34.32715419258998,34.32715419258998 0 0,0 -0.5803453065695457,-0.11122455923752146 l 2.6210899277812465 -13.066863681218702" fill="#ff8a0c" stroke="none" /><path d="M 95.86986931433489 120.58985236759428 l -3.669732309376379 18.294638167480326 a39.65906538124321,39.65906538124321 0 0,0 -0.6681769506482885,-0.14002297657115523 l 3.9841007214540545 -18.22875921018263" fill="#ffd213" stroke="none" /><path d="M 95.16358092515715 120.4354850818985 l -4.768430692025828 20.148211468652978 a41.70479066907495,41.70479066907495 0 0,0 -0.6971585607071793,-0.17134461243831295 l 5.1145425374762175 -20.063145597900633" fill="#ffed16" stroke="none" /><path d="M 94.81253420990036 120.34920634021253 l -5.9019445981150715 23.15193840213054 a44.89236701993477,44.89236701993477 0 0,0 -0.7471576818229287,-0.1973311345799319 l 6.299592722749489 -23.046915918247027" fill="#e8ff1a" stroke="none" /><path d="M 93.76903079525671 120.05430185196036 l -5.819072764704698 18.728617954502845 a40.61180099650856,40.61180099650856 0 0,0 -0.6657988676434464,-0.2131677721841729 l 6.140592977439085 -18.625677335658963" fill="#ffdf14" stroke="none" /><path d="M 93.42475214034765 119.94407469862007 l -4.706499177853684 14.275776849128661 a36.031598024071,36.031598024071 0 0,0 -0.5873669797275597,-0.1992667700858618 l 4.951535890518469 -14.192647092144675" fill="#ffa10e" stroke="none" /><path d="M 93.08242187328487 119.8279376855182 l -7.884842867849138 22.600420288719572 a44.936368652689126,44.936368652689126 0 0,0 -0.7281412985162683,-0.26108556362140756 l 8.272703726995132 -22.461347184058205" fill="#e8ff1a" stroke="none" /><path d="M 92.06813273071674 119.44442032107085 l -8.599959499879526 21.08220190564967 a43.76880630578043,43.76880630578043 0 0,0 -0.6951498136526294,-0.2905726784851193 l 8.961580773029617 -20.93104418414458" fill="#f7ff19" stroke="none" /><path d="M 91.40352486487194 119.15986991738527 l -6.120465975433803 13.641327413825811 a35.951452015360864,35.951452015360864 0 0,0 -0.5624382183656168,-0.2581878001990723 l 6.35437218956684 -13.533952543292665" fill="#ffa00e" stroke="none" /><path d="M 91.07499286063937 119.00905698771935 l -9.67958902169322 20.61621424588018 a43.77548536169793,43.77548536169793 0 0,0 -0.6793274348341999,-0.32611845138064993 l 10.033029124527662 -20.446541517999968" fill="#f6ff19" stroke="none" /><path d="M 90.42595943632237 118.69057910512821 l -10.20205247464365 19.91659295192607 a43.3775009665533,43.3775009665533 0 0,0 -0.661628961202512,-0.34613300198530694 l 10.543372338372658 -19.738030530996046" fill="#fbff18" stroke="none" /><line stroke="#e1ed5e" stroke-width="0.3" x1="58.666819895761336" x2="56.23545636021788" y1="174.27360380694188" y2="178.64263932499728" /><path d="M 58.180547188652646 175.14741091055294 a86.0,86.0 0 0,1 -31.652253787137756,-30.449443065178592" fill="none" id="id104" stroke="none" /><text fill="#e1ed5e" style="font-size:6.75px; font-family:Arial;" text-anchor="middle"><textPath startOffset="22.20632615414155" xlink:href="#id104">August</textPath></text><path d="M 89.7882731507175 118.34994917583269 l -10.162223348536218 18.260993925058063 a41.89819806865037,41.89819806865037 0 0,0 -0.6271785822218923,-0.35612836734111947 l 10.475050697679318 -18.08336239192231" fill="#fff016" stroke="none" /><path d="M 89.4739219176387 118.17145234162733 l -7.5726936567672185 13.072945194305467 a36.107865013712455,36.107865013712455 0 0,0 -0.5351394143255964,-0.31616979857838184 l 7.796600942121197 -12.940656823433335" fill="#ffa20f" stroke="none" /><path d="M 89.1626897886671 117.98757091392108 l -6.4636222553753955 10.728202977689216 a33.52488530050012,33.52488530050012 0 0,0 -0.4917315234494109,-0.3020616641481141 l 6.647332978757115 -10.615352846712724" fill="#ff7e0b" stroke="none" /><path d="M 88.54995079064634 117.60387380957326 l -8.173140263712538 12.565791395272043 a35.98997448829757,35.98997448829757 0 0,0 -0.5164138050013026,-0.3422509107707614 l 8.388228767453803 -12.423242463409963" fill="#ffa10e" stroke="none" /><path d="M 87.65650970185807 116.9893568818739 l -8.892453871527566 12.239412737394437 a36.128746148096305,36.128746148096305 0 0,0 -0.49997888716996136,-0.3698724279212943 l 9.10181772911609 -12.084530360733376" fill="#ffa30f" stroke="none" /><path d="M 87.07902340077011 116.55440617244103 l -9.241472914783857 11.840211541909524 a36.01983458603493,36.01983458603493 0 0,0 -0.485483061577969,-0.3856971057878238 l 9.443913469079185 -11.679380522116569" fill="#ffa10e" stroke="none" /><path d="M 86.79598089348748 116.32954008644616 l -14.194122309751625 17.554010440252092 a43.57468473048225,43.57468473048225 0 0,0 -0.5791902927392962,-0.47663417985005935 l 14.49418273103561 -17.307081141544852" fill="#f9ff18" stroke="none" /><path d="M 85.97065885151581 115.62618273729859 l -13.985518563581532 15.577372197126945 a41.93440359934114,41.93440359934114 0 0,0 -0.5329672006429954,-0.48685290125701397 l 14.251585313691383 -15.334326529283354" fill="#fff016" stroke="none" /><path d="M 85.18274418774928 114.88116024355367 l -25.412508084510254 25.52210812770983 a57.01629590099198,57.01629590099198 0 0,0 -0.6895153746983183,-0.6984754342162596 l 25.848064084264106 -25.08089219951291" fill="#5cff2a" stroke="none" /><path d="M 84.9287848128048 114.62390073753433 l -8.587684734804887 8.332801805771133 a32.965948146246646,32.965948146246646 0 0,0 -0.3916565757175971,-0.410650353817545 l 8.72984786190144 -8.183744335371088" fill="#ff760a" stroke="none" /><path d="M 84.43433777217949 114.09645910891817 l -20.93628837820425 18.960165568053604 a49.24563770608367,49.24563770608367 0 0,0 -0.5636072960038722,-0.6332187718202785 l 21.25955452385646 -18.59697262649246" fill="#b3ff20" stroke="none" /><path d="M 83.50135304334701 112.99209946851258 l -11.75479931709908 9.256487659951516 a35.96188058982251,35.96188058982251 0 0,0 -0.37878680126126707,-0.48963300160484463 l 11.912392935578415 -9.052776664233418" fill="#ffa00e" stroke="none" /><path d="M 83.28015986056508 112.70617746262583 l -18.98136308147732 14.424813023597267 a44.84045669018552,44.84045669018552 0 0,0 -0.46172588359521977,-0.6185572752413061 l 19.226850231767624 -14.095942868846652" fill="#e9ff1a" stroke="none" /><path d="M 83.06392112726016 112.41649034213515 l -12.058060142820368 8.840227329668371 a35.951469280578706,35.951469280578706 0 0,0 -0.3616036574212288,-0.5022358534084542 l 12.208443592617204 -8.63135787080878" fill="#ffa00e" stroke="none" /><path d="M 82.85270091963577 112.12312394758628 l -29.302200932158772 20.716627859160983 a56.88589763853722,56.88589763853722 0 0,0 -0.5584003492607512,-0.8044173505761341 l 29.654462188581658 -20.20916924639784" fill="#5dff2a" stroke="none" /><path d="M 82.05923443525364 110.91462005526583 l -13.43371240048999 8.172664998821313 a36.724410387739105,36.724410387739105 0 0,0 -0.3239077682150378,-0.5428880506684227 l 13.572401044403259 -7.940214854266779" fill="#ffab0f" stroke="none" /><line stroke="#e1ed5e" stroke-width="0.3" x1="26.63291911575756" x2="22.317208475507996" y1="142.92168965132927" y2="145.44649492493687" /><path d="M 25.769776987707644 143.4266507060508 a86.0,86.0 0 0,1 -11.730757126820373,-40.83630448921669" fill="none" id="id105" stroke="none" /><text fill="#e1ed5e" style="font-size:6.75px; font-family:Arial;" text-anchor="middle"><textPath startOffset="21.46611528233685" xlink:href="#id105">September</textPath></text><path d="M 81.69416730710424 110.29060199501025 l -10.7142604331297 6.023008711917965 a33.2911354468482,33.2911354468482 0 0,0 -0.2765123513369121,-0.5019502361182582 l 10.816349193918128 -5.837687957401885" fill="#ff7b0b" stroke="none" /><path d="M 81.18737489456691 109.33194174019688 l -13.41366674765728 6.6538059367059414 a35.973295864990774,35.973295864990774 0 0,0 -0.2703936952916186,-0.5570911002677787 l 13.526213699563616 -6.421925880472878" fill="#ffa10e" stroke="none" /><path d="M 81.02952815118164 109.00673069616217 l -14.15369124418712 6.719837356125762 a36.667903175873995,36.667903175873995 0 0,0 -0.2657993147917883,-0.5725080774443831 l 14.267265175818736 -6.475209211402552" fill="#ffaa0f" stroke="none" /><path d="M 80.20201598880116 107.00284435728193 l -14.11878890048724 4.994027731687454 a35.97599789668071,35.97599789668071 0 0,0 -0.20148129612460852,-0.5855989578422623 l 14.202661027555077 -4.750256070755895" fill="#ffa10e" stroke="none" /><path d="M 80.0844068197444 106.66101706037122 l -19.816287057039162 6.627802896225722 a41.89528664455685,41.89528664455685 0 0,0 -0.22285848400440186,-0.685887887340185 l 19.927437792059813 -6.285716108907733" fill="#fff016" stroke="none" /><path d="M 79.97269907076064 106.31721596034903 l -14.182174335731878 4.473486386542279 a35.87098346914793,35.87098346914793 0 0,0 -0.18067569975766767,-0.5904586406340863 l 14.257076807995675 -4.228700773356145" fill="#ff9f0e" stroke="none" /><path d="M 79.86692584326677 105.97154293290107 l -20.150440356402953 5.976693810809825 a42.01811398449264,42.01811398449264 0 0,0 -0.19970081713387267,-0.6951847427289412 l 20.25033381042293 -5.628951592576287" fill="#fff116" stroke="none" /><path d="M 79.50377843672027 104.57218783832718 l -17.402383636952983 3.882030967372519 a38.830118358533916,38.830118358533916 0 0,0 -0.13991039200200997,-0.6536147728655454 l 17.466628067679434 -3.58190237509081" fill="#ffc712" stroke="none" /><path d="M 79.4281124754447 104.21870165774334 l -14.560447056219106 2.98592834810298 a35.863458096182214,35.863458096182214 0 0,0 -0.11881062778456068,-0.6058128314044885 l 14.609687616979333 -2.734851789630537" fill="#ff9f0e" stroke="none" /><path d="M 79.29508885075956 103.50808413554451 l -19.08513441022616 3.233641369753242 a40.3571380106817,40.3571380106817 0 0,0 -0.11015239760816874,-0.6859190850547523 l 19.13796856219562 -2.904643055005276" fill="#ffdb14" stroke="none" /><path d="M 79.23777060512086 103.15116336523772 l -14.792586880821606 2.2451277735828397 a35.961992693032855,35.961992693032855 0 0,0 -0.08762045159395991,-0.6128172343718836 l 14.829041383432164 -1.9901650672305555" fill="#ffa00e" stroke="none" /><path d="M 79.1416061653843 102.43462659150553 l -32.73171490369564 3.8205004719906115 a53.95392820883865,53.95392820883865 0 0,0 -0.0997317770497424,-0.9233923927152867 l 32.792628982246434 -3.256511757390543" fill="#7dff26" stroke="none" /><path d="M 79.07016306316243 101.71520430193888 l -14.852816598346234 1.2171912758935213 a35.90260767470649,35.90260767470649 0 0,0 -0.04517478322333288,-0.6163740255499648 l 14.871567940233902 -0.9613441138467957" fill="#ffa00e" stroke="none" /><path d="M 79.0235259727143 100.99374915477108 l -21.564308520699285 1.0215974971671922 a42.588493773816694,42.588493773816694 0 0,0 -0.028388003710159298,-0.7325682365002535 l 21.578698657260645 -0.6502520136529419" fill="#fff817" stroke="none" /><line stroke="#e1ed5e" stroke-width="0.3" x1="15.007084014347285" x2="10.007500721073583" y1="101.09737516637583" y2="101.16192664675087" /><path d="M 14.007167355692545 101.11028546245083 a86.0,86.0 0 0,1 10.666146001902534,-42.60595125391555" fill="none" id="id106" stroke="none" /><text fill="#e1ed5e" style="font-size:6.75px; font-family:Arial;" text-anchor="middle"><textPath startOffset="22.20632615414155" xlink:href="#id106">October</textPath></text><path d="M 79.01574976396665 99.18683210126434 l -14.924497956597778 -0.5783443538150097 a35.93569956339779,35.93569956339779 0 0,0 0.029272864530227073,-0.617903904194063 l 14.912331483834052 0.8351593646320818" fill="#ffa00e" stroke="none" /><path d="M 79.03285615573316 98.82574320788736 l -31.7605436874898 -1.778736981213731 a52.81031343091868,52.81031343091868 0 0,0 0.058643109432415456,-0.9071829468648259 l 31.725219987052974 2.3251789923315687" fill="#8aff24" stroke="none" /><path d="M 79.08570108090925 98.10471618934814 l -14.958512710866207 -1.3555619091996431 a36.01980860766271,36.01980860766271 0 0,0 0.06127290932579584,-0.6170098350247363 l 14.932962675858183 1.6128472749288099" fill="#ffa10e" stroke="none" /><path d="M 79.21141760316559 97.0276538004421 l -17.843798450087572 -2.55130174325265 a39.02526792345877,39.02526792345877 0 0,0 0.10080432341904183,-0.664174542618123 l 17.797238233229226 2.8580753982628653" fill="#ffca12" stroke="none" /><path d="M 79.32604984820605 96.31383870115002 l -14.926838803953995 -2.661452461155949 a36.162250686564306,36.162250686564306 0 0,0 0.11453837743842545,-0.6118685922490681 l 14.878814702605707 2.9179991308675897" fill="#ffa30f" stroke="none" /><path d="M 79.46518482838121 95.60439243477599 l -14.620815143019577 -3.129678310483292 a35.95202734659953,35.95202734659953 0 0,0 0.1347441119444583,-0.6040314331817699 l 14.564776644073081 3.3808879132150214" fill="#ffa00e" stroke="none" /><path d="M 79.62865764111835 94.90015583598534 l -20.27281567839352 -5.0751785966880085 a41.898432795748064,41.898432795748064 0 0,0 0.1811681612733018,-0.6981148285301408 l 20.182451185249914 5.423389850767013" fill="#fff016" stroke="none" /><path d="M 79.91906864156998 93.8553929516997 l -14.276876622325215 -4.368611951079942 a35.93030396436103,35.93030396436103 0 0,0 0.18605826298408704,-0.5898555386648479 l 14.199562875572923 4.613717656171205" fill="#ffa00e" stroke="none" /><path d="M 80.14247586403 93.16781622104843 l -7.130674389519457 -2.4533812757055697 a28.54092812148023,28.54092812148023 0 0,0 0.16383433123205293,-0.46318171656133084 l 7.087386977477594 2.575760618693512" fill="#ff3605" stroke="none" /><path d="M 81.6062741919709 89.86733742301443 l -8.896256960749545 -4.900734681066398 a31.156800102684493,31.156800102684493 0 0,0 0.2628185266652271,-0.46752483285816576 l 8.810580792791887 5.053143023859348" fill="#ff5d08" stroke="none" /><line stroke="#e1ed5e" stroke-width="0.3" x1="26.266209847984243" x2="21.928928074336255" y1="57.711370442889674" y2="55.22380399835377" /><path d="M 25.398753493254645 57.213857153982495 a86.0,86.0 0 0,1 29.58750427330803,-30.492523968695096" fill="none" id="id107" stroke="none" /><text fill="#e1ed5e" style="font-size:6.75px; font-family:Arial;" text-anchor="middle"><textPath startOffset="21.46611528233685" xlink:href="#id107">November</textPath></text><path d="M 82.95767976084542 87.72973835380427 l -12.044171230348349 -8.671655633393296 a35.84114793572628,35.84114793572628 0 0,0 0.36479015829973893,-0.49757336596142276 l 11.893118459534975 8.877691443026219" fill="#ff9f0e" stroke="none" /><path d="M 83.39014120810768 87.1503855733568 l -9.454502339009716 -7.314132598849775 a32.95341583614898,32.95341583614898 0 0,0 0.35094747534498727,-0.44566765441401895 l 9.327200783070758 7.475792647216842" fill="#ff760a" stroke="none" /><path d="M 83.6137871275137 86.86637796730984 l -11.603250302863486 -9.300056395848832 a35.87032166958302,35.87032166958302 0 0,0 0.39030583767640825,-0.4784688067095453 l 11.441445973110685 9.49840937216646" fill="#ff9f0e" stroke="none" /><path d="M 84.07557802195018 86.31012108654704 l -11.331491583567676 -9.741436637491722 a35.94316864894227,35.94316864894227 0 0,0 0.40736983748771566,-0.46569414524529856 l 11.162129882502118 9.935046338939964" fill="#ffa00e" stroke="none" /><path d="M 84.5562425177563 85.77008943001954 l -16.93753455772032 -15.606279903671336 a44.031197305518134,44.031197305518134 0 0,0 0.5183786107947854,-0.5529701590924726 l 16.666388624955076 15.895519479641859" fill="#f3ff19" stroke="none" /><path d="M 85.83668400450813 84.49514656593479 l -8.078177636402744 -8.843335861929141 a32.9775432828339,32.9775432828339 0 0,0 0.4224093713885999,-0.37924330434087616 l 7.924757277418172 8.981078175039297" fill="#ff770a" stroke="none" /><path d="M 86.65592168130627 83.78471172551755 l -9.466118324449306 -11.50291790900791 a35.89713115179731,35.89713115179731 0 0,0 0.4805029318121249,-0.3885332874530111 l 9.266711994072681 11.664157293725056" fill="#ff9f0e" stroke="none" /><path d="M 86.93701828274178 83.55741782278169 l -12.933851184044336 -16.28004352793334 a41.792410243221184,41.792410243221184 0 0,0 0.5671179219399899,-0.4426445335495801 l 12.65170070694492 16.500266450706143" fill="#ffee16" stroke="none" /><path d="M 87.80319425747018 82.90503203632743 l -10.350108727859938 -14.506648778239391 a38.82042674723916,38.82042674723916 0 0,0 0.5473104527586234,-0.38342594846426 l 10.098867135517654 14.682659569467594" fill="#ffc712" stroke="none" /><path d="M 88.70189139769569 82.29822771554957 l -8.013901377473324 -12.556106715520787 a35.89558428325036,35.89558428325036 0 0,0 0.5237009304188507,-0.32794147458387 l 7.79658129468223 12.692192531427589" fill="#ff9f0e" stroke="none" /><path d="M 89.00827224532344 82.1063720568725 l -11.89120742350265 -19.357906798608962 a43.71848079455128,43.71848079455128 0 0,0 0.6446142886346784,-0.38837289626389426 l 11.556231068650321 19.559726304331473" fill="#f7ff18" stroke="none" /><line stroke="#e1ed5e" stroke-width="0.3" x1="56.762969772571076" x2="54.21961505331055" y1="26.818313649435495" y2="22.513508569990535" /><path d="M 56.25429882871897 25.957352633546506 a86.0,86.0 0 0,1 42.265352541879196,-11.944610805530505" fill="none" id="id108" stroke="none" /><text fill="#e1ed5e" style="font-size:6.75px; font-family:Arial;" text-anchor="middle"><textPath startOffset="22.20632615414155" xlink:href="#id108">December</textPath></text><path d="M 89.63071344664047 81.73862282372117 l -7.517351330581828 -13.238826731997305 a36.224227542547005,36.224227542547005 0 0,0 0.544874327269692,-0.3032219732026684 l 7.2883529142400905 13.366264102760159" fill="#ffa40f" stroke="none" /><path d="M 89.94658935756843 81.56283822128135 l -10.744652635932235 -19.704845047183372 a43.44389624375306,43.44389624375306 0 0,0 0.6596334054967149,-0.35235332066485164 l 10.403874183907215 19.886877094349973" fill="#fbff18" stroke="none" /><path d="M 90.91171255644093 81.06846463323043 l -5.123883092101241 -10.673405146538792 a32.83958425636989,32.83958425636989 0 0,0 0.5117060714545987,-0.24025286177725338 l 4.939398809347034 10.760022990956053" fill="#ff750a" stroke="none" /><path d="M 92.91201910852362 80.23233633223022 l -5.079126338321957 -14.165170973132563 a36.04824219165525,36.04824219165525 0 0,0 0.585900656280814,-0.20440923451542176 l 4.834543677977857 14.250501060820195" fill="#ffa20e" stroke="none" /><path d="M 94.28887869178378 79.79150937346287 l -4.010906630303469 -14.192373908394393 a35.74824901989,35.74824901989 0 0,0 0.5935947566567445,-0.16225187016612813 l 3.7660139844230023 14.259312319386817" fill="#ff9d0e" stroke="none" /><path d="M 94.63758080256005 79.69619591428918 l -5.356712292732648 -20.28219595123894 a41.97765094550785,41.97765094550785 0 0,0 0.7002094285759586,-0.1784989741572923 l 5.006793975471689 20.371397921565094" fill="#fff116" stroke="none" /><path d="M 95.692805502759 79.44645832069477 l -3.06470230190924 -14.624481559238408 a35.942150483642976,35.942150483642976 0 0,0 0.6066240689233371,-0.12168308140307549 l 2.8125118235187663 14.675068596718694" fill="#ffa00e" stroke="none" /><path d="M 96.40284397218896 79.31037775812273 l -3.3491659129336413 -19.263267155563366 a40.55224728308649,40.55224728308649 0 0,0 0.6887524872052702,-0.11365006184790465 l 3.017084219589486 19.318063480350897" fill="#ffde14" stroke="none" /><path d="M 97.11714578562143 79.19881850522333 l -2.898988679316593 -20.91759942941348 a42.11753066180336,42.11753066180336 0 0,0 0.7189768768512,-0.09334383338981979 l 2.538497073957535 20.964401585967437" fill="#fff216" stroke="none" /><path d="M 98.91598698831166 79.02799685794201 l -1.0985612927808528 -21.253463413746584 a42.2818360108676,42.2818360108676 0 0,0 0.7271653666064782,-0.03131327031906006 l 0.7325550937850503 21.269224410589835" fill="#fff517" stroke="none" /><path d="M 99.27714615592234 79.0124445844662 l -0.46766639214945505 -13.578366362211568 a34.58641766326888,34.58641766326888 0 0,0 0.5951719108347974,-0.015371534528688209 l 0.23386784611977862 13.584404688882616" fill="#ff8d0d" stroke="none" /></svg>