<?xml version="1.0" encoding="utf-8" ?>
<svg baseProfile="full" height="200mm" version="1.1" viewBox="0,0,200,200" width="200mm" xmlns="http://www.w3.org/2000/svg" xmlns:ev="http://www.w3.org/2001/xml-events" xmlns:xlink="http://www.w3.org/1999/xlink"><defs /><rect fill="#1a1a1a" height="200" width="200" x="0" y="0" /><text alignment-baseline="middle" fill="#e1ed5e" style="dominant-baseline: central; font-size:9.0px; font-family:Arial;" text-anchor="middle" x="100.0" y="100.0">2018</text><line stroke="#e1ed5e" stroke-width="0.3" x1="100.0" x2="100.0" y1="15.0" y2="10.0" /><path d="M 100.0 14.0 a86.0,86.0 0 0,1 42.46469731375804,11.215312516191453" fill="none" id="id61" stroke="none" /><text fill="#e1ed5e" style="font-size:6.75px; font-family:Arial;" text-anchor="middle"><textPath startOffset="22.20632615414155" xlink:href="#id61">January</textPath></text><path d="M 100.36148047927253 79.00311137660856 l 0.24671178855488038 -14.33045556647906 a35.33257909273284,35.33257909273284 0 0,0 0.6080120473325873,0.015703157372333028 l -0.49335047108233543 14.324085616964366" fill="#ff700a" stroke="none" /><path d="M 100.72285384407766 79.0124445844662 l 0.29610873923652853 -8.59730998827312 a29.60240776875364,29.60240776875364 0 0,0 0.5091038547159357,0.021923082912474193 l -0.4440534263417958 8.59093917883645" fill="#ff1702" stroke="none" /><path d="M 101.44485096284872 79.0497635885617 l 0.5919423808809705 -8.58312250901996 a29.603510201489165,29.603510201489165 0 0,0 0.508066452663272,0.03943573505656072 l -0.7395990229065836 8.571661511774934" fill="#ff1702" stroke="none" /><path d="M 101.80526077348638 79.07773832637324 l 1.2328443828119435 -14.288181053332476 a35.34126992581341,35.34126992581341 0 0,0 0.6056397630010226,0.0575127931360372 l -1.4786092729032103 14.26484271568126" fill="#ff700a" stroke="none" /><path d="M 103.2404852339499 79.25152402106235 l 2.212688446657149 -14.167604469648527 a35.3393516788722,35.3393516788722 0 0,0 0.6002149818019439,0.09904061483773705 l -2.4562326345979684 14.127417591871165" fill="#ff700a" stroke="none" /><path d="M 105.71112130821622 79.79150937346287 l 2.340507343773725 -8.281757323198146 a29.606130314293694,29.606130314293694 0 0,0 0.4892198492578523,0.14281668928993244 l -2.4827174107550047 8.240242304989511" fill="#ff1702" stroke="none" /><path d="M 108.43124777332544 80.76684994638697 l 5.753599433691334 -13.124966106045557 a35.33068880857504,35.33068880857504 0 0,0 0.5548901398073169,0.24896303107220108 l -5.978671691965431 13.023982744456823" fill="#ff700a" stroke="none" /><path d="M 109.73455568895987 81.39251694778311 l 6.645509985776289 -12.702810316644564 a35.33611498669371,35.33611498669371 0 0,0 0.5365283476167843,0.28659486214352975 l -6.8631833799213835 12.586536727999281" fill="#ff700a" stroke="none" /><path d="M 110.36928655335952 81.73862282372117 l 7.0762431634646195 -12.461990006171215 a35.330890140615516,35.330890140615516 0 0,0 0.5262675181377643,0.30484811472325807 l -7.289707414067712 12.338337734057907" fill="#ff700a" stroke="none" /><line stroke="#e1ed5e" stroke-width="0.3" x1="143.23703022742887" x2="145.7803849466894" y1="26.81831364943548" y2="22.513508569990506" /><path d="M 143.74570117128098 25.957352633546492 a86.0,86.0 0 0,1 28.547481713284135,27.462654790039103" fill="none" id="id62" stroke="none" /><text fill="#e1ed5e" style="font-size:6.75px; font-family:Arial;" text-anchor="middle"><textPath startOffset="19.985693538727396" xlink:href="#id62">February</textPath></text><path d="M 111.2981086023043 82.29822771554956 l 7.710709065197536 -12.08106779890009 a35.33203521659573,35.33203521659573 0 0,0 0.509846272227598,0.3316181977535458 l -7.917522363209414 11.946550676987016" fill="#ff700a" stroke="none" /><path d="M 114.42810811169701 84.74124197986012 l 5.908724520815241 -6.248899507323021 a29.600102936331936,29.600102936331936 0 0,0 0.3672058478910348,0.3532517347343635 l -6.015413612318694 6.146264685826356" fill="#ff1702" stroke="none" /><path d="M 114.94478906791727 85.2469230424477 l 10.188474173019992 -10.057776183491201 a35.31655921412328,35.31655921412328 0 0,0 0.4233542874876225,0.4363038071484807 l -10.360092724210723 9.880908180792606" fill="#ff700a" stroke="none" /><path d="M 115.9244219780498 86.31012108654704 l 10.864189398515695 -9.339707121772307 a35.3269236197903,35.3269236197903 0 0,0 0.39244744469754034,0.4645339902257723 l -11.023347456700353 9.151314181917428" fill="#ff700a" stroke="none" /><path d="M 116.38621287248628 86.86637796730983 l 6.713741518988378 -5.381093497425901 a29.604097419940555,29.604097419940555 0 0,0 0.3152778850318315,0.40037089701992146 l -6.805373484614174 5.264730206452942" fill="#ff1702" stroke="none" /><line stroke="#e1ed5e" stroke-width="0.3" x1="172.23445277983987" x2="176.4835382374775" y1="55.19839476539836" y2="52.563006222186495" /><path d="M 173.08426987136738 54.67131705675599 a86.0,86.0 0 0,1 12.851231095245387,41.99856678651699" fill="none" id="id63" stroke="none" /><text fill="#e1ed5e" style="font-size:6.75px; font-family:Arial;" text-anchor="middle"><textPath startOffset="22.20632615414155" xlink:href="#id63">March</textPath></text><line stroke="#e1ed5e" stroke-width="0.3" x1="184.98032266829074" x2="189.97916517819016" y1="98.17113171792111" y2="98.06355123074" /><path d="M 185.9800911702706 98.14961562048488 a86.0,86.0 0 0,1 -9.607161424134198,41.387399972396054" fill="none" id="id64" stroke="none" /><text fill="#e1ed5e" style="font-size:6.75px; font-family:Arial;" text-anchor="middle"><textPath startOffset="21.466115282336823" xlink:href="#id64">April</textPath></text><path d="M 120.89721153311464 102.0752229133903 l 7.1345894631717846 0.7085090519443257 a28.16968283013195,28.16968283013195 0 0,0 -0.05207058356719322,0.48210893430896484 l -7.12133657810354 -0.831214308138082" fill="#ff0000" stroke="none" /><path d="M 120.81339534386255 102.79330883721812 l 7.112557714014474 0.9545569086419647 a28.17632608839808,28.17632608839808 0 0,0 -0.06865087919898004,0.4801440892233226 l -7.095072783798893 -1.0768464698456965" fill="#ff0000" stroke="none" /><path d="M 120.70491114924044 103.5080841355445 l 7.069373193637184 1.1977813268593498 a28.170126739318416,28.170126739318416 0 0,0 -0.08511879816027157,0.4773914236186766 l -7.047707953137723 -1.3192915012112447" fill="#ff0000" stroke="none" /><path d="M 119.79798401119884 107.00284435728193 l 6.758515424580056 2.3905884345522996 a28.168852335464983,28.168852335464983 0 0,0 -0.16562713613124683,0.4557347446087246 l -6.716364027443582 -2.5065709761671555" fill="#ff0000" stroke="none" /><path d="M 119.67450827220406 107.3425965602758 l 6.7116693798633635 2.504818916969675 a28.163841404679797,28.163841404679797 0 0,0 -0.17341646677363542,0.4527356726508964 l -6.667558633496221 -2.6199781564537155" fill="#ff0000" stroke="none" /><path d="M 119.54520255179757 107.68017299344265 l 6.6683712838456906 2.6202974826541254 a28.164714542591447,28.164714542591447 0 0,0 -0.1811894907090907,0.44969745669798167 l -6.622279178879207 -2.7346943071949203" fill="#ff0000" stroke="none" /><path d="M 119.41010516605496 108.01547362559984 l 13.244413621607345 5.469328845069085 a35.32927249359586,35.32927249359586 0 0,0 -0.23695682694821552,0.560095942990465 l -13.14830581346682 -5.696499313725713" fill="#ff700a" stroke="none" /><line stroke="#e1ed5e" stroke-width="0.3" x1="174.80103733775053" x2="179.2010983576182" y1="140.37084112569926" y2="142.7455964860345" /><path d="M 175.68104954172406 140.8457921977663 a86.0,86.0 0 0,1 -30.038265399797805,32.042727171017184" fill="none" id="id65" stroke="none" /><text fill="#e1ed5e" style="font-size:6.75px; font-family:Arial;" text-anchor="middle"><textPath startOffset="22.206326154141568" xlink:href="#id65">May</textPath></text><path d="M 118.30583269289576 110.29060199501025 l 12.487585266883697 7.01988115023715 a35.32544998110515,35.32544998110515 0 0,0 -0.30253388876765347,0.5274933357237778 l -12.364899381963664 -7.233794331819242" fill="#ff700a" stroke="none" /><path d="M 118.12598468904814 110.60418214915192 l 6.185872758811452 3.6188997514461807 a28.166690812308204,28.166690812308204 0 0,0 -0.24842903841592928,0.41638135799668896 l -6.122662844697295 -3.7248432033289736" fill="#ff0000" stroke="none" /><path d="M 115.07121518719521 114.62390073753431 l 10.285247019770924 9.979980353936044 a35.331305387949,35.331305387949 0 0,0 -0.4272722015378817,0.43282448433914483 l -10.111934193177508 -10.155545332255853" fill="#ff700a" stroke="none" /><path d="M 114.81725581225074 114.88116024355365 l 5.053961533788049 5.075758453658764 a28.16281027704194,28.16281027704194 0 0,0 -0.3464696845859646,0.3390935085695803 l -4.96584189682629 -5.162002065150917" fill="#ff0000" stroke="none" /><path d="M 112.34349029814194 116.9893568818739 l 8.418907597964694 11.587632207955997 a35.32310110729959,35.32310110729959 0 0,0 -0.49498206435757497,0.3531565603302077 l -8.218198205758235 -11.730833030130423" fill="#ff700a" stroke="none" /><path d="M 111.45004920935366 117.60387380957326 l 3.9089822240804515 6.009863236252559 a28.169281564190168,28.169281564190168 0 0,0 -0.408747272184412,0.2608818483159274 l -3.804953149849109 -6.076259513392295" fill="#ff0000" stroke="none" /><path d="M 111.1453310114006 117.79835938074945 l 3.808950118516471 6.082642409037345 a28.176812640829233,28.176812640829233 0 0,0 -0.41328782728503133,0.25387513903146836 l -3.703683091299131 -6.147306014897191" fill="#ff0000" stroke="none" /><line stroke="#e1ed5e" stroke-width="0.3" x1="143.8653032363475" x2="146.44561519142675" y1="172.8068346515853" y2="177.08958963109032" /><path d="M 144.38136562736335 173.6633856474863 a86.0,86.0 0 0,1 -40.68145358897372,12.25698825130547" fill="none" id="id66" stroke="none" /><text fill="#e1ed5e" style="font-size:6.75px; font-family:Arial;" text-anchor="middle"><textPath startOffset="21.466115282336833" xlink:href="#id66">June</textPath></text><path d="M 109.89434966115114 118.52300852407294 l 6.750057456520984 12.636643749921172 a35.32648040967342,35.32648040967342 0 0,0 -0.538828240806568,0.28188946899462164 l -6.53153831318792 -12.75096263786051" fill="#ff700a" stroke="none" /><path d="M 108.92500713936063 119.00905698771935 l 3.0504945335649807 6.497140397068317 a28.177628455034913,28.177628455034913 0 0,0 -0.44082155956445773,0.20235955706389358 l -2.9382049782331037 -6.548687024466284" fill="#ff0000" stroke="none" /><path d="M 105.53697534728816 120.25689768951611 l 1.8910510037359372 6.918366852960101 a28.17215963367156,28.17215963367156 0 0,0 -0.46887804945754064,0.12383495442801236 l -1.771682511466899 -6.949893156691697" fill="#ff0000" stroke="none" /><path d="M 104.83641907484287 120.43548508189849 l 9.103927393550372 38.4671323056574 a60.529757927515675,60.529757927515675 0 0,0 -1.015977144360807,0.23123309031892186 l -8.440430099796702 -38.61814212955401" fill="#45ff2d" stroke="none" /><path d="M 104.48393922423573 120.51570834832081 l 1.5309230659579325 7.004548802791463 a28.16989744449454,28.16989744449454 0 0,0 -0.4746071545962339,0.0994585437645696 l -1.4101244499323204 -7.029863327282574" fill="#ff0000" stroke="none" /><path d="M 101.98527174616119 120.90594882070398 l 0.6779581800246245 7.139253878759242 a28.171371782249278,28.171371782249278 0 0,0 -0.4831466487806033,0.04168792583186471 l -0.5549672135024795 -7.1498660568697705" fill="#ff0000" stroke="none" /><path d="M 101.62511606390274 120.93702456842531 l 0.5550126562709735 7.150451514352808 a28.171959000700667,28.171959000700667 0 0,0 -0.4838027389267549,0.033365869455560304 l -0.4318471565652882 -7.158945728324653" fill="#ff0000" stroke="none" /><path d="M 101.26447882468166 120.96189622390904 l 0.43179285624593194 7.158045564844605 a28.171057200936033,28.171057200936033 0 0,0 -0.48428989404496536,0.02503225576583477 l -0.308514893787487 -7.164417627372642" fill="#ff0000" stroke="none" /><line stroke="#e1ed5e" stroke-width="0.3" x1="102.19456741930631" x2="102.32365962044197" y1="184.97166512339345" y2="189.96999836594603" /><path d="M 102.22038585953345 185.97133177190398 a86.0,86.0 0 0,1 -42.740103519485714,-10.115201625700543" fill="none" id="id67" stroke="none" /><text fill="#e1ed5e" style="font-size:6.75px; font-family:Arial;" text-anchor="middle"><textPath startOffset="22.20632615414155" xlink:href="#id67">July</textPath></text><path d="M 97.2962882734958 120.8252237178851 l -0.9237324356598169 7.115009503234013 a28.17472242277012,28.17472242277012 0 0,0 -0.48040774051625135,-0.06658013535024832 l 1.0460687673628992 -7.09805480239116" fill="#ff0000" stroke="none" /><path d="M 93.76903079525671 120.05430185196036 l -2.1277742607369556 6.848216689173753 a28.171157167886687,28.171157167886687 0 0,0 -0.46184419509484487,-0.1478679267103882 l 2.2453398009227405 -6.810575915803658" fill="#ff0000" stroke="none" /><path d="M 93.08242187328487 119.8279376855182 l -19.255114734181035 55.19116778781374 a79.45360934287193,79.45360934287193 0 0,0 -1.2874528141307864,-0.4616347737702089 l 20.202287108941547 -54.85154547300357" fill="#47fffd" stroke="none" /><path d="M 92.40401165467489 119.57807347666478 l -2.5910838081480394 6.678318458892722 a28.163354852248645,28.163354852248645 0 0,0 -0.4504513010868852,-0.17924386895784514 l 2.7056561852767826 -6.63272774552881" fill="#ff0000" stroke="none" /><path d="M 92.06813273071674 119.44442032107085 l -2.706245531820658 6.634172487545392 a28.16491517556234,28.16491517556234 0 0,0 -0.4473239548515754,-0.1869814494070061 l 2.8200409461696956 -6.586605995118413" fill="#ff0000" stroke="none" /><path d="M 91.7346041902142 119.30500536409082 l -2.82010285424275 6.586750590212212 a28.16507246621896,28.16507246621896 0 0,0 -0.4440415804919782,-0.1946547797085149 l 2.933065109392472 -6.537231257209245" fill="#ff0000" stroke="none" /><line stroke="#e1ed5e" stroke-width="0.3" x1="58.666819895761336" x2="56.23545636021788" y1="174.27360380694188" y2="178.64263932499728" /><path d="M 58.180547188652646 175.14741091055294 a86.0,86.0 0 0,1 -31.652253787137756,-30.449443065178592" fill="none" id="id68" stroke="none" /><text fill="#e1ed5e" style="font-size:6.75px; font-family:Arial;" text-anchor="middle"><textPath startOffset="22.20632615414155" xlink:href="#id68">August</textPath></text><path d="M 87.95078237400918 117.19931262002967 l -4.113436671178463 5.871608053429519 a28.169110292141845,28.169110292141845 0 0,0 -0.3947333027518096,-0.28163173069420194 l 4.213897301779159 -5.799932060891098" fill="#ff0000" stroke="none" /><path d="M 87.65650970185807 116.9893568818739 l -4.217515711768871 5.804912374981789 a28.17526629890724,28.17526629890724 0 0,0 -0.38991218328198834,-0.28844771170822814 l 4.316812865469424 -5.731454714533794" fill="#ff0000" stroke="none" /><path d="M 87.36589467227662 116.77436683061367 l -8.61931853968864 11.443913697425229 a35.32675164867239,35.32675164867239 0 0,0 -0.48258238874521253,-0.3700235973211017 l 8.815029656927338 -11.293850758276761" fill="#ff700a" stroke="none" /><path d="M 85.97065885151581 115.62618273729859 l -9.572190101811785 10.661711775626241 a35.328256046419284,35.328256046419284 0 0,0 -0.44900606930188686,-0.4101563984761217 l 9.754295720580526 -10.495362610563545" fill="#ff700a" stroke="none" /><path d="M 85.70375840098266 115.38237550388516 l -9.757170204808919 10.4984554790965 a35.332478426712605,35.332478426712605 0 0,0 -0.4419321888027108,-0.41787446852938287 l 9.936438228002446 -10.328946373821186" fill="#ff700a" stroke="none" /><path d="M 85.44109423537348 115.13401014063109 l -11.917453509754203 12.388215514474583 a38.189926753486226,38.189926753486226 0 0,0 -0.4698271140727665,-0.45982471661969504 l 12.128930576202762 -12.181240694932317" fill="#ff9b0e" stroke="none" /><path d="M 84.9287848128048 114.62390073753433 l -5.143152308117174 4.990503280440754 a28.166389513317075,28.166389513317075 0 0,0 -0.3346347454705259,-0.35086319277376404 l 5.228293604966658 -4.9012329710844895" fill="#ff0000" stroke="none" /><path d="M 84.19399662182784 113.82643327865904 l -22.752268125725486 19.902736299103772 a51.22887058850474,51.22887058850474 0 0,0 -0.5748793847814462,-0.6687146005904515 l 23.09149002007771 -19.50814459935179" fill="#b2ff20" stroke="none" /><path d="M 83.72743513129214 113.27417163493432 l -14.431915608361127 11.772681587195004 a39.624613281363395,39.624613281363395 0 0,0 -0.42659120498425357,-0.5322381196141829 l 14.632424725400242 -11.522515634002561" fill="#ffb010" stroke="none" /><path d="M 83.50135304334701 112.99209946851258 l -11.258791543955832 8.865899126069715 a35.33054619837971,35.33054619837971 0 0,0 -0.3721369506211276,-0.4810371732435772 l 11.409735311795027 -8.670783958712885" fill="#ff700a" stroke="none" /><path d="M 82.85270091963577 112.12312394758628 l -6.098506333150172 4.311638108451831 a28.46873501161521,28.46873501161521 0 0,0 -0.27945329569218846,-0.40257331505626937 l 6.1718205360044935 -4.206023531208549" fill="#ff0500" stroke="none" /><path d="M 82.44556493220864 111.52570212397912 l -25.251573073963236 16.579406189287855 a51.20792366746019,51.20792366746019 0 0,0 -0.4774410671737231,-0.7409991388291621 l 25.533219004514006 -16.142285450537244" fill="#b3ff20" stroke="none" /><line stroke="#e1ed5e" stroke-width="0.3" x1="26.63291911575756" x2="22.317208475507996" y1="142.92168965132927" y2="145.44649492493687" /><path d="M 25.769776987707644 143.4266507060508 a86.0,86.0 0 0,1 -11.730757126820373,-40.83630448921669" fill="none" id="id69" stroke="none" /><text fill="#e1ed5e" style="font-size:6.75px; font-family:Arial;" text-anchor="middle"><textPath startOffset="21.46611528233685" xlink:href="#id69">September</textPath></text><path d="M 81.87401531095188 110.60418214915194 l -12.368222889385756 7.2357386718748415 a35.32930045637926,35.32930045637926 0 0,0 -0.3025668649720342,-0.527550832515695 l 12.490941750510165 -7.02176799350084" fill="#ff700a" stroke="none" /><path d="M 81.51974371655577 109.97397251340807 l -15.126186310959497 8.163748607391149 a38.18860970638811,38.18860970638811 0 0,0 -0.3072318963939543,-0.5811669646141837 l 15.264470715578337 -7.902166627690839" fill="#ff9b0e" stroke="none" /><path d="M 80.87730276802145 108.67885076344099 l -10.441915922473225 4.739071527210859 a32.46701386900794,32.46701386900794 0 0,0 -0.22658715879315694,-0.5108942258156376 l 10.521944165997661 -4.558628964902526" fill="#ff4406" stroke="none" /><path d="M 80.32549172779594 107.34259656027581 l -6.722091523689258 2.508708498165204 a28.174965698985694,28.174965698985694 0 0,0 -0.16566308146831965,-0.45583365073845117 l 6.764278866162802 -2.3926270504206357" fill="#ff0000" stroke="none" /><path d="M 79.76711848015287 105.62410040840567 l -60.698644559541364 16.872301225217015 a84.0,84.0 0 0,0 -0.3752476946329004,-1.3964362672978443 l 60.98008033051604 -15.824974024743632" fill="#4dd2ff" stroke="none" /><path d="M 79.35854240842038 103.8639653848113 l -11.265659746570243 2.108868480080926 a32.4613444146737,32.4613444146737 0 0,0 -0.09808513283637867,-0.550113514436833 l 11.30029132174581 -1.9146362149108793" fill="#ff4406" stroke="none" /><path d="M 79.10278846688536 102.07522291339032 l -11.407695466795793 1.1328550215496147 a32.46380723682161,32.46380723682161 0 0,0 -0.0504354674992623,-0.556551181134644 l 11.425505530572131 -0.9363224518664045" fill="#ff4406" stroke="none" /><path d="M 79.0235259727143 100.99374915477108 l -14.313476602349061 0.6780932418345305 a35.32952975120313,35.32952975120313 0 0,0 -0.023549431613661336,-0.6077061904014525 l 14.323028166813923 -0.43160980441908126" fill="#ff700a" stroke="none" /><line stroke="#e1ed5e" stroke-width="0.3" x1="15.007084014347285" x2="10.007500721073583" y1="101.09737516637583" y2="101.16192664675087" /><path d="M 14.007167355692545 101.11028546245083 a86.0,86.0 0 0,1 10.666146001902534,-42.60595125391555" fill="none" id="id70" stroke="none" /><text fill="#e1ed5e" style="font-size:6.75px; font-family:Arial;" text-anchor="middle"><textPath startOffset="22.20632615414155" xlink:href="#id70">October</textPath></text><path d="M 79.00486145842228 99.54816195383935 l -11.482637812432541 -0.2471187615011574 a32.48529663586411,32.48529663586411 0 0,0 0.016843325498585426,-0.5589479735377192 l 11.47668279247831 0.44473688246387105" fill="#ff4506" stroke="none" /><path d="M 79.01574976396665 99.18683210126434 l -14.321529445031963 -0.5549785136235031 a35.3322784928113,35.3322784928113 0 0,0 0.028781323709578782,-0.6075282543550898 l 14.309854513088887 0.8014178746016022" fill="#ff700a" stroke="none" /><path d="M 79.12142395522702 97.74499172005258 l -7.13039067707342 -0.7701238811296197 a28.171859033750014,28.171859033750014 0 0,0 0.056222507968434185,-0.4816801137665358 l 7.116077816101396 0.8927477332210173" fill="#ff0000" stroke="none" /><path d="M 79.16333360222342 97.38593545837743 l -8.535060279705315 -1.070766216239349 a29.60196455863676,29.60196455863676 0 0,0 0.06778004246321231,-0.5050400447719796 l 8.515364238184269 1.2175246030759879" fill="#ff1702" stroke="none" /><path d="M 79.21141760316559 97.0276538004421 l -7.098097160278192 -1.014884118392716 a28.17028402997504,28.17028402997504 0 0,0 0.07276532803652805,-0.47943259602285493 l 7.079575938802362 1.136915826807663" fill="#ff0000" stroke="none" /><path d="M 79.26566170972629 96.67025291283419 l -11.313949340329582 -1.8169178747303372 a32.45891095344836,32.45891095344836 0 0,0 0.09333967664569473,-0.5508960552190493 l 11.280997802163665 2.0113997182652144" fill="#ff4406" stroke="none" /><path d="M 79.62865764111835 94.90015583598534 l -6.957772707352815 -1.7418369349952676 a28.172488895446087,28.172488895446087 0 0,0 0.1218173967642637,-0.4694121221762632 l 6.926758978718244 1.8613454827203948" fill="#ff0000" stroke="none" /><path d="M 79.71946130924805 94.55025226153421 l -13.840741997581198 -3.7192578338366546 a35.33174859806588,35.33174859806588 0 0,0 0.16288479444362922,-0.5859832698642842 l 13.774670432571208 3.9569524071198816" fill="#ff700a" stroke="none" /><path d="M 80.38941819471856 92.48833698450439 l -13.38186223930653 -5.125806090790463 a35.32997296132001,35.32997296132001 0 0,0 0.22242144323771218,-0.5660383123734233 l 13.291647246187127 5.3553934080596495" fill="#ff700a" stroke="none" /><path d="M 80.803312248108 91.48605970444005 l -10.479203642126159 -4.64764105699865 a32.463606603850714,32.463606603850714 0 0,0 0.23095179093469206,-0.5088716575046123 l 10.397649534228115 4.827334723345333" fill="#ff4406" stroke="none" /><path d="M 80.95270993114464 91.15688171328213 l -15.595357394488856 -7.24048353674245 a38.194178494702115,38.194178494702115 0 0,0 0.28198544850234036,-0.5939332698011551 l 15.468413752144764 7.507859222184138" fill="#ff9b0e" stroke="none" /><path d="M 81.26839172434947 90.50648371742162 l -12.785606639353585 -6.4799756127256565 a35.333939482145226,35.333939482145226 0 0,0 0.27962702053447347,-0.5401504001795777 l 12.672170185658999 6.69909873516557" fill="#ff700a" stroke="none" /><path d="M 81.43458229118936 90.18545643968196 l -6.343128720418331 -3.3532729568322983 a28.17493703713271,28.17493703713271 0 0,0 0.23035278544310445,-0.42680872690105487 l 6.284467835756756 3.461962667065826" fill="#ff0000" stroke="none" /><path d="M 81.6062741919709 89.86733742301443 l -7.811863464951197 -4.303368301449813 a29.918754931769477,29.918754931769477 0 0,0 0.2523751818193985,-0.4489472876771691 l 7.736630641839368 4.437199099061767" fill="#ff1c02" stroke="none" /><line stroke="#e1ed5e" stroke-width="0.3" x1="26.266209847984243" x2="21.928928074336255" y1="57.711370442889674" y2="55.22380399835377" /><path d="M 25.398753493254645 57.213857153982495 a86.0,86.0 0 0,1 29.58750427330803,-30.492523968695096" fill="none" id="id71" stroke="none" /><text fill="#e1ed5e" style="font-size:6.75px; font-family:Arial;" text-anchor="middle"><textPath startOffset="21.46611528233685" xlink:href="#id71">November</textPath></text><path d="M 82.54541684631803 88.32363383020206 l -5.96269280354972 -3.988785290330981 a28.173849284858473,28.173849284858473 0 0,0 0.27311935344444954,-0.4007689500216336 l 5.89314898443653 4.090832263623031" fill="#ff0000" stroke="none" /><path d="M 82.7489923806493 88.02491185347247 l -11.772995595428796 -8.172430452456458 a35.3315053218503,35.3315053218503 0 0,0 0.3511066325715368,-0.49661543211412734 l 11.63057634305338 8.373872384902372" fill="#ff700a" stroke="none" /><path d="M 83.39014120810768 87.1503855733568 l -11.335215189422813 -8.769077838169787 a35.33121870332046,35.33121870332046 0 0,0 0.3762706138399805,-0.47782546869768333 l 11.182590494988862 8.96289570082052" fill="#ff700a" stroke="none" /><path d="M 83.6137871275137 86.86637796730984 l -13.418858981836753 -10.755274775743386 a38.197142549742466,38.197142549742466 0 0,0 0.41562403195186387,-0.5095059192342651 l 13.231736457808497 10.984664864585733" fill="#ff9b0e" stroke="none" /><path d="M 84.80347519578584 85.50635884689758 l -5.349101529352165 -5.101689962460513 a28.391896079111774,28.391896079111774 0 0,0 0.3403454697304642,-0.35075592376865017 l 5.260491795918582 5.193010081779287" fill="#ff0400" stroke="none" /><path d="M 85.05521093208273 85.24692304244772 l -5.109504787274971 -5.043959938081258 a28.179733353555307,28.179733353555307 0 0,0 0.343744706952951,-0.34226855793958694 l 5.021924280154707 5.131164346670954" fill="#ff0000" stroke="none" /><path d="M 85.57189188830299 84.74124197986013 l -6.897204069365653 -7.294287448861924 a31.038827290131987,31.038827290131987 0 0,0 0.39137317917523906,-0.3637387166534552 l 6.7706230063955575 7.4119307515900275" fill="#ff2e04" stroke="none" /><path d="M 86.10567301691215 84.25364557470407 l -9.48249479447057 -10.746452422740811 a35.33192056918379,35.33192056918379 0 0,0 0.45949364824589106,-0.3984683638332364 l 9.296107347577907 10.908085779993728" fill="#ff700a" stroke="none" /><path d="M 86.37877921826538 84.01681056812374 l -4.649901883808177 -5.4562115862775045 a28.1688096922203,28.1688096922203 0 0,0 0.37175110947771517,-0.3113308631980139 l 4.555293237371351 5.535443606869331" fill="#ff0000" stroke="none" /><path d="M 86.65592168130627 83.78471172551755 l -9.105055154453776 -11.064165733927068 a35.32891456996835,35.32891456996835 0 0,0 0.47289703895348595,-0.38238318438238544 l 8.91325471693579 11.219255015573587" fill="#ff700a" stroke="none" /><path d="M 88.09926311788651 82.69761687909137 l -4.063801982067247 -5.908328157974381 a28.17097121537708,28.17097121537708 0 0,0 0.40189955857787973,-0.2713643759927605 l 3.9614977290828275 5.9774044462658065" fill="#ff0000" stroke="none" /><line stroke="#e1ed5e" stroke-width="0.3" x1="56.762969772571076" x2="54.21961505331055" y1="26.818313649435495" y2="22.513508569990535" /><path d="M 56.25429882871897 25.957352633546506 a86.0,86.0 0 0,1 42.265352541879196,-11.944610805530505" fill="none" id="id72" stroke="none" /><text fill="#e1ed5e" style="font-size:6.75px; font-family:Arial;" text-anchor="middle"><textPath startOffset="22.20632615414155" xlink:href="#id72">December</textPath></text><path d="M 90.26544431104013 81.39251694778311 l -5.314050950206723 -10.15774280347807 a32.46380723682161,32.46380723682161 0 0,0 0.49737569101844514,-0.2547751471162946 l 5.138414771599514 10.24771047590687" fill="#ff4406" stroke="none" /><path d="M 90.91171255644093 81.06846463323043 l -4.049783568197064 -8.43598107181574 a30.35769862697407,30.35769862697407 0 0,0 0.4730333545498036,-0.22209550264593234 l 3.9039720023476523 8.50444155710168" fill="#ff2303" stroke="none" /><path d="M 91.56875222667455 80.76684994638697 l -6.903963433352369 -15.749147486618163 a38.19594015005629,38.19594015005629 0 0,0 0.6044348237301426,-0.2587874473550084 l 6.631844851831918 15.865654461935957" fill="#ff9b0e" stroke="none" /><path d="M 92.57280143429618 80.3572730644239 l -5.067723733767576 -13.402619117656744 a35.328713237927865,35.328713237927865 0 0,0 0.5706725684770346,-0.2101835230740108 l 4.836268839517971 13.487865908537078" fill="#ff700a" stroke="none" /><path d="M 93.25333710446033 80.11325718540243 l -2.304234131848546 -6.792055905888581 a28.172274281083496,28.172274281083496 0 0,0 0.46057265224734967,-0.15184356214396239 l 2.1869786573587873 6.830713192291777" fill="#ff0000" stroke="none" /><path d="M 94.98787191387505 79.60689891045804 l -2.05447272285369 -8.359137915658078 a29.607905951039562,29.607905951039562 0 0,0 0.4959695234388926,-0.11737996206536556 l 1.9102795124522631 8.393263789864314" fill="#ff1702" stroke="none" /><path d="M 96.40284397218896 79.31037775812273 l -2.4535546389181557 -14.112014668408186 a35.32371768667355,35.32371768667355 0 0,0 0.599949449020559,-0.09899679965363486 l 2.210275983758711 14.152157731001447" fill="#ff700a" stroke="none" /><path d="M 96.75951476605007 79.25152402106235 l -2.212155987487658 -14.16419519125638 a35.335901071400706,35.335901071400706 0 0,0 0.6017721108398779,-0.08868556636214972 l 1.9680148962191315 14.2001752417795" fill="#ff700a" stroke="none" /><path d="M 97.47563105711357 79.15227682838746 l -2.237582296549876 -18.47927040285712 a39.6142474775572,39.6142474775572 0 0,0 0.6776550813973672,-0.07614244421006405 l 1.9191605116427908 18.515048800537784" fill="#ffaf10" stroke="none" /><path d="M 98.55514903715128 79.0497635885617 l -0.9856867115985296 -14.292387357992592 a35.326336401338914,35.326336401338914 0 0,0 0.6070039451933991,-0.03661613562993428 l 0.7395207175655075 14.307236763002834" fill="#ff700a" stroke="none" /><path d="M 99.27714615592234 79.0124445844662 l -0.493358845041746 -14.324328749014638 a35.33282236894842,35.33282236894842 0 0,0 0.6080162336918351,-0.015703265493641923 l 0.2467159761550319 14.330698806650641" fill="#ff700a" stroke="none" /></svg>