<?xml version="1.0" encoding="utf-8" ?>
<svg baseProfile="full" height="200mm" version="1.1" viewBox="0,0,200,200" width="200mm" xmlns="http://www.w3.org/2000/svg" xmlns:ev="http://www.w3.org/2001/xml-events" xmlns:xlink="http://www.w3.org/1999/xlink"><defs /><rect fill="#1a1a1a" height="200" width="200" x="0" y="0" /><text alignment-baseline="middle" fill="#e1ed5e" style="dominant-baseline: central; font-size:9.0px; font-family:Arial;" text-anchor="middle" x="100.0" y="100.0">2023</text><line stroke="#e1ed5e" stroke-width="0.3" x1="100.0" x2="100.0" y1="15.0" y2="10.0" /><path d="M 100.0 14.0 a86.0,86.0 0 0,1 42.46469731375804,11.215312516191453" fill="none" id="id121" stroke="none" /><text fill="#e1ed5e" style="font-size:6.75px; font-family:Arial;" text-anchor="middle"><textPath startOffset="22.20632615414155" xlink:href="#id121">January</textPath></text><path d="M 100.0 79.0 l 0.0 -10.12249079140025 a31.12249079140025,31.12249079140025 0 0,0 0.5357225184490577,0.0046111328499262635 l -0.1742420391765294 10.120991035158882" fill="#ff770b" stroke="none" /><path d="M 100.72285384407766 79.0124445844662 l 0.3167252119727734 -9.195894844077378 a30.201347555832683,30.201347555832683 0 0,0 0.5194044544754776,0.02236664840600723 l -0.47497049883758247 9.189080469147175" fill="#ff6a09" stroke="none" /><path d="M 101.80526077348638 79.07773832637324 l 0.6436141370213274 -7.4592344714830245 a28.486949850101464,28.486949850101464 0 0,0 0.4881779741377072,0.046358380930983004 l -0.7719172382492788 7.447050546036863" fill="#ff5307" stroke="none" /><path d="M 102.16513564639614 79.11191278185805 l 0.7716974056493329 -7.444929717012268 a28.48481765824247,28.48481765824247 0 0,0 0.4872711879664205,0.05475059549232145 l -0.8997352971254787 7.430543168049346" fill="#ff5307" stroke="none" /><path d="M 102.52436894288641 79.15227682838746 l 0.3604371937430941 -2.9767022990375285 a23.99844485487539,23.99844485487539 0 0,0 0.4096709056756899,0.05318704119042365 l -0.4116228279266301 2.970056934682968" fill="#ff1202" stroke="none" /><path d="M 102.88285421437855 79.19881850522331 l 1.2719494923278656 -9.177728138363179 a30.26544922239264,30.26544922239264 0 0,0 0.515422069675668,0.07595981492220025 l -1.4297405424321892 9.15447383928001" fill="#ff6b09" stroke="none" /><path d="M 104.307194497241 79.44645832069477 l 3.648824142481971 -17.41185802986087 a38.79007357137091,38.79007357137091 0 0,0 0.6523331767785515,0.1425747660751401 l -3.9480000434140505 17.34646976568986" fill="#ffdc14" stroke="none" /><path d="M 104.66035177308747 79.52364482259891 l 1.6611365978308845 -7.298595606406474 a28.485243658192367,28.485243658192367 0 0,0 0.47716352333586043,0.11292918943847198 l -1.7865238081292687 7.2689205048271335" fill="#ff5307" stroke="none" /><path d="M 105.01212808612495 79.60689891045804 l 1.786563047892443 -7.269080161652218 a28.485408066406304,28.485408066406304 0 0,0 0.4751516784686674,0.12112674253510697 l -1.9114236150461354 7.237250422948243" fill="#ff5307" stroke="none" /><path d="M 105.71112130821622 79.79150937346287 l 2.9107086260188213 -10.299383397943261 a31.70278109107206,31.70278109107206 0 0,0 0.5238654839987984,0.15293070011667279 l -3.087564327741047 10.247754368907886" fill="#ff7f0b" stroke="none" /><path d="M 106.74666289553966 80.11325718540242 l 2.884774095514786 -8.503279533003418 a29.979291976461617,29.979291976461617 0 0,0 0.48726056461942185,0.16999564338373024 l -3.0307166641974814 8.45236303644748" fill="#ff6709" stroke="none" /><path d="M 107.08798089147638 80.2323363322302 l 2.531007233982 -7.058723846478532 a28.49877189673842,28.49877189673842 0 0,0 0.4603470057690222,0.16954968725292607 l -2.652136565523598 7.014110891419281" fill="#ff5307" stroke="none" /><path d="M 107.4271985657038 80.35727306442388 l 2.0908464960703887 -5.529665919551858 a26.911754752354256,26.911754752354256 0 0,0 0.43189116242588577,0.1675670611894557 l -2.1857208234959415 5.492856154471856" fill="#ff3c05" stroke="none" /><path d="M 108.09893153111575 80.62456947434976 l 6.0959872840277916 -14.58369880682965 a36.80649650793474,36.80649650793474 0 0,0 0.5824474575438455,0.2493736046278498 l -6.346118499361952 14.476605674239009" fill="#ffc312" stroke="none" /><path d="M 109.08828744355905 81.06846463323043 l 3.8872425340569747 -8.097396783468314 a29.982120528444533,29.982120528444533 0 0,0 0.4633361708303156,0.22735704677953888 l -4.026049971897722 8.029284576553943" fill="#ff6709" stroke="none" /><path d="M 109.41281617654863 81.2277094730956 l 3.461730820846761 -6.903844234925068 a28.723124076182415,28.723124076182415 0 0,0 0.4400649492951717,0.2254183592443495 l -3.5800562577306883 6.843233350368218" fill="#ff5607" stroke="none" /><path d="M 109.73455568895987 81.39251694778311 l 5.205803868789344 -9.950829843371418 a32.23028977774097,32.23028977774097 0 0,0 0.4893708355933641,0.2614049523886828 l -5.376319750911019 9.859746164480981" fill="#ff860c" stroke="none" /><line stroke="#e1ed5e" stroke-width="0.3" x1="143.23703022742887" x2="145.7803849466894" y1="26.81831364943548" y2="22.513508569990506" /><path d="M 143.74570117128098 25.957352633546492 a86.0,86.0 0 0,1 28.547481713284135,27.462654790039103" fill="none" id="id122" stroke="none" /><text fill="#e1ed5e" style="font-size:6.75px; font-family:Arial;" text-anchor="middle"><textPath startOffset="19.985693538727396" xlink:href="#id122">February</textPath></text><path d="M 110.68208982089419 81.91981866633111 l 3.8084811933805707 -6.446119788985663 a28.48712156534713,28.48712156534713 0 0,0 0.4200330219476698,0.2530651959419108 l -3.918876281545878 6.379607983585138" fill="#ff5307" stroke="none" /><path d="M 110.99172775467656 82.1063720568725 l 5.528420907855116 -8.99981413714313 a31.56220110760683,31.56220110760683 0 0,0 0.4604787584926511,0.2883517563236956 l -5.68251881872003 8.90331803949649" fill="#ff7d0b" stroke="none" /><path d="M 111.60114157652 82.49532879139004 l 4.133265344086156 -6.236580287288722 a28.481899229769265,28.481899229769265 0 0,0 0.4063353954107049,0.2743594728234288 l -4.240005433903403 6.164508902166623" fill="#ff5307" stroke="none" /><path d="M 112.77801427241765 83.33499621200491 l 14.008372951542599 -18.26962964073571 a44.022030317918514,44.022030317918514 0 0,0 0.5973735950662539,0.4662595663321667 l -14.320779101768283 18.025791685180323" fill="#e1ff1b" stroke="none" /><path d="M 113.89432698308785 84.25364557470407 l 11.991345311851434 -13.589717123136296 a39.12381786144755,39.12381786144755 0 0,0 0.5011370060964353,0.44992575210804997 l -12.22349330554386 13.381292362258948" fill="#ffe015" stroke="none" /><path d="M 114.16331599549186 84.49514656593476 l 5.048031819285351 -5.526177168780945 a28.484735088783914,28.484735088783914 0 0,0 0.35916825160487026,0.3338077462965947 l -5.142407954685067 5.43846483640971" fill="#ff5307" stroke="none" /><path d="M 114.42810811169701 84.74124197986012 l 5.233533725256331 -5.534836867432851 a28.617367944538934,28.617367944538934 0 0,0 0.3550144701552972,0.34152363901179983 l -5.328031439024047 5.4439301416587496" fill="#ff5407" stroke="none" /><path d="M 114.94478906791727 85.2469230424477 l 4.773107112724688 -4.711877580917986 a27.707036741147355,27.707036741147355 0 0,0 0.33213577593513044,0.34229511266010015 l -4.853507152362928 4.629018272707771" fill="#ff4806" stroke="none" /><path d="M 115.4437574822437 85.77008943001954 l 6.606215330387236 -6.0869806758832254 a29.982951337952308,29.982951337952308 0 0,0 0.34645494358352713,0.3825642019255746 l -6.710013914586799 5.972363686688102" fill="#ff6709" stroke="none" /><path d="M 115.68641384162765 86.03803664274999 l 12.079599285517748 -10.75165581486165 a37.17141990240589,37.17141990240589 0 0,0 0.4212904942446147,0.4816078623472754 l -12.262881643340211 10.542132396311427" fill="#ffc712" stroke="none" /><path d="M 116.15771136456269 86.58626213691792 l 9.714640507562299 -8.064857594146414 a33.62601157155463,33.62601157155463 0 0,0 0.36588544521696936,0.44853229305398257 l -9.852024444855678 7.8964411314843295" fill="#ff990e" stroke="none" /><path d="M 116.60985879189232 87.15038557335679 l 13.215805545895277 -10.223928314498352 a37.70886670025581,37.70886670025581 0 0,0 0.3927541149632232,0.5168183771717313 l -13.389835601082615 9.994925161445588" fill="#ffce13" stroke="none" /><path d="M 116.82858285166822 87.43820079747576 l 6.055993623028233 -4.520533697625453 a28.55713462057716,28.55713462057716 0 0,0 0.29065368323327784,0.39645129728701195 l -6.1329099187751375 4.415619956666947" fill="#ff5407" stroke="none" /><path d="M 117.04232023915458 87.72973835380427 l 9.44182447808198 -6.7979978745704255 a32.63446709469635,32.63446709469635 0 0,0 0.3243048305756462,0.4587061839118314 l -9.557441928461508 6.634465190326801" fill="#ff8c0c" stroke="none" /><path d="M 117.65298651832404 88.62581576622439 l 8.81393890952259 -5.679003089822279 a31.485065340521597,31.485065340521597 0 0,0 0.28962122638960497,0.45811122746039484 l -8.910387732158151 5.526444214647678" fill="#ff7c0b" stroke="none" /><line stroke="#e1ed5e" stroke-width="0.3" x1="172.23445277983987" x2="176.4835382374775" y1="55.19839476539836" y2="52.563006222186495" /><path d="M 173.08426987136738 54.67131705675599 a86.0,86.0 0 0,1 12.851231095245387,41.99856678651699" fill="none" id="id123" stroke="none" /><text fill="#e1ed5e" style="font-size:6.75px; font-family:Arial;" text-anchor="middle"><textPath startOffset="22.20632615414155" xlink:href="#id123">March</textPath></text><path d="M 117.84615892207809 88.93136811851018 l 6.6357826177715085 -4.115677517072617 a28.80848335945307,28.80848335945307 0 0,0 0.2577456618369258,0.4236660984012681 l -6.705644077894658 4.000843645464268" fill="#ff5708" stroke="none" /><path d="M 118.21658344932153 89.55222093294921 l 7.419319119138057 -4.255211038905726 a29.552959556623232,29.552959556623232 0 0,0 0.24928956964997967,0.4434583279296239 l -7.4914663300804705 4.126869201041308" fill="#ff6109" stroke="none" /><path d="M 118.3937258080291 89.86733742301442 l 31.2401631857419 -17.20945694824446 a56.66669601077822,56.66669601077822 0 0,0 0.46329584519523564,0.85841683870225 l -31.531767130155597 16.66915912620975" fill="#55ff2b" stroke="none" /><path d="M 118.89224826269711 90.83032412892265 l 14.031768378657992 -6.8105588144519436 a36.59725088589061,36.59725088589061 0 0,0 0.2701954227511842,0.5691004687377872 l -14.146921995250933 6.568015930073615" fill="#ffc011" stroke="none" /><path d="M 119.04729006885535 91.15688171328212 l 8.34893189283468 -3.876173042421952 a30.204856392469722,30.204856392469722 0 0,0 0.21488264578522925,0.4734654262136744 l -8.414416855583255 3.7318856073662148" fill="#ff6b09" stroke="none" /><path d="M 119.196687751892 91.48605970444005 l 17.453122962689843 -7.740650303631795 a40.092646968764875,40.092646968764875 0 0,0 0.2743659922099618,0.6332745378726979 l -17.583779664742487 7.439076621172494" fill="#ffed16" stroke="none" /><path d="M 119.47837535516314 92.15188598940014 l 10.609251268273454 -4.27461798031532 a32.43803179533074,32.43803179533074 0 0,0 0.20421509678500993,0.5197051465124387 l -10.681259914940163 4.091363828907097" fill="#ff890c" stroke="none" /><path d="M 119.61058180528143 92.48833698450437 l 14.776808094077465 -5.660127983427023 a36.823751332663406,36.823751332663406 0 0,0 0.22163586679075317,0.5938739325789691 l -14.872048549369843 5.40493091381872" fill="#ffc312" stroke="none" /><path d="M 119.97218684219823 93.5106431181261 l 15.039681915807252 -4.886688879523628 a36.81365739903074,36.81365739903074 0 0,0 0.19063254117050452,0.604357250550032 l -15.121569940745964 4.627081462547177" fill="#ffc312" stroke="none" /><path d="M 120.08093135843002 93.85539295169968 l 1.681437652894828 -0.5145066963698275 a22.758394074484404,22.758394074484404 0 0,0 0.1114013667649988,0.3755900281456286 l -1.690044916771529 0.48548728147766895" fill="#ff0000" stroke="none" /><path d="M 120.18372546131832 94.20196356495316 l 10.72600012579348 -3.0811823937485165 a32.15978331519334,32.15978331519334 0 0,0 0.14826154669666003,0.5333756672941726 l -10.777448443056503 2.896095423035392" fill="#ff850c" stroke="none" /><path d="M 120.28053869075195 94.5502522615342 l 8.676769918807182 -2.331605090143404 a29.984582267434575,29.984582267434575 0 0,0 0.1296528598676065,0.4996053577999959 l -8.715619110545092 2.181903306794558" fill="#ff6709" stroke="none" /><path d="M 120.45610955862082 95.25157060432595 l 13.720683958231575 -3.1849506304860067 a35.085491784112705,35.085491784112705 0 0,0 0.1314964351525507,0.5894727349290642 l -13.773474780386163 2.9482997260069785" fill="#ffac0f" stroke="none" /><path d="M 120.53481517161879 95.60439243477599 l 21.95663089385882 -4.699956247829669 a43.454024782668,43.454024782668 0 0,0 0.15026961309735828,0.7327680006295785 l -22.034279802871175 4.321312591036678" fill="#e8ff1a" stroke="none" /><path d="M 120.67395015179393 96.31383870115 l 7.371884403396991 -1.3144055580998821 a28.488146741898937,28.488146741898937 0 0,0 0.08192124526104763,0.4835038268265067 l -7.393417510178262 1.1873159429575375" fill="#ff5307" stroke="none" /><path d="M 120.78858239683441 97.02765380044208 l 8.89275919910415 -1.2714844381628387 a29.983197584921626,29.983197584921626 0 0,0 0.06865295718678358,0.5115442733775463 l -8.913328155348768 1.1182218227206282" fill="#ff6709" stroke="none" /><path d="M 120.83666639777658 97.38593545837742 l 7.427522364226123 -0.9318200173567124 a28.485744920569086,28.485744920569086 0 0,0 0.05684892924051717,0.487046908676731 l -7.442461646470229 0.8038293703551287" fill="#ff5307" stroke="none" /><path d="M 120.87857604477298 97.74499172005257 l 38.61815102803158 -4.1709860930038545 a59.84274338678833,59.84274338678833 0 0,0 0.10179784765889907,1.025090433619196 l -38.68422600137271 3.5056201286802233" fill="#35ff2f" stroke="none" /><path d="M 120.94382443527127 98.46500227214037 l 23.89763094251995 -1.7514857093730727 a44.961729212538586,44.961729212538586 0 0,0 0.04992766441218601,0.7723588699491815 l -23.92423919793655 1.339867775170856" fill="#d6ff1c" stroke="none" /><path d="M 120.96714384426684 98.82574320788733 l 17.054891849924164 -0.9551526303377023 a38.08161738711679,38.08161738711679 0 0,0 0.03102090791076725,0.6548023371581111 l -17.06880636606843 0.6614391865565914" fill="#ffd313" stroke="none" /><path d="M 120.98425023603335 99.18683210126433 l 8.974366932875018 -0.34776877988032984 a29.98110265892446,29.98110265892446 0 0,0 0.01554492410985913,0.5158603525611973 l -8.979023551440521 0.19323827989413345" fill="#ff6709" stroke="none" /><line stroke="#e1ed5e" stroke-width="0.3" x1="184.98032266829074" x2="189.97916517819016" y1="98.17113171792111" y2="98.06355123074" /><path d="M 185.9800911702706 98.14961562048488 a86.0,86.0 0 0,1 -9.607161424134198,41.387399972396054" fill="none" id="id124" stroke="none" /><text fill="#e1ed5e" style="font-size:6.75px; font-family:Arial;" text-anchor="middle"><textPath startOffset="21.466115282336823" xlink:href="#id124">April</textPath></text><path d="M 120.9904718944345 100.63252640178507 l 16.811840458981532 0.5066076173220183 a37.81947177815573,37.81947177815573 0 0,0 -0.025209140075633046,0.6505358910562624 l -16.800629186054696 -0.7959207553922869" fill="#ffd013" stroke="none" /><path d="M 120.9764740272857 100.99374915477107 l 10.542887121396971 0.49946359679452135 a31.55471140008295,31.55471140008295 0 0,0 -0.030373136385074086,0.5423327536744281 l -10.532727634124367 -0.6808680668043728" fill="#ff7d0b" stroke="none" /><path d="M 120.95626037817324 101.35467743843564 l 2.989190427923458 0.1932305076774711 a23.99542942555596,23.99542942555596 0 0,0 -0.03019246770239064,0.4119522337718475 l -2.9854214015567297 -0.24465587794608884" fill="#ff1202" stroke="none" /><path d="M 120.92983693683757 101.71520430193887 l 12.678969135648886 1.0390440437373534 a33.72147282619285,33.72147282619285 0 0,0 -0.05238936500410357,0.5781122772849077 l -12.659205174367708 -1.2571377095708316" fill="#ff9a0e" stroke="none" /><path d="M 120.89721153311464 102.0752229133903 l 10.429537598379921 1.0357178691485331 a31.480838039989646,31.480838039989646 0 0,0 -0.058191127596692135,0.5387775705581644 l -10.410164169282178 -1.215091761591489" fill="#ff7c0b" stroke="none" /><path d="M 120.81339534386255 102.79330883721812 l 33.130849184850945 4.446400612856962 a54.42788725180449,54.42788725180449 0 0,0 -0.1326121191619049,0.9274888525522853 l -33.04940301467244 -5.016034937389657" fill="#6cff28" stroke="none" /><path d="M 120.70491114924044 103.5080841355445 l 17.279798241215477 2.9277588123164477 a38.526071976350266,38.526071976350266 0 0,0 -0.11641030140932893,0.652890791632642 l -17.22684149746696 -3.224768354682308" fill="#ffd914" stroke="none" /><path d="M 120.5718875245553 104.21870165774334 l 8.06840425796593 1.6545973420180888 a29.236312259389884,29.236312259389884 0 0,0 -0.10534255577424213,0.4921253502346649 l -8.038727663467245 -1.7932365116689228" fill="#ff5d08" stroke="none" /><path d="M 120.41448212921028 104.9243191809786 l 7.5895761179799495 1.8307344274871173 a28.807256508825503,28.807256508825503 0 0,0 -0.12042624703213545,0.48104299433253656 l -7.556938556652753 -1.9611052612170499" fill="#ff5708" stroke="none" /><path d="M 120.23288151984713 105.62410040840565 l 8.847269464891445 2.459260771233283 a30.182708779294238,30.182708779294238 0 0,0 -0.14345031309029216,0.49936935878038125 l -8.803626514915052 -2.6111876055182464" fill="#ff6a09" stroke="none" /><path d="M 120.13307415673323 105.97154293290107 l 12.33261407073944 3.657898134433237 a33.863653780310266,33.863653780310266 0 0,0 -0.1705651407180151,0.5574167486994679 l -12.267822157515292 -3.869641855684762" fill="#ff9c0e" stroke="none" /><path d="M 120.02730092923936 106.31721596034902 l 7.1394412438737715 2.251995530157863 a28.48619430302052,28.48619430302052 0 0,0 -0.15152993536686815,0.46636118746784366 l -7.099619057490656 -2.3745556176035016" fill="#ff5307" stroke="none" /><path d="M 119.9155931802556 106.66101706037122 l 17.39256128105203 5.817157760156289 a39.33958866282711,39.33958866282711 0 0,0 -0.22031887303191405,0.6403497740091902 l -17.289851577076885 -6.11568023725478" fill="#ffe315" stroke="none" /><path d="M 119.79798401119884 107.00284435728193 l 7.057819854413317 2.4964569076443954 a28.48632875240436,28.48632875240436 0 0,0 -0.16749383304529458,0.4608710928017605 l -7.013801760362797 -2.617575797452287" fill="#ff5307" stroke="none" /><path d="M 119.54520255179757 107.68017299344265 l 22.006757275014543 8.64742652059494 a44.64477428926938,44.64477428926938 0 0,0 -0.2872091568356701,0.7128295734146156 l -21.85464550392148 -9.02495546185237" fill="#daff1c" stroke="none" /><path d="M 119.41010516605496 108.01547362559984 l 6.920304689450891 2.8577650272815323 a28.48715152417723,28.48715152417723 0 0,0 -0.19106606384792305,0.45162373493364655 l -6.870087644410659 -2.9764632878813426" fill="#ff5307" stroke="none" /><path d="M 119.26925614724726 108.34839909993367 l 7.559764119717303 3.2752654015539004 a29.238773998379926,29.238773998379926 0 0,0 -0.20405728576142976,0.4600953098418569 l -7.5022657492246 -3.404909047888445" fill="#ff5d08" stroke="none" /><path d="M 118.97047184881838 109.00673069616215 l 15.583767389042857 7.398803636688965 a38.25097392294352,38.25097392294352 0 0,0 -0.2875138888120058,0.5923637697535946 l -15.454100243616136 -7.665956362407835" fill="#ffd513" stroke="none" /><path d="M 118.81262510543309 109.33194174019688 l 6.70839731848462 3.3276787580331817 a28.488393719571434,28.488393719571434 0 0,0 -0.22169577130023155,0.4374267890586297 l -6.65012287739812 -3.442659758794506" fill="#ff5307" stroke="none" /><path d="M 118.64920377521936 109.65438752849418 l 9.306720625510279 4.817936927553851 a31.479864743363127,31.479864743363127 0 0,0 -0.25325924713384856,0.4790710523380113 l -9.222408870151538 -4.977422994977997" fill="#ff7c0b" stroke="none" /><line stroke="#e1ed5e" stroke-width="0.3" x1="174.80103733775053" x2="179.2010983576182" y1="140.37084112569926" y2="142.7455964860345" /><path d="M 175.68104954172406 140.8457921977663 a86.0,86.0 0 0,1 -30.038265399797805,32.042727171017184" fill="none" id="id125" stroke="none" /><text fill="#e1ed5e" style="font-size:6.75px; font-family:Arial;" text-anchor="middle"><textPath startOffset="22.206326154141568" xlink:href="#id125">May</textPath></text><path d="M 118.30583269289576 110.29060199501025 l 7.8320999405969145 4.402805631732055 a29.984791979245244,29.984791979245244 0 0,0 -0.25679547539301895,0.44774455670276575 l -7.755152469051516 -4.536970034293136" fill="#ff6709" stroke="none" /><path d="M 118.12598468904814 110.60418214915192 l 15.096006483489786 8.831564476186843 a38.48959527395105,38.48959527395105 0 0,0 -0.3394766253033746,0.5689823506674604 l -14.941748982488184 -9.090108920740407" fill="#ffd814" stroke="none" /><path d="M 117.94076556474637 110.91462005526583 l 37.47583580339179 22.79916693473229 a64.86616329336967,64.86616329336967 0 0,0 -0.5885379903075689,0.9489106349515425 l -37.07783317341626 -23.44087390104911" fill="#35ff65" stroke="none" /><path d="M 117.75023020441432 111.22182372390056 l 6.3297411675283195 4.001708078256608 a28.488610738413833,28.488610738413833 0 0,0 -0.2656157824631318,0.4122415929357005 l -6.259920521688137 -4.110071271113761" fill="#ff5307" stroke="none" /><path d="M 117.35343817320211 111.8261652097733 l 8.660531889823828 5.902051219551942 a31.480411309336578,31.480411309336578 0 0,0 -0.3090163537842605,0.4451611051549555 l -8.557654628877431 -6.050253586893917" fill="#ff7c0b" stroke="none" /><path d="M 117.14729908036423 112.12312394758627 l 6.1139599793527415 4.32256382144475 a28.487660824288852,28.487660824288852 0 0,0 -0.28653188733522367,0.39796773072155606 l -6.038648299641915 -4.427165157617437" fill="#ff5307" stroke="none" /><path d="M 116.93607887273984 112.41649034213515 l 9.389535653932985 6.883829464909186 a32.64261516577915,32.64261516577915 0 0,0 -0.3361237026289362,0.45029262822191074 l -9.269650684608957 -7.044434972640412" fill="#ff8c0c" stroke="none" /><path d="M 116.71984013943494 112.70617746262583 l 5.992126408669984 4.553693150897597 a28.52606804447129,28.52606804447129 0 0,0 -0.30046532300050266,0.3883919331112893 l -5.9128542684514125 -4.656163078122139" fill="#ff5307" stroke="none" /><path d="M 116.27256486870786 113.27417163493432 l 5.802845720343128 4.733609648163307 a28.48866334904229,28.48866334904229 0 0,0 -0.31324506309428896,0.3773238576386488 l -5.720504657355296 -4.832794762915726" fill="#ff5307" stroke="none" /><path d="M 116.0416608686014 113.55231037782055 l 8.724287157053793 7.3704492537333515 a32.420889133539134,32.420889133539134 0 0,0 -0.3638202557473258,0.42320515128801156 l -8.596124391735689 -7.519531504182891" fill="#ff890c" stroke="none" /><path d="M 115.32070863581623 114.36230785411682 l 30.972922498924103 29.035383326284993 a63.4543921523871,63.4543921523871 0 0,0 -0.7538788156309824,0.7904389242212987 l -30.468537131914154 -29.5642293670888" fill="#33ff54" stroke="none" /><path d="M 115.07121518719521 114.62390073753431 l 5.373065800030463 5.213592927970725 a28.486747445322525,28.486747445322525 0 0,0 -0.3444988845435679,0.3489755512324398 l -5.282526290431359 -5.30530897318383" fill="#ff5307" stroke="none" /><path d="M 114.81725581225074 114.88116024355365 l 5.283798722578425 5.306586893125245 a28.48855082075364,28.48855082075364 0 0,0 -0.35047706958506236,0.343015578233935 l -5.191671700617568 -5.396752574281752" fill="#ff5307" stroke="none" /><path d="M 114.55890576462653 115.13401014063108 l 13.439572584725308 13.970461178281951 a40.38545580568028,40.38545580568028 0 0,0 -0.5051339072355202,0.4776356381599675 l -13.197102843098982 -14.199731453187841" fill="#fff016" stroke="none" /><path d="M 114.29624159901734 115.38237550388516 l 5.097512313098955 5.484787592086861 a28.48782523250279,28.48782523250279 0 0,0 -0.3620673042506779,0.3307398979000685 l -5.002345459381413 -5.571720256573513" fill="#ff5307" stroke="none" /><path d="M 114.0293411484842 115.62618273729858 l 6.3205131705326965 7.03992388173677 a30.460941549313418,30.460941549313418 0 0,0 -0.3931748164098503,0.3469310618296539 l -6.198396001216258 -7.147678085338712" fill="#ff6e0a" stroke="none" /><path d="M 113.48314897796784 116.09983520530334 l 4.805676529733326 5.738318274546112 a28.484839579337663,28.484839579337663 0 0,0 -0.37861760048598175,0.3115765090449571 l -4.706188800702653 -5.820189902448247" fill="#ff5307" stroke="none" /><path d="M 113.20401910651253 116.32954008644616 l 22.35736776552588 27.649576254740907 a56.5577130939225,56.5577130939225 0 0,0 -0.7622969962036441,0.6056148369643518 l -21.878113276604882 -28.030325005710385" fill="#56ff2a" stroke="none" /><path d="M 112.92097659922987 116.55440617244103 l 4.60612163377493 5.9013812013035185 a28.48616434419042,28.48616434419042 0 0,0 -0.38913629456005755,0.29837311704579944 l -4.503856610721378 -5.979793660176689" fill="#ff5307" stroke="none" /><path d="M 112.34349029814194 116.9893568818739 l 16.003170262046098 22.026474218902173 a48.22621943920967,48.22621943920967 0 0,0 -0.6757932601010618,0.48216054765818706 l -15.62164967409615 -22.298679028404578" fill="#b0ff20" stroke="none" /><path d="M 112.04921762599082 117.19931262002967 l 15.520174753634697 22.153831542511014 a48.04936369671782,48.04936369671782 0 0,0 -0.6814843893008843,0.4687311770675769 l -15.136533479710929 -22.417703508943685" fill="#b2ff20" stroke="none" /><path d="M 111.7513745106137 117.40417183066458 l 9.792437000403472 14.502921002309128 a38.49932970162258,38.49932970162258 0 0,0 -0.5524201009833748,0.3661139203843719 l -9.541342200680134 -14.669332943784818" fill="#ffd814" stroke="none" /><path d="M 111.45004920935366 117.60387380957326 l 13.987750075074548 21.505461042063143 a46.65427852804369,46.65427852804369 0 0,0 -0.6769717942793362,0.4320754289209375 l -13.61549647874828 -21.74305089980789" fill="#c2ff1e" stroke="none" /><path d="M 111.1453310114006 117.79835938074945 l 8.784340919738566 14.028013744284705 a37.55142939458807,37.55142939458807 0 0,0 -0.5507914917050685,0.33834112040647224 l -8.541570228101188 -14.177143331519556" fill="#ffcc13" stroke="none" /><line stroke="#e1ed5e" stroke-width="0.3" x1="143.8653032363475" x2="146.44561519142675" y1="172.8068346515853" y2="177.08958963109032" /><path d="M 144.38136562736335 173.6633856474863 a86.0,86.0 0 0,1 -40.68145358897372,12.25698825130547" fill="none" id="id126" stroke="none" /><text fill="#e1ed5e" style="font-size:6.75px; font-family:Arial;" text-anchor="middle"><textPath startOffset="21.466115282336833" xlink:href="#id126">June</textPath></text><path d="M 110.5260780823613 118.17145234162733 l 15.606430805134169 26.94180219635827 a52.13553256430884,52.13553256430884 0 0,0 -0.7804223308957363,0.4431441672542945 l -15.140359707317232 -27.206449529407195" fill="#85ff25" stroke="none" /><path d="M 110.21172684928248 118.3499491758327 l 9.524154623142412 17.11441716537052 a40.586035744781384,40.586035744781384 0 0,0 -0.6133848524798681,0.3344663282688821 l -9.228146958793895 -17.275824145399174" fill="#fff316" stroke="none" /><path d="M 109.89434966115114 118.52300852407294 l 11.752897274930659 22.00235729093551 a45.94462508664052,45.94462508664052 0 0,0 -0.7007848283457311,0.36661750105407115 l -11.372421544058433 -22.2014042109343" fill="#cbff1d" stroke="none" /><path d="M 109.57404056367764 118.69057910512821 l 12.392413195902709 24.19264652169831 a48.18190667598255,48.18190667598255 0 0,0 -0.7414188029875084,0.37176277941980784 l -11.97414048523244 -24.40237714202742" fill="#b1ff20" stroke="none" /><path d="M 109.2508944713604 118.85261126421891 l 11.467132019263493 23.36913289238516 a47.03097172387493,47.03097172387493 0 0,0 -0.729847518878576,0.35037116182239747 l -11.063171832384684 -23.563058330707115" fill="#beff1f" stroke="none" /><path d="M 108.92500713936063 119.00905698771935 l 12.105001321794107 25.782014105916616 a49.48233326745407,49.48233326745407 0 0,0 -0.774120482021961,0.35536074508430676 l -11.659412844004727 -25.986561921335" fill="#a2ff22" stroke="none" /><path d="M 108.59647513512805 119.15986991738527 l 4.496733268439599 10.022343242105835 a31.98489754845606,31.98489754845606 0 0,0 -0.5042637286420808,0.22105439969172744 l -4.323548865139764 -10.098262195092017" fill="#ff830c" stroke="none" /><path d="M 108.2653958097858 119.30500536409082 l 2.9473560798220273 6.883968564879225 a28.4883864125397,28.4883864125397 0 0,0 -0.45246142578317744,0.18912891267307633 l -2.8284231945413887 -6.933682520572274" fill="#ff5307" stroke="none" /><path d="M 107.93186726928326 119.44442032107085 l 9.90517876817934 24.281856060512414 a47.224437080193624,47.224437080193624 0 0,0 -0.7553187195725727,0.30055690651975847 l -9.485738972564901 -24.448759811438244" fill="#bcff1f" stroke="none" /><path d="M 107.59598834532513 119.57807347666477 l 4.06094577133743 10.46677418152256 a32.22696051140871,32.22696051140871 0 0,0 -0.5188997639661891,0.1962034902441957 l -3.880175786610966 -10.535125921873385" fill="#ff860c" stroke="none" /><path d="M 107.2578585660854 119.70592522655815 l 10.394303507807303 28.221735907631288 a51.075038205337336,51.075038205337336 0 0,0 -0.8276112591126319,0.2967519525195805 l -9.906972688064936 -28.396475401190827" fill="#90ff24" stroke="none" /><path d="M 106.91757812671514 119.82793768551818 l 9.379068873034992 26.88333832393291 a49.47245708336697,49.47245708336697 0 0,0 -0.8064723545524092,0.27359920935585885 l -8.914926785545356 -27.04080052018689" fill="#a2ff22" stroke="none" /><path d="M 106.57524785965236 119.94407469862006 l 1.8751732265480432 5.687784810762076 a26.988920660945375,26.988920660945375 0 0,0 -0.44246234774274296,0.1416624712468114 l -1.7769895337143597 -5.719220128668594" fill="#ff3d05" stroke="none" /><path d="M 106.2309692047433 120.05430185196036 l 2.3708616852316973 7.6305907351764235 a28.9904255267326,28.9904255267326 0 0,0 -0.4778243703061177,0.14396456312015526 l -2.2391623404853336 -7.6702706674023045" fill="#ff5a08" stroke="none" /><path d="M 105.88484417918355 120.15858648285463 l 2.962436145597535 10.14785156966512 a31.57141993285186,31.57141993285186 0 0,0 -0.5229863320628639,0.14780116141023802 l -2.787318645430066 -10.197341524413877" fill="#ff7d0b" stroke="none" /><path d="M 105.53697534728816 120.25689768951611 l 8.502649459646603 31.106748611087337 a53.24786592918999,53.24786592918999 0 0,0 -0.8862208591497117,0.23405898363748529 l -7.965938157685395 -31.248498944028405" fill="#79ff26" stroke="none" /><path d="M 104.83641907484287 120.43548508189849 l 9.493304049233505 40.1123786574142 a62.2204529733356,62.2204529733356 0 0,0 -1.044355046130942,0.23769180837128856 l -8.801428853709702 -40.26984719936317" fill="#32ff45" stroke="none" /><path d="M 104.48393922423573 120.51570834832081 l 1.5986731207442362 7.314530784051585 a28.487196827773957,28.487196827773957 0 0,0 -0.47995302274325535,0.10057882241168034 l -1.4725286365716028 -7.340965587189806" fill="#ff5307" stroke="none" /><path d="M 104.13013068566511 120.58985236759428 l 5.965712787486082 29.74074064729673 a51.333172984581466,51.333172984581466 0 0,0 -0.8678542312533,0.16632632893017385 l -5.452890941661077 -29.83902417457537" fill="#8eff24" stroke="none" /><path d="M 103.7750983002368 120.6578951692458 l 3.525204286492446 19.290438237321855 a40.60989731358718,40.60989731358718 0 0,0 -0.6887265093642149,0.11974393179872814 l -3.1926288056561813 -19.34826074764159" fill="#fff316" stroke="none" /><path d="M 103.41894727170886 120.7198165907248 l 1.340796633201495 8.125618243743999 a29.235496794648746,29.235496794648746 0 0,0 -0.497231950696985,0.07765740460732243 l -1.2007288188959928 -8.147493955698428" fill="#ff5d08" stroke="none" /><path d="M 102.70371172650421 120.8252237178851 l 1.1714020732525632 9.022674274013834 a30.098397324373753,30.098397324373753 0 0,0 -0.5143566385629261,0.06228142580690352 l -1.0159180116382567 -9.041501228546089" fill="#ff6909" stroke="none" /><path d="M 102.34483914955558 120.86867818915974 l 3.1951790008460597 28.43656134709919 a49.61550611285398,49.61550611285398 0 0,0 -0.8495294619570359,0.08805720224824987 l -2.705216942283421 -28.4873479178032" fill="#a1ff22" stroke="none" /><path d="M 101.62511606390274 120.93702456842531 l 2.7961881313913746 36.024417520239645 a57.13277356830891,57.13277356830891 0 0,0 -0.9811526537484488,0.06766603147714612 l -2.1756727168639953 -36.06721189623308" fill="#50ff2b" stroke="none" /><path d="M 101.26447882468166 120.96189622390904 l 0.4508043283708865 7.473208221560004 a28.486792748919257,28.486792748919257 0 0,0 -0.4897177178567726,0.025312812258092343 l -0.3220985421006344 -7.479860840580298" fill="#ff5307" stroke="none" /><path d="M 100.90346689309514 120.98055641714683 l 0.772767140687709 17.945410857250252 a38.96204164033816,38.96204164033816 0 0,0 -0.6702948905647106,0.023086311326745487 l -0.46375189844834613 -17.95605396700309" fill="#ffde14" stroke="none" /><line stroke="#e1ed5e" stroke-width="0.3" x1="102.19456741930631" x2="102.32365962044197" y1="184.97166512339345" y2="189.96999836594603" /><path d="M 102.22038585953345 185.97133177190398 a86.0,86.0 0 0,1 -42.740103519485714,-10.115201625700543" fill="none" id="id127" stroke="none" /><text fill="#e1ed5e" style="font-size:6.75px; font-family:Arial;" text-anchor="middle"><textPath startOffset="22.20632615414155" xlink:href="#id127">July</textPath></text><path d="M 100.18074693466247 120.99922214144158 l 0.1887139292658921 21.92482948183442 a42.92564162697673,42.92564162697673 0 0,0 -0.73892172785668,0.0 l 0.188713929265877 -21.92482948183442" fill="#efff19" stroke="none" /><path d="M 99.81925306533755 120.99922214144158 l -0.15847456655283132 18.41161308227133 a39.41229508995304,39.41229508995304 0 0,0 -0.6783424837787766,-0.011678281032271285 l 0.4753767402242758 -18.4061573239599" fill="#ffe415" stroke="none" /><path d="M 99.45781275523022 120.99299961872073 l -0.2340927345898326 9.06385890740814 a30.066881365816453,30.066881365816453 0 0,0 -0.5172643964801141,-0.017815631692075177 l 0.39007748274458975 -9.058486477289971" fill="#ff6909" stroke="none" /><path d="M 99.09653310690486 120.98055641714683 l -0.32230778332594656 7.484719897803143 a28.49165630923915,28.49165630923915 0 0,0 -0.4898013275379729,-0.025317133923587243 l 0.4510971792774084 -7.478062957117354" fill="#ff5307" stroke="none" /><path d="M 98.73552117531835 120.96189622390904 l -3.793436474044945 62.885688671727095 a84.0,84.0 0 0,0 -1.4425489568842798,-0.09948662193485935 l 4.875348191708155 -62.81107370527595" fill="#4dd2ff" stroke="none" /><path d="M 98.37488393609728 120.93702456842531 l -0.7531847807390476 9.703582783513397 a30.732769706020715,30.732769706020715 0 0,0 -0.5270753162459033,-0.04547827610296359 l 0.9201044147264926 -9.68918025513177" fill="#ff720a" stroke="none" /><path d="M 97.65516085044442 120.86867818915974 l -1.8677924815421694 16.623042236744972 a37.72764723320984,37.72764723320984 0 0,0 -0.6447341897519112,-0.07806833156931897 l 2.15365409434547 -16.588428376450302" fill="#ffcf13" stroke="none" /><path d="M 96.93821686468263 120.77559828337769 l -3.2946680276195575 22.355828742200366 a43.59729886873231,43.59729886873231 0 0,0 -0.74149483806915,-0.1158062440948571 l 3.6789987292972244 -22.295804190758403" fill="#e7ff1a" stroke="none" /><path d="M 96.58105272829116 120.7198165907248 l -1.6270218674530537 9.86022655619261 a30.9935613220021,30.9935613220021 0 0,0 -0.5256375591702448,-0.09138882732165396 l 1.7965083980953485 -9.83075915034995" fill="#ff750a" stroke="none" /><path d="M 96.22490169976321 120.6578951692458 l -2.038880736570688 11.157056364871346 a32.34182266599488,32.34182266599488 0 0,0 -0.5467806881051136,-0.10479182022434798 l 2.2306290392474963 -11.120307346298532" fill="#ff880c" stroke="none" /><path d="M 95.86986931433489 120.58985236759428 l -1.9284080947258557 9.613651721164624 a30.805154623750497,30.805154623750497 0 0,0 -0.5190060351367111,-0.10876276086405885 l 2.0936055912919533 -9.579032979574023" fill="#ff730a" stroke="none" /><path d="M 95.16358092515715 120.4354850818985 l -3.7932440721077927 16.027722463251898 a37.47047625145097,37.47047625145097 0 0,0 -0.6263756003418762,-0.1539478829213911 l 4.068572957192879 -15.960053322016476" fill="#ffcb12" stroke="none" /><path d="M 94.81253420990036 120.34920634021253 l -4.180826922463522 16.40039918533936 a37.924904938996725,37.924904938996725 0 0,0 -0.6311960348402433,-0.1667046096527962 l 4.462513400115254 -16.326003226382984" fill="#ffd113" stroke="none" /><path d="M 94.46302465271185 120.25689768951611 l -1.9740720919738566 7.222097605767505 a28.48703241956002,28.48703241956002 0 0,0 -0.4718928900932542,-0.1333616443510289 l 2.098096150171725 -7.187047168077955" fill="#ff5307" stroke="none" /><path d="M 94.11515582081647 120.15858648285463 l -2.1465426302901243 7.353001019959237 a28.65991313679042,28.65991313679042 0 0,0 -0.47237681747675797,-0.14232326013962646 l 2.272794422207128 -7.314962390713885" fill="#ff5507" stroke="none" /><path d="M 93.76903079525671 120.05430185196036 l -6.254260778646484 20.129265511435083 a42.07849871117878,42.07849871117878 0 0,0 -0.6898442350893919,-0.22086633951268775 l 6.599826358826816 -20.018626325262687" fill="#f9ff18" stroke="none" /><path d="M 93.42475214034765 119.94407469862007 l -3.6782845420480412 11.156991072464963 a32.74769028206534,32.74769028206534 0 0,0 -0.5338345504737354,-0.18110566358783006 l 3.8697888254590027 -11.09202242197901" fill="#ff8d0d" stroke="none" /><path d="M 93.08242187328487 119.8279376855182 l -1.7638556457154806 5.055760728517213 a26.35461513863875,26.35461513863875 0 0,0 -0.42704571518145007,-0.1531233999052794 l 1.8506209215266571 -5.024649787571976" fill="#ff3405" stroke="none" /><path d="M 92.7421414339146 119.70592522655815 l -3.621080844502602 9.831653195134844 a31.477291206787605,31.477291206787605 0 0,0 -0.5068290250864467,-0.19163936965194678 l 3.789780090349332 -9.767865575376264" fill="#ff7c0b" stroke="none" /><path d="M 92.06813273071674 119.44442032107085 l -2.828965795616823 6.935012669327827 a28.48982297497794,28.48982297497794 0 0,0 -0.45248424171524093,-0.18913844973452995 l 2.947921496829526 -6.885289176573324" fill="#ff5307" stroke="none" /><path d="M 91.7346041902142 119.30500536409082 l -3.58839718067917 8.381211065474073 a30.117087980837482,30.117087980837482 0 0,0 -0.4748164366651934,-0.20814557226519678 l 3.7321342920021063 -8.318200939914425" fill="#ff6909" stroke="none" /><path d="M 91.40352486487194 119.15986991738527 l -7.028218991481264 15.664532207789822 a38.16896710583087,38.16896710583087 0 0,0 -0.5971298696555265,-0.2741130357882238 l 7.29681685690421 -15.541232101667523" fill="#ffd413" stroke="none" /><path d="M 91.07499286063937 119.00905698771935 l -4.002926929863202 8.525692466045143 a30.4186440654376,30.4186440654376 0 0,0 -0.47205003607313,-0.22661270374855613 l 4.149089633936574 -8.455525485797024" fill="#ff6d0a" stroke="none" /><path d="M 90.10565033884886 118.52300852407294 l -7.56059547280764 14.154035301557144 a37.0467853235832,37.0467853235832 0 0,0 -0.5598954550145215,-0.30529964392834197 l 7.803113739690803 -14.021795005869036" fill="#ffc612" stroke="none" /><line stroke="#e1ed5e" stroke-width="0.3" x1="58.666819895761336" x2="56.23545636021788" y1="174.27360380694188" y2="178.64263932499728" /><path d="M 58.180547188652646 175.14741091055294 a86.0,86.0 0 0,1 -31.652253787137756,-30.449443065178592" fill="none" id="id128" stroke="none" /><text fill="#e1ed5e" style="font-size:6.75px; font-family:Arial;" text-anchor="middle"><textPath startOffset="22.20632615414155" xlink:href="#id128">August</textPath></text><path d="M 89.7882731507175 118.34994917583269 l -3.6595175276094873 6.575965224179622 a28.525648620849953,28.525648620849953 0 0,0 -0.42700346753983554,-0.24246371297506697 l 3.7721697620705306 -6.511998345409921" fill="#ff5307" stroke="none" /><path d="M 89.4739219176387 118.17145234162733 l -3.7595532388639867 6.490218101298972 a28.50047808864752,28.50047808864752 0 0,0 -0.42239354629708165,-0.24955755244053404 l 3.8707146561894508 -6.424541976564689" fill="#ff5307" stroke="none" /><path d="M 89.1626897886671 117.98757091392108 l -10.962797697941111 18.195852768011996 a42.243163401931284,42.243163401931284 0 0,0 -0.6196082375453852,-0.3806139863475602 l 11.274385135418806 -18.004450314836056" fill="#f7ff18" stroke="none" /><path d="M 88.8546689885994 117.79835938074946 l -3.992864714458733 6.376341902627745 a28.523343983042118,28.523343983042118 0 0,0 -0.4138848561003963,-0.2641608974474788 l 4.102031372606053 -6.306666576356462" fill="#ff5307" stroke="none" /><path d="M 88.54995079064634 117.60387380957326 l -6.22783658029866 9.574984985799066 a32.422183939561805,32.422183939561805 0 0,0 -0.4652202068141349,-0.3083225853938936 l 6.391731485852756 -9.466364379313854" fill="#ff890c" stroke="none" /><path d="M 88.24862548938628 117.40417183066458 l -13.029482013892865 19.29709104492681 a44.284010057259295,44.284010057259295 0 0,0 -0.6280803579450175,-0.43199939733705056 l 13.359719256460773 -19.069950858224654" fill="#deff1b" stroke="none" /><path d="M 87.95078237400918 117.19931262002967 l -11.097699956295441 15.841095815208112 a40.341645766236226,40.341645766236226 0 0,0 -0.5653068523144749,-0.4033314292985311 l 11.368734136458803 -15.647720124065362" fill="#fff016" stroke="none" /><path d="M 87.65650970185807 116.9893568818739 l -4.401000026782531 6.057456868856628 a28.48742846067982,28.48742846067982 0 0,0 -0.39423213641902377,-0.2916435097635135 l 4.504617133620118 -5.980803410353348" fill="#ff5307" stroke="none" /><path d="M 87.36589467227662 116.77436683061367 l -18.03160931511003 23.94066072365649 a50.97155602196842,50.97155602196842 0 0,0 -0.6962988136517883,-0.5338922386035914 l 18.441036857255305 -23.626729143225532" fill="#92ff23" stroke="none" /><path d="M 87.07902340077011 116.55440617244103 l -6.445839295301264 8.258434724125896 a31.47619149851215,31.47619149851215 0 0,0 -0.4242428648308313,-0.3370441897283528 l 6.587039652849453 -8.146256620392412" fill="#ff7c0b" stroke="none" /><path d="M 86.79598089348748 116.32954008644616 l -11.327280692709074 14.008559261383484 a39.01518860492759,39.01518860492759 0 0,0 -0.5185859323856267,-0.4267609172028366 l 11.56673675363939 -13.811503225323467" fill="#ffdf14" stroke="none" /><path d="M 86.24171649860922 115.8653595955263 l -10.786021782833076 12.437897080150151 a37.46327882519631,37.46327882519631 0 0,0 -0.4835575338458175,-0.426683301348533 l 10.99852166958548 -12.25039063702933" fill="#ffcb12" stroke="none" /><path d="M 85.97065885151581 115.62618273729859 l -16.985470259636564 18.91878309514974 a46.42491993580947,46.42491993580947 0 0,0 -0.59003962127775,-0.5389872043328297 l 17.308609430381168 -18.623603124230335" fill="#c5ff1e" stroke="none" /><path d="M 85.70375840098266 115.38237550388516 l -5.097084511869175 5.4843272893484185 a28.487196827773957,28.487196827773957 0 0,0 -0.35631265644341964,-0.33691585658191653 l 5.190733002703412 -5.395776796020571" fill="#ff5307" stroke="none" /><path d="M 85.44109423537348 115.13401014063109 l -18.16209948113292 18.879536839262414 a47.197304609971525,47.197304609971525 0 0,0 -0.5806393282723947,-0.5682777910934965 l 18.48438876178111 -18.564108945246346" fill="#bcff1f" stroke="none" /><path d="M 85.18274418774928 114.88116024355367 l -5.286998363544661 5.309800333626228 a28.493085564645657,28.493085564645657 0 0,0 -0.3445755333446009,-0.34905319606320934 l 5.377614521944794 -5.2180066435823536" fill="#ff5307" stroke="none" /><path d="M 84.9287848128048 114.62390073753433 l -5.395372577073357 5.235237638712222 a28.517829366195027,28.517829366195027 0 0,0 -0.33881007598849694,-0.35524101012910525 l 5.484689204440811 -5.141589512000617" fill="#ff5307" stroke="none" /><path d="M 84.67929136418377 114.36230785411682 l -13.234148452962035 12.406274330168946 a39.139964940165854,39.139964940165854 0 0,0 -0.4565464287149933,-0.495490979355356 l 13.445741289672757 -12.176632096012247" fill="#ffe115" stroke="none" /><path d="M 84.43433777217949 114.09645910891817 l -8.877052955551145 8.039170589990968 a32.97624035123857,32.97624035123857 0 0,0 -0.37740702572807444,-0.4240207942699054 l 9.014118830927558 -7.885175625980198" fill="#ff900d" stroke="none" /><path d="M 84.19399662182784 113.82643327865904 l -13.689235799610072 11.974773185264699 a39.18764332220809,39.18764332220809 0 0,0 -0.4397553181498566,-0.5115347840241413 l 13.893333627330708 -11.737361302079027" fill="#ffe115" stroke="none" /><path d="M 83.95833913139862 113.55231037782056 l -5.717560838010833 4.830307766476949 a28.48480962050757,28.48480962050757 0 0,0 -0.3132026896974417,-0.3772728161524675 l 5.799859527601811 -4.73117369321072" fill="#ff5307" stroke="none" /><path d="M 83.72743513129214 113.27417163493432 l -20.235551787222178 16.506936043483023 a47.11429672951178,47.11429672951178 0 0,0 -0.5072237417464219,-0.6328396070442907 l 20.51669344102346 -16.156168602860472" fill="#bdff1f" stroke="none" /><path d="M 83.50135304334701 112.99209946851258 l -5.88319114394734 4.6328044193717455 a28.48831188081605,28.48831188081605 0 0,0 -0.30006763700009603,-0.38787787034715143 l 5.962065598165505 -4.5308485549113415" fill="#ff5307" stroke="none" /><path d="M 83.28015986056508 112.70617746262583 l -8.348142650123247 6.344138527114319 a31.48520764496455,31.48520764496455 0 0,0 -0.3242057818566361,-0.43432662574863345 l 8.456109698674968 -6.1994990218563775" fill="#ff7c0b" stroke="none" /><path d="M 82.85270091963577 112.12312394758628 l -18.40641625487676 13.013318578216461 a43.54201898158071,43.54201898158071 0 0,0 -0.42741487110439025,-0.6157229999333023 l 18.627692033143283 -12.694554316096147" fill="#e7ff1a" stroke="none" /><path d="M 82.44556493220864 111.52570212397912 l -6.256705810762596 4.107960590798546 a28.48476504761401,28.48476504761401 0 0,0 -0.2655799268652543,-0.4121859442515427 l 6.326490601004896 -3.9996530466255553" fill="#ff5307" stroke="none" /><path d="M 82.24976979558568 111.22182372390057 l -14.68839912073603 9.286112000857539 a38.37759893720963,38.37759893720963 0 0,0 -0.3482042686752338,-0.5614161517573018 l 14.84606802907922 -9.031899517734972" fill="#ffd714" stroke="none" /><path d="M 82.05923443525364 110.91462005526583 l -15.344602552528517 9.335192868748615 a38.961142875435286,38.961142875435286 0 0,0 -0.3436356554849617,-0.575953124478771 l 15.503019083711711 -9.069677650383733" fill="#ffde14" stroke="none" /><line stroke="#e1ed5e" stroke-width="0.3" x1="26.63291911575756" x2="22.317208475507996" y1="142.92168965132927" y2="145.44649492493687" /><path d="M 25.769776987707644 143.4266507060508 a86.0,86.0 0 0,1 -11.730757126820373,-40.83630448921669" fill="none" id="id129" stroke="none" /><text fill="#e1ed5e" style="font-size:6.75px; font-family:Arial;" text-anchor="middle"><textPath startOffset="21.46611528233685" xlink:href="#id129">September</textPath></text><path d="M 81.87401531095188 110.60418214915194 l -9.043513784359476 5.290695599873108 a31.477432963203178,31.477432963203178 0 0,0 -0.26957873736568827,-0.4700332514564792 l 9.133244517877543 -5.134242502558322" fill="#ff7c0b" stroke="none" /><path d="M 81.51974371655577 109.97397251340807 l -38.46011620280162 20.757295569157044 a64.70407140848951,64.70407140848951 0 0,0 -0.520551932004865,-0.984688080235635 l 38.81172064303137 -20.092192473835283" fill="#35ff63" stroke="none" /><path d="M 81.35079622478065 109.6543875284942 l -24.093761267900124 12.472945821334159 a48.130862675125194,48.130862675125194 0 0,0 -0.37455283822397545,-0.7390282836528838 l 24.304892775910364 -12.056363325978591" fill="#b1ff20" stroke="none" /><path d="M 81.18737489456691 109.33194174019688 l -34.0556467244745 16.893193234671998 a59.01535283916458,59.01535283916458 0 0,0 -0.44358958359025846,-0.9139259290905623 l 34.341389564679474 -16.30447834961615" fill="#3dff2e" stroke="none" /><path d="M 81.02952815118164 109.00673069616217 l -8.679348768894922 4.120749215016095 a30.607896187260433,30.607896187260433 0 0,0 -0.22187136784916797,-0.47789118774359973 l 8.748994753583917 -3.9707379599936674" fill="#ff700a" stroke="none" /><path d="M 80.87730276802145 108.67885076344099 l -21.889820077052384 9.934711582925367 a45.03877528580932,45.03877528580932 0 0,0 -0.31432543099618354,-0.7087208674060642 l 22.05758659277985 -9.556442379026608" fill="#d5ff1c" stroke="none" /><path d="M 80.73074385275274 108.34839909993369 l -40.79194083090153 17.673095396881525 a65.45582906277923,65.45582906277923 0 0,0 -0.4390185380350741,-1.0377101399352668 l 41.09011035012891 -16.968310731280102" fill="#36ff6c" stroke="none" /><path d="M 80.58989483394504 108.01547362559985 l -39.85635328135821 16.458826256027315 a64.12101411857712,64.12101411857712 0 0,0 -0.41250387517070936,-1.0238007889771101 l 40.133759770786305 -15.770326099207399" fill="#34ff5c" stroke="none" /><path d="M 80.45479744820244 107.68017299344265 l -6.9698156228111525 2.738748272049287 a28.48859612435037,28.48859612435037 0 0,0 -0.1754161164394614,-0.45795612693280574 l 7.015926018844123 -2.6183685782833233" fill="#ff5307" stroke="none" /><path d="M 80.20201598880116 107.00284435728193 l -29.719218872147746 10.512134168000276 a52.52359330940338,52.52359330940338 0 0,0 -0.29415505547593984,-0.8549522821424024 l 29.895764758566912 -9.999009182768578" fill="#81ff25" stroke="none" /><path d="M 79.97269907076064 106.31721596034903 l -7.140975027738218 2.252479331941364 a28.487802580704425,28.487802580704425 0 0,0 -0.14348794396044265,-0.468926903019604 l 7.178689744204791 -2.1292254563697117" fill="#ff5307" stroke="none" /><path d="M 79.86692584326677 105.97154293290107 l -8.611068192289085 2.55407410751507 a29.981858936708576,29.981858936708576 0 0,0 -0.1424957277012228,-0.49604632181119607 l 8.653756556876413 -2.405470310199278" fill="#ff6709" stroke="none" /><path d="M 79.76711848015287 105.62410040840567 l -14.43753770013663 4.013178330336224 a35.98492893389711,35.98492893389711 0 0,0 -0.16075311457111482,-0.598222140945589 l 14.50447889104952 -3.764065256215096" fill="#ffb811" stroke="none" /><path d="M 79.67330655649465 105.27499134158121 l -14.49020324822337 3.7603605763313395 a35.97018042105205,35.97018042105205 0 0,0 -0.15037023160637036,-0.6006543278817121 l 14.552784794124799 -3.5103784090522354" fill="#ffb811" stroke="none" /><path d="M 79.58551787078972 104.9243191809786 l -14.872911989334575 3.5875985157268375 a36.2994893428682,36.2994893428682 0 0,0 -0.14129046266170908,-0.6086756152316809 l 14.93246301792684 -3.3310542431465824" fill="#ffbc11" stroke="none" /><path d="M 79.50377843672027 104.57218783832718 l -15.762414988700709 3.5161955042054696 a37.14984077629905,37.14984077629905 0 0,0 -0.13385611493203028,-0.6253312059672195 l 15.82060514235718 -3.2443504788220863" fill="#ffc712" stroke="none" /><path d="M 79.35854240842038 103.8639653848113 l -23.565887691897437 4.4114023391927475 a44.97522749225455,44.97522749225455 0 0,0 -0.13589705671370853,-0.7621828640953077 l 23.638331190950332 -4.005100724364226" fill="#d6ff1c" stroke="none" /><path d="M 79.29508885075956 103.50808413554451 l -18.536845698969884 3.140743461822502 a39.801035023646946,39.801035023646946 0 0,0 -0.1086345477219174,-0.6764674323641643 l 18.588162001053092 -2.821196799765124" fill="#ffe915" stroke="none" /><path d="M 79.23777060512086 103.15116336523772 l -7.4038880825894235 1.1237165548286616 a28.48867796310575,28.48867796310575 0 0,0 -0.06941191634594328,-0.4854667812566462 l 7.422134049951966 -0.9961043015916148" fill="#ff5307" stroke="none" /><path d="M 79.18660465613746 102.79330883721812 l -14.952421649891425 2.0067235951855156 a36.086479138076456,36.086479138076456 0 0,0 -0.07732557608612102,-0.6163609227193259 l 14.984748735224395 -1.749044918178781" fill="#ffb911" stroke="none" /><path d="M 79.1416061653843 102.43462659150553 l -21.06078806550829 2.4582503844210093 a42.20376827105886,42.20376827105886 0 0,0 -0.07801205486978266,-0.7222947403305184 l 21.099982421879126 -2.0953593222057085" fill="#f7ff18" stroke="none" /><path d="M 79.10278846688536 102.07522291339032 l -18.66012799284828 1.8530666216490712 a39.75191277213474,39.75191277213474 0 0,0 -0.061758200140446716,-0.6814965923220222 l 18.689260789265802 -1.531588640778483" fill="#ffe815" stroke="none" /><path d="M 79.07016306316243 101.71520430193888 l -8.951342065080933 0.7335642635194426 a29.981349636596953,29.981349636596953 0 0,0 -0.0377243063469843,-0.5147181880036326 l 8.962642930092253 -0.5793729390190494" fill="#ff6709" stroke="none" /><path d="M 79.04373962182676 101.35467743843564 l -4.673494992222943 0.3021091602393163 a25.68324944744922,25.68324944744922 0 0,0 -0.024721532971368365,-0.4414195781903175 l 4.678002876081843 -0.22161786571356118" fill="#ff2b04" stroke="none" /><path d="M 79.0235259727143 100.99374915477108 l -5.2750199951291386 0.24990123005140855 a26.280936145589475,26.280936145589475 0 0,0 -0.01751795489104927,-0.45206057645519954 l 5.278540082871388 -0.1590634065822122" fill="#ff3304" stroke="none" /><path d="M 79.0095281055655 100.63252640178507 l -15.068834836078663 0.45408392559700567 a36.075674960959574,36.075674960959574 0 0,0 -0.013361635163923318,-0.620862682530278 l 15.074418533927593 -0.19463142727659888" fill="#ffb911" stroke="none" /><line stroke="#e1ed5e" stroke-width="0.3" x1="15.007084014347285" x2="10.007500721073583" y1="101.09737516637583" y2="101.16192664675087" /><path d="M 14.007167355692545 101.11028546245083 a86.0,86.0 0 0,1 10.666146001902534,-42.60595125391555" fill="none" id="id130" stroke="none" /><text fill="#e1ed5e" style="font-size:6.75px; font-family:Arial;" text-anchor="middle"><textPath startOffset="22.20632615414155" xlink:href="#id130">October</textPath></text><path d="M 79.00175016825051 100.2711162175752 l -6.377399409467553 0.08234097697260942 a27.377930954813316,27.377930954813316 0 0,0 -0.0020281867330572585,-0.4712791688837721 l 6.377871893490113 0.027447670114838025" fill="#ff4306" stroke="none" /><path d="M 79.00486145842228 99.54816195383935 l -32.31426490650553 -0.6954378647970504 a53.3217473270182,53.3217473270182 0 0,0 0.027646832240736444,-0.9174637667006279 l 32.29750637980915 1.2515717789226728" fill="#78ff26" stroke="none" /><path d="M 79.01574976396665 99.18683210126434 l -4.492862248146921 -0.17410445036348313 a25.496234373390713,25.496234373390713 0 0,0 0.020768979702940744,-0.4384003359603833 l 4.489199660210482 0.25141589294687555" fill="#ff2803" stroke="none" /><path d="M 79.05617556472873 98.46500227214037 l -5.3777975349767075 -0.3941451582823805 a26.3922218734951,26.3922218734951 0 0,0 0.03710685590310965,-0.45279763023736846 l 5.370216195254101 0.48665670572752734" fill="#ff3505" stroke="none" /><path d="M 79.12142395522702 97.74499172005258 l -31.673887775523664 -3.4209650619258962 a52.85809424261572,52.85809424261572 0 0,0 0.10548876526719306,-0.903763319905988 l 31.610308657252883 3.965672120156746" fill="#7dff26" stroke="none" /><path d="M 79.3925641242962 95.95851677861259 l -7.3484974053381755 -1.441170514624681 a28.48848359606172,28.48848359606172 0 0,0 0.09851684462191093,-0.480403121921668 l 7.32260126480127 1.5674492927097514" fill="#ff5307" stroke="none" /><path d="M 79.46518482838121 95.60439243477599 l -14.666092145279027 -3.13937014028546 a35.998330030091054,35.998330030091054 0 0,0 0.13491764913910834,-0.6048093663981617 l 14.609880109137881 3.391357676233581" fill="#ffb811" stroke="none" /><path d="M 79.71946130924805 94.55025226153421 l -17.141064241753483 -4.606114142766355 a38.74915127086679,38.74915127086679 0 0,0 0.17863954630215334,-0.6426614947501152 l 17.059237924884968 4.900486940935413" fill="#ffdc14" stroke="none" /><path d="M 79.81627453868168 94.20196356495316 l -7.200813587242975 -2.0685269238738533 a28.492030429263757,28.492030429263757 0 0,0 0.13946727178295787,-0.47021430755743837 l 7.16414041834831 2.192170618177831" fill="#ff5307" stroke="none" /><path d="M 79.91906864156998 93.8553929516997 l -15.471081378635008 -4.734029213444839 a37.17916535604034,37.17916535604034 0 0,0 0.1925252547878363,-0.610357669947606 l 15.387300640078967 4.99963704981886" fill="#ffc812" stroke="none" /><path d="M 80.02781315780177 93.51064311812611 l -7.333684596535173 -2.3828585713741512 a28.711092317734792,28.711092317734792 0 0,0 0.15676626399618795,-0.4687111757618939 l 7.291581038767213 2.508742850058367" fill="#ff5607" stroke="none" /><path d="M 80.2630227832202 92.82701384747504 l -11.255801260539982 -4.090682463208469 a32.9760905570881,32.9760905570881 0 0,0 0.19847745407479728,-0.5318209001386168 l 11.183719217963557 4.283826500376428" fill="#ff900d" stroke="none" /><path d="M 80.38941819471856 92.48833698450439 l -15.113589893357046 -5.789129326225475 a37.184394267946765,37.184394267946765 0 0,0 0.23409603647451596,-0.5957488787523314 l 15.01170030700084 6.048427209873569" fill="#ffc812" stroke="none" /><path d="M 80.52162464483688 92.15188598940014 l -16.659583994279895 -6.712382946333163 a38.96100842605145,38.96100842605145 0 0,0 0.2559892485637684,-0.619898270282219 l 16.54157305882993 6.998155787068693" fill="#ffde14" stroke="none" /><path d="M 80.65960295795068 91.81776055985345 l -17.23799166143747 -7.292785920292854 a39.71718683453818,39.71718683453818 0 0,0 0.2717966060493861,-0.6273440403633416 l 17.109904345545402 7.588429105242795" fill="#ffe815" stroke="none" /><path d="M 80.803312248108 91.48605970444005 l -10.946346326658103 -4.854823930263888 a32.97463207355467,32.97463207355467 0 0,0 0.2345873157511914,-0.5168820545306926 l 10.861156693943562 5.042527993636652" fill="#ff900d" stroke="none" /><path d="M 81.43458229118936 90.18545643968196 l -13.565378107088861 -7.171289999094645 a36.34427852456415,36.34427852456415 0 0,0 0.2971437267816997,-0.5505621974154798 l 13.43992628108869 7.403733179842598" fill="#ffbd11" stroke="none" /><path d="M 81.6062741919709 89.86733742301443 l -15.075544378130171 -8.304755977241163 a38.211653323794756,38.211653323794756 0 0,0 0.3223286857091874,-0.5733867654753821 l 14.930358051128554 8.56302625265133" fill="#ffd513" stroke="none" /><line stroke="#e1ed5e" stroke-width="0.3" x1="26.266209847984243" x2="21.928928074336255" y1="57.711370442889674" y2="55.22380399835377" /><path d="M 25.398753493254645 57.213857153982495 a86.0,86.0 0 0,1 29.58750427330803,-30.492523968695096" fill="none" id="id131" stroke="none" /><text fill="#e1ed5e" style="font-size:6.75px; font-family:Arial;" text-anchor="middle"><textPath startOffset="21.46611528233685" xlink:href="#id131">November</textPath></text><path d="M 81.78341655067845 89.55222093294921 l -12.980643629908922 -7.444804190132566 a35.96403082314757,35.96403082314757 0 0,0 0.3126136139912678,-0.5343580015029168 l 12.850570341447328 7.667141603989375" fill="#ffb811" stroke="none" /><path d="M 81.96595687620814 89.24020034530311 l -6.4281923854012115 -3.835305357427924 a28.485400759374574,28.485400759374574 0 0,0 0.25485508486534675,-0.41891474988602584 l 6.361221502249648 3.9453878805210247" fill="#ff5307" stroke="none" /><path d="M 82.15384107792192 88.93136811851018 l -6.3656980320522205 -3.9481643357071263 a28.49066839854917,28.49066839854917 0 0,0 0.26207670948128253,-0.41454241654147445 l 6.296793726324975 4.057154399962816" fill="#ff5307" stroke="none" /><path d="M 82.34701348167596 88.62581576622439 l -12.587920451009765 -8.110657433589308 a35.97459532962368,35.97459532962368 0 0,0 0.33988003595402794,-0.5176606125869363 l 12.446443779697816 8.326136110153913" fill="#ffb811" stroke="none" /><path d="M 82.54541684631803 88.32363383020206 l -6.222285980428272 -4.162441971887177 a28.486171651222154,28.486171651222154 0 0,0 0.276147029283311,-0.40521169071958696 l 6.1497144854762205 4.26893168587718" fill="#ff5307" stroke="none" /><path d="M 82.7489923806493 88.02491185347247 l -13.174989290149176 -9.145648854859799 a37.038180563017235,37.038180563017235 0 0,0 0.36806670804414215,-0.5206042561013815 l 13.015609962301156 9.371079611292966" fill="#ffc612" stroke="none" /><path d="M 83.17141714833178 87.43820079747576 l -16.92081512001207 -12.630646546661351 a42.11509451819521,42.11509451819521 0 0,0 0.4386468786126207,-0.5772078746450525 l 16.700892301175337 12.92003919718743" fill="#f9ff18" stroke="none" /><path d="M 83.39014120810768 87.1503855733568 l -6.511598969521001 -5.037462214917456 a29.23267554969756,29.23267554969756 0 0,0 0.31132231428620255,-0.39534772386747047 l 6.4239225746408275 5.148802332737974" fill="#ff5d08" stroke="none" /><path d="M 83.6137871275137 86.86637796730984 l -23.365602967136986 -18.727634037486933 a50.944543387066695,50.944543387066695 0 0,0 0.5543288087821135,-0.6795415749907272 l 23.03977566627848 19.12705978208574" fill="#92ff23" stroke="none" /><path d="M 83.84228863543731 86.58626213691792 l -5.761542852774389 -4.783092343358088 a28.48821396659086,28.48821396659086 0 0,0 0.31647609329112003,-0.37460787275832813 l 5.678356145996145 4.881559165745531" fill="#ff5307" stroke="none" /><path d="M 84.07557802195018 86.31012108654704 l -4.543674643894494 -3.9060981794366993 a26.99187635528041,26.99187635528041 0 0,0 0.30591838999321713,-0.34971760310311434 l 4.475764390323434 3.9837313387427566" fill="#ff3d05" stroke="none" /><path d="M 84.31358615837235 86.03803664274999 l -15.35743702547853 -13.66915186452567 a41.55958619931356,41.55958619931356 0 0,0 0.4802237087918613,-0.5302750135398425 l 15.119869676070625 13.931479665335068" fill="#ffff18" stroke="none" /><path d="M 84.5562425177563 85.77008943001954 l -5.506728952860141 -5.07391161913905 a28.48789976422644,28.48789976422644 0 0,0 0.33538760714985333,-0.35776811508281414 l 5.418574023739831 5.167949151099914" fill="#ff5307" stroke="none" /><path d="M 84.80347519578584 85.50635884689758 l -12.758907140262462 -12.168770424764425 a38.63146860203261,38.63146860203261 0 0,0 0.46309148536964495,-0.4772564825642129 l 12.5475513911897 12.386591102878763" fill="#ffda14" stroke="none" /><path d="M 85.05521093208273 85.24692304244772 l -4.264456713721679 -4.209752161356816 a26.99229541355016,26.99229541355016 0 0,0 0.3292599883933133,-0.32784604136467266 l 4.191360925161053 4.282534053371598" fill="#ff3d05" stroke="none" /><path d="M 85.31137513191541 84.99185889309783 l -4.7139910015011015 -4.816532708988795 a27.739487999766176,27.739487999766176 0 0,0 0.34412387797862254,-0.33104689796644016 l 4.630383879910051 4.8969626937175486" fill="#ff4806" stroke="none" /><path d="M 85.57189188830299 84.74124197986013 l -16.679374606193097 -17.639633628530618 a45.27670100739611,45.27670100739611 0 0,0 0.5709006416445708,-0.5305899274090272 l 16.37326608075367 17.924128142014293" fill="#d3ff1c" stroke="none" /><path d="M 85.83668400450813 84.49514656593479 l -4.041081744945955 -4.423849626062627 a26.99172656112993,26.99172656112993 0 0,0 0.3457370414646632,-0.3104061295019745 l 3.9643337158853202 4.49275476433388" fill="#ff3d05" stroke="none" /><path d="M 86.37877921826538 84.01681056812374 l -21.840067242459973 -25.62721341461875 a54.671094495926155,54.671094495926155 0 0,0 0.7215086564639143,-0.6042427503103798 l 21.39570104903695 25.999357322322943" fill="#6aff28" stroke="none" /><path d="M 86.65592168130627 83.78471172551755 l -2.857047677944981 -3.4717910525838143 a25.496226701007394,25.496226701007394 0 0,0 0.34128107976581984,-0.2759588986623979 l 2.796863199614661 3.520456048510346" fill="#ff2803" stroke="none" /><path d="M 86.93701828274178 83.55741782278169 l -2.795248249078345 -3.518423284668196 a25.49363051263351,25.49363051263351 0 0,0 0.34594546413785104,-0.27001592205561753 l 2.7342702297810684 3.5660175959470353" fill="#ff2803" stroke="none" /><path d="M 87.80319425747018 82.90503203632743 l -18.624415048441666 -26.103865660913062 a53.066815219781596,53.066815219781596 0 0,0 0.74816340514501,-0.5241362772775144 l 18.172320503712996 26.42058678095452" fill="#7bff26" stroke="none" /><line stroke="#e1ed5e" stroke-width="0.3" x1="56.762969772571076" x2="54.21961505331055" y1="26.818313649435495" y2="22.513508569990535" /><path d="M 56.25429882871897 25.957352633546506 a86.0,86.0 0 0,1 42.265352541879196,-11.944610805530505" fill="none" id="id132" stroke="none" /><text fill="#e1ed5e" style="font-size:6.75px; font-family:Arial;" text-anchor="middle"><textPath startOffset="22.20632615414155" xlink:href="#id132">December</textPath></text><path d="M 89.63071344664047 81.73862282372117 l -2.52965153769866 -4.454975818900709 a26.123079781651974,26.123079781651974 0 0,0 0.39293579153680697,-0.21866834256767964 l 2.452591657089808 4.497859559028573" fill="#ff3104" stroke="none" /><path d="M 89.94658935756843 81.56283822128135 l -10.988226041608861 -20.151539452214383 a43.95268293327915,43.95268293327915 0 0,0 0.6673586034117558,-0.35647985385052033 l 10.6397223916688 20.337698032566653" fill="#e2ff1b" stroke="none" /><path d="M 90.58718382345135 81.22770947309562 l -12.995157523203504 -25.91667232132342 a49.992206250365356,49.992206250365356 0 0,0 0.7725670168468824,-0.3790952799450476 l 12.547119239346197 26.136522761403295" fill="#9cff22" stroke="none" /><path d="M 90.91171255644093 81.06846463323043 l -3.2406387600635957 -6.75047611313698 a28.48803494431346,28.48803494431346 0 0,0 0.443900273858929,-0.20841713062960326 l 3.123960274905058 6.805258226406591" fill="#ff5307" stroke="none" /><path d="M 91.23893434514133 80.91482961587045 l -9.638522072628362 -20.99662795076647 a44.103235553650315,44.103235553650315 0 0,0 0.6926683675745611,-0.31078010573242115 l 9.275671586587025 21.15942838701542" fill="#e0ff1b" stroke="none" /><path d="M 91.56875222667455 80.76684994638697 l -9.686719059768114 -22.097099529341744 a45.127045690521456,45.127045690521456 0 0,0 0.7141166783761502,-0.30574749345201474 l 9.304918623601655 22.260566550756543" fill="#d4ff1c" stroke="none" /><path d="M 91.90106846888425 80.62456947434976 l -2.88776581244465 -6.908529311354852 a28.487787966640965,28.487787966640965 0 0,0 0.45406295962765536,-0.18522368207406273 l 2.768418983228614 6.957213879612492" fill="#ff5307" stroke="none" /><path d="M 92.57280143429618 80.3572730644239 l -6.254274271038251 -16.540691702183153 a38.68362034890033,38.68362034890033 0 0,0 0.6248651297833749,-0.2301431007529742 l 5.968626815482307 16.64589807074245" fill="#ffdb14" stroke="none" /><path d="M 92.91201910852362 80.23233633223022 l -9.818215814935886 -27.382013442026153 a50.08903611204672,50.08903611204672 0 0,0 0.814109020198358,-0.2840266516975665 l 9.345424790674242 27.54696094689593" fill="#9bff22" stroke="none" /><path d="M 93.59665428221793 80.00007090966166 l -5.429462522930795 -16.95814504528693 a38.8061154288323,38.8061154288323 0 0,0 0.6379256511575611,-0.19820660507760518 l 5.1367514990625045 17.04909178524706" fill="#ffdc14" stroke="none" /><path d="M 94.28887869178378 79.79150937346287 l -1.2217253545876756 -4.3230083978200495 a25.492328399579115,25.492328399579115 0 0,0 0.42329660578739436,-0.11570295248361619 l 1.1471308595765588 4.343397891129962" fill="#ff2803" stroke="none" /><path d="M 94.98787191387505 79.60689891045804 l -1.7870025332400008 -7.27086831809318 a28.48724943840242,28.48724943840242 0 0,0 0.4771971226676108,-0.11293714131474661 l 1.661581723609856 7.300551371548798" fill="#ff5307" stroke="none" /><path d="M 95.692805502759 79.44645832069477 l -1.5354121230144633 -7.326847460801463 a28.48599920527331,28.48599920527331 0 0,0 0.48078071324958654,-0.0964400881277454 l 1.4090650002977403 7.352191505006418" fill="#ff5307" stroke="none" /><path d="M 96.04723909329186 79.375362276772 l -1.7631731229303194 -9.199849867482882 a30.36728440080948,30.36728440080948 0 0,0 0.5142264043706597,-0.09397158854628102 l 1.6045515974567666 9.2288369373799" fill="#ff6d0a" stroke="none" /><path d="M 97.11714578562143 79.19881850522333 l -1.028093090386214 -7.418186760879747 a28.48909007969536,28.48909007969536 0 0,0 0.4863294853230327,-0.06313952494461811 l 0.9002488765553236 7.434784608988502" fill="#ff5307" stroke="none" /><path d="M 97.47563105711357 79.15227682838746 l -2.938299733838899 -24.266207053020374 a45.44345331711404,45.44345331711404 0 0,0 0.7773715018575771,-0.08734674591184174 l 2.520161528471604 24.313189752402813" fill="#d1ff1d" stroke="none" /><path d="M 97.83486435360386 79.11191278185805 l -0.7716881392306283 -7.444840319489986 a28.484727781752184,28.484727781752184 0 0,0 0.4881398947774896,-0.04635476483689 l 0.6434231173629024 7.457020628842056" fill="#ff5307" stroke="none" /><path d="M 98.55514903715128 79.0497635885617 l -1.4230932149801552 -20.634750611623996 a41.683764819356256,41.683764819356256 0 0,0 0.7162421092413102,-0.04320568000178991 l 1.067689056899222 20.656189561006094" fill="#feff18" stroke="none" /><path d="M 98.91598698831166 79.02799685794201 l -0.7875718454583129 -15.236864354444581 a36.257205011649496,36.257205011649496 0 0,0 0.6235534277093789,-0.026851522276647315 l 0.5251775853596098 15.248163603245422" fill="#ffbc11" stroke="none" /><path d="M 99.27714615592234 79.0124445844662 l -0.5153181094803627 -14.961900622036751 a35.97077229062222,35.97077229062222 0 0,0 0.6189942389190934,-0.01598679498039178 l 0.2576972353663903 14.968554209159503" fill="#ffb811" stroke="none" /><path d="M 99.63851952072746 79.00311137660856 l -0.19326925379143584 -11.226202323155471 a32.227865852640136,32.227865852640136 0 0,0 0.5547497330639688,-0.004774906093222745 l 2.750033995538322e-15 11.227865852640136" fill="#ff860c" stroke="none" /></svg>