<?xml version="1.0" encoding="utf-8" ?>
<svg baseProfile="full" height="200mm" version="1.1" viewBox="0,0,200,200" width="200mm" xmlns="http://www.w3.org/2000/svg" xmlns:ev="http://www.w3.org/2001/xml-events" xmlns:xlink="http://www.w3.org/1999/xlink"><defs /><rect fill="#1a1a1a" height="200" width="200" x="0" y="0" /><text alignment-baseline="middle" fill="#e1ed5e" style="dominant-baseline: central; font-size:9.0px; font-family:Arial;" text-anchor="middle" x="100.0" y="100.0">2020</text><line stroke="#e1ed5e" stroke-width="0.3" x1="100.0" x2="100.0" y1="15.0" y2="10.0" /><path d="M 100.0 14.0 a86.0,86.0 0 0,1 42.35913384403234,11.155469271406648" fill="none" id="id85" stroke="none" /><text fill="#e1ed5e" style="font-size:6.75px; font-family:Arial;" text-anchor="middle"><textPath startOffset="22.145653131862478" xlink:href="#id85">January</textPath></text><path d="M 100.0 79.0 l 0.0 -14.94255991664447 a35.94255991664447,35.94255991664447 0 0,0 0.6170018357574464,0.0052962186909253925 l -0.2565089109085916 14.94035809614798" fill="#ff880c" stroke="none" /><path d="M 101.44090949804482 79.04949213459386 l 0.5130092014560228 -7.459041199127309 a28.47666195912702,28.47666195912702 0 0,0 0.48739977301975684,0.037727824963329715 l -0.6409779692510131 7.449135607168926" fill="#ff1702" stroke="none" /><path d="M 101.80034050326958 79.07731436759882 l 1.2815208473352597 -14.893214795462002 a35.94824881469141,35.94824881469141 0 0,0 0.6143734378636637,0.0581818033273439 l -1.5369938485839365 14.869021236629475" fill="#ff880c" stroke="none" /><path d="M 102.15924093988457 79.11130261209362 l 1.5364856629366739 -14.864105001481063 a35.94330638404581,35.94330638404581 0 0,0 0.6131998216745953,0.06871031903106944 l -1.7914213862120658 14.835538921943023" fill="#ff880c" stroke="none" /><path d="M 104.64783097203109 79.52079915486377 l 3.3068358987331075 -14.57052912198912 a35.94106698184179,35.94106698184179 0 0,0 0.6005030840099697,0.14171709274122593 l -3.556471136482962 14.511615885601666" fill="#ff880c" stroke="none" /><path d="M 105.3480935250658 79.69241777938227 l 4.565282919467765 -17.335122845730837 a38.92619011980413,38.92619011980413 0 0,0 0.6447263292580989,0.1757230280099339 l -4.8621906496605565 17.25419932357676" fill="#ffb310" stroke="none" /><path d="M 106.72888874123014 80.10723608172694 l 4.7853227308795185 -14.146956357719374 a35.934379392056734,35.934379392056734 0 0,0 0.5826404175304648,0.20267258189857815 l -5.027468920455001 14.062725343252206" fill="#ff880c" stroke="none" /><path d="M 107.74402155503746 80.48000691201159 l 8.261118549672503 -20.82341530722662 a43.40224776108378,43.40224776108378 0 0,0 0.6901898578152931,0.28069420662180944 l -8.617362868678235 20.67853384402552" fill="#fff016" stroke="none" /><path d="M 109.71004243097381 81.37971332152246 l 14.641873853137849 -28.077723716825083 a52.66611815568122,52.66611815568122 0 0,0 0.7980451345830618,0.42491408409451276 l -15.121707803507471 27.822239165008" fill="#99ff23" stroke="none" /><line stroke="#e1ed5e" stroke-width="0.3" x1="143.13028292997686" x2="145.6673583964461" y1="26.7553504044142" y2="22.446841604673864" /><path d="M 143.63769802327073 25.89364864446614 a86.0,86.0 0 0,1 29.32050498858742,28.57503671076993" fill="none" id="id86" stroke="none" /><text fill="#e1ed5e" style="font-size:6.75px; font-family:Arial;" text-anchor="middle"><textPath startOffset="20.669276256404974" xlink:href="#id86">February</textPath></text><path d="M 110.65571695917076 81.90426304109057 l 7.58199018064369 -12.875876908111838 a35.942382047459,35.942382047459 0 0,0 0.5289815686746531,0.3176382331141641 l -7.801904505875777 12.743824674461752" fill="#ff880c" stroke="none" /><path d="M 111.5731344415666 82.4767994020092 l 6.588677122805508 -9.97609692354746 a32.95546636717254,32.95546636717254 0 0,0 0.4693858246626547,0.3158237308568158 l -6.758959235565164 9.861523518633525" fill="#ff5c08" stroke="none" /><path d="M 114.39649973595853 84.71141617570332 l 10.239189555895642 -10.87366448020505 a35.935781934322534,35.935781934322534 0 0,0 0.4454796561642101,0.4267594334478055 l -10.424341697925165 10.696292916451664" fill="#ff880c" stroke="none" /><path d="M 114.91283532996326 85.21462403516908 l 15.910327836834826 -15.77434294594988 a43.404651910975986,43.404651910975986 0 0,0 0.5200563482026761,0.5336236277196438 l -16.178770986188315 15.498896626162493" fill="#fff016" stroke="none" /><path d="M 115.16444852881244 85.47280134310134 l 12.942751692484768 -12.398863344512401 a38.92335441844552,38.92335441844552 0 0,0 0.4580799988540371,0.48646508451086706 l -13.153687525075064 12.17485680005704" fill="#ffb310" stroke="none" /><path d="M 115.41159269507618 85.73525988315684 l 10.963332384192443 -10.147496781759623 a35.93875322448646,35.93875322448646 0 0,0 0.41518210291127633,0.456357860298862 l -11.135912187945596 9.95780134590309" fill="#ff880c" stroke="none" /><path d="M 116.1254893667686 86.54754324733833 l 11.465559823298728 -9.56497779136173 a35.93143871871981,35.93143871871981 0 0,0 0.39105926707122596,0.47702872047949657 l -11.628065909608582 9.366746789183738" fill="#ff880c" stroke="none" /><path d="M 116.35404254752997 86.82634096563983 l 24.55995506495633 -19.78376129233003 a52.53709884666898,52.53709884666898 0 0,0 0.5597291737477366,0.7071995261207848 l -24.895950669345627 19.359241822294567" fill="#9aff23" stroke="none" /><path d="M 117.62189284568427 88.57770195909679 l 5.025543858630855 -3.2574968122661634 a26.988937848813137,26.988937848813137 0 0,0 0.24866104740732162,0.39093646802648463 l -5.080722597664067 3.170746669561007" fill="#ff0000" stroke="none" /><line stroke="#e1ed5e" stroke-width="0.3" x1="172.87174338648825" x2="177.1583165268699" y1="56.24261187166439" y2="53.66864786411523" /><path d="M 173.72905801456457 55.72781907015455 a86.0,86.0 0 0,1 12.242430191666344,42.057860355516425" fill="none" id="id87" stroke="none" /><text fill="#e1ed5e" style="font-size:6.75px; font-family:Arial;" text-anchor="middle"><textPath startOffset="22.145653131862474" xlink:href="#id87">March</textPath></text><path d="M 118.00360718960297 89.18935116829356 l 27.02336708974114 -16.226755492987785 a52.52094482556184,52.52094482556184 0 0,0 0.4574981703532954,0.7769319119133031 l -27.297938970224205 15.760472412780924" fill="#9aff22" stroke="none" /><path d="M 118.53625476483649 90.13048839642627 l 19.77594006846334 -10.529574202202605 a43.40445800440494,43.40445800440494 0 0,0 0.3445320438023896,0.6606856222438606 l -19.953780181240674 10.188542336854248" fill="#fff016" stroke="none" /><path d="M 119.0197475246899 91.09779779509293 l 20.294918943138544 -9.499046815920549 a43.40793665913071,43.40793665913071 0 0,0 0.31008880225988217,0.6775999950566742 l -20.454992210253476 9.14925783864919" fill="#fff016" stroke="none" /><path d="M 119.31412917781788 91.75594674310238 l 16.4803145430573 -7.034466298352606 a38.91883041776903,38.91883041776903 0 0,0 0.25700171141961664,0.6167105492191174 l -16.5986420990134 6.75052323969221" fill="#ffb310" stroke="none" /><path d="M 119.4528033332814 92.08871423366111 l 14.517798945658418 -5.9042624443159335 a36.672485483736146,36.672485483736146 0 0,0 0.23215661011873573,0.5851863134214417 l -14.617014230743278 5.654175113680926" fill="#ff930d" stroke="none" /><path d="M 119.71291397450082 92.76114493625339 l 16.85332666298518 -6.188774993546599 a38.95370589961958,38.95370589961958 0 0,0 0.22511500591124178,0.6296867367780619 l -16.957081838940365 5.89855330038762" fill="#ffb310" stroke="none" /><path d="M 119.94978838288452 93.4421083053983 l 17.021403628353735 -5.595273460675392 a38.9174570343861,38.9174570343861 0 0,0 0.20317745062815726,0.6364504702663403 l -17.114945794759148 5.3022539567176645" fill="#ffb310" stroke="none" /><path d="M 120.05942366710727 93.78553927170692 l 32.80379651214928 -10.162700013059103 a55.341950107207495,55.341950107207495 0 0,0 0.2733462249188196,0.9098806817131941 l -32.97341905707173 9.598081727755185" fill="#79ff26" stroke="none" /><path d="M 120.26092885502905 94.47779374421319 l 14.409674086361887 -3.92742074921237 a35.93530518658769,35.93530518658769 0 0,0 0.15710662031528974,0.5965594271122742 l -14.474970187481908 3.6794808177272973" fill="#ff880c" stroke="none" /><path d="M 120.43855184770803 95.1765574152323 l 14.52861899203214 -3.4287145227410614 a35.927720961154535,35.927720961154535 0 0,0 0.13650675722319475,0.6014739595124334 l -14.585336610813002 3.1788062292896018" fill="#ff880c" stroke="none" /><path d="M 120.51834098615036 95.52812308129327 l 14.637412222811484 -3.1901558665473475 a35.9810190251991,35.9810190251991 0 0,0 0.12634870046619961,0.6046242704752208 l -14.690018634102051 2.938415144786722" fill="#ff890c" stroke="none" /><path d="M 120.65975698304385 96.23510406497455 l 22.366845981526904 -4.07598441667557 a43.73520283890883,43.73520283890883 0 0,0 0.12825906899277867,0.7397642264291187 l -22.433519868011917 3.691427157325858" fill="#fff517" stroke="none" /><path d="M 120.7213421655516 96.59031103205396 l 17.682000200453626 -2.9095664041944325 a38.919785371182854,38.919785371182854 0 0,0 0.10281960089010472,0.6601755955193876 l -17.729341293481998 2.6056026267436034" fill="#ffb310" stroke="none" /><path d="M 120.86939407059847 97.66154086499901 l 17.98545569493057 -2.0153078246875884 a39.09801321091786,39.09801321091786 0 0,0 0.06901284802137803,0.667636701197969 l -18.017400935433614 1.706266601206688" fill="#ffb510" stroke="none" /><path d="M 120.93736805541906 98.37931529534042 l 17.868379480261577 -1.38312557930211 a38.92183086681583,38.92183086681583 0 0,0 0.04584628189753743,0.6665948769144345 l -17.88948972332418 1.0761872782333413" fill="#ffb310" stroke="none" /><line stroke="#e1ed5e" stroke-width="0.3" x1="184.99686870605535" x2="189.99668451229388" y1="99.2704041080226" y2="99.22748670261217" /><path d="M 185.99683186730306 99.26182062694052 a86.0,86.0 0 0,1 -10.086455211305974,41.156179273409016" fill="none" id="id88" stroke="none" /><text fill="#e1ed5e" style="font-size:6.75px; font-family:Arial;" text-anchor="middle"><textPath startOffset="21.40746469413373" xlink:href="#id88">April</textPath></text><path d="M 120.99922638620191 99.81974689727618 l 17.914438110901884 -0.1537739054599576 a38.915098080762334,38.915098080762334 0 0,0 0.0,0.6680540163675668 l -17.914438110901884 -0.15377390545995542" fill="#ffb310" stroke="none" /><path d="M 120.99303781780057 100.54070618675476 l 17.913337183841765 0.461384022874209 a38.91927800662101,38.91927800662101 0 0,0 -0.02293515462803382,0.6677320025463493 l -17.902777342216886 -0.7688222899846691" fill="#ffb310" stroke="none" /><path d="M 120.96210409425399 101.26102812881392 l 17.889878291944687 1.0762106535566518 a38.92222013790207,38.92222013790207 0 0,0 -0.04584674042252346,0.6666015437670817 l -17.8687675903571 -1.383155621478077" fill="#ffb310" stroke="none" /><path d="M 120.9064616781168 101.97986365728391 l 17.842093333661158 1.689664789052208 a38.921921259352715,38.921921259352715 0 0,0 -0.06870202386196114,0.6646297594125579 l -17.810458917317533 -1.9956990707476971" fill="#ffb310" stroke="none" /><path d="M 120.82617615685814 102.69636545807757 l 17.769696390964324 2.300642959525904 a38.91800959521639,38.91800959521639 0 0,0 -0.09146748468004157,0.6618131546682404 l -17.72758438972907 -2.605344422394229" fill="#ffb310" stroke="none" /><path d="M 120.7213421655516 103.40968896794604 l 17.688645084934656 2.9106598174071046 a38.9265196151805,38.9265196151805 0 0,0 -0.11415699118538152,0.658427189117405 l -17.63607327625704 -3.2138800394450975" fill="#ffb310" stroke="none" /><path d="M 120.35273937422433 105.17358676015961 l 9.639856397365657 2.4504137998451414 a30.94642444058683,30.94642444058683 0 0,0 -0.13529558548226006,0.5137393752353588 l -9.596371331078666 -2.6155336794533035" fill="#ff3e05" stroke="none" /><path d="M 120.16314734710363 105.8691983318838 l 14.346667263916853 4.176105749957146 a35.9421123277925,35.9421123277925 0 0,0 -0.1775261027372165,0.5909266587764305 l -14.272864841176007 -4.421770012324299" fill="#ff880c" stroke="none" /><path d="M 119.71291397450082 107.23885506374661 l 17.10405727988053 6.280846749051489 a39.22080709843844,39.22080709843844 0 0,0 -0.23750872471210238,0.6300201100328277 l -16.993717871353983 -6.573535139278475" fill="#ffb711" stroke="none" /><path d="M 119.58574465831526 107.57618678355244 l 11.159425897583201 4.316705668957458 a32.965230219099844,32.965230219099844 0 0,0 -0.20868768501780427,0.5260292911305254 l -11.083679537599272 -4.507635977301548" fill="#ff5c08" stroke="none" /><path d="M 119.0197475246899 108.90220220490707 l 13.530062603018079 6.332752471123144 a35.93875322448646,35.93875322448646 0 0,0 -0.266324544990009,0.5565158685700212 l -13.419358800068158 -6.564080841758269" fill="#ff880c" stroke="none" /><line stroke="#e1ed5e" stroke-width="0.3" x1="174.33088141563837" x2="178.70328620479359" y1="141.23008692659167" y2="143.65538615756765" /><path d="M 175.20536237346943 141.71514677278685 a86.0,86.0 0 0,1 -30.301960400862466,31.631185727798858" fill="none" id="id89" stroke="none" /><text fill="#e1ed5e" style="font-size:6.75px; font-family:Arial;" text-anchor="middle"><textPath startOffset="22.145653131862474" xlink:href="#id89">May</textPath></text><path d="M 117.81537515405839 111.11811171558189 l 12.67339824491905 7.909137825311028 a35.93885819646478,35.93885819646478 0 0,0 -0.3311206306753244,0.5205766290965196 l -12.535759922617835 -8.12552812908622" fill="#ff880c" stroke="none" /><path d="M 117.01052211995028 112.31430620078461 l 12.09675922115112 8.757120800643301 a35.933812251785014,35.933812251785014 0 0,0 -0.3660080890147957,0.49656026663736796 l -11.944649112552495 -8.963487376549548" fill="#ff880c" stroke="none" /><path d="M 116.57777611688842 112.89097897827486 l 24.903199208970477 19.364878330549253 a52.54628097888313,52.54628097888313 0 0,0 -0.5598269999960447,0.7073231263897864 l -24.56710577833287 -19.789521400853722" fill="#9aff23" stroke="none" /><path d="M 116.1254893667686 113.45245675266167 l 11.472884887144653 9.571088620146925 a35.940978047249054,35.940978047249054 0 0,0 -0.399296455775936,0.47037022088739555 l -11.306893867861604 -9.766625623483877" fill="#ff880c" stroke="none" /><path d="M 115.6541949942343 113.99807769240083 l 11.136224101485023 9.9580802609134 a35.93917165445558,35.93917165445558 0 0,0 -0.41518693681948876,0.4563631736107679 l -10.963639463823654 -10.14778101008184" fill="#ff880c" stroke="none" /><path d="M 114.91283532996324 114.78537596483092 l 12.00845361525917 11.905817876303033 a37.910099276276526,37.910099276276526 0 0,0 -0.46215674873342677,0.4582067147873774 l -11.802304946395777 -12.110204601319072" fill="#ffa40f" stroke="none" /><path d="M 114.39649973595853 115.28858382429668 l 11.267089180777267 11.96525826106789 a37.43516668189409,37.43516668189409 0 0,0 -0.471630029044213,0.43653371385582257 l -11.060029380419087 -12.156909721056092" fill="#ff9e0e" stroke="none" /><path d="M 113.59037401385872 116.0094264158162 l 11.113326029015687 13.091470118119657 a38.17243737157942,38.17243737157942 0 0,0 -0.5031957329548017,0.41978377720730764 l -10.88695596189899 -13.280316079238835" fill="#ffa80f" stroke="none" /><path d="M 113.31354834802062 116.24036423190432 l 6.627142334779408 8.084036090160124 a31.453260497683814,31.453260497683814 0 0,0 -0.42049898354953796,0.3387242155862731 l -6.487392580874618 -8.196608599539802" fill="#ff4506" stroke="none" /><path d="M 113.03279911837588 116.46651593811092 l 11.12433927587461 14.055239271574841 a38.92486193268964,38.92486193268964 0 0,0 -0.5275061244042927,0.41019195292904936 l -10.881423206835086 -14.244132276124683" fill="#ffb310" stroke="none" /><path d="M 112.45986205192187 116.90419585922612 l 8.85998345528236 12.020269166181862 a35.93272170956586,35.93272170956586 0 0,0 -0.4996684327686101,0.3617214119937196 l -8.652334012139782 -12.17059134954866" fill="#ff880c" stroke="none" /><path d="M 112.16784306229584 117.11559508785304 l 10.990894766132932 15.46006991602673 a39.96875139719647,39.96875139719647 0 0,0 -0.5626171006031895,0.3927504312670364 l -10.723882574355985 -15.646465163098888" fill="#ffc112" stroke="none" /><path d="M 111.27062007382361 117.71928675628689 l 9.615950871003013 15.117871936203445 a38.91693509038282,38.91693509038282 0 0,0 -0.5667711784857784,0.35370713359024425 l -9.35501556372752 -15.280714866635236" fill="#ffb310" stroke="none" /><path d="M 110.96478420261333 117.91015095944535 l 8.809335033950637 14.38938673072858 a37.871835532237085,37.871835532237085 0 0,0 -0.5573782767646973,0.33468964041854044 l -8.561024000628503 -14.538490371683045" fill="#ffa40f" stroke="none" /><line stroke="#e1ed5e" stroke-width="0.3" x1="143.1302829299769" x2="145.66735839644613" y1="173.24464959558577" y2="177.55315839532614" /><path d="M 143.63769802327073 174.10635135553383 a86.0,86.0 0 0,1 -40.68552437913181,11.842963189579606" fill="none" id="id90" stroke="none" /><text fill="#e1ed5e" style="font-size:6.75px; font-family:Arial;" text-anchor="middle"><textPath startOffset="21.407464694133747" xlink:href="#id90">June</textPath></text><path d="M 110.02825361518725 118.45085714620011 l 7.127873584031708 13.114484565485002 a35.926362157213035,35.926362157213035 0 0,0 -0.5443890593584716,0.28985651127267714 l -6.901695708886682 -13.234911544480248" fill="#ff880c" stroke="none" /><path d="M 109.71004243097381 118.62028667847754 l 6.906686956650746 13.244482920188526 a35.93715677564961,35.93715677564961 0 0,0 -0.5494496556986848,0.28055290918354325 l -6.678310079238479 -13.361093781044906" fill="#ff880c" stroke="none" /><path d="M 109.3889696526874 118.78422872680471 l 6.6833494370921835 13.371175872484311 a35.94842814182103,35.94842814182103 0 0,0 -0.5543585718508444,0.27116455675453843 l -6.45283061597927 -13.483934179336075" fill="#ff880c" stroke="none" /><path d="M 108.73861861582097 119.09545874513695 l 4.971281006663129 10.863146172937812 a32.94661373033476,32.94661373033476 0 0,0 -0.5162994761879022,0.23093418863463344 l -4.7840681276196 -10.946884112482296" fill="#ff5c08" stroke="none" /><path d="M 107.407793817531 119.65005319985036 l 5.272941615611903 13.987104098560486 a35.948009711851924,35.948009711851924 0 0,0 -0.5792950696634995,0.2127251736532409 l -5.032057394294276 -14.07556012122245" fill="#ff880c" stroke="none" /><path d="M 106.0420521117495 120.11202640906438 l 4.725889810074066 15.730950165376274 a37.42549322250366,37.42549322250366 0 0,0 -0.6168790362214132,0.17956449695264806 l -4.455150761471046 -15.809758356631441" fill="#ff9e0e" stroke="none" /><path d="M 105.3480935250658 120.30758222061773 l 3.8071534907063884 14.456381919401919 a35.94929416064212,35.94929416064212 0 0,0 -0.5981187186672138,0.15203943936014816 l -3.5584294788137774 -14.519606590597338" fill="#ff880c" stroke="none" /><path d="M 104.64783097203109 120.47920084513623 l 3.9664487969238764 17.476905258165193 a38.92135411908099,38.92135411908099 0 0,0 -0.6528363674674252,0.1422826477706203 l -3.6658500128373155 -17.542419364069534" fill="#ffb310" stroke="none" /><path d="M 103.94208987418118 120.62667999033965 l 4.576735175788726 23.94741238392838 a45.380833963489195,45.380833963489195 0 0,0 -0.7664288366350538,0.13966886512275714 l -4.164971605602616 -24.0224494229825" fill="#f4ff19" stroke="none" /><path d="M 102.875027216393 120.80226474461374 l 2.45314334112753 17.749723184410264 a38.91844260462693,38.91844260462693 0 0,0 -0.6625812556488127,0.0857844088826064 l -2.148084263587942 -17.789219189493267" fill="#ffb310" stroke="none" /><path d="M 102.51750503828377 120.84855314841334 l 1.7934904328251193 14.852673596004406 a35.96056552681354,35.96056552681354 0 0,0 -0.6134942660185349,0.0687433121339605 l -1.5382602652057853 -14.881272668645337" fill="#ff880c" stroke="none" /><path d="M 101.44090949804482 120.95050786540614 l 1.237714449450593 17.99609645402931 a39.03860927680139,39.03860927680139 0 0,0 -0.6689649539595677,0.04024327044368529 l -0.9286051433585603 -18.014691702297686" fill="#ffb410" stroke="none" /><path d="M 101.08105385017728 120.97215588758144 l 1.230255682716295 23.866631579248303 a44.89831860161773,44.89831860161773 0 0,0 -0.7700579882209186,0.03306960336979833 l -0.8203719338945467 -23.884233751043933" fill="#faff18" stroke="none" /><path d="M 100.72087961077811 120.9876233191556 l 0.7688770297839931 22.38501580373401 a43.3982165455277,43.3982165455277 0 0,0 -0.7447685445753781,0.019182595832358925 l -0.38449517113787113 -22.394916116916416" fill="#fff016" stroke="none" /><line stroke="#e1ed5e" stroke-width="0.3" x1="101.45913802915013" x2="101.54496967792366" y1="184.9874750549273" y2="189.98673829345242" /><path d="M 101.47630435890484 185.9873277026323 a86.0,86.0 0 0,1 -42.54439059252881,-10.42667462771756" fill="none" id="id91" stroke="none" /><text fill="#e1ed5e" style="font-size:6.75px; font-family:Arial;" text-anchor="middle"><textPath startOffset="22.145653131862474" xlink:href="#id91">July</textPath></text><path d="M 100.0 121.0 l 1.8295537274401507e-15 14.939439916177932 a35.93943991617793,35.93943991617793 0 0,0 -0.6169482768005985,-0.005295758951696331 l 0.2564553519517445 -14.93723855542067" fill="#ff880c" stroke="none" /><path d="M 99.27912038922189 120.98762331915562 l -0.256149532080553 7.457514142870374 a28.46191193822982,28.46191193822982 0 0,0 -0.48815464210465875,-0.020963460732126765 l 0.3841299347860505 -7.452018113712419" fill="#ff1702" stroke="none" /><path d="M 98.91894614982273 120.97215588758144 l -1.4607336210719641 28.337842010672446 a49.375465327172385,49.375465327172385 0 0,0 -0.8460971459081691,-0.0508991032532758 l 1.9469751191125797 -28.30859092959448" fill="#c1ff1e" stroke="none" /><path d="M 98.55909050195518 120.95050786540614 l -0.819777294268806 11.919381942283334 a32.947539524865725,32.947539524865725 0 0,0 -0.5639222500526251,-0.04365114864764255 l 1.0242685390966673 -11.903553026640639" fill="#ff5c08" stroke="none" /><path d="M 97.84075906011543 120.88869738790638 l -1.2292745471411977 11.892116135617936 a32.95548167558604,32.95548167558604 0 0,0 -0.5622269490388198,-0.0629987023329933 l 1.4332373977808168 -11.869261672777972" fill="#ff5c08" stroke="none" /><path d="M 96.05791012581884 120.62667999033965 l -3.366062584087205 17.61266180260396 a38.93143142899909,38.93143142899909 0 0,0 -0.6553522777838902,-0.13108880976776013 l 3.6679113474020535 -17.55228359617334" fill="#ffb310" stroke="none" /><path d="M 95.35216902796893 120.47920084513623 l -3.307093719974894 14.571665129951665 a35.942231879212244,35.942231879212244 0 0,0 -0.600522547106702,-0.14172168597906068 l 3.5567484208214837 -14.512747300326378" fill="#ff880c" stroke="none" /><path d="M 93.95794788825049 120.11202640906438 l -9.073669910760447 30.20329608171918 a52.53681308961691,52.53681308961691 0 0,0 -0.8615020812610359,-0.2668955469602209 l 9.590812624893116 -30.04308394695231" fill="#9aff23" stroke="none" /><path d="M 93.27111125876986 119.89276391827306 l -5.745059334446631 16.984247092146887 a38.9295944193786,38.9295944193786 0 0,0 -0.6312048664965116,-0.21956581821429788 l 6.035769972988165 -16.883122841364" fill="#ffb310" stroke="none" /><path d="M 92.59220618246901 119.65005319985036 l -5.268275436687266 13.974726504587496 a35.934781784640265,35.934781784640265 0 0,0 -0.5753462084399225,-0.2225562732688293 l 5.507393907620717 -13.882230343180625" fill="#ff880c" stroke="none" /><path d="M 91.92203290615298 119.3841803445677 l -6.892846272003853 16.540321800230664 a38.91908410004996,38.91908410004996 0 0,0 -0.6144858663842253,-0.26228747677117586 l 7.175767213558509 -16.419559673800084" fill="#ffb310" stroke="none" /><path d="M 91.59046798132341 119.24265499422711 l -5.982431537199204 13.688974111905946 a35.93912645818713,35.93912645818713 0 0,0 -0.5631945157364674,-0.25190974334388266 l 6.216539455791306 -13.584260617652209" fill="#ff880c" stroke="none" /><path d="M 90.93487009805054 118.94263497670748 l -5.161649550103728 10.78586234977997 a32.95731795623446,32.95731795623446 0 0,0 -0.5082328396160806,-0.2486021497286008 l 5.346042638981878 -10.695666449954148" fill="#ff5c08" stroke="none" /><path d="M 90.28995756902619 118.62028667847754 l -8.286949652250824 15.891318633459868 a38.922263876226374,38.922263876226374 0 0,0 -0.5897856990629485,-0.31402766493941053 l 8.558524167100334 -15.746720500797883" fill="#ffb310" stroke="none" /><path d="M 89.97174638481275 118.45085714620012 l -5.7077383695325326 10.501595723969281 a32.95248049756718,32.95248049756718 0 0,0 -0.49468861864432084,-0.274395437802648 l 5.887171176332956 -10.402067370733484" fill="#ff5c08" stroke="none" /><line stroke="#e1ed5e" stroke-width="0.3" x1="58.13341422392154" x2="55.67067388415222" y1="173.97424548756322" y2="178.32567169271397" /><path d="M 57.64086615596768 174.84453072859336 a86.0,86.0 0 0,1 -31.369924170532247,-30.572349798747897" fill="none" id="id92" stroke="none" /><text fill="#e1ed5e" style="font-size:6.75px; font-family:Arial;" text-anchor="middle"><textPath startOffset="22.145653131862474" xlink:href="#id92">August</textPath></text><path d="M 89.34428304082925 118.09573695890944 l -8.33343720051324 14.15199822986043 a37.42331359600951,37.42331359600951 0 0,0 -0.5507771606478863,-0.33072585985586506 l 8.575147117718553 -14.006858369468647" fill="#ff9e0e" stroke="none" /><path d="M 89.03521579738668 117.91015095944536 l -9.35495314203615 15.280612905493564 a38.91681553896307,38.91681553896307 0 0,0 -0.566769437385182,-0.35370604701469816 l 9.615886708211045 -15.117771061637319" fill="#ffb310" stroke="none" /><path d="M 88.4268655584334 117.5232005979908 l -9.888179018051998 14.971963330853153 a38.942568664309334,38.942568664309334 0 0,0 -0.5546603256443883,-0.3732002207973902 l 10.143735631793392 -14.800013435998643" fill="#ffb310" stroke="none" /><path d="M 88.1277618465304 117.32195027204791 l -10.129843050474355 14.779743744669343 a38.917995015774956,38.917995015774956 0 0,0 -0.5478262080160956,-0.3824252395226339 l 10.382064349664216 -14.60367368934158" fill="#ffb310" stroke="none" /><path d="M 87.83215693770417 117.11559508785305 l -29.464205370893616 41.44509475769071 a71.85110891231535,71.85110891231535 0 0,0 -0.9991375346707299,-0.7232985238120635 l 30.1713239159383 -40.93319546250558" fill="#3dffa9" stroke="none" /><path d="M 87.54013794807813 116.9041958592261 l -8.864023179385352 12.025749827779046 a35.939530308714815,35.939530308714815 0 0,0 -0.4934788640223257,-0.37031573942257767 l 9.069155032318445 -11.871815061092454" fill="#ff880c" stroke="none" /><path d="M 87.2517909369889 116.68781488649013 l -9.972370647300524 13.054153294714748 a37.427388549889876,37.427388549889876 0 0,0 -0.507212503789142,-0.3944115107938379 l 10.194993095724895 -12.881040732300118" fill="#ff9e0e" stroke="none" /><path d="M 86.68645165197938 116.24036423190432 l -7.5825185477204435 9.249439727948893 a32.960214162275015,32.960214162275015 0 0,0 -0.4344872967446855,-0.36246475602061135 l 7.740180178627022 -9.117912788016412" fill="#ff5c08" stroke="none" /><path d="M 86.13680546590413 115.77377054828092 l -7.894033311083107 8.981960820304696 a32.957900404919684,32.957900404919684 0 0,0 -0.4217590705368621,-0.3771395615695469 l 8.04705740844334 -8.845125728851768" fill="#ff5c08" stroke="none" /><path d="M 85.60350026404147 115.28858382429668 l -19.278618410521062 20.473224672084257 a49.12148744807289,49.12148744807289 0 0,0 -0.6089368913311893,-0.5833477671855223 l 19.627227787717565 -20.13926477459315" fill="#c4ff1e" stroke="none" /><path d="M 85.34317274990678 115.03919595460226 l -10.43401160474709 10.706215092723262 a35.94963677751578,35.94963677751578 0 0,0 -0.4382570230208141,-0.4345112590072602 l 10.616260547897866 -10.525523823487344" fill="#ff880c" stroke="none" /><path d="M 84.58840730492382 114.26474011684316 l -14.249527403153026 13.189149831266546 a40.41655748284972,40.41655748284972 0 0,0 -0.46691189378074605,-0.5132179621899683 l 14.473836997775653 -12.942594293518903" fill="#ffc812" stroke="none" /><path d="M 84.3458050057657 113.99807769240083 l -8.906904675768486 7.9646090837719195 a32.94855425398942,32.94855425398942 0 0,0 -0.37339958909569204,-0.42486018837374245 l 9.04231532882277 -7.810536617586877" fill="#ff5c08" stroke="none" /><path d="M 84.1078160697243 113.72728997021213 l -11.307820664520978 9.767426168364466 a35.94220272032938,35.94220272032938 0 0,0 -0.3993100616277288,-0.4703862485465954 l 11.473825289655819 -9.571873137368316" fill="#ff880c" stroke="none" /><path d="M 83.4222238831116 112.89097897827486 l -14.145717282741051 10.999795318665521 a38.91917449258684,38.91917449258684 0 0,0 -0.4055897324145612,-0.5309299793359759 l 14.332458992509908 -10.755344426088676" fill="#ffb310" stroke="none" /><path d="M 83.20337586046588 112.60449989151573 l -11.94303636728915 8.962277142437733 a35.931795915034904,35.931795915034904 0 0,0 -0.36598755137866373,-0.49653240338958915 l 12.095125938251643 -8.755938429779265" fill="#ff880c" stroke="none" /><path d="M 82.78059297857968 112.02048342749411 l -12.249845961322412 8.551343851983937 a35.93935098158519,35.93935098158519 0 0,0 -0.3488004086782517,-0.5089102202880715 l 12.394836106815989 -8.339798896625814" fill="#ff880c" stroke="none" /><path d="M 82.576782715395 111.72311816256416 l -16.10653567144699 10.837196011598067 a40.413019052414064,40.413019052414064 0 0,0 -0.3823371064355108,-0.5789071099063354 l 16.29019721680323 -10.55910902335267" fill="#ffc812" stroke="none" /><path d="M 81.99639281039703 110.81064883170644 l -8.499607006788771 5.103769794031554 a30.91422137035086,30.91422137035086 0 0,0 -0.2692868485478695,-0.4573079405625615 l 8.58596756546641 -4.957110685175434" fill="#ff3d05" stroke="none" /><line stroke="#e1ed5e" stroke-width="0.3" x1="26.387840678322732" x2="22.057713659400548" y1="142.50000000000003" y2="145.00000000000006" /><path d="M 25.521815274538298 143.00000000000003 a86.0,86.0 0 0,1 -11.493303480769221,-40.785679425670985" fill="none" id="id93" stroke="none" /><text fill="#e1ed5e" style="font-size:6.75px; font-family:Arial;" text-anchor="middle"><textPath startOffset="21.40746469413373" xlink:href="#id93">September</textPath></text><path d="M 81.63589988554817 110.18625677009913 l -10.44816992047281 5.7954237302272045 a32.94785298285652,32.94785298285652 0 0,0 -0.27010124338996105,-0.4969558657004625 l 10.546116513478099 -5.615213031052155" fill="#ff5c08" stroke="none" /><path d="M 81.4637452351635 109.86951160357371 l -13.185145277212245 7.020347203854333 a35.93764810282588,35.93764810282588 0 0,0 -0.28526266470279993,-0.5470287728598394 l 13.303716010889994 -6.79297218788999" fill="#ff880c" stroke="none" /><path d="M 81.29705330413844 109.54985784667822 l -14.63442612287953 7.472442252756789 a37.431792999146616,37.431792999146616 0 0,0 -0.28729807829727366,-0.5747886099474973 l 14.76054411438854 -7.220121786645539" fill="#ff9e0e" stroke="none" /><path d="M 80.9802524753101 108.90220220490708 l -13.524883745916334 6.330328504503707 a35.93303516755666,35.93303516755666 0 0,0 -0.2566911190496715,-0.5609164204948632 l 13.631559329821062 -6.097223101794155" fill="#ff880c" stroke="none" /><path d="M 80.83023694016515 108.57439118712176 l -13.642598965114347 6.102160990242349 a35.94512881422487,35.94512881422487 0 0,0 -0.24710755749093674,-0.5654304501967392 l 13.745340404622251 -5.867068470269761" fill="#ff880c" stroke="none" /><path d="M 80.68587082218212 108.24405325689762 l -12.373630838078247 5.281567223204872 a34.45368694634571,34.45368694634571 0 0,0 -0.22751599713756213,-0.5459555688395784 l 12.462472679752295 -5.0683791449240125" fill="#ff720a" stroke="none" /><path d="M 80.41425534168474 107.57618678355246 l -18.10366263578175 7.0028856184884125 a40.41089920162979,40.41089920162979 0 0,0 -0.24471554371023888,-0.649137053646992 l 18.221208863306423 -6.691080284647276" fill="#ffc812" stroke="none" /><path d="M 80.28708602549918 107.23885506374661 l -7.017367687866318 2.5768746156550515 a28.47554225802501,28.47554225802501 0 0,0 -0.16456128411144874,-0.46030719974749396 l 7.06056914202171 -2.4560324595266363" fill="#ff1702" stroke="none" /><path d="M 80.16572619554312 106.89939002012753 l -7.0595260550230705 2.4556696197221903 a28.474437865336505,28.474437865336505 0 0,0 -0.1566291755227699,-0.4630463262524735 l 7.100640652118208 -2.334121618995555" fill="#ff1702" stroke="none" /><path d="M 80.05021161711548 106.5578916946017 l -22.702934702760807 7.462905574379467 a44.898079498778245,44.898079498778245 0 0,0 -0.2344006527097124,-0.7342567060793395 l 22.827700071247772 -7.0720798346087355" fill="#faff18" stroke="none" /><path d="M 79.64726062577567 105.17358676015961 l -14.492940816666827 3.6840488813925 a35.95384732020147,35.95384732020147 0 0,0 -0.14691850332390569,-0.5994776296237253 l 14.554046846507026 -3.434715427160675" fill="#ff880c" stroke="none" /><path d="M 79.407916724674 104.11899336999214 l -31.039567858741666 6.208782885545802 a52.65444293898212,52.65444293898212 0 0,0 -0.16968197054754872,-0.887847770680632 l 31.14157612157137 -5.675032549831856" fill="#99ff23" stroke="none" /><path d="M 79.2786578344484 103.40968896794605 l -10.31754263196419 1.6977477138042727 a31.456291563557617,31.456291563557617 0 0,0 -0.08310229137189429,-0.5335763241690119 l 10.345166415474353 -1.5203832077038106" fill="#ff4506" stroke="none" /><path d="M 79.17382384314188 102.69636545807758 l -17.350470893787296 2.2463658257294954 a38.49528506938842,38.49528506938842 0 0,0 -0.07922313854945601,-0.6560812349985894 l 17.386476118596413 -1.9481909138075066" fill="#ffad10" stroke="none" /><path d="M 79.01933749520258 100.90099992219065 l -19.39684421249702 0.8329839499685857 a40.414721931173375,40.414721931173375 0 0,0 -0.023816420658743655,-0.6933891014849924 l 19.40828532015261 -0.4998885839194734" fill="#ffc812" stroke="none" /><path d="M 79.00696218219943 100.54070618675478 l -14.943994569791741 0.3849042901196772 a35.94895063255336,35.94895063255336 0 0,0 -0.01059393047360641,-0.6170433391990545 l 14.948399931864014 -0.1283140349515703" fill="#ff880c" stroke="none" /><line stroke="#e1ed5e" stroke-width="0.3" x1="15.003131293944662" x2="10.003315487706104" y1="100.72959589197737" y2="100.7725132973878" /><path d="M 14.003168132696942 100.73817937305945 a86.0,86.0 0 0,1 10.791469493833604,-42.45332614584628" fill="none" id="id94" stroke="none" /><text fill="#e1ed5e" style="font-size:6.75px; font-family:Arial;" text-anchor="middle"><textPath startOffset="22.145653131862435" xlink:href="#id94">October</textPath></text><path d="M 79.00077361379809 99.81974689727619 l -17.9564924183726 -0.1541348911108014 a38.95715393751834,38.95715393751834 0 0,0 0.011480429136363301,-0.6686774419927076 l 17.951200557637573 0.46235924907256143" fill="#ffb310" stroke="none" /><path d="M 79.00696218219943 99.45929381324524 l -10.45616764954038 -0.2693137880720405 a31.459635358450146,31.459635358450146 0 0,0 0.018539182596465285,-0.5397480732736243 l 10.450003779947064 0.44876812590980325" fill="#ff4606" stroke="none" /><path d="M 79.03789590574601 98.7389718711861 l -14.977678727506625 -0.9010199593895186 a36.00475581379526,36.00475581379526 0 0,0 0.04241023990725887,-0.6166355804832984 l 14.960004526434302 1.157998964027142" fill="#ff890c" stroke="none" /><path d="M 79.22317932658666 96.9465228501225 l -11.815898242086538 -1.7365301387838117 a32.942821617618186,32.942821617618186 0 0,0 0.08702945657622291,-0.5587915419390336 l 11.784347293372047 1.9391098626542953" fill="#ff5c08" stroke="none" /><path d="M 79.34024301695615 96.23510406497455 l -14.749912407091516 -2.6879253860060954 a35.99282691481524,35.99282691481524 0 0,0 0.1159889546939066,-0.6069032232255217 l 14.70159716011545 2.9407311742649314" fill="#ff890c" stroke="none" /><path d="M 79.407916724674 95.88100663000787 l -14.653946357479024 -2.931199679199086 a35.944232178576776,35.944232178576776 0 0,0 0.12621952207184325,-0.6040061050951125 l 14.601469124582813 3.182322235579608" fill="#ff880c" stroke="none" /><path d="M 79.48165901384962 95.52812308129327 l -14.602635793790538 -3.182576505703363 a35.945426234830094,35.945426234830094 0 0,0 0.13657402810570077,-0.6017703674330614 l 14.545850904127176 3.4327812070754327" fill="#ff880c" stroke="none" /><path d="M 79.64726062577567 94.8264132398404 l -12.280180987356005 -3.121573985711687 a33.67071699749039,33.67071699749039 0 0,0 0.1472060004388925,-0.5589651608129432 l 12.224785506112386 3.331919650897415" fill="#ff6709" stroke="none" /><path d="M 80.16572619554312 93.10060997987247 l -14.112114720872334 -4.908926055372026 a35.94153060807935,35.94153060807935 0 0,0 0.2077075258550914,-0.5809949169337191 l 14.025767024973298 5.150455928686667" fill="#ff880c" stroke="none" /><path d="M 80.28708602549916 92.7611449362534 l -16.821289409372245 -6.177010470257718 a38.91957688517037,38.91957688517037 0 0,0 0.23568457041517146,-0.6251813240376536 l 16.712774155142636 6.4648600744895175" fill="#ffb310" stroke="none" /><path d="M 80.5471966667186 92.08871423366112 l -29.45580676336034 -11.979420178700368 a52.798601539977795,52.798601539977795 0 0,0 0.3486572132481621,-0.8366503875937635 l 29.2458237055757 12.483303075735394" fill="#97ff23" stroke="none" /><path d="M 80.9802524753101 91.09779779509293 l -10.832447172695295 -5.070132239143888 a32.96027393798489,32.96027393798489 0 0,0 0.24425248990828632,-0.510393762530601 l 10.743815424827105 5.2553385037395755" fill="#ff5c08" stroke="none" /><path d="M 81.1358732173502 90.77261029715801 l -13.425165828952544 -6.566921350579563 a35.945217748817605,35.945217748817605 0 0,0 0.2758882531608182,-0.5519613165357292 l 13.310457662579982 6.796414523279062" fill="#ff880c" stroke="none" /><path d="M 81.29705330413844 90.45014215332179 l -10.653572991249819 -5.439790279045091 a32.96202055506849,32.96202055506849 0 0,0 0.26164299318152806,-0.5017349383473705 l 10.55862192909335 5.621871460496949" fill="#ff5c08" stroke="none" /><line stroke="#e1ed5e" stroke-width="0.3" x1="26.387840678322718" x2="22.05771365940052" y1="57.49999999999999" y2="54.99999999999999" /><path d="M 25.521815274538284 56.99999999999999 a86.0,86.0 0 0,1 29.574782752854787,-30.34633250058573" fill="none" id="id95" stroke="none" /><text fill="#e1ed5e" style="font-size:6.75px; font-family:Arial;" text-anchor="middle"><textPath startOffset="21.40746469413373" xlink:href="#id95">November</textPath></text><path d="M 81.81346652052679 89.5 l -19.407444653748126 -11.204893395124246 a43.40978679024849,43.40978679024849 0 0,0 0.37813291626654616,-0.6421523595721804 l 19.212238027351802 11.53639692299" fill="#fff016" stroke="none" /><path d="M 83.2033758604659 87.39550010848427 l -13.141097362306581 -9.861324448389148 a37.42967314836234,37.42967314836234 0 0,0 0.3900671407996999,-0.5106104086302399 l 12.969878244152575 10.085455770260273" fill="#ff9e0e" stroke="none" /><path d="M 83.42222388311158 87.10902102172516 l -11.796502189812616 -9.173031453303905 a35.943291804604385,35.943291804604385 0 0,0 0.3829390938064783,-0.48383103539126127 l 11.637296665364575 9.374182432609848" fill="#ff880c" stroke="none" /><path d="M 83.64595745247003 86.82634096563983 l -9.310765290062799 -7.5000934431816235 a32.95582502143178,32.95582502143178 0 0,0 0.35867422063158955,-0.4375242295580427 l 9.180644250192579 7.658819954438159" fill="#ff5c08" stroke="none" /><path d="M 84.10781606972428 86.27271002978789 l -11.316768665601431 -9.775155238580611 a35.95402664733109,35.95402664733109 0 0,0 0.40746002610489235,-0.4636147133020287 l 11.147297575537946 9.96798222969394" fill="#ff880c" stroke="none" /><path d="M 84.34580500576568 86.00192230759919 l -8.911756724537677 -7.968947815700539 a32.955063245616934,32.955063245616934 0 0,0 0.38071305296611385,-0.41847033632033026 l 8.773645970729698 8.120755727578528" fill="#ff5c08" stroke="none" /><path d="M 84.58840730492382 85.73525988315684 l -10.966169928380463 -10.150123170297984 a35.94261969235435,35.94261969235435 0 0,0 0.423000417961961,-0.4492117852488089 l 10.79031367668223 10.336876415491306" fill="#ff880c" stroke="none" /><path d="M 85.86807049272753 84.46653392183569 l -10.061267697920728 -11.059095674695723 a35.95101016089872,35.95101016089872 0 0,0 0.4600616072029087,-0.4113899260414874 l 9.869941063894428 11.230181130620611" fill="#ff880c" stroke="none" /><path d="M 86.13680546590413 84.22622945171909 l -9.862105636997128 -11.221265853140961 a35.939141037628566,35.939141037628566 0 0,0 0.46690167403629446,-0.4032985456997847 l 9.668024483197986 11.388908531305457" fill="#ff880c" stroke="none" /><path d="M 86.68645165197937 83.75963576809568 l -7.5796222372807875 -9.245906700145987 a32.95564569430216,32.95564569430216 0 0,0 0.44058438767241914,-0.3549035953765076 l 7.419787079253123 9.374658589315892" fill="#ff5c08" stroke="none" /><path d="M 86.96720088162412 83.53348406188908 l -11.124552811968998 -14.055509067454423 a38.92520600750744,38.92520600750744 0 0,0 0.5275107872743358,-0.4101955788049965 l 10.881632080059417 14.244405697880223" fill="#ffb310" stroke="none" /><path d="M 87.54013794807813 83.09580414077388 l -8.917852719316983 -12.098779936958783 a36.0302552568606,36.0302552568606 0 0,0 0.5010247017179269,-0.362703246120542 l 8.708847007225089 12.250083954452405" fill="#ff890c" stroke="none" /><path d="M 88.4268655584334 82.4767994020092 l -27.605203871011454 -41.79779708103741 a71.09094849958109,71.09094849958109 0 0,0 1.0240968255999572,-0.6638071895670619 l 26.88362141315447 42.26551811230838" fill="#3cffa0" stroke="none" /><line stroke="#e1ed5e" stroke-width="0.3" x1="56.869717070023135" x2="54.33264160355391" y1="26.7553504044142" y2="22.446841604673864" /><path d="M 56.362301976729285 25.89364864446614 a86.0,86.0 0 0,1 42.16139366436587,-11.88097634709845" fill="none" id="id96" stroke="none" /><text fill="#e1ed5e" style="font-size:6.75px; font-family:Arial;" text-anchor="middle"><textPath startOffset="22.145653131862474" xlink:href="#id96">December</textPath></text><path d="M 89.34428304082924 81.90426304109057 l -9.319781554754782 -15.82702657883501 a39.36717448481114,39.36717448481114 0 0,0 0.5852727806291393,-0.33790739744559256 l 9.046716306265242 15.984680873556776" fill="#ffb911" stroke="none" /><path d="M 89.65649057296885 81.72400993836675 l -4.419516566890703 -7.808862303797534 a29.972761958543842,29.972761958543842 0 0,0 0.44995654306879157,-0.24958330952889854 l 4.284815835665809 7.883578528759579" fill="#ff2f04" stroke="none" /><path d="M 90.28995756902619 81.37971332152246 l -5.528142277653421 -10.60094173028192 a32.955765245721906,32.955765245721906 0 0,0 0.5038666241904237,-0.25727788850347055 l 5.345348431749415 10.694277570458224" fill="#ff5c08" stroke="none" /><path d="M 90.61103034731259 81.2157712731953 l -6.680025064429677 -13.36452490025032 a35.94099262669049,35.94099262669049 0 0,0 0.554243909214373,-0.2711084695132246 l 6.4496209059532505 13.477227119860759" fill="#ff880c" stroke="none" /><path d="M 91.26138138417902 80.90454125486306 l -3.731035911951438 -8.152986812389875 a29.966148723910088,29.966148723910088 0 0,0 0.46959323395590535,-0.21004308056368007 l 3.5905292751399136 8.2158336438634" fill="#ff2f04" stroke="none" /><path d="M 93.27111125876988 80.10723608172694 l -20.186666223690388 -59.67829175481917 a84.0,84.0 0 0,0 1.3699090494089559,-0.4503163143918858 l 19.15923443663367 60.01602899061309" fill="#4dd2ff" stroke="none" /><path d="M 95.00130118170881 79.60360301121753 l -2.8471102993971 -11.617181600312167 a32.96097593808986,32.96097593808986 0 0,0 0.5507117446680178,-0.12996647223131388 l 2.6472664009891758 11.664344216189713" fill="#ff5c08" stroke="none" /><path d="M 95.70440661134978 79.44403061299748 l -3.0560155740720147 -14.624140812025685 a35.94003767327666,35.94003767327666 0 0,0 0.6049966489358285,-0.12101627370651016 l 2.8045224396052095 14.674446482395062" fill="#ff880c" stroke="none" /><path d="M 96.05791012581881 79.37332000966035 l -2.245033687421804 -11.746964913528345 a32.959571937879915,32.959571937879915 0 0,0 0.5566483506377092,-0.10143987241837334 l 2.0430506032330564 11.783772959878078" fill="#ff5c08" stroke="none" /><path d="M 96.76829788921471 79.25015418208739 l -1.8727244591646357 -12.02423442971895 a33.16919514679554,33.16919514679554 0 0,0 0.5633628179076852,-0.08279493376832682 l 1.6660365356492657 12.054610436786161" fill="#ff5f08" stroke="none" /><path d="M 97.12497278360702 79.19773525538626 l -1.6186605480384215 -11.711821390755924 a32.823147730564145,32.823147730564145 0 0,0 0.5588096794776921,-0.07234910076792626 l 1.4173730466699355 11.737882087724245" fill="#ff5a08" stroke="none" /><path d="M 98.1996594967304 79.07731436759882 l -1.1347316368479616 -13.187301664208979 a34.236031923144964,34.236031923144964 0 0,0 0.5859757794782737,-0.04535823130145337 l 0.9081868625944707 13.204837662505486" fill="#ff6f0a" stroke="none" /><path d="M 98.9189461498227 79.02784411241856 l -0.46168989650878756 -8.95666065082297 a29.968552144830227,29.968552144830227 0 0,0 0.5139952606980424,-0.022073168079864255 l 0.3078688752099252 8.963266387328664" fill="#ff2f04" stroke="none" /><path d="M 99.27912038922189 79.0123766808444 l -0.3077981577757437 -8.961207526391961 a29.966492069755823,29.966492069755823 0 0,0 0.5142630840926017,-0.013245592829481215 l 0.15392175961239815 8.965170836571486" fill="#ff2f04" stroke="none" /><path d="M 99.63950707515114 79.00309439819443 l -0.12978741791486753 -7.5594664261528015 a28.560580495040075,28.560580495040075 0 0,0 0.49028034276371785,-0.0042084670817078545 l 1.8518081405893477e-15 7.560580495040075" fill="#ff1902" stroke="none" /></svg>