<?xml version="1.0" encoding="utf-8" ?>
<svg baseProfile="full" height="200mm" version="1.1" viewBox="0,0,200,200" width="200mm" xmlns="http://www.w3.org/2000/svg" xmlns:ev="http://www.w3.org/2001/xml-events" xmlns:xlink="http://www.w3.org/1999/xlink"><defs /><rect fill="#1a1a1a" height="200" width="200" x="0" y="0" /><text alignment-baseline="middle" fill="#e1ed5e" style="dominant-baseline: central; font-size:9.0px; font-family:Arial;" text-anchor="middle" x="100.0" y="100.0">2019</text><line stroke="#e1ed5e" stroke-width="0.3" x1="100.0" x2="100.0" y1="15.0" y2="10.0" /><path d="M 100.0 14.0 a86.0,86.0 0 0,1 42.46469731375804,11.215312516191453" fill="none" id="id73" stroke="none" /><text fill="#e1ed5e" style="font-size:6.75px; font-family:Arial;" text-anchor="middle"><textPath startOffset="22.20632615414155" xlink:href="#id73">January</textPath></text><path d="M 100.0 79.0 l 0.0 -14.606995999110914 a35.606995999110914,35.606995999110914 0 0,0 0.6129159037720768,0.005275560688222997 l -0.2514354244995485 14.60483181503125" fill="#ffb210" stroke="none" /><path d="M 100.36148047927253 79.00311137660856 l 0.17617497805969937 -10.233267367555642 a31.234783761212228,31.234783761212228 0 0,0 0.537496138416665,0.013881939487230639 l -0.3522977516712322 10.228718635926052" fill="#ff770b" stroke="none" /><path d="M 102.16513564639614 79.11191278185805 l 0.9041155878183449 -8.722430525341796 a29.76916297405576,29.76916297405576 0 0,0 0.5092416451869658,0.05721923235362161 l -1.0541239365150359 8.705575339517573" fill="#ff6309" stroke="none" /><path d="M 104.307194497241 79.44645832069477 l 1.4980431609405287 -7.148526161405541 a28.303804460165956,28.303804460165956 0 0,0 0.4759854513925445,0.10403198365993845 l -1.6208713364866012 7.121680679649732" fill="#ff4e07" stroke="none" /><path d="M 105.71112130821622 79.79150937346287 l 3.1807226156473853 -11.254813143515767 a32.69563231523401,32.69563231523401 0 0,0 0.5402716310049634,0.15772010431394498 l -3.373984464375776 11.198394710283118" fill="#ff8b0c" stroke="none" /><path d="M 106.40334571778207 80.00007090966166 l 4.459274779511304 -13.927903211112477 a35.62435022205441,35.62435022205441 0 0,0 0.5824024465563538,0.19200892987233287 l -4.698360048310075 13.849080556980908" fill="#ffb210" stroke="none" /><path d="M 106.74666289553966 80.11325718540242 l 4.69334243047808 -13.834290418965743 a35.60873213410436,35.60873213410436 0 0,0 0.578757194755248,0.2019170210546927 l -4.930781629296602 13.751452544738845" fill="#ffb210" stroke="none" /><path d="M 107.08798089147638 80.2323363322302 l 4.932441921028312 -13.75608293088764 a35.61365118325245,35.61365118325245 0 0,0 0.5752752345299822,0.21187872382480852 l -5.168499481330871 13.669140939256508" fill="#ffb210" stroke="none" /><path d="M 107.76421540070413 80.48803036053334 l 5.400057413257203 -13.570689485159802 a35.605623340655505,35.605623340655505 0 0,0 0.567513165022743,0.23150286941973178 l -5.632854447868334 13.47572572955649" fill="#ffb210" stroke="none" /><path d="M 108.43124777332544 80.76684994638697 l 2.936515334605701 -6.69870481613554 a28.314080155705973,28.314080155705973 0 0,0 0.44468999688174865,0.19951943919856244 l -3.05138744995423 6.647165046420446" fill="#ff4e07" stroke="none" /><path d="M 108.76106565485865 80.91482961587045 l 3.232412709059332 -7.041511813121834 a28.747992032521886,28.747992032521886 0 0,0 0.44795092259174846,0.2103189645229313 l -3.353141842950679 6.984827865958899" fill="#ff5407" stroke="none" /><path d="M 110.05341064243156 81.56283822128135 l 3.500903662539508 -6.42038105212999 a28.31283934658299,28.31283934658299 0 0,0 0.42587351997900136,0.23699815278483743 l -3.6109012715905444 6.359167501784972" fill="#ff4e07" stroke="none" /><path d="M 110.36928655335952 81.73862282372117 l 7.215979080447526 -12.708079288395872 a35.613884948555345,35.613884948555345 0 0,0 0.5304828372148559,0.30728989961272946 l -7.43365865012771 12.581985231393093" fill="#ffb210" stroke="none" /><line stroke="#e1ed5e" stroke-width="0.3" x1="143.23703022742887" x2="145.7803849466894" y1="26.81831364943548" y2="22.513508569990506" /><path d="M 143.74570117128098 25.957352633546492 a86.0,86.0 0 0,1 28.547481713284135,27.462654790039103" fill="none" id="id74" stroke="none" /><text fill="#e1ed5e" style="font-size:6.75px; font-family:Arial;" text-anchor="middle"><textPath startOffset="19.985693538727396" xlink:href="#id74">February</textPath></text><path d="M 112.77801427241765 83.33499621200491 l 8.893782560872442 -11.599213845493784 a35.61646777007268,35.61646777007268 0 0,0 0.4833111340325769,0.3772320062666043 l -9.092126250064448 11.444403450003955" fill="#ffb210" stroke="none" /><path d="M 113.06298171725822 83.55741782278167 l 9.088530826294239 -11.439877833105518 a35.610687780418814,35.610687780418814 0 0,0 0.4766687290407968,0.38543296212952194 l -9.284102953899527 11.281738773711867" fill="#ffb210" stroke="none" /><path d="M 113.34407831869373 83.78471172551755 l 9.28598599578057 -11.284026984722383 a35.61365118325245,35.61365118325245 0 0,0 0.4700026193716871,0.39361367717205376 l -9.478846152111373 11.12251215015651" fill="#ffb210" stroke="none" /><path d="M 113.6212207817346 84.01681056812373 l 5.685258968953244 -6.67110331196625 a29.765032170105844,29.765032170105844 0 0,0 0.3870959461492604,0.3356857899938435 l -5.799248713749268 6.572252528552735" fill="#ff6309" stroke="none" /><path d="M 114.16331599549186 84.49514656593476 l 9.851309720757122 -10.78441753347444 a35.606572655848964,35.606572655848964 0 0,0 0.448968558302609,0.4172673445811685 l -10.035486162854578 10.61324560281863" fill="#ffb210" stroke="none" /><path d="M 114.68862486808459 84.99185889309783 l 10.220496442146917 -10.44281913139599 a35.61201625153038,35.61201625153038 0 0,0 0.43440588797626595,0.43254041103955926 l -10.398738130290505 10.265342869706311" fill="#ffb210" stroke="none" /><path d="M 114.94478906791727 85.2469230424477 l 6.24142210093372 -6.161356989461704 a29.77027193384632,29.77027193384632 0 0,0 0.35686863452502243,0.3677844975166321 l -6.346554999161851 6.053008296394958" fill="#ff6309" stroke="none" /><path d="M 115.19652480421416 85.50635884689758 l 12.681745141754089 -12.095177394025814 a38.52483883045309,38.52483883045309 0 0,0 0.4535523368909151,0.48381800997306434 l -12.888064800615465 11.875089967174695" fill="#ffd714" stroke="none" /><path d="M 115.4437574822437 85.77008943001954 l 6.449249076609743 -5.942351640084996 a29.76951290931101,29.76951290931101 0 0,0 0.34398864872415896,0.37984085754252683 l -6.550581365949937 5.83045799527292" fill="#ff6309" stroke="none" /><path d="M 115.9244219780498 86.31012108654704 l 16.60931963978038 -14.278670523605134 a42.90319453454369,42.90319453454369 0 0,0 0.47661237773364584,0.5641587239540794 l -16.852642631001142 13.990652850021949" fill="#f0ff19" stroke="none" /><path d="M 116.15771136456269 86.58626213691792 l 11.238243777632604 -9.329715865898986 a35.60622200789462,35.60622200789462 0 0,0 0.38743216286981325,0.47494602118379603 l -11.397174432578826 9.13488567510709" fill="#ffb210" stroke="none" /><path d="M 116.82858285166822 87.43820079747576 l 9.369746042508249 -6.994104578031488 a32.69228975648226,32.69228975648226 0 0,0 0.3327411715951453,0.4538585841137284 l -9.48874982661702 6.831783550246266" fill="#ff8b0c" stroke="none" /><path d="M 117.65298651832404 88.62581576622439 l 7.373556166010939 -4.750934704631664 a29.771585438276908,29.771585438276908 0 0,0 0.2738594629848025,0.4331799029496664 l -7.454243225241697 4.623307153967791" fill="#ff6309" stroke="none" /><line stroke="#e1ed5e" stroke-width="0.3" x1="172.23445277983987" x2="176.4835382374775" y1="55.19839476539836" y2="52.563006222186495" /><path d="M 173.08426987136738 54.67131705675599 a86.0,86.0 0 0,1 12.851231095245387,41.99856678651699" fill="none" id="id75" stroke="none" /><text fill="#e1ed5e" style="font-size:6.75px; font-family:Arial;" text-anchor="middle"><textPath startOffset="22.20632615414155" xlink:href="#id75">March</textPath></text><path d="M 118.3937258080291 89.86733742301442 l 19.186821503098198 -10.569559981745591 a42.905472320848716,42.905472320848716 0 0,0 0.35078676650933627,0.6499546030649906 l -19.365916368826 10.237724395348142" fill="#f0ff19" stroke="none" /><path d="M 118.56541770881063 90.18545643968196 l 7.755190357446036 -4.099754434590026 a29.772169851534144,29.772169851534144 0 0,0 0.23561208493713115,0.45512755427812573 l -7.824611875543284 3.9656541580515556" fill="#ff6309" stroke="none" /><path d="M 118.73160827565052 90.50648371742162 l 15.630917722171297 -7.9220304911017 a38.52381681995203,38.52381681995203 0 0,0 0.2946888302353511,0.5940746995983021 l -15.764966565360057 7.651796203004448" fill="#ffd714" stroke="none" /><path d="M 118.89224826269711 90.83032412892265 l 6.579538862896389 -3.193491738780669 a28.313598371118303,28.313598371118303 0 0,0 0.2090376871570139,0.44028668040934876 l -6.63353474389516 3.07976264273078" fill="#ff4e07" stroke="none" /><path d="M 119.47837535516314 92.15188598940014 l 13.548799944833942 -5.459003881742129 a35.60721408503373,35.60721408503373 0 0,0 0.22416682727545836,0.5704801243713543 l -13.6407603219911 5.22497475247499" fill="#ffb210" stroke="none" /><path d="M 119.61058180528143 92.48833698450437 l 13.647479663777045 -5.227548537979322 a35.614409495088665,35.614409495088665 0 0,0 0.21435704492396937,0.5743703087785408 l -13.73544129720264 4.9918550921714475" fill="#ffb210" stroke="none" /><path d="M 119.7369772167798 92.82701384747503 l 13.72933776468132 -4.989636892607449 a35.607915380942416,35.607915380942416 0 0,0 0.20440116656940976,0.5778696228488303 l -13.81319201206054 4.752569643332005" fill="#ffb210" stroke="none" /><path d="M 119.85752413597 93.16781622104841 l 13.817980928005067 -4.754217318722498 a35.612979820705725,35.612979820705725 0 0,0 0.19445145919492673,0.5813851127439423 l -13.897769680971765 4.515659103056241" fill="#ffb210" stroke="none" /><path d="M 120.08093135843002 93.85539295169968 l 29.47200471150824 -9.018201628474271 a51.82088613792569,51.82088613792569 0 0,0 0.2536610238773664,0.8552188708647216 l -29.622871632497308 8.509553370863019" fill="#89ff24" stroke="none" /><path d="M 120.53481517161879 95.60439243477599 l 15.841924708825715 -3.3910645659994114 a37.20079928185272,37.20079928185272 0 0,0 0.12864515411300104,0.6273194588515578 l -15.897949158853713 3.1178694509844416" fill="#ffc612" stroke="none" /><path d="M 120.6074358757038 95.95851677861258 l 30.256624494503466 -5.933860038090715 a51.83300213655876,51.83300213655876 0 0,0 0.16417307689009156,0.8770191414309119 l -30.354283295303418 5.412162819197239" fill="#89ff24" stroke="none" /><path d="M 120.73433829027371 96.67025291283417 l 31.909467872946486 -5.124371765111805 a53.31831254755853,53.31831254755853 0 0,0 0.13772401083173708,0.9074291538216096 l -31.992947777217523 4.574343498898114" fill="#79ff26" stroke="none" /><path d="M 120.78858239683441 97.02765380044208 l 7.234434553390326 -1.0343776040253032 a28.308007959423485,28.308007959423485 0 0,0 0.06481725149484283,0.4829638106928059 l -7.251167803943004 0.909695451267833" fill="#ff4e07" stroke="none" /><path d="M 120.91429891909075 98.10471618934814 l 11.641419167660496 -1.0549621274342222 a32.68912252170768,32.68912252170768 0 0,0 0.04596015314005708,0.560830281107684 l -11.657853804620048 0.8544179291187693" fill="#ff8b0c" stroke="none" /><line stroke="#e1ed5e" stroke-width="0.3" x1="184.98032266829074" x2="189.97916517819016" y1="98.17113171792111" y2="98.06355123074" /><path d="M 185.9800911702706 98.14961562048488 a86.0,86.0 0 0,1 -9.607161424134198,41.387399972396054" fill="none" id="id76" stroke="none" /><text fill="#e1ed5e" style="font-size:6.75px; font-family:Arial;" text-anchor="middle"><textPath startOffset="21.466115282336823" xlink:href="#id76">April</textPath></text><path d="M 120.99513854157772 99.54816195383933 l 8.768329274952823 -0.18870391161469063 a29.770359595834904,29.770359595834904 0 0,0 0.006616097920800478,0.5124240751617188 l -8.770278379991339 0.03774357839250909" fill="#ff6309" stroke="none" /><path d="M 120.92983693683757 101.71520430193887 l 50.93657813527219 4.174262714388116 a72.10733275508926,72.10733275508926 0 0,0 -0.11202527821514555,1.2361896101882577 l -50.85717826077997 -5.050433713124945" fill="#3effb6" stroke="none" /><path d="M 120.5718875245553 104.21870165774334 l 7.16555882677654 1.4694497461692235 a28.314678110246,28.314678110246 0 0,0 -0.10202177797236824,0.4766117818881649 l -7.139203010079729 -1.5925753474735573" fill="#ff4e07" stroke="none" /><path d="M 120.23288151984713 105.62410040840565 l 14.071596280298232 3.9114582027929945 a35.605113048104066,35.605113048104066 0 0,0 -0.16922154508112391,0.5890823982084774 l -14.002182098331009 -4.153098076506054" fill="#ffb210" stroke="none" /><path d="M 119.9155931802556 106.66101706037122 l 6.930412281108377 2.317962313351325 a28.30777419412059,28.30777419412059 0 0,0 -0.15853589527700845,0.46077952068260475 l -6.889485554888138 -2.43691453712323" fill="#ff4e07" stroke="none" /><path d="M 119.26925614724726 108.34839909993367 l 13.407371482493055 5.808739432472139 a35.611607162250316,35.611607162250316 0 0,0 -0.24853326269883044,0.5603768965206921 l -13.30539713506295 -6.038664665485519" fill="#ffb210" stroke="none" /><path d="M 118.81262510543309 109.33194174019688 l 27.615137286505036 13.698399391947637 a51.82599476503284,51.82599476503284 0 0,0 -0.40330823829292967,0.7957654160144311 l -27.375250378425836 -14.171719019664764" fill="#89ff24" stroke="none" /><line stroke="#e1ed5e" stroke-width="0.3" x1="174.80103733775053" x2="179.2010983576182" y1="140.37084112569926" y2="142.7455964860345" /><path d="M 175.68104954172406 140.8457921977663 a86.0,86.0 0 0,1 -30.038265399797805,32.042727171017184" fill="none" id="id77" stroke="none" /><text fill="#e1ed5e" style="font-size:6.75px; font-family:Arial;" text-anchor="middle"><textPath startOffset="22.206326154141568" xlink:href="#id77">May</textPath></text><path d="M 118.48025628344425 109.97397251340804 l 12.858367535091373 6.939784946445418 a35.61157865428655,35.61157865428655 0 0,0 -0.2957856863800304,0.536936937540121 l -12.737005439259834 -7.160092402383344" fill="#ffb210" stroke="none" /><path d="M 117.75023020441432 111.22182372390056 l 7.416271908678526 4.688620659522984 a29.774067056522874,29.774067056522874 0 0,0 -0.27760083462632196,0.4308426600460736 l -7.334466210675154 -4.815584919490511" fill="#ff6309" stroke="none" /><path d="M 117.35343817320211 111.8261652097733 l 12.068911682506153 8.224822195747276 a35.60501041943451,35.60501041943451 0 0,0 -0.34950402611166276,0.5034866168558708 l -11.925546749232353 -8.431350074790165" fill="#ffb210" stroke="none" /><path d="M 116.93607887273984 112.41649034213515 l 7.080170506768306 5.190745117481667 a29.779102988322414,29.779102988322414 0 0,0 -0.3066378813881542,0.41079155216584157 l -6.9897713586850605 -5.311849549156824" fill="#ff6309" stroke="none" /><path d="M 116.0416608686014 113.55231037782055 l 14.611047163801508 12.343699803328198 a40.12719592772335,40.12719592772335 0 0,0 -0.4502987757280453,0.5237992071533927 l -14.396405878502684 -12.593376109643119" fill="#ffec16" stroke="none" /><path d="M 114.55890576462653 115.13401014063108 l 5.072849473896892 5.273236644362605 a28.317159728491962,28.317159728491962 0 0,0 -0.3541858634526936,0.3349048410614605 l -4.981327776053391 -5.359776122169987" fill="#ff4e07" stroke="none" /><path d="M 114.0293411484842 115.62618273729858 l 9.7626770644603 10.873880262792873 a35.61338890998579,35.61338890998579 0 0,0 -0.45968006680777956,0.40561421287295296 l -9.574054644745933 -11.040317617438115" fill="#ffb210" stroke="none" /><path d="M 113.75828350139079 115.86535959552629 l 9.567905185307382 11.033226370532143 a35.60400266291532,35.60400266291532 0 0,0 -0.4664709668862261,0.39753667785194735 l -9.376568741844109 -11.196287438607037" fill="#ffb210" stroke="none" /><path d="M 112.63410532772338 116.77436683061366 l 5.27834728079023 7.00808891889318 a29.773497609946617,29.773497609946617 0 0,0 -0.4120298042217829,0.304809798921847 l -5.156932506149883 -7.097908666554796" fill="#ff6309" stroke="none" /><path d="M 112.34349029814194 116.9893568818739 l 4.2952477380293805 5.911901330568342 a28.307511920853926,28.307511920853926 0 0,0 -0.39667272261424946,0.28301545527125943 l -4.192847687566247 -5.984961047683821" fill="#ff4e07" stroke="none" /><path d="M 112.04921762599082 117.19931262002967 l 4.195209240850372 5.988331979678186 a28.311627758122867,28.311627758122867 0 0,0 -0.4015439720417414,0.2761856054437305 l -4.091508384185747 -6.059658374487011" fill="#ff4e07" stroke="none" /><path d="M 111.45004920935366 117.60387380957326 l 3.986133477553315 6.128479401611673 a28.310781071598974,28.310781071598974 0 0,0 -0.41080048527531,0.2621923060549537 l -3.8800511902310744 -6.196186136490436" fill="#ff4e07" stroke="none" /><path d="M 111.1453310114006 117.79835938074945 l 10.078459178461731 16.09463534811001 a39.98980322174381,39.98980322174381 0 0,0 -0.5865567229957651,0.3603110466103624 l -9.799923255533658 -16.26573486154875" fill="#ffea16" stroke="none" /><line stroke="#e1ed5e" stroke-width="0.3" x1="143.8653032363475" x2="146.44561519142675" y1="172.8068346515853" y2="177.08958963109032" /><path d="M 144.38136562736335 173.6633856474863 a86.0,86.0 0 0,1 -40.68145358897372,12.25698825130547" fill="none" id="id78" stroke="none" /><text fill="#e1ed5e" style="font-size:6.75px; font-family:Arial;" text-anchor="middle"><textPath startOffset="21.466115282336833" xlink:href="#id78">June</textPath></text><path d="M 110.21172684928248 118.3499491758327 l 4.648650038749955 8.353385593474624 a30.55975930952445,30.55975930952445 0 0,0 -0.46185573712513117,0.25184057278498034 l -4.504171489756175 -8.432166818019375" fill="#ff6e0a" stroke="none" /><path d="M 109.2508944713604 118.85261126421891 l 6.435054218446203 13.1141454504883 a35.607899701562346,35.607899701562346 0 0,0 -0.5525792110408315,0.26527160148295337 l -6.20836233940514 -13.222971328470814" fill="#ffb210" stroke="none" /><path d="M 108.92500713936063 119.00905698771935 l 6.21039114590451 13.22729241166564 a35.61267336009522,35.61267336009522 0 0,0 -0.5571382359558243,0.2557548382224583 l -5.981784914181266 -13.332234320222172" fill="#ffb210" stroke="none" /><path d="M 108.2653958097858 119.30500536409082 l 5.748280692096679 13.425925648211864 a35.604732466787766,35.604732466787766 0 0,0 -0.5654854502205279,0.2363729640544086 l -5.51632378237869 -13.522883655286247" fill="#ffb210" stroke="none" /><path d="M 107.93186726928326 119.44442032107085 l 5.517432315548078 13.525601147164721 a35.60766736165764,35.60766736165764 0 0,0 -0.5695173808615585,0.22662271934402717 l -5.2837938586446525 -13.618570710914819" fill="#ffb210" stroke="none" /><path d="M 107.59598834532513 119.57807347666477 l 2.643665389633299 6.813843425366784 a28.308722796614955,28.308722796614955 0 0,0 -0.4558105804656186,0.17234855937112056 l -2.5259845884074057 -6.858340234844535" fill="#ff4e07" stroke="none" /><path d="M 106.57524785965236 119.94407469862006 l 5.488105515807529 16.646549103163554 a38.52788918257622,38.52788918257622 0 0,0 -0.6316347554410785,0.2022295023240791 l -5.200749415275511 -16.73855145214734" fill="#ffd714" stroke="none" /><path d="M 105.88484417918355 120.15858648285463 l 4.094428410040378 14.025501217792149 a35.61092154572171,35.61092154572171 0 0,0 -0.5899014133727971,0.1667120317851063 l -3.852395828562975 -14.093902042915774" fill="#ffb210" stroke="none" /><path d="M 104.48393922423573 120.51570834832081 l 4.6775912033938765 21.401738984956136 a42.906946182575496,42.906946182575496 0 0,0 -0.7228973296850173,0.151490164034578 l -4.3085024122794815 -21.479085129717255" fill="#f0ff19" stroke="none" /><path d="M 103.7750983002368 120.6578951692458 l 2.62732419747532 14.377105847459223 a35.61519774028684,35.61519774028684 0 0,0 -0.6040185384014038,0.10501636525400046 l -2.379456687601866 -14.42020079123423" fill="#ffb210" stroke="none" /><path d="M 103.41894727170886 120.7198165907248 l 1.9036699649029336 11.536794629285268 a32.69280076173279,32.69280076173279 0 0,0 -0.5560331404896717,0.08684094114539452 l -1.704800960804745 -11.567853877777768" fill="#ff8b0c" stroke="none" /><path d="M 101.62511606390274 120.93702456842531 l 1.130489004381514 14.564545009929267 a35.60835297818625,35.60835297818625 0 0,0 -0.6115094338696401,0.04217327083885522 l -0.8796168097329435 -14.581846625284406" fill="#ffb210" stroke="none" /><path d="M 101.26447882468166 120.96189622390904 l 0.44033264165813185 7.29961384743728 a28.312882821227735,28.312882821227735 0 0,0 -0.4867280245749636,0.02515827926491638 l -0.31461654866968863 -7.306111933464399" fill="#ff4e07" stroke="none" /><path d="M 100.90346689309514 120.98055641714683 l 0.6287320204634801 14.60058772204686 a35.61411871385824,35.61411871385824 0 0,0 -0.6126979183028519,0.02110255514445541 l -0.37731375048597593 -14.609247075617409" fill="#ffb210" stroke="none" /><line stroke="#e1ed5e" stroke-width="0.3" x1="102.19456741930631" x2="102.32365962044197" y1="184.97166512339345" y2="189.96999836594603" /><path d="M 102.22038585953345 185.97133177190398 a86.0,86.0 0 0,1 -42.740103519485714,-10.115201625700543" fill="none" id="id79" stroke="none" /><text fill="#e1ed5e" style="font-size:6.75px; font-family:Arial;" text-anchor="middle"><textPath startOffset="22.20632615414155" xlink:href="#id79">July</textPath></text><path d="M 100.54218724476979 120.99299961872073 l 0.37717467739857163 14.603862291487912 a35.60873213410436,35.60873213410436 0 0,0 -0.612877675479981,0.010551244988799138 l -0.1257373120259228 -14.60819101375587" fill="#ffb210" stroke="none" /><path d="M 100.18074693466247 120.99922214144158 l 0.07552955050120805 8.77504125964848 a29.775366306971584,29.775366306971584 0 0,0 -0.512552970327321,0.0 l 0.07552955050120201 -8.77504125964848" fill="#ff6309" stroke="none" /><path d="M 99.81925306533755 120.99922214144158 l -0.1257572849774864 14.610511476051393 a35.61105268235504,35.61105268235504 0 0,0 -0.6129176154647116,-0.010551932591856978 l 0.3772345903348659 -14.606182066180375" fill="#ffb210" stroke="none" /><path d="M 98.73552117531835 120.96189622390904 l -0.4403519958487815 7.299934691510018 a28.313204248519213,28.313204248519213 0 0,0 -0.48622837208039227,-0.033533155319486724 l 0.5659431287081038 -7.291273191674247" fill="#ff4e07" stroke="none" /><path d="M 98.37488393609728 120.93702456842531 l -1.1306132095537689 14.566145195172028 a35.60995797654636,35.60995797654636 0 0,0 -0.6107204147732421,-0.052695527164121535 l 1.3811779420685526 -14.544525415729243" fill="#ffb210" stroke="none" /><path d="M 96.93821686468263 120.77559828337769 l -1.2789838402967697 8.678490050596986 a29.772228292859868,29.772228292859868 0 0,0 -0.5063605812699699,-0.07908310896305291 l 1.4281802851752567 -8.655188634286828" fill="#ff6309" stroke="none" /><path d="M 95.86986931433489 120.58985236759428 l -2.8738421276494375 14.326903829326676 a35.61229420417711,35.61229420417711 0 0,0 -0.5999968460726963,-0.1257351727545997 l 3.1200304351515205 -14.275312675845536" fill="#ffb210" stroke="none" /><path d="M 95.16358092515715 120.4354850818985 l -2.019026601943824 8.531061383534032 a29.766725543153637,29.766725543153637 0 0,0 -0.4975957726606884,-0.12229693447499615 l 2.165575659347723 -8.495043190745006" fill="#ff6309" stroke="none" /><path d="M 92.7421414339146 119.70592522655815 l -2.5290973036934243 6.866791616766542 a28.31772917506822,28.31772917506822 0 0,0 -0.4559555959302815,-0.17240339181137704 l 2.646923120383989 -6.822239974848531" fill="#ff4e07" stroke="none" /><path d="M 92.06813273071674 119.44442032107085 l -2.7628673695285544 6.772976980153006 a28.314824213560307,28.314824213560307 0 0,0 -0.44970485688260403,-0.18797666664907295 l 2.879043685908621 -6.724415270483959" fill="#ff4e07" stroke="none" /><path d="M 90.7491055286396 118.85261126421891 l -3.216189964918089 6.554347728016631 a28.300914465339023,28.300914465339023 0 0,0 -0.43549190087994016,-0.2183646797647641 l 3.3285357734807897 -6.498015207342565" fill="#ff4e07" stroke="none" /><line stroke="#e1ed5e" stroke-width="0.3" x1="58.666819895761336" x2="56.23545636021788" y1="174.27360380694188" y2="178.64263932499728" /><path d="M 58.180547188652646 175.14741091055294 a86.0,86.0 0 0,1 -31.652253787137756,-30.449443065178592" fill="none" id="id80" stroke="none" /><text fill="#e1ed5e" style="font-size:6.75px; font-family:Arial;" text-anchor="middle"><textPath startOffset="22.20632615414155" xlink:href="#id80">August</textPath></text><path d="M 86.79598089348748 116.32954008644616 l -1.8431206797351447 2.27940544322965 a23.93134491568159,23.93134491568159 0 0,0 -0.31809301095556747,-0.2617688923544977 l 1.882083819235401 -2.2473414320179717" fill="#ff0f01" stroke="none" /><path d="M 85.97065885151581 115.62618273729859 l -7.806642583141739 8.695206872357634 a32.68547350234544,32.68547350234544 0 0,0 -0.41541750493643725,-0.37947404130545814 l 7.955159637545032 -8.5595400644656" fill="#ff8b0c" stroke="none" /><path d="M 85.18274418774928 114.88116024355367 l -8.24625277824418 8.28181753469107 a32.687137654730364,32.687137654730364 0 0,0 -0.39529547845328883,-0.40043223267818806 l 8.387588881753002 -8.138644808032216" fill="#ff8b0c" stroke="none" /><path d="M 84.9287848128048 114.62390073753433 l -5.764937816215281 5.593834162358596 a29.032775900073343,29.032775900073343 0 0,0 -0.3449279705881519,-0.3616555981578231 l 5.8603723381823905 -5.493771447618273" fill="#ff5808" stroke="none" /><path d="M 84.19399662182784 113.82643327865904 l -6.609035597515763 5.781309008925531 a29.780824869333976,29.780824869333976 0 0,0 -0.334194021505685,-0.3887431477402033 l 6.7075721285922265 -5.666688762023798" fill="#ff6309" stroke="none" /><path d="M 83.95833913139862 113.55231037782056 l -6.699142831581351 5.659567526243167 a29.769790149258647,29.769790149258647 0 0,0 -0.32733160132351513,-0.39429200038580653 l 6.795570432798402 -5.543414268743599" fill="#ff6309" stroke="none" /><path d="M 83.72743513129214 113.27417163493432 l -16.976598829281436 13.848479846631651 a42.90856686031569,42.90856686031569 0 0,0 -0.4619456374530367,-0.5763482101114924 l 17.212462378789333 -13.554203802941899" fill="#f0ff19" stroke="none" /><path d="M 83.28015986056508 112.70617746262583 l -11.637404999992611 8.843800652471597 a35.61649770343464,35.61649770343464 0 0,0 -0.3667460165784818,-0.4913162219843488 l 11.787912283266179 -8.64217155097794" fill="#ffb210" stroke="none" /><path d="M 82.85270091963577 112.12312394758628 l -5.964548891647493 4.216930326227506 a28.304679654653622,28.304679654653622 0 0,0 -0.2778429041465097,-0.40025342592604213 l 6.036252702956137 -4.113635638114451" fill="#ff4e07" stroke="none" /><path d="M 82.24976979558568 111.22182372390057 l -19.74999021222739 12.486086442713274 a44.36588256492757,44.36588256492757 0 0,0 -0.40253663909322035,-0.6490172326744577 l 19.96199149098857 -12.144272878673553" fill="#deff1b" stroke="none" /><line stroke="#e1ed5e" stroke-width="0.3" x1="26.63291911575756" x2="22.317208475507996" y1="142.92168965132927" y2="145.44649492493687" /><path d="M 25.769776987707644 143.4266507060508 a86.0,86.0 0 0,1 -11.730757126820373,-40.83630448921669" fill="none" id="id81" stroke="none" /><text fill="#e1ed5e" style="font-size:6.75px; font-family:Arial;" text-anchor="middle"><textPath startOffset="21.46611528233685" xlink:href="#id81">September</textPath></text><path d="M 81.87401531095188 110.60418214915194 l -12.607396876174366 7.3756618023835925 a35.6063973318718,35.6063973318718 0 0,0 -0.3049399754448793,-0.5316885506551774 l 12.732488847771622 -7.157553405870108" fill="#ffb210" stroke="none" /><path d="M 80.87730276802145 108.67885076344099 l -10.641723706631513 4.82975444286063 a32.68643707152078,32.68643707152078 0 0,0 -0.22811851243816028,-0.5143470240195646 l 10.723283303800955 -4.64585908234837" fill="#ff8b0c" stroke="none" /><path d="M 80.73074385275274 108.34839909993369 l -28.279992329395654 12.252297686259451 a51.82007081016194,51.82007081016194 0 0,0 -0.3475621965788811,-0.8215343644993524 l 28.486705507166842 -11.76368879609394" fill="#89ff24" stroke="none" /><path d="M 80.32549172779594 107.34259656027581 l -21.90425622392873 8.174746437370631 a44.37996834982512,44.37996834982512 0 0,0 -0.26094520897901946,-0.7180091436024705 l 22.041725693912976 -7.796489496762043" fill="#deff1b" stroke="none" /><path d="M 79.97269907076064 106.31721596034903 l -13.949776082682515 4.400180954197311 a35.627297945507976,35.627297945507976 0 0,0 -0.17944829955152808,-0.5864474257435214 l 14.023451154740172 -4.159406555901742" fill="#ffb210" stroke="none" /><path d="M 79.67330655649465 105.27499134158121 l -48.03994302761783 12.466871910330637 a70.63123030235457,70.63123030235457 0 0,0 -0.29526775609365447,-1.1794479112450993 l 48.247422098006545 -11.638096159688146" fill="#3cffa6" stroke="none" /><path d="M 79.23777060512086 103.15116336523772 l -14.45438031222173 2.193796862600922 a35.619912957493995,35.619912957493995 0 0,0 -0.08678698329411055,-0.6069879590239632 l 14.49000134653244 -1.9446634315965585" fill="#ffb210" stroke="none" /><path d="M 79.10278846688536 102.07522291339032 l -11.645183617687396 1.1564390701490161 a32.7024635360518,32.7024635360518 0 0,0 -0.05080624169513869,-0.5606426434900246 l 11.663364455659611 -0.9558150381104255" fill="#ff8b0c" stroke="none" /><path d="M 79.04373962182676 101.35467743843564 l -1.8970336996374788 0.12263012133250674 a22.900993162591146,22.900993162591146 0 0,0 -0.022043459053126414,-0.3936007693518048 l 1.898863509578137 -0.08995763564526432" fill="#ff0000" stroke="none" /><path d="M 79.0235259727143 100.99374915477108 l -62.92942208185711 2.9812474643132365 a84.0,84.0 0 0,0 -0.05599146859519655,-1.4448910119440128 l 62.97141568330351 -1.8975792053552267" fill="#4dd2ff" stroke="none" /><line stroke="#e1ed5e" stroke-width="0.3" x1="15.007084014347285" x2="10.007500721073583" y1="101.09737516637583" y2="101.16192664675087" /><path d="M 14.007167355692545 101.11028546245083 a86.0,86.0 0 0,1 10.666146001902534,-42.60595125391555" fill="none" id="id82" stroke="none" /><text fill="#e1ed5e" style="font-size:6.75px; font-family:Arial;" text-anchor="middle"><textPath startOffset="22.20632615414155" xlink:href="#id82">October</textPath></text><path d="M 79.00019446554 99.90962569577889 l -14.608086565564873 -0.06286704213514842 a35.60822184155292,35.60822184155292 0 0,0 0.007913491327873005,-0.612908624317169 l 14.604840067119284 0.3143119245127894" fill="#ffb210" stroke="none" /><path d="M 79.01574976396665 99.18683210126434 l -11.67908673392066 -0.4525803072184932 a32.68785249192184,32.68785249192184 0 0,0 0.02662720051106749,-0.5620581182465891 l 11.669565925176093 0.6535495320880913" fill="#ff8b0c" stroke="none" /><path d="M 79.03285615573316 98.82574320788736 l -19.393179290112023 -1.0861075152255004 a40.42356899524542,40.42356899524542 0 0,0 0.04488827326006907,-0.6944017193132273 l 19.37161042584754 1.4197682987917395" fill="#ffef16" stroke="none" /><path d="M 79.3925641242962 95.95851677861259 l -14.336244829221325 -2.8115915674550753 a35.60934505532536,35.60934505532536 0 0,0 0.12314170047255402,-0.6004826643889564 l 14.285723832833776 3.057949888007434" fill="#ffb210" stroke="none" /><path d="M 79.54389044137918 95.25157060432595 l -14.242870339020955 -3.306164547211237 a35.62156214319795,35.62156214319795 0 0,0 0.14378762253401237,-0.5960925242134433 l 14.183849916226128 3.5508423030840772" fill="#ffb210" stroke="none" /><path d="M 80.52162464483688 92.15188598940014 l -13.554065933799611 -5.4611256234699495 a35.61289144601804,35.61289144601804 0 0,0 0.23399079461078362,-0.5666272691333512 l 13.458053452302629 5.693627463056612" fill="#ffb210" stroke="none" /><path d="M 80.803312248108 91.48605970444005 l -14.6882924857015 -6.514417845581668 a37.06809185971838,37.06809185971838 0 0,0 0.2637089065919796,-0.5810476197352228 l 14.573981262146168 6.766287474158961" fill="#ffc512" stroke="none" /><path d="M 81.6062741919709 89.86733742301443 l -15.356828813107537 -8.459708828965177 a38.53279397774243,38.53279397774243 0 0,0 0.3250376196576246,-0.5782056566986793 l 15.20893355215748 8.72279799559864" fill="#ffd814" stroke="none" /><line stroke="#e1ed5e" stroke-width="0.3" x1="26.266209847984243" x2="21.928928074336255" y1="57.711370442889674" y2="55.22380399835377" /><path d="M 25.398753493254645 57.213857153982495 a86.0,86.0 0 0,1 29.58750427330803,-30.492523968695096" fill="none" id="id83" stroke="none" /><text fill="#e1ed5e" style="font-size:6.75px; font-family:Arial;" text-anchor="middle"><textPath startOffset="21.46611528233685" xlink:href="#id83">November</textPath></text><path d="M 82.95767976084542 87.72973835380427 l -14.231555875625041 -10.246545762306136 a38.5365014384304,38.5365014384304 0 0,0 0.3922233876340344,-0.5349922599433189 l 14.053069875477373 10.490000465920955" fill="#ffd814" stroke="none" /><path d="M 83.6137871275137 86.86637796730984 l -17.095914580808476 -13.702451088286562 a42.90952900409284,42.90952900409284 0 0,0 0.4668996229393802,-0.5723637308908356 l 16.857516465792703 13.99469898878548" fill="#f0ff19" stroke="none" /><path d="M 83.84228863543731 86.58626213691792 l -11.24055676538584 -9.331636051914353 a35.60922817267391,35.60922817267391 0 0,0 0.3955835711714338,-0.46824617478565006 l 11.078262580727282 9.523741176329118" fill="#ffb210" stroke="none" /><path d="M 84.31358615837235 86.03803664274999 l -16.36689690687988 -14.56763905331433 a42.91098861183774,42.91098861183774 0 0,0 0.49583925114832855,-0.5475180854309403 l 16.113714015115505 14.847209926014827" fill="#f0ff19" stroke="none" /><path d="M 87.22198572758235 83.33499621200491 l -5.337182826408702 -6.960719414073306 a29.77138160633597,29.77138160633597 0 0,0 0.409361949845535,-0.30832293366041064 l 5.2165747228047765 7.051558937239571" fill="#ff6309" stroke="none" /><path d="M 87.51073957382395 83.11751280151077 l -13.029565303332138 -17.612849914983727 a42.90849273960988,42.90849273960988 0 0,0 0.5975614128523172,-0.43415377953217904 l 12.72445857412604 17.83452292933257" fill="#f0ff19" stroke="none" /><path d="M 88.09926311788651 82.69761687909137 l -9.111564816498639 -13.247228877314118 a37.07823641862505,37.07823641862505 0 0,0 0.5289745509859309,-0.357165978117221 l 8.882185571106168 13.402106767730004" fill="#ffc512" stroke="none" /><path d="M 89.00827224532344 82.1063720568725 l -12.235675119003027 -19.918671850225877 a44.376595857711415,44.376595857711415 0 0,0 0.6543179737941044,-0.39421925799717417 l 11.890995078991272 20.126337717681672" fill="#deff1b" stroke="none" /><line stroke="#e1ed5e" stroke-width="0.3" x1="56.762969772571076" x2="54.21961505331055" y1="26.818313649435495" y2="22.513508569990535" /><path d="M 56.25429882871897 25.957352633546506 a86.0,86.0 0 0,1 42.265352541879196,-11.944610805530505" fill="none" id="id84" stroke="none" /><text fill="#e1ed5e" style="font-size:6.75px; font-family:Arial;" text-anchor="middle"><textPath startOffset="22.20632615414155" xlink:href="#id84">December</textPath></text><path d="M 89.63071344664047 81.73862282372117 l -7.2158418342264685 -12.70783758372353 a35.61360699590861,35.61360699590861 0 0,0 0.5356895500601335,-0.2981106546296964 l 6.99602819509429 12.830163635913411" fill="#ffb210" stroke="none" /><path d="M 89.94658935756843 81.56283822128135 l -6.993974212185557 -12.826396793343667 a35.609316547361594,35.609316547361594 0 0,0 0.5406765224222776,-0.28881067346423583 l 6.772152643234974 12.944886193309653" fill="#ffb210" stroke="none" /><path d="M 90.26544431104013 81.39251694778311 l -6.772673309283469 -12.945881440035112 a35.61043976113403,35.61043976113403 0 0,0 0.545585025023665,-0.2794698404544598 l 6.54882779667104 13.060543805802077" fill="#ffb210" stroke="none" /><path d="M 90.58718382345135 81.22770947309562 l -6.546871468667871 -13.05664223618119 a35.60607519188122,35.60607519188122 0 0,0 0.5502473556548912,-0.27000398772182566 l 6.321152846002554 13.167401384037845" fill="#ffb210" stroke="none" /><path d="M 92.23578459929587 80.48803036053334 l -3.2408580508895346 -8.14448345792195 a29.765601616682098,29.765601616682098 0 0,0 0.47769089755879607,-0.1853366468794467 l 3.1001839883310622 8.199062808691949" fill="#ff6309" stroke="none" /><path d="M 92.57280143429618 80.3572730644239 l -3.0999566260150386 -8.198461503118983 a29.76495876209914,29.76495876209914 0 0,0 0.48080000403593576,-0.1770826991245828 l 2.9583742962065336 8.250607470049887" fill="#ff6309" stroke="none" /><path d="M 92.91201910852362 80.23233633223022 l -2.957995185837195 -8.24955016947462 a29.7638355483267,29.7638355483267 0 0,0 0.48375870003546745,-0.1687739115913046 l 2.815554481738442 8.299244934238134" fill="#ff6309" stroke="none" /><path d="M 93.59665428221793 80.00007090966166 l -4.452491878791264 -13.906717796579729 a35.60210545792659,35.60210545792659 0 0,0 0.5852555983986408,-0.18184176330072943 l 4.212450907681894 13.981299694762983" fill="#ffb210" stroke="none" /><path d="M 94.63758080256005 79.69619591428918 l -3.7302462996449552 -14.123884625729517 a35.60817765420908,35.60817765420908 0 0,0 0.5939632439235653,-0.1514144560194147 l 3.4865741670363906 14.186002077917795" fill="#ffb210" stroke="none" /><path d="M 94.98787191387505 79.60689891045804 l -5.577893576927883 -22.695059987770907 a44.3704652201032,44.3704652201032 0 0,0 0.7432608887088105,-0.17590583856118572 l 5.186409001256538 22.78771173847296" fill="#deff1b" stroke="none" /><path d="M 95.33964822691252 79.52364482259891 l -2.59584282199 -11.405447956680801 a32.697121143641766,32.697121143641766 0 0,0 0.5498679157671827,-0.12017982873396824 l 2.3991321820692963 11.448441283510638" fill="#ff8b0c" stroke="none" /><path d="M 95.692805502759 79.44645832069477 l -1.498986153872015 -7.153026038189141 a28.30840208202257,28.30840208202257 0 0,0 0.47778326629425005,-0.09583882846702181 l 1.3756364781106287 7.177768822733373" fill="#ff4e07" stroke="none" /><path d="M 96.40284397218896 79.31037775812273 l -2.500580588543977 -14.38249199154945 a35.598252606623404,35.598252606623404 0 0,0 0.6046122389177548,-0.0997661999389977 l 2.2526391434873365 14.423404454428075" fill="#ffb210" stroke="none" /><path d="M 97.47563105711357 79.15227682838746 l -1.7554975324614848 -14.497930933724263 a35.603827338938146,35.603827338938146 0 0,0 0.6090514410779798,-0.06843402587303223 l 1.5056793878737869 14.526000913067893" fill="#ffb210" stroke="none" /><path d="M 97.83486435360386 79.11191278185805 l -2.2602671091011777 -21.805865415309263 a42.92269540715888,42.92269540715888 0 0,0 0.735561883552181,-0.06985046397525789 l 1.8845800984587604 21.8415414237997" fill="#f0ff19" stroke="none" /><path d="M 99.63851952072746 79.00311137660856 l -0.251634140645782 -14.616374404546313 a35.618540299038585,35.618540299038585 0 0,0 0.6131146199183141,-0.005277271100830479 l 3.580509717084839e-15 14.618540299038585" fill="#ffb210" stroke="none" /></svg>