<?xml version="1.0" encoding="utf-8" ?>
<svg baseProfile="full" height="200mm" version="1.1" viewBox="0,0,200,200" width="200mm" xmlns="http://www.w3.org/2000/svg" xmlns:ev="http://www.w3.org/2001/xml-events" xmlns:xlink="http://www.w3.org/1999/xlink"><defs /><rect fill="#1a1a1a" height="200" width="200" x="0" y="0" /><text alignment-baseline="middle" fill="#e1ed5e" style="dominant-baseline: central; font-size:9.0px; font-family:Arial;" text-anchor="middle" x="100.0" y="100.0">2013</text><line stroke="#e1ed5e" stroke-width="0.3" x1="100.0" x2="100.0" y1="15.0" y2="10.0" /><path d="M 100.0 14.0 a86.0,86.0 0 0,1 42.46469731375804,11.215312516191453" fill="none" id="id1" stroke="none" /><text fill="#e1ed5e" style="font-size:6.75px; font-family:Arial;" text-anchor="middle"><textPath startOffset="22.20632615414155" xlink:href="#id1">January</textPath></text><line stroke="#e1ed5e" stroke-width="0.3" x1="143.23703022742887" x2="145.7803849466894" y1="26.81831364943548" y2="22.513508569990506" /><path d="M 143.74570117128098 25.957352633546492 a86.0,86.0 0 0,1 28.547481713284135,27.462654790039103" fill="none" id="id2" stroke="none" /><text fill="#e1ed5e" style="font-size:6.75px; font-family:Arial;" text-anchor="middle"><textPath startOffset="19.985693538727396" xlink:href="#id2">February</textPath></text><line stroke="#e1ed5e" stroke-width="0.3" x1="172.23445277983987" x2="176.4835382374775" y1="55.19839476539836" y2="52.563006222186495" /><path d="M 173.08426987136738 54.67131705675599 a86.0,86.0 0 0,1 12.851231095245387,41.99856678651699" fill="none" id="id3" stroke="none" /><text fill="#e1ed5e" style="font-size:6.75px; font-family:Arial;" text-anchor="middle"><textPath startOffset="22.20632615414155" xlink:href="#id3">March</textPath></text><path d="M 119.34039704204932 91.81776055985345 l 4.773849213841211 -2.0196471268857272 a26.183494075778434,26.183494075778434 0 0,0 0.172035921142912,0.416598628814422 l -4.80790682187032 1.9371739276180022" fill="#ff0000" stroke="none" /><line stroke="#e1ed5e" stroke-width="0.3" x1="184.98032266829074" x2="189.97916517819016" y1="98.17113171792111" y2="98.06355123074" /><path d="M 185.9800911702706 98.14961562048488 a86.0,86.0 0 0,1 -9.607161424134198,41.387399972396054" fill="none" id="id4" stroke="none" /><text fill="#e1ed5e" style="font-size:6.75px; font-family:Arial;" text-anchor="middle"><textPath startOffset="21.466115282336823" xlink:href="#id4">April</textPath></text><path d="M 120.92983693683757 101.71520430193887 l 13.595487590517255 1.1141529134978132 a34.641063724598766,34.641063724598766 0 0,0 -0.053818032828885476,0.5938775076824062 l -13.574294961411296 -1.3480118097287899" fill="#ff7f0b" stroke="none" /><path d="M 120.8583938346157 102.4346265915055 l 10.277661629946547 1.199625843732887 a31.34743595025489,31.34743595025489 0 0,0 -0.06717082413059836,0.5354175582842607 l -10.255489296569099 -1.3763611563045426" fill="#ff4f07" stroke="none" /><path d="M 120.76222939487914 103.15116336523771 l 7.719638271558541 1.1716391747517236 a28.808044146873417,28.808044146873417 0 0,0 -0.07862983575149227,0.4896280622825818 l -7.69832668144576 -1.3043464667275104" fill="#ff2903" stroke="none" /><path d="M 120.41448212921028 104.9243191809786 l 17.585671960942825 4.241962210922775 a39.09005532652644,39.09005532652644 0 0,0 -0.16341259910710057,0.6527521028299218 l -17.510048047540664 -4.544042153150093" fill="#ffbe11" stroke="none" /><path d="M 120.23288151984713 105.62410040840565 l 18.98550606305348 5.277369528322823 a40.70533099464992,40.70533099464992 0 0,0 -0.19346151196450176,0.6734649029144169 l -18.89185191420288 -5.603391906741822" fill="#ffd413" stroke="none" /><path d="M 119.79798401119884 107.00284435728193 l 17.07938950037594 6.041236639087745 a39.11634857897717,39.11634857897717 0 0,0 -0.229996192741255,0.6328507429896946 l -16.972869046629455 -6.3343351790835705" fill="#ffbe11" stroke="none" /><line stroke="#e1ed5e" stroke-width="0.3" x1="174.80103733775053" x2="179.2010983576182" y1="140.37084112569926" y2="142.7455964860345" /><path d="M 175.68104954172406 140.8457921977663 a86.0,86.0 0 0,1 -30.038265399797805,32.042727171017184" fill="none" id="id5" stroke="none" /><text fill="#e1ed5e" style="font-size:6.75px; font-family:Arial;" text-anchor="middle"><textPath startOffset="22.206326154141568" xlink:href="#id5">May</textPath></text><path d="M 118.48025628344425 109.97397251340804 l 6.83712471145345 3.6900621342503457 a28.769352152824304,28.769352152824304 0 0,0 -0.23895493810712182,0.43377262181808335 l -6.772593363894819 -3.807205274466234" fill="#ff2803" stroke="none" /><path d="M 117.55443506779139 111.5257021239791 l 8.82606400685536 5.794922153708879 a31.55843400418138,31.55843400418138 0 0,0 -0.3020546301400553,0.4515306887489872 l -8.725006271304583 -5.945989756663673" fill="#ff5207" stroke="none" /><path d="M 117.14729908036423 112.12312394758627 l 14.772841504576425 10.444384726636647 a39.09204295919443,39.09204295919443 0 0,0 -0.3931918776334715,0.5461091284994458 l -14.59086983456735 -10.697127460587224" fill="#ffbe11" stroke="none" /><path d="M 115.07121518719521 114.62390073753431 l 12.98220321000621 12.59689074434627 a39.08920276327545,39.08920276327545 0 0,0 -0.4727175952780412,0.4788604282652324 l -12.763444989672633 -12.818491666592166" fill="#ffbe11" stroke="none" /><path d="M 113.48314897796784 116.09983520530334 l 11.721156474170895 13.99589131278498 a39.25569726773777,39.25569726773777 0 0,0 -0.5217827491539125,0.4293916797649663 l -11.478503596472292 -14.195578111407125" fill="#ffc011" stroke="none" /><path d="M 111.7513745106137 117.40417183066458 l 10.419142205628816 15.43109200639571 a39.61926756913293,39.61926756913293 0 0,0 -0.5684898921890928,0.3767641017365903 l -10.151977614699758 -15.60815412922362" fill="#ffc512" stroke="none" /><line stroke="#e1ed5e" stroke-width="0.3" x1="143.8653032363475" x2="146.44561519142675" y1="172.8068346515853" y2="177.08958963109032" /><path d="M 144.38136562736335 173.6633856474863 a86.0,86.0 0 0,1 -40.68145358897372,12.25698825130547" fill="none" id="id6" stroke="none" /><text fill="#e1ed5e" style="font-size:6.75px; font-family:Arial;" text-anchor="middle"><textPath startOffset="21.466115282336833" xlink:href="#id6">June</textPath></text><path d="M 109.57404056367764 118.69057910512821 l 8.539189820735585 16.6703286639154 a39.73012601552679,39.73012601552679 0 0,0 -0.61136356996138,0.30655038567815773 l -8.250972343091444 -16.814846890502857" fill="#ffc712" stroke="none" /><path d="M 107.2578585660854 119.70592522655815 l 7.1737999944078785 19.47769648483688 a41.75678363126603,41.75678363126603 0 0,0 -0.6766198419398239,0.2426118023387196 l -6.83746059183832 -19.598295828215562" fill="#ffe215" stroke="none" /><path d="M 105.18746579009965 120.34920634021253 l 3.8309650091425445 15.027973312509923 a36.50858713045083,36.50858713045083 0 0,0 -0.6102961709910019,0.14999595039751892 l -3.571715553408332 -15.091690521221473" fill="#ff9a0e" stroke="none" /><line stroke="#e1ed5e" stroke-width="0.3" x1="102.19456741930631" x2="102.32365962044197" y1="184.97166512339345" y2="189.96999836594603" /><path d="M 102.22038585953345 185.97133177190398 a86.0,86.0 0 0,1 -42.740103519485714,-10.115201625700543" fill="none" id="id7" stroke="none" /><text fill="#e1ed5e" style="font-size:6.75px; font-family:Arial;" text-anchor="middle"><textPath startOffset="22.20632615414155" xlink:href="#id7">July</textPath></text><path d="M 99.81925306533755 120.99922214144158 l -0.1558677833761929 18.108756388723343 a39.109427177909936,39.109427177909936 0 0,0 -0.6731296898716137,-0.01158853805779025 l 0.4675571631404745 -18.103390373386393" fill="#ffbe11" stroke="none" /><path d="M 94.46302465271185 120.25689768951611 l -4.772365648979405 17.45959059320803 a39.100076728290325,39.100076728290325 0 0,0 -0.6476999056423964,-0.1830464630340296 l 5.0721967227264155 -17.37485533683548" fill="#ffbe11" stroke="none" /><line stroke="#e1ed5e" stroke-width="0.3" x1="58.666819895761336" x2="56.23545636021788" y1="174.27360380694188" y2="178.64263932499728" /><path d="M 58.180547188652646 175.14741091055294 a86.0,86.0 0 0,1 -31.652253787137756,-30.449443065178592" fill="none" id="id8" stroke="none" /><text fill="#e1ed5e" style="font-size:6.75px; font-family:Arial;" text-anchor="middle"><textPath startOffset="22.20632615414155" xlink:href="#id8">August</textPath></text><path d="M 87.36589467227662 116.77436683061367 l -4.739261873993434 6.292342442821218 a28.87744733578188,28.87744733578188 0 0,0 -0.3944814302418153,-0.30247153915829217 l 4.8468720327287365 -6.209831561835559" fill="#ff2a04" stroke="none" /><path d="M 83.28015986056508 112.70617746262583 l -4.1611877036347416 3.162278405579687 a26.22642208583239,26.22642208583239 0 0,0 -0.27005563290287815,-0.3617836521342035 l 4.215004603232705 -3.0901818739361757" fill="#ff0100" stroke="none" /><path d="M 82.05923443525364 110.91462005526583 l -7.859567284006155 4.781523419061383 a30.19976978510073,30.19976978510073 0 0,0 -0.26636071017673113,-0.4464358712956266 l 7.940708869881118 -4.645525453879645" fill="#ff3e05" stroke="none" /><line stroke="#e1ed5e" stroke-width="0.3" x1="26.63291911575756" x2="22.317208475507996" y1="142.92168965132927" y2="145.44649492493687" /><path d="M 25.769776987707644 143.4266507060508 a86.0,86.0 0 0,1 -11.730757126820373,-40.83630448921669" fill="none" id="id9" stroke="none" /><text fill="#e1ed5e" style="font-size:6.75px; font-family:Arial;" text-anchor="middle"><textPath startOffset="21.46611528233685" xlink:href="#id9">September</textPath></text><path d="M 79.23777060512086 103.15116336523772 l -13.198943480354268 2.003254388731204 a34.35009876905625,34.35009876905625 0 0,0 -0.0836931143424913,-0.5853494467822499 l 13.231470645713358 -1.7757594699685535" fill="#ff7b0b" stroke="none" /><path d="M 79.04373962182676 101.35467743843564 l -62.86878113451971 4.064032315306924 a84.0,84.0 0 0,0 -0.08085459644987347,-1.4437131346582497 l 62.92942208185711 -2.9812474643132365" fill="#4dd2ff" stroke="none" /><line stroke="#e1ed5e" stroke-width="0.3" x1="15.007084014347285" x2="10.007500721073583" y1="101.09737516637583" y2="101.16192664675087" /><path d="M 14.007167355692545 101.11028546245083 a86.0,86.0 0 0,1 10.666146001902534,-42.60595125391555" fill="none" id="id10" stroke="none" /><text fill="#e1ed5e" style="font-size:6.75px; font-family:Arial;" text-anchor="middle"><textPath startOffset="22.20632615414155" xlink:href="#id10">October</textPath></text><path d="M 79.03285615573316 98.82574320788736 l -9.404915120520657 -0.5267186385299708 a30.41965291018586,30.41965291018586 0 0,0 0.033779444176972234,-0.522553050281859 l 9.394455085339272 0.6885307530648417" fill="#ff4106" stroke="none" /><path d="M 79.71946130924805 94.55025226153421 l -17.667946327752706 -4.74769689361911 a39.29472473785902,39.29472473785902 0 0,0 0.1811547238846688,-0.6517099267362072 l 17.583604833301674 5.05111812377426" fill="#ffc111" stroke="none" /><path d="M 80.02781315780177 93.51064311812611 l -7.434661126662486 -2.41566783486977 a28.81726532469832,28.81726532469832 0 0,0 0.157345982296513,-0.47044445969192783 l 7.391977850594201 2.5432853974840204" fill="#ff2904" stroke="none" /><path d="M 80.52162464483688 92.15188598940014 l -16.78910205357006 -6.764567611491665 a39.10064426299883,39.10064426299883 0 0,0 0.25690671128911285,-0.6221199790441311 l 16.670173655394745 7.052562160989107" fill="#ffbe11" stroke="none" /><line stroke="#e1ed5e" stroke-width="0.3" x1="26.266209847984243" x2="21.928928074336255" y1="57.711370442889674" y2="55.22380399835377" /><path d="M 25.398753493254645 57.213857153982495 a86.0,86.0 0 0,1 29.58750427330803,-30.492523968695096" fill="none" id="id11" stroke="none" /><text fill="#e1ed5e" style="font-size:6.75px; font-family:Arial;" text-anchor="middle"><textPath startOffset="21.46611528233685" xlink:href="#id11">November</textPath></text><line stroke="#e1ed5e" stroke-width="0.3" x1="56.762969772571076" x2="54.21961505331055" y1="26.818313649435495" y2="22.513508569990535" /><path d="M 56.25429882871897 25.957352633546506 a86.0,86.0 0 0,1 42.265352541879196,-11.944610805530505" fill="none" id="id12" stroke="none" /><text fill="#e1ed5e" style="font-size:6.75px; font-family:Arial;" text-anchor="middle"><textPath startOffset="22.20632615414155" xlink:href="#id12">December</textPath></text><path d="M 96.40284397218896 79.31037775812273 l -3.5418500933791406 -20.371521252572613 a41.67712698195732,41.67712698195732 0 0,0 0.7078578079288184,-0.11680260346799491 l 3.190663079311437 20.429470118980237" fill="#ffe115" stroke="none" /><path d="M 97.47563105711357 79.15227682838746 l -2.5301118908578153 -20.8951518130692 a42.047775071761606,42.047775071761606 0 0,0 0.7192838499576584,-0.08081992140259021 l 2.1700613373904387 20.93560768794239" fill="#ffe615" stroke="none" /></svg>