<?xml version="1.0" encoding="utf-8" ?>
<svg baseProfile="full" height="200mm" version="1.1" viewBox="0,0,200,200" width="200mm" xmlns="http://www.w3.org/2000/svg" xmlns:ev="http://www.w3.org/2001/xml-events" xmlns:xlink="http://www.w3.org/1999/xlink"><defs /><rect fill="#1a1a1a" height="200" width="200" x="0" y="0" /><text alignment-baseline="middle" fill="#e1ed5e" style="dominant-baseline: central; font-size:9.0px; font-family:Arial;" text-anchor="middle" x="100.0" y="100.0">2023</text><line stroke="#e1ed5e" stroke-width="0.3" x1="100.0" x2="100.0" y1="15.0" y2="10.0" /><path d="M 100.0 14.0 a86.0,86.0 0 0,1 42.46469731375804,11.215312516191453" fill="none" id="id121" stroke="none" /><text fill="#e1ed5e" style="font-size:6.75px; font-family:Arial;" text-anchor="middle"><textPath startOffset="22.20632615414155" xlink:href="#id121">January</textPath></text><path d="M 100.0 79.0 l 0.0 -14.19152154375061 a35.19152154375061,35.19152154375061 0 0,0 0.6057641939983085,0.0052140036643248166 l -0.24428371472578012 14.189418916694844" fill="#ffa60f" stroke="none" /><path d="M 101.80526077348638 79.07773832637324 l 0.9015700750746037 -10.448842241995651 a31.487665745931395,31.487665745931395 0 0,0 0.5396009385019968,0.051241611016918105 l -1.0812961406668447 10.431775086463555" fill="#ff740a" stroke="none" /><path d="M 102.16513564639614 79.11191278185805 l 1.0809864960531317 -10.428787798480638 a31.484662452858835,31.484662452858835 0 0,0 0.5385875753249552,0.060516589533791486 l -1.2603407748878122 10.408635255476245" fill="#ff740a" stroke="none" /><path d="M 102.52436894288641 79.15227682838746 l 0.5041530640687341 -4.1635924675128475 a25.19400435711977,25.19400435711977 0 0,0 0.43007997580650426,0.05583672423763811 l -0.5757477683830844 4.154297420111073" fill="#ff1a02" stroke="none" /><path d="M 102.88285421437855 79.19881850522331 l 1.7821113644701145 -12.858791731942619 a33.981696565582226,33.981696565582226 0 0,0 0.5787099423577723,0.08528680221783053 l -2.0031902872565426 12.826210445563818" fill="#ff960d" stroke="none" /><path d="M 104.66035177308747 79.52364482259891 l 2.3271234700698584 -10.224766076670608 a31.486245513413465,31.486245513413465 0 0,0 0.527434064671494,0.1248266023965669 l -2.502781221703876 10.183193562133173" fill="#ff740a" stroke="none" /><path d="M 105.01212808612495 79.60689891045804 l 2.504940394680153 -10.191978699308123 a31.49529209636639,31.49529209636639 0 0,0 0.5253581366488538,0.1339254866186598 l -2.680007420014032 10.147350216520595" fill="#ff740a" stroke="none" /><path d="M 105.71112130821622 79.79150937346287 l 4.078927483357887 -14.433061979471066 a35.99836416139259,35.99836416139259 0 0,0 0.5948468814265536,0.17365211646391066 l -4.326764582507868 14.360711534088452" fill="#ffb110" stroke="none" /><path d="M 106.74666289553966 80.11325718540242 l 4.03002984347861 -11.879082781117893 a33.544072235920034,33.544072235920034 0 0,0 0.5451997862438576,0.19020950014205718 l -4.233911633785742 11.807952427803627" fill="#ff900d" stroke="none" /><path d="M 108.09893153111575 80.62456947434976 l 8.535611044941652 -20.420118155074228 a43.13228143182989,43.13228143182989 0 0,0 0.6825503658741081,0.2922324458172623 l -8.885845168606075 20.270166181294176" fill="#f2ff19" stroke="none" /><path d="M 109.08828744355905 81.06846463323043 l 5.4882832024238795 -11.432475941677103 a33.68159133023273,33.68159133023273 0 0,0 0.5205068647368024,0.2554104579898544 l -5.684261334171114 11.336310323552416" fill="#ff920d" stroke="none" /><path d="M 109.41281617654863 81.2277094730956 l 4.854190725304059 -9.680873062776087 a31.829703174843324,31.829703174843324 0 0,0 0.48766062760327283,0.24979871429993392 l -5.020111840496087 9.595881823163651" fill="#ff790b" stroke="none" /><path d="M 109.73455568895987 81.39251694778311 l 7.2904557831041465 -13.935616248094211 a36.727432903673254,36.727432903673254 0 0,0 0.5576535195064433,0.29787919735595275 l -7.529254349138901 13.808058324236505" fill="#ffbb11" stroke="none" /><line stroke="#e1ed5e" stroke-width="0.3" x1="143.23703022742887" x2="145.7803849466894" y1="26.81831364943548" y2="22.513508569990506" /><path d="M 143.74570117128098 25.957352633546492 a86.0,86.0 0 0,1 28.547481713284135,27.462654790039103" fill="none" id="id122" stroke="none" /><text fill="#e1ed5e" style="font-size:6.75px; font-family:Arial;" text-anchor="middle"><textPath startOffset="19.985693538727396" xlink:href="#id122">February</textPath></text><path d="M 110.68208982089419 81.91981866633111 l 5.346088433604363 -9.048627181203154 a31.509915099767785,31.509915099767785 0 0,0 0.46460309548332196,0.2799181665491846 l -5.501053595305323 8.955262405195354" fill="#ff740a" stroke="none" /><path d="M 110.99172775467656 82.1063720568725 l 7.754253258160506 -12.623285972423648 a35.81471539832205,35.81471539832205 0 0,0 0.5225210886325745,0.3272026577655414 l -7.970393499165343 12.487938973335163" fill="#ffaf10" stroke="none" /><path d="M 111.60114157652 82.49532879139004 l 5.788489854610851 -8.73410698688603 a31.478131496373965,31.478131496373965 0 0,0 0.4490809726270104,0.3032214773720234 l -5.937975521644403 8.633173597215336" fill="#ff740a" stroke="none" /><path d="M 112.77801427241765 83.33499621200491 l 6.372458824191341 -8.31091969221119 a31.472803712301584,31.472803712301584 0 0,0 0.42708211694587517,0.3333443665405434 l -6.514573496296647 8.199996936447423" fill="#ff740a" stroke="none" /><path d="M 114.16331599549186 84.49514656593476 l 7.082872722025659 -7.753756498979588 a31.50180107609563,31.50180107609563 0 0,0 0.3972108843434826,0.3691642273912424 l -7.215291490163988 7.630687685513705" fill="#ff740a" stroke="none" /><path d="M 114.42810811169701 84.74124197986012 l 7.335001333451652 -7.757289421320944 a31.676037829076634,31.676037829076634 0 0,0 0.3929589824019706,0.37802622972970196 l -7.467443559466041 7.62988010482894" fill="#ff760a" stroke="none" /><path d="M 115.4437574822437 85.77008943001954 l 9.271091855745304 -8.542403501544975 a33.60657771882896,33.60657771882896 0 0,0 0.3883261809812042,0.4287994680556903 l -9.416761677342544 8.381551246219734" fill="#ff910d" stroke="none" /><path d="M 115.68641384162765 86.03803664274999 l 16.911241681387587 -15.052142514214891 a43.63972370579059,43.63972370579059 0 0,0 0.49460044348537224,0.5654138072355746 l -17.167833988450806 14.75881315077637" fill="#ecff1a" stroke="none" /><path d="M 116.82858285166822 87.43820079747576 l 8.493957804554135 -6.340367059781607 a31.599413834656602,31.599413834656602 0 0,0 0.3216179123390606,0.4386864709889991 l -8.601838329406823 6.193218145121114" fill="#ff750a" stroke="none" /><path d="M 117.04232023915458 87.72973835380427 l 13.202596804202429 -9.5057078451442 a37.26859071989864,37.26859071989864 0 0,0 0.3703564076636652,0.5238428738330732 l -13.364265831669977 9.277038470979333" fill="#ffc212" stroke="none" /><path d="M 117.65298651832404 88.62581576622439 l 12.332004468499127 -7.945765474349319 a35.67015757190236,35.67015757190236 0 0,0 0.3281185752595192,0.5190047882142707 l -12.466950640004601 7.732313038420842" fill="#ffad10" stroke="none" /><line stroke="#e1ed5e" stroke-width="0.3" x1="172.23445277983987" x2="176.4835382374775" y1="55.19839476539836" y2="52.563006222186495" /><path d="M 173.08426987136738 54.67131705675599 a86.0,86.0 0 0,1 12.851231095245387,41.99856678651699" fill="none" id="id123" stroke="none" /><text fill="#e1ed5e" style="font-size:6.75px; font-family:Arial;" text-anchor="middle"><textPath startOffset="22.20632615414155" xlink:href="#id123">March</textPath></text><path d="M 117.84615892207809 88.93136811851018 l 9.291475225783616 -5.762804161905655 a31.93350006538747,31.93350006538747 0 0,0 0.2857047698910543,0.469623520689782 l -9.389295793960894 5.602012868008791" fill="#ff7a0b" stroke="none" /><path d="M 118.3937258080291 89.86733742301442 l 23.033447070346018 -12.688573787850832 a47.29714031434153,47.29714031434153 0 0,0 0.3866921867666797,0.716481893713574 l -23.24844735633116 12.290210910804799" fill="#c0ff1e" stroke="none" /><path d="M 119.04729006885535 91.15688171328212 l 11.692924331597828 -5.428694192620921 a33.8916717326136,33.8916717326136 0 0,0 0.24111129671863332,0.5312567818059996 l -11.784637945279808 5.226615401972858" fill="#ff950d" stroke="none" /><path d="M 119.47837535516314 92.15188598940014 l 14.813535193372138 -5.968583671779447 a36.97074876054054,36.97074876054054 0 0,0 0.2327510215165042,0.592325962391991 l -14.914079764770342 5.712708704491671" fill="#ffbe11" stroke="none" /><path d="M 119.61058180528143 92.48833698450437 l 20.705971574821916 -7.931242551743437 a43.17299860803493,43.17299860803493 0 0,0 0.2598509011753017,0.6962712254098206 l -20.839427064498842 7.573648189304283" fill="#f1ff19" stroke="none" /><path d="M 119.97218684219823 93.5106431181261 l 21.023363037493755 -6.830904731936584 a43.10527206037176,43.10527206037176 0 0,0 0.2232124741545231,0.707644541378909 l -21.137830995416486 6.468010024131255" fill="#f2ff19" stroke="none" /><path d="M 120.08093135843002 93.85539295169968 l 2.3534678267701867 -0.7201426436951243 a23.4611818784703,23.4611818784703 0 0,0 0.11484148304269245,0.38718839006060246 l -2.3655152069245817 0.679524866887992" fill="#ff0000" stroke="none" /><path d="M 120.18372546131832 94.20196356495316 l 15.067796724733881 -4.32841967521393 a36.67717178009733,36.67717178009733 0 0,0 0.1690874022154036,0.6082973501699667 l -15.140070897515647 4.068411021625012" fill="#ffba11" stroke="none" /><path d="M 120.28053869075195 94.5502522615342 l 12.148341819214115 -3.264479280600256 a33.579309755703406,33.579309755703406 0 0,0 0.14519640471815234,0.5595009767201419 l -12.20273455580257 3.0548818783312637" fill="#ff910d" stroke="none" /><path d="M 120.67395015179393 96.31383870115 l 10.328698487460057 -1.8416049353133415 a31.491592881094373,31.491592881094373 0 0,0 0.09055803199296598,0.5344786310187535 l -10.358868380973247 1.66354051597875" fill="#ff740a" stroke="none" /><path d="M 120.78858239683441 97.02765380044208 l 12.45470959574387 -1.780771195786007 a33.581372626468685,33.581372626468685 0 0,0 0.07689175014334639,0.5729328504931189 l -12.483517344945051 1.5661200032282236" fill="#ff910d" stroke="none" /><path d="M 120.83666639777658 97.38593545837742 l 10.402450578184265 -1.3050397162050076 a31.483992879263063,31.483992879263063 0 0,0 0.06283252512416358,0.5383107040873881 l -10.423373456312017 1.1257852737927667" fill="#ff740a" stroke="none" /><path d="M 120.87857604477298 97.74499172005257 l 54.18509785205609 -5.852307362538655 a75.50022321699717,75.50022321699717 0 0,0 0.12843261833068909,1.2932989394490955 l -54.277807596069 4.918732892385124" fill="#42ffd9" stroke="none" /><path d="M 120.94382443527127 98.46500227214037 l 10.627053962389667 -0.7788693863685251 a31.655557866229437,31.655557866229437 0 0,0 0.03515185242219029,0.5437835983931333 l -10.638886405816272 0.5958267237223566" fill="#ff760a" stroke="none" /><path d="M 120.98425023603335 99.18683210126433 l 12.58044897359093 -0.48750930540466175 a33.58989125052243,33.58989125052243 0 0,0 0.0174160475779687,0.5779538311219801 l -12.586976715624543 0.2708853268576826" fill="#ff910d" stroke="none" /><line stroke="#e1ed5e" stroke-width="0.3" x1="184.98032266829074" x2="189.97916517819016" y1="98.17113171792111" y2="98.06355123074" /><path d="M 185.9800911702706 98.14961562048488 a86.0,86.0 0 0,1 -9.607161424134198,41.387399972396054" fill="none" id="id124" stroke="none" /><text fill="#e1ed5e" style="font-size:6.75px; font-family:Arial;" text-anchor="middle"><textPath startOffset="21.466115282336823" xlink:href="#id124">April</textPath></text><path d="M 120.9764740272857 100.99374915477107 l 14.771543139510527 0.6997938972230761 a35.78811002870249,35.78811002870249 0 0,0 -0.034448014215175515,0.6150924346789816 l -14.757308774407823 -0.9539580482374811" fill="#ffae10" stroke="none" /><path d="M 120.95626037817324 101.35467743843564 l 4.185851750625492 0.2705863939882475 a25.194588403505886,25.194588403505886 0 0,0 -0.031701320412199814,0.43253933020813434 l -4.180573871548955 -0.34259886069315215" fill="#ff1a02" stroke="none" /><path d="M 120.92983693683757 101.71520430193887 l 17.851164117024744 1.4629064517099852 a38.91100654958862,38.91100654958862 0 0,0 -0.06045177609265212,0.6670803118171605 l -17.823337744655017 -1.7699681520757162" fill="#ffd714" stroke="none" /><path d="M 120.89721153311464 102.0752229133903 l 14.600238170341944 1.4498943432733373 a35.67205330679268,35.67205330679268 0 0,0 -0.06593842905245159,0.610507960208718 l -14.573117439788442 -1.7009986253668468" fill="#ffad10" stroke="none" /><path d="M 120.81339534386255 102.79330883721812 l 26.018530128438268 3.491875733798694 a47.25180196071771,47.25180196071771 0 0,0 -0.11512777564265422,0.805203394701324 l -25.954568301779013 -3.9392246004804274" fill="#c0ff1e" stroke="none" /><path d="M 120.70491114924044 103.5080841355445 l 24.191482251903796 4.0988224721902915 a45.53626212777139,45.53626212777139 0 0,0 -0.1375922778372552,0.7716905644271866 l -24.117343531727354 -4.514631787350697" fill="#d5ff1c" stroke="none" /><path d="M 120.5718875245553 104.21870165774334 l 11.302564560905699 2.317830475834021 a32.53777724555932,32.53777724555932 0 0,0 -0.11723819966929468,0.5476978382485832 l -11.26099232251196 -2.5120421334987735" fill="#ff820c" stroke="none" /><path d="M 120.41448212921028 104.9243191809786 l 10.618552286967315 2.5613748303768555 a31.923108243203803,31.923108243203803 0 0,0 -0.13345179601368432,0.5330735876569085 l -10.57288917665857 -2.74377625743116" fill="#ff7a0b" stroke="none" /><path d="M 120.23288151984713 105.62410040840565 l 12.390401988297105 3.444139422965323 a33.86017720703804,33.86017720703804 0 0,0 -0.1609283334097079,0.5602126404131195 l -12.329281018001298 -3.6569095388830246" fill="#ff940d" stroke="none" /><path d="M 120.13307415673323 105.97154293290107 l 17.301779869774716 5.13177076206268 a39.046790789957726,39.046790789957726 0 0,0 -0.19667167072055433,0.6427343992614828 l -17.21088142654803 -5.42883213387622" fill="#ffd914" stroke="none" /><path d="M 120.02730092923936 106.31721596034902 l 10.006812069642008 3.156450943734664 a31.492829473375444,31.492829473375444 0 0,0 -0.16752348045714108,0.5155842578932471 l -9.950996338168618 -3.3282341016057067" fill="#ff740a" stroke="none" /><path d="M 119.9155931802556 106.66101706037122 l 24.319990037743615 8.134122196775527 a46.644216879211285,46.644216879211285 0 0,0 -0.26122798040322703,0.7592507891589154 l -24.17637122639716 -8.551545689023744" fill="#c8ff1d" stroke="none" /><path d="M 119.79798401119884 107.00284435728193 l 9.892227517963272 3.499029477745462 a31.49282481285576,31.49282481285576 0 0,0 -0.1851714198476332,0.5095122194603676 l -9.830531837110412 -3.6687894942119605" fill="#ff740a" stroke="none" /><path d="M 119.54520255179757 107.68017299344265 l 30.827042002375173 12.113305801099997 a54.121574480195925,54.121574480195925 0 0,0 -0.3481753916451568,0.8641427684072355 l -30.613963996472624 -12.642147937350048" fill="#73ff27" stroke="none" /><path d="M 119.41010516605496 108.01547362559984 l 9.690584616064438 4.001762213145963 a31.48434695208374,31.48434695208374 0 0,0 -0.21116854171437685,0.499140054433979 l -9.620265093157752 -4.1679767932461065" fill="#ff740a" stroke="none" /><path d="M 119.26925614724726 108.34839909993367 l 10.575895740255106 4.582003467297885 a32.525811315611406,32.525811315611406 0 0,0 -0.22699750593577608,0.5118194502937501 l -10.495457149588058 -4.763371254084323" fill="#ff820c" stroke="none" /><path d="M 118.81262510543309 109.33194174019688 l 9.390974127833479 4.6583622941239025 a31.48287815120223,31.48287815120223 0 0,0 -0.24499875363934642,0.4834057839682107 l -9.309396704407863 -4.819322289794807" fill="#ff740a" stroke="none" /><path d="M 118.64920377521936 109.65438752849418 l 13.030792015243508 6.7458277272692175 a35.67336812972837,35.67336812972837 0 0,0 -0.2869964794613164,0.5428891816936198 l -12.912743027557298 -6.9691319240489715" fill="#ffad10" stroke="none" /><line stroke="#e1ed5e" stroke-width="0.3" x1="174.80103733775053" x2="179.2010983576182" y1="140.37084112569926" y2="142.7455964860345" /><path d="M 175.68104954172406 140.8457921977663 a86.0,86.0 0 0,1 -30.038265399797805,32.042727171017184" fill="none" id="id125" stroke="none" /><text fill="#e1ed5e" style="font-size:6.75px; font-family:Arial;" text-anchor="middle"><textPath startOffset="22.206326154141568" xlink:href="#id125">May</textPath></text><path d="M 118.30583269289576 110.29060199501025 l 10.952042212439125 6.15667745529549 a33.56391284240671,33.56391284240671 0 0,0 -0.28744774885820756,0.5011893791771416 l -10.844442467428538 -6.344286680330947" fill="#ff900d" stroke="none" /><path d="M 117.94076556474637 110.91462005526583 l 53.8222966942391 32.74386016579747 a84.0,84.0 0 0,0 -0.7621414413281484,1.228814674538906 l -53.25069061324299 -33.665471171701654" fill="#4dd2ff" stroke="none" /><path d="M 117.75023020441432 111.22182372390056 l 8.86044694714413 5.6016385483888955 a31.482646351468325,31.482646351468325 0 0,0 -0.2935309068398928,0.4555664858820429 l -8.762711176927187 -5.753326634192391" fill="#ff740a" stroke="none" /><path d="M 117.35343817320211 111.8261652097733 l 12.129287648934078 8.265967710921265 a35.678073479465134,35.678073479465134 0 0,0 -0.3502212238695043,0.5045197937171779 l -11.985205517902438 -8.473528766825464" fill="#ffad10" stroke="none" /><path d="M 117.14729908036423 112.12312394758627 l 8.555705916882381 6.0488758493888195 a31.47802475552981,31.47802475552981 0 0,0 -0.31660928211756767,0.4397426014309437 l -8.450316842389212 -6.195252056270895" fill="#ff740a" stroke="none" /><path d="M 116.71984013943494 112.70617746262583 l 8.387163755385373 6.373792464240117 a31.53421787494706,31.53421787494706 0 0,0 -0.33215019134754376,0.4293488966130755 l -8.27620674681976 -6.517219354966445" fill="#ff740a" stroke="none" /><path d="M 116.27256486870786 113.27417163493432 l 8.123654898847814 6.626785039747927 a31.483703967520306,31.483703967520306 0 0,0 -0.3461768182984742,0.4169922782346807 l -8.008382080655796 -6.765638575096378" fill="#ff740a" stroke="none" /><path d="M 116.0416608686014 113.55231037782055 l 12.208963570354257 10.314372374047748 a36.982648996106896,36.982648996106896 0 0,0 -0.4150113453260623,0.48275195350018224 l -12.029609715457417 -10.523001426709458" fill="#ffbe11" stroke="none" /><path d="M 115.56566222782051 114.09645910891815 l 24.034044492875232 21.765532391561667 a53.424893137428015,53.424893137428015 0 0,0 -0.623172356021795,0.6763305144265722 l -23.655825728857714 -22.176014160789574" fill="#7bff26" stroke="none" /><path d="M 115.07121518719521 114.62390073753431 l 7.523052156768919 7.299767577955769 a31.482505446964467,31.482505446964467 0 0,0 -0.38072749547603774,0.3856749428351006 l -7.396284036237346 -7.428183014771534" fill="#ff740a" stroke="none" /><path d="M 114.81725581225074 114.88116024355365 l 7.400825191205542 7.432743755007704 a31.488941473684967,31.488941473684967 0 0,0 -0.38738902520773044,0.37914169574754275 l -7.2717862136220175 -7.559035553677819" fill="#ff740a" stroke="none" /><path d="M 114.55890576462653 115.13401014063108 l 18.819402821711858 19.56280490779827 a48.14540952769791,48.14540952769791 0 0,0 -0.6021939915002682,0.5694120060172888 l -18.479872995820784 -19.883851550561477" fill="#b6ff1f" stroke="none" /><path d="M 114.29624159901734 115.38237550388516 l 7.738022619805563 8.325906411905342 a32.36651712902545,32.36651712902545 0 0,0 -0.41136371447263614,0.37577099983122236 l -7.593559355866063 -8.457870178323148" fill="#ff800b" stroke="none" /><path d="M 114.0293411484842 115.62618273729858 l 8.843569647137183 9.850158599295558 a34.23761113400157,34.23761113400157 0 0,0 -0.44192220552769906,0.38994496496440945 l -8.672705088702896 -10.000926706032256" fill="#ff990e" stroke="none" /><path d="M 113.48314897796784 116.09983520530334 l 6.72905057034204 8.034963156432292 a31.480494000925955,31.480494000925955 0 0,0 -0.418435535420385,0.34434395870476214 l -6.589744906376964 -8.149602233994232" fill="#ff740a" stroke="none" /><path d="M 113.20401910651253 116.32954008644616 l 16.496769870800897 20.401717289946493 a47.23687261372944,47.23687261372944 0 0,0 -0.6366687076562416,0.5058081266327521 l -16.143143670427303 -20.682659330584368" fill="#c1ff1e" stroke="none" /><path d="M 112.92097659922987 116.55440617244103 l 6.450166204729257 8.263978377548089 a31.483223869269118,31.483223869269118 0 0,0 -0.4300777363095819,0.32976526874669737 l -6.306959739926181 -8.373782988122159" fill="#ff740a" stroke="none" /><path d="M 112.34349029814194 116.9893568818739 l 22.420039661160963 30.858537245868597 a59.14324972210273,59.14324972210273 0 0,0 -0.828773435020185,0.5913078405874168 l -21.885538898291895 -31.23988934830023" fill="#3fff2d" stroke="none" /><path d="M 112.04921762599082 117.19931262002967 l 21.762088029988035 31.06367292138533 a58.928093160502506,58.928093160502506 0 0,0 -0.8357774690550966,0.57485536424194 l -21.224153676310056 -31.433669074992366" fill="#41ff2d" stroke="none" /><path d="M 111.45004920935366 117.60387380957326 l 32.9756958978309 50.698471137928486 a81.479182333011,81.479182333011 0 0,0 -1.1822947433906996,0.7545964435716508 l -32.098119352393276 -51.25858201032395" fill="#4aeaff" stroke="none" /><path d="M 111.1453310114006 117.79835938074945 l 12.335498333765386 19.698978187405313 a44.24250977778,44.24250977778 0 0,0 -0.6489339647025929,0.39862824316258216 l -11.994585169130485 -19.908394897396274" fill="#e4ff1a" stroke="none" /><line stroke="#e1ed5e" stroke-width="0.3" x1="143.8653032363475" x2="146.44561519142675" y1="172.8068346515853" y2="177.08958963109032" /><path d="M 144.38136562736335 173.6633856474863 a86.0,86.0 0 0,1 -40.68145358897372,12.25698825130547" fill="none" id="id126" stroke="none" /><text fill="#e1ed5e" style="font-size:6.75px; font-family:Arial;" text-anchor="middle"><textPath startOffset="21.466115282336833" xlink:href="#id126">June</textPath></text><path d="M 110.5260780823613 118.17145234162733 l 21.830836948123626 37.687162310283284 a64.55350324436826,64.55350324436826 0 0,0 -0.9663082544963589,0.5486950459993293 l -21.178879926706067 -38.05736052207724" fill="#34ff5e" stroke="none" /><path d="M 110.21172684928248 118.3499491758327 l 12.839701486213366 23.072284754799664 a47.404322715450036,47.404322715450036 0 0,0 -0.7164309832714607,0.3906552949002519 l -12.440647691073258 -23.289880701459687" fill="#bfff1e" stroke="none" /><path d="M 109.89434966115114 118.52300852407294 l 16.471766085511497 30.836454548036233 a55.960063030104955,55.960063030104955 0 0,0 -0.8535484420825399,0.4465362037069029 l -15.93852674090246 -31.11542017068785" fill="#60ff29" stroke="none" /><path d="M 109.57404056367764 118.69057910512821 l 20.51380273440359 40.04733949101696 a65.99561648577327,65.99561648577327 0 0,0 -1.0155345513068963,0.5092101061767381 l -19.821414275413932 -40.39451743810301" fill="#36ff6f" stroke="none" /><path d="M 109.2508944713604 118.85261126421891 l 18.036911048859874 36.757837143660005 a61.944703585009805,61.944703585009805 0 0,0 -0.9612854372778697,0.4614754271131979 l -17.40151294358177 -37.062866847272765" fill="#31ff3f" stroke="none" /><path d="M 108.92500713936063 119.00905698771935 l 4.455121004020899 9.488804628416869 a31.482629271167305,31.482629271167305 0 0,0 -0.4925262520460905,0.22609464542718888 l -4.291126756207389 -9.564086344178131" fill="#ff740a" stroke="none" /><path d="M 108.59647513512805 119.15986991738527 l 6.302300308825468 14.046600751971392 a36.39564814705457,36.39564814705457 0 0,0 -0.5738022206628858,0.25153803104574396 l -6.059577413504829 -14.15300333631159" fill="#ffb610" stroke="none" /><path d="M 108.2653958097858 119.30500536409082 l 4.12774158368704 9.64092649021295 a31.487407409431036,31.487407409431036 0 0,0 -0.5000928113083982,0.20903883568563836 l -3.961177312881181 -9.710550368918561" fill="#ff740a" stroke="none" /><path d="M 107.93186726928326 119.44442032107085 l 8.598499268430597 21.078622249927353 a43.76494027280401,43.76494027280401 0 0,0 -0.6999867164724478,0.2785391605638179 l -8.234391475916283 -21.22350825489724" fill="#eaff1a" stroke="none" /><path d="M 107.59598834532513 119.57807347666477 l 5.688398706820824 14.661408467700348 a36.72624488250505,36.72624488250505 0 0,0 -0.5913446225916914,0.22359593691622204 l -5.435183863468858 -14.7571526547232" fill="#ffbb11" stroke="none" /><path d="M 107.2578585660854 119.70592522655815 l 14.581236003324463 39.589741764186414 a63.189573313078334,63.189573313078334 0 0,0 -1.023913131933042,0.36713882002687626 l -13.897603310761687 -39.83486812525325" fill="#33ff4e" stroke="none" /><path d="M 106.91757812671514 119.82793768551818 l 13.149253013499202 37.689862635000026 a60.91777298720695,60.91777298720695 0 0,0 -0.9930474997895208,0.33689562855011523 l -12.498535780772453 -37.910621250448266" fill="#30ff32" stroke="none" /><path d="M 106.57524785965236 119.94407469862006 l 2.6259351363332133 7.9649995909856965 a29.38670100961228,29.38670100961228 0 0,0 -0.4817720902763819,0.15424820944532802 l -2.488441700965891 -8.00902064709073" fill="#ff5608" stroke="none" /><path d="M 106.2309692047433 120.05430185196036 l 6.326965359902753 20.363264359868385 a42.32353221338565,42.32353221338565 0 0,0 -0.6975825556731993,0.21017590166737407 l -5.975507829789309 -20.469155630641485" fill="#fcff18" stroke="none" /><path d="M 105.88484417918355 120.15858648285463 l 1.305821524533443 4.473103336634574 a25.65980936457128,25.65980936457128 0 0,0 -0.42505942430056715,0.12012603911117008 l -1.2286309321282702 -4.494918169084263" fill="#ff2103" stroke="none" /><path d="M 105.53697534728816 120.25689768951611 l 11.92770432652555 43.63723351803689 a66.2380180778148,66.2380180778148 0 0,0 -1.102420017496242,0.29115914636037604 l -11.17479386621781 -43.83608401370085" fill="#36ff72" stroke="none" /><path d="M 104.83641907484287 120.43548508189849 l 13.31764952973302 56.27151495337567 a78.82597326586713,78.82597326586713 0 0,0 -1.3230746324150047,0.3011274787764755 l -12.347054747925153 -56.492419165729835" fill="#46fffa" stroke="none" /><path d="M 104.48393922423573 120.51570834832081 l 2.2394442424096543 10.246299657960614 a31.488172729107085,31.488172729107085 0 0,0 -0.5305135416926043,0.11117427074823409 l -2.062739239287672 -10.28332990943539" fill="#ff740a" stroke="none" /><path d="M 104.13013068566511 120.58985236759428 l 8.361389105779006 41.68385467160506 a63.514192548626994,63.514192548626994 0 0,0 -1.073790251861482,0.2057944574115919 l -7.64263123934582 -41.821606327365124" fill="#33ff52" stroke="none" /><path d="M 103.7750983002368 120.6578951692458 l 4.948139384627217 27.076949144352977 a48.525356643204034,48.525356643204034 0 0,0 -0.8229693180077481,0.14308376481534904 l -4.481321095147418 -27.158111487689332" fill="#b2ff20" stroke="none" /><path d="M 103.41894727170886 120.7198165907248 l 1.879063547830246 11.387672572645261 a32.541662204317085,32.541662204317085 0 0,0 -0.5534626037118224,0.08643947616645335 l -1.6827650805099066 -11.418330356158819" fill="#ff820c" stroke="none" /><path d="M 102.70371172650421 120.8252237178851 l 5.176283422924955 39.870101258527946 a61.2047122168499,61.2047122168499 0 0,0 -1.045937752126647,0.1266484956619175 l -4.489218247746928 -39.95329528291522" fill="#30ff36" stroke="none" /><path d="M 102.34483914955558 120.86867818915974 l 1.4133687317289527 12.578746491273186 a33.65790166115801,33.65790166115801 0 0,0 -0.5762992525717409,0.05973577387453987 l -1.1966368825516092 -12.601211633603485" fill="#ff920d" stroke="none" /><path d="M 101.62511606390274 120.93702456842531 l 3.9272968758831963 50.59694689153471 a71.74913492362313,71.74913492362313 0 0,0 -1.2321623778740705,0.08497713167023463 l -3.0557717372301956 -50.65705236772122" fill="#3dffb1" stroke="none" /><path d="M 101.26447882468166 120.96189622390904 l 2.1471480002789995 35.59434344070822 a56.65904554962444,56.65904554962444 0 0,0 -0.9740281655104076,0.05034613041072366 l -1.5341317663551122 -35.626029377881146" fill="#58ff2a" stroke="none" /><line stroke="#e1ed5e" stroke-width="0.3" x1="102.19456741930631" x2="102.32365962044197" y1="184.97166512339345" y2="189.96999836594603" /><path d="M 102.22038585953345 185.97133177190398 a86.0,86.0 0 0,1 -42.740103519485714,-10.115201625700543" fill="none" id="id127" stroke="none" /><text fill="#e1ed5e" style="font-size:6.75px; font-family:Arial;" text-anchor="middle"><textPath startOffset="22.20632615414155" xlink:href="#id127">July</textPath></text><path d="M 100.54218724476979 120.99299961872073 l 0.24854084840657667 9.623276803664242 a30.626485807046564,30.626485807046564 0 0,0 -0.527126025123653,0.009074952561611498 l -0.08285513339025569 -9.626129233505013" fill="#ff6809" stroke="none" /><path d="M 100.18074693466247 120.99922214144158 l 0.18209103229735701 21.155379726452033 a42.15616336943967,42.15616336943967 0 0,0 -0.7256759339196104,0.0 l 0.18209103229734244 -21.155379726452033" fill="#feff18" stroke="none" /><path d="M 99.81925306533755 120.99922214144158 l -0.221638084744087 25.7499657476166 a46.75091958443498,46.75091958443498 0 0,0 -0.8046508034476725,-0.013852793301634586 l 0.6648485780844274 -25.742335477035805" fill="#c6ff1e" stroke="none" /><path d="M 99.45781275523022 120.99299961872073 l -0.3278885901533164 12.695549580835708 a33.69978307243909,33.69978307243909 0 0,0 -0.5797640846215053,-0.019968247322251054 l 0.5463730264494647 -12.688024535087363" fill="#ff920d" stroke="none" /><path d="M 99.09653310690486 120.98055641714683 l -0.4511909916512744 10.477681171933293 a31.487391289144917,31.487391289144917 0 0,0 -0.5413011404721185,-0.02797908600045738 l 0.6314802005368819 -10.468362279170634" fill="#ff740a" stroke="none" /><path d="M 98.73552117531835 120.96189622390904 l -2.161161110928452 35.826645765962624 a56.89177014563585,56.89177014563585 0 0,0 -0.9770138533200858,-0.0673805955676642 l 2.777537725027468 -35.784136825878676" fill="#56ff2b" stroke="none" /><path d="M 98.37488393609728 120.93702456842531 l -1.0546265199506772 13.58717807864953 a34.62804627367832,34.62804627367832 0 0,0 -0.5938803633797182,-0.05124249667064748 l 1.288351201071937 -13.567011329700218" fill="#ff9f0e" stroke="none" /><path d="M 97.65516085044442 120.86867818915974 l -2.615838206760275 23.28052469702885 a44.427023705390255,44.427023705390255 0 0,0 -0.759220975395734,-0.09193108692495895 l 3.0161866052073982 -23.23204808137854" fill="#e2ff1b" stroke="none" /><path d="M 97.2962882734958 120.8252237178851 l -2.4543028186259805 18.90416229226009 a40.06281601174453,40.06281601174453 0 0,0 -0.6831118557308641,-0.09467307867488799 l 2.779343265543676 -18.859114648092596" fill="#ffe615" stroke="none" /><path d="M 96.93821686468263 120.77559828337769 l -1.8398178020302893 12.484004869151597 a33.618847297501794,33.618847297501794 0 0,0 -0.5717831695947317,-0.08930077177589661 l 2.0544368352335383 -12.450485790028594" fill="#ff910d" stroke="none" /><path d="M 96.58105272829116 120.7198165907248 l -2.278188788084929 13.806487815347962 a34.993185839883196,34.993185839883196 0 0,0 -0.5934694823021,-0.10318227663257933 l 2.515507241859079 -13.765226960194376" fill="#ffa40f" stroke="none" /><path d="M 96.22490169976321 120.6578951692458 l -2.863923272304636 15.671810911075232 a36.93134375192955,36.93134375192955 0 0,0 -0.6243725271104893,-0.11966248083986111 l 3.1332634139868203 -15.620191231886903" fill="#ffbd11" stroke="none" /><path d="M 95.86986931433489 120.58985236759428 l -2.694413182679042 13.432400539095145 a34.699972505143144,34.699972505143144 0 0,0 -0.5846260266897694,-0.12251406810522973 l 2.925230670798198 -13.384030490263374" fill="#ffa00e" stroke="none" /><path d="M 95.16358092515715 120.4354850818985 l -5.308182175158297 22.4288416644233 a44.04842156010773,44.04842156010773 0 0,0 -0.736335890520103,-0.18097344692663087 l 5.693471350421611 -22.334146959182636" fill="#e7ff1a" stroke="none" /><path d="M 94.81253420990036 120.34920634021253 l -5.862661852147371 22.99784144310432 a44.73334184295989,44.73334184295989 0 0,0 -0.7445109761473899,-0.19663211555548857 l 6.257663271106249 -22.89351797824525" fill="#deff1b" stroke="none" /><path d="M 94.46302465271185 120.25689768951611 l -2.764703082036461 10.114603002906946 a31.485646238465044,31.485646238465044 0 0,0 -0.5215654751641043,-0.1473996130580926 l 2.9383997253051795 -10.065514596510333" fill="#ff740a" stroke="none" /><path d="M 94.11515582081647 120.15858648285463 l -3.0037039672273256 10.289214862549914 a31.718683688329236,31.718683688329236 0 0,0 -0.5227919143973674,-0.15751291528045985 l 3.1803708560649384 -10.235986578163729" fill="#ff770b" stroke="none" /><path d="M 93.76903079525671 120.05430185196036 l -8.788221221867127 28.284787700597892 a50.61860981734912,50.61860981734912 0 0,0 -0.8298527095849273,-0.2656926317242583 l 9.273795276542996 -28.129322222213926" fill="#9aff23" stroke="none" /><path d="M 93.42475214034765 119.94407469862007 l -5.1568273850519954 15.64171461983555 a37.469854429459886,37.469854429459886 0 0,0 -0.6108126320781083,-0.20722080832379072 l 5.42530975006733 -15.550630824613636" fill="#ffc412" stroke="none" /><path d="M 93.08242187328487 119.8279376855182 l -2.4713081695467825 7.083540437114538 a28.50226027228498,28.50226027228498 0 0,0 -0.4618457927856676,-0.1656014696066958 l 2.5928735229621767 -7.0399514264678835" fill="#ff4a06" stroke="none" /><path d="M 92.7421414339146 119.70592522655815 l -5.071637452650642 13.770082112808348 a35.67435408611272,35.67435408611272 0 0,0 -0.574407689126514,-0.21719183791548052 l 5.30791536253744 -13.680742024786236" fill="#ffad10" stroke="none" /><path d="M 92.06813273071674 119.44442032107085 l -3.958894511266764 9.704954239710476 a31.481363582388145,31.481363582388145 0 0,0 -0.49999682136493623,-0.20899871188148697 l 4.125362792129162 -9.635370484809016" fill="#ff740a" stroke="none" /><path d="M 91.7346041902142 119.30500536409082 l -5.025175960192686 11.737011886613349 a33.767530750203875,33.767530750203875 0 0,0 -0.5323681571072099,-0.23337455521781716 l 5.226464791957639 -11.64877277810108" fill="#ff930d" stroke="none" /><path d="M 91.40352486487194 119.15986991738527 l -9.857792926735186 21.97110178065482 a45.08122494480469,45.08122494480469 0 0,0 -0.70526786592269,-0.3237538860406953 l 10.234528788425296 -21.79816082428005" fill="#daff1b" stroke="none" /><path d="M 91.07499286063937 119.00905698771935 l -5.603489964498077 11.93467505426422 a34.18467172261438,34.18467172261438 0 0,0 -0.5304929268081129,-0.25466884286996944 l 5.808095559306432 -11.836451934894688" fill="#ff990e" stroke="none" /><line stroke="#e1ed5e" stroke-width="0.3" x1="58.666819895761336" x2="56.23545636021788" y1="174.27360380694188" y2="178.64263932499728" /><path d="M 58.180547188652646 175.14741091055294 a86.0,86.0 0 0,1 -31.652253787137756,-30.449443065178592" fill="none" id="id128" stroke="none" /><text fill="#e1ed5e" style="font-size:6.75px; font-family:Arial;" text-anchor="middle"><textPath startOffset="22.20632615414155" xlink:href="#id128">August</textPath></text><path d="M 89.7882731507175 118.34994917583269 l -5.121619186113209 9.203286882840038 a31.532401081207382,31.532401081207382 0 0,0 -0.472011864848219,-0.26802065561378124 l 5.279279817882635 -9.113763061431623" fill="#ff740a" stroke="none" /><path d="M 89.4739219176387 118.17145234162733 l -5.262851284169785 9.085402040824514 a31.499625416304422,31.499625416304422 0 0,0 -0.46684264191071007,-0.2758188616077215 l 5.418461797108876 -8.993464606923043" fill="#ff740a" stroke="none" /><path d="M 88.8546689885994 117.79835938074946 l -5.586104912603664 8.920641537823274 a31.525322491066618,31.525322491066618 0 0,0 -0.457444736160353,-0.29196287386613634 l 5.738831450810941 -8.823164235133333" fill="#ff740a" stroke="none" /><path d="M 88.24862548938628 117.40417183066458 l -18.434989760360644 27.302825656358277 a53.943787521869695,53.943787521869695 0 0,0 -0.7650850347978346,-0.5262324633517587 l 18.90223167978137 -26.981452403641416" fill="#75ff27" stroke="none" /><path d="M 87.65650970185807 116.9893568818739 l -6.159027792728369 8.47717450159081 a31.478363941094138,31.478363941094138 0 0,0 -0.435623127043632,-0.3222635751087671 l 6.3040358901905655 -8.369900977742276" fill="#ff740a" stroke="none" /><path d="M 87.07902340077011 116.55440617244103 l -9.027712528084143 11.566340891511778 a35.672417493664256,35.672417493664256 0 0,0 -0.4808004994399956,-0.3819769952273899 l 9.225470520241497 -11.409229982279257" fill="#ffad10" stroke="none" /><path d="M 86.24171649860922 115.8653595955263 l -15.100597279600885 17.413248238697523 a44.04884492600859,44.04884492600859 0 0,0 -0.5685607744203086,-0.5016887779982091 l 15.398100406927782 -17.150736318927024" fill="#e7ff1a" stroke="none" /><path d="M 85.97065885151581 115.62618273729859 l -7.060955657171454 7.864644692230943 a31.5692824225478,31.5692824225478 0 0,0 -0.4012312238850531,-0.366515209918496 l 7.195286430523362 -7.7419367157258705" fill="#ff750a" stroke="none" /><path d="M 85.70375840098266 115.38237550388516 l -7.132259697652875 7.674121628447021 a31.476701349325648,31.476701349325648 0 0,0 -0.3937048331452413,-0.3722724935554817 l 7.263300365188934 -7.550214498145609" fill="#ff740a" stroke="none" /><path d="M 85.18274418774928 114.88116024355367 l -7.400526313047563 7.4324435878365085 a31.48851788368983,31.48851788368983 0 0,0 -0.38080020569854917,-0.3857485979066215 l 7.527367143801645 -7.303954495949222" fill="#ff740a" stroke="none" /><path d="M 84.9287848128048 114.62390073753433 l -7.550178334557782 7.326088649378743 a31.520302646891,31.520302646891 0 0,0 -0.3744813813786576,-0.392642231218689 l 7.675166267315397 -7.1950393015775544" fill="#ff740a" stroke="none" /><path d="M 84.43433777217949 114.09645910891817 l -12.423777184125969 11.251128573336903 a37.761209195477726,37.761209195477726 0 0,0 -0.43217011698623153,-0.4855477078379899 l 12.61560615076054 -11.03560669575805" fill="#ffc812" stroke="none" /><path d="M 84.19399662182784 113.82643327865904 l -5.675303664046642 4.964519212708428 a28.540260121009908,28.540260121009908 0 0,0 -0.3202726703006846,-0.37254947119313 l 5.759918843918105 -4.866092642353768" fill="#ff4a06" stroke="none" /><path d="M 83.95833913139862 113.55231037782056 l -8.006770615401374 6.7642771775783945 a31.48159441224296,31.48159441224296 0 0,0 -0.3461536228341044,-0.4169643378036047 l 8.122020238129014 -6.625451582661029" fill="#ff740a" stroke="none" /><path d="M 83.50135304334701 112.99209946851258 l -8.232478059411534 6.482784564166469 a31.478558617676732,31.478558617676732 0 0,0 -0.3315639319062627,-0.4285910772566518 l 8.342848808535864 -6.340115492796564" fill="#ff740a" stroke="none" /><path d="M 83.28015986056508 112.70617746262583 l -11.68202513720278 8.877709552142347 a35.672540277621906,35.672540277621906 0 0,0 -0.36732309159054854,-0.4920893082672629 l 11.833109495488413 -8.675307364365777" fill="#ffad10" stroke="none" /><path d="M 82.85270091963577 112.12312394758628 l -25.74293937244959 18.200233361811545 a52.52693169272921,52.52693169272921 0 0,0 -0.5156120975569409,-0.7427776826981844 l 26.052412377168668 -17.754414416926345" fill="#85ff25" stroke="none" /><path d="M 82.44556493220864 111.52570212397912 l -8.757574653019631 5.749954150584556 a31.476501636378266,31.476501636378266 0 0,0 -0.29347361610987277,-0.45547756939678774 l 8.85525313250655 -5.59835498126632" fill="#ff740a" stroke="none" /><line stroke="#e1ed5e" stroke-width="0.3" x1="26.63291911575756" x2="22.317208475507996" y1="142.92168965132927" y2="145.44649492493687" /><path d="M 25.769776987707644 143.4266507060508 a86.0,86.0 0 0,1 -11.730757126820373,-40.83630448921669" fill="none" id="id129" stroke="none" /><text fill="#e1ed5e" style="font-size:6.75px; font-family:Arial;" text-anchor="middle"><textPath startOffset="21.46611528233685" xlink:href="#id129">September</textPath></text><path d="M 81.87401531095188 110.60418214915194 l -12.668248090132526 7.41126137768276 a35.67689697727277,35.67689697727277 0 0,0 -0.30554374784951405,-0.5327412787347856 l 12.793943834134415 -7.192100253089667" fill="#ffad10" stroke="none" /><path d="M 81.51974371655577 109.97397251340807 l -16.604389585163283 8.961549168162948 a39.86836285927534,39.86836285927534 0 0,0 -0.3207457098216513,-0.6067300068058264 l 16.75618780320982 -8.674404146270994" fill="#ffe315" stroke="none" /><path d="M 81.02952815118164 109.00673069616217 l -12.150673193112164 5.768851829284086 a34.4505951717405,34.4505951717405 0 0,0 -0.24972643095781974,-0.5378885155768875 l 12.248174240909812 -5.5588432464283715" fill="#ff9c0e" stroke="none" /><path d="M 80.73074385275274 108.34839909993369 l -27.168199965480532 11.770613998041517 a50.608418452447395,50.608418452447395 0 0,0 -0.33943552773506575,-0.8023253199317414 l 27.366786474407906 -11.301214152443617" fill="#9aff23" stroke="none" /><path d="M 80.58989483394504 108.01547362559985 l -28.344879014801815 11.705121029498255 a51.66662721394309,51.66662721394309 0 0,0 -0.3323822031781817,-0.8249453698221539 l 28.542163832237385 -11.215476291833296" fill="#8eff24" stroke="none" /><path d="M 80.45479744820244 107.68017299344265 l -9.75025167944453 3.831304353551032 a31.47598686816903,31.47598686816903 0 0,0 -0.19381072178542114,-0.5059786370172793 l 9.81475668082346 -3.662902149700595" fill="#ff740a" stroke="none" /><path d="M 80.20201598880116 107.00284435728193 l -41.62775390447127 14.724361903280238 a65.15514385199072,65.15514385199072 0 0,0 -0.364897253724145,-1.060562223940667 l 41.875041989138644 -14.005626976250275" fill="#35ff66" stroke="none" /><path d="M 79.97269907076064 106.31721596034903 l -9.99581258040286 3.1529813724118667 a31.481295753737527,31.481295753737527 0 0,0 -0.1585656313124701,-0.5182016576751816 l 10.04860498422146 -2.9804527421846374" fill="#ff740a" stroke="none" /><path d="M 79.86692584326677 105.97154293290107 l -12.052618475123689 3.5748504236253225 a33.57160163456459,33.57160163456459 0 0,0 -0.15955681117409762,-0.5554381915841501 l 12.11236792318389 -3.3668547565365765" fill="#ff900d" stroke="none" /><path d="M 79.50377843672027 104.57218783832718 l -22.063267523951563 4.921756097109065 a43.60556252148763,43.60556252148763 0 0,0 -0.15711699072142193,-0.7339982737109684 l 22.14471855339743 -4.541244003981933" fill="#ecff1a" stroke="none" /><path d="M 79.35854240842038 103.8639653848113 l -12.358620424637513 2.3134646045685003 a33.573289835077325,33.573289835077325 0 0,0 -0.10144498487681945,-0.5689573489763436 l 12.396611851853521 -2.1003885048589432" fill="#ff900d" stroke="none" /><path d="M 79.23777060512086 103.15116336523772 l -10.360212449003471 1.5724092680255046 a31.478858377450237,31.478858377450237 0 0,0 -0.0766974124664916,-0.5364215241551556 l 10.385743912486562 -1.3938422718899484" fill="#ff740a" stroke="none" /><path d="M 79.1416061653843 102.43462659150553 l -7.460253087207231 0.8707732095523838 a28.5109002195249,28.5109002195249 0 0,0 -0.052701310888338626,-0.48794868596539154 l 7.474136699596621 -0.7422282017022102" fill="#ff4a06" stroke="none" /><path d="M 79.07016306316243 101.71520430193888 l -12.542798701163507 1.027884849533838 a33.58484590774993,33.58484590774993 0 0,0 -0.042258438362417494,-0.5765828169695565 l 12.55863369819026 -0.8118288960675207" fill="#ff910d" stroke="none" /><path d="M 79.04373962182676 101.35467743843564 l -6.548607896112163 0.4233222535860641 a27.562276061505166,27.562276061505166 0 0,0 -0.02653019890705962,-0.47371452346513876 l 6.554924445906754 -0.31053601378548773" fill="#ff3c05" stroke="none" /><path d="M 79.0235259727143 100.99374915477108 l -7.390109377672434 0.3501024499243778 a28.398397687297237,28.398397687297237 0 0,0 -0.018929380860264352,-0.48848320919032645 l 7.395040891383899 -0.22284199372005456" fill="#ff4806" stroke="none" /><line stroke="#e1ed5e" stroke-width="0.3" x1="15.007084014347285" x2="10.007500721073583" y1="101.09737516637583" y2="101.16192664675087" /><path d="M 14.007167355692545 101.11028546245083 a86.0,86.0 0 0,1 10.666146001902534,-42.60595125391555" fill="none" id="id130" stroke="none" /><text fill="#e1ed5e" style="font-size:6.75px; font-family:Arial;" text-anchor="middle"><textPath startOffset="22.20632615414155" xlink:href="#id130">October</textPath></text><path d="M 79.00175016825051 100.2711162175752 l -8.932969103750324 0.11533688828975942 a29.933713651464224,29.933713651464224 0 0,0 -0.0022175218791820736,-0.5152739889128366 l 8.93363092291901 0.03844657882675251" fill="#ff5e08" stroke="none" /><path d="M 79.00486145842228 99.54816195383935 l -24.05384967355754 -0.5176648116714672 a45.059419381509336,45.059419381509336 0 0,0 0.023362891708433448,-0.775300636296958 l 24.04137508739346 0.9316355953934196" fill="#daff1b" stroke="none" /><path d="M 79.01574976396665 99.18683210126434 l -6.292454733701321 -0.2438410777673014 a27.2971775460826,27.2971775460826 0 0,0 0.022236010153477558,-0.46936703011572434 l 6.287325115314345 0.35211921450603484" fill="#ff3805" stroke="none" /><path d="M 79.05617556472873 98.46500227214037 l -7.695243885502901 -0.5639935493194796 a28.715884082919064,28.715884082919064 0 0,0 0.0403738714346511,-0.49266349476906746 l 7.684395530248753 0.6963709612963255" fill="#ff4d07" stroke="none" /><path d="M 79.12142395522702 97.74499172005258 l -45.17777284163275 -4.879463599864164 a66.44051412509071,66.44051412509071 0 0,0 0.1325951663448865,-1.13599441073949 l 45.087087322284276 5.656401748928516" fill="#37ff75" stroke="none" /><path d="M 79.3925641242962 95.95851677861259 l -10.289414804930031 -2.017936512957836 a31.485424397621763,31.485424397621763 0 0,0 0.10888065181764288,-0.5309407264392669 l 10.253154857197393 2.194752895560505" fill="#ff740a" stroke="none" /><path d="M 79.81627453868168 94.20196356495316 l -10.078811060910967 -2.895268956422778 a31.486420491834508,31.486420491834508 0 0,0 0.15412468322008072,-0.5196318123338771 l 10.027480480579179 3.0683301555031943" fill="#ff740a" stroke="none" /><path d="M 80.02781315780177 93.51064311812611 l -10.23276367183215 -3.324826463874819 a31.75936445048917,31.75936445048917 0 0,0 0.1734102226657931,-0.5184744937009672 l 10.174016155394584 3.500474060498108" fill="#ff780b" stroke="none" /><path d="M 80.2630227832202 92.82701384747504 l -15.757991136196473 -5.726907974309862 a37.76638779208749,37.76638779208749 0 0,0 0.22730943456133365,-0.6090762734836938 l 15.657077113133512 5.997307384822897" fill="#ffc812" stroke="none" /><path d="M 80.803312248108 91.48605970444005 l -15.334361531189128 -6.800956510542186 a37.774851803443724,37.774851803443724 0 0,0 0.26873692078510714,-0.5921261825212418 l 15.215022293440668 7.063904701905499" fill="#ffc812" stroke="none" /><line stroke="#e1ed5e" stroke-width="0.3" x1="26.266209847984243" x2="21.928928074336255" y1="57.711370442889674" y2="55.22380399835377" /><path d="M 25.398753493254645 57.213857153982495 a86.0,86.0 0 0,1 29.58750427330803,-30.492523968695096" fill="none" id="id131" stroke="none" /><text fill="#e1ed5e" style="font-size:6.75px; font-family:Arial;" text-anchor="middle"><textPath startOffset="21.46611528233685" xlink:href="#id131">November</textPath></text><path d="M 81.96595687620814 89.24020034530311 l -8.99567436895914 -5.367163275837875 a31.475141955212404,31.475141955212404 0 0,0 0.2816039009563373,-0.4628827704119849 l 8.901954669716584 5.521213819456934" fill="#ff740a" stroke="none" /><path d="M 82.15384107792192 88.93136811851018 l -8.90787093107321 -5.524883231981899 a31.48210376077693,31.48210376077693 0 0,0 0.2895939837477761,-0.45806813614335873 l 8.811449351079473 5.677399015839472" fill="#ff740a" stroke="none" /><path d="M 82.54541684631803 88.32363383020206 l -8.706965921246145 -5.824586094625588 a31.475545748429887,31.475545748429887 0 0,0 0.3051262401954582,-0.4477351068863541 l 8.605415215381946 5.973599224782358" fill="#ff740a" stroke="none" /><path d="M 82.7489923806493 88.02491185347247 l -18.449129062867048 -12.806785066089429 a43.458497432093196,43.458497432093196 0 0,0 0.4318685703030197,-0.6108474655882397 l 18.22594787276015 13.122459032009456" fill="#eeff19" stroke="none" /><path d="M 83.39014120810768 87.1503855733568 l -9.118479831966681 -7.0541809816641665 a32.52857943408708,32.52857943408708 0 0,0 0.34642305021468806,-0.43992209396110465 l 8.995702701158022 7.210095469578319" fill="#ff820c" stroke="none" /><path d="M 83.84228863543731 86.58626213691792 l -8.085164750063893 -6.712106565726108 a31.508199826104338,31.508199826104338 0 0,0 0.3500251717884276,-0.4143193997750552 l 7.96842896478834 6.850284915130279" fill="#ff740a" stroke="none" /><path d="M 84.07557802195018 86.31012108654704 l -6.367378469173653 -5.473896657553276 a29.39684781255854,29.39684781255854 0 0,0 0.333175664978705,-0.380877380307939 l 6.272210940617105 5.582689594064158" fill="#ff5608" stroke="none" /><path d="M 84.5562425177563 85.77008943001954 l -7.719244329086026 -7.112527932209189 a31.496417798400685,31.496417798400685 0 0,0 0.37080684383980944,-0.3955508872487987 l 7.595670163275761 7.244348236336037" fill="#ff740a" stroke="none" /><path d="M 85.05521093208273 85.24692304244772 l -5.983188383140206 -5.906435899954912 a29.407409129358467,29.407409129358467 0 0,0 0.35872025851307426,-0.35717979972209646 l 5.880632324459818 6.008551550327118" fill="#ff5708" stroke="none" /><path d="M 85.31137513191541 84.99185889309783 l -6.614241287524751 -6.7581184385720094 a30.45623353346162,30.45623353346162 0 0,0 0.3778266272342779,-0.36346891604772696 l 6.496931416678046 6.87097044138205" fill="#ff6509" stroke="none" /><path d="M 85.83668400450813 84.49514656593479 l -5.662803975501725 -6.19918002916427 a29.3962599947207,29.3962599947207 0 0,0 0.37653671163580843,-0.33805837748576406 l 5.555256276269945 6.295737415419313" fill="#ff5608" stroke="none" /><path d="M 86.65592168130627 83.78471172551755 l -4.000561757246694 -4.861352024796528 a27.2958111377755,27.2958111377755 0 0,0 0.36536951163114045,-0.29543673532600495 l 3.9162888470510526 4.9294948573866675" fill="#ff3805" stroke="none" /><path d="M 86.93701828274178 83.55741782278169 l -3.9291996813680323 -4.945745929219136 a27.316566546190288,27.316566546190288 0 0,0 0.3706824843088266,-0.2893235586711761 l 3.84348464189978 5.012647877113534" fill="#ff3905" stroke="none" /><path d="M 87.80319425747018 82.90503203632743 l -26.08882923983859 -36.56594271315002 a65.91876197767283,65.91876197767283 0 0,0 0.9293567970850257,-0.6510738276383454 l 25.455541303169905 37.00960138355231" fill="#36ff6f" stroke="none" /><line stroke="#e1ed5e" stroke-width="0.3" x1="56.762969772571076" x2="54.21961505331055" y1="26.818313649435495" y2="22.513508569990535" /><path d="M 56.25429882871897 25.957352633546506 a86.0,86.0 0 0,1 42.265352541879196,-11.944610805530505" fill="none" id="id132" stroke="none" /><text fill="#e1ed5e" style="font-size:6.75px; font-family:Arial;" text-anchor="middle"><textPath startOffset="22.20632615414155" xlink:href="#id132">December</textPath></text><path d="M 89.63071344664047 81.73862282372117 l -3.5444051882965053 -6.2420610787414015 a28.178170703567968,28.178170703567968 0 0,0 0.423847873298711,-0.23587088260037853 l 3.436433225925749 6.302147358901965" fill="#ff4506" stroke="none" /><path d="M 90.91171255644093 81.06846463323043 l -4.5360327222379775 -9.448871906745405 a31.481258186272115,31.481258186272115 0 0,0 0.49054064829765737,-0.2303154118077295 l 4.372713862640712 9.525552301193143" fill="#ff740a" stroke="none" /><path d="M 91.90106846888425 80.62456947434976 l -4.0451143586781555 -9.677305200539374 a31.488717086430093,31.488717086430093 0 0,0 0.5018943587998156,-0.20473531077129634 l 3.8779361302899598 9.745501397494246" fill="#ff740a" stroke="none" /><path d="M 94.28887869178378 79.79150937346287 l -1.718774666179641 -6.081790222289863 a27.31999672951193,27.31999672951193 0 0,0 0.45364478695151467,-0.1239982568049554 l 1.6138319900044038 6.110475019921114" fill="#ff3905" stroke="none" /><path d="M 94.98787191387505 79.60689891045804 l -2.5055155068047044 -10.19431868733163 a31.497701722458956,31.497701722458956 0 0,0 0.5276259705276406,-0.1248720203124875 l 2.3296658493145297 10.235936619784988" fill="#ff740a" stroke="none" /><path d="M 95.692805502759 79.44645832069477 l -2.1476726576831076 -10.248499228783267 a31.471114281055804,31.471114281055804 0 0,0 0.5311628587002233,-0.10654627253452698 l 1.9709433895157478 10.283949457395003" fill="#ff740a" stroke="none" /><path d="M 96.04723909329186 79.375362276772 l -2.4700060584904873 -12.887948786401541 a34.12250562392292,34.12250562392292 0 0,0 0.577815689526712,-0.105592123956068 l 2.247795247860882 12.928556391708344" fill="#ff980e" stroke="none" /><path d="M 97.11714578562143 79.19881850522333 l -1.4410608778315395 -10.397948226201812 a31.497332221492755,31.497332221492755 0 0,0 0.5376823663190491,-0.06980660273545429 l 1.2618637830046326 10.421213152101403" fill="#ff740a" stroke="none" /><path d="M 97.83486435360386 79.11191278185805 l -1.081191633088992 -10.430766852450638 a31.48665211007043,31.48665211007043 0 0,0 0.5395835679269304,-0.05123996147150469 l 0.9014829380718252 10.447832358437322" fill="#ff740a" stroke="none" /><path d="M 99.63851952072746 79.00311137660856 l -0.27056123719739716 -15.715770253135998 a36.71809905912379,36.71809905912379 0 0,0 0.632041716469929,-0.005440182596347865 l 3.849823940287394e-15 15.718099059123787" fill="#ffba11" stroke="none" /></svg>