<?xml version="1.0" encoding="utf-8" ?>
<svg baseProfile="full" height="200mm" version="1.1" viewBox="0,0,200,200" width="200mm" xmlns="http://www.w3.org/2000/svg" xmlns:ev="http://www.w3.org/2001/xml-events" xmlns:xlink="http://www.w3.org/1999/xlink"><defs /><rect fill="#1a1a1a" height="200" width="200" x="0" y="0" /><text alignment-baseline="middle" fill="#e1ed5e" style="dominant-baseline: central; font-size:9.0px; font-family:Arial;" text-anchor="middle" x="100.0" y="100.0">2016</text><line stroke="#e1ed5e" stroke-width="0.3" x1="100.0" x2="100.0" y1="15.0" y2="10.0" /><path d="M 100.0 14.0 a86.0,86.0 0 0,1 42.35913384403234,11.155469271406648" fill="none" id="id37" stroke="none" /><text fill="#e1ed5e" style="font-size:6.75px; font-family:Arial;" text-anchor="middle"><textPath startOffset="22.145653131862478" xlink:href="#id37">January</textPath></text><path d="M 100.0 79.0 l 0.0 -17.884072454144814 a38.884072454144814,38.884072454144814 0 0,0 0.6674968099537834,0.005729657314018189 l -0.3070038851049286 17.88143719502523" fill="#ff710a" stroke="none" /><path d="M 101.08105385017728 79.02784411241856 l 0.5791740933055737 -11.235822682525274 a32.25074015269688,32.25074015269688 0 0,0 0.5526481424693498,0.033245939904556494 l -0.7719665879073858 11.224224764796025" fill="#ff0100" stroke="none" /><path d="M 101.44090949804482 79.04949213459386 l 0.7741262176251231 -11.255625306918356 a32.282214873443756,32.282214873443756 0 0,0 0.5525347115639904,0.04276968114879509 l -0.967229923964347 11.240677858774507" fill="#ff0200" stroke="none" /><path d="M 102.15924093988457 79.11130261209362 l 1.156095668854608 -11.184176870722045 a32.243770251616596,32.243770251616596 0 0,0 0.5500850132469749,0.06163817310186215 l -1.3479165837023797 11.162682937113212" fill="#ff0100" stroke="none" /><path d="M 102.51750503828377 79.15144685158666 l 1.901620392956257 -15.748144781343754 a36.862541542044,36.862541542044 0 0,0 0.6275798163215592,0.08125277180846532 l -2.171678031168608 15.713180413334891" fill="#ff5007" stroke="none" /><path d="M 103.58742460773223 79.30868818359171 l 1.9090893698365827 -11.011120164459665 a32.17539214068989,32.17539214068989 0 0,0 0.5434044774608149,0.09902639754891256 l -2.0978285808484514 10.976725592979387" fill="#ff0000" stroke="none" /><path d="M 103.94208987418118 79.37332000966035 l 2.112865939728587 -11.055407408823294 a32.255498010054026,32.255498010054026 0 0,0 0.5429729479763488,0.10860979643956507 l -2.3023353732358927 11.01750821572087" fill="#ff0100" stroke="none" /><path d="M 104.9986988182912 79.60360301121754 l 2.660067440834134 -10.853982908843246 a32.17519144244282,32.17519144244282 0 0,0 0.5353257894975765,0.13607772231506848 l -2.845998523557105 10.80671995469291" fill="#ff0000" stroke="none" /><path d="M 105.69591212413111 79.78721728523813 l 3.034065636656282 -10.766828581544216 a32.186158947194336,32.186158947194336 0 0,0 0.5305198409269314,0.15442659381482496 l -3.2184454899648176 10.713158293426874" fill="#ff0000" stroke="none" /><path d="M 108.07796709384702 80.6158196554323 l 4.31264353872112 -10.348774530176108 a32.21142402054684,32.21142402054684 0 0,0 0.5085799230488581,0.21708252711797427 l -4.489658536940408 10.273217353398733" fill="#ff0100" stroke="none" /><path d="M 108.73861861582097 80.90454125486305 l 6.566029681746253 -14.347959834307419 a36.77899544294477,36.77899544294477 0 0,0 0.5718455764090453,0.26765260393528534 l -6.811363972026803 14.2331309988016" fill="#ff4f07" stroke="none" /><path d="M 109.71004243097381 81.37971332152246 l 7.288057929736108 -13.975812046727384 a36.761951362462696,36.761951362462696 0 0,0 0.5570506703355312,0.2965981059498843 l -7.526897415858199 13.848643473054928" fill="#ff4e07" stroke="none" /><path d="M 110.34350942703115 81.72400993836675 l 5.524849865921985 -9.761880332194716 a32.21687450500665,32.21687450500665 0 0,0 0.4789690896409242,0.2765329328376976 l -5.691611423423306 9.665600502080848" fill="#ff0100" stroke="none" /><line stroke="#e1ed5e" stroke-width="0.3" x1="143.13028292997686" x2="145.6673583964461" y1="26.7553504044142" y2="22.446841604673864" /><path d="M 143.63769802327073 25.89364864446614 a86.0,86.0 0 0,1 29.32050498858742,28.57503671076993" fill="none" id="id38" stroke="none" /><text fill="#e1ed5e" style="font-size:6.75px; font-family:Arial;" text-anchor="middle"><textPath startOffset="20.669276256404974" xlink:href="#id38">February</textPath></text><path d="M 111.8722381534696 82.67804972795209 l 8.847689116205581 -12.909042836936639 a36.65007954174316,36.65007954174316 0 0,0 0.5159020676862572,0.36013971021872226 l -9.067986275065598 12.755258310912788" fill="#ff4c07" stroke="none" /><path d="M 112.45986205192187 83.09580414077388 l 6.629029033302583 -8.993551025563622 a32.172644538057455,32.172644538057455 0 0,0 0.4417564710183441,0.33150229145875953 l -6.782438493231694 8.878429706840848" fill="#ff0000" stroke="none" /><path d="M 113.03279911837588 83.53348406188908 l 6.937869428391482 -8.765771380459787 a32.17912251028215,32.17912251028215 0 0,0 0.4302030407335924,0.3465411171395834 l -7.087323239480335 8.645381969526797" fill="#ff0000" stroke="none" /><path d="M 114.13192950727249 84.46653392183569 l 9.031484011026805 -9.9271830112493 a34.42075504508854,34.42075504508854 0 0,0 0.43365271589643195,0.40138247977460517 l -9.200566498237201 9.77068278534232" fill="#ff2703" stroke="none" /><path d="M 114.39649973595853 84.71141617570332 l 7.673009178521479 -8.148469847668352 a32.19252566278207,32.19252566278207 0 0,0 0.39907619902424774,0.3823059711963886 l -7.811757863411039 8.015551746166382" fill="#ff0000" stroke="none" /><path d="M 114.91283532996326 85.21462403516908 l 11.12147415663242 -11.026419393136718 a36.661069952272875,36.661069952272875 0 0,0 0.43925757542501115,0.45071696886638124 l -11.309118533208244 10.833879732202595" fill="#ff4d07" stroke="none" /><path d="M 115.16444852881244 85.47280134310134 l 8.07682413458482 -7.7374148157787275 a32.184930761182386,32.184930761182386 0 0,0 0.3787770418680296,0.40224809235083087 l -8.208457010189111 7.597625263483402" fill="#ff0000" stroke="none" /><path d="M 115.6541949942343 86.00192230759917 l 11.679799667425094 -10.444148883830284 a36.668374714015386,36.668374714015386 0 0,0 0.41555559450267887,0.4728259840557157 l -11.857366325886362 10.24211062196327" fill="#ff4d07" stroke="none" /><path d="M 115.8921839302757 86.27271002978787 l 8.470141226952586 -7.316306256028165 a32.19248094197702,32.19248094197702 0 0,0 0.35765146752175814,0.4213125294388105 l -8.594487257981458 7.169826944139802" fill="#ff0000" stroke="none" /><path d="M 116.57777611688842 87.10902102172516 l 8.892310207819088 -6.914714202257574 a32.26438872424892,32.26438872424892 0 0,0 0.33623798448447034,0.44014631507447693 l -9.009700169657865 6.761046973942215" fill="#ff0200" stroke="none" /><path d="M 116.7966241395341 87.39550010848427 l 8.94209066527048 -6.710311541415007 a32.17985985818986,32.17985985818986 0 0,0 0.3277717635115393,0.4446853475932615 l -9.055964448365847 6.555819884552871" fill="#ff0000" stroke="none" /><path d="M 117.21940702142032 87.97951657250589 l 12.822493503832 -8.951096310705015 a36.63772569203498,36.63772569203498 0 0,0 0.3555783102753132,0.5187993812782317 l -12.97426155092264 8.729662194356735" fill="#ff4c07" stroke="none" /><path d="M 117.42321728460499 88.27688183743584 l 9.318800957114751 -6.270105168819798 a32.2318417949321,32.2318417949321 0 0,0 0.3049371072965039,0.4617136461956042 l -9.42506250333198 6.109211644285136" fill="#ff0100" stroke="none" /><line stroke="#e1ed5e" stroke-width="0.3" x1="172.87174338648825" x2="177.1583165268699" y1="56.24261187166439" y2="53.66864786411523" /><path d="M 173.72905801456457 55.72781907015455 a86.0,86.0 0 0,1 12.242430191666344,42.057860355516425" fill="none" id="id39" stroke="none" /><text fill="#e1ed5e" style="font-size:6.75px; font-family:Arial;" text-anchor="middle"><textPath startOffset="22.145653131862474" xlink:href="#id39">March</textPath></text><path d="M 119.0197475246899 91.09779779509293 l 10.13009559159823 -4.7413962353801296 a32.18479659876722,32.18479659876722 0 0,0 0.22991521358549455,0.5024062347740597 l -10.209995270038778 4.566801018391385" fill="#ff0000" stroke="none" /><path d="M 119.16976305983485 91.42560881287824 l 10.209322185053852 -4.566499956038924 a32.18405925085951,32.18405925085951 0 0,0 0.221251794999162,0.5062674056733505 l -10.286207862069984 4.390570480589724" fill="#ff0000" stroke="none" /><path d="M 119.31412917781788 91.75594674310238 l 10.28142065703841 -4.388527107426552 a32.178854185451826,32.178854185451826 0 0,0 0.21249406799767548,0.5099084074451351 l -10.355240569572569 4.211386190540139" fill="#ff0000" stroke="none" /><path d="M 119.83427380445688 93.10060997987247 l 10.559552883601885 -3.673160635997716 a32.18017290382524,32.18017290382524 0 0,0 0.1770132907958941,0.5233083410375369 l -10.621051595970144 3.491350620486018" fill="#ff0000" stroke="none" /><path d="M 119.94978838288452 93.4421083053983 l 10.620351122888072 -3.4911203610707777 a32.17943555591752,32.17943555591752 0 0,0 0.16800007444287876,0.5262578403921186 l -10.678715913108208 3.3082934869872718" fill="#ff0000" stroke="none" /><path d="M 120.35273937422433 94.82641323984039 l 10.829992459257959 -2.7529417327872987 a32.17440937373006,32.17440937373006 0 0,0 0.13147455482081916,0.5364610494707758 l -10.875654540595068 2.566624858708428" fill="#ff0000" stroke="none" /><path d="M 120.7213421655516 96.59031103205396 l 11.033383393981692 -1.8155390387848938 a32.18175885627762,32.18175885627762 0 0,0 0.08501885531964055,0.5458820395637425 l -11.062923741439597 1.62586881728971" fill="#ff0000" stroke="none" /><path d="M 120.77682067341334 96.94652285012252 l 11.05490127129262 -1.6246897904470363 a32.173650210795486,32.173650210795486 0 0,0 0.07561647906368092,0.5471231741978975 l -11.081162266911514 1.434678308049053" fill="#ff0000" stroke="none" /><path d="M 120.82617615685814 97.30363454192243 l 11.099238937265127 -1.4370186949338768 a32.191877756484466,32.191877756484466 0 0,0 0.06625075219139037,0.5486512667025869 l -11.12227177571618 1.2462737513078768" fill="#ff0000" stroke="none" /><path d="M 120.86939407059847 97.66154086499901 l 11.108686409782251 -1.2447514827186184 a32.178207369905564,32.178207369905564 0 0,0 0.05679853149672476,0.5494742687566754 l -11.128417333760643 1.0538726916790115" fill="#ff0000" stroke="none" /><path d="M 120.9064616781168 98.02013634271609 l 11.13257521771995 -1.0542664476128938 a32.182383856797024,32.182383856797024 0 0,0 0.047363852284014504,0.5504397584113694 l -11.149032692701706 0.8630056418258623" fill="#ff0000" stroke="none" /><path d="M 120.96210409425399 98.7389718711861 l 11.161357423394488 -0.6714395464959314 a32.181535252252345,32.181535252252345 0 0,0 0.028439911577575153,0.5517266868215207 l -11.171238924428637 0.4797410662976801" fill="#ff0000" stroke="none" /><line stroke="#e1ed5e" stroke-width="0.3" x1="184.99686870605535" x2="189.99668451229388" y1="99.2704041080226" y2="99.22748670261217" /><path d="M 185.99683186730306 99.26182062694052 a86.0,86.0 0 0,1 -10.086455211305974,41.156179273409016" fill="none" id="id40" stroke="none" /><text fill="#e1ed5e" style="font-size:6.75px; font-family:Arial;" text-anchor="middle"><textPath startOffset="21.40746469413373" xlink:href="#id40">April</textPath></text><path d="M 120.99922638620191 99.81974689727618 l 15.70557101956301 -0.1348134380886449 a36.70614961451809,36.70614961451809 0 0,0 0.0,0.6301330816249416 l -15.70557101956301 -0.134813438088643" fill="#ff4d07" stroke="none" /><path d="M 120.99922638620191 100.18025310272382 l 11.17982757358588 0.0959653737234993 a32.18023943965714,32.18023943965714 0 0,0 -0.009483314902073733,0.5523555500418167 l -11.17653282708514 -0.28786783973438707" fill="#ff0000" stroke="none" /><path d="M 120.99303781780057 100.54070618675476 l 11.174836180675744 0.2878241401413002 a32.1785422305678,32.1785422305678 0 0,0 -0.018962834861356772,0.5520822467206089 l -11.168248658817541 -0.4796126514260197" fill="#ff0000" stroke="none" /><path d="M 120.9064616781168 101.97986365728391 l 11.125459361468891 1.053592568627589 a32.175236163247874,32.175236163247874 0 0,0 -0.056793286948046515,0.5494235325056844 l -11.105733682039178 -1.244420623416205" fill="#ff0000" stroke="none" /><path d="M 120.86939407059847 102.33845913500097 l 15.551924885551818 1.7426256216371707 a36.64925275222534,36.64925275222534 0 0,0 -0.07542401162349804,0.6246190140977913 l -15.519718787668657 -2.0093383126583704" fill="#ff4c07" stroke="none" /><path d="M 120.43855184770803 104.8234425847677 l 15.235990840452436 3.595652352894569 a36.654524353464936,36.654524353464936 0 0,0 -0.14978168567330938,0.6111603906726815 l -15.17202162826283 -3.85666856817535" fill="#ff4d07" stroke="none" /><path d="M 120.35273937422433 105.17358676015961 l 10.837136559180909 2.754757735050926 a32.18178067130447,32.18178067130447 0 0,0 -0.14069647581241712,0.534247435524535 l -10.78825060256376 -2.940385674948264" fill="#ff0000" stroke="none" /><path d="M 120.26092885502905 105.52220625578681 l 10.790233255564122 2.9409260558399786 a32.18383564683425,32.18383564683425 0 0,0 -0.14985638001768317,0.5317874260885418 l -10.738158383471859 -3.125721405831529" fill="#ff0000" stroke="none" /><path d="M 120.16314734710363 105.8691983318838 l 10.731445288134843 3.1237673216166235 a32.17684393072711,32.17684393072711 0 0,0 -0.15892860300780426,0.5290216306861966 l -10.676240365123409 -3.3075265558935434" fill="#ff0000" stroke="none" /><path d="M 119.71291397450082 107.23885506374661 l 14.684933105787856 5.392510843963362 a36.643734641182284,36.643734641182284 0 0,0 -0.22190279413353547,0.5886235250770903 l -14.59019962783988 -5.643802649234611" fill="#ff4c07" stroke="none" /><path d="M 119.58574465831526 107.57618678355244 l 10.428280363032197 4.033882869398139 a32.181289833200225,32.181289833200225 0 0,0 -0.2037249196059441,0.5135198803743269 l -10.357496768460129 -4.21230376698603" fill="#ff0000" stroke="none" /><path d="M 118.70294669586154 109.54985784667822 l 9.952929480788352 5.08203671032081 a32.175325604857974,32.175325604857974 0 0,0 -0.2553984360206445,0.4897601766156541 l -9.864222975792758 -5.252143130040967" fill="#ff0000" stroke="none" /><line stroke="#e1ed5e" stroke-width="0.3" x1="174.33088141563837" x2="178.70328620479359" y1="141.23008692659167" y2="143.65538615756765" /><path d="M 175.20536237346943 141.71514677278685 a86.0,86.0 0 0,1 -30.301960400862466,31.631185727798858" fill="none" id="id41" stroke="none" /><text fill="#e1ed5e" style="font-size:6.75px; font-family:Arial;" text-anchor="middle"><textPath startOffset="22.145653131862474" xlink:href="#id41">May</textPath></text><path d="M 118.00360718960297 110.81064883170644 l 10.535744407539562 6.32641180020308 a33.289239052388474,33.289239052388474 0 0,0 -0.29838577278865325,0.48739073528887517 l -10.425590670295506 -6.506339651616512" fill="#ff1302" stroke="none" /><path d="M 117.423217284605 111.72311816256416 l 11.115357254590283 7.4789084235214345 a34.39721008660358,34.39721008660358 0 0,0 -0.3338335447890187,0.4870731185835346 l -10.985333972985943 -7.668616277175013" fill="#ff2603" stroke="none" /><path d="M 117.01052211995028 112.31430620078461 l 51.03156635985084 36.94291860235382 a84.0,84.0 0 0,0 -0.8555919216646877,1.1607747629244907 l -50.38987241860232 -37.81349967454719" fill="#4dd2ff" stroke="none" /><path d="M 115.89218393027572 113.72728997021213 l 8.460353057249689 7.307851468166479 a32.179546812554484,32.179546812554484 0 0,0 -0.36468457658165393,0.41494410392554715 l -8.33365741670945 -7.452007849903319" fill="#ff0000" stroke="none" /><path d="M 115.41159269507618 114.26474011684316 l 8.216342602196956 7.60492404972081 a32.19567575265998,32.19567575265998 0 0,0 -0.3789034971994696,0.40238238353064243 l -8.084583271261227 -7.744847893195949" fill="#ff0000" stroke="none" /><path d="M 114.65682725009322 115.03919595460226 l 10.954266212347889 11.240042152051076 a36.695046856600065,36.695046856600065 0 0,0 -0.4548919204397423,0.4357761697097337 l -10.759701806042836 -11.426430452066391" fill="#ff4d07" stroke="none" /><path d="M 113.86319453409587 115.77377054828091 l 7.394108090227327 8.413137688977832 a32.200612493237344,32.200612493237344 0 0,0 -0.41833275487427163,0.3613458701076808 l -7.2485958555902 -8.53882769155023" fill="#ff0000" stroke="none" /><path d="M 112.7482090630111 116.68781488649013 l 6.806102369349244 8.90940648029935 a32.21162580954526,32.21162580954526 0 0,0 -0.44229171545272344,0.331903948860808 l -6.6521576649857534 -9.024929456424172" fill="#ff0100" stroke="none" /><path d="M 112.45986205192187 116.90419585922612 l 6.65149496089365 9.024030371047228 a32.210508880170266,32.210508880170266 0 0,0 -0.4479085837394122,0.3242512729023165 l -6.4956053667802705 -9.136882415322622" fill="#ff0100" stroke="none" /><path d="M 112.16784306229584 117.11559508785304 l 9.071752388932987 12.76055582171063 a36.65657932899471,36.65657932899471 0 0,0 -0.5159935614490178,0.3602035799708981 l -8.85136373631021 -12.91440421748665" fill="#ff4d07" stroke="none" /><path d="M 111.5731344415666 117.5232005979908 l 6.176036748011379 9.351306803044132 a32.20671088399475,32.20671088399475 0 0,0 -0.4639520371501409,0.300728105171233 l -6.0145990786042285 -9.45594874991926" fill="#ff0100" stroke="none" /><line stroke="#e1ed5e" stroke-width="0.3" x1="143.1302829299769" x2="145.66735839644613" y1="173.24464959558577" y2="177.55315839532614" /><path d="M 143.63769802327073 174.10635135553383 a86.0,86.0 0 0,1 -40.68552437913181,11.842963189579606" fill="none" id="id42" stroke="none" /><text fill="#e1ed5e" style="font-size:6.75px; font-family:Arial;" text-anchor="middle"><textPath startOffset="21.407464694133747" xlink:href="#id42">June</textPath></text><path d="M 110.65571695917076 118.09573695890943 l 7.953486924801635 13.506759596637798 a36.67451782557785,36.67451782557785 0 0,0 -0.5452409858444516,0.3147950299505123 l -7.720453471096785 -13.641301523864481" fill="#ff4d07" stroke="none" /><path d="M 106.72888874123015 119.89276391827305 l 3.595407601247631 10.629183711025085 a32.22080666359733,32.22080666359733 0 0,0 -0.5254711265204979,0.17273279647006984 l -3.4124137370793988 -10.689337428897174" fill="#ff0100" stroke="none" /><path d="M 106.38641147887787 120.00534299687104 l 3.4077262913256807 10.67465407183625 a32.20539325637269,32.20539325637269 0 0,0 -0.528106135232617,0.16360863064851064 l -3.2239795232214394 -10.731579290291405" fill="#ff0100" stroke="none" /><path d="M 105.69591212413111 120.21278271476187 l 16.351587756069033 58.02601640473909 a81.28592706384697,81.28592706384697 0 0,0 -1.3463217750034193,0.3669459866041906 l -15.35308458013092 -58.29816288548742" fill="#49f0ff" stroke="none" /><path d="M 103.58742460773223 120.69131181640829 l 2.6738424808706407 15.422012883673304 a36.65208979646788,36.65208979646788 0 0,0 -0.6208558524153602,0.10216159425158397 l -2.408709125402208 -15.465640476420559" fill="#ff4c07" stroke="none" /><path d="M 101.08105385017728 120.97215588758144 l 0.5808081857645087 11.267523639677258 a32.28248319827408,32.28248319827408 0 0,0 -0.553681849135946,0.023777480948265105 l -0.38730057602773305 -11.275833689051353" fill="#ff0200" stroke="none" /><line stroke="#e1ed5e" stroke-width="0.3" x1="101.45913802915013" x2="101.54496967792366" y1="184.9874750549273" y2="189.98673829345242" /><path d="M 101.47630435890484 185.9873277026323 a86.0,86.0 0 0,1 -42.54439059252881,-10.42667462771756" fill="none" id="id43" stroke="none" /><text fill="#e1ed5e" style="font-size:6.75px; font-family:Arial;" text-anchor="middle"><textPath startOffset="22.145653131862474" xlink:href="#id43">July</textPath></text><path d="M 100.36049292484886 120.99690560180557 l 0.19220015845404223 11.194695666783533 a32.19634547398444,32.19634547398444 0 0,0 -0.5526930833028931,0.004744205395338098 l -1.3711568646862996e-15 -11.196345473984437" fill="#ff0000" stroke="none" /><path d="M 100.0 121.0 l 1.3705496167613896e-15 11.191386918380218 a32.19138691838022,32.19138691838022 0 0,0 -0.5526079631022839,-0.004743474740790065 l 0.1921150382534304 -11.189737841833862" fill="#ff0000" stroke="none" /><path d="M 98.55909050195518 120.95050786540614 l -1.0744392100007252 15.62211030641756 a36.6590149767431,36.6590149767431 0 0,0 -0.6274469811257356,-0.04856836459117926 l 1.3424551859016969 -15.601364174831328" fill="#ff4d07" stroke="none" /><path d="M 96.41257539226777 120.69131181640829 l -1.912336963716417 11.029851422944061 a32.19440284584297,32.19440284584297 0 0,0 -0.543725545880262,-0.09908490691028857 l 2.101397243147736 -10.995398342102407" fill="#ff0000" stroke="none" /><path d="M 96.05791012581884 120.62667999033965 l -2.10148528748698 10.995859027289328 a32.19487186892036,32.19487186892036 0 0,0 -0.5419523977878018,-0.10840565781967748 l 2.28993417080574 -10.958163972806787" fill="#ff0000" stroke="none" /><path d="M 95.35216902796893 120.47920084513623 l -2.4793594502354064 10.92451521025708 a32.20233260810488,32.20233260810488 0 0,0 -0.5380363374646447,-0.12697511064466294 l 2.6665279414399388 -10.880343955966191" fill="#ff0100" stroke="none" /><path d="M 93.27111125876986 119.89276391827306 l -5.016281540987352 14.82974504111207 a36.65517225976254,36.65517225976254 0 0,0 -0.5943273609116466,-0.20673790747212367 l 5.27011467394402 -14.741448701071356" fill="#ff4d07" stroke="none" /><path d="M 90.93487009805054 118.94263497670748 l -6.759137540320921 14.1239978432218 a36.65800930400508,36.65800930400508 0 0,0 -0.565300980740845,-0.2765170372737438 l 7.000598770323835 -14.005887055850835" fill="#ff4d07" stroke="none" /><line stroke="#e1ed5e" stroke-width="0.3" x1="58.13341422392154" x2="55.67067388415222" y1="173.97424548756322" y2="178.32567169271397" /><path d="M 57.64086615596768 174.84453072859336 a86.0,86.0 0 0,1 -31.369924170532247,-30.572349798747897" fill="none" id="id44" stroke="none" /><text fill="#e1ed5e" style="font-size:6.75px; font-family:Arial;" text-anchor="middle"><textPath startOffset="22.145653131862474" xlink:href="#id44">August</textPath></text><path d="M 88.72937992617639 117.7192867562869 l -8.407921876627414 13.218649708762305 a36.66607322868215,36.66607322868215 0 0,0 -0.5281911409710935,-0.34236711615314086 l 8.633598649855516 -13.07236875090527" fill="#ff4d07" stroke="none" /><path d="M 86.68645165197938 116.24036423190432 l -9.924334403985924 12.106074298660817 a36.65405533038754,36.65405533038754 0 0,0 -0.48318015583339796,-0.4030860708939606 l 10.130688893981215 -11.933926043854987" fill="#ff4d07" stroke="none" /><path d="M 86.13680546590413 115.77377054828092 l -7.382531656474955 8.399965832424275 a32.18307648389968,32.18307648389968 0 0,0 -0.41184372360200877,-0.36827319719933777 l 7.525640406900335 -8.271997105341555" fill="#ff0000" stroke="none" /><path d="M 85.86807049272751 115.53346607816431 l -7.532630479852781 8.279680419996843 a32.19346370893685,32.19346370893685 0 0,0 -0.40559200265090084,-0.37540990251666534 l 7.673652253817649 -8.1491527713478" fill="#ff0000" stroke="none" /><path d="M 85.60350026404147 115.28858382429668 l -7.680252748747076 8.156162268229764 a32.20309177103945,32.20309177103945 0 0,0 -0.39920718229551666,-0.3824314502073027 l 7.819132416907907 -8.02311868771688" fill="#ff0100" stroke="none" /><path d="M 85.34317274990678 115.03919595460226 l -7.814143725975212 8.01799985134025 a32.195944077490296,32.195944077490296 0 0,0 -0.3924962772800665,-0.3891416284012971 l 7.950631923385241 -7.882678212710292" fill="#ff0000" stroke="none" /><path d="M 84.83555147118756 114.52719865689866 l -8.081437398569564 7.74183421831986 a32.19131929179697,32.19131929179697 0 0,0 -0.3788522270143447,-0.4023279363707525 l 8.213145459320161 -7.601964822004617" fill="#ff0000" stroke="none" /><path d="M 83.20337586046588 112.60449989151573 l -8.950916996382892 6.7169349848298605 a32.19089498952463,32.19089498952463 0 0,0 -0.32788416314515767,-0.444837839283242 l 9.06490317911188 -6.562290836277739" fill="#ff0000" stroke="none" /><path d="M 82.78059297857968 112.02048342749411 l -9.171601970725833 6.402490478071561 a32.185265621844614,32.185265621844614 0 0,0 -0.31236606938365824,-0.4557514304038382 l 9.280157776924817 -6.244104312597671" fill="#ff0000" stroke="none" /><path d="M 82.576782715395 111.72311816256416 l -9.286885333692382 6.248630913032209 a32.19337426732674,32.19337426732674 0 0,0 -0.30457317598077044,-0.46116260779873197 l 9.39278294859388 -6.088288426894416" fill="#ff0000" stroke="none" /><path d="M 82.18462484594161 111.11811171558189 l -9.498376648222369 5.927689525390307 a32.19627893815253,32.19627893815253 0 0,0 -0.2885891010233349,-0.47138860820869344 l 9.598733713701108 -5.763763801057057" fill="#ff0000" stroke="none" /><path d="M 81.99639281039703 110.81064883170644 l -13.426943141356094 8.062493568973007 a36.66162841696037,36.66162841696037 0 0,0 -0.3193512222340739,-0.5423281921992573 l 13.563368073719937 -7.8308142084801915" fill="#ff4d07" stroke="none" /><line stroke="#e1ed5e" stroke-width="0.3" x1="26.387840678322732" x2="22.057713659400548" y1="142.50000000000003" y2="145.00000000000006" /><path d="M 25.521815274538298 143.00000000000003 a86.0,86.0 0 0,1 -11.493303480769221,-40.785679425670985" fill="none" id="id45" stroke="none" /><text fill="#e1ed5e" style="font-size:6.75px; font-family:Arial;" text-anchor="middle"><textPath startOffset="21.40746469413373" xlink:href="#id45">September</textPath></text><path d="M 81.4637452351635 109.86951160357371 l -10.001773869509881 5.3253812333604325 a32.33115906769639,32.33115906769639 0 0,0 -0.256635397012971,-0.4921322124178605 l 10.091717335497801 -5.152902777838069" fill="#ff0300" stroke="none" /><path d="M 81.29705330413844 109.54985784667822 l -9.97775854522909 5.094714607538337 a32.203204118427756,32.203204118427756 0 0,0 -0.24716739212706354,-0.4945003551261519 l 10.06374585056789 -4.922682396248431" fill="#ff0100" stroke="none" /><path d="M 80.9802524753101 108.90220220490708 l -10.133070146332592 4.742788477189885 a32.18808085106029,32.18808085106029 0 0,0 -0.22993867496002532,-0.5024575021115218 l 10.212993286147674 -4.568141992863675" fill="#ff0000" stroke="none" /><path d="M 80.68587082218212 108.24405325689762 l -10.29625477288121 4.394858909388795 a32.19498312555732,32.19498312555732 0 0,0 -0.21260057595708387,-0.5101639877748573 l 10.37018119337478 -4.217462412172656" fill="#ff0000" stroke="none" /><path d="M 80.5471966667186 107.91128576633889 l -10.373140623084435 4.218665986471812 a32.198177936240285,32.198177936240285 0 0,0 -0.20383183040572764,-0.513789365429083 l 10.444031128456286 -4.039975603829164" fill="#ff0000" stroke="none" /><path d="M 80.41425534168474 107.57618678355246 l -10.443114546421342 4.039621050207622 a32.197195169280455,32.197195169280455 0 0,0 -0.19497596632240674,-0.5171969152084831 l 10.510921196558185 -3.859755854804994" fill="#ff0000" stroke="none" /><path d="M 80.28708602549918 107.23885506374661 l -10.50949490469481 3.8592321006765626 a32.19567575265998,32.19567575265998 0 0,0 -0.18606008260300738,-0.5204431654153537 l 10.57419515734176 -3.6782539788802873" fill="#ff0000" stroke="none" /><path d="M 79.94057633289273 106.21446072829308 l -10.69405785085073 3.3130464585172175 a32.195496869439765,32.195496869439765 0 0,0 -0.1590207340290435,-0.5293283048919111 l 10.749354904883402 -3.128980550034583" fill="#ff0000" stroke="none" /><path d="M 79.64726062577567 105.17358676015961 l -21.66990081926721 5.508404048769741 a43.35904999505526,43.35904999505526 0 0,0 -0.17717844418949438,-0.7229485145854669 l 21.761266789972996 -5.135599709576174" fill="#ffb811" stroke="none" /><path d="M 79.56144815229197 104.8234425847677 l -10.898504191324541 2.5720173140642095 a32.19788670563177,32.19788670563177 0 0,0 -0.12233531618601073,-0.5390319754962478 l 10.941050369068218 -2.3845510046289355" fill="#ff0000" stroke="none" /><path d="M 79.48165901384964 104.47187691870673 l -10.942731031134297 2.3849172971038737 a32.19960682049931,32.19960682049931 0 0,0 -0.11307012940471196,-0.5410815010491592 l 10.982058871363376 -2.1967193447693054" fill="#ff0000" stroke="none" /><path d="M 79.06263194458094 101.62068470465958 l -11.16504610378116 0.8642451811193007 a32.19844517031926,32.19844517031926 0 0,0 -0.03792676143607179,-0.5514467875005308 l 11.178236826382298 -0.6724549694644266" fill="#ff0000" stroke="none" /><path d="M 79.03789590574601 101.26102812881392 l -21.969176115951655 1.3216110808588117 a43.008892635994876,43.008892635994876 0 0,0 -0.03800841364557054,-0.7373530706947602 l 21.988626119053798 -0.9442862167873207" fill="#ffb310" stroke="none" /><line stroke="#e1ed5e" stroke-width="0.3" x1="15.003131293944662" x2="10.003315487706104" y1="100.72959589197737" y2="100.7725132973878" /><path d="M 14.003168132696942 100.73817937305945 a86.0,86.0 0 0,1 10.791469493833604,-42.45332614584628" fill="none" id="id46" stroke="none" /><text fill="#e1ed5e" style="font-size:6.75px; font-family:Arial;" text-anchor="middle"><textPath startOffset="22.145653131862435" xlink:href="#id46">October</textPath></text><path d="M 79.22317932658666 96.9465228501225 l -19.84102769682615 -2.915947808120149 a41.054154973119736,41.054154973119736 0 0,0 0.10845825044919079,-0.6963797705829993 l 19.78804795423869 3.2561157606345983" fill="#ff940d" stroke="none" /><path d="M 80.28708602549916 92.7611449362534 l -10.50636996372782 -3.858084579068537 a32.19234677956185,32.19234677956185 0 0,0 0.1949466060174012,-0.5171190335112419 l 10.438592673895982 4.037871892773924" fill="#ff0000" stroke="none" /><path d="M 80.83023694016515 91.42560881287825 l -10.218825029870638 -4.570750457654155 a32.19446938167488,32.19446938167488 0 0,0 0.22998431204760805,-0.5025572273840686 l 10.138856252967983 4.745496667252895" fill="#ff0000" stroke="none" /><path d="M 81.1358732173502 90.77261029715801 l -10.057224215677818 -4.919492337820412 a32.195944077490296,32.195944077490296 0 0,0 0.24711166955427252,-0.49438887265349285 l 9.971292632911801 5.091413066637675" fill="#ff0000" stroke="none" /><path d="M 81.29705330413844 90.45014215332179 l -9.973282144394046 -5.092428925376339 a32.198177936240285,32.198177936240285 0 0,0 0.2555798312228751,-0.4901080258337827 l 9.88439424419623 5.262883194314608" fill="#ff0000" stroke="none" /><path d="M 81.46374523516351 90.13048839642627 l -9.886680854021932 -5.264100685252984 a32.20076847067936,32.20076847067936 0 0,0 0.2639767637231831,-0.48568751292812146 l 9.794858740683399 5.433043031655725" fill="#ff0000" stroke="none" /><line stroke="#e1ed5e" stroke-width="0.3" x1="26.387840678322718" x2="22.05771365940052" y1="57.49999999999999" y2="54.99999999999999" /><path d="M 25.521815274538284 56.99999999999999 a86.0,86.0 0 0,1 29.574782752854787,-30.34633250058573" fill="none" id="id47" stroke="none" /><text fill="#e1ed5e" style="font-size:6.75px; font-family:Arial;" text-anchor="middle"><textPath startOffset="21.40746469413373" xlink:href="#id47">November</textPath></text><path d="M 82.98947788004972 87.6856937992154 l -9.069155636468873 -6.565369287464035 a32.196144775737366,32.196144775737366 0 0,0 0.32793763546272414,-0.44491038475167766 l 8.95511598142233 6.720085981484576" fill="#ff0000" stroke="none" /><path d="M 84.58840730492382 85.73525988315684 l -8.213030989757966 -7.6018588706867884 a32.19116331435495,32.19116331435495 0 0,0 0.3788503913517035,-0.4023259869606387 l 8.081324764669992 7.741726317591938" fill="#ff0000" stroke="none" /><path d="M 86.40962598614128 83.9905735841838 l -7.233401543918269 -8.520928830606254 a32.17713407058429,32.17713407058429 0 0,0 0.4241645982786199,-0.3538531938207293 l 7.0860626114777405 8.643844208338866" fill="#ff0000" stroke="none" /><path d="M 86.68645165197937 83.75963576809568 l -7.09708117790311 -8.657285067783976 a32.19451410247993,32.19451410247993 0 0,0 0.43040881109802015,-0.3467068711794436 l 6.9474215964498445 8.77784023275682" fill="#ff0000" stroke="none" /><line stroke="#e1ed5e" stroke-width="0.3" x1="56.869717070023135" x2="54.33264160355391" y1="26.7553504044142" y2="22.446841604673864" /><path d="M 56.362301976729285 25.89364864446614 a86.0,86.0 0 0,1 42.16139366436587,-11.88097634709845" fill="none" id="id48" stroke="none" /><text fill="#e1ed5e" style="font-size:6.75px; font-family:Arial;" text-anchor="middle"><textPath startOffset="22.145653131862474" xlink:href="#id48">December</textPath></text><path d="M 89.34428304082924 81.90426304109057 l -5.6823508688894355 -9.649874055931736 a32.198624053539476,32.198624053539476 0 0,0 0.47869775971649203,-0.276376280432786 l 5.5158606413125435 9.745997233640695" fill="#ff0000" stroke="none" /><path d="M 90.61103034731259 81.2157712731953 l -5.002630629478536 -10.008612388362193 a32.18921959546214,32.18921959546214 0 0,0 0.4963880404877855,-0.24280826492449653 l 4.830082339728698 10.093014403383904" fill="#ff0000" stroke="none" /><path d="M 93.27111125876988 80.10723608172694 l -3.5822229834347286 -10.59020573121432 a32.17965915994279,32.17965915994279 0 0,0 0.5248000748821597,-0.17251220846776813 l 3.399900170904808 10.650138861084118" fill="#ff0000" stroke="none" /><path d="M 98.5590905019552 79.04949213459386 l -0.7683631137027246 -11.17183104071417 a32.19822265704534,32.19822265704534 0 0,0 0.5517482035444568,-0.03319180181357882 l 0.5764705580257842 11.183374820352444" fill="#ff0000" stroke="none" /></svg>