<?xml version="1.0" encoding="utf-8" ?>
<svg baseProfile="full" height="200mm" version="1.1" viewBox="0,0,200,200" width="200mm" xmlns="http://www.w3.org/2000/svg" xmlns:ev="http://www.w3.org/2001/xml-events" xmlns:xlink="http://www.w3.org/1999/xlink"><defs /><rect fill="#1a1a1a" height="200" width="200" x="0" y="0" /><text alignment-baseline="middle" fill="#e1ed5e" style="dominant-baseline: central; font-size:9.0px; font-family:Arial;" text-anchor="middle" x="100.0" y="100.0">2014</text><line stroke="#e1ed5e" stroke-width="0.3" x1="100.0" x2="100.0" y1="15.0" y2="10.0" /><path d="M 100.0 14.0 a86.0,86.0 0 0,1 42.46469731375804,11.215312516191453" fill="none" id="id13" stroke="none" /><text fill="#e1ed5e" style="font-size:6.75px; font-family:Arial;" text-anchor="middle"><textPath startOffset="22.20632615414155" xlink:href="#id13">January</textPath></text><path d="M 100.0 79.0 l 0.0 -16.398518708963394 a37.398518708963394,37.398518708963394 0 0,0 0.6437540222380337,0.005540994109800949 l -0.2822735429655053 16.39608909146215" fill="#ff8b0c" stroke="none" /><path d="M 108.43124777332544 80.76684994638697 l 15.08707444312632 -34.416254205304874 a58.57789734373919,58.57789734373919 0 0,0 0.920001809837261,0.4127779946649089 l -15.677258371430362 34.151455880123436" fill="#5cff2a" stroke="none" /><line stroke="#e1ed5e" stroke-width="0.3" x1="143.23703022742887" x2="145.7803849466894" y1="26.81831364943548" y2="22.513508569990506" /><path d="M 143.74570117128098 25.957352633546492 a86.0,86.0 0 0,1 28.547481713284135,27.462654790039103" fill="none" id="id14" stroke="none" /><text fill="#e1ed5e" style="font-size:6.75px; font-family:Arial;" text-anchor="middle"><textPath startOffset="19.985693538727396" xlink:href="#id14">February</textPath></text><path d="M 110.99172775467656 82.1063720568725 l 6.528690485032801 -10.6281706663732 a33.47324381077006,33.47324381077006 0 0,0 0.4883600386473154,0.30581101139871286 l -6.710669676052379 10.514215313651542" fill="#ff4f07" stroke="none" /><path d="M 117.45458315368197 88.32363383020206 l 15.71662097207512 -10.513744144222859 a39.909018766452476,39.909018766452476 0 0,0 0.3770516001346613,0.5742754550284739 l -15.895269207567706 10.24165062521671" fill="#ffb010" stroke="none" /><line stroke="#e1ed5e" stroke-width="0.3" x1="172.23445277983987" x2="176.4835382374775" y1="55.19839476539836" y2="52.563006222186495" /><path d="M 173.08426987136738 54.67131705675599 a86.0,86.0 0 0,1 12.851231095245387,41.99856678651699" fill="none" id="id15" stroke="none" /><text fill="#e1ed5e" style="font-size:6.75px; font-family:Arial;" text-anchor="middle"><textPath startOffset="22.20632615414155" xlink:href="#id15">March</textPath></text><path d="M 117.84615892207809 88.93136811851018 l 26.686623450377517 -16.55170798500132 a52.40278504214229,52.40278504214229 0 0,0 0.46884073501054807,0.7706508949864499 l -26.967579983674288 16.08988931680779" fill="#a6ff21" stroke="none" /><path d="M 118.56541770881063 90.18545643968196 l 25.81708091908664 -13.648110118221748 a50.202612502681575,50.202612502681575 0 0,0 0.39729526803160387,0.7674480012930782 l -26.048185620278357 13.201689394668326" fill="#c2ff1e" stroke="none" /><path d="M 119.7369772167798 92.82701384747503 l 29.51849408556729 -10.727871192917666 a52.407462702541,52.407462702541 0 0,0 0.3008361033983871,0.8505041753326019 l -29.698783269775486 10.21816939115845" fill="#a6ff21" stroke="none" /><path d="M 119.85752413597 93.16781622104841 l 41.44636482287953 -14.26004468132325 a64.83092551320998,64.83092551320998 0 0,0 0.35398520793454535,1.0583707156365887 l -41.68568732458584 13.544500862764348" fill="#32ff4d" stroke="none" /><path d="M 120.45610955862082 95.25157060432595 l 36.70421708997581 -8.52006501411179 a58.680114915333846,58.680114915333846 0 0,0 0.21992640072391562,0.9858869312117406 l -36.84543787770176 7.886999913350086" fill="#5bff2a" stroke="none" /><path d="M 120.78858239683441 97.02765380044208 l 30.658590639506475 -4.383557456280203 a51.97038514409118,51.97038514409118 0 0,0 0.11899733563014744,0.8866683691887107 l -30.729503974194458 3.8551707450268276" fill="#abff21" stroke="none" /><path d="M 120.94382443527127 98.46500227214037 l 32.490758403379516 -2.3812862106327084 a53.57790517580475,53.57790517580475 0 0,0 0.05949548018672544,0.9203687451658072 l -32.52693447457065 1.8216584012138661" fill="#98ff23" stroke="none" /><path d="M 120.96714384426684 98.82574320788733 l 24.97155838035466 -1.398522481438855 a46.010689576150256,46.010689576150256 0 0,0 0.03747985149221935,0.7911404277411798 l -24.991931840080376 0.9684709470746755" fill="#f9ff18" stroke="none" /><line stroke="#e1ed5e" stroke-width="0.3" x1="184.98032266829074" x2="189.97916517819016" y1="98.17113171792111" y2="98.06355123074" /><path d="M 185.9800911702706 98.14961562048488 a86.0,86.0 0 0,1 -9.607161424134198,41.387399972396054" fill="none" id="id16" stroke="none" /><text fill="#e1ed5e" style="font-size:6.75px; font-family:Arial;" text-anchor="middle"><textPath startOffset="21.466115282336823" xlink:href="#id16">April</textPath></text><line stroke="#e1ed5e" stroke-width="0.3" x1="174.80103733775053" x2="179.2010983576182" y1="140.37084112569926" y2="142.7455964860345" /><path d="M 175.68104954172406 140.8457921977663 a86.0,86.0 0 0,1 -30.038265399797805,32.042727171017184" fill="none" id="id17" stroke="none" /><text fill="#e1ed5e" style="font-size:6.75px; font-family:Arial;" text-anchor="middle"><textPath startOffset="22.206326154141568" xlink:href="#id17">May</textPath></text><line stroke="#e1ed5e" stroke-width="0.3" x1="143.8653032363475" x2="146.44561519142675" y1="172.8068346515853" y2="177.08958963109032" /><path d="M 144.38136562736335 173.6633856474863 a86.0,86.0 0 0,1 -40.68145358897372,12.25698825130547" fill="none" id="id18" stroke="none" /><text fill="#e1ed5e" style="font-size:6.75px; font-family:Arial;" text-anchor="middle"><textPath startOffset="21.466115282336833" xlink:href="#id18">June</textPath></text><line stroke="#e1ed5e" stroke-width="0.3" x1="102.19456741930631" x2="102.32365962044197" y1="184.97166512339345" y2="189.96999836594603" /><path d="M 102.22038585953345 185.97133177190398 a86.0,86.0 0 0,1 -42.740103519485714,-10.115201625700543" fill="none" id="id19" stroke="none" /><text fill="#e1ed5e" style="font-size:6.75px; font-family:Arial;" text-anchor="middle"><textPath startOffset="22.20632615414155" xlink:href="#id19">July</textPath></text><path d="M 91.7346041902142 119.30500536409082 l -8.71204615900657 20.348220666299508 a43.13481042523472,43.13481042523472 0 0,0 -0.6800497111596596,-0.29811380855359815 l 9.061016544823973 -20.195242304451458" fill="#ffde14" stroke="none" /><path d="M 90.7491055286396 118.85261126421891 l -8.606685863039909 17.539763679228187 a40.53761376085174,40.53761376085174 0 0,0 -0.6237891180326093,-0.3127808134312188 l 8.907328888755277 -17.389015024887666" fill="#ffb911" stroke="none" /><line stroke="#e1ed5e" stroke-width="0.3" x1="58.666819895761336" x2="56.23545636021788" y1="174.27360380694188" y2="178.64263932499728" /><path d="M 58.180547188652646 175.14741091055294 a86.0,86.0 0 0,1 -31.652253787137756,-30.449443065178592" fill="none" id="id20" stroke="none" /><text fill="#e1ed5e" style="font-size:6.75px; font-family:Arial;" text-anchor="middle"><textPath startOffset="22.20632615414155" xlink:href="#id20">August</textPath></text><path d="M 88.8546689885994 117.79835938074946 l -3.983055908236653 6.3606778852864805 a28.504862259129837,28.504862259129837 0 0,0 -0.4136166790715574,-0.2639897341793168 l 4.091954389355133 -6.291173722283359" fill="#ff0000" stroke="none" /><path d="M 88.54995079064634 117.60387380957326 l -10.291045755313368 15.821964389208704 a39.87432594482096,39.87432594482096 0 0,0 -0.572149679898292,-0.37918960946812047 l 10.561870133951622 -15.642476758649265" fill="#ffaf10" stroke="none" /><path d="M 88.24862548938628 117.40417183066458 l -10.891001118595646 16.129930562999277 a40.46249124167895,40.46249124167895 0 0,0 -0.5738797355876512,-0.39471971505199327 l 11.167037738806188 -15.940070058582181" fill="#ffb811" stroke="none" /><path d="M 87.07902340077011 116.55440617244103 l -15.31305000889057 19.6191400579725 a45.88775114768558,45.88775114768558 0 0,0 -0.6184849589715645,-0.49136185693745854 l 15.648492460579494 -19.35264428702991" fill="#fbff18" stroke="none" /><path d="M 86.24171649860922 115.8653595955263 l -19.936689263828008 22.9899859443168 a51.43042938445527,51.43042938445527 0 0,0 -0.6638386275216351,-0.5857604055941034 l 20.32947024425623 -22.643402396950407" fill="#b2ff20" stroke="none" /><path d="M 85.18274418774928 114.88116024355367 l -15.06686170278504 15.131842643982019 a42.35375806206213,42.35375806206213 0 0,0 -0.5121968535233555,-0.5188527084337402 l 15.325099181363928 -14.870249441567614" fill="#ffd313" stroke="none" /><path d="M 83.50135304334701 112.99209946851258 l -25.70440079076076 20.241304194791084 a53.71737482620098,53.71737482620098 0 0,0 -0.5658055765951144,-0.7313799791084595 l 26.049013184573944 -19.795846221569374" fill="#96ff23" stroke="none" /><path d="M 83.28015986056508 112.70617746262583 l -8.08697909051535 6.145668296090856 a31.157188076234917,31.157188076234917 0 0,0 -0.3208281372832399,-0.4298017188757817 l 8.191568494493675 -6.005553697705767" fill="#ff2b04" stroke="none" /><line stroke="#e1ed5e" stroke-width="0.3" x1="26.63291911575756" x2="22.317208475507996" y1="142.92168965132927" y2="145.44649492493687" /><path d="M 25.769776987707644 143.4266507060508 a86.0,86.0 0 0,1 -11.730757126820373,-40.83630448921669" fill="none" id="id21" stroke="none" /><text fill="#e1ed5e" style="font-size:6.75px; font-family:Arial;" text-anchor="middle"><textPath startOffset="21.46611528233685" xlink:href="#id21">September</textPath></text><path d="M 81.51974371655577 109.97397251340807 l -32.64978743080767 17.6214051043885 a58.10151664190961,58.10151664190961 0 0,0 -0.46743359547526997,-0.8842082056894225 l 32.94827353450783 -17.056781883612953" fill="#62ff29" stroke="none" /><path d="M 81.02952815118164 109.00673069616217 l -13.88369701386627 6.5916504906963205 a36.36902400819051,36.36902400819051 0 0,0 -0.26363279118134963,-0.5678415783304869 l 13.995104421887445 -6.351688845087007" fill="#ff7b0b" stroke="none" /><path d="M 80.87730276802145 108.67885076344099 l -44.7170135429829 20.294850795280002 a70.10694725806108,70.10694725806108 0 0,0 -0.48927610204489547,-1.1031884449926248 l 45.059730729759075 -19.52211401379468" fill="#3aff90" stroke="none" /><path d="M 80.58989483394504 108.01547362559985 l -9.451994162205754 3.9032354162088443 a31.22621339288002,31.22621339288002 0 0,0 -0.20088475219138263,-0.49857948050038703 l 9.517781528654524 -3.7399565678656517" fill="#ff2c04" stroke="none" /><path d="M 80.0844068197444 106.66101706037122 l -59.484402023497175 19.895295767404804 a83.7233359904075,83.7233359904075 0 0,0 -0.44535930480469815,-1.370675000525241 l 59.81805357931812 -18.86842186690176" fill="#4dd5ff" stroke="none" /><path d="M 79.97269907076064 106.31721596034903 l -29.81071009799747 9.403198877661248 a52.2585761940575,52.2585761940575 0 0,0 -0.26321706039427445,-0.8602085830056828 l 29.968153930897877 -8.888663322103517" fill="#a8ff21" stroke="none" /><path d="M 79.86692584326677 105.97154293290107 l -31.05103305983183 9.20984920555237 a53.38808386539381,53.38808386539381 0 0,0 -0.25373923201468995,-0.8832995541030845 l 31.204964928732625 -8.67399217594469" fill="#9aff23" stroke="none" /><path d="M 79.18660465613746 102.79330883721812 l -17.724158637496 2.3787108319629713 a38.88306642131662,38.88306642131662 0 0,0 -0.08331806213399078,-0.6641269325804618 l 17.76247820887684 -2.073266145095101" fill="#ffa10e" stroke="none" /><line stroke="#e1ed5e" stroke-width="0.3" x1="15.007084014347285" x2="10.007500721073583" y1="101.09737516637583" y2="101.16192664675087" /><path d="M 14.007167355692545 101.11028546245083 a86.0,86.0 0 0,1 10.666146001902534,-42.60595125391555" fill="none" id="id22" stroke="none" /><text fill="#e1ed5e" style="font-size:6.75px; font-family:Arial;" text-anchor="middle"><textPath startOffset="22.20632615414155" xlink:href="#id22">October</textPath></text><path d="M 79.00486145842228 99.54816195383935 l -31.261554111370483 -0.6727823920596794 a52.268792774989095,52.268792774989095 0 0,0 0.027100885055650146,-0.8993464375076347 l 31.245341531859186 1.2107989769923084" fill="#a8ff21" stroke="none" /><path d="M 79.03285615573316 98.82574320788736 l -37.7061928937175 -2.1117207684090036 a58.76527965131414,58.76527965131414 0 0,0 0.06525579004423952,-1.0094781890880242 l 37.66425651266884 2.76045802175004" fill="#5aff2a" stroke="none" /><path d="M 79.32604984820605 96.31383870115002 l -62.021850455381816 -11.05848389654995 a84.0,84.0 0 0,0 0.2660571043605535,-1.4212876901497093 l 61.8223076271114 12.124449664162231" fill="#4dd2ff" stroke="none" /><path d="M 79.62865764111835 94.90015583598534 l -30.292316974584274 -7.583501038652056 a52.22713492608509,52.22713492608509 0 0,0 0.22582930605680526,-0.8702124378085214 l 30.157291336657163 8.103809902009441" fill="#a8ff21" stroke="none" /><path d="M 80.14247586403 93.16781622104843 l -59.09734719226055 -20.33304525283955 a83.49743334263101,83.49743334263101 0 0,0 0.4793027785591645,-1.3550534985930702 l 58.73859133289157 21.347296377859234" fill="#4cd7ff" stroke="none" /><line stroke="#e1ed5e" stroke-width="0.3" x1="26.266209847984243" x2="21.928928074336255" y1="57.711370442889674" y2="55.22380399835377" /><path d="M 25.398753493254645 57.213857153982495 a86.0,86.0 0 0,1 29.58750427330803,-30.492523968695096" fill="none" id="id23" stroke="none" /><text fill="#e1ed5e" style="font-size:6.75px; font-family:Arial;" text-anchor="middle"><textPath startOffset="21.46611528233685" xlink:href="#id23">November</textPath></text><path d="M 81.78341655067845 89.55222093294921 l -48.893024925315146 -28.041675529366348 a77.36367139250025,77.36367139250025 0 0,0 0.6724757028646573,-1.1494789623975399 l 48.403089547980166 28.87913390411778" fill="#44ffe6" stroke="none" /><path d="M 82.95767976084542 87.72973835380427 l -30.77405879139782 -22.156945063050475 a58.92061324693268,58.92061324693268 0 0,0 0.5996922830711426,-0.8179796001613029 l 30.388103895813046 22.68338710688328" fill="#58ff2a" stroke="none" /><path d="M 83.39014120810768 87.1503855733568 l -45.30015037414554 -35.04481724196591 a78.27340429416597,78.27340429416597 0 0,0 0.8335965461146935,-1.0585829605110149 l 44.69019974743688 35.81939259642997" fill="#45fff0" stroke="none" /><path d="M 84.31358615837235 86.03803664274999 l -9.521563503729066 -8.474831920474196 a33.74687991768314,33.74687991768314 0 0,0 0.38994738197107115,-0.43058963868058053 l 9.37427248114195 8.637474346424332" fill="#ff5307" stroke="none" /><path d="M 85.05521093208273 85.24692304244772 l -15.342500543752628 -15.145686581096365 a42.55885305269861,42.55885305269861 0 0,0 0.5191454541924495,-0.516916078628265 l 15.079519289392865 15.40753851037474" fill="#ffd514" stroke="none" /><line stroke="#e1ed5e" stroke-width="0.3" x1="56.762969772571076" x2="54.21961505331055" y1="26.818313649435495" y2="22.513508569990535" /><path d="M 56.25429882871897 25.957352633546506 a86.0,86.0 0 0,1 42.265352541879196,-11.944610805530505" fill="none" id="id24" stroke="none" /><text fill="#e1ed5e" style="font-size:6.75px; font-family:Arial;" text-anchor="middle"><textPath startOffset="22.20632615414155" xlink:href="#id24">December</textPath></text><path d="M 95.692805502759 79.44645832069477 l -7.01311236037608 -33.465936421717835 a55.19287419275718,55.19287419275718 0 0,0 0.9315337415222644,-0.1868569051349167 l 6.436012209386679 33.581697282929966" fill="#84ff25" stroke="none" /><path d="M 99.27714615592234 79.0124445844662 l -1.0421542103595802 -30.258218062548824 a51.27615969238711,51.27615969238711 0 0,0 0.8823732553486975,-0.02278909793098139 l 0.5211543198160037 30.271673952622162" fill="#b4ff20" stroke="none" /></svg>