<?xml version="1.0" encoding="utf-8" ?>
<svg baseProfile="full" height="200mm" version="1.1" viewBox="0,0,200,200" width="200mm" xmlns="http://www.w3.org/2000/svg" xmlns:ev="http://www.w3.org/2001/xml-events" xmlns:xlink="http://www.w3.org/1999/xlink"><defs /><rect fill="#1a1a1a" height="200" width="200" x="0" y="0" /><text alignment-baseline="middle" fill="#e1ed5e" style="dominant-baseline: central; font-size:9.0px; font-family:Arial;" text-anchor="middle" x="100.0" y="100.0">2019</text><line stroke="#e1ed5e" stroke-width="0.3" x1="100.0" x2="100.0" y1="15.0" y2="10.0" /><path d="M 100.0 14.0 a86.0,86.0 0 0,1 42.46469731375804,11.215312516191453" fill="none" id="id73" stroke="none" /><text fill="#e1ed5e" style="font-size:6.75px; font-family:Arial;" text-anchor="middle"><textPath startOffset="22.20632615414155" xlink:href="#id73">January</textPath></text><path d="M 100.0 79.0 l 0.0 -14.588065581662505 a35.588065581662505,35.588065581662505 0 0,0 0.6125900477543588,0.005272755942602081 l -0.25110956848183036 14.585904202328463" fill="#ffb110" stroke="none" /><path d="M 100.36148047927253 79.00311137660856 l 0.1754202385332086 -10.189427706256946 a31.190937603632147,31.190937603632147 0 0,0 0.5367416225357846,0.013862452568066175 l -0.35078849626386094 10.18489846154652" fill="#ff760a" stroke="none" /><path d="M 102.16513564639614 79.11191278185805 l 0.900098396094842 -8.683674777528859 a29.73019958331672,29.73019958331672 0 0,0 0.5085751238870789,0.05714434091949143 l -1.0494402234916462 8.666894483138767" fill="#ff6209" stroke="none" /><path d="M 104.307194497241 79.44645832069477 l 1.4882770887352714 -7.101923350169029 a28.25618935561431,28.25618935561431 0 0,0 0.47518470755384906,0.10385697207145554 l -1.6103045204426485 7.075252880001703" fill="#ff4d07" stroke="none" /><path d="M 105.71112130821622 79.79150937346287 l 3.165570442157689 -11.201198005714772 a32.63991722425426,32.63991722425426 0 0,0 0.5393509795006587,0.15745134089391188 l -3.3579116393817747 11.145048335902159" fill="#ff8a0c" stroke="none" /><path d="M 106.40334571778207 80.00007090966166 l 4.447240053063212 -13.890314474506386 a35.584881908683776,35.584881908683776 0 0,0 0.5817572013202938,0.19179620266279993 l -4.685680076625923 13.81170454758435" fill="#ffb110" stroke="none" /><path d="M 106.74666289553966 80.11325718540242 l 4.674740074524376 -13.779457344551801 a35.55082951156692,35.55082951156692 0 0,0 0.5778160896560118,0.2015886879646522 l -4.911238168243662 13.696947803414941" fill="#ffb010" stroke="none" /><path d="M 107.08798089147638 80.2323363322302 l 4.915656647539339 -13.709270496432497 a35.56392041384641,35.56392041384641 0 0,0 0.5744719223425795,0.21158285716675765 l -5.150910895654495 13.622624371459414" fill="#ffb110" stroke="none" /><path d="M 107.76421540070413 80.48803036053334 l 5.389549727336773 -13.544282998724366 a35.57720303120492,35.57720303120492 0 0,0 0.567060177593962,0.23131808447369503 l -5.621893774519122 13.449504028067093" fill="#ffb110" stroke="none" /><path d="M 108.43124777332544 80.76684994638697 l 2.9271954370077378 -6.677444500485341 a28.290866764898453,28.290866764898453 0 0,0 0.4443254163398754,0.1993558625366916 l -3.0417029718143933 6.626068307432117" fill="#ff4d07" stroke="none" /><path d="M 108.76106565485865 80.91482961587045 l 3.2317847884173148 -7.040143946139354 a28.746486926407876,28.746486926407876 0 0,0 0.44792747004342415,0.21030795323702872 l -3.352490469760337 6.983471010262322" fill="#ff5407" stroke="none" /><path d="M 110.05341064243156 81.56283822128135 l 3.512398132582548 -6.441461003131863 a28.336849493933887,28.336849493933887 0 0,0 0.4262346736535718,0.2371991344137231 l -3.622756895308155 6.380046471157961" fill="#ff4e07" stroke="none" /><path d="M 110.36928655335952 81.73862282372117 l 7.179323839508731 -12.64352564945204 a35.539650327325276,35.539650327325276 0 0,0 0.5293770833060482,0.3066493755772717 l -7.395897655280107 12.518072116484719" fill="#ffb010" stroke="none" /><line stroke="#e1ed5e" stroke-width="0.3" x1="143.23703022742887" x2="145.7803849466894" y1="26.81831364943548" y2="22.513508569990506" /><path d="M 143.74570117128098 25.957352633546492 a86.0,86.0 0 0,1 28.547481713284135,27.462654790039103" fill="none" id="id74" stroke="none" /><text fill="#e1ed5e" style="font-size:6.75px; font-family:Arial;" text-anchor="middle"><textPath startOffset="19.985693538727396" xlink:href="#id74">February</textPath></text><path d="M 112.77801427241765 83.33499621200491 l 8.934829267688775 -11.65274669574701 a35.683925891872065,35.683925891872065 0 0,0 0.48422653253747755,0.37794648931948976 l -9.134088355385684 11.497221817204297" fill="#ffb210" stroke="none" /><path d="M 113.06298171725822 83.55741782278167 l 9.063910522965019 -11.408887866995109 a35.57110827390917,35.57110827390917 0 0,0 0.47613893548049413,0.385004572581763 l -9.258952857010005 11.251177197149216" fill="#ffb110" stroke="none" /><path d="M 113.34407831869373 83.78471172551755 l 9.25112884652233 -11.241669715066884 a35.558795380030915,35.558795380030915 0 0,0 0.4692786730661203,0.3930073929607228 l -9.443265056547567 11.08076116471234" fill="#ffb110" stroke="none" /><path d="M 113.6212207817346 84.01681056812373 l 5.673089917511349 -6.656824103258109 a29.746270997052804,29.746270997052804 0 0,0 0.3868519560204296,0.33547420415844015 l -5.786835672178543 6.5581849056799975" fill="#ff6209" stroke="none" /><path d="M 114.16331599549186 84.49514656593476 l 9.81465962645369 -10.744295972909082 a35.552231428087254,35.552231428087254 0 0,0 0.44828336169802757,0.4166305290126337 l -9.998150871946564 10.573760857821808" fill="#ffb010" stroke="none" /><path d="M 114.68862486808459 84.99185889309783 l 10.182624913503023 -10.404123797358517 a35.55787217006161,35.55787217006161 0 0,0 0.4337454224855458,0.4318827817975515 l -10.360206136155892 10.227305164910847" fill="#ffb110" stroke="none" /><path d="M 114.94478906791727 85.2469230424477 l 6.230081538227487 -6.150161903764164 a29.754336492017828,29.754336492017828 0 0,0 0.35667760975445517,0.36758762969901115 l -6.335023411685051 6.042010078515038" fill="#ff6209" stroke="none" /><path d="M 115.19652480421416 85.50635884689758 l 12.652355897689453 -12.067147488325556 a38.48422598420642,38.48422598420642 0 0,0 0.4530742024747262,0.48330796951483207 l -12.858197422134642 11.84757010193267" fill="#ffd614" stroke="none" /><path d="M 115.4437574822437 85.77008943001954 l 6.435871334188097 -5.930025360129672 a29.75132222021365,29.75132222021365 0 0,0 0.3437784541341089,0.3796087554262752 l -6.536993428938241 5.818363817433848" fill="#ff6209" stroke="none" /><path d="M 115.9244219780498 86.31012108654704 l 16.560534197281367 -14.236730740706182 a42.83885974776829,42.83885974776829 0 0,0 0.475897681403252,0.5633127489257201 l -16.803142492171737 13.949559042151355" fill="#f1ff19" stroke="none" /><path d="M 116.15771136456269 86.58626213691792 l 11.21049916281875 -9.306682963414948 a35.57016263674081,35.57016263674081 0 0,0 0.3870397999801265,0.4744650306745503 l -11.369037454875285 9.112333763132296" fill="#ffb110" stroke="none" /><path d="M 116.82858285166822 87.43820079747576 l 9.334571561509529 -6.967848370289366 a32.648396333757134,32.648396333757134 0 0,0 0.33229442561890227,0.45324922310419613 l -9.453128599642058 6.806136703513676" fill="#ff8a0c" stroke="none" /><path d="M 117.65298651832404 88.62581576622439 l 7.356448551531244 -4.739911914879319 a29.751234213077666,29.751234213077666 0 0,0 0.273672258456656,0.43288379034340324 l -7.436948406233856 4.61258047682171" fill="#ff6209" stroke="none" /><line stroke="#e1ed5e" stroke-width="0.3" x1="172.23445277983987" x2="176.4835382374775" y1="55.19839476539836" y2="52.563006222186495" /><path d="M 173.08426987136738 54.67131705675599 a86.0,86.0 0 0,1 12.851231095245387,41.99856678651699" fill="none" id="id75" stroke="none" /><text fill="#e1ed5e" style="font-size:6.75px; font-family:Arial;" text-anchor="middle"><textPath startOffset="22.20632615414155" xlink:href="#id75">March</textPath></text><path d="M 118.3937258080291 89.86733742301442 l 19.140139687725583 -10.543844088805328 a42.85217598855279,42.85217598855279 0 0,0 0.3503510260999757,0.6491472422639446 l -19.318798813044022 10.212815863208924" fill="#f1ff19" stroke="none" /><path d="M 118.56541770881063 90.18545643968196 l 7.7360318957030385 -4.0896263803617545 a29.750499038471208,29.750499038471208 0 0,0 0.23544058566537826,0.45479627227222097 l -7.805281914528533 3.955857385829189" fill="#ff6209" stroke="none" /><path d="M 118.73160827565052 90.50648371742162 l 15.648751443961922 -7.931068942349816 a38.54381019970309,38.54381019970309 0 0,0 0.29484177005745715,0.5943830169471535 l -15.782953226972786 7.660526336903712" fill="#ffd714" stroke="none" /><path d="M 118.89224826269711 90.83032412892265 l 6.555007814754017 -3.181585174928896 a28.28633046717026,28.28633046717026 0 0,0 0.2088363697723351,0.4398626546548812 l -6.608802378368108 3.0682801046334744" fill="#ff4d07" stroke="none" /><path d="M 119.47837535516314 92.15188598940014 l 13.50540548340345 -5.441519637059227 a35.56042970628426,35.56042970628426 0 0,0 0.22387229410234136,0.5697305695720404 l -13.597071327387493 5.208240062591402" fill="#ffb110" stroke="none" /><path d="M 119.61058180528143 92.48833698450437 l 13.600420412425507 -5.209522900523779 a35.56401607544437,35.56401607544437 0 0,0 0.2140537355424098,0.5735575904318982 l -13.68807873646954 4.974642173062548" fill="#ffb110" stroke="none" /><path d="M 119.7369772167798 92.82701384747503 l 13.704297621796275 -4.980536583264286 a35.581272851298166,35.581272851298166 0 0,0 0.2042482296709313,0.5774372496421274 l -13.787998932277016 4.743901707195544" fill="#ffb110" stroke="none" /><path d="M 119.85752413597 93.16781622104841 l 13.765829696902644 -4.736274155579369 a35.55782813887208,35.55782813887208 0 0,0 0.1941503239048275,0.5804847565557688 l -13.84531731457924 4.498616296101286" fill="#ffb110" stroke="none" /><path d="M 120.08093135843002 93.85539295169968 l 29.436771108344725 -9.00742042303757 a51.78403995518511,51.78403995518511 0 0,0 0.2534806633869056,0.8546107849528906 l -29.587457668843335 8.499380251338149" fill="#8aff24" stroke="none" /><path d="M 120.53481517161879 95.60439243477599 l 15.798734712065743 -3.381819472975028 a37.15663088177805,37.15663088177805 0 0,0 0.12849241409815673,0.6265746442946648 l -15.854606422078897 3.1093691725169514" fill="#ffc512" stroke="none" /><path d="M 120.6074358757038 95.95851677861258 l 30.226920331188193 -5.92803452547633 a51.80273211978505,51.80273211978505 0 0,0 0.1640772012589992,0.8765069699758987 l -30.324483256357052 5.406849478037868" fill="#8aff24" stroke="none" /><path d="M 120.73433829027371 96.67025291283417 l 31.84371115101746 -5.113811830657207 a53.2517133081144,53.2517133081144 0 0,0 0.13755198148691475,0.9062956953791647 l -31.927019025943675 4.564917022885961" fill="#7aff26" stroke="none" /><path d="M 120.78858239683441 97.02765380044208 l 7.2172135769422665 -1.0319153532127678 a28.290611847533512,28.290611847533512 0 0,0 0.064777419368152,0.48266701508282644 l -7.233906995368255 0.9075299960652771" fill="#ff4d07" stroke="none" /><path d="M 120.91429891909075 98.10471618934814 l 11.593487670106756 -1.0506185062741085 a32.640994613977064,32.640994613977064 0 0,0 0.045892486410607836,0.5600045756148626 l -11.609854640336858 0.8509000134514773" fill="#ff8a0c" stroke="none" /><line stroke="#e1ed5e" stroke-width="0.3" x1="184.98032266829074" x2="189.97916517819016" y1="98.17113171792111" y2="98.06355123074" /><path d="M 185.9800911702706 98.14961562048488 a86.0,86.0 0 0,1 -9.607161424134198,41.387399972396054" fill="none" id="id76" stroke="none" /><text fill="#e1ed5e" style="font-size:6.75px; font-family:Arial;" text-anchor="middle"><textPath startOffset="21.466115282336823" xlink:href="#id76">April</textPath></text><path d="M 120.99513854157772 99.54816195383933 l 8.740923916112273 -0.18811411870771247 a29.742947891239012,29.742947891239012 0 0,0 0.006610006005074749,0.5119522495752344 l -8.742866929235063 0.037625611072015334" fill="#ff6209" stroke="none" /><path d="M 120.92983693683757 101.71520430193887 l 50.96805583665355 4.176842318280273 a72.13891597912504,72.13891597912504 0 0,0 -0.11207434561681408,1.2367310648769494 l -50.88860689475966 -5.053554771705793" fill="#3effb6" stroke="none" /><path d="M 120.5718875245553 104.21870165774334 l 7.129805744913135 1.4621178187733272 a28.278180986769346,28.278180986769346 0 0,0 -0.10189027368990854,0.4759974376605431 l -7.103581432498784 -1.5846290758500392" fill="#ff4d07" stroke="none" /><path d="M 120.23288151984713 105.62410040840565 l 14.023929245714195 3.8982082765079715 a35.55563874434348,35.55563874434348 0 0,0 -0.16898640699539821,0.5882638516848474 l -13.954750201832697 -4.139029603697401" fill="#ffb010" stroke="none" /><path d="M 119.26925614724726 108.34839909993367 l 13.385968716260813 5.799466690806143 a35.58828202258522,35.58828202258522 0 0,0 -0.24837047664322054,0.5600098569395554 l -13.28415715488632 -6.029024884238385" fill="#ffb110" stroke="none" /><path d="M 118.81262510543309 109.33194174019688 l 27.605127338611076 13.693433989721989 a51.81482094401663,51.81482094401663 0 0,0 -0.4032212839741659,0.7955938468941518 l -27.36532738485064 -14.166582048318835" fill="#89ff24" stroke="none" /><line stroke="#e1ed5e" stroke-width="0.3" x1="174.80103733775053" x2="179.2010983576182" y1="140.37084112569926" y2="142.7455964860345" /><path d="M 175.68104954172406 140.8457921977663 a86.0,86.0 0 0,1 -30.038265399797805,32.042727171017184" fill="none" id="id77" stroke="none" /><text fill="#e1ed5e" style="font-size:6.75px; font-family:Arial;" text-anchor="middle"><textPath startOffset="22.206326154141568" xlink:href="#id77">May</textPath></text><path d="M 118.48025628344425 109.97397251340804 l 12.7850828282672 6.900232483519225 a35.52830173324696,35.52830173324696 0 0,0 -0.29509399782871865,0.5356813219049691 l -12.66441242098697 -7.119284323821999" fill="#ffb010" stroke="none" /><path d="M 117.75023020441432 111.22182372390056 l 7.380612927948753 4.666076794383478 a29.731879513786723,29.731879513786723 0 0,0 -0.2772074957837595,0.43023218942750663 l -7.299200568787942 -4.792430583732438" fill="#ff6209" stroke="none" /><path d="M 117.35343817320211 111.8261652097733 l 12.039397732891599 8.204708784177134 a35.56929456095623,35.56929456095623 0 0,0 -0.34915343398468,0.5029815627485558 l -11.896383391744783 -8.410731609112709" fill="#ffb110" stroke="none" /><path d="M 116.93607887273984 112.41649034213515 l 7.021732774230458 5.147902169764862 a29.70664274575292,29.70664274575292 0 0,0 -0.30589175228966875,0.4097919903077457 l -6.932079755245697 -5.2680070395819225" fill="#ff6109" stroke="none" /><path d="M 116.0416608686014 113.55231037782055 l 14.584175089344127 12.320997746694202 a40.09201792662812,40.09201792662812 0 0,0 -0.4499040157539301,0.5233400121197772 l -14.369928564019418 -12.570214857975508" fill="#ffeb16" stroke="none" /><path d="M 114.55890576462653 115.13401014063108 l 5.057460634712887 5.257239916859283 a28.2949626191701,28.2949626191701 0 0,0 -0.3539082260622668,0.3346423175795598 l -4.966216574259812 -5.3435168711847645" fill="#ff4d07" stroke="none" /><path d="M 114.0293411484842 115.62618273729858 l 9.71155157469842 10.816935589689722 a35.53686106212491,35.53686106212491 0 0,0 -0.45869228307548,0.4047426085768438 l -9.523916938716352 -10.982501340038853" fill="#ffb010" stroke="none" /><path d="M 113.75828350139079 115.86535959552629 l 9.673682653901142 11.155203619814355 a35.765456440215694,35.765456440215694 0 0,0 -0.4685862767944343,0.39933939084639086 l -9.48023090052966 -11.320067400883692" fill="#ffb310" stroke="none" /><path d="M 112.63410532772338 116.77436683061366 l 5.275113394946798 7.0037952719732814 a29.768122349811414,29.768122349811414 0 0,0 -0.4119554170130591,0.3047547690431801 l -5.153773007515175 -7.093559989756231" fill="#ff6209" stroke="none" /><path d="M 112.34349029814194 116.9893568818739 l 4.263265734943783 5.867881879740871 a28.253100887298963,28.253100887298963 0 0,0 -0.39591026165050075,0.2824714596182189 l -4.161628145444397 -5.940397601203309" fill="#ff4d07" stroke="none" /><path d="M 112.04921762599082 117.19931262002967 l 4.193934522696071 5.986512419544177 a28.309406113359593,28.309406113359593 0 0,0 -0.40151246244185784,0.2761639328536107 l -4.0902651756313295 -6.057817141762881" fill="#ff4e07" stroke="none" /><path d="M 111.45004920935366 117.60387380957326 l 3.97222012572575 6.1070883241269955 a28.285263243418797,28.285263243418797 0 0,0 -0.4104302116267986,0.2619559798935824 l -3.866508112052021 -6.174558732844387" fill="#ff4d07" stroke="none" /><path d="M 111.1453310114006 117.79835938074945 l 10.066729467568775 16.075903772556842 a39.9677021348851,39.9677021348851 0 0,0 -0.5862325518311658,0.36011191420420546 l -9.788517715805302 -16.246804153589427" fill="#ffe915" stroke="none" /><line stroke="#e1ed5e" stroke-width="0.3" x1="143.8653032363475" x2="146.44561519142675" y1="172.8068346515853" y2="177.08958963109032" /><path d="M 144.38136562736335 173.6633856474863 a86.0,86.0 0 0,1 -40.68145358897372,12.25698825130547" fill="none" id="id78" stroke="none" /><text fill="#e1ed5e" style="font-size:6.75px; font-family:Arial;" text-anchor="middle"><textPath startOffset="21.466115282336833" xlink:href="#id78">June</textPath></text><path d="M 110.21172684928248 118.3499491758327 l 4.709701762274117 8.463092408032054 a30.68530969027102,30.68530969027102 0 0,0 -0.4637532050684725,0.2528752235975191 l -4.5633257453369955 -8.542908283389343" fill="#ff6f0a" stroke="none" /><path d="M 109.2508944713604 118.85261126421891 l 6.435942032968924 13.115954748186311 a35.60991508559195,35.60991508559195 0 0,0 -0.5526104866658011,0.26528661568355544 l -6.209218878302891 -13.224795640369427" fill="#ffb110" stroke="none" /><path d="M 108.92500713936063 119.00905698771935 l 6.208883053578285 13.22408037916815 a35.609124910401434,35.609124910401434 0 0,0 -0.5570827226563092,0.2557293547894063 l -5.980332335154556 -13.32899680429163" fill="#ffb110" stroke="none" /><path d="M 108.2653958097858 119.30500536409082 l 5.722085927415578 13.364744056390087 a35.53817908314317,35.53817908314317 0 0,0 -0.5644284286532665,0.23593112895356638 l -5.491186039264851 -13.461260228363628" fill="#ffb010" stroke="none" /><path d="M 107.93186726928326 119.44442032107085 l 5.513492835764058 13.515943786777028 a35.5972373994992,35.5972373994992 0 0,0 -0.5693505616012393,0.22655633851758902 l -5.280021198120953 -13.608846969700686" fill="#ffb110" stroke="none" /><path d="M 107.59598834532513 119.57807347666477 l 2.6683553562736013 6.8774799080791 a28.37698110295707,28.37698110295707 0 0,0 -0.45690963599203466,0.17276412812876804 l -2.549575499521292 -6.9223922863144995" fill="#ff4f07" stroke="none" /><path d="M 106.57524785965236 119.94407469862006 l 5.288690573949276 16.041682704005144 a37.89099854842684,37.89099854842684 0 0,0 -0.6211934292101678,0.19888651939115626 l -5.011775799648168 -16.130342070056006" fill="#ffcf13" stroke="none" /><path d="M 105.88484417918355 120.15858648285463 l 4.072037259904553 13.948800132305422 a35.531018979309565,35.531018979309565 0 0,0 -0.588577812780262,0.16633796903656692 l -3.8313282790196848 -14.01682689468051" fill="#ffb010" stroke="none" /><path d="M 104.48393922423573 120.51570834832081 l 4.674005382663916 21.38533250649907 a42.890152414515,42.890152414515 0 0,0 -0.7226143878500374,0.15143087082206602 l -4.305199533384501 -21.462619358047675" fill="#f1ff19" stroke="none" /><path d="M 103.7750983002368 120.6578951692458 l 2.6197147572754083 14.335465867399217 a35.57286818182524,35.57286818182524 0 0,0 -0.6033006471736309,0.10489155066207093 l -2.372565138629727 -14.378435996582294" fill="#ffb110" stroke="none" /><path d="M 103.41894727170886 120.7198165907248 l 1.9008593864295538 11.519761704863136 a32.67553750984547,32.67553750984547 0 0,0 -0.5557395302776886,0.08679508526868175 l -1.702283992543348 -11.550775097478923" fill="#ff8a0c" stroke="none" /><path d="M 101.62511606390274 120.93702456842531 l 1.1258831423620723 14.505205835083968 a35.54883531999758,35.54883531999758 0 0,0 -0.6104873251108751,0.042102780234585406 l -0.8760330564722668 -14.522436959834838" fill="#ffb010" stroke="none" /><path d="M 101.26447882468166 120.96189622390904 l 0.4379336845236837 7.25984513837205 a28.273041822042877,28.273041822042877 0 0,0 -0.48604311619057966,0.025122877324746072 l -0.3129024999196244 -7.266307822458998" fill="#ff4d07" stroke="none" /><path d="M 100.90346689309514 120.98055641714683 l 0.6283480399070996 14.591670820068716 a35.60519354820401,35.60519354820401 0 0,0 -0.6125443716024325,0.021097266685630833 l -0.3770833166300149 -14.600324885180441" fill="#ffb110" stroke="none" /><line stroke="#e1ed5e" stroke-width="0.3" x1="102.19456741930631" x2="102.32365962044197" y1="184.97166512339345" y2="189.96999836594603" /><path d="M 102.22038585953345 185.97133177190398 a86.0,86.0 0 0,1 -42.740103519485714,-10.115201625700543" fill="none" id="id79" stroke="none" /><text fill="#e1ed5e" style="font-size:6.75px; font-family:Arial;" text-anchor="middle"><textPath startOffset="22.20632615414155" xlink:href="#id79">July</textPath></text><path d="M 100.54218724476979 120.99299961872073 l 0.37796613410920954 14.634506779319251 a35.63938684072781,35.63938684072781 0 0,0 -0.6134052872260871,0.010560328303487953 l -0.12600115699045453 -14.638844584901898" fill="#ffb210" stroke="none" /><path d="M 100.18074693466247 120.99922214144158 l 0.07526021058865244 8.7437492841255 a29.74407317232324,29.74407317232324 0 0,0 -0.5120142905022097,0.0 l 0.07526021058864642 -8.7437492841255" fill="#ff6209" stroke="none" /><path d="M 99.81925306533755 120.99922214144158 l -0.12585552689085178 14.621925245066135 a35.62246687416153,35.62246687416153 0 0,0 -0.6131140701802432,-0.010555314737945357 l 0.3775292869637629 -14.61759245304903" fill="#ffb110" stroke="none" /><path d="M 98.73552117531835 120.96189622390904 l -0.4429431632257999 7.342889765644624 a28.356237404832516,28.356237404832516 0 0,0 -0.4869673891607636,-0.03358412226416298 l 0.5692733131654936 -7.334177298864176" fill="#ff4e07" stroke="none" /><path d="M 98.37488393609728 120.93702456842531 l -1.1363473278933434 14.64002015045714 a35.684055136623584,35.684055136623584 0 0,0 -0.6119912011180529,-0.05280517595714188 l 1.388182846752938 -14.618290722221335" fill="#ffb210" stroke="none" /><path d="M 96.93821686468263 120.77559828337769 l -1.277221843958905 8.666534099938689 a29.76014320340061,29.76014320340061 0 0,0 -0.506155040291878,-0.07905100768943867 l 1.4262127478593 -8.643264784902145" fill="#ff6209" stroke="none" /><path d="M 95.86986931433489 120.58985236759428 l -2.8723703435619767 14.319566575524279 a35.60481079307248,35.60481079307248 0 0,0 -0.5998707653704843,-0.12570875131759146 l 3.118432570361848 -14.268001843480146" fill="#ffb110" stroke="none" /><path d="M 95.16358092515715 120.4354850818985 l -2.024388010487322 8.553715124372689 a29.790005076558653,29.790005076558653 0 0,0 -0.4979849252194761,-0.12239257870591146 l 2.171326220450009 -8.517601287352747" fill="#ff6209" stroke="none" /><path d="M 92.7421414339146 119.70592522655815 l -2.525971637876229 6.858305072654937 a28.30868532534816,28.30868532534816 0 0,0 -0.45580997712507576,-0.17234833123935409 l 2.6436518357615877 -6.81380849130895" fill="#ff4e07" stroke="none" /><path d="M 92.06813273071674 119.44442032107085 l -2.7809468921474125 6.8172976709904285 a28.362690619049253,28.362690619049253 0 0,0 -0.4504650860426912,-0.1882944424996458 l 2.897883437687566 -6.76841818547081" fill="#ff4e07" stroke="none" /><path d="M 90.7491055286396 118.85261126421891 l -3.220988905204585 6.564127599139536 a28.311808303370405,28.311808303370405 0 0,0 -0.43565953426994863,-0.21844873462652645 l 3.3335023471572938 -6.507711023603708" fill="#ff4e07" stroke="none" /><line stroke="#e1ed5e" stroke-width="0.3" x1="58.666819895761336" x2="56.23545636021788" y1="174.27360380694188" y2="178.64263932499728" /><path d="M 58.180547188652646 175.14741091055294 a86.0,86.0 0 0,1 -31.652253787137756,-30.449443065178592" fill="none" id="id80" stroke="none" /><text fill="#e1ed5e" style="font-size:6.75px; font-family:Arial;" text-anchor="middle"><textPath startOffset="22.20632615414155" xlink:href="#id80">August</textPath></text><path d="M 86.79598089348748 116.32954008644616 l -1.8416493922163322 2.2775858875077644 a23.929004943462083,23.929004943462083 0 0,0 -0.3180619082820037,-0.2617432969716139 l 1.8805814290430247 -2.24554747167897" fill="#ff0e01" stroke="none" /><path d="M 85.97065885151581 115.62618273729859 l -7.822830206384505 8.713236996238491 a32.70970415469755,32.70970415469755 0 0,0 -0.41572546550927014,-0.3797553559870662 l 7.9716552213606295 -8.57728887366485" fill="#ff8b0c" stroke="none" /><path d="M 85.18274418774928 114.88116024355367 l -8.324749421445064 8.36065272123672 a32.79838831599354,32.79838831599354 0 0,0 -0.39664086647217245,-0.4017951036382304 l 8.46743091297277 -8.216117123617824" fill="#ff8c0c" stroke="none" /><path d="M 84.9287848128048 114.62390073753433 l -5.775404977918881 5.603990658159095 a29.047360682590572,29.047360682590572 0 0,0 -0.3451012471447048,-0.36183727793461834 l 5.8710127764425435 -5.503746263641976" fill="#ff5808" stroke="none" /><path d="M 84.19399662182784 113.82643327865904 l -6.638597137962134 5.807168212977112 a29.820100601125297,29.820100601125297 0 0,0 -0.334634765333719,-0.3892558323845457 l 6.737574412866632 -5.692035281431036" fill="#ff6309" stroke="none" /><path d="M 83.95833913139862 113.55231037782056 l -6.692105675745057 5.653622398687378 a29.76057786919783,29.76057786919783 0 0,0 -0.32723030835607975,-0.3941699864812717 l 6.7884319839946725 -5.537591155092345" fill="#ff6209" stroke="none" /><path d="M 83.72743513129214 113.27417163493432 l -17.040839269708236 13.9008833023259 a42.991470155515145,42.991470155515145 0 0,0 -0.46283815888523794,-0.5774617678296072 l 17.277595340648336 -13.605493700918032" fill="#efff19" stroke="none" /><path d="M 83.28015986056508 112.70617746262583 l -11.69793993043994 8.88980393734376 a35.69252914445276,35.69252914445276 0 0,0 -0.3675289186021536,-0.49236504718507734 l 11.84923011573718 -8.687126010649376" fill="#ffb210" stroke="none" /><path d="M 82.85270091963577 112.12312394758628 l -5.953870954220563 4.209381034742909 a28.291602569748612,28.291602569748612 0 0,0 -0.27771453755511527,-0.40006850427710566 l 6.025446398937813 -4.106271268278791" fill="#ff4d07" stroke="none" /><path d="M 82.24976979558568 111.22182372390057 l -19.806236225251887 12.521645578344998 a44.43242628069417,44.43242628069417 0 0,0 -0.40314039770566906,-0.6499906837986523 l 20.01884126262551 -12.178858563181082" fill="#deff1b" stroke="none" /><line stroke="#e1ed5e" stroke-width="0.3" x1="26.63291911575756" x2="22.317208475507996" y1="142.92168965132927" y2="145.44649492493687" /><path d="M 25.769776987707644 143.4266507060508 a86.0,86.0 0 0,1 -11.730757126820373,-40.83630448921669" fill="none" id="id81" stroke="none" /><text fill="#e1ed5e" style="font-size:6.75px; font-family:Arial;" text-anchor="middle"><textPath startOffset="21.46611528233685" xlink:href="#id81">September</textPath></text><path d="M 81.87401531095188 110.60418214915194 l -12.732610920208014 7.448915341617077 a35.75146503273416,35.75146503273416 0 0,0 -0.3061823628935869,-0.5338547578931488 l 12.858945279253978 -7.2286407378656214" fill="#ffb310" stroke="none" /><path d="M 80.87730276802145 108.67885076344099 l -10.634844799187045 4.826632445456088 a32.678882851811004,32.678882851811004 0 0,0 -0.2280657915692857,-0.5142281523781553 l 10.71635167548761 -4.642855956585237" fill="#ff8a0c" stroke="none" /><path d="M 80.73074385275274 108.34839909993369 l -28.43788090484132 12.320702861377159 a51.99214076756051,51.99214076756051 0 0,0 -0.3487162863248749,-0.8242622917462821 l 28.645748172358502 -11.829366043964717" fill="#87ff25" stroke="none" /><path d="M 80.32549172779594 107.34259656027581 l -22.070099445758004 8.236639718427574 a44.55698459898521,44.55698459898521 0 0,0 -0.26198602860659687,-0.7208730322033208 l 22.208609735369826 -7.8555188892181365" fill="#ddff1b" stroke="none" /><path d="M 79.97269907076064 106.31721596034903 l -13.950142120467355 4.400296413576718 a35.62768176125573,35.62768176125573 0 0,0 -0.17945023276249963,-0.5864537435888313 l 14.023819125735985 -4.159515697435839" fill="#ffb110" stroke="none" /><path d="M 79.67330655649465 105.27499134158121 l -48.75145555799272 12.651516916543061 a71.366311154506,71.366311154506 0 0,0 -0.29834069808876124,-1.1917227869899347 l 48.96200757037654 -11.810466290155734" fill="#3dffad" stroke="none" /><path d="M 79.23777060512086 103.15116336523772 l -14.81934993437519 2.2491897050978027 a35.989062239079,35.989062239079 0 0,0 -0.08768640583262662,-0.6132785181635049 l 14.855870391224414 -1.993765714953897" fill="#ffb610" stroke="none" /><path d="M 79.10278846688536 102.07522291339032 l -11.67010756652583 1.1589141730898906 a32.727510079930525,32.727510079930525 0 0,0 -0.05084515377161047,-0.5610720350113996 l 11.688327316574515 -0.9578607495299248" fill="#ff8b0c" stroke="none" /><path d="M 79.04373962182676 101.35467743843564 l -1.9458262149855667 0.125784220323156 a22.949887517014087,22.949887517014087 0 0,0 -0.022090522544740032,-0.3944411196100314 l 1.9477030884178386 -0.09227138437768698" fill="#ff0000" stroke="none" /><path d="M 79.0235259727143 100.99374915477108 l -62.92942208185711 2.9812474643132365 a84.0,84.0 0 0,0 -0.05599146859519655,-1.4448910119440128 l 62.97141568330351 -1.8975792053552267" fill="#4dd2ff" stroke="none" /><line stroke="#e1ed5e" stroke-width="0.3" x1="15.007084014347285" x2="10.007500721073583" y1="101.09737516637583" y2="101.16192664675087" /><path d="M 14.007167355692545 101.11028546245083 a86.0,86.0 0 0,1 10.666146001902534,-42.60595125391555" fill="none" id="id82" stroke="none" /><text fill="#e1ed5e" style="font-size:6.75px; font-family:Arial;" text-anchor="middle"><textPath startOffset="22.20632615414155" xlink:href="#id82">October</textPath></text><path d="M 79.00019446554 99.90962569577889 l -14.80100375232854 -0.0636972763245771 a35.80114081479717,35.80114081479717 0 0,0 0.007956365207634365,-0.6162292535533594 l 14.79771438000319 0.31846278793840854" fill="#ffb410" stroke="none" /><path d="M 79.01574976396665 99.18683210126434 l -12.570616842846214 -0.4871282971242598 a33.580051740255605,33.580051740255605 0 0,0 0.027353977171818696,-0.5773992248776664 l 12.560369257440897 0.7034386286249353" fill="#ff960d" stroke="none" /><path d="M 79.03285615573316 98.82574320788736 l -19.529091407601527 -1.0937192208673303 a40.55969409118022,40.55969409118022 0 0,0 0.045039433107053224,-0.69674009524114 l 19.50737138349006 1.4297183803614821" fill="#fff116" stroke="none" /><path d="M 79.3925641242962 95.95851677861259 l -14.291495950575458 -2.802815519657863 a35.56374372689075,35.56374372689075 0 0,0 0.12298400520692862,-0.5997136862694332 l 14.241132649453533 3.0484048620906985" fill="#ffb110" stroke="none" /><path d="M 79.54389044137918 95.25157060432595 l -14.281236084396902 -3.31507029894316 a35.66094796338952,35.66094796338952 0 0,0 0.14394660470958714,-0.5967516079695635 l 14.2220566794265 3.5604071385721205" fill="#ffb210" stroke="none" /><path d="M 80.52162464483688 92.15188598940014 l -14.067711289350529 -5.668080630644619 a36.16666209012415,36.16666209012415 0 0,0 0.23762928695962665,-0.5754381669586988 l 13.968060315504703 5.909393368056628" fill="#ffb911" stroke="none" /><path d="M 80.803312248108 91.48605970444005 l -14.740410554910687 -6.5375327774543885 a37.12510583356317,37.12510583356317 0 0,0 0.26411451400117597,-0.5819413218960875 l 14.62569372394616 6.790296108192547" fill="#ffc512" stroke="none" /><path d="M 81.6062741919709 89.86733742301443 l -15.454735491251085 -8.513643270742548 a38.64457341071174,38.64457341071174 0 0,0 0.3259805183438712,-0.5798829682500493 l 15.305897331614783 8.778409748927382" fill="#ffd814" stroke="none" /><line stroke="#e1ed5e" stroke-width="0.3" x1="26.266209847984243" x2="21.928928074336255" y1="57.711370442889674" y2="55.22380399835377" /><path d="M 25.398753493254645 57.213857153982495 a86.0,86.0 0 0,1 29.58750427330803,-30.492523968695096" fill="none" id="id83" stroke="none" /><text fill="#e1ed5e" style="font-size:6.75px; font-family:Arial;" text-anchor="middle"><textPath startOffset="21.46611528233685" xlink:href="#id83">November</textPath></text><path d="M 82.95767976084542 87.72973835380427 l -14.282153110320264 -10.282975151002752 a38.598848695945165,38.598848695945165 0 0,0 0.39285795620251757,-0.5358578107575874 l 14.103032541604113 10.52729540543184" fill="#ffd814" stroke="none" /><path d="M 83.6137871275137 86.86637796730984 l -17.110175317043726 -13.713881131401417 a42.92780506722413,42.92780506722413 0 0,0 0.46709848522435193,-0.5726075125384696 l 16.87157833974298 14.006372813547967" fill="#f0ff19" stroke="none" /><path d="M 83.84228863543731 86.58626213691792 l -11.446173300588644 -9.50233388413177 a35.876465725185774,35.876465725185774 0 0,0 0.39855231806089547,-0.47176023471180106 l 11.280910369040624 9.697953068472689" fill="#ffb510" stroke="none" /><path d="M 84.31358615837235 86.03803664274999 l -16.486996606837497 -14.67453586395279 a43.071770657024956,43.071770657024956 0 0,0 0.4976970980883017,-0.5495695664245124 l 16.23195586813315 14.956158217646859" fill="#eeff19" stroke="none" /><path d="M 87.22198572758235 83.33499621200491 l -5.344367447937106 -6.9700895511254 a29.78318915709307,29.78318915709307 0 0,0 0.4095243058310495,-0.3084452168227076 l 5.2235969883476665 7.061051357453962" fill="#ff6209" stroke="none" /><path d="M 87.51073957382395 83.11751280151077 l -13.029797155895615 -17.61316332408893 a42.90888258685999,42.90888258685999 0 0,0 0.5975668420263268,-0.4341577240579889 l 12.724684997515507 17.834840282963587" fill="#f0ff19" stroke="none" /><path d="M 88.09926311788651 82.69761687909137 l -9.238545620070068 -13.431845219491706 a37.30230631458316,37.30230631458316 0 0,0 0.5321712314123054,-0.35932439101078306 l 9.005969694251224 13.588881522801154" fill="#ffc712" stroke="none" /><path d="M 89.00827224532344 82.1063720568725 l -12.2264986660193 -19.903733340176032 a44.359063990387256,44.359063990387256 0 0,0 0.6540594723096472,-0.3940635137451816 l 11.882077127492003 20.111243463379832" fill="#dfff1b" stroke="none" /><line stroke="#e1ed5e" stroke-width="0.3" x1="56.762969772571076" x2="54.21961505331055" y1="26.818313649435495" y2="22.513508569990535" /><path d="M 56.25429882871897 25.957352633546506 a86.0,86.0 0 0,1 42.265352541879196,-11.944610805530505" fill="none" id="id84" stroke="none" /><text fill="#e1ed5e" style="font-size:6.75px; font-family:Arial;" text-anchor="middle"><textPath startOffset="22.20632615414155" xlink:href="#id84">December</textPath></text><path d="M 89.63071344664047 81.73862282372117 l -7.220651155492225 -12.716307291754447 a35.623346889397055,35.623346889397055 0 0,0 0.5358360547138479,-0.29819218431087124 l 7.000691011706332 12.838714873625504" fill="#ffb110" stroke="none" /><path d="M 89.94658935756843 81.56283822128135 l -7.092924863476179 -13.007864479370019 a35.81600895763008,35.81600895763008 0 0,0 0.5438148509393781,-0.29048705987087164 l 6.867964966008495 13.128030265742641" fill="#ffb410" stroke="none" /><path d="M 90.26544431104013 81.39251694778311 l -6.8902147472333874 -13.17056044793958 a35.86400759471761,35.86400759471761 0 0,0 0.5494699198398724,-0.2814598344694545 l 6.6624843398047515 13.28721280772154" fill="#ffb510" stroke="none" /><path d="M 90.58718382345135 81.22770947309562 l -6.665036031352819 -13.292301730545159 a35.86970042048881,35.86970042048881 0 0,0 0.554321353817944,-0.27200308092725595 l 6.435243410524449 13.405059971607244" fill="#ffb510" stroke="none" /><path d="M 92.23578459929587 80.48803036053334 l -3.2467790726204377 -8.159363364040672 a29.781616300707697,29.781616300707697 0 0,0 0.47794790794564546,-0.18543636291664836 l 3.105847999675116 8.214042430847872" fill="#ff6209" stroke="none" /><path d="M 92.57280143429618 80.3572730644239 l -3.100725193342109 -8.200494134669587 a29.76713184441621,29.76713184441621 0 0,0 0.4808351063182929,-0.17709562759141528 l 2.959107761251247 8.252653030067325" fill="#ff6209" stroke="none" /><path d="M 92.91201910852362 80.23233633223022 l -2.95747422111907 -8.248097251430913 a29.762292053888984,29.762292053888984 0 0,0 0.48373361325317127,-0.16876515930555333 l 2.8150586038026133 8.297783263908677" fill="#ff6209" stroke="none" /><path d="M 94.63758080256005 79.69619591428918 l -3.740682322082483 -14.163398685933315 a35.64904660964112,35.64904660964112 0 0,0 0.5946449597243544,-0.1515882405560713 l 3.4963284736731293 14.22568992265825" fill="#ffb210" stroke="none" /><path d="M 94.98787191387505 79.60689891045804 l -5.587337461224535 -22.73348480130923 a44.41003355651078,44.41003355651078 0 0,0 0.7439237079228336,-0.1760627064543151 l 5.195190066339167 22.826293419904417" fill="#deff1b" stroke="none" /><path d="M 95.33964822691252 79.52364482259891 l -2.6123838228356995 -11.478124746931304 a32.77165650806761,32.77165650806761 0 0,0 0.5511213779697949,-0.12045378702197683 l 2.4144197207123836 11.521392032049148" fill="#ff8b0c" stroke="none" /><path d="M 95.692805502759 79.44645832069477 l -1.496564119558763 -7.1414683100117795 a28.29659330008554,28.29659330008554 0 0,0 0.4775839601522614,-0.09579884952991373 l 1.373413749939365 7.166171115618904" fill="#ff4d07" stroke="none" /><path d="M 97.47563105711357 79.15227682838746 l -1.8300266934797242 -15.113436571875624 a36.22382877961244,36.22382877961244 0 0,0 0.6196574011428441,-0.06962572906349286 l 1.569602588827162 15.142698254409716" fill="#ffb911" stroke="none" /><path d="M 97.83486435360386 79.11191278185805 l -2.2626639162407796 -21.828988546952495 a42.94594242635392,42.94594242635392 0 0,0 0.7359602653654355,-0.06988829512871673 l 1.8865785237851076 21.86470238659639" fill="#f0ff19" stroke="none" /><path d="M 99.63851952072746 79.00311137660856 l -0.25232911087407306 -14.656742317384557 a35.658914193704994,35.658914193704994 0 0,0 0.6138095901466052,-0.0052832529289953125 l 3.590398469259305e-15 14.658914193704994" fill="#ffb210" stroke="none" /></svg>