<?xml version="1.0" encoding="utf-8" ?>
<svg baseProfile="full" height="200mm" version="1.1" viewBox="0,0,200,200" width="200mm" xmlns="http://www.w3.org/2000/svg" xmlns:ev="http://www.w3.org/2001/xml-events" xmlns:xlink="http://www.w3.org/1999/xlink"><defs /><rect fill="#1a1a1a" height="200" width="200" x="0" y="0" /><text alignment-baseline="middle" fill="#e1ed5e" style="dominant-baseline: central; font-size:9.0px; font-family:Arial;" text-anchor="middle" x="100.0" y="100.0">2021</text><line stroke="#e1ed5e" stroke-width="0.3" x1="100.0" x2="100.0" y1="15.0" y2="10.0" /><path d="M 100.0 14.0 a86.0,86.0 0 0,1 42.46469731375804,11.215312516191453" fill="none" id="id97" stroke="none" /><text fill="#e1ed5e" style="font-size:6.75px; font-family:Arial;" text-anchor="middle"><textPath startOffset="22.20632615414155" xlink:href="#id97">January</textPath></text><path d="M 100.36148047927253 79.00311137660856 l 0.12832165415890817 -7.453667998245111 a28.45477250323505,28.45477250323505 0 0,0 0.48965699448850497,0.012646395538788673 l -0.25660528384228093 7.4503548105639625" fill="#ff3705" stroke="none" /><path d="M 100.72285384407766 79.0124445844662 l 0.4302634064484212 -12.492396851862653 a33.49980422660117,33.49980422660117 0 0,0 0.5761314956952206,0.024809434129430354 l -0.6452357345329733 12.483139691209027" fill="#ff800b" stroke="none" /><path d="M 101.44485096284872 79.0497635885617 l 1.0873567171771383 -15.766595222743202 a36.80404598665225,36.80404598665225 0 0,0 0.6316447259404298,0.04902778747049005 l -1.3585916324799092 15.745542173084248" fill="#ffad10" stroke="none" /><path d="M 102.16513564639614 79.11191278185805 l 1.5351261278261916 -14.810087535280116 a35.88943602125326,35.88943602125326 0 0,0 0.6139371624329342,0.06898299359408389 l -1.789829993768851 14.781468588215432" fill="#ffa10e" stroke="none" /><path d="M 102.88285421437855 79.19881850522331 l 3.0665335430566425 -22.126516308314983 a43.338002415453815,43.338002415453815 0 0,0 0.7380482852392442,0.10876913203522223 l -3.446950808724542 22.070452692118792" fill="#fbff18" stroke="none" /><path d="M 103.59715602781102 79.31037775812273 l 2.0417017347279707 -11.743176358077717 a32.91934297478291,32.91934297478291 0 0,0 0.5574418558057023,0.10186893606981973 l -2.2435387116365737 11.70629194065716" fill="#ff780b" stroke="none" /><path d="M 104.307194497241 79.44645832069477 l 2.445330559778509 -11.668895753902174 a32.92236426477663,32.92236426477663 0 0,0 0.5536558322939883,0.12100772057198216 l -2.6458291162260252 11.625074535234322" fill="#ff780b" stroke="none" /><path d="M 105.01212808612495 79.60689891045804 l 2.8448294954192455 -11.574902812878555 a32.919372046613496,32.919372046613496 0 0,0 0.5491125437142553,0.13998101389356715 l -3.043650927818526 11.52421880281612" fill="#ff780b" stroke="none" /><path d="M 105.71112130821622 79.79150937346287 l 6.482825459293902 -22.939123590168574 a44.83758412718658,44.83758412718658 0 0,0 0.7409085859896445,0.2162915333015341 l -6.876724263006973 22.824133727948336" fill="#e8ff1a" stroke="none" /><path d="M 106.0581310904928 79.89281104454417 l 4.298011476200176 -14.2652787788461 a35.898693945703606,35.898693945703606 0 0,0 0.5901311547922888,0.18335662240523068 l -4.542928003703183 14.189182021558349" fill="#ffa10e" stroke="none" /><path d="M 106.40334571778207 80.00007090966166 l 3.637074832872045 -11.359879968950123 a32.92791625762293,32.92791625762293 0 0,0 0.5383199656669106,0.17747562900495656 l -3.832077620781373 11.29559061568593" fill="#ff780b" stroke="none" /><path d="M 107.4271985657038 80.35727306442388 l 4.262929499675354 -11.274178193430362 a33.05320131153641,33.05320131153641 0 0,0 0.5304516806020407,0.20580701101228255 l -4.456364345277062 11.199128478527534" fill="#ff790b" stroke="none" /><path d="M 109.41281617654863 81.2277094730956 l 6.6794997050439875 -13.321147113215407 a35.9019688874192,35.9019688874192 0 0,0 0.5500515221162819,0.2817577537449873 l -6.907811714749026 13.204196834157917" fill="#ffa10e" stroke="none" /><path d="M 109.73455568895987 81.39251694778311 l 5.867101862374878 -11.214892796143191 a33.65688368803582,33.65688368803582 0 0,0 0.5110316229690812,0.272975394844219 l -6.05927853187227 11.112238674797217" fill="#ff820c" stroke="none" /><line stroke="#e1ed5e" stroke-width="0.3" x1="143.23703022742887" x2="145.7803849466894" y1="26.81831364943548" y2="22.513508569990506" /><path d="M 143.74570117128098 25.957352633546492 a86.0,86.0 0 0,1 28.547481713284135,27.462654790039103" fill="none" id="id98" stroke="none" /><text fill="#e1ed5e" style="font-size:6.75px; font-family:Arial;" text-anchor="middle"><textPath startOffset="19.985693538727396" xlink:href="#id98">February</textPath></text><path d="M 110.99172775467656 82.1063720568725 l 7.798045361557863 -12.694575911778804 a35.898381423524796,35.898381423524796 0 0,0 0.5237417394763488,0.32796702921193016 l -8.015406253406475 12.55846454124393" fill="#ffa10e" stroke="none" /><path d="M 111.2981086023043 82.29822771554956 l 9.373177428551601 -14.685807887183064 a38.42209540802591,38.42209540802591 0 0,0 0.5544362784330592,0.36062077814129356 l -9.624580732768942 14.522288184882242" fill="#ffc312" stroke="none" /><path d="M 111.90073688211348 82.69761687909136 l 9.288317775375617 -13.504208545257242 a37.390134091280565,37.390134091280565 0 0,0 0.5271454472009486,0.36929907341049956 l -9.519394362160217 13.342324629082807" fill="#ffb510" stroke="none" /><path d="M 112.48926042617603 83.11751280151076 l 20.896375251300103 -28.24689178035795 a56.13609815979004,56.13609815979004 0 0,0 0.7718816312683968,0.5813652418869364 l -21.379503036326884 27.883009948965167" fill="#64ff29" stroke="none" /><path d="M 114.42810811169701 84.74124197986012 l 9.40475410834383 -9.946201266803241 a34.68854701851765,34.68854701851765 0 0,0 0.4303308453839209,0.41397793230864993 l -9.57456819734017 9.782840247732288" fill="#ff900d" stroke="none" /><path d="M 114.68862486808459 84.99185889309783 l 14.073918344941259 -14.380063099497027 a41.121167767443076,41.121167767443076 0 0,0 0.5016081446348735,0.4994540798512679 l -14.319362289743456 14.135673168995641" fill="#ffe715" stroke="none" /><path d="M 115.19652480421416 85.50635884689758 l 11.855678972657458 -11.307319197638412 a37.38330221109268,37.38330221109268 0 0,0 0.4401130437731409,0.469481909102637 l -12.048559338401063 11.101567871657721" fill="#ffb510" stroke="none" /><path d="M 116.38621287248628 86.86637796730983 l 13.944300297156733 -11.176418312048817 a38.87052984841763,38.87052984841763 0 0,0 0.41396358979757736,0.5256917203821933 l -14.134617967548275 10.934734197713587" fill="#ffc912" stroke="none" /><path d="M 116.60985879189232 87.15038557335679 l 11.762865777836122 -9.099914195015911 a35.87190134663488,35.87190134663488 0 0,0 0.37362132830552713,0.4916418726502462 l -11.917763046365764 8.89608754648463" fill="#ffa10e" stroke="none" /><line stroke="#e1ed5e" stroke-width="0.3" x1="172.23445277983987" x2="176.4835382374775" y1="55.19839476539836" y2="52.563006222186495" /><path d="M 173.08426987136738 54.67131705675599 a86.0,86.0 0 0,1 12.851231095245387,41.99856678651699" fill="none" id="id99" stroke="none" /><text fill="#e1ed5e" style="font-size:6.75px; font-family:Arial;" text-anchor="middle"><textPath startOffset="22.20632615414155" xlink:href="#id99">March</textPath></text><path d="M 117.84615892207809 88.93136811851018 l 12.665806964763513 -7.855648679758171 a35.90415654267085,35.90415654267085 0 0,0 0.3212297042964839,0.5280171721997416 l -12.799152467346222 7.636463734351348" fill="#ffa10e" stroke="none" /><path d="M 118.73160827565052 90.50648371742162 l 28.05253530663536 -14.217529898238235 a52.44968828998662,52.44968828998662 0 0,0 0.4012151070238682,0.8088251732824322 l -28.293110426612635 13.732545136456853" fill="#8dff24" stroke="none" /><path d="M 119.196687751892 91.48605970444005 l 9.523756988334762 -4.223890049996376 a31.418406515744795,31.418406515744795 0 0,0 0.21500556658341805,0.49626249128563815 l -9.59505326476086 4.059328414124135" fill="#ff6209" stroke="none" /><path d="M 119.61058180528143 92.48833698450437 l 12.063983587337573 -4.6210041207520165 a33.91872203739818,33.91872203739818 0 0,0 0.2041509918769493,0.547023160742859 l -12.141739167716148 4.412657822979824" fill="#ff860c" stroke="none" /><path d="M 120.28053869075195 94.5502522615342 l 11.679615982427794 -3.1385241662939687 a33.09395565724441,33.09395565724441 0 0,0 0.14309774126663524,0.5514139703427458 l -11.731910055564732 2.937013770402373" fill="#ff7a0b" stroke="none" /><path d="M 120.45610955862082 95.25157060432595 l 14.521177208645422 -3.3707672771172277 a35.907268682135154,35.907268682135154 0 0,0 0.13457636155761835,0.6032794410901039 l -14.577047957205078 3.12030966647716" fill="#ffa10e" stroke="none" /><path d="M 120.53481517161879 95.60439243477599 l 30.747465049470364 -6.581690112785107 a52.44400183992386,52.44400183992386 0 0,0 0.18135811136430802,0.88436655903466 l -30.85620245674967 6.0514478975870345" fill="#8dff24" stroke="none" /><path d="M 120.73433829027371 96.67025291283417 l 11.753404486441822 -1.8874903942012815 a32.90399668221194,32.90399668221194 0 0,0 0.0849927572525156,0.5599960771462158 l -11.784153137133638 1.6848952046629837" fill="#ff770b" stroke="none" /><path d="M 120.78858239683441 97.02765380044208 l 12.53357155087514 -1.7920468579812239 a33.66103659903513,33.66103659903513 0 0,0 0.07707415788296264,0.5742920000249675 l -12.562561707815938 1.5760365158915919" fill="#ff820c" stroke="none" /><path d="M 120.94382443527127 98.46500227214037 l 11.879174808090825 -0.8706388079035975 a32.91103715278428,32.91103715278428 0 0,0 0.03654599694450729,0.5653503970904059 l -11.892401396039748 0.6660293465601563" fill="#ff770b" stroke="none" /><path d="M 120.96714384426684 98.82574320788733 l 11.894511611351462 -0.6661475283535854 a32.913150674867936,32.913150674867936 0 0,0 0.026810726176869085,0.5659320549875491 l -11.904215945761827 0.46130436674303654" fill="#ff770b" stroke="none" /><path d="M 120.98425023603335 99.18683210126433 l 14.88792243557544 -0.5769270032191991 a35.89909659055723,35.89909659055723 0 0,0 0.018613349164014175,0.6176864418400839 l -14.8956474791951 0.3205704139541161" fill="#ffa10e" stroke="none" /><line stroke="#e1ed5e" stroke-width="0.3" x1="184.98032266829074" x2="189.97916517819016" y1="98.17113171792111" y2="98.06355123074" /><path d="M 185.9800911702706 98.14961562048488 a86.0,86.0 0 0,1 -9.607161424134198,41.387399972396054" fill="none" id="id100" stroke="none" /><text fill="#e1ed5e" style="font-size:6.75px; font-family:Arial;" text-anchor="middle"><textPath startOffset="21.466115282336823" xlink:href="#id100">April</textPath></text><path d="M 120.99980553446 99.90962569577887 l 12.654980034507425 -0.054461695546377864 a33.65509722404626,33.65509722404626 0 0,0 -0.002493205998737542,0.5793332693631525 l -12.654042531219183 -0.16338105202045944" fill="#ff820c" stroke="none" /><path d="M 120.99824983174949 100.27111621757518 l 14.902215290959369 0.19240804712529583 a35.903457365145236,35.903457365145236 0 0,0 -0.01329784956083843,0.6178988161956618 l -14.896695378713522 -0.4488966791110725" fill="#ffa10e" stroke="none" /><path d="M 120.9764740272857 100.99374915477107 l 8.937602380316903 0.4234140971245511 a29.94762626657429,29.94762626657429 0 0,0 -0.028826229004949695,0.5147116832487073 l -8.928989800424423 -0.5771974967086817" fill="#ff4d07" stroke="none" /><path d="M 120.95626037817324 101.35467743843564 l 3.795867247057328 0.24537659038829016 a24.80378992958249,24.80378992958249 0 0,0 -0.03120959467173404,0.4258301231573986 l -3.7910810937212562 -0.310679850042459" fill="#ff0000" stroke="none" /><path d="M 120.92983693683757 101.71520430193887 l 8.90918672949093 0.7301096253790718 a29.939052983734264,29.939052983734264 0 0,0 -0.046513032889350596,0.5132674420654659 l -8.895299100324504 -0.8833584559931082" fill="#ff4d07" stroke="none" /><path d="M 120.81339534386255 102.79330883721812 l 62.44018603158764 8.379926511654341 a84.0,84.0 0 0,0 -0.20466379593359463,1.4314181120783627 l -62.28668818463745 -9.453490095713112" fill="#4dd2ff" stroke="none" /><path d="M 120.64145759157962 103.86396538481128 l 11.71841334229546 2.1936214203211812 a32.92196234671877,32.92196234671877 0 0,0 -0.10906586319208986,0.5561244866897367 l -11.678917546127705 -2.3950096340788627" fill="#ff780b" stroke="none" /><path d="M 120.5718875245553 104.21870165774334 l 14.58693060488462 2.9913593612039753 a35.89049278229509,35.89049278229509 0 0,0 -0.12931850652503787,0.6041330101373831 l -14.533278059635137 -3.2420061907575275" fill="#ffa10e" stroke="none" /><path d="M 120.32669344350535 105.2749913415812 l 11.532571720460876 2.9928239996669377 a32.91457955534128,32.91457955534128 0 0,0 -0.14703714402324647,0.5471799120706844 l -11.479346500095852 -3.19089484491317" fill="#ff770b" stroke="none" /><path d="M 120.23288151984713 105.62410040840565 l 11.485283888592928 3.1925452509138434 a32.9207420566299,32.9207420566299 0 0,0 -0.15646345030595804,0.544669796591332 l -11.42862780140087 -3.3897725230097575" fill="#ff780b" stroke="none" /><path d="M 120.02730092923936 106.31721596034902 l 11.369862606144116 3.586398275847801 a32.92208154122418,32.92208154122418 0 0,0 -0.17512626765855807,0.538983230899695 l -11.30644408746931 -3.781580406725291" fill="#ff780b" stroke="none" /><path d="M 119.79798401119884 107.00284435728193 l 14.04633181927603 4.968398573586402 a35.89914165189464,35.89914165189464 0 0,0 -0.211079668797416,0.5808005934200077 l -13.958727889473387 -5.209446964012541" fill="#ffa10e" stroke="none" /><path d="M 119.54520255179757 107.68017299344265 l 19.397143808956834 7.621994176661652 a41.8409208811515,41.8409208811515 0 0,0 -0.26917138229080223,0.6680612962613772 l -19.263069812408638 -7.954754840765843" fill="#fff016" stroke="none" /><path d="M 118.97047184881838 109.00673069616215 l 13.454963704725506 6.388098070562604 a35.89442329379041,35.89442329379041 0 0,0 -0.2698008486960837,0.555869660685615 l -13.343009599414708 -6.618756687213495" fill="#ffa10e" stroke="none" /><path d="M 118.64920377521936 109.65438752849418 l 30.466622330055344 15.772071676833237 a55.307044774818365,55.307044774818365 0 0,0 -0.4449517377237665,0.8416810033328962 l -30.19061808410668 -16.294167695252266" fill="#6dff28" stroke="none" /><line stroke="#e1ed5e" stroke-width="0.3" x1="174.80103733775053" x2="179.2010983576182" y1="140.37084112569926" y2="142.7455964860345" /><path d="M 175.68104954172406 140.8457921977663 a86.0,86.0 0 0,1 -30.038265399797805,32.042727171017184" fill="none" id="id101" stroke="none" /><text fill="#e1ed5e" style="font-size:6.75px; font-family:Arial;" text-anchor="middle"><textPath startOffset="22.206326154141568" xlink:href="#id101">May</textPath></text><path d="M 118.30583269289576 110.29060199501025 l 12.981097112552256 7.297308245130733 a35.891594604674324,35.891594604674324 0 0,0 -0.3073824592647001,0.5359472270726019 l -12.853562657135175 -7.519675318061649" fill="#ffa10e" stroke="none" /><path d="M 117.94076556474637 110.91462005526583 l 10.179448904254993 6.192869348912089 a32.91523439832524,32.91523439832524 0 0,0 -0.29864362126182675,0.48150860767321224 l -10.071340643325204 -6.367174287950575" fill="#ff780b" stroke="none" /><path d="M 117.75023020441432 111.22182372390056 l 12.585822366105843 7.956847792184721 a35.89007560152617,35.89007560152617 0 0,0 -0.33462391694327664,0.5193437501185653 l -12.446993585785517 -8.17231314222474" fill="#ffa10e" stroke="none" /><path d="M 117.35343817320211 111.8261652097733 l 12.31047999759215 8.38944817793824 a35.89734065198979,35.89734065198979 0 0,0 -0.35237358272823555,0.5076204271836896 l -12.164245507701779 -8.60010986730895" fill="#ffa10e" stroke="none" /><path d="M 117.14729908036423 112.12312394758627 l 14.600062365994656 10.322230041938662 a38.8804433426477,38.8804433426477 0 0,0 -0.39106358644584094,0.5431531181854345 l -14.420218987173213 -10.572016765575226" fill="#ffc912" stroke="none" /><path d="M 116.71984013943494 112.70617746262583 l 12.067913846940622 9.170964175742967 a36.1572137456045,36.1572137456045 0 0,0 -0.3808442470912793,0.49229252768662435 l -11.908262782631272 -9.377334697542842" fill="#ffa50f" stroke="none" /><path d="M 116.498646956653 112.99209946851258 l 9.818353227247007 7.7316050267956165 a33.49711072149731,33.49711072149731 0 0,0 -0.3606236539069452,0.4499334566705698 l -9.683811661285207 -7.899466317044436" fill="#ff800b" stroke="none" /><path d="M 115.80600337817218 113.82643327865902 l 9.124240690278095 7.9815056408740706 a33.12254925621798,33.12254925621798 0 0,0 -0.37908150432471455,0.4259020887242526 l -8.985500336305043 -8.13738189933919" fill="#ff7a0b" stroke="none" /><path d="M 115.32070863581623 114.36230785411682 l 13.035756023110185 12.220292518152927 a38.86802967098717,38.86802967098717 0 0,0 -0.46177708398663436,0.48417142639953337 l -12.823472387744586 -12.442871061134968" fill="#ffc912" stroke="none" /><path d="M 115.07121518719521 114.62390073753431 l 8.553104875728382 8.299248278708331 a32.917765101177814,32.917765101177814 0 0,0 -0.3980845261744677,0.4032575232947391 l -8.408979724498378 -8.445246295983734" fill="#ff780b" stroke="none" /><path d="M 114.81725581225074 114.88116024355365 l 10.946666665404775 10.993877870824937 a36.51434374126403,36.51434374126403 0 0,0 -0.4492134497391515,0.4396499074680208 l -10.75580326328983 -11.18067788121553" fill="#ffaa0f" stroke="none" /><path d="M 114.0293411484842 115.62618273729858 l 10.11845888061599 11.270157722654732 a36.14594550406909,36.14594550406909 0 0,0 -0.46655404477617485,0.41167969920634795 l -9.922962482933228 -11.44266056363337" fill="#ffa40f" stroke="none" /><path d="M 113.20401910651253 116.32954008644616 l 14.880763694826463 18.403186583678156 a44.66673624678606,44.66673624678606 0 0,0 -0.6020278580677667,0.4782873406657214 l -14.561778344041345 -18.656607838349004" fill="#eaff1a" stroke="none" /><path d="M 112.63410532772338 116.77436683061366 l 9.855863871812096 13.085681314971243 a37.38209718371486,37.38209718371486 0 0,0 -0.5173237751838762,0.3827037614162759 l -9.629155126209655 -13.253395025127286" fill="#ffb510" stroke="none" /><path d="M 112.34349029814194 116.9893568818739 l 7.005655169734493 9.642457116677964 a32.918732466340586,32.918732466340586 0 0,0 -0.46128968412846294,0.32911794162491437 l -6.838638157757146 -9.761619320147098" fill="#ff780b" stroke="none" /><path d="M 112.04921762599082 117.19931262002967 l 10.253340877771764 14.63583949020296 a38.87005307039601,38.87005307039601 0 0,0 -0.5512941762552671,0.3791851613970584 l -9.999889816893614 -14.810165440965113" fill="#ffc912" stroke="none" /><path d="M 111.45004920935366 117.60387380957326 l 14.611290202700712 22.464122574536663 a47.797884327523796,47.797884327523796 0 0,0 -0.6935659608691579,0.44266661116438 l -14.222442439784624 -22.712303614524853" fill="#c4ff1e" stroke="none" /><line stroke="#e1ed5e" stroke-width="0.3" x1="143.8653032363475" x2="146.44561519142675" y1="172.8068346515853" y2="177.08958963109032" /><path d="M 144.38136562736335 173.6633856474863 a86.0,86.0 0 0,1 -40.68145358897372,12.25698825130547" fill="none" id="id102" stroke="none" /><text fill="#e1ed5e" style="font-size:6.75px; font-family:Arial;" text-anchor="middle"><textPath startOffset="21.466115282336833" xlink:href="#id102">June</textPath></text><path d="M 110.8373102113329 117.98757091392108 l 6.1488201927816535 10.205700224300083 a32.91487754160479,32.91487754160479 0 0,0 -0.4878174958149405,0.28821117500603277 l -5.972234825938331 -10.310029971599866" fill="#ff780b" stroke="none" /><path d="M 110.5260780823613 118.17145234162733 l 9.326904051978524 16.101285887235097 a39.60759378364891,39.60759378364891 0 0,0 -0.5928902831035373,0.3366585762320802 l -9.048365001953787 -16.259447629261807" fill="#ffd313" stroke="none" /><path d="M 110.21172684928248 118.3499491758327 l 5.801385357612428 10.42479181364785 a32.930312503259046,32.930312503259046 0 0,0 -0.49768238031290646,0.2713761151981472 l -5.6210801654308735 -10.523108580605768" fill="#ff780b" stroke="none" /><path d="M 109.89434966115114 118.52300852407294 l 8.76567224814023 16.410034750342625 a39.60446856186084,39.60446856186084 0 0,0 -0.6040795990936869,0.3160258956807961 l -8.481901746520048 -16.55849006496814" fill="#ffd313" stroke="none" /><path d="M 109.57404056367764 118.69057910512821 l 14.323940249647258 27.96340129880574 a52.41857852407577,52.41857852407577 0 0,0 -0.8066123245180694,0.4044521645105374 l -13.840474017446429 -28.205821304225577" fill="#8eff24" stroke="none" /><path d="M 108.92500713936063 119.00905698771935 l 5.1228549703362685 10.91098758246143 a33.05376675864132,33.05376675864132 0 0,0 -0.5171057257453658,0.2373778762554707 l -4.934281248823483 -10.997552529050976" fill="#ff790b" stroke="none" /><path d="M 108.2653958097858 119.30500536409082 l 5.863090853979679 13.694081081056272 a35.896432157283954,35.896432157283954 0 0,0 -0.5701183155555867,0.2383095021401997 l -5.626501078926631 -13.792975626216444" fill="#ffa10e" stroke="none" /><path d="M 107.93186726928326 119.44442032107085 l 4.504077027932592 11.04143121869394 a32.924760510412746,32.924760510412746 0 0,0 -0.5266063396103184,0.20954753044719585 l -4.313349612280407 -11.117325593547205" fill="#ff780b" stroke="none" /><path d="M 107.59598834532513 119.57807347666477 l 8.874719956996287 22.873905475359127 a45.5352034026778,45.5352034026778 0 0,0 -0.7331813463896871,0.277226449370612 l -8.479668389846324 -23.02328017483637" fill="#dfff1b" stroke="none" /><path d="M 106.2309692047433 120.05430185196036 l 4.418531331623232 14.220991655561726 a35.89160914058962,35.89160914058962 0 0,0 -0.591570672912728,0.1782353910203788 l -4.173085684270258 -14.29494241568783" fill="#ffa10e" stroke="none" /><path d="M 105.53697534728816 120.25689768951611 l 4.869721059613113 17.81576313670574 a39.469315075054695,39.469315075054695 0 0,0 -0.6569001349721836,0.17349329611857195 l -4.562330481829432 -17.896947782127896" fill="#ffd113" stroke="none" /><path d="M 105.18746579009965 120.34920634021253 l 4.528955344899451 17.76602498176607 a39.334205195994436,39.334205195994436 0 0,0 -0.6575306443471602,0.16160503473943547 l -4.222471415809079 -17.841351274819534" fill="#ffcf13" stroke="none" /><path d="M 104.83641907484287 120.43548508189849 l 3.435082798234173 14.514371519941392 a35.91532012561615,35.91532012561615 0 0,0 -0.6028298415421293,0.13720210928952653 l -3.1847328072991816 -14.571350362808602" fill="#ffa10e" stroke="none" /><path d="M 104.13013068566511 120.58985236759428 l 3.2228363636008717 16.06673734605331 a37.38678501639697,37.38678501639697 0 0,0 -0.6320723556126798,0.12113817129805537 l -2.9457963934164875 -16.119832715699832" fill="#ffb510" stroke="none" /><path d="M 103.7750983002368 120.6578951692458 l 3.34471865756839 18.30279423302277 a39.60589744233418,39.60589744233418 0 0,0 -0.6716991004695155,0.11678349850383705 l -3.0291705856268245 -18.357656310047613" fill="#ffd313" stroke="none" /><path d="M 103.41894727170886 120.7198165907248 l 2.024332481850394 12.2680446375011 a33.43393908722389,33.43393908722389 0 0,0 -0.5686382847739888,0.08880960544471954 l -1.8128583334678883 -12.301072550292927" fill="#ff7f0b" stroke="none" /><path d="M 101.98527174616119 120.90594882070398 l 1.9718047083122772 20.764133875429977 a41.85754706106404,41.85754706106404 0 0,0 -0.7178682580687165,0.06194069393826666 l -1.614092132502019 -20.794998821646907" fill="#fff016" stroke="none" /><path d="M 100.90346689309514 120.98055641714683 l 0.5130797920682237 11.914879899037675 a32.92592193004469,32.92592193004469 0 0,0 -0.566450737889257,0.01950970874201168 l -0.30790870250431435 -11.92194640620578" fill="#ff780b" stroke="none" /><line stroke="#e1ed5e" stroke-width="0.3" x1="102.19456741930631" x2="102.32365962044197" y1="184.97166512339345" y2="189.96999836594603" /><path d="M 102.22038585953345 185.97133177190398 a86.0,86.0 0 0,1 -42.740103519485714,-10.115201625700543" fill="none" id="id103" stroke="none" /><text fill="#e1ed5e" style="font-size:6.75px; font-family:Arial;" text-anchor="middle"><textPath startOffset="22.20632615414155" xlink:href="#id103">July</textPath></text><path d="M 100.18074693466247 120.99922214144158 l 0.17449726512264174 20.27313403808103 a41.273885000698186,41.273885000698186 0 0,0 -0.7104883995701804,0.0 l 0.17449726512262778 -20.27313403808103" fill="#ffe915" stroke="none" /><path d="M 99.81925306533755 120.99922214144158 l -0.27096756691194884 31.48107679577771 a52.48224292587763,52.48224292587763 0 0,0 -0.9032951503932164,-0.015551045192711227 l 0.812822407197833 -31.47174827330584" fill="#8dff24" stroke="none" /><path d="M 99.45781275523022 120.99299961872073 l -0.24533284022523136 9.4990656290611 a30.50223321265601,30.50223321265601 0 0,0 -0.5247540994383993,-0.018073592205684556 l 0.4088072913382737 -9.493435238429322" fill="#ff5507" stroke="none" /><path d="M 99.09653310690486 120.98055641714683 l -0.5125578603237725 11.902759456668411 a32.913790255140846,32.913790255140846 0 0,0 -0.5658224283734135,-0.029246556492823067 l 0.7173683571106748 -11.892173093413387" fill="#ff770b" stroke="none" /><path d="M 98.01472825383883 120.90594882070398 l -1.453041723959093 15.301288588917473 a36.370125657680944,36.370125657680944 0 0,0 -0.6227386497076488,-0.06454940726690996 l 1.716212970272335 -15.274009813194802" fill="#ffa80f" stroke="none" /><path d="M 96.93821686468263 120.77559828337769 l -2.177543263668863 14.77562651933879 a35.93522124724429,35.93522124724429 0 0,0 -0.6111796315623274,-0.09545368890607313 l 2.4315587588397074 -14.735954523085612" fill="#ffa20e" stroke="none" /><path d="M 96.22490169976321 120.6578951692458 l -2.3582876877059644 12.904898351520298 a34.11860976937179,34.11860976937179 0 0,0 -0.5768195911389302,-0.11054884748397058 l 2.58007489341659 -12.86239230568786" fill="#ff880c" stroke="none" /><path d="M 95.86986931433489 120.58985236759428 l -3.6608534002022544 18.250374331056207 a39.61391981398458,39.61391981398458 0 0,0 -0.667416336973302,-0.13986358258025355 l 3.974461198604943 -18.184654767749414" fill="#ffd313" stroke="none" /><path d="M 95.16358092515715 120.4354850818985 l -4.801245867820536 20.286866540729093 a41.84727598331776,41.84727598331776 0 0,0 -0.6995404179232396,-0.17193001499172245 l 5.149739570486987 -20.20121526742334" fill="#fff016" stroke="none" /><path d="M 94.81253420990036 120.34920634021253 l -5.884253267294024 23.082539478672093 a44.82074863009381,44.82074863009381 0 0,0 -0.7459657145981732,-0.19701632520225243 l 6.280709424703687 -22.977831804166257" fill="#e8ff1a" stroke="none" /><path d="M 93.76903079525671 120.05430185196036 l -5.786994223082935 18.62537354171329 a40.50368790014721,40.50368790014721 0 0,0 -0.664026437577097,-0.21260029604842448 l 6.106742005750973 -18.523000399005163" fill="#ffdf14" stroke="none" /><path d="M 93.42475214034765 119.94407469862007 l -4.661176212616812 14.138303004257521 a35.886845721147985,35.886845721147985 0 0,0 -0.5850073085600555,-0.19846624150961908 l 4.903853254114093 -14.055973775849779" fill="#ffa10e" stroke="none" /><path d="M 93.08242187328487 119.8279376855182 l -7.848232870336101 22.495484610934874 a44.82523005277875,44.82523005277875 0 0,0 -0.7263404274872921,-0.26043983534233894 l 8.23429285845312 -22.357057234552574" fill="#e8ff1a" stroke="none" /><path d="M 92.06813273071674 119.44442032107085 l -8.423062110253131 20.648550272204385 a43.30046196061718,43.30046196061718 0 0,0 -0.6877114228957286,-0.2874634305454634 l 8.77724499264632 -20.50050179863895" fill="#fbff18" stroke="none" /><path d="M 91.40352486487194 119.15986991738527 l -6.093672097726258 13.581609075391828 a35.88599827728638,35.88599827728638 0 0,0 -0.56141423513923,-0.2577177397230438 l 6.326554328632907 -13.47470426533471" fill="#ffa10e" stroke="none" /><path d="M 91.07499286063937 119.00905698771935 l -9.509935188638616 20.25487454829076 a43.37630019147723,43.37630019147723 0 0,0 -0.6731327019724335,-0.32314460315370597 l 9.857180558611292 -20.088175668637493" fill="#faff18" stroke="none" /><path d="M 90.42595943632237 118.69057910512821 l -10.181771089881469 19.87699934212905 a43.33301514291666,43.33301514291666 0 0,0 -0.6609504272015873,-0.3457780250655205 l 10.522412419609552 -19.698791898118813" fill="#fbff18" stroke="none" /><line stroke="#e1ed5e" stroke-width="0.3" x1="58.666819895761336" x2="56.23545636021788" y1="174.27360380694188" y2="178.64263932499728" /><path d="M 58.180547188652646 175.14741091055294 a86.0,86.0 0 0,1 -31.652253787137756,-30.449443065178592" fill="none" id="id104" stroke="none" /><text fill="#e1ed5e" style="font-size:6.75px; font-family:Arial;" text-anchor="middle"><textPath startOffset="22.20632615414155" xlink:href="#id104">August</textPath></text><path d="M 89.7882731507175 118.34994917583269 l -10.134848840631856 18.21180333896304 a41.84190350902533,41.84190350902533 0 0,0 -0.6263359029726656,-0.3556498720708311 l 10.446833510525728 -18.034650301097578" fill="#fff016" stroke="none" /><path d="M 89.4739219176387 118.17145234162733 l -7.461775483198531 12.881464161288884 a35.886578260306585,35.886578260306585 0 0,0 -0.5318598168315142,-0.3142321545712984 l 7.682403171058428 -12.751113434423837" fill="#ffa10e" stroke="none" /><path d="M 89.1626897886671 117.98757091392108 l -6.41463744162043 10.646898872340156 a33.429964967982684,33.429964967982684 0 0,0 -0.49033926455585325,-0.30120642502217204 l 6.596955906108592 -10.534903980489606" fill="#ff7f0b" stroke="none" /><path d="M 88.54995079064634 117.60387380957326 l -8.11611535493218 12.478118470918863 a35.88538776884406,35.88538776884406 0 0,0 -0.5149131085847727,-0.3412563310163598 l 8.329703162256914 -12.336564118811184" fill="#ffa10e" stroke="none" /><path d="M 87.65650970185807 116.9893568818739 l -8.752053208941772 12.046167803789178 a35.88988227385277,35.88988227385277 0 0,0 -0.49667329517571274,-0.3674270299894926 l 8.95811147453605 -11.893730825059919" fill="#ffa10e" stroke="none" /><path d="M 87.07902340077011 116.55440617244103 l -9.210870309450419 11.80100336327581 a35.97009726880765,35.97009726880765 0 0,0 -0.48481269134113464,-0.3851645231281674 l 9.412640493508912 -11.640704926142512" fill="#ffa20f" stroke="none" /><path d="M 86.79598089348748 116.32954008644616 l -14.040504216714776 17.364029436134082 a43.330366699150204,43.330366699150204 0 0,0 -0.5759428422307282,-0.473961749166813 l 14.337317187490193 -17.11977256811009" fill="#fbff18" stroke="none" /><path d="M 85.97065885151581 115.62618273729859 l -13.924527631051562 15.509439181103984 a41.84310853640315,41.84310853640315 0 0,0 -0.5318068819082524,-0.48579297760371803 l 14.18943406242667 -15.26745343691369" fill="#fff016" stroke="none" /><path d="M 85.18274418774928 114.88116024355367 l -25.38675443446293 25.496243406329114 a56.979796116021895,56.979796116021895 0 0,0 -0.6890739717184797,-0.6980282953281064 l 25.821869031236943 -25.055474617020344" fill="#5bff2a" stroke="none" /><path d="M 84.9287848128048 114.62390073753433 l -8.558339177299919 8.304327225937328 a32.92505849667626,32.92505849667626 0 0,0 -0.3911707804945389,-0.4101409994683522 l 8.700016509173414 -8.155779109886476" fill="#ff780b" stroke="none" /><path d="M 84.43433777217949 114.09645910891817 l -20.786868061946453 18.824848653980712 a49.044051252806696,49.044051252806696 0 0,0 -0.5613001760002579,-0.6306266980386066 l 21.107827087595048 -18.46424778620124" fill="#b5ff20" stroke="none" /><path d="M 83.50135304334701 112.99209946851258 l -11.69760231686371 9.211447050360267 a35.88907843773704,35.88907843773704 0 0,0 -0.378019975559688,-0.4886417760164089 l 11.854429109641465 -9.008727280230605" fill="#ffa10e" stroke="none" /><path d="M 83.28015986056508 112.70617746262583 l -18.970862462883595 14.41683311935138 a44.82726798810289,44.82726798810289 0 0,0 -0.4615900784413015,-0.6183753420446716 l 19.21621380801998 -14.088144897797402" fill="#e8ff1a" stroke="none" /><path d="M 83.06392112726016 112.41649034213515 l -12.009604779595168 8.804702840556624 a35.89138674108563,35.89138674108563 0 0,0 -0.3609993409228322,-0.5013965106471959 l 12.159383912893608 -8.59667272445829" fill="#ffa10e" stroke="none" /><path d="M 82.85270091963577 112.12312394758628 l -29.146780716788907 20.60674591646792 a56.695557194396685,56.695557194396685 0 0,0 -0.556531939428109,-0.8017257668596227 l 29.49717356337915 -20.101978887421282" fill="#5eff29" stroke="none" /><path d="M 82.05923443525364 110.91462005526583 l -13.359094734116535 8.12726986365065 a36.63706902049435,36.63706902049435 0 0,0 -0.32313742099806675,-0.5415969044224901 l 13.497013030812834 -7.896110865342049" fill="#ffab0f" stroke="none" /><line stroke="#e1ed5e" stroke-width="0.3" x1="26.63291911575756" x2="22.317208475507996" y1="142.92168965132927" y2="145.44649492493687" /><path d="M 25.769776987707644 143.4266507060508 a86.0,86.0 0 0,1 -11.730757126820373,-40.83630448921669" fill="none" id="id105" stroke="none" /><text fill="#e1ed5e" style="font-size:6.75px; font-family:Arial;" text-anchor="middle"><textPath startOffset="21.46611528233685" xlink:href="#id105">September</textPath></text><path d="M 81.69416730710424 110.29060199501025 l -10.716479047853015 6.024255903536119 a33.29368058696672,33.29368058696672 0 0,0 -0.2765334909787179,-0.5019886107085597 l 10.81858894828325 -5.838896774429737" fill="#ff7d0b" stroke="none" /><path d="M 81.18737489456691 109.33194174019688 l -13.347516459639234 6.620992300627936 a35.89945417407345,35.89945417407345 0 0,0 -0.2698386633660299,-0.5559475701060401 l 13.459508379619983 -6.390255774556611" fill="#ffa10e" stroke="none" /><path d="M 81.02952815118164 109.00673069616217 l -14.119503899834532 6.703606014794107 a36.63005834854836,36.63005834854836 0 0,0 -0.26552498415653714,-0.5719171936616512 l 14.232803500830896 -6.459568753853628" fill="#ffab0f" stroke="none" /><path d="M 80.20201598880116 107.00284435728193 l -14.040633739268419 4.966383077089082 a35.89309761831566,35.89309761831566 0 0,0 -0.20101701836969954,-0.584249549362897 l 14.124041588581347 -4.7239608246368885" fill="#ffa10e" stroke="none" /><path d="M 80.0844068197444 106.66101706037122 l -19.77146139803306 6.612810398805258 a41.84802022218077,41.84802022218077 0 0,0 -0.22260705421172822,-0.685114066006518 l 19.88236070326104 -6.2714974328209365" fill="#fff016" stroke="none" /><path d="M 79.97269907076064 106.31721596034903 l -14.208091145987028 4.48166133173153 a35.898159024020806,35.898159024020806 0 0,0 -0.1808125781456601,-0.590905967125776 l 14.283130496638819 -4.236428392053707" fill="#ffa10e" stroke="none" /><path d="M 79.86692584326677 105.97154293290107 l -20.18215804676974 5.986101392994406 a42.051197431785255,42.051197431785255 0 0,0 -0.19985805387849137,-0.6957321044644819 l 20.282208737534337 -5.637811813025328" fill="#fff316" stroke="none" /><path d="M 79.50377843672027 104.57218783832718 l -17.444019019600443 3.891318766569902 a38.87277710092198,38.87277710092198 0 0,0 -0.1400640974662766,-0.6543328336234152 l 17.50841715579116 -3.5904721135303226" fill="#ffc912" stroke="none" /><path d="M 79.4281124754447 104.21870165774334 l -14.588767510916433 2.991736057727926 a35.892367915367934,35.892367915367934 0 0,0 -0.11890640197781839,-0.60630118195254 l 14.638103845869919 -2.740171148707431" fill="#ffa10e" stroke="none" /><path d="M 79.29508885075956 103.50808413554451 l -19.08819589416973 3.2341600845246425 a40.36024312725774,40.36024312725774 0 0,0 -0.1101608728383898,-0.6859718603214291 l 19.14103852136941 -2.90510899451" fill="#ffdd14" stroke="none" /><path d="M 79.23777060512086 103.15116336523772 l -14.726886248433612 2.235156136052187 a35.89553965208494,35.89553965208494 0 0,0 -0.08745854050334406,-0.6116848285812225 l 14.763178839953556 -1.981325835490564" fill="#ffa10e" stroke="none" /><path d="M 79.1416061653843 102.43462659150553 l -31.234958840648623 3.6457966026042787 a52.44701077438958,52.44701077438958 0 0,0 -0.0969462976862542,-0.8976023132601942 l 31.29308743983593 -3.1075979674593026" fill="#8dff24" stroke="none" /><path d="M 79.07016306316243 101.71520430193888 l -14.835238438954093 1.2157507422333425 a35.88497058807514,35.88497058807514 0 0,0 -0.04515259119838357,-0.6160712330011774 l 14.853967588816811 -0.9602063727354044" fill="#ffa10e" stroke="none" /><path d="M 79.0235259727143 100.99374915477108 l -21.546184174156974 1.0207388660152754 a42.57034910007918,42.57034910007918 0 0,0 -0.02837590910385282,-0.7322561284526583 l 21.560562216112025 -0.6497054905486203" fill="#fff917" stroke="none" /><line stroke="#e1ed5e" stroke-width="0.3" x1="15.007084014347285" x2="10.007500721073583" y1="101.09737516637583" y2="101.16192664675087" /><path d="M 14.007167355692545 101.11028546245083 a86.0,86.0 0 0,1 10.666146001902534,-42.60595125391555" fill="none" id="id106" stroke="none" /><text fill="#e1ed5e" style="font-size:6.75px; font-family:Arial;" text-anchor="middle"><textPath startOffset="22.20632615414155" xlink:href="#id106">October</textPath></text><path d="M 79.01574976396665 99.18683210126434 l -14.887967463117354 -0.5769287480969534 a35.89914165189464,35.89914165189464 0 0,0 0.0292430848180205,-0.6172753015364989 l 14.875830770065834 0.8331151562564614" fill="#ffa10e" stroke="none" /><path d="M 79.03285615573316 98.82574320788736 l -31.405550772933577 -1.7588557401555458 a52.45476423160706,52.45476423160706 0 0,0 0.05824829051828207,-0.9010752730141703 l 31.37062189141088 2.299190077422728" fill="#8dff24" stroke="none" /><path d="M 79.08570108090925 98.10471618934814 l -14.8345569110131 -1.3443288565591098 a35.89534487082001,35.89534487082001 0 0,0 0.06106118540063623,-0.6148778039922466 l 14.809218599930235 1.5994821912557868" fill="#ffa10e" stroke="none" /><path d="M 79.21141760316559 97.0276538004421 l -17.692488846113395 -2.5296675347364537 a38.87241951740577,38.87241951740577 0 0,0 0.10040950793210984,-0.6615732018565612 l 17.646323444741984 2.833839848985107" fill="#ffc912" stroke="none" /><path d="M 79.32604984820605 96.31383870115002 l -14.845753947523914 -2.6469950469946095 a36.07988703701841,36.07988703701841 0 0,0 0.11427750322291653,-0.6104749917584087 l 14.797990720391136 2.902148116215591" fill="#ffa40f" stroke="none" /><path d="M 79.46518482838121 95.60439243477599 l -14.560309644233657 -3.1167267243122794 a35.8901511882857,35.8901511882857 0 0,0 0.13451220713636072,-0.6029918493990317 l 14.50450305009526 3.3668967432612704" fill="#ffa10e" stroke="none" /><path d="M 79.62865764111835 94.90015583598534 l -20.2209525085755 -5.062194961183574 a41.844969133560696,41.844969133560696 0 0,0 0.18093698524290847,-0.6972240129823977 l 20.130819191462283 5.409515399714836" fill="#fff016" stroke="none" /><path d="M 79.91906864156998 93.8553929516997 l -14.237384449305724 -4.356527656763266 a35.88900430456905,35.88900430456905 0 0,0 0.18584440053053386,-0.5891775362438988 l 14.160284565006986 4.600955359433579" fill="#ffa10e" stroke="none" /><path d="M 80.14247586403 93.16781622104843 l -7.043829548769074 -2.4235014221952516 a28.44908677996805,28.44908677996805 0 0,0 0.1633071316714059,-0.4616912524099253 l 7.001069336287859 2.544390301031788" fill="#ff3705" stroke="none" /><path d="M 81.6062741919709 89.86733742301443 l -9.524576174514385 -5.246860672622546 a31.874148160754487,31.874148160754487 0 0,0 0.26886960890431344,-0.47828903296359976 l 9.432848924317641 5.41003321552093" fill="#ff6909" stroke="none" /><line stroke="#e1ed5e" stroke-width="0.3" x1="26.266209847984243" x2="21.928928074336255" y1="57.711370442889674" y2="55.22380399835377" /><path d="M 25.398753493254645 57.213857153982495 a86.0,86.0 0 0,1 29.58750427330803,-30.492523968695096" fill="none" id="id107" stroke="none" /><text fill="#e1ed5e" style="font-size:6.75px; font-family:Arial;" text-anchor="middle"><textPath startOffset="21.46611528233685" xlink:href="#id107">November</textPath></text><path d="M 82.95767976084542 87.72973835380427 l -12.088287460087512 -8.703418777973784 a35.89550912666283,35.89550912666283 0 0,0 0.36534344491552107,-0.49832804828355365 l 11.936681402658358 8.910209269928838" fill="#ffa10e" stroke="none" /><path d="M 83.39014120810768 87.1503855733568 l -9.428246983290672 -7.293821095793003 a32.92022094406663,32.92022094406663 0 0,0 0.3505939561945425,-0.44521872099338583 l 9.30129894650216 7.455032210739437" fill="#ff780b" stroke="none" /><path d="M 83.6137871275137 86.86637796730984 l -11.618641529372269 -9.312392531913883 a35.89004652969558,35.89004652969558 0 0,0 0.390520464356375,-0.47873191364144024 l 11.456622572939501 9.511008615163405" fill="#ffa10e" stroke="none" /><path d="M 84.07557802195018 86.31012108654704 l -11.29295806955429 -9.708310214336128 a35.89235337945264,35.89235337945264 0 0,0 0.4067939114118578,-0.46503576218170417 l 11.12417229456459 9.901261532720776" fill="#ffa10e" stroke="none" /><path d="M 84.5562425177563 85.77008943001954 l -16.937099221038324 -15.605878783538511 a44.03060534657729,44.03060534657729 0 0,0 0.5183716416712507,-0.5529627249173938 l 16.66596025739662 15.895110925333954" fill="#f2ff19" stroke="none" /><path d="M 85.83668400450813 84.49514656593479 l -8.036685655150034 -8.79791379493459 a32.9160229717299,32.9160229717299 0 0,0 0.4216213576873307,-0.3785358178593315 l 7.884053309866732 8.934948621563201" fill="#ff780b" stroke="none" /><path d="M 86.65592168130627 83.78471172551755 l -9.467291487683958 -11.504343498665628 a35.898977396051826,35.898977396051826 0 0,0 0.48052764481142796,-0.3885532703131069 l 9.26786044430803 11.66560286624287" fill="#ffa10e" stroke="none" /><path d="M 86.93701828274178 83.55741782278169 l -12.966064235479198 -16.320590606453468 a41.84419582286709,41.84419582286709 0 0,0 0.5678206459548129,-0.44319302078957307 l 12.68321103436496 16.541362016466262" fill="#fff016" stroke="none" /><path d="M 87.80319425747018 82.90503203632743 l -10.383107352405268 -14.552899447583139 a38.877242534100105,38.877242534100105 0 0,0 0.5481114711047939,-0.3839871130054625 l 10.131064741716814 14.729471403352543" fill="#ffc912" stroke="none" /><path d="M 88.70189139769569 82.29822771554957 l -8.01378899518263 -12.55593063598494 a35.89537539624213,35.89537539624213 0 0,0 0.5236978828484392,-0.32793956619555803 l 7.7964719599619485 12.692014543503428" fill="#ffa10e" stroke="none" /><path d="M 89.00827224532344 82.1063720568725 l -11.918587846474955 -19.402479873245333 a43.77079185021528,43.77079185021528 0 0,0 0.6453855975484771,-0.3888376012542237 l 11.582840182708827 19.604764083958177" fill="#f5ff19" stroke="none" /><line stroke="#e1ed5e" stroke-width="0.3" x1="56.762969772571076" x2="54.21961505331055" y1="26.818313649435495" y2="22.513508569990535" /><path d="M 56.25429882871897 25.957352633546506 a86.0,86.0 0 0,1 42.265352541879196,-11.944610805530505" fill="none" id="id108" stroke="none" /><text fill="#e1ed5e" style="font-size:6.75px; font-family:Arial;" text-anchor="middle"><textPath startOffset="22.20632615414155" xlink:href="#id108">December</textPath></text><path d="M 89.63071344664047 81.73862282372117 l -7.362909755776482 -12.966839278019082 a35.91145066496506,35.91145066496506 0 0,0 0.5401696281685777,-0.300603813246568 l 7.13861603853586 13.091658488825834" fill="#ffa10e" stroke="none" /><path d="M 89.94658935756843 81.56283822128135 l -10.690188076191331 -19.604961342551682 a43.3301283101394,43.3301283101394 0 0,0 0.657906002202479,-0.35143060164883533 l 10.351137027460547 19.786070670702266" fill="#fbff18" stroke="none" /><path d="M 90.91171255644093 81.06846463323043 l -5.157575996239145 -10.743589811169747 a32.91743731628795,32.91743731628795 0 0,0 0.5129191770508933,-0.24082243112068388 l 4.971878607888643 10.830777224930438" fill="#ff780b" stroke="none" /><path d="M 92.91201910852362 80.23233633223022 l -5.025505503776901 -14.015627874879232 a35.88937642400056,35.88937642400056 0 0,0 0.5833185731646784,-0.20350839641673307 l 4.783504926548938 14.100057124468176" fill="#ffa10e" stroke="none" /><path d="M 94.28887869178378 79.79150937346287 l -4.053829165478576 -14.344252953321257 a35.9060767370811,35.9060767370811 0 0,0 0.5962154641864369,-0.16296820853179353 l 3.806315812068416 14.411907702679347" fill="#ffa10e" stroke="none" /><path d="M 94.63758080256005 79.69619591428918 l -5.321885418593082 -20.150330462284806 a41.84126392875242,41.84126392875242 0 0,0 0.6979344209727111,-0.1779190240640672 l 4.974242108935371 20.23895248251774" fill="#fff016" stroke="none" /><path d="M 95.692805502759 79.44645832069477 l -3.0536431719272983 -14.571708393511553 a35.88823099387544,35.88823099387544 0 0,0 0.6057140270967653,-0.12150053557389419 l 2.8023627353633964 14.622112885162657" fill="#ffa10e" stroke="none" /><path d="M 96.40284397218896 79.31037775812273 l -3.317253457198941 -19.079717526674077 a40.3659441132358,40.3659441132358 0 0,0 0.685588253896247,-0.11312793623971862 l 2.9883359971638086 19.133991725853424" fill="#ffdd14" stroke="none" /><path d="M 97.11714578562143 79.19881850522333 l -2.8963253173427557 -20.89838199013828 a42.09812954149293,42.09812954149293 0 0,0 0.7186456856187365,-0.093300835262594 l 2.5361649032161613 20.94514114856501" fill="#fff316" stroke="none" /><path d="M 98.91598698831166 79.02799685794201 l -1.0910346350592506 -21.10784792049638 a42.13602612625425,42.13602612625425 0 0,0 0.7246577201037941,-0.031205285785679934 l 0.7275360825661323 21.12350093280625" fill="#fff417" stroke="none" /><path d="M 99.27714615592234 79.0124445844662 l -0.4661141079504214 -13.53329687698327 a34.541321454060366,34.541321454060366 0 0,0 0.594395883746148,-0.015351492038491317 l 0.23309158900939436 13.539315161164122" fill="#ff8e0d" stroke="none" /></svg>