<?xml version="1.0" encoding="utf-8" ?>
<svg baseProfile="full" height="200mm" version="1.1" viewBox="0,0,200,200" width="200mm" xmlns="http://www.w3.org/2000/svg" xmlns:ev="http://www.w3.org/2001/xml-events" xmlns:xlink="http://www.w3.org/1999/xlink"><defs /><rect fill="#1a1a1a" height="200" width="200" x="0" y="0" /><text alignment-baseline="middle" fill="#e1ed5e" style="dominant-baseline: central; font-size:9.0px; font-family:Arial;" text-anchor="middle" x="100.0" y="100.0">2025</text><line stroke="#e1ed5e" stroke-width="0.3" x1="100.0" x2="100.0" y1="15.0" y2="10.0" /><path d="M 100.0 14.0 a86.0,86.0 0 0,1 42.46469731375804,11.215312516191453" fill="none" id="id145" stroke="none" /><text fill="#e1ed5e" style="font-size:6.75px; font-family:Arial;" text-anchor="middle"><textPath startOffset="22.20632615414155" xlink:href="#id145">January</textPath></text><path d="M 100.0 79.0 l 0.0 -7.364708334424289 a28.36470833442429,28.36470833442429 0 0,0 0.4882518268168177,0.004202537620015359 l -0.12677134754428934 7.363617173412833" fill="#ff0000" stroke="none" /><path d="M 101.44485096284872 79.0497635885617 l 1.3343306473984247 -19.34769968170862 a40.39365672714082,40.39365672714082 0 0,0 0.6932509605710199,0.05380961696147289 l -1.6671717973317857 19.321864802558682" fill="#ffb811" stroke="none" /><path d="M 102.16513564639614 79.11191278185805 l 1.8822918512841265 -18.159359403215515 a39.256652391623234,39.256652391623234 0 0,0 0.6715379356102686,0.07545511160590142 l -2.19459649040412 18.12426833813901" fill="#ffa80f" stroke="none" /><path d="M 102.88285421437855 79.19881850522331 l 2.4263291144801764 -17.507133043577287 a38.67446690503818,38.67446690503818 0 0,0 0.6586280490774769,0.0970646537156939 l -2.7273261439863092 17.462773905700626" fill="#ff9f0e" stroke="none" /><path d="M 103.59715602781102 79.31037775812273 l 2.6481899164269764 -15.231490814415402 a36.45998778340676,36.45998778340676 0 0,0 0.6173975971575274,0.11282546457441152 l -2.9099826346874047 15.183649868490251" fill="#ff7f0b" stroke="none" /><path d="M 103.95276090670814 79.375362276772 l 3.5161147824579935 -18.346314207472897 a39.680211673392286,39.680211673392286 0 0,0 0.6697142807859483,0.13433838438081758 l -3.831395472711067 18.28307186701487" fill="#ffae10" stroke="none" /><path d="M 104.66035177308747 79.52364482259891 l 4.344741126249153 -19.08964532864018 a40.57782761767491,40.57782761767491 0 0,0 0.6797294566864747,0.16087000121974257 l -4.672694269898152 19.012029415279567" fill="#ffbb11" stroke="none" /><path d="M 105.36241919743992 79.69619591428918 l 4.9777677587406775 -18.847392871838387 a40.49364998981419,40.49364998981419 0 0,0 0.6723914868802127,0.18378999309992905 l -5.301457134844601 18.758916337912165" fill="#ffba11" stroke="none" /><path d="M 106.0581310904928 79.89281104454417 l 9.1282416070009 -30.297013399241383 a52.6422789278774,52.6422789278774 0 0,0 0.865375461892648,0.2688763684419457 l -9.648402441604267 30.135396895916916" fill="#a2ff22" stroke="none" /><path d="M 106.74666289553966 80.11325718540242 l 4.847699553579238 -14.289279864302241 a36.08919182733541,36.08919182733541 0 0,0 0.5865662204515336,0.20464143678588778 l -5.092947778094046 14.203717574344145" fill="#ff790b" stroke="none" /><path d="M 107.08798089147638 80.2323363322302 l 6.025702077368317 -16.8050752183656 a38.852720762397155,38.852720762397155 0 0,0 0.6275966464013283,0.23114914137558387 l -6.314081049542222 16.69886280918369" fill="#ffa20f" stroke="none" /><path d="M 107.76421540070413 80.48803036053334 l 6.641046087474692 -16.689373355272117 a38.96214564375954,38.96214564375954 0 0,0 0.6210123153529933,0.25332651612310686 l -6.927342272416073 16.572585952965433" fill="#ffa40f" stroke="none" /><path d="M 108.43124777332544 80.76684994638697 l 15.361696243832451 -35.042714539881324 a59.261907346751364,59.261907346751364 0 0,0 0.9307446065106423,0.4175979743872483 l -15.962622968809873 34.773096234977544" fill="#54ff2b" stroke="none" /><path d="M 109.41281617654863 81.2277094730956 l 5.281709482183655 -10.533487855131192 a32.78349784437478,32.78349784437478 0 0,0 0.5022736481706773,0.2572840710073566 l -5.462243617943088 10.441011258811335" fill="#ff4706" stroke="none" /><path d="M 109.73455568895987 81.39251694778311 l 9.996186968835422 -19.1075880145559 a42.564407565475,42.564407565475 0 0,0 0.646279628278073,0.3452201953452416 l -10.323611643641806 18.932689092708905" fill="#ffd714" stroke="none" /><path d="M 110.05341064243156 81.56283822128135 l 8.662207387616146 -15.885804792677154 a39.09399432787344,39.09399432787344 0 0,0 0.5880405271490341,0.3272439167004673 l -8.934372003837215 15.734345478416508" fill="#ffa60f" stroke="none" /><line stroke="#e1ed5e" stroke-width="0.3" x1="143.23703022742887" x2="145.7803849466894" y1="26.81831364943548" y2="22.513508569990506" /><path d="M 143.74570117128098 25.957352633546492 a86.0,86.0 0 0,1 28.547481713284135,27.462654790039103" fill="none" id="id146" stroke="none" /><text fill="#e1ed5e" style="font-size:6.75px; font-family:Arial;" text-anchor="middle"><textPath startOffset="19.985693538727396" xlink:href="#id146">February</textPath></text><path d="M 110.68208982089419 81.91981866633111 l 8.372115345862376 -14.170388579162188 a37.458803961675784,37.458803961675784 0 0,0 0.5523174600310411,0.3327650897464618 l -8.614794872111055 14.02417687995711" fill="#ff8e0d" stroke="none" /><path d="M 111.2981086023043 82.29822771554956 l 23.74869772945227 -37.209240418636824 a65.14213651803465,65.14213651803465 0 0,0 0.9400102559917378,0.611408818583406 l -24.38567501122829 36.79493267589389" fill="#33ff52" stroke="none" /><path d="M 111.90073688211348 82.69761687909136 l 6.7464188968731715 -9.808562747343704 a32.90470793848661,32.90470793848661 0 0,0 0.4639075896038345,0.3249969128984751 l -6.914257626060658 9.690980991681293" fill="#ff4806" stroke="none" /><path d="M 112.48926042617603 83.11751280151076 l 10.49977756655708 -14.193183127390258 a38.65479470950628,38.65479470950628 0 0,0 0.5315105070500022,0.4003226945416549 l -10.742534227365466 14.010343843342756" fill="#ff9f0e" stroke="none" /><path d="M 113.6212207817346 84.01681056812373 l 11.647600535228648 -13.667336339707681 a38.95724591497685,38.95724591497685 0 0,0 0.5066412117630091,0.4393542663154775 l -11.881135545638422 13.464817079972534" fill="#ffa40f" stroke="none" /><path d="M 114.16331599549186 84.49514656593476 l 14.34383031841545 -15.7024659225934 a42.267649241364246,42.267649241364246 0 0,0 0.5329590614113322,0.495327363605021 l -14.611997263621628 15.453233972913738" fill="#ffd313" stroke="none" /><path d="M 114.68862486808459 84.99185889309783 l 9.789025157065305 -10.001962210599313 a34.995151359950135,34.995151359950135 0 0,0 0.42688118791166957,0.4250480244283821 l -9.959742145144299 9.831978335520812" fill="#ff6909" stroke="none" /><path d="M 114.94478906791727 85.2469230424477 l 12.303539246753099 -12.145709152046921 a38.288589555036296,38.288589555036296 0 0,0 0.4589812515907862,0.4730205253553491 l -12.510784762046994 11.932124431141457" fill="#ff9a0e" stroke="none" /><path d="M 115.4437574822437 85.77008943001954 l 11.262555859746842 -10.377342616126308 a36.314516129032256,36.314516129032256 0 0,0 0.4196165846029153,0.4633511132585333 l -11.439516084965792 10.181938715598225" fill="#ff7d0b" stroke="none" /><path d="M 115.9244219780498 86.31012108654704 l 9.257976208139072 -7.958880607895924 a33.208763409994106,33.208763409994106 0 0,0 0.3689167639413807,0.4366810861692507 l -9.393603585567568 7.798340572097567" fill="#ff4d07" stroke="none" /><path d="M 116.15771136456269 86.58626213691792 l 9.110809537854363 -7.5635718514739 a32.8412190921149,32.8412190921149 0 0,0 0.3573460992665374,0.4380640646223836 l -9.239654129197309 7.405623617243416" fill="#ff4706" stroke="none" /><path d="M 116.82858285166822 87.43820079747576 l 50.48574855500462 -37.68539760757273 a84.0,84.0 0 0,0 0.8549495499454944,1.1661502253140252 l -51.126960717463746 36.81078493858721" fill="#4dd2ff" stroke="none" /><line stroke="#e1ed5e" stroke-width="0.3" x1="172.23445277983987" x2="176.4835382374775" y1="55.19839476539836" y2="52.563006222186495" /><path d="M 173.08426987136738 54.67131705675599 a86.0,86.0 0 0,1 12.851231095245387,41.99856678651699" fill="none" id="id147" stroke="none" /><text fill="#e1ed5e" style="font-size:6.75px; font-family:Arial;" text-anchor="middle"><textPath startOffset="22.20632615414155" xlink:href="#id147">March</textPath></text><path d="M 118.21658344932153 89.55222093294921 l 12.761158171664277 -7.318922430660502 a35.711008919454144,35.711008919454144 0 0,0 0.3012348738961462,0.5358632279707456 l -12.885250686852856 7.098175692754962" fill="#ff730a" stroke="none" /><path d="M 118.56541770881063 90.18545643968196 l 12.238092917509055 -6.469625295697543 a34.84293934554056,34.84293934554056 0 0,0 0.2757413257239557,0.532644474597467 l -12.347643676393128 6.25800809883973" fill="#ff6609" stroke="none" /><path d="M 119.04729006885535 91.15688171328212 l 19.425000445384942 -9.018478536165304 a42.41643288249655,42.41643288249655 0 0,0 0.3017579426345089,0.6648836270640803 l -19.577360704982798 8.682772900259161" fill="#ffd513" stroke="none" /><path d="M 119.61058180528143 92.48833698450437 l 14.439283186982626 -5.5308419996348395 a36.462312640054975,36.462312640054975 0 0,0 0.219460429062959,0.5880448410280719 l -14.53234820454721 5.281474021577434" fill="#ff7f0b" stroke="none" /><path d="M 119.97218684219823 93.5106431181261 l 9.794010011709736 -3.182266757906771 a31.298031551124176,31.298031551124176 0 0,0 0.162070919049258,0.5138091032586067 l -9.847336414527199 3.013207488221745" fill="#ff2f04" stroke="none" /><path d="M 120.08093135843002 93.85539295169968 l 12.239551348754194 -3.745206442031709 a33.79973392349335,33.79973392349335 0 0,0 0.165448253644222,0.5578092625556765 l -12.30220549951012 3.5339677927295026" fill="#ff5608" stroke="none" /><path d="M 120.28053869075195 94.5502522615342 l 15.638129811709094 -4.2022484646356455 a37.19289956018987,37.19289956018987 0 0,0 0.16082150992593552,0.6197108809672869 l -15.708147653505332 3.9324411581195085" fill="#ff8a0c" stroke="none" /><path d="M 120.53481517161879 95.60439243477599 l 21.60195452768881 -4.624035519772775 a43.09131376592292,43.09131376592292 0 0,0 0.14901531169662421,0.7266515815435235 l -21.678349135300433 4.251508282065839" fill="#ffde14" stroke="none" /><path d="M 120.73433829027371 96.67025291283417 l 17.44055972361573 -2.800796057499097 a38.66401941882735,38.66401941882735 0 0,0 0.0998711994961833,0.6580264218466032 l -17.486186816551214 2.5001705232604117" fill="#ff9f0e" stroke="none" /><path d="M 120.83666639777658 97.38593545837742 l 14.60374390999675 -1.8321130837960102 a35.71821913617893,35.71821913617893 0 0,0 0.0712827597779864,0.6107071541300054 l -14.633117022778324 1.580462191341152" fill="#ff740a" stroke="none" /><path d="M 120.87857604477298 97.74499172005257 l 14.63184417359875 -1.5803247161880136 a35.716938884464746,35.716938884464746 0 0,0 0.06075770089453589,0.6118217564322005 l -14.656879000175515 1.3282274290513782" fill="#ff740a" stroke="none" /><path d="M 120.94382443527127 98.46500227214037 l 13.952049198200228 -1.0225622299505197 a34.98947141042581,34.98947141042581 0 0,0 0.03885399020757285,0.6010540313280323 l -13.967583779412216 0.7822491343694522" fill="#ff6909" stroke="none" /><path d="M 120.96714384426684 98.82574320788733 l 13.22344938557937 -0.7405741750763297 a34.24417093523673,34.24417093523673 0 0,0 0.027894962082727286,0.5888185613151175 l -13.234237955895592 0.5128445071382125" fill="#ff5d08" stroke="none" /><line stroke="#e1ed5e" stroke-width="0.3" x1="184.98032266829074" x2="189.97916517819016" y1="98.17113171792111" y2="98.06355123074" /><path d="M 185.9800911702706 98.14961562048488 a86.0,86.0 0 0,1 -9.607161424134198,41.387399972396054" fill="none" id="id148" stroke="none" /><text fill="#e1ed5e" style="font-size:6.75px; font-family:Arial;" text-anchor="middle"><textPath startOffset="21.466115282336823" xlink:href="#id148">April</textPath></text><path d="M 120.99513854157772 99.54816195383933 l 17.807120787612483 -0.3832284625551799 a38.811244055346975,38.811244055346975 0 0,0 0.008625323798043283,0.6680408335987781 l -17.81107911852824 0.07665137089593914" fill="#ffa10e" stroke="none" /><path d="M 120.99824983174949 100.27111621757518 l 19.11976034146454 0.24686234073109004 a40.1213539408252,40.1213539408252 0 0,0 -0.014860065521160358,0.690488853262078 l -19.112678213258373 -0.5759410097832829" fill="#ffb410" stroke="none" /><path d="M 120.95626037817324 101.35467743843564 l 25.35387385839658 1.638952765097635 a46.40679211930752,46.40679211930752 0 0,0 -0.0583917690067047,0.7967092956200161 l -25.321905530725537 -2.0751351972144216" fill="#f2ff19" stroke="none" /><path d="M 120.89721153311464 102.0752229133903 l 17.938562070607404 1.7814106433869341 a39.02679763689066,39.02679763689066 0 0,0 -0.07213954590706108,0.6679226007503064 l -17.90524022319929 -2.089929566022032" fill="#ffa50f" stroke="none" /><path d="M 120.8583938346157 102.4346265915055 l 13.303637183282554 1.5528227679932431 a34.39395463831412,34.39395463831412 0 0,0 -0.07369885951221443,0.5874524232670466 l -13.27493681452349 -1.7815929455476847" fill="#ff5f08" stroke="none" /><path d="M 120.76222939487914 103.15116336523771 l 16.44868623307941 2.4964803383182788 a37.637057819034766,37.637057819034766 0 0,0 -0.10272810119951546,0.639687984231013 l -16.403276377518605 -2.779247552242497" fill="#ff900d" stroke="none" /><path d="M 120.49622156327973 104.57218783832717 l 17.23057592449565 3.843705018806674 a38.65408776916578,38.65408776916578 0 0,0 -0.15045539327249288,0.6481578964344171 l -17.161859965292603 -4.139731572589656" fill="#ff9f0e" stroke="none" /><path d="M 120.32669344350535 105.2749913415812 l 12.825401243955078 3.3283268969545166 a34.25023309234352,34.25023309234352 0 0,0 -0.15300382153025074,0.5693841387327621 l -12.76620934608305 -3.548601968862827" fill="#ff5d08" stroke="none" /><path d="M 120.23288151984713 105.62410040840565 l 17.015729297213763 4.729833958445634 a38.66087123531918,38.66087123531918 0 0,0 -0.18374474350872647,0.6396395571995993 l -16.931791916818938 -5.0220309911498155" fill="#ff9f0e" stroke="none" /><path d="M 120.02730092923936 106.31721596034902 l 24.137982762647294 7.613849239974265 a46.31033212146602,46.31033212146602 0 0,0 -0.2463439502847124,0.7581687202739839 l -24.003346561346333 -8.028216860226044" fill="#f4ff19" stroke="none" /><path d="M 119.79798401119884 107.00284435728193 l 14.228181835142994 5.032721656015665 a36.09203252053288,36.09203252053288 0 0,0 -0.21221382796648508,0.583921312351305 l -14.139443746171281 -5.276890765373102" fill="#ff790b" stroke="none" /><path d="M 119.54520255179757 107.68017299344265 l 9.723415843747029 3.8207593689168604 a31.447153575285313,31.447153575285313 0 0,0 -0.2023061065270162,0.5021071653970139 l -9.65620712296262 -3.9875659021566876" fill="#ff3204" stroke="none" /><path d="M 119.12269723197855 108.67885076344098 l 14.216206466063612 6.452036176931364 a36.61183195893999,36.61183195893999 0 0,0 -0.2653928641973975,0.5716326190236192 l -14.103038985026384 -6.6957888632338145" fill="#ff810b" stroke="none" /><path d="M 118.81262510543309 109.33194174019688 l 14.780782355928899 7.331959205428659 a37.499368255888136,37.499368255888136 0 0,0 -0.2918188877405617,0.5757863503771815 l -14.65238479840207 -7.585299767508536" fill="#ff8e0d" stroke="none" /><path d="M 118.64920377521936 109.65438752849418 l 11.766156249301403 6.091146491868564 a34.24932067950569,34.24932067950569 0 0,0 -0.2755398487525613,0.5212175539366655 l -11.65956389232395 -6.292779060891363" fill="#ff5d08" stroke="none" /><line stroke="#e1ed5e" stroke-width="0.3" x1="174.80103733775053" x2="179.2010983576182" y1="140.37084112569926" y2="142.7455964860345" /><path d="M 175.68104954172406 140.8457921977663 a86.0,86.0 0 0,1 -30.038265399797805,32.042727171017184" fill="none" id="id149" stroke="none" /><text fill="#e1ed5e" style="font-size:6.75px; font-family:Arial;" text-anchor="middle"><textPath startOffset="22.206326154141568" xlink:href="#id149">May</textPath></text><path d="M 118.48025628344425 109.97397251340804 l 17.012247256635575 9.181673886254174 a40.331831058501066,40.331831058501066 0 0,0 -0.3349915612675657,0.6081069885771666 l -16.8516792859165 -9.473151393229147" fill="#ffb711" stroke="none" /><path d="M 118.12598468904814 110.60418214915192 l 11.555311704631052 6.760164052227812 a34.38749590491876,34.38749590491876 0 0,0 -0.3032962799257071,0.5083420107249118 l -11.437234549007117 -6.958068156838827" fill="#ff5f08" stroke="none" /><path d="M 117.94076556474637 110.91462005526583 l 19.293067430526357 11.737319678185976 a43.582894502405324,43.582894502405324 0 0,0 -0.39543250039661704,0.6375630990885318 l -19.088170290461775 -12.067679108639782" fill="#ffe515" stroke="none" /><path d="M 117.55443506779139 111.5257021239791 l 12.552336700787423 8.241478191378144 a36.016095345624855,36.016095345624855 0 0,0 -0.3447201580810466,0.51530986408592 l -12.408613437295655 -8.456324969669872" fill="#ff780b" stroke="none" /><path d="M 117.35343817320211 111.8261652097733 l 14.22267775047403 9.69258858813429 a38.21135775970798,38.21135775970798 0 0,0 -0.3750883154613938,0.5403426938306246 l -14.0537285278505 -9.935972544151934" fill="#ff990e" stroke="none" /><path d="M 117.14729908036423 112.12312394758627 l 10.81390139792289 7.645417881240507 a34.24359762386304,34.24359762386304 0 0,0 -0.3444257047580317,0.47837717958547193 l -10.680695900789255 -7.83042866627711" fill="#ff5d08" stroke="none" /><path d="M 116.0416608686014 113.55231037782055 l 10.114385513816952 8.54483166593274 a34.2406549128522,34.2406549128522 0 0,0 -0.3842412765436064,0.4469594119676249 l -9.965801727702567 -8.717668177061894" fill="#ff5d08" stroke="none" /><path d="M 115.80600337817218 113.82643327865902 l 10.195373922999657 8.918488369552424 a34.54566662175115,34.54566662175115 0 0,0 -0.3953688216922226,0.44420106244731383 l -10.040346251659097 -9.092663601740604" fill="#ff6209" stroke="none" /><path d="M 115.32070863581623 114.36230785411682 l 13.638444224761168 12.785279014398913 a39.694130638998715,39.694130638998715 0 0,0 -0.47159169253036654,0.4944620042193487 l -13.416345980851837 -13.01814813520077" fill="#ffae10" stroke="none" /><path d="M 114.81725581225074 114.88116024355365 l 18.689314073133605 18.769918066370845 a47.487738384816936,47.487738384816936 0 0,0 -0.5842123558706324,0.5717747506209899 l -18.363451764887177 -19.08884291991441" fill="#e4ff1a" stroke="none" /><path d="M 114.29624159901734 115.38237550388516 l 10.069954982662267 10.835003576127134 a35.79193347225211,35.79193347225211 0 0,0 -0.45489919853314864,0.41553963230413643 l -9.881956234662255 -11.006735975017852" fill="#ff750a" stroke="none" /><path d="M 114.0293411484842 115.62618273729858 l 9.046598133866812 10.07629610646261 a34.54151693942728,34.54151693942728 0 0,0 -0.44584487183992394,0.39340626190435635 l -8.871810909120299 -10.230525510139255" fill="#ff6209" stroke="none" /><path d="M 113.75828350139079 115.86535959552629 l 12.723114069013013 14.671654342591928 a40.419965828023834,40.419965828023834 0 0,0 -0.5295680016602559,0.45130933974731147 l -12.468680590775708 -14.888488072562188" fill="#ffb911" stroke="none" /><path d="M 112.92097659922987 116.55440617244103 l 18.108310927053545 23.2004393693557 a50.43078849711636,50.43078849711636 0 0,0 -0.6889116390115934,0.5282280680947781 l -17.706270559548457 -23.508706779277848" fill="#beff1f" stroke="none" /><path d="M 112.34349029814194 116.9893568818739 l 8.217191961193755 11.309994452428146 a34.9799219683467,34.9799219683467 0 0,0 -0.4901731004410899,0.34972549226170674 l -8.021291532903781 -11.449764206534072" fill="#ff6809" stroke="none" /><path d="M 112.04921762599082 117.19931262002967 l 7.600589826715706 10.849245534773956 a34.246701264382274,34.246701264382274 0 0,0 -0.48572115218919326,0.33408343751765646 l -7.412711789903629 -10.978469761656708" fill="#ff5d08" stroke="none" /><path d="M 111.7513745106137 117.40417183066458 l 9.88289984079731 14.636899441774428 a38.660989058709255,38.660989058709255 0 0,0 -0.5547397226250722,0.3676512391233869 l -9.629485419432273 -14.804848701989133" fill="#ff9f0e" stroke="none" /><path d="M 111.1453310114006 117.79835938074945 l 7.81400158429495 12.478445750670424 a35.72311886496162,35.72311886496162 0 0,0 -0.5239744596999387,0.32186790905292745 l -7.598047924662703 -12.61110212655173" fill="#ff740a" stroke="none" /><line stroke="#e1ed5e" stroke-width="0.3" x1="143.8653032363475" x2="146.44561519142675" y1="172.8068346515853" y2="177.08958963109032" /><path d="M 144.38136562736335 173.6633856474863 a86.0,86.0 0 0,1 -40.68145358897372,12.25698825130547" fill="none" id="id150" stroke="none" /><text fill="#e1ed5e" style="font-size:6.75px; font-family:Arial;" text-anchor="middle"><textPath startOffset="21.466115282336833" xlink:href="#id150">June</textPath></text><path d="M 110.8373102113329 117.98757091392108 l 10.325364875728384 17.13785333191371 a41.007977824935516,41.007977824935516 0 0,0 -0.607761916346456,0.35907645284740014 l -10.028835088353546 -17.31304835705486" fill="#ffc112" stroke="none" /><path d="M 110.21172684928248 118.3499491758327 l 7.155208294588719 12.857542165596112 a35.71439418661309,35.71439418661309 0 0,0 -0.5397587620362829,0.29431951336809065 l -6.932826720683788 -12.978802330723973" fill="#ff730a" stroke="none" /><path d="M 109.89434966115114 118.52300852407294 l 6.236151896217981 11.674571718907714 a34.23575518406951,34.23575518406951 0 0,0 -0.5221916116349121,0.2731859709076644 l -6.034269382056573 -11.780187108760094" fill="#ff5d08" stroke="none" /><path d="M 109.57404056367764 118.69057910512821 l 8.72222199809461 17.027646701891065 a40.13159451766808,40.13159451766808 0 0,0 -0.6175413308021138,0.309648043211913 l -8.427826759609736 -17.17526258601228" fill="#ffb510" stroke="none" /><path d="M 108.92500713936063 119.00905698771935 l 5.629778039036822 11.990665094294627 a34.246525966167766,34.246525966167766 0 0,0 -0.5357657054127718,0.2459437577065693 l -5.42254433785663 -12.08579592233527" fill="#ff5d08" stroke="none" /><path d="M 108.59647513512805 119.15986991738527 l 12.04488649792159 26.845707669974015 a50.42399209912747,50.42399209912747 0 0,0 -0.7949686326305655,0.34849088657065524 l -11.580997190633271 -27.049063109839125" fill="#beff1f" stroke="none" /><path d="M 107.93186726928326 119.44442032107085 l 5.00201747491597 12.262097553278432 a34.24308178731377,34.24308178731377 0 0,0 -0.547691879225396,0.21793790181597883 l -4.790204519648708 -12.34638229950048" fill="#ff5d08" stroke="none" /><path d="M 107.59598834532513 119.57807347666477 l 5.325352075385541 13.725683805870132 a35.72255992229404,35.72255992229404 0 0,0 -0.5751838714477685,0.21748532365409662 l -5.0882979831774975 -13.815317379630859" fill="#ff740a" stroke="none" /><path d="M 106.91757812671514 119.82793768551818 l 5.16486324836213 14.804109872970356 a36.67920538500788,36.67920538500788 0 0,0 -0.5979239131000025,0.2028482550650046 l -4.909269602324901 -14.890821114933484" fill="#ff820c" stroke="none" /><path d="M 106.2309692047433 120.05430185196036 l 7.970908583489456 25.654276488157446 a47.86405192403361,47.86405192403361 0 0,0 -0.788902199790454,0.23768976133343955 l -7.528131409258756 -25.78768161859661" fill="#dfff1b" stroke="none" /><path d="M 105.53697534728816 120.25689768951611 l 3.8825137095912976 14.204087621927709 a35.725149163134624,35.725149163134624 0 0,0 -0.5945848125952564,0.15703525310367397 l -3.6374384541845437 -14.268814224334966" fill="#ff740a" stroke="none" /><path d="M 105.18746579009965 120.34920634021253 l 3.633658709717698 14.253987177144424 a35.70984792800065,35.70984792800065 0 0,0 -0.5969440389259084,0.14671432119167813 l -3.3877613860485782 -14.314422756650133" fill="#ff730a" stroke="none" /><path d="M 104.83641907484287 120.43548508189849 l 4.3539942229082795 18.39707903968293 a39.90528452273225,39.90528452273225 0 0,0 -0.6698004155718095,0.1524443939012122 l -4.0366736579436076 -18.469300167161826" fill="#ffb110" stroke="none" /><path d="M 104.13013068566511 120.58985236759428 l 2.89575702321434 14.436155690508361 a35.72372235061814,35.72372235061814 0 0,0 -0.6039561125008609,0.11574962638845267 l -2.6468332961417746 -14.483862515245283" fill="#ff740a" stroke="none" /><path d="M 103.7750983002368 120.6578951692458 l 4.443945125757939 24.317923731954117 a45.72064042281035,45.72064042281035 0 0,0 -0.775402529120975,0.13481366885287438 l -4.024693625164915 -24.390815979327996" fill="#fcff18" stroke="none" /><path d="M 103.06178313531738 120.77559828337769 l 1.9324505014358428 13.112560082143515 a34.25419167087617,34.25419167087617 0 0,0 -0.5840688890165222,0.08094662596985255 l -1.7064530212324902 -13.14388127360597" fill="#ff5d08" stroke="none" /><path d="M 102.70371172650421 120.8252237178851 l 1.7632472492225806 13.581336381036175 a34.69531813273236,34.69531813273236 0 0,0 -0.5929142012545635,0.0717936526268395 l -1.5292056249166368 -13.609675562388366" fill="#ff6409" stroke="none" /><path d="M 102.34483914955558 120.86867818915974 l 2.080674849183843 18.51765987962354 a39.63418727085905,39.63418727085905 0 0,0 -0.6786267525061935,0.07034243763465038 l -1.7616155000720468 -18.55073168571395" fill="#ffad10" stroke="none" /><path d="M 101.62511606390274 120.93702456842531 l 1.1384331862486337 14.666893103473114 a35.711008919454144,35.711008919454144 0 0,0 -0.6132723650719494,0.04229485289621577 l -0.8857980603977541 -14.684316300885614" fill="#ff730a" stroke="none" /><path d="M 101.26447882468166 120.96189622390904 l 1.3294036887266263 22.03818808099454 a43.07824830145928,43.07824830145928 0 0,0 -0.7405600775558837,0.03827849703100373 l -0.949855542757263 -22.057806384787746" fill="#ffde14" stroke="none" /><line stroke="#e1ed5e" stroke-width="0.3" x1="102.19456741930631" x2="102.32365962044197" y1="184.97166512339345" y2="189.96999836594603" /><path d="M 102.22038585953345 185.97133177190398 a86.0,86.0 0 0,1 -42.740103519485714,-10.115201625700543" fill="none" id="id151" stroke="none" /><text fill="#e1ed5e" style="font-size:6.75px; font-family:Arial;" text-anchor="middle"><textPath startOffset="22.20632615414155" xlink:href="#id151">July</textPath></text><path d="M 100.54218724476979 120.99299961872073 l 0.3798084784802804 14.705840686659442 a35.71074453526176,35.71074453526176 0 0,0 -0.6146334561423202,0.010581472345180538 l -0.12661533244529224 -14.710199636283782" fill="#ff730a" stroke="none" /><path d="M 100.18074693466247 120.99922214144158 l 0.13304608492811323 15.457325999314879 a36.45789857353872,36.45789857353872 0 0,0 -0.6275860391811268,0.0 l 0.13304608492810258 -15.457325999314879" fill="#ff7f0b" stroke="none" /><path d="M 99.81925306533755 120.99922214144158 l -0.11596710047941908 13.47308549721223 a34.4735845706918,34.4735845706918 0 0,0 -0.5933401475115324,-0.010214888726663842 l 0.34786693788361944 -13.469093131206405" fill="#ff6108" stroke="none" /><path d="M 99.09653310690486 120.98055641714683 l -0.5698425818421494 13.233040998628903 a34.24530462614862,34.24530462614862 0 0,0 -0.5887125509930664,-0.03042971437196165 l 0.7975432012487048 -13.221271477494739" fill="#ff5d08" stroke="none" /><path d="M 98.73552117531835 120.96189622390904 l -1.3517783733104591 22.409104388278216 a43.44983884697839,43.44983884697839 0 0,0 -0.7461728536368897,-0.05146044869642743 l 1.7373139877262789 -22.382515595065506" fill="#ffe315" stroke="none" /><path d="M 98.01472825383883 120.90594882070398 l -1.3909536067469568 14.647468272721119 a35.71336395038518,35.71336395038518 0 0,0 -0.6114934067675909,-0.06338379185714872 l 1.642879610120141 -14.62135511240821" fill="#ff730a" stroke="none" /><path d="M 97.2962882734958 120.8252237178851 l -2.1879760583378896 16.852791833387148 a37.994229367974896,37.994229367974896 0 0,0 -0.6478403445981642,-0.08978476862663741 l 2.477744994122885 -16.812632499267906" fill="#ff950d" stroke="none" /><path d="M 96.58105272829116 120.7198165907248 l -2.1128044942038025 12.804210809042821 a33.977355557783596,33.977355557783596 0 0,0 -0.576241434693547,-0.10018695972548339 l 2.3328949003693995 -12.765945270796331" fill="#ff5908" stroke="none" /><path d="M 96.22490169976321 120.6578951692458 l -4.259659787973209 23.30948715986622 a44.69550364869344,44.69550364869344 0 0,0 -0.7556357751578637,-0.14481939473730318 l 4.660263177702768 -23.232710566780447" fill="#fff517" stroke="none" /><path d="M 95.51606077576429 120.51570834832081 l -3.1414599933364706 14.373360964140685 a35.71265701004468,35.71265701004468 0 0,0 -0.5994281908421183,-0.13642790466502416 l 3.3884083335714514 -14.317156325897976" fill="#ff730a" stroke="none" /><path d="M 95.16358092515715 120.4354850818985 l -3.5095106223858386 14.828853922436503 a36.23848986814637,36.23848986814637 0 0,0 -0.6057810873371061,-0.14888625268683064 l 3.7642449944661553 -14.766246411435642" fill="#ff7b0b" stroke="none" /><path d="M 94.81253420990036 120.34920634021253 l -4.368467796466562 17.136470133553235 a38.68451637808983,38.68451637808983 0 0,0 -0.6438384852075175,-0.17004359570023664 l 4.662796724485569 -17.05873518854942" fill="#ffa00e" stroke="none" /><path d="M 94.11515582081647 120.15858648285463 l -4.121630789050549 14.118683210912012 a35.70799292804216,35.70799292804216 0 0,0 -0.5885442840431483,-0.17732356487982084 l 4.364050047533944 -14.045644276926465" fill="#ff730a" stroke="none" /><path d="M 93.76903079525671 120.05430185196036 l -7.422057333442337 23.887805128951978 a46.01427930082515,46.01427930082515 0 0,0 -0.7543682944903747,-0.24152490573024493 l 7.832146973023652 -23.756507376562027" fill="#f8ff18" stroke="none" /><path d="M 93.08242187328487 119.8279376855182 l -4.602822067549198 13.193124452102321 a34.97299194139101,34.97299194139101 0 0,0 -0.566696431614741,-0.2031971782837551 l 4.829238059793665 -13.111939732778609" fill="#ff6809" stroke="none" /><path d="M 92.7421414339146 119.70592522655815 l -5.085333280133978 13.807267868061777 a35.7139818047478,35.7139818047478 0 0,0 -0.5750457515909831,-0.217433098542708 l 5.3222492524852445 -13.717686519412435" fill="#ff730a" stroke="none" /><path d="M 92.40401165467489 119.57807347666478 l -5.376401568000598 13.857259931573294 a35.863692227424046,35.863692227424046 0 0,0 -0.573612302595865,-0.2282521732116594 l 5.6141349466383215 -13.76266091395557" fill="#ff760a" stroke="none" /><path d="M 91.7346041902142 119.30500536409082 l -7.816936001744671 18.257563813915695 a40.86059225890748,40.86059225890748 0 0,0 -0.6441951103887679,-0.28239620524522785 l 8.130051786791183 -18.120303055376013" fill="#ffbf11" stroke="none" /><path d="M 91.07499286063937 119.00905698771935 l -3.7507088869313954 7.988502178512754 a29.825190321495008,29.825190321495008 0 0,0 -0.46284055715509576,-0.22219159420878742 l 3.887662112086733 -7.922756307804404" fill="#ff1802" stroke="none" /><path d="M 90.7491055286396 118.85261126421891 l -3.240338524874273 6.603560635466182 a28.355732922154182,28.355732922154182 0 0,0 -0.43633544231359156,-0.21878764895122985 l 3.353527874870625 -6.546805145605649" fill="#ff0000" stroke="none" /><path d="M 90.42595943632237 118.69057910512821 l -7.613012221625725 14.862231490478008 a37.698619103482145,37.698619103482145 0 0,0 -0.5750100314777989,-0.30081807181677633 l 7.86771315563002 -14.728983999716515" fill="#ff910d" stroke="none" /><line stroke="#e1ed5e" stroke-width="0.3" x1="58.666819895761336" x2="56.23545636021788" y1="174.27360380694188" y2="178.64263932499728" /><path d="M 58.180547188652646 175.14741091055294 a86.0,86.0 0 0,1 -31.652253787137756,-30.449443065178592" fill="none" id="id152" stroke="none" /><text fill="#e1ed5e" style="font-size:6.75px; font-family:Arial;" text-anchor="middle"><textPath startOffset="22.20632615414155" xlink:href="#id152">August</textPath></text><path d="M 89.7882731507175 118.34994917583269 l -4.292293580579954 7.713031323093923 a29.82692677962811,29.82692677962811 0 0,0 -0.4464824386727124,-0.25352438115423315 l 4.424424786173874 -7.638003776145057" fill="#ff1802" stroke="none" /><path d="M 89.4739219176387 118.17145234162733 l -11.247119723657027 19.41620596388006 a43.43851055908316,43.43851055908316 0 0,0 -0.6437838152695027,-0.3803588256684404 l 11.579671409954912 -19.21972856591787" fill="#ffe315" stroke="none" /><path d="M 88.54995079064634 117.60387380957326 l -8.100451129800275 12.454035513937198 a35.85665874578438,35.85665874578438 0 0,0 -0.5145008808929458,-0.34098312898030597 l 8.313626709433182 -12.312754363865574" fill="#ff760a" stroke="none" /><path d="M 87.65650970185807 116.9893568818739 l -7.392428338712963 10.17480471378328 a33.57675028402142,33.57675028402142 0 0,0 -0.46466229890663646,-0.3437460602244675 l 7.566475608038164 -10.046048704819045" fill="#ff5307" stroke="none" /><path d="M 85.18274418774928 114.88116024355367 l -8.305999984779687 8.341822421279074 a32.771815367874,32.771815367874 0 0,0 -0.3963195117438452,-0.40146957299505365 l 8.448360121579064 -8.197612354303356" fill="#ff4606" stroke="none" /><path d="M 84.67929136418377 114.36230785411682 l -6.6546641963496285 6.238375660399099 a30.121506807892956,30.121506807892956 0 0,0 -0.3513510137702135,-0.3813221327795768 l 6.761061618115571 -6.122902272818179" fill="#ff1d02" stroke="none" /><path d="M 84.43433777217949 114.09645910891817 l -11.665963853825412 10.56484330860322 a36.73882545726012,36.73882545726012 0 0,0 -0.4204691225222291,-0.47240151651629236 l 11.846091825995979 -10.362467622346061" fill="#ff830c" stroke="none" /><path d="M 84.19399662182784 113.82643327865904 l -12.477321003510331 10.914640609889375 a37.57748228977146,37.57748228977146 0 0,0 -0.4216864368121928,-0.4905165929275416 l 12.663349949893304 -10.698246917800303" fill="#ff8f0d" stroke="none" /><path d="M 83.95833913139862 113.55231037782056 l -7.059866717816657 5.964314154849631 a30.242010680099597,30.242010680099597 0 0,0 -0.3325238684427329,-0.4005464206150053 l 7.161486586152927 -5.841906477120864" fill="#ff1e03" stroke="none" /><path d="M 83.50135304334701 112.99209946851258 l -20.80592678208263 16.383929603294245 a47.48244207974568,47.48244207974568 0 0,0 -0.5001329757084603,-0.6464892897067707 l 21.08486657500916 -16.023362319474224" fill="#e4ff1a" stroke="none" /><path d="M 83.06392112726016 112.41649034213515 l -19.192275977621534 14.070595154306753 a44.79758612123484,44.79758612123484 0 0,0 -0.45057883055232517,-0.6258145868989904 l 19.431634600549465 -13.738146961956623" fill="#fff617" stroke="none" /><path d="M 82.85270091963577 112.12312394758628 l -9.861213487367568 6.971868445326449 a33.076857251055785,33.076857251055785 0 0,0 -0.32468730226953496,-0.46773627524256606 l 9.979761696799237 -6.801090907896871" fill="#ff4b07" stroke="none" /><path d="M 82.6465618267979 111.8261652097733 l -12.165271484291273 8.290490273975815 a35.72161877204399,35.72161877204399 0 0,0 -0.3419016401372667,-0.5110965621815053 l 12.30617622983927 -8.079856797588487" fill="#ff740a" stroke="none" /><path d="M 82.05923443525364 110.91462005526583 l -20.363298669461777 12.388416048744999 a44.835620086301645,44.835620086301645 0 0,0 -0.3954482995195979,-0.6627940961385381 l 20.573527844679607 -12.03605985872035" fill="#fff617" stroke="none" /><line stroke="#e1ed5e" stroke-width="0.3" x1="26.63291911575756" x2="22.317208475507996" y1="142.92168965132927" y2="145.44649492493687" /><path d="M 25.769776987707644 143.4266507060508 a86.0,86.0 0 0,1 -11.730757126820373,-40.83630448921669" fill="none" id="id153" stroke="none" /><text fill="#e1ed5e" style="font-size:6.75px; font-family:Arial;" text-anchor="middle"><textPath startOffset="21.46611528233685" xlink:href="#id153">September</textPath></text><path d="M 81.69416730710424 110.29060199501025 l -11.544604135445795 6.489785432919808 a34.243685272970296,34.243685272970296 0 0,0 -0.28442412090112873,-0.5163123960061288 l 11.654604665798441 -6.290102518515856" fill="#ff5d08" stroke="none" /><path d="M 81.51974371655577 109.97397251340807 l -11.005568107084684 5.939811229395191 a33.506153957173595,33.506153957173595 0 0,0 -0.26956098429025177,-0.5099077955678694 l 11.106181599599822 -5.749488418741195" fill="#ff5207" stroke="none" /><path d="M 81.35079622478065 109.6543875284942 l -16.134960736698297 8.352805062707905 a39.168827986152394,39.168827986152394 0 0,0 -0.3048105701147585,-0.6014201722227068 l 16.276349976599324 -8.073830678782512" fill="#ffa70f" stroke="none" /><path d="M 80.87730276802145 108.67885076344099 l -23.447708246101627 10.641760319894246 a46.74960358336372,46.74960358336372 0 0,0 -0.32626529478192656,-0.7356421082109319 l 23.627414625614833 -10.236569875190618" fill="#eeff19" stroke="none" /><path d="M 80.58989483394504 108.01547362559985 l -12.519643920606855 5.17003255721781 a34.54513641649579,34.54513641649579 0 0,0 -0.22223607714240437,-0.5515717180194077 l 12.606782612006647 -4.953761471355597" fill="#ff6209" stroke="none" /><path d="M 80.45479744820244 107.68017299344265 l -13.005970226864015 5.110619909165052 a34.974036546325024,34.974036546325024 0 0,0 -0.21534966624502375,-0.5622100243216754 l 13.092014172702548 -4.885986318010219" fill="#ff6809" stroke="none" /><path d="M 80.32549172779594 107.34259656027581 l -15.647092289885014 5.839550571555767 a37.70125288731167,37.70125288731167 0 0,0 -0.22167571720427265,-0.6099563678139822 l 15.745292268094511 -5.569346406735668" fill="#ff910d" stroke="none" /><path d="M 80.20201598880116 107.00284435728193 l -7.559354379487154 2.6738572033971724 a29.018313474717147,29.018313474717147 0 0,0 -0.16251522548525718,-0.47234531695095217 l 7.604260435915639 -2.5433391833569234" fill="#ff0b01" stroke="none" /><path d="M 80.0844068197444 106.66101706037122 l -12.557919076734153 4.200151733156355 a34.24169951778622,34.24169951778622 0 0,0 -0.18214586545285144,-0.560587331468782 l 12.628357193203255 -3.9833655017097698" fill="#ff5d08" stroke="none" /><path d="M 79.97269907076064 106.31721596034903 l -21.465579784171133 6.77089257757818 a43.50813412452751,43.50813412452751 0 0,0 -0.21914265564702098,-0.7161708781636659 l 21.578949212324286 -6.400394726862467" fill="#ffe415" stroke="none" /><path d="M 79.67330655649465 105.27499134158121 l -12.827637652531461 3.3289072685683014 a34.252543580285625,34.252543580285625 0 0,0 -0.14318979918878597,-0.5719720696873217 l 12.883038766015305 -3.107607359483588" fill="#ff5d08" stroke="none" /><path d="M 79.58551787078972 104.9243191809786 l -17.516826608914972 4.225355544862562 a39.019235386866235,39.019235386866235 0 0,0 -0.15187667706404293,-0.6542807498099634 l 17.58696385190957 -3.923206137704024" fill="#ffa50f" stroke="none" /><path d="M 79.4281124754447 104.21870165774334 l -9.364458198804877 1.9203806787301774 a30.559337807003374,30.559337807003374 0 0,0 -0.10123881806916547,-0.5162145522346531 l 9.39612694984971 -1.7589023994275694" fill="#ff2403" stroke="none" /><path d="M 79.35854240842038 103.8639653848113 l -37.59989663724405 7.038490302063764 a59.25300737018832,59.25300737018832 0 0,0 -0.17903876760670098,-1.004144489796034 l 37.71548184718994 -6.3902270615345165" fill="#54ff2b" stroke="none" /><path d="M 79.23777060512086 103.15116336523772 l -9.163975298707463 1.390851757391368 a30.26892182976851,30.26892182976851 0 0,0 -0.0737494338154518,-0.5158033683359028 l 9.186558783539514 -1.2329029170750645" fill="#ff1f03" stroke="none" /><path d="M 79.18660465613746 102.79330883721812 l -14.58335108044832 1.957191643951689 a35.71409962813789,35.71409962813789 0 0,0 -0.07652764675590036,-0.6100006408677963 l 14.61488023645107 -1.705873248796484" fill="#ff730a" stroke="none" /><path d="M 79.10278846688536 102.07522291339032 l -17.713507065961927 1.7590612834413213 a38.80063563962774,38.80063563962774 0 0,0 -0.06028030487852163,-0.6651881412577045 l 17.741161967117524 -1.4538917536350504" fill="#ffa10e" stroke="none" /><path d="M 79.07016306316243 101.71520430193888 l -10.414111015686302 0.8534384701075062 a31.449022225514607,31.449022225514607 0 0,0 -0.03957101875428091,-0.5399151115813545 l 10.427258593104918 -0.674050222029391" fill="#ff3204" stroke="none" /><path d="M 79.04373962182676 101.35467743843564 l -38.9069044125801 2.5150625472276547 a59.988110374652834,59.988110374652834 0 0,0 -0.057741838763488366,-1.0310193198954178 l 38.94443260223112 -1.844971510996799" fill="#4cff2c" stroke="none" /><path d="M 79.0095281055655 100.63252640178507 l -54.512135083867996 1.6426674365221519 a75.5368795193572,75.5368795193572 0 0,0 -0.027977195898652593,-1.299990359129987 l 54.53233434245166 -0.7040872616020358" fill="#41ffd1" stroke="none" /><line stroke="#e1ed5e" stroke-width="0.3" x1="15.007084014347285" x2="10.007500721073583" y1="101.09737516637583" y2="101.16192664675087" /><path d="M 14.007167355692545 101.11028546245083 a86.0,86.0 0 0,1 10.666146001902534,-42.60595125391555" fill="none" id="id154" stroke="none" /><text fill="#e1ed5e" style="font-size:6.75px; font-family:Arial;" text-anchor="middle"><textPath startOffset="22.20632615414155" xlink:href="#id154">October</textPath></text><path d="M 79.00175016825051 100.2711162175752 l -10.29461372766401 0.13291758873265594 a31.295471766131108,31.295471766131108 0 0,0 -0.0023184023929929565,-0.5387150675524228 l 10.295376427346506 0.044306957023442235" fill="#ff2f04" stroke="none" /><path d="M 79.00019446554 99.90962569577889 l -13.968610887034044 -0.06011500857851775 a34.96874024125377,34.96874024125377 0 0,0 0.007771374371827863,-0.6019015094530924 l 13.9655065055445 0.30055277609208214" fill="#ff6809" stroke="none" /><path d="M 79.01574976396665 99.18683210126434 l -18.38142941772935 -0.7123050939273479 a39.39522563019548,39.39522563019548 0 0,0 0.03209096015999204,-0.6773894489116264 l 18.36644484933586 1.0286056494619835" fill="#ffaa0f" stroke="none" /><path d="M 79.03285615573316 98.82574320788736 l -10.281640434741101 -0.575819301104094 a31.297752079790385,31.297752079790385 0 0,0 0.034754527685290956,-0.5376371605733729 l 10.270205316051397 0.7527155259304786" fill="#ff2f04" stroke="none" /><path d="M 79.08570108090925 98.10471618934814 l -14.651515586928012 -1.327741388838541 a35.71155349341562,35.71155349341562 0 0,0 0.0607485398636978,-0.6117295061018706 l 14.626489921382086 1.579746425644842" fill="#ff730a" stroke="none" /><path d="M 79.12142395522702 97.74499172005258 l -9.511803348785438 -1.027330372662683 a30.567121335101856,30.567121335101856 0 0,0 0.061002726897646894,-0.5226341103215254 l 9.492710268884203 1.19090822130907" fill="#ff2403" stroke="none" /><path d="M 79.16333360222342 97.38593545837743 l -32.116085118947964 -4.029124319719989 a53.36783536400403,53.36783536400403 0 0,0 0.1221970974249589,-0.9105103111731269 l 32.041972022465174 4.581352972957775" fill="#99ff23" stroke="none" /><path d="M 79.26566170972629 96.67025291283419 l -31.287022877381094 -5.024412731845832 a52.68789238541596,52.68789238541596 0 0,0 0.15151065436086122,-0.8942244585642152 l 31.195900361500012 5.562222978725875" fill="#a2ff22" stroke="none" /><path d="M 79.32604984820605 96.31383870115002 l -41.42821156090928 -7.386642079290399 a63.081577849968994,63.081577849968994 0 0,0 0.1998012135863998,-1.0673460723021606 l 41.294924623413024 8.098666229055132" fill="#30ff36" stroke="none" /><path d="M 79.46518482838121 95.60439243477599 l -14.396315589326294 -3.0816227556435543 a35.722442098903954,35.722442098903954 0 0,0 0.13388365253230738,-0.6001741623562329 l 14.341137549791949 3.3289750875497464" fill="#ff740a" stroke="none" /><path d="M 79.54389044137918 95.25157060432595 l -10.10116007149664 -2.3447589228270362 a31.369731394601068,31.369731394601068 0 0,0 0.1266249660424161,-0.5249422329019372 l 10.059302305193409 2.51828638738837" fill="#ff3004" stroke="none" /><path d="M 79.62865764111835 94.90015583598534 l -31.409431958393156 -7.863164117812236 a53.37872396949236,53.37872396949236 0 0,0 0.23080875888153593,-0.8894003007888532 l 31.269426867641315 8.402660844149953" fill="#99ff23" stroke="none" /><path d="M 79.81627453868168 94.20196356495316 l -9.90014919336411 -2.843946022033116 a31.30053314285751,31.30053314285751 0 0,0 0.15321477258787244,-0.5165640460228763 l 9.849728523664531 3.013939454802532" fill="#ff2f04" stroke="none" /><path d="M 79.91906864156998 93.8553929516997 l -43.61550589300522 -13.346001743730692 a66.61171030389494,66.61171030389494 0 0,0 0.3449361053509336,-1.0935417162533176 l 43.37931430388608 14.094793626410425" fill="#35ff65" stroke="none" /><path d="M 80.14247586403 93.16781622104843 l -13.913376625866215 -4.787039181863427 a35.71386398135772,35.71386398135772 0 0,0 0.2050093464442944,-0.5795890292535177 l 13.828914198612111 5.025825837543556" fill="#ff730a" stroke="none" /><path d="M 80.2630227832202 92.82701384747504 l -9.6797044849897 -3.5178834868561046 a31.29913506775324,31.29913506775324 0 0,0 0.18838414554437186,-0.5047758513543619 l 9.6177157509437 3.683982475239808" fill="#ff2f04" stroke="none" /><path d="M 80.38941819471856 92.48833698450439 l -32.501107801154966 -12.449267026173686 a55.803825332731336,55.803825332731336 0 0,0 0.35131550715536036,-0.8940596458962126 l 32.281998744117914 13.006875676965663" fill="#7cff26" stroke="none" /><path d="M 80.65960295795068 91.81776055985345 l -13.549867183128612 -5.7324706123403635 a35.712583729643534,35.712583729643534 0 0,0 0.24439190749861436,-0.5640902177212123 l 13.449184565787316 5.964859974648175" fill="#ff730a" stroke="none" /><path d="M 80.803312248108 91.48605970444005 l -40.615007863247776 -18.013198762234808 a65.43032965643465,65.43032965643465 0 0,0 0.46548284052359223,-1.0256297370050584 l 40.29892270576083 18.709650508081936" fill="#33ff55" stroke="none" /><path d="M 81.10775173730289 90.83032412892265 l -13.242353883356865 -6.42740298518337 a35.7197637720855,35.7197637720855 0 0,0 0.27323916141214144,-0.5508334761272408 l 13.12975470899131 6.654396049809573" fill="#ff740a" stroke="none" /><path d="M 81.26839172434947 90.50648371742162 l -13.123625802349435 -6.651289809590217 a35.71289265682485,35.71289265682485 0 0,0 0.2826259940061773,-0.5459434623728255 l 13.007190375183145 6.876205994223378" fill="#ff730a" stroke="none" /><path d="M 81.43458229118936 90.18545643968196 l -32.533033327857176 -17.19847502240703 a57.79926358784676,57.79926358784676 0 0,0 0.4725554966271419,-0.8755735665082394 l 32.23216973201156 17.755929572247744" fill="#64ff29" stroke="none" /><line stroke="#e1ed5e" stroke-width="0.3" x1="26.266209847984243" x2="21.928928074336255" y1="57.711370442889674" y2="55.22380399835377" /><path d="M 25.398753493254645 57.213857153982495 a86.0,86.0 0 0,1 29.58750427330803,-30.492523968695096" fill="none" id="id155" stroke="none" /><text fill="#e1ed5e" style="font-size:6.75px; font-family:Arial;" text-anchor="middle"><textPath startOffset="21.46611528233685" xlink:href="#id155">November</textPath></text><path d="M 81.78341655067845 89.55222093294921 l -12.761605637356942 -7.319179066198657 a35.711524756003406,35.711524756003406 0 0,0 0.3104187311486624,-0.5306062352431773 l 12.633727231737954 7.537764713795727" fill="#ff730a" stroke="none" /><path d="M 81.96595687620814 89.24020034530311 l -41.697093055336666 -24.878079994539867 a69.55477765864168,69.55477765864168 0 0,0 0.6222973274177889,-1.0228931842097686 l 41.262679929632654 25.59214095195671" fill="#39ff8a" stroke="none" /><path d="M 82.34701348167596 88.62581576622439 l -12.367272499535442 -7.968489396001503 a35.7121124360832,35.7121124360832 0 0,0 0.33740015551405556,-0.5138835845420409 l 12.228275708663467 8.18019104452121" fill="#ff730a" stroke="none" /><path d="M 82.54541684631803 88.32363383020206 l -12.2293278734362 -8.180894897546471 a35.713378319091284,35.713378319091284 0 0,0 0.34620809876587766,-0.5080176651033536 l 12.08669530900158 8.39019058592024" fill="#ff730a" stroke="none" /><path d="M 82.7489923806493 88.02491185347247 l -13.900385923067102 -9.649195593233646 a37.9212205353716,37.9212205353716 0 0,0 0.3768419127317178,-0.5330161608150368 l 13.732231390531506 9.88703825438047" fill="#ff940d" stroke="none" /><path d="M 83.17141714833178 87.43820079747576 l -8.250579295938664 -6.15869567471103 a31.29570741291127,31.29570741291127 0 0,0 0.32595829423382877,-0.42892290680994644 l 8.143345061480726 6.299803357402003" fill="#ff2f04" stroke="none" /><path d="M 83.39014120810768 87.1503855733568 l -13.38289306779085 -10.35318951164407 a37.920117018742545,37.920117018742545 0 0,0 0.403841877840042,-0.512838174072065 l 13.202697109356835 10.582020079669183" fill="#ff940d" stroke="none" /><path d="M 83.84228863543731 86.58626213691792 l -9.055428138584848 -7.517595564639049 a32.76924049573952,32.76924049573952 0 0,0 0.3640340957973313,-0.43090154715950574 l 8.924683429300392 7.672356061427672" fill="#ff4606" stroke="none" /><path d="M 84.07557802195018 86.31012108654704 l -8.922440513781238 -7.67042787578221 a32.76628269758727,32.76628269758727 0 0,0 0.371363899158776,-0.4245331334795315 l 8.78908475104462 7.822876565464686" fill="#ff4606" stroke="none" /><path d="M 84.5562425177563 85.77008943001954 l -6.489167025093377 -5.979132121629868 a29.823792246390738,29.823792246390738 0 0,0 0.3511150488605683,-0.37454505333564364 l 6.385284654262353 6.089946591843561" fill="#ff1802" stroke="none" /><path d="M 85.05521093208273 85.24692304244772 l -44.48416546386864 -43.91352152903979 a83.50790630070955,83.50790630070955 0 0,0 1.0186540951059164,-1.0142796706943265 l 43.721675568595415 44.67273705038423" fill="#4cd7ff" stroke="none" /><path d="M 85.83668400450813 84.49514656593479 l -6.300049750725481 -6.896785190940404 a30.341106617076537,30.341106617076537 0 0,0 0.38863925257965504,-0.348924158240999 l 6.180399510549854 7.004208357950682" fill="#ff2003" stroke="none" /><path d="M 86.10567301691215 84.25364557470407 l -6.325061666703663 -7.168153080534081 a30.55975018886866,30.55975018886866 0 0,0 0.3974312994469269,-0.34464850652731555 l 6.200736568609963 7.275966580481077" fill="#ff2403" stroke="none" /><path d="M 86.65592168130627 83.78471172551755 l -5.655811015138683 -6.872756877332584 a29.900729483243854,29.900729483243854 0 0,0 0.4002377827705756,-0.323631118995041 l 5.536669833803607 6.969094093591759" fill="#ff1902" stroke="none" /><path d="M 87.51073957382395 83.11751280151077 l -8.75083268709584 -11.829028763495035 a35.714040716442845,35.714040716442845 0 0,0 0.49736849902168817,-0.3613593666294503 l 8.545918871720371 11.977907364941153" fill="#ff730a" stroke="none" /><path d="M 87.80319425747018 82.90503203632743 l -8.545953087648961 -11.977955321776363 a35.71409962813789,35.71409962813789 0 0,0 0.503515846557067,-0.35274502809116376 l 8.338506101508234 12.12328519263147" fill="#ff730a" stroke="none" /><path d="M 88.09926311788651 82.69761687909137 l -5.837880674110931 -8.487646524597148 a31.30150446739038,31.30150446739038 0 0,0 0.44656113316394713,-0.3015200705182467 l 5.690914846540444 8.586878507414061" fill="#ff2f04" stroke="none" /><path d="M 88.70189139769569 82.29822771554957 l -5.14293375141462 -8.05790113603511 a30.55926452660222,30.55926452660222 0 0,0 0.445846350882917,-0.27918894402086103 l 5.003468248159461 8.1452344213789" fill="#ff2403" stroke="none" /><path d="M 89.00827224532344 82.1063720568725 l -8.944949564193825 -14.561641540259801 a38.08957363578715,38.08957363578715 0 0,0 0.561617946630278,-0.33836852885865143 l 8.692969551345897 14.713456678577073" fill="#ff970d" stroke="none" /><line stroke="#e1ed5e" stroke-width="0.3" x1="56.762969772571076" x2="54.21961505331055" y1="26.818313649435495" y2="22.513508569990535" /><path d="M 56.25429882871897 25.957352633546506 a86.0,86.0 0 0,1 42.265352541879196,-11.944610805530505" fill="none" id="id156" stroke="none" /><text fill="#e1ed5e" style="font-size:6.75px; font-family:Arial;" text-anchor="middle"><textPath startOffset="22.20632615414155" xlink:href="#id156">December</textPath></text><path d="M 89.3179101791058 81.91981866633112 l -8.669004622614288 -14.672894366858962 a38.04246080376626,38.04246080376626 0 0,0 0.5666574306894319,-0.3282445590616443 l 8.415150459459536 14.819943083310655" fill="#ff960d" stroke="none" /><path d="M 90.26544431104013 81.39251694778311 l -4.765238958879369 -9.108695455681934 a31.27987525408662,31.27987525408662 0 0,0 0.47923675297781543,-0.24548367853170835 l 4.60774171831279 9.189371659526147" fill="#ff2f04" stroke="none" /><path d="M 90.58718382345135 81.22770947309562 l -7.651329547440999 -15.259299500557724 a38.07012199989399,38.07012199989399 0 0,0 0.5883261170182907,-0.2886890705486008 l 7.387532163412282 15.388743731241155" fill="#ff970d" stroke="none" /><path d="M 91.23893434514133 80.91482961587045 l -14.117155856680078 -30.752916994136815 a54.8383804743972,54.8383804743972 0 0,0 0.8612704035608899,-0.38642692464810147 l 13.585703334652415 30.991364249301444" fill="#87ff25" stroke="none" /><path d="M 91.90106846888425 80.62456947434976 l -5.670774169701587 -13.566442749833712 a35.703946700402255,35.703946700402255 0 0,0 0.5690803276181597,-0.23214215439151073 l 5.4364099724950465 13.662045790408799" fill="#ff730a" stroke="none" /><path d="M 92.23578459929587 80.48803036053334 l -3.617460789146017 -9.090910213976924 a30.784205183845998,30.784205183845998 0 0,0 0.4940378761457302,-0.19167902060562722 l 3.46043974800061 9.151831938473103" fill="#ff2703" stroke="none" /><path d="M 92.57280143429618 80.3572730644239 l -6.243589946764975 -16.512434848359398 a38.65341100310811,38.65341100310811 0 0,0 0.6243771514967289,-0.22996337423178428 l 5.958430469495677 16.617461490397503" fill="#ff9f0e" stroke="none" /><path d="M 93.25333710446033 80.11325718540243 l -3.0727277472779115 -9.057299496880475 a30.564325903328623,30.564325903328623 0 0,0 0.499678957580667,-0.16473629616784732 l 2.9163659674548352 9.108849517307556" fill="#ff2403" stroke="none" /><path d="M 93.59665428221793 80.00007090966166 l -10.589270624942483 -33.07406330242749 a55.72788959469393,55.72788959469393 0 0,0 0.9160991731452344,-0.28463647243849505 l 10.018386079086518 33.25143990974851" fill="#7dff26" stroke="none" /><path d="M 94.28887869178378 79.79150937346287 l -4.00148734482649 -14.159044281514227 a35.713613965871446,35.713613965871446 0 0,0 0.5930196463499293,-0.16209467079435783 l 3.757169809252838 14.225825493134879" fill="#ff730a" stroke="none" /><path d="M 94.63758080256005 79.69619591428918 l -3.0058815839133097 -11.381212198732701 a32.77146189770375,32.77146189770375 0 0,0 0.5466453241697069,-0.1393520646967241 l 2.8095273710586035 11.431267259598288" fill="#ff4606" stroke="none" /><path d="M 94.98787191387505 79.60689891045804 l -4.424516831498466 -18.00225721822839 a39.53800458904543,39.53800458904543 0 0,0 0.6623111180568005,-0.15674764323004928 l 4.113982026479132 18.07575077359931" fill="#ffac0f" stroke="none" /><path d="M 95.33964822691252 79.52364482259891 l -1.9587934297045801 -8.606421132716003 a29.826514397762825,29.826514397762825 0 0,0 0.5015928844147478,-0.1096287766836445 l 1.8103578211363114 8.638863407495515" fill="#ff1802" stroke="none" /><path d="M 95.692805502759 79.44645832069477 l -8.154158051462156 -38.910903019987764 a60.75611484236252,60.75611484236252 0 0,0 1.025428949066931,-0.20569140044812567 l 7.483162692928088 39.045498376513095" fill="#43ff2d" stroke="none" /><path d="M 96.40284397218896 79.31037775812273 l -2.520083996728113 -14.49466898488506 a35.7121124360832,35.7121124360832 0 0,0 0.6065460710969128,-0.10008529881827226 l 2.2702087194923144 14.53590054664296" fill="#ff730a" stroke="none" /><path d="M 96.75951476605007 79.25152402106235 l -2.2699249155762904 -14.534083380907207 a35.71027324170143,35.71027324170143 0 0,0 0.6081476870762488,-0.08962516056936291 l 2.019408248071393 14.571003025637538" fill="#ff730a" stroke="none" /><path d="M 97.11714578562143 79.19881850522333 l -2.424014364218395 -17.49043100569053 a38.65760522842092,38.65760522842092 0 0,0 0.6599134335974538,-0.0856757033233117 l 2.1225862021130832 17.529565032177977" fill="#ff9f0e" stroke="none" /><path d="M 97.83486435360386 79.11191278185805 l -1.516523774591903 -14.630621838769386 a35.70900879556397,35.70900879556397 0 0,0 0.6119416667636769,-0.058111234832906054 l 1.2644569807379897 14.654558618117473" fill="#ff730a" stroke="none" /><path d="M 98.55514903715128 79.0497635885617 l -2.895327729293035 -41.982046575715344 a63.08176751688961,63.08176751688961 0 0,0 1.0839188450652224,-0.06538494478829873 l 2.172246835388189 42.02566478988395" fill="#30ff36" stroke="none" /><path d="M 99.27714615592234 79.0124445844662 l -0.5572393493361267 -16.179054479305588 a37.18864786005263,37.18864786005263 0 0,0 0.639951752844761,-0.016528065734403023 l 0.27866096129648665 16.18624933718235" fill="#ff8a0c" stroke="none" /><path d="M 99.63851952072746 79.00311137660856 l -0.2533633781881844 -14.716818578334838 a35.71899935692058,35.71899935692058 0 0,0 0.6148438574607165,-0.005292155194297713 l 3.605115089820947e-15 14.718999356920577" fill="#ff740a" stroke="none" /></svg>