<?xml version="1.0" encoding="utf-8" ?>
<svg baseProfile="full" height="200mm" version="1.1" viewBox="0,0,200,200" width="200mm" xmlns="http://www.w3.org/2000/svg" xmlns:ev="http://www.w3.org/2001/xml-events" xmlns:xlink="http://www.w3.org/1999/xlink"><defs /><rect fill="#1a1a1a" height="200" width="200" x="0" y="0" /><text alignment-baseline="middle" fill="#e1ed5e" style="dominant-baseline: central; font-size:9.0px; font-family:Arial;" text-anchor="middle" x="100.0" y="100.0">2026</text><line stroke="#e1ed5e" stroke-width="0.3" x1="100.0" x2="100.0" y1="15.0" y2="10.0" /><path d="M 100.0 14.0 a86.0,86.0 0 0,1 42.46469731375804,11.215312516191453" fill="none" id="id157" stroke="none" /><text fill="#e1ed5e" style="font-size:6.75px; font-family:Arial;" text-anchor="middle"><textPath startOffset="22.20632615414155" xlink:href="#id157">January</textPath></text><path d="M 100.0 79.0 l 0.0 -14.801793139668192 a35.80179313966819,35.80179313966819 0 0,0 0.6162690163306275,0.005304421986629857 l -0.25478853705809906 14.79960009429012" fill="#ffa90f" stroke="none" /><path d="M 100.72285384407766 79.0124445844662 l 0.40825831430549747 -11.85349440352218 a32.86052294064352,32.86052294064352 0 0,0 0.5651371005949566,0.024335992349088554 l -0.6122362472897857 11.844710684648897" fill="#ff810b" stroke="none" /><path d="M 101.08401301168833 79.027996857942 l 0.8765607841465638 -16.95850079391116 a37.98113977285945,37.98113977285945 0 0,0 0.6526207932559491,0.03936786847927858 l -1.168343626242125 16.940899656051577" fill="#ffc612" stroke="none" /><path d="M 101.80526077348638 79.07773832637324 l 1.1456686613299436 -13.277848760501891 a34.327183663036806,34.327183663036806 0 0,0 0.5882614694326294,0.05586251476246443 l -1.3740552578528171 13.256160701224248" fill="#ff950d" stroke="none" /><path d="M 102.16513564639614 79.11191278185805 l 1.524618192131155 -14.708712511666286 a35.787517857389915,35.787517857389915 0 0,0 0.6121937149102263,0.06878709695082812 l -1.7775786105511067 14.680289461244858" fill="#ffa90f" stroke="none" /><path d="M 102.52436894288641 79.15227682838746 l 2.3667874931595883 -19.546322894864677 a40.68909397986834,40.68909397986834 0 0,0 0.6945924239115651,0.09017803155976681 l -2.7028946455789993 19.502686540140772" fill="#ffe915" stroke="none" /><path d="M 103.2404852339499 79.25152402106235 l 2.2809472782385303 -14.604658375211404 a35.78170378348641,35.78170378348641 0 0,0 0.6077280330552243,0.10028033266883553 l -2.5320045174326298 14.563231779602942" fill="#ffa90f" stroke="none" /><path d="M 103.59715602781102 79.31037775812273 l 7.679467531730233 -44.16969434237924 a65.83231111453108,65.83231111453108 0 0,0 1.114775762923761,0.20371814520696324 l -8.438638415756895 44.030960715821536" fill="#36ff6c" stroke="none" /><path d="M 104.307194497241 79.44645832069477 l 3.0365782483681674 -14.490276125279552 a35.80502987654227,35.80502987654227 0 0,0 0.6021336577524387,0.13160309555919725 l -3.285554630274134 14.435859531624484" fill="#ffa90f" stroke="none" /><path d="M 104.66035177308747 79.52364482259891 l 2.1278814352601216 -9.34934918333823 a30.588441455967278,30.588441455967278 0 0,0 0.5123947217591842,0.12126727583090455 l -2.2884998439818296 9.311335995366456" fill="#ff6109" stroke="none" /><path d="M 105.01212808612495 79.60689891045804 l 3.5340273347378734 -14.379077200765158 a35.80699869481452,35.80699869481452 0 0,0 0.5972796840790683,0.152259890458676 l -3.781015907501967 14.316114314137613" fill="#ffa90f" stroke="none" /><path d="M 105.71112130821622 79.79150937346287 l 2.466772912998169 -8.728541139268673 a30.07041338772424,30.07041338772424 0 0,0 0.49689179060193955,0.14505633934675505 l -2.6166549213235353 8.684786471003214" fill="#ff5a08" stroke="none" /><path d="M 106.0581310904928 79.89281104454417 l 13.446474778986236 -44.629408827113124 a67.61106967491216,67.61106967491216 0 0,0 1.1114442961168791,0.3453311530371229 l -14.212704447813833 44.391337539193486" fill="#38ff81" stroke="none" /><path d="M 106.74666289553966 80.11325718540242 l 4.754005655953104 -14.013103853400613 a35.79755552052518,35.79755552052518 0 0,0 0.5818261861761594,0.2029877319002225 l -4.994513846192537 13.929195268328183" fill="#ffa90f" stroke="none" /><path d="M 107.08798089147638 80.2323363322302 l 5.950897249751226 -16.596452100484687 a38.63109186638137,38.63109186638137 0 0,0 0.624016625513325,0.22983058946949317 l -6.235696201037127 16.491558243208868" fill="#ffcf13" stroke="none" /><path d="M 107.76421540070413 80.48803036053334 l 5.474720143712505 -13.758321699705448 a35.807564845191706,35.807564845191706 0 0,0 0.5707318830688314,0.23281586532792833 l -5.710735896369724 13.662044948193941" fill="#ffa90f" stroke="none" /><path d="M 108.09893153111575 80.62456947434976 l 2.851315029954555 -6.821326499350702 a28.39327347058046,28.39327347058046 0 0,0 0.44931171160834443,0.19237182628932173 l -2.9683104993532146 6.77123514509859" fill="#ff4206" stroke="none" /><path d="M 108.43124777332544 80.76684994638697 l 19.7446812755962 -45.04106959538733 a70.17875953062871,70.17875953062871 0 0,0 1.10220046652482,0.4945252209572509 l -20.5170638605878 44.694524043913546" fill="#3bff9e" stroke="none" /><path d="M 110.05341064243156 81.56283822128135 l 5.657898009741001 -10.376138471138283 a32.8184626521755,32.8184626521755 0 0,0 0.49364579931006336,0.2747133528570835 l -5.835667898123099 10.27720972072102" fill="#ff800b" stroke="none" /><path d="M 110.36928655335952 81.73862282372117 l 5.8416452742075045 -10.287736493092492 a32.830568103898386,32.830568103898386 0 0,0 0.48902423704376125,0.2832744024261539 l -6.017866243716593 10.185657933276287" fill="#ff810b" stroke="none" /><line stroke="#e1ed5e" stroke-width="0.3" x1="143.23703022742887" x2="145.7803849466894" y1="26.81831364943548" y2="22.513508569990506" /><path d="M 143.74570117128098 25.957352633546492 a86.0,86.0 0 0,1 28.547481713284135,27.462654790039103" fill="none" id="id158" stroke="none" /><text fill="#e1ed5e" style="font-size:6.75px; font-family:Arial;" text-anchor="middle"><textPath startOffset="19.985693538727396" xlink:href="#id158">February</textPath></text><path d="M 110.68208982089419 81.91981866633111 l 16.176515657507213 -27.379879905389284 a52.80153270600516,52.80153270600516 0 0,0 0.7785408327442511,0.469062140575577 l -16.645418556469103 27.09737115535509" fill="#84ff25" stroke="none" /><path d="M 111.2981086023043 82.29822771554956 l 7.2394781908513455 -11.342747614105846 a34.456149817578435,34.456149817578435 0 0,0 0.49720712186872507,0.3233973427792949 l -7.43365233850435 11.216451347167023" fill="#ff970d" stroke="none" /><path d="M 111.60114157652 82.49532879139004 l 5.728727519675417 -8.64393310039361 a31.36995170860341,31.36995170860341 0 0,0 0.44753763183766965,0.3021794067817357 l -5.876669845919628 8.544041781313206" fill="#ff6c0a" stroke="none" /><path d="M 111.90073688211348 82.69761687909136 l 5.448244971040436 -7.921158392064566 a30.613954625264377,30.613954625264377 0 0,0 0.43161136470189726,0.3023713434389025 l -5.583787475325984 7.826202205861728" fill="#ff6109" stroke="none" /><path d="M 112.48926042617603 83.11751280151076 l 5.718839798789151 -7.730500958320547 a30.61591252616254,30.61591252616254 0 0,0 0.4209744046726826,0.31706919388478466 l -5.851060357220217 7.630915174929914" fill="#ff6209" stroke="none" /><path d="M 112.77801427241765 83.33499621200491 l 14.386008171207298 -18.762139058241775 a44.6426541052997,44.6426541052997 0 0,0 0.6057953843470774,0.4728329064500575 l -14.706836110713805 18.511727762568494" fill="#e3ff1b" stroke="none" /><path d="M 113.34407831869373 83.78471172551755 l 8.5577837054817 -10.399139338132908 a34.46765610355831,34.46765610355831 0 0,0 0.45487862418029823,0.3809477661420829 l -8.735519866621116 10.250290414597007" fill="#ff970d" stroke="none" /><path d="M 113.6212207817346 84.01681056812373 l 5.990040544068032 -7.0287351078576705 a30.23491759226956,30.23491759226956 0 0,0 0.3932068329453744,0.3409850908057552 l -6.1101411756601705 6.924585023632244" fill="#ff5c08" stroke="none" /><path d="M 114.16331599549186 84.49514656593476 l 6.343394297886202 -6.944235297335479 a30.405373734372024,30.405373734372024 0 0,0 0.3833858692920452,0.3563153826055018 l -6.461988050973094 6.834015328655337" fill="#ff5f08" stroke="none" /><path d="M 114.68862486808459 84.99185889309783 l 44.06587460425377 -45.02442332070654 a84.0,84.0 0 0,0 1.0246567993307099,1.0202565973995252 l -44.8343672037518 44.25923087265689" fill="#4dd2ff" stroke="none" /><path d="M 115.4437574822437 85.77008943001954 l 2.170645750939654 -2.0000375524215945 a23.95158486023508,23.95158486023508 0 0,0 0.2767621135076535,0.30560763827508847 l -2.204751505063343 1.962377126876957" fill="#ff0000" stroke="none" /><path d="M 116.38621287248628 86.86637796730983 l 11.516617383331852 -9.23061972798843 a35.75929593567358,35.75929593567358 0 0,0 0.38082955318315437,0.4836148586959761 l -11.67380101710897 9.031012475339415" fill="#ffa90f" stroke="none" /><path d="M 116.82858285166822 87.43820079747576 l 11.83065971113859 -8.831068726026707 a35.76320710565847,35.76320710565847 0 0,0 0.3639968788046455,0.4964913336216164 l -11.980919202456864 8.626114948733598" fill="#ffa90f" stroke="none" /><path d="M 117.65298651832404 88.62581576622439 l 8.070004044727835 -5.199670473705385 a30.600080120345204,30.600080120345204 0 0,0 0.2814805253292109,0.44523459337643967 l -8.158312166303 5.05998823261474" fill="#ff6109" stroke="none" /><line stroke="#e1ed5e" stroke-width="0.3" x1="172.23445277983987" x2="176.4835382374775" y1="55.19839476539836" y2="52.563006222186495" /><path d="M 173.08426987136738 54.67131705675599 a86.0,86.0 0 0,1 12.851231095245387,41.99856678651699" fill="none" id="id159" stroke="none" /><text fill="#e1ed5e" style="font-size:6.75px; font-family:Arial;" text-anchor="middle"><textPath startOffset="22.20632615414155" xlink:href="#id159">March</textPath></text><path d="M 117.84615892207809 88.93136811851018 l 17.394583140950893 -10.788553344157647 a41.46862002938127,41.46862002938127 0 0,0 0.3710142176377241,0.6098498221763449 l -17.57771315687484 10.487535748774219" fill="#fff316" stroke="none" /><path d="M 118.21658344932153 89.55222093294921 l 10.261292884551787 -5.8851716787809805 a32.829174838139764,32.829174838139764 0 0,0 0.27692559358338986,0.49261973079674204 l -10.361076119427612 5.707668438049445" fill="#ff810b" stroke="none" /><path d="M 118.56541770881063 90.18545643968196 l 13.06915796270554 -6.908964944041018 a35.78298638476466,35.78298638476466 0 0,0 0.28318070430989895,0.547014986118864 l -13.186148100175556 6.682977235661809" fill="#ffa90f" stroke="none" /><path d="M 118.89224826269711 90.83032412892265 l 8.631450965729243 -4.18942237854836 a30.59443618143714,30.59443618143714 0 0,0 0.2258769830458637,0.4757545321071316 l -8.702286142616863 4.040225430800688" fill="#ff6109" stroke="none" /><path d="M 119.04729006885535 91.15688171328212 l 20.381395630949402 -9.46250578225755 a43.47087678628809,43.47087678628809 0 0,0 0.30925944149729834,0.6814121854468819 l -20.541257389410045 9.110271587968604" fill="#f2ff19" stroke="none" /><path d="M 119.47837535516314 92.15188598940014 l 13.760825402661995 -5.544431949321857 a35.83580268820021,35.83580268820021 0 0,0 0.22560591716889367,0.5741424511811088 l -13.854224869712588 5.3067404932449636" fill="#ffaa0f" stroke="none" /><path d="M 119.61058180528143 92.48833698450437 l 8.956026717732028 -3.43052823875222 a30.59056508061993,30.59056508061993 0 0,0 0.184119383872989,0.4933484103811609 l -9.013750690106642 3.275856691341726" fill="#ff6109" stroke="none" /><path d="M 119.85752413597 93.16781622104841 l 11.187092207949398 -3.8490332124707236 a32.83072646712216,32.83072646712216 0 0,0 0.17925999734090484,0.5359645754061786 l -11.251689499062072 3.655895534142231" fill="#ff810b" stroke="none" /><path d="M 119.97218684219823 93.5106431181261 l 22.735243182738273 -7.387128308716575 a44.905249365519886,44.905249365519886 0 0,0 0.23253331516769174,0.7371941545401489 l -22.85903198167417 6.994683987750006" fill="#e0ff1b" stroke="none" /><path d="M 120.37134235888165 94.90015583598534 l 14.932727055287659 -3.738319232189918 a36.393549557833666,36.393549557833666 0 0,0 0.1469037754565073,0.6090109898551448 l -14.994863631004986 3.4807230106753675" fill="#ffb110" stroke="none" /><path d="M 120.53481517161879 95.60439243477599 l 11.567309958163149 -2.476056138633598 a32.82934967231443,32.82934967231443 0 0,0 0.11352811846934474,0.5536034243471551 l -11.608217372547491 2.276577058123031" fill="#ff810b" stroke="none" /><path d="M 120.6074358757038 95.95851677861258 l 22.445871803108005 -4.402033073344507 a43.87345746013003,43.87345746013003 0 0,0 0.1389624410729587,0.7423429168141842 l -22.518319968090825 4.015012079067759" fill="#edff1a" stroke="none" /><path d="M 120.83666639777658 97.38593545837742 l 10.263161910064957 -1.2875652526113794 a31.34361236086989,31.34361236086989 0 0,0 0.06255236807792401,0.5359104896042324 l -10.28380463114647 1.1107110246822944" fill="#ff6c09" stroke="none" /><line stroke="#e1ed5e" stroke-width="0.3" x1="184.98032266829074" x2="189.97916517819016" y1="98.17113171792111" y2="98.06355123074" /><path d="M 185.9800911702706 98.14961562048488 a86.0,86.0 0 0,1 -9.607161424134198,41.387399972396054" fill="none" id="id160" stroke="none" /><text fill="#e1ed5e" style="font-size:6.75px; font-family:Arial;" text-anchor="middle"><textPath startOffset="21.466115282336823" xlink:href="#id160">April</textPath></text><line stroke="#e1ed5e" stroke-width="0.3" x1="174.80103733775053" x2="179.2010983576182" y1="140.37084112569926" y2="142.7455964860345" /><path d="M 175.68104954172406 140.8457921977663 a86.0,86.0 0 0,1 -30.038265399797805,32.042727171017184" fill="none" id="id161" stroke="none" /><text fill="#e1ed5e" style="font-size:6.75px; font-family:Arial;" text-anchor="middle"><textPath startOffset="22.206326154141568" xlink:href="#id161">May</textPath></text><line stroke="#e1ed5e" stroke-width="0.3" x1="143.8653032363475" x2="146.44561519142675" y1="172.8068346515853" y2="177.08958963109032" /><path d="M 144.38136562736335 173.6633856474863 a86.0,86.0 0 0,1 -40.68145358897372,12.25698825130547" fill="none" id="id162" stroke="none" /><text fill="#e1ed5e" style="font-size:6.75px; font-family:Arial;" text-anchor="middle"><textPath startOffset="21.466115282336833" xlink:href="#id162">June</textPath></text><line stroke="#e1ed5e" stroke-width="0.3" x1="102.19456741930631" x2="102.32365962044197" y1="184.97166512339345" y2="189.96999836594603" /><path d="M 102.22038585953345 185.97133177190398 a86.0,86.0 0 0,1 -42.740103519485714,-10.115201625700543" fill="none" id="id163" stroke="none" /><text fill="#e1ed5e" style="font-size:6.75px; font-family:Arial;" text-anchor="middle"><textPath startOffset="22.20632615414155" xlink:href="#id163">July</textPath></text><line stroke="#e1ed5e" stroke-width="0.3" x1="58.666819895761336" x2="56.23545636021788" y1="174.27360380694188" y2="178.64263932499728" /><path d="M 58.180547188652646 175.14741091055294 a86.0,86.0 0 0,1 -31.652253787137756,-30.449443065178592" fill="none" id="id164" stroke="none" /><text fill="#e1ed5e" style="font-size:6.75px; font-family:Arial;" text-anchor="middle"><textPath startOffset="22.20632615414155" xlink:href="#id164">August</textPath></text><line stroke="#e1ed5e" stroke-width="0.3" x1="26.63291911575756" x2="22.317208475507996" y1="142.92168965132927" y2="145.44649492493687" /><path d="M 25.769776987707644 143.4266507060508 a86.0,86.0 0 0,1 -11.730757126820373,-40.83630448921669" fill="none" id="id165" stroke="none" /><text fill="#e1ed5e" style="font-size:6.75px; font-family:Arial;" text-anchor="middle"><textPath startOffset="21.46611528233685" xlink:href="#id165">September</textPath></text><line stroke="#e1ed5e" stroke-width="0.3" x1="15.007084014347285" x2="10.007500721073583" y1="101.09737516637583" y2="101.16192664675087" /><path d="M 14.007167355692545 101.11028546245083 a86.0,86.0 0 0,1 10.666146001902534,-42.60595125391555" fill="none" id="id166" stroke="none" /><text fill="#e1ed5e" style="font-size:6.75px; font-family:Arial;" text-anchor="middle"><textPath startOffset="22.20632615414155" xlink:href="#id166">October</textPath></text><line stroke="#e1ed5e" stroke-width="0.3" x1="26.266209847984243" x2="21.928928074336255" y1="57.711370442889674" y2="55.22380399835377" /><path d="M 25.398753493254645 57.213857153982495 a86.0,86.0 0 0,1 29.58750427330803,-30.492523968695096" fill="none" id="id167" stroke="none" /><text fill="#e1ed5e" style="font-size:6.75px; font-family:Arial;" text-anchor="middle"><textPath startOffset="21.46611528233685" xlink:href="#id167">November</textPath></text><line stroke="#e1ed5e" stroke-width="0.3" x1="56.762969772571076" x2="54.21961505331055" y1="26.818313649435495" y2="22.513508569990535" /><path d="M 56.25429882871897 25.957352633546506 a86.0,86.0 0 0,1 42.265352541879196,-11.944610805530505" fill="none" id="id168" stroke="none" /><text fill="#e1ed5e" style="font-size:6.75px; font-family:Arial;" text-anchor="middle"><textPath startOffset="22.20632615414155" xlink:href="#id168">December</textPath></text></svg>