<?xml version="1.0" encoding="utf-8" ?>
<svg baseProfile="full" height="200mm" version="1.1" viewBox="0,0,200,200" width="200mm" xmlns="http://www.w3.org/2000/svg" xmlns:ev="http://www.w3.org/2001/xml-events" xmlns:xlink="http://www.w3.org/1999/xlink"><defs /><rect fill="#1a1a1a" height="200" width="200" x="0" y="0" /><text alignment-baseline="middle" fill="#e1ed5e" style="dominant-baseline: central; font-size:9.0px; font-family:Arial;" text-anchor="middle" x="100.0" y="100.0">2026</text><line stroke="#e1ed5e" stroke-width="0.3" x1="100.0" x2="100.0" y1="15.0" y2="10.0" /><path d="M 100.0 14.0 a86.0,86.0 0 0,1 42.46469731375804,11.215312516191453" fill="none" id="id157" stroke="none" /><text fill="#e1ed5e" style="font-size:6.75px; font-family:Arial;" text-anchor="middle"><textPath startOffset="22.20632615414155" xlink:href="#id157">January</textPath></text><path d="M 100.0 79.0 l 0.0 -18.83201232123639 a39.83201232123639,39.83201232123639 0 0,0 0.6856426144890374,0.005901542448005884 l -0.32416213521650905 18.829222155396945" fill="#ff980e" stroke="none" /><path d="M 100.72285384407766 79.0124445844662 l 0.5198543439688708 -15.093607015362938 a36.10255677933894,36.10255677933894 0 0,0 0.6208937788115689,0.026736992200384068 l -0.7795889551697712 15.08242229663836" fill="#ff5d08" stroke="none" /><path d="M 101.08401301168833 79.027996857942 l 1.1256089576772434 -21.776744690886563 a42.80581584939347,42.80581584939347 0 0,0 0.7355220423259051,0.04436869821666941 l -1.5002930488427604 21.75414272328959" fill="#ffc412" stroke="none" /><path d="M 101.80526077348638 79.07773832637324 l 1.4416685464869374 -16.708370900889403 a37.770452181131475,37.770452181131475 0 0,0 0.6472684132585095,0.061465935081222264 l -1.7290620868356912 16.681079421293" fill="#ff780b" stroke="none" /><path d="M 102.16513564639614 79.11191278185805 l 1.9519286497593888 -18.831178521137574 a39.93207093660661,39.93207093660661 0 0,0 0.683091879916223,0.07675333187145036 l -2.275787233185337 18.79478923579552" fill="#ff990e" stroke="none" /><path d="M 102.52436894288641 79.15227682838746 l 3.026250188332544 -24.992553625009553 a46.17510530070055,46.17510530070055 0 0,0 0.7882426266619253,0.10233651565557922 l -3.456007543502315 24.936758786189838" fill="#fff517" stroke="none" /><path d="M 103.2404852339499 79.25152402106235 l 2.865991041465508 -18.3506302255895 a39.5730862897387,39.5730862897387 0 0,0 0.6721221001188522,0.11090590548399168 l -3.181442347723235 18.298578057165884" fill="#ff940d" stroke="none" /><path d="M 103.59715602781102 79.31037775812273 l 9.824665339455038 -56.508145033087246 a78.35585849861121,78.35585849861121 0 0,0 1.3268440748703274,0.2424722737086616 l -10.795904535428265 56.33065727802785" fill="#45ffee" stroke="none" /><path d="M 104.307194497241 79.44645832069477 l 3.8627436030320594 -18.432662303094208 a39.83305147135417,39.83305147135417 0 0,0 0.6698729498226544,0.1464082811067126 l -4.179459277008242 18.363440523891626" fill="#ff980e" stroke="none" /><path d="M 104.66035177308747 79.52364482259891 l 2.698114113549529 -11.854801008207465 a33.15796556640674,33.15796556640674 0 0,0 0.555437470227341,0.13145410373788946 l -2.901775270739394 11.806600992328708" fill="#ff2e04" stroke="none" /><path d="M 105.01212808612495 79.60689891045804 l 4.449748771187614 -18.10491969770301 a39.64372230502697,39.64372230502697 0 0,0 0.6612782639471504,0.16857455345487296 l -4.76073592381979 18.02564214807927" fill="#ff950d" stroke="none" /><path d="M 105.71112130821622 79.79150937346287 l 3.15797484625471 -11.174321404724441 a32.611987942883005,32.611987942883005 0 0,0 0.53888946836505,0.15731661313795914 l -3.349854532343187 11.118306462667778" fill="#ff2503" stroke="none" /><path d="M 106.0581310904928 79.89281104454417 l 17.206570984034364 -57.10932445723944 a80.64512574377608,80.64512574377608 0 0,0 1.3257084298254724,0.41190406236474236 l -18.187064786570556 56.804680259992175" fill="#48f6ff" stroke="none" /><path d="M 106.74666289553966 80.11325718540242 l 5.967031417472917 -17.588668798667726 a39.573280110048856,39.573280110048856 0 0,0 0.6431939361811709,0.22439773488961282 l -6.268907357717362 17.483350210605906" fill="#ff940d" stroke="none" /><path d="M 107.08798089147638 80.2323363322302 l 7.564231215712221 -21.095877777726212 a43.41101633343561,43.41101633343561 0 0,0 0.7012278093560345,0.25826812009074807 l -7.926241350840832 20.96254638982914" fill="#ffcd13" stroke="none" /><path d="M 107.76421540070413 80.48803036053334 l 6.983986214667392 -17.55120381779792 a39.889701397866205,39.889701397866205 0 0,0 0.635796499769927,0.2593573561555376 l -7.2850665840257065 17.428385575458805" fill="#ff980e" stroke="none" /><path d="M 108.09893153111575 80.62456947434976 l 3.6324074177565784 -8.689968212869106 a30.418594968956278,30.418594968956278 0 0,0 0.4813615796848558,0.20609390718532264 l -3.78145275523175 8.626154777720993" fill="#ff0000" stroke="none" /><path d="M 108.43124777332544 80.76684994638697 l 25.2937433199763 -57.69945016083909 a84.0,84.0 0 0,0 1.3192715261328791,0.591918677933875 l -26.283196964575957 57.255511152388685" fill="#4dd2ff" stroke="none" /><path d="M 110.05341064243156 81.56283822128135 l 7.172794638130757 -13.154339343365063 a35.98284440555929,35.98284440555929 0 0,0 0.5412435121135841,0.3012014284992926 l -7.398162239316376 13.028922517305592" fill="#ff5b08" stroke="none" /><path d="M 110.36928655335952 81.73862282372117 l 7.4141940681201834 -13.057156212179905 a36.015312252131714,36.015312252131714 0 0,0 0.536462254940395,0.3107535643040704 l -7.637853055525907 12.927598490485783" fill="#ff5c08" stroke="none" /><line stroke="#e1ed5e" stroke-width="0.3" x1="143.23703022742887" x2="145.7803849466894" y1="26.81831364943548" y2="22.513508569990506" /><path d="M 143.74570117128098 25.957352633546492 a86.0,86.0 0 0,1 28.547481713284135,27.462654790039103" fill="none" id="id158" stroke="none" /><text fill="#e1ed5e" style="font-size:6.75px; font-family:Arial;" text-anchor="middle"><textPath startOffset="19.985693538727396" xlink:href="#id158">February</textPath></text><line stroke="#e1ed5e" stroke-width="0.3" x1="172.23445277983987" x2="176.4835382374775" y1="55.19839476539836" y2="52.563006222186495" /><path d="M 173.08426987136738 54.67131705675599 a86.0,86.0 0 0,1 12.851231095245387,41.99856678651699" fill="none" id="id159" stroke="none" /><text fill="#e1ed5e" style="font-size:6.75px; font-family:Arial;" text-anchor="middle"><textPath startOffset="22.20632615414155" xlink:href="#id159">March</textPath></text><line stroke="#e1ed5e" stroke-width="0.3" x1="184.98032266829074" x2="189.97916517819016" y1="98.17113171792111" y2="98.06355123074" /><path d="M 185.9800911702706 98.14961562048488 a86.0,86.0 0 0,1 -9.607161424134198,41.387399972396054" fill="none" id="id160" stroke="none" /><text fill="#e1ed5e" style="font-size:6.75px; font-family:Arial;" text-anchor="middle"><textPath startOffset="21.466115282336823" xlink:href="#id160">April</textPath></text><line stroke="#e1ed5e" stroke-width="0.3" x1="174.80103733775053" x2="179.2010983576182" y1="140.37084112569926" y2="142.7455964860345" /><path d="M 175.68104954172406 140.8457921977663 a86.0,86.0 0 0,1 -30.038265399797805,32.042727171017184" fill="none" id="id161" stroke="none" /><text fill="#e1ed5e" style="font-size:6.75px; font-family:Arial;" text-anchor="middle"><textPath startOffset="22.206326154141568" xlink:href="#id161">May</textPath></text><line stroke="#e1ed5e" stroke-width="0.3" x1="143.8653032363475" x2="146.44561519142675" y1="172.8068346515853" y2="177.08958963109032" /><path d="M 144.38136562736335 173.6633856474863 a86.0,86.0 0 0,1 -40.68145358897372,12.25698825130547" fill="none" id="id162" stroke="none" /><text fill="#e1ed5e" style="font-size:6.75px; font-family:Arial;" text-anchor="middle"><textPath startOffset="21.466115282336833" xlink:href="#id162">June</textPath></text><line stroke="#e1ed5e" stroke-width="0.3" x1="102.19456741930631" x2="102.32365962044197" y1="184.97166512339345" y2="189.96999836594603" /><path d="M 102.22038585953345 185.97133177190398 a86.0,86.0 0 0,1 -42.740103519485714,-10.115201625700543" fill="none" id="id163" stroke="none" /><text fill="#e1ed5e" style="font-size:6.75px; font-family:Arial;" text-anchor="middle"><textPath startOffset="22.20632615414155" xlink:href="#id163">July</textPath></text><line stroke="#e1ed5e" stroke-width="0.3" x1="58.666819895761336" x2="56.23545636021788" y1="174.27360380694188" y2="178.64263932499728" /><path d="M 58.180547188652646 175.14741091055294 a86.0,86.0 0 0,1 -31.652253787137756,-30.449443065178592" fill="none" id="id164" stroke="none" /><text fill="#e1ed5e" style="font-size:6.75px; font-family:Arial;" text-anchor="middle"><textPath startOffset="22.20632615414155" xlink:href="#id164">August</textPath></text><line stroke="#e1ed5e" stroke-width="0.3" x1="26.63291911575756" x2="22.317208475507996" y1="142.92168965132927" y2="145.44649492493687" /><path d="M 25.769776987707644 143.4266507060508 a86.0,86.0 0 0,1 -11.730757126820373,-40.83630448921669" fill="none" id="id165" stroke="none" /><text fill="#e1ed5e" style="font-size:6.75px; font-family:Arial;" text-anchor="middle"><textPath startOffset="21.46611528233685" xlink:href="#id165">September</textPath></text><line stroke="#e1ed5e" stroke-width="0.3" x1="15.007084014347285" x2="10.007500721073583" y1="101.09737516637583" y2="101.16192664675087" /><path d="M 14.007167355692545 101.11028546245083 a86.0,86.0 0 0,1 10.666146001902534,-42.60595125391555" fill="none" id="id166" stroke="none" /><text fill="#e1ed5e" style="font-size:6.75px; font-family:Arial;" text-anchor="middle"><textPath startOffset="22.20632615414155" xlink:href="#id166">October</textPath></text><line stroke="#e1ed5e" stroke-width="0.3" x1="26.266209847984243" x2="21.928928074336255" y1="57.711370442889674" y2="55.22380399835377" /><path d="M 25.398753493254645 57.213857153982495 a86.0,86.0 0 0,1 29.58750427330803,-30.492523968695096" fill="none" id="id167" stroke="none" /><text fill="#e1ed5e" style="font-size:6.75px; font-family:Arial;" text-anchor="middle"><textPath startOffset="21.46611528233685" xlink:href="#id167">November</textPath></text><line stroke="#e1ed5e" stroke-width="0.3" x1="56.762969772571076" x2="54.21961505331055" y1="26.818313649435495" y2="22.513508569990535" /><path d="M 56.25429882871897 25.957352633546506 a86.0,86.0 0 0,1 42.265352541879196,-11.944610805530505" fill="none" id="id168" stroke="none" /><text fill="#e1ed5e" style="font-size:6.75px; font-family:Arial;" text-anchor="middle"><textPath startOffset="22.20632615414155" xlink:href="#id168">December</textPath></text></svg>