<?xml version="1.0" encoding="utf-8" ?>
<svg baseProfile="full" height="200mm" version="1.1" viewBox="0,0,200,200" width="200mm" xmlns="http://www.w3.org/2000/svg" xmlns:ev="http://www.w3.org/2001/xml-events" xmlns:xlink="http://www.w3.org/1999/xlink"><defs /><rect fill="#1a1a1a" height="200" width="200" x="0" y="0" /><text alignment-baseline="middle" fill="#e1ed5e" style="dominant-baseline: central; font-size:9.0px; font-family:Arial;" text-anchor="middle" x="100.0" y="100.0">2024</text><line stroke="#e1ed5e" stroke-width="0.3" x1="100.0" x2="100.0" y1="15.0" y2="10.0" /><path d="M 100.0 14.0 a86.0,86.0 0 0,1 42.35913384403234,11.155469271406648" fill="none" id="id133" stroke="none" /><text fill="#e1ed5e" style="font-size:6.75px; font-family:Arial;" text-anchor="middle"><textPath startOffset="22.145653131862478" xlink:href="#id133">January</textPath></text><path d="M 101.44090949804482 79.04949213459386 l 1.596864659862612 -23.21806169078374 a44.27291054893989,44.27291054893989 0 0,0 0.7577646068015064,0.05865577300475014 l -1.995198261439352 23.187228150783938" fill="#f3ff19" stroke="none" /><path d="M 102.15924093988457 79.11130261209362 l 3.1212473376892778 -30.195236624813724 a51.356127878428836,51.356127878428836 0 0,0 0.8761455643637857,0.09817393795172752 l -3.63912880365386 30.137206926355024" fill="#9dff22" stroke="none" /><path d="M 102.87502721639298 79.19773525538626 l 2.8483723351101693 -20.609403301765578 a41.80530531893841,41.80530531893841 0 0,0 0.7100429933176651,0.10435186834434636 l -3.2017404340355164 20.55747036012235" fill="#ffeb16" stroke="none" /><path d="M 103.23170211078529 79.25015418208739 l 3.9968940457571773 -25.662926952088842 a46.972311829355064,46.972311829355064 0 0,0 0.7956718119670465,0.13092749387054303 l -4.436843360777295 25.59053345972263" fill="#d1ff1c" stroke="none" /><path d="M 103.94208987418118 79.37332000966035 l 5.7483689045122 -30.077895137898413 a51.62227164971233,51.62227164971233 0 0,0 0.8689835453832836,0.17382104638023527 l -6.263848935426441 29.974784694855316" fill="#9aff23" stroke="none" /><path d="M 104.64783097203109 79.52079915486377 l 8.583766401306622 -37.82165857534868 a59.78348750463845,59.78348750463845 0 0,0 0.9988620715557615,0.2357287291267446 l -9.23176062660227 37.66873370257571" fill="#40ff2d" stroke="none" /><path d="M 105.3480935250658 79.69241777938227 l 11.378449085699494 -43.205824518207535 a65.67899255683815,65.67899255683815 0 0,0 1.087827389482866,0.29649219235708707 l -12.118457876117052 43.00413183170631" fill="#35ff65" stroke="none" /><path d="M 106.38641147887787 79.99465700312896 l 4.40600102912477 -13.80173546971249 a35.48795178914426,35.48795178914426 0 0,0 0.5787531702492871,0.1902476625595877 l -4.6422769370217996 13.724066885750881" fill="#ff960d" stroke="none" /><path d="M 107.06938296918511 80.22567764915836 l 6.406849889084073 -17.92109941029353 a40.03190819583995,40.03190819583995 0 0,0 0.6451062863551617,0.23689196400275322 l -6.713545327093359 17.808476597282056" fill="#ffd413" stroke="none" /><path d="M 108.07796709384702 80.6158196554323 l 6.63692822755942 -15.926211657256866 a38.253783180784424,38.253783180784424 0 0,0 0.6039815592754028,0.25780381269113367 l -6.909344862005254 15.80993319490633" fill="#ffbc11" stroke="none" /><path d="M 108.4095320186766 80.7573450057729 l 8.315707246975704 -19.027965555178326 a41.76570394151032,41.76570394151032 0 0,0 0.6545015898786078,0.29275023622856683 l -8.641122239709944 18.88241156803991" fill="#ffeb16" stroke="none" /><path d="M 109.3889696526874 81.21577127319529 l 19.537759579281897 -39.08860698484679 a64.69946504699611,64.69946504699611 0 0,0 0.9892017617278208,0.5050934678798299 l -20.2058885627233 38.747455565294125" fill="#34ff59" stroke="none" /><path d="M 110.02825361518725 81.54914285379988 l 8.19803419292915 -15.083459551154888 a38.16736778483414,38.16736778483414 0 0,0 0.5729754531882186,0.3178198252440385 l -8.45575383427347 14.940506810477704" fill="#ffbb11" stroke="none" /><path d="M 110.34350942703115 81.72400993836675 l 8.216560090121371 -14.517874383662841 a37.68174260484764,37.68174260484764 0 0,0 0.5602154221609145,0.3234405247887838 l -8.464567980142684 14.374686961597885" fill="#ffb410" stroke="none" /><line stroke="#e1ed5e" stroke-width="0.3" x1="143.13028292997686" x2="145.6673583964461" y1="26.7553504044142" y2="22.446841604673864" /><path d="M 143.63769802327073 25.89364864446614 a86.0,86.0 0 0,1 29.32050498858742,28.57503671076993" fill="none" id="id134" stroke="none" /><text fill="#e1ed5e" style="font-size:6.75px; font-family:Arial;" text-anchor="middle"><textPath startOffset="20.669276256404974" xlink:href="#id134">February</textPath></text><path d="M 110.65571695917076 81.90426304109057 l 8.548241493046556 -14.516782879285829 a37.84664411055712,37.84664411055712 0 0,0 0.5570075223238907,0.3344670130294781 l -8.79618177192788 14.36790186572043" fill="#ffb710" stroke="none" /><path d="M 111.27062007382361 82.28071324371311 l 6.798052255956989 -10.687667272831733 a33.666481208665665,33.666481208665665 0 0,0 0.48498067985575416,0.31435861731215575 l -6.98051856806975 10.569394813815682" fill="#ff7c0b" stroke="none" /><path d="M 111.5731344415666 82.4767994020092 l 24.859889994925048 -37.6410419687553 a66.1094465833197,66.1094465833197 0 0,0 0.9415990888059027,0.6335498891807896 l -25.502385371827952 37.2087424055174" fill="#36ff6a" stroke="none" /><path d="M 112.16784306229584 82.88440491214696 l 15.59247794606938 -21.932772930656768 a47.910442154048866,47.910442154048866 0 0,0 0.6662266147791337,0.4822966911686121 l -15.966685571222483 21.66187546811508" fill="#c6ff1e" stroke="none" /><path d="M 112.45986205192187 83.09580414077388 l 17.623332633329127 -23.909435376143332 a50.702574856583354,50.702574856583354 0 0,0 0.6961874244963782,0.5224320222707908 l -18.03117304673627 23.603384326608527" fill="#a4ff21" stroke="none" /><path d="M 113.31354834802062 83.75963576809568 l 9.204747587935872 -11.2282953862594 a35.51902184855114,35.51902184855114 0 0,0 0.46821794634016434,0.39060406358528416 l -9.39613986843793 11.068629138762246" fill="#ff970d" stroke="none" /><path d="M 114.65682725009322 84.96080404539774 l 8.568016698519884 -8.791539933755127 a33.27607773488449,33.27607773488449 0 0,0 0.40566403650066113,0.40219684334755784 l -8.717672655150507 8.64316308017891" fill="#ff770a" stroke="none" /><path d="M 115.8921839302757 86.27271002978787 l 13.028414914338958 -11.253634501464298 a38.21580334090505,38.21580334090505 0 0,0 0.4245692704464863,0.5001415330217187 l -13.219678748292557 11.028326185993027" fill="#ffbc11" stroke="none" /><path d="M 116.35404254752997 86.82634096563983 l 14.502651215373614 -11.682309230291 a39.62265397914379,39.62265397914379 0 0,0 0.42213894296229826,0.5333587642416031 l -14.701056588977472 11.43163052213472" fill="#ffcf13" stroke="none" /><path d="M 116.7966241395341 87.39550010848427 l 34.15519982737781 -25.630698701270273 a63.70258061479899,63.70258061479899 0 0,0 0.6488501590859065,0.880289856081216 l -34.59015200604754 25.04060253592018" fill="#32ff4d" stroke="none" /><path d="M 117.42321728460499 88.27688183743584 l 11.691680463844307 -7.866684399195171 a35.091845709671226,35.091845709671226 0 0,0 0.33199486360363345,0.5026825378900133 l -11.824999766368665 7.664821982966099" fill="#ff910d" stroke="none" /><path d="M 117.81537515405839 88.88188828441811 l 11.271431572712011 -7.034206932847077 a34.28628002386082,34.28628002386082 0 0,0 0.3073226800068285,0.5019885015951104 l -11.390522217174242 6.839681315127412" fill="#ff850c" stroke="none" /><line stroke="#e1ed5e" stroke-width="0.3" x1="172.87174338648825" x2="177.1583165268699" y1="56.24261187166439" y2="53.66864786411523" /><path d="M 173.72905801456457 55.72781907015455 a86.0,86.0 0 0,1 12.242430191666344,42.057860355516425" fill="none" id="id135" stroke="none" /><text fill="#e1ed5e" style="font-size:6.75px; font-family:Arial;" text-anchor="middle"><textPath startOffset="22.145653131862474" xlink:href="#id135">March</textPath></text><path d="M 118.00360718960297 89.18935116829356 l 6.243700373816275 -3.7491626783938132 a28.28285762232481,28.28285762232481 0 0,0 0.24636562913237603,0.41838269893785157 l -6.307139713078419 3.641428811162405" fill="#ff2e04" stroke="none" /><path d="M 118.36410011445183 89.81374322990088 l 55.092300343355504 -30.558770310297362 a84.0,84.0 0 0,0 0.6886186015386349,1.2669806661015868 l -55.60876429450948 29.60853481072117" fill="#4dd2ff" stroke="none" /><path d="M 119.4528033332814 92.08871423366111 l 19.21833341976702 -7.815928893725706 a41.74688130551458,41.74688130551458 0 0,0 0.26428027222795414,0.6661589266659029 l -19.349672366961098 7.484868949846238" fill="#ffeb16" stroke="none" /><path d="M 119.83427380445688 93.10060997987247 l 17.5549913787694 -6.106537275636995 a39.58675657040281,39.58675657040281 0 0,0 0.2177546426927377,0.6437529086567401 l -17.657231443034505 5.804282692506094" fill="#ffce13" stroke="none" /><path d="M 119.94978838288452 93.4421083053983 l 15.454911787352875 -5.080336478056858 a37.268500763288976,37.268500763288976 0 0,0 0.19456869874946164,0.6094836776195054 l -15.539845201879595 4.814283766745965" fill="#ffaf10" stroke="none" /><path d="M 120.16314734710363 94.1308016681162 l 22.01334654217883 -6.407764352478196 a43.92698998959408,43.92698998959408 0 0,0 0.20453558665748803,0.7258246406276575 l -22.1201006209109 6.028931787947526" fill="#f7ff18" stroke="none" /><path d="M 120.35273937422433 94.82641323984039 l 16.28816446262952 -4.140387712028763 a37.806162916251466,37.806162916251466 0 0,0 0.15448763584626685,0.6303622732877567 l -16.356839624992077 3.860169614132911" fill="#ffb610" stroke="none" /><path d="M 120.43855184770803 95.1765574152323 l 16.205978781087026 -3.8245668657441003 a37.65115791660119,37.65115791660119 0 0,0 0.14305492626294558,0.6303264005198477 l -16.269244568907638 3.5458061312852265" fill="#ffb410" stroke="none" /><path d="M 120.592083275326 95.88100663000786 l 15.52760475168749 -3.105955826271134 a36.83519721757123,36.83519721757123 0 0,0 0.11870354143957249,0.6211070881539982 l -15.578634585409219 2.8389461730838215" fill="#ffa90f" stroke="none" /><path d="M 120.7213421655516 96.59031103205396 l 30.306907445450854 -4.9869900870180786 a51.71447067808822,51.71447067808822 0 0,0 0.13662103181332244,0.8772050295569037 l -30.38804996940244 4.465996875529734" fill="#99ff23" stroke="none" /><path d="M 120.82617615685814 97.30363454192243 l 17.693907231574137 -2.290830535491011 a38.841587868289345,38.841587868289345 0 0,0 0.0799358282871154,0.6619833283997909 l -17.730625146120914 1.986753530167807" fill="#ffc412" stroke="none" /><path d="M 120.9064616781168 98.02013634271609 l 15.868769599699206 -1.5027889797890623 a36.93976860955369,36.93976860955369 0 0,0 0.05436544886214367,0.6318089237792806 l -15.89222867125909 1.2301590086341199" fill="#ffaa0f" stroke="none" /><line stroke="#e1ed5e" stroke-width="0.3" x1="184.99686870605535" x2="189.99668451229388" y1="99.2704041080226" y2="99.22748670261217" /><path d="M 185.99683186730306 99.26182062694052 a86.0,86.0 0 0,1 -10.086455211305974,41.156179273409016" fill="none" id="id136" stroke="none" /><text fill="#e1ed5e" style="font-size:6.75px; font-family:Arial;" text-anchor="middle"><textPath startOffset="21.40746469413373" xlink:href="#id136">April</textPath></text><path d="M 120.99922638620191 99.81974689727618 l 16.82704174048213 -0.14443991543318302 a37.827661650541295,37.827661650541295 0 0,0 0.0,0.6493860363140177 l -16.82704174048213 -0.144439915433181" fill="#ffb610" stroke="none" /><path d="M 120.93736805541906 101.62068470465957 l 15.984224085298521 1.2372800355004276 a37.03203921824311,37.03203921824311 0 0,0 -0.05450124649290865,0.6333870980929591 l -15.960629216107872 -1.5114881809690441" fill="#ffac0f" stroke="none" /><path d="M 120.9064616781168 101.97986365728391 l 23.59964727875435 2.2349111337588 a44.70523527530188,44.70523527530188 0 0,0 -0.07891029119998416,0.763385485714325 l -23.5578045950727 -2.6397011417560563" fill="#edff19" stroke="none" /><path d="M 120.82617615685814 102.69636545807757 l 16.122769734183322 2.087415331185253 a37.257337010296766,37.257337010296766 0 0,0 -0.08756447047660267,0.6335728881765078 l -16.08456074715151 -2.3638765275618456" fill="#ffaf10" stroke="none" /><path d="M 120.77682067341334 103.0534771498775 l 17.68418063620567 2.5989655653166297 a38.87413960960508,38.87413960960508 0 0,0 -0.10269901237855053,0.6594013307708588 l -17.636960131688856 -2.9021550780189393" fill="#ffc512" stroke="none" /><path d="M 120.65975698304385 103.76489593502545 l 15.794902137030881 2.8783573252404766 a37.05502645311269,37.05502645311269 0 0,0 -0.11941195379356218,0.624813800936661 l -15.74316389095516 -3.149073691210452" fill="#ffac0f" stroke="none" /><path d="M 120.43855184770803 104.8234425847677 l 16.55992219403864 3.908096547462736 a38.01482417472786,38.01482417472786 0 0,0 -0.1553402900705481,0.6338413934918176 l -16.490394377451796 -4.191793765562653" fill="#ffb911" stroke="none" /><path d="M 120.35273937422433 105.17358676015961 l 15.621414581007008 3.9709024994254483 a37.11820896289788,37.11820896289788 0 0,0 -0.16227819221343662,0.6161967279633502 l -15.550946907988841 -4.238479731761601" fill="#ffad10" stroke="none" /><path d="M 120.16314734710363 105.8691983318838 l 15.271278731490108 4.445246672735807 a36.90509893324562,36.90509893324562 0 0,0 -0.1822825081898265,0.6067591855911342 l -15.192719903296652 -4.7067434619176645" fill="#ffaa0f" stroke="none" /><path d="M 120.05942366710727 106.21446072829308 l 28.597881967154468 8.859696935792913 a50.93882233491152,50.93882233491152 0 0,0 -0.26593772688856876,0.8330461417667427 l -28.441579524488642 -9.34931211125104" fill="#a2ff22" stroke="none" /><path d="M 119.71291397450082 107.23885506374661 l 27.20205600663795 9.988971753373471 a49.97811946413985,49.97811946413985 0 0,0 -0.30265158459499336,0.8028192853095275 l -27.026573738228517 -10.454459318877158" fill="#adff20" stroke="none" /><path d="M 119.58574465831526 107.57618678355244 l 15.276674961820222 5.909346055587995 a37.37977926267013,37.37977926267013 0 0,0 -0.23663416117395958,0.5964726670334414 l -15.172982125680138 -6.170719739835" fill="#ffb010" stroke="none" /><path d="M 119.31412917781788 108.2440532568976 l 14.86268459063335 6.343996261885627 a37.16000253129525,37.16000253129525 0 0,0 -0.2554593004610869,0.5845408725386878 l -14.751591408155297 -6.598199204200159" fill="#ffad10" stroke="none" /><path d="M 119.16976305983485 108.57439118712176 l 14.715233693103313 6.581936860708872 a37.120173556168716,37.120173556168716 0 0,0 -0.2651715571762784,0.5794477082769076 l -14.600077671071979 -6.833573551200469" fill="#ffad10" stroke="none" /><path d="M 118.8641267826498 109.22738970284198 l 33.81870884746165 16.542425174405235 a58.647800716113245,58.647800716113245 0 0,0 -0.45013607663638855,0.9005736874763609 l -33.52975285761353 -17.12053071804534" fill="#4cff2c" stroke="none" /><path d="M 118.70294669586154 109.54985784667822 l 10.188516542363475 5.202329142585341 a32.439846932621386,32.439846932621386 0 0,0 -0.2574981298740823,0.49378661643463306 l -10.097710343514445 -5.376462002124477" fill="#ff6b09" stroke="none" /><path d="M 118.5362547648365 109.86951160357373 l 14.025080526409653 7.467565414510901 a36.8892232973256,36.8892232973256 0 0,0 -0.3024119685577515,0.5564039607763781 l -13.894823208236563 -7.7072242087618825" fill="#ffaa0f" stroke="none" /><line stroke="#e1ed5e" stroke-width="0.3" x1="174.33088141563837" x2="178.70328620479359" y1="141.23008692659167" y2="143.65538615756765" /><path d="M 175.20536237346943 141.71514677278685 a86.0,86.0 0 0,1 -30.301960400862466,31.631185727798858" fill="none" id="id137" stroke="none" /><text fill="#e1ed5e" style="font-size:6.75px; font-family:Arial;" text-anchor="middle"><textPath startOffset="22.145653131862474" xlink:href="#id137">May</textPath></text><path d="M 118.18653347947321 110.5 l 15.432641246819443 8.910039578158123 a38.820079156316254,38.820079156316254 0 0,0 -0.3381530025016076,0.5742577255553132 l -15.27741453418807 -9.173648472006986" fill="#ffc412" stroke="none" /><path d="M 118.00360718960297 110.81064883170644 l 13.69176818876208 8.221513400898655 a36.970529068755155,36.970529068755155 0 0,0 -0.33138275913201976,0.5412888326609693 l -13.548617465174654 -8.45533934968418" fill="#ffab0f" stroke="none" /><path d="M 117.62189284568427 111.42229804090321 l 9.677649117959827 6.272935236222001 a32.53284912448716,32.53284912448716 0 0,0 -0.30778485968165864,0.4660255062669142 l -9.568539819357442 -6.438140620827977" fill="#ff6c0a" stroke="none" /><path d="M 117.423217284605 111.72311816256416 l 12.945373037355965 8.710224713175675 a36.60290670453166,36.60290670453166 0 0,0 -0.35524038327499396,0.5183063356856914 l -12.793942917265651 -8.93116578393141" fill="#ffa60f" stroke="none" /><path d="M 117.21940702142032 112.02048342749411 l 13.59212134375964 9.488356315284731 a37.576328549751,37.576328549751 0 0,0 -0.3737679850819316,0.5257514792648895 l -13.427238260147748 -9.720285021259125" fill="#ffb310" stroke="none" /><path d="M 117.01052211995028 112.31430620078461 l 13.618473810351354 9.858724811941435 a37.81241457497451,37.81241457497451 0 0,0 -0.38514281486886054,0.5225201971889119 l -13.447228975898664 -10.091051318399224" fill="#ffb610" stroke="none" /><path d="M 116.57777611688842 112.89097897827486 l 11.258476702794479 8.754659580380538 a35.261744705179474,35.261744705179474 0 0,0 -0.3756779049855152,0.4746567605202984 l -11.106532367167402 -8.946636284815519" fill="#ff930d" stroke="none" /><path d="M 116.1254893667686 113.45245675266167 l 30.861347137803463 25.745633404201904 a61.19030214546249,61.19030214546249 0 0,0 -0.6798109595799369,0.8008156010248215 l -30.414841614716412 -26.271615787676282" fill="#31ff2f" stroke="none" /><path d="M 115.41159269507618 114.26474011684316 l 8.56516451286418 7.9277884026256435 a32.670984195398155,32.670984195398155 0 0,0 -0.3844972928565478,0.4083228006714575 l -8.427811386271372 -8.073652663241598" fill="#ff6e0a" stroke="none" /><path d="M 114.13192950727249 115.5334660781643 l 18.845623916815004 20.714641951974116 a49.00453413310987,49.00453413310987 0 0,0 -0.6271062936092449,0.5607623146746878 l -18.487252596382383 -21.03509979653219" fill="#b9ff1f" stroke="none" /><path d="M 113.59037401385872 116.0094264158162 l 10.578135607043057 12.461017146753075 a37.34545506410471,37.34545506410471 0 0,0 -0.4922943078165627,0.4106894206343681 l -10.3626669650646 -12.640768751299314" fill="#ffb010" stroke="none" /><path d="M 113.31354834802062 116.24036423190432 l 10.982602698677248 13.39698954616645 a38.323304850319005,38.323304850319005 0 0,0 -0.5123446816270416,0.412708608541675 l -10.751007246694954 -13.58354644850153" fill="#ffbd11" stroke="none" /><path d="M 113.03279911837588 116.46651593811092 l 11.416670786430071 14.424590585444662 a39.39590132076775,39.39590132076775 0 0,0 -0.5338896065724896,0.4151557872731861 l -11.167371235222351 -14.61844742433864" fill="#ffcc13" stroke="none" /><path d="M 112.45986205192187 116.90419585922612 l 18.53718589013041 25.149252829594015 a52.242794026976725,52.242794026976725 0 0,0 -0.7264708536666024,0.5259088742199094 l -18.102734026089838 -25.463762475187" fill="#93ff23" stroke="none" /><path d="M 111.8722381534696 117.32195027204791 l 10.666001784931415 15.562015361540093 a39.86636997911813,39.86636997911813 0 0,0 -0.5678180590882107,0.38205333106937733 l -10.3972874377462 -15.742818366666592" fill="#ffd213" stroke="none" /><path d="M 111.5731344415666 117.5232005979908 l 11.903767423260076 18.023821073090218 a42.59994918840873,42.59994918840873 0 0,0 -0.6136712711721419,0.3977743038078265 l -11.592610519830925 -18.22550921860194" fill="#fff617" stroke="none" /><path d="M 111.27062007382361 117.71928675628689 l 12.427684930810837 19.5383848948353 a44.15590285517347,44.15590285517347 0 0,0 -0.6430694770851759,0.40132291491403405 l -12.090451324935948 -19.74884360659088" fill="#f4ff19" stroke="none" /><line stroke="#e1ed5e" stroke-width="0.3" x1="143.1302829299769" x2="145.66735839644613" y1="173.24464959558577" y2="177.55315839532614" /><path d="M 143.63769802327073 174.10635135553383 a86.0,86.0 0 0,1 -40.68552437913181,11.842963189579606" fill="none" id="id138" stroke="none" /><text fill="#e1ed5e" style="font-size:6.75px; font-family:Arial;" text-anchor="middle"><textPath startOffset="21.407464694133747" xlink:href="#id138">June</textPath></text><path d="M 110.65571695917076 118.09573695890943 l 15.593943321080696 26.4819249208341 a51.73212351618045,51.73212351618045 0 0,0 -0.7691027912060828,0.4440417035373262 l -15.137048062014214 -26.7457135216476" fill="#98ff23" stroke="none" /><path d="M 110.02825361518725 118.45085714620011 l 8.183304621007798 15.056358797845855 a38.136522831942244,38.136522831942244 0 0,0 -0.5778794329588322,0.3076882488620744 l -7.923636372262412 -15.194617514430497" fill="#ffbb11" stroke="none" /><path d="M 109.71004243097381 118.62028667847754 l 8.002517445350062 15.345882372935412 a38.307119669867134,38.307119669867134 0 0,0 -0.5856844447883105,0.2990546506758001 l -7.737905778848169 -15.480994975284048" fill="#ffbd11" stroke="none" /><path d="M 108.73861861582097 119.09545874513695 l 6.015586334862632 13.14514178215881 a35.4562108252904,35.4562108252904 0 0,0 -0.5556268461013476,0.24852482097296708 l -5.789046085905657 -13.246470354041627" fill="#ff960d" stroke="none" /><path d="M 108.4095320186766 119.2426549942271 l 12.344440797551542 28.246496337298865 a51.82612161685756,51.82612161685756 0 0,0 -0.8182725770524509,0.3492719056485765 l -11.857733145328659 -28.454242892606846" fill="#97ff23" stroke="none" /><path d="M 107.74402155503746 119.51999308798841 l 6.359294475666465 16.029576277295327 a38.24493960145617,38.24493960145617 0 0,0 -0.6123337863461537,0.23686386298663195 l -6.083188426826782 -16.13638002842" fill="#ffbc11" stroke="none" /><path d="M 107.06938296918513 119.77432235084164 l 5.7361228891372615 16.044956617609298 a38.039475891595046,38.039475891595046 0 0,0 -0.6167724750247934,0.21454548327951584 l -5.459844642067447 -16.141060533457402" fill="#ffb911" stroke="none" /><path d="M 106.38641147887787 120.00534299687104 l 4.842653495104676 15.169543100218064 a36.92376622357359,36.92376622357359 0 0,0 -0.605478322321233,0.18757873198860017 l -4.581534539911819 -15.250438420013309" fill="#ffaa0f" stroke="none" /><path d="M 105.69591212413111 120.21278271476187 l 4.800108452974691 17.033891509003883 a38.697302085369785,38.697302085369785 0 0,0 -0.640935304711439,0.17468976741180556 l -4.5069917473285575 -17.113781770559832" fill="#ffc212" stroke="none" /><path d="M 104.9986988182912 120.39639698878246 l 3.974390461502612 16.21686934700118 a37.69678504857116,37.69678504857116 0 0,0 -0.6298376086153756,0.148639960674334 l -3.6954206991473573 -16.282705451321736" fill="#ffb510" stroke="none" /><path d="M 104.64783097203109 120.47920084513623 l 2.663270383065639 11.734860714151504 a33.03328571562443,33.03328571562443 0 0,0 -0.554074511028627,0.12075796083051162 l -2.461433455417876 -11.778850133115734" fill="#ff730a" stroke="none" /><path d="M 103.94208987418118 120.62667999033965 l 3.218207704033105 16.83902259263553 a38.1437902081654,38.1437902081654 0 0,0 -0.644203691311979,0.11739537211108102 l -2.928669279170069 -16.891786138677972" fill="#ffbb11" stroke="none" /><path d="M 102.875027216393 120.80226474461374 l 3.8390122267721862 27.777180071121787 a49.04121515877712,49.04121515877712 0 0,0 -0.8349200981280533,0.10809712238537143 l -3.3616143067533577 -27.838988789707553" fill="#b8ff1f" stroke="none" /><path d="M 102.51750503828377 120.84855314841334 l 2.0677566869103967 17.12399162244667 a38.24838273003839,38.24838273003839 0 0,0 -0.6525248740002267,0.0731167731683667 l -1.773495911309371 -17.156964156122008" fill="#ffbc11" stroke="none" /><path d="M 102.15924093988457 120.88869738790638 l 0.44257395524625176 4.281501546280428 a25.304314950914257,25.304314950914257 0 0,0 -0.4324633182917244,0.0409547258726433 l -0.36901107356951207 -4.288468027658255" fill="#ff0100" stroke="none" /><path d="M 101.80034050326958 120.92268563240118 l 1.478171598497583 17.178594610265158 a38.24207365888558,38.24207365888558 0 0,0 -0.6545422370044152,0.05066570875856361 l -1.1830603667179318 -17.201438086018772" fill="#ffbc11" stroke="none" /><path d="M 101.08105385017728 120.97215588758144 l 1.2653602424228374 24.54765065929671 a45.580241850599734,45.580241850599734 0 0,0 -0.7817537590557141,0.033571870093249 l -0.8437807227662938 -24.565755097815792" fill="#e2ff1b" stroke="none" /><line stroke="#e1ed5e" stroke-width="0.3" x1="101.45913802915013" x2="101.54496967792366" y1="184.9874750549273" y2="189.98673829345242" /><path d="M 101.47630435890484 185.9873277026323 a86.0,86.0 0 0,1 -42.54439059252881,-10.42667462771756" fill="none" id="id139" stroke="none" /><text fill="#e1ed5e" style="font-size:6.75px; font-family:Arial;" text-anchor="middle"><textPath startOffset="22.145653131862474" xlink:href="#id139">July</textPath></text><path d="M 100.36049292484886 120.99690560180557 l 0.2894187728763269 16.857192567711348 a37.85967687979209,37.85967687979209 0 0,0 -0.6499116977251771,0.005578710275177037 l -2.064714932549602e-15 -16.85967687979209" fill="#ffb711" stroke="none" /><path d="M 100.0 121.0 l 2.0782636759842394e-15 16.97031076577514 a37.97031076577514,37.97031076577514 0 0,0 -0.6518108754940066,-0.005595012432178431 l 0.2913179506451524 -16.967810151537396" fill="#ffb811" stroke="none" /><path d="M 99.27912038922189 120.98762331915562 l -0.5954486727595911 17.335838415904618 a38.34606159058146,38.34606159058146 0 0,0 -0.657679217492432,-0.02824357541863244 l 0.8929536508528618 -17.32306227206016" fill="#ffbd11" stroke="none" /><path d="M 98.91894614982273 120.97215588758144 l -0.748773492385921 14.526005715840453 a35.54529146492188,35.54529146492188 0 0,0 -0.609103518511928,-0.03664215513621068 l 0.9980213630302953 -14.51101158287955" fill="#ff970d" stroke="none" /><path d="M 98.19965949673042 120.92268563240118 l -2.1152083527296544 24.581927324758308 a45.67276347260591,45.67276347260591 0 0,0 -0.7805702262729136,-0.07392081198384975 l 2.5368781423875832 -24.541994757269272" fill="#e1ff1b" stroke="none" /><path d="M 97.48249496171623 120.84855314841334 l -2.044859906049577 16.9343734308462 a38.05738712495905,38.05738712495905 0 0,0 -0.64792190181241,-0.08388646203799599 l 2.3352596297527812 -16.896775372607806" fill="#ffba11" stroke="none" /><path d="M 97.12497278360702 120.80226474461374 l -1.9051106930235118 13.784431944887958 a34.91545941735019,34.91545941735019 0 0,0 -0.5930222762067877,-0.08715385275875835 l 2.1414580748379843 -13.749697018830318" fill="#ff8e0d" stroke="none" /><path d="M 96.41257539226777 120.69131181640829 l -3.0127197491173705 17.37656691379083 a38.63580329886257,38.63580329886257 0 0,0 -0.6525132129266684,-0.11890964375400205 l 3.310567695595096 -17.322289096105457" fill="#ffc112" stroke="none" /><path d="M 95.70440661134978 120.55596938700252 l -5.296589868513498 25.34609990795311 a46.89360239092237,46.89360239092237 0 0,0 -0.7865566277238848,-0.17142635611467952 l 5.730908912856519 -25.251442093704714" fill="#d2ff1c" stroke="none" /><path d="M 95.00130118170881 120.39639698878247 l -4.085134799120519 16.668744036080163 a38.16203234081976,38.16203234081976 0 0,0 -0.6349339095068731,-0.16139771690690966 l 4.3706740018527706 -16.596161087337993" fill="#ffbb11" stroke="none" /><path d="M 94.6519064749342 120.30758222061772 l -3.6664509031898502 13.922111276741333 a35.39680675106358,35.39680675106358 0 0,0 -0.5862698921685838,-0.15979046613695436 l 3.904902196293129 -13.857120316460234" fill="#ff950d" stroke="none" /><path d="M 93.95794788825049 120.11202640906438 l -4.899175180192202 16.3077608044873 a38.02777084361261,38.02777084361261 0 0,0 -0.6235818619528085,-0.1931872548430199 l 5.178397675016645 -16.221256961837632" fill="#ffb911" stroke="none" /><path d="M 92.59220618246901 119.65005319985036 l -5.027066241938751 13.334890458140789 a35.25098938780934,35.25098938780934 0 0,0 -0.5643981146060848,-0.21832131538205846 l 5.255236619038365 -13.24662925462069" fill="#ff930d" stroke="none" /><path d="M 91.59046798132341 119.24265499422711 l -13.103263924112698 29.982832151661466 a53.721029160154146,53.721029160154146 0 0,0 -0.8418509848289679,-0.37654923760176173 l 13.616028311797299 -29.75347916314985" fill="#82ff25" stroke="none" /><path d="M 90.93487009805054 118.94263497670748 l -8.446566979979634 17.650076373826316 a40.56705623616348,40.56705623616348 0 0,0 -0.6255821609376568,-0.3060035832364665 l 8.74830939017936 -17.502479040492627" fill="#ffdb14" stroke="none" /><path d="M 90.28995756902619 118.62028667847754 l -6.420473715402073 12.31210492047528 a34.88561883039285,34.88561883039285 0 0,0 -0.5286187657160917,-0.28145971817343124 l 6.630881296904727 -12.200074734579276" fill="#ff8e0d" stroke="none" /><path d="M 89.97174638481275 118.45085714620012 l -6.80669039002735 12.52354366413406 a35.253777743923294,35.253777743923294 0 0,0 -0.5292361106297552,-0.29355834924036317 l 7.020670688813207 -12.404852399460548" fill="#ff930d" stroke="none" /><line stroke="#e1ed5e" stroke-width="0.3" x1="58.13341422392154" x2="55.67067388415222" y1="173.97424548756322" y2="178.32567169271397" /><path d="M 57.64086615596768 174.84453072859336 a86.0,86.0 0 0,1 -31.369924170532247,-30.572349798747897" fill="none" id="id140" stroke="none" /><text fill="#e1ed5e" style="font-size:6.75px; font-family:Arial;" text-anchor="middle"><textPath startOffset="22.145653131862474" xlink:href="#id140">August</textPath></text><path d="M 88.72937992617639 117.7192867562869 l -7.749106033867943 12.182881777541509 a35.438533607319044,35.438533607319044 0 0,0 -0.5105078851408017,-0.33090504336698146 l 7.957099551265755 -12.048062892470632" fill="#ff950d" stroke="none" /><path d="M 87.83215693770417 117.11559508785305 l -8.408068931200258 11.827001923053091 a35.51115424904982,35.51115424904982 0 0,0 -0.49380625639343817,-0.3574776483762487 l 8.60985619796765 -11.680923503303775" fill="#ff960d" stroke="none" /><path d="M 86.13680546590413 115.77377054828092 l -5.021950983859901 5.714058352805622 a28.6072632755518,28.6072632755518 0 0,0 -0.3660843870958181,-0.3273549163294311 l 5.11930039777909 -5.627007906592809" fill="#ff3304" stroke="none" /><path d="M 85.34317274990678 115.03919595460226 l -11.922108612774547 12.233133717150656 a38.08175150025551,38.08175150025551 0 0,0 -0.4642493371270634,-0.46028141791759936 l 12.130349870031573 -12.026672289004397" fill="#ffba11" stroke="none" /><path d="M 83.20337586046588 112.60449989151573 l -3.5666889524867766 2.676509883249484 a25.45925725193371,25.45925725193371 0 0,0 -0.2593182718611591,-0.35181503929579444 l 3.612109243931766 -2.61488853468481" fill="#ff0300" stroke="none" /><line stroke="#e1ed5e" stroke-width="0.3" x1="26.387840678322732" x2="22.057713659400548" y1="142.50000000000003" y2="145.00000000000006" /><path d="M 25.521815274538298 143.00000000000003 a86.0,86.0 0 0,1 -11.493303480769221,-40.785679425670985" fill="none" id="id141" stroke="none" /><text fill="#e1ed5e" style="font-size:6.75px; font-family:Arial;" text-anchor="middle"><textPath startOffset="21.40746469413373" xlink:href="#id141">September</textPath></text><path d="M 81.81346652052679 110.50000000000001 l -9.72752013397675 5.6161863678989885 a32.232372735797966,32.232372735797966 0 0,0 -0.2725425697177293,-0.4815566061665842 l 9.822496068715859 -5.448372991633282" fill="#ff6809" stroke="none" /><path d="M 79.83685265289637 105.86919833188381 l -9.046351350389306 2.633261035161092 a30.42181173840722,30.42181173840722 0 0,0 -0.14165193455261196,-0.5026727435115304 l 9.090221777016493 -2.4775803677465658" fill="#ff4e07" stroke="none" /><path d="M 79.64726062577567 105.17358676015961 l -4.244465595566549 1.0789265565394164 a25.379448676072606,25.379448676072606 0 0,0 -0.10370825078793189,-0.4231650537421191 l 4.2623613728707745 -1.0059056781891975" fill="#ff0200" stroke="none" /><path d="M 79.2786578344484 103.40968896794605 l -11.56997074214195 1.903834282729232 a32.72556215923637,32.72556215923637 0 0,0 -0.08645549321575284,-0.5551062854312824 l 11.600947727495969 -1.7049398153664996" fill="#ff6f0a" stroke="none" /><path d="M 79.17382384314188 102.69636545807758 l -10.543084852679465 1.3650134140915948 a31.631081780865443,31.631081780865443 0 0,0 -0.06509663637709719,-0.5390935321488003 l 10.564963575316224 -1.1838262050193953" fill="#ff5f08" stroke="none" /><path d="M 79.0935383218832 101.97986365728391 l -21.518499949269533 2.037824317895868 a42.6147766127092,42.6147766127092 0 0,0 -0.06271754117351819,-0.728872896670144 l 21.55031111314079 -1.668130373850062" fill="#fff617" stroke="none" /><path d="M 79.01933749520258 100.90099992219065 l -11.618004495464861 0.49892710223191894 a32.628712598993204,32.628712598993204 0 0,0 -0.019228120538210748,-0.5598057497502393 l 11.62485730299992 -0.2994150879175597" fill="#ff6e0a" stroke="none" /><line stroke="#e1ed5e" stroke-width="0.3" x1="15.003131293944662" x2="10.003315487706104" y1="100.72959589197737" y2="100.7725132973878" /><path d="M 14.003168132696942 100.73817937305945 a86.0,86.0 0 0,1 10.791469493833604,-42.45332614584628" fill="none" id="id142" stroke="none" /><text fill="#e1ed5e" style="font-size:6.75px; font-family:Arial;" text-anchor="middle"><textPath startOffset="22.145653131862435" xlink:href="#id142">October</textPath></text><path d="M 79.00077361379809 100.18025310272382 l -4.322547221919193 0.03710386916601517 a25.32270646503188,25.32270646503188 0 0,0 0.0,-0.4347139437796638 l 4.322547221919193 0.03710386916601358" fill="#ff0100" stroke="none" /><path d="M 79.2786578344484 96.59031103205396 l -12.72465123480809 -2.0938365183899807 a33.89577064053353,33.89577064053353 0 0,0 0.09940367719707728,-0.5733339945734826 l 12.686832740118778 2.311963545884056" fill="#ff800b" stroke="none" /><path d="M 79.34024301695615 96.23510406497455 l -4.20000620881642 -0.7653810408143956 a25.2691755986062,25.2691755986062 0 0,0 0.08143137160623189,-0.42608334586615304 l 4.186248544928029 0.8373669517138632" fill="#ff0000" stroke="none" /><path d="M 79.407916724674 95.88100663000787 l -13.785862711550088 -2.75755863791288 a35.058952320256125,35.058952320256125 0 0,0 0.1231108285807173,-0.5891298813803629 l 13.736494172145004 2.993804970578652" fill="#ff900d" stroke="none" /><path d="M 79.56144815229197 95.17655741523228 l -14.802738042039183 -3.493405872155254 a36.209370076661386,36.209370076661386 0 0,0 0.14796264807452622,-0.6037380965215285 l 14.740587867448358 3.7469997932849" fill="#ffa00e" stroke="none" /><path d="M 79.73907114497095 94.47779374421319 l -12.452847948391605 -3.39407908368925 a33.9070986225448,33.9070986225448 0 0,0 0.15788034441372822,-0.5602616450220049 l 12.392749111903296 3.607348652614268" fill="#ff800b" stroke="none" /><path d="M 80.05021161711548 93.44210830539832 l -18.036762890526866 -5.929042217749257 a39.986267594999816,39.986267594999816 0 0,0 0.2199522306729051,-0.650249687034311 l 17.9323252382816 6.237793579257729" fill="#ffd313" stroke="none" /><path d="M 80.28708602549916 92.7611449362534 l -11.73051846795997 -4.30760886604616 a33.49642179465744,33.49642179465744 0 0,0 0.2028436692518957,-0.5380669319682914 l 11.654844114893637 4.508344078208597" fill="#ff7a0b" stroke="none" /><path d="M 80.5471966667186 92.08871423366112 l -16.308382113688403 -6.632477030562501 a38.6054843366211,38.6054843366211 0 0,0 0.2549325207924351,-0.6117452449762857 l 16.19212374835949 6.91145478498005" fill="#ffc111" stroke="none" /><path d="M 81.29705330413844 90.45014215332179 l -10.103243355957908 -5.158788046011142 a32.34410068773083,32.34410068773083 0 0,0 0.256738123852706,-0.49232920467809144 l 10.013197163130263 5.33146349379372" fill="#ff6a09" stroke="none" /><path d="M 81.46374523516351 90.13048839642627 l -3.829223379551594 -2.038845767746634 a25.33818438464329,25.33818438464329 0 0,0 0.2077183940057166,-0.3821784491602206 l 3.793659635930527 2.104279050381474" fill="#ff0100" stroke="none" /><path d="M 81.63589988554816 89.8137432299009 l -20.777856030873075 -11.52512648828712 a44.76021552534206,44.76021552534206 0 0,0 0.3784724215120603,-0.6687245042848092 l 20.576950244339645 11.880107762671033" fill="#edff1a" stroke="none" /><line stroke="#e1ed5e" stroke-width="0.3" x1="26.387840678322718" x2="22.05771365940052" y1="57.49999999999999" y2="54.99999999999999" /><path d="M 25.521815274538284 56.99999999999999 a86.0,86.0 0 0,1 29.574782752854787,-30.34633250058573" fill="none" id="id143" stroke="none" /><text fill="#e1ed5e" style="font-size:6.75px; font-family:Arial;" text-anchor="middle"><textPath startOffset="21.40746469413373" xlink:href="#id143">November</textPath></text><path d="M 82.18462484594161 88.88188828441811 l -26.492368652166924 -16.533197406066037 a52.22806771592289,52.22806771592289 0 0,0 0.48120033826648073,-0.7565268570066701 l 26.204650622274553 16.985537937751378" fill="#93ff23" stroke="none" /><path d="M 82.78059297857968 87.97951657250589 l -14.46179552759058 -10.09545643789959 a38.63694334547138,38.63694334547138 0 0,0 0.38431781446770624,-0.5405911354873116 l 14.286362614592901 10.342224800096423" fill="#ffc112" stroke="none" /><path d="M 83.64595745247003 86.82634096563983 l -15.772736623054975 -12.705400130090423 a41.25355309682628,41.25355309682628 0 0,0 0.4489824179994151,-0.5476855464392971 l 15.55230738581693 12.974287958228214" fill="#ffe415" stroke="none" /><path d="M 84.10781606972428 86.27271002978789 l -9.160014322592351 -7.912202205133917 a33.10408220911536,33.10408220911536 0 0,0 0.3751621573130786,-0.4268656674549434 l 9.02284110132068 8.06828015040016" fill="#ff740a" stroke="none" /><path d="M 84.34580500576568 86.00192230759919 l -8.805251759175976 -7.873710418931899 a32.81218753253047,32.81218753253047 0 0,0 0.37906248265713127,-0.41665607041339864 l 8.668791575676977 8.023704064902955" fill="#ff700a" stroke="none" /><path d="M 84.83555147118756 85.47280134310135 l -7.2910184067474155 -6.984630704155187 a31.096732911241983,31.096732911241983 0 0,0 0.3725880210265102,-0.382308132786346 l 7.170043584570102 7.1087615290092625" fill="#ff5708" stroke="none" /><path d="M 85.34317274990677 84.96080404539775 l -43.33852409080086 -44.46914363275029 a83.09454409043602,83.09454409043602 0 0,0 1.0300855286294952,-0.9867986349497071 l 42.56876607630606 45.206554398005565" fill="#4cdbff" stroke="none" /><path d="M 86.13680546590413 84.22622945171909 l -8.291832791378864 -9.43458360583785 a33.56048800229235,33.56048800229235 0 0,0 0.4359995141046704,-0.3766059959565654 l 8.128653797511344 9.575533734259125" fill="#ff7b0b" stroke="none" /><path d="M 88.4268655584334 82.4767994020092 l -6.563408286635834 -9.937836684947921 a32.90961486840681,32.90961486840681 0 0,0 0.4740776825990888,-0.3072914262166617 l 6.391844971779719 10.049041952868489" fill="#ff720a" stroke="none" /><path d="M 88.72937992617638 82.28071324371311 l -9.176920972928663 -14.427644015502725 a38.098911964842955,38.098911964842955 0 0,0 0.5548578063301106,-0.3462723082559152 l 8.927899037808855 14.583052120600177" fill="#ffba11" stroke="none" /><line stroke="#e1ed5e" stroke-width="0.3" x1="56.869717070023135" x2="54.33264160355391" y1="26.7553504044142" y2="22.446841604673864" /><path d="M 56.362301976729285 25.89364864446614 a86.0,86.0 0 0,1 42.16139366436587,-11.88097634709845" fill="none" id="id144" stroke="none" /><text fill="#e1ed5e" style="font-size:6.75px; font-family:Arial;" text-anchor="middle"><textPath startOffset="22.145653131862474" xlink:href="#id144">December</textPath></text><path d="M 89.34428304082924 81.90426304109057 l -15.80013033179452 -26.832075541812287 a52.138471323801596,52.138471323801596 0 0,0 0.7751439743588293,-0.4475295822567841 l 15.33719388957529 27.099352021345247" fill="#94ff23" stroke="none" /><path d="M 90.61103034731259 81.2157712731953 l -5.452139512829732 -10.907931269128051 a33.19462134874965,33.19462134874965 0 0,0 0.5118922811152199,-0.25039216594278035 l 5.264086982452459 10.999917185168046" fill="#ff760a" stroke="none" /><path d="M 91.26138138417902 80.90454125486306 l -6.403153213601944 -13.992045356889605 a36.38758279737649,36.38758279737649 0 0,0 0.5702221810046691,-0.25505312863005936 l 6.162017629741656 14.099902236429509" fill="#ffa30f" stroke="none" /><path d="M 91.92203290615298 80.6158196554323 l -4.800729916590439 -11.520004155455494 a33.48028459105634,33.48028459105634 0 0,0 0.5324091274884614,-0.21652615718178295 l 4.602266327911536 11.600717569216568" fill="#ff7a0b" stroke="none" /><path d="M 92.592206182469 80.34994680014964 l -4.475053224603015 -11.870610346566009 a33.68611411595489,33.68611411595489 0 0,0 0.5428450693074371,-0.19934022863738204 l 4.2706190036414515 11.945681424212113" fill="#ff7d0b" stroke="none" /><path d="M 93.95794788825049 79.88797359093562 l -5.426759232380946 -18.063916526810065 a39.86146325325248,39.86146325325248 0 0,0 0.6570307808062453,-0.19125208462350232 l 5.115868439193076 18.154412305736088" fill="#ffd213" stroke="none" /><path d="M 94.6519064749342 79.69241777938228 l -1.4625043997271363 -5.553367420796654 a26.742717895699467,26.742717895699467 0 0,0 0.44494114654877853,-0.11310229952388148 l 1.3669579599529798 5.5776549521557985" fill="#ff1702" stroke="none" /><path d="M 95.35216902796891 79.52079915486377 l -3.797123366078934 -16.73082616722363 a38.1563017604342,38.1563017604342 0 0,0 0.6400039772784295,-0.13948588805516815 l 3.509356972181386 16.793543513412512" fill="#ffbb11" stroke="none" /><path d="M 96.41257539226777 79.30868818359171 l -1.4701421064943918 -8.479388995197901 a29.605890746760096,29.605890746760096 0 0,0 0.5014991133702584,-0.08252148826228255 l 1.3243654900710606 8.503376481955852" fill="#ff4206" stroke="none" /><path d="M 97.84075906011542 79.11130261209362 l -1.7518218411363147 -16.94728718832905 a38.037588526748266,38.037588526748266 0 0,0 0.6500812919062416,-0.06156337423049235 l 1.4606409858450575 16.974862318064726" fill="#ffb911" stroke="none" /><path d="M 98.9189461498227 79.02784411241856 l -0.5295526753678216 -10.273180431001096 a31.286819829465912,31.286819829465912 0 0,0 0.536605073109384,-0.023044130708842533 l 0.35312184165761745 10.280757130135768" fill="#ff5a08" stroke="none" /><path d="M 99.63950707515114 79.00309439819443 l -0.2447328229085839 -14.25446000758376 a35.25656074452789,35.25656074452789 0 0,0 0.6052257477574325,-0.0051951351385643735 l 3.4918502965271772e-15 14.256560744527889" fill="#ff930d" stroke="none" /></svg>