<?xml version="1.0" encoding="utf-8" ?>
<svg baseProfile="full" height="200mm" version="1.1" viewBox="0,0,200,200" width="200mm" xmlns="http://www.w3.org/2000/svg" xmlns:ev="http://www.w3.org/2001/xml-events" xmlns:xlink="http://www.w3.org/1999/xlink"><defs /><rect fill="#1a1a1a" height="200" width="200" x="0" y="0" /><text alignment-baseline="middle" fill="#e1ed5e" style="dominant-baseline: central; font-size:9.0px; font-family:Arial;" text-anchor="middle" x="100.0" y="100.0">2022</text><line stroke="#e1ed5e" stroke-width="0.3" x1="100.0" x2="100.0" y1="15.0" y2="10.0" /><path d="M 100.0 14.0 a86.0,86.0 0 0,1 42.46469731375804,11.215312516191453" fill="none" id="id109" stroke="none" /><text fill="#e1ed5e" style="font-size:6.75px; font-family:Arial;" text-anchor="middle"><textPath startOffset="22.20632615414155" xlink:href="#id109">January</textPath></text><path d="M 100.0 79.0 l 0.0 -18.858938864609314 a39.858938864609314,39.858938864609314 0 0,0 0.6861061106701611,0.005905531905967782 l -0.32462563139763273 18.856144709311906" fill="#ffcd13" stroke="none" /><path d="M 101.80526077348638 79.07773832637324 l 2.413093885305775 -27.966808149214536 a49.07072104799363,49.07072104799363 0 0,0 0.8409199762255612,0.07985548438394123 l -2.8941389886215805 27.921127120315415" fill="#bbff1f" stroke="none" /><path d="M 102.52436894288641 79.15227682838746 l 3.0404329307174884 -25.10968305170799 a46.29309026915104,46.29309026915104 0 0,0 0.7902567158736856,0.10259800224001311 l -3.47220437509902 25.05362672630384" fill="#ddff1b" stroke="none" /><path d="M 103.2404852339499 79.25152402106235 l 3.9032588394414027 -24.99214359048611 a46.29511159918361,46.29511159918361 0 0,0 0.786291152665247,0.12974477739233736 l -4.332879198245525 24.921252550154147" fill="#ddff1b" stroke="none" /><path d="M 103.95276090670814 79.375362276772 l 7.140551038505881 -37.25782605860958 a58.935907419582236,58.935907419582236 0 0,0 0.9947078703826485,0.19952904107296202 l -7.780825318355655 37.12939306145941" fill="#4bff2c" stroke="none" /><path d="M 105.36241919743992 79.69619591428918 l 9.680715130138788 -36.654229401862516 a58.91106406413912,58.91106406413912 0 0,0 0.9782101136782145,0.26738177616937736 l -10.310223133040713 36.48216108486684" fill="#4bff2c" stroke="none" /><path d="M 107.76421540070413 80.48803036053334 l 4.681330358981867 -11.764482452210684 a33.661670557169714,33.661670557169714 0 0,0 0.5365287672422074,0.2188635555931549 l -4.883142995812462 11.68215801043395" fill="#ff770a" stroke="none" /><path d="M 108.43124777332544 80.76684994638697 l 10.451541746169038 -23.841793777148787 a47.0320159684955,47.0320159684955 0 0,0 0.7386666605221786,0.33141819895996133 l -10.860390525157998 23.658355247672294" fill="#d4ff1c" stroke="none" /><path d="M 109.08828744355905 81.06846463323043 l 17.018090750375407 -35.44986763638915 a60.323129685027915,60.323129685027915 0 0,0 0.9322185165070247,0.4574355774694302 l -17.62578053389286 35.151676898784885" fill="#3cff2e" stroke="none" /><path d="M 109.41281617654863 81.2277094730956 l 11.397710047404557 -22.730830002222383 a46.42829972520066,46.42829972520066 0 0,0 0.7113246912223417,0.36436813484498315 l -11.787295226215653 22.5312693420649" fill="#dcff1b" stroke="none" /><path d="M 110.36928655335952 81.73862282372117 l 12.545302021036827 -22.093563604167425 a46.406891890398995,46.406891890398995 0 0,0 0.6912489247354792,0.4004159942376059 l -12.923747678237635 21.87434345253977" fill="#dcff1b" stroke="none" /><line stroke="#e1ed5e" stroke-width="0.3" x1="143.23703022742887" x2="145.7803849466894" y1="26.81831364943548" y2="22.513508569990506" /><path d="M 143.74570117128098 25.957352633546492 a86.0,86.0 0 0,1 28.547481713284135,27.462654790039103" fill="none" id="id110" stroke="none" /><text fill="#e1ed5e" style="font-size:6.75px; font-family:Arial;" text-anchor="middle"><textPath startOffset="19.985693538727396" xlink:href="#id110">February</textPath></text><path d="M 110.68208982089419 81.91981866633111 l 12.866412486490377 -21.777299645478397 a46.29417620958368,46.29417620958368 0 0,0 0.6825920508424806,0.4112540730580085 l -13.239366603550495 21.552598962961774" fill="#ddff1b" stroke="none" /><path d="M 111.2981086023043 82.29822771554956 l 28.715268619201808 -44.99081785072096 a74.37359218517776,74.37359218517776 0 0,0 1.0732214687134016,0.6980530968485265 l -29.48545711369949 44.489865829712905" fill="#40ffc9" stroke="none" /><path d="M 112.48926042617603 83.11751280151076 l 18.049472884495362 -24.398562005586353 a51.34918943478681,51.34918943478681 0 0,0 0.7060607595563856,0.531790325923226 l -18.46677979781013 24.08425509015728" fill="#a0ff22" stroke="none" /><path d="M 113.89432698308785 84.25364557470407 l 16.725971120433584 -18.955439129235174 a46.27977022252612,46.27977022252612 0 0,0 0.5927976041162766,0.5322195420318672 l -17.04977971214585 18.66472057843401" fill="#deff1b" stroke="none" /><path d="M 114.68862486808459 84.99185889309783 l 17.680043160017796 -18.064630617547316 a46.27676414196485,46.27676414196485 0 0,0 0.564497631298665,0.5620734990731121 l -17.98837659148378 17.757621267824085" fill="#deff1b" stroke="none" /><path d="M 115.19652480421416 85.50635884689758 l 18.30602834486487 -17.459321074211413 a46.29700705884787,46.29700705884787 0 0,0 0.5450539542814924,0.58142555563956 l -18.603849621116826 17.1416261016938" fill="#ddff1b" stroke="none" /><path d="M 115.9244219780498 86.31012108654704 l 40.48088256021482 -34.80053350274999 a74.38332122423566,74.38332122423566 0 0,0 0.8263256845329824,0.9781089739493336 l -41.07391885823492 34.09856557917155" fill="#40ffc9" stroke="none" /><path d="M 116.38621287248628 86.86637796730983 l 19.72771228834315 -15.811848581547414 a46.28234933105364,46.28234933105364 0 0,0 0.49289802706737257,0.6259304397972257 l -19.996964396004486 15.469925747797149" fill="#deff1b" stroke="none" /><path d="M 116.82858285166822 87.43820079747576 l 22.285756198952324 -16.63533982125523 a48.809880624119586,48.809880624119586 0 0,0 0.4967855413390994,0.6776149200877111 l -22.56880435280505 16.249262457496027" fill="#beff1e" stroke="none" /><path d="M 117.45458315368197 88.32363383020206 l 25.221217183548102 -16.87191063173489 a51.344211385121724,51.344211385121724 0 0,0 0.48508877589057564,0.738823485709316 l -25.5079025947966 16.4352690820479" fill="#a0ff22" stroke="none" /><line stroke="#e1ed5e" stroke-width="0.3" x1="172.23445277983987" x2="176.4835382374775" y1="55.19839476539836" y2="52.563006222186495" /><path d="M 173.08426987136738 54.67131705675599 a86.0,86.0 0 0,1 12.851231095245387,41.99856678651699" fill="none" id="id111" stroke="none" /><text fill="#e1ed5e" style="font-size:6.75px; font-family:Arial;" text-anchor="middle"><textPath startOffset="22.20632615414155" xlink:href="#id111">March</textPath></text><path d="M 117.84615892207809 88.93136811851018 l 21.485521490050182 -13.325855115018317 a46.28252456235073,46.28252456235073 0 0,0 0.41408358003311907,0.6806445296280345 l -21.711720868369525 12.954042812183202" fill="#deff1b" stroke="none" /><path d="M 118.21658344932153 89.55222093294921 l 26.31666763723586 -15.093430116561528 a51.33774263540819,51.33774263540819 0 0,0 0.4330518486265826,0.7703509174828911 l -26.572577127154876 14.638195689143842" fill="#a0ff22" stroke="none" /><path d="M 118.56541770881063 90.18545643968196 l 47.183733550125346 -24.943516786394582 a74.37118830794732,74.37118830794732 0 0,0 0.5885614257834997,1.136913339274457 l -47.60610440906896 24.127630724859777" fill="#40ffc9" stroke="none" /><path d="M 118.89224826269711 90.83032412892265 l 22.740689845951024 -11.037582826169205 a46.277800721468736,46.277800721468736 0 0,0 0.3416663718517996,0.7196365149081566 l -22.92731441164458 10.644503895620506" fill="#deff1b" stroke="none" /><path d="M 119.85752413597 93.16781622104841 l 23.917101460893747 -8.228922776161362 a46.29313963007979,46.29313963007979 0 0,0 0.2527665080850604,0.7557396864459196 l -24.055205262750576 7.816009986793127" fill="#ddff1b" stroke="none" /><path d="M 120.18372546131832 94.20196356495316 l 29.166181807702223 -8.37836330643454 a51.345726765634545,51.345726765634545 0 0,0 0.23671169646658136,0.8515779166766424 l -29.306080274735166 7.875074086338946" fill="#a0ff22" stroke="none" /><path d="M 120.37134235888165 94.90015583598534 l 24.51509949079466 -6.137209068790652 a46.27163307342062,46.27163307342062 0 0,0 0.186776988713939,0.7743112008208127 l -24.61710927976942 5.714312636310433" fill="#deff1b" stroke="none" /><path d="M 120.53481517161879 95.60439243477599 l 24.73792031311298 -5.295308906725179 a46.298320059552786,46.298320059552786 0 0,0 0.16010555241321647,0.7807315338964514 l -24.825405161441193 4.868701716665315" fill="#ddff1b" stroke="none" /><path d="M 120.6074358757038 95.95851677861258 l 24.818536624855984 -4.867354674969685 a46.29132067985512,46.29132067985512 0 0,0 0.14662065163224397,0.7832533838458641 l -24.89864300039809 4.439423213661258" fill="#ddff1b" stroke="none" /><path d="M 120.87857604477298 97.74499172005257 l 37.70969771322576 -4.072867823710021 a58.92900676174208,58.92900676174208 0 0,0 0.10024350010575281,1.0094383658801158 l -37.774218339013736 3.42315392712547" fill="#4bff2c" stroke="none" /><path d="M 120.96714384426684 98.82574320788733 l 25.247309953229372 -1.4139658417643683 a46.28687326017417,46.28687326017417 0 0,0 0.037704827982620745,0.7958893258760835 l -25.26790838944549 0.9791654092652851" fill="#deff1b" stroke="none" /><line stroke="#e1ed5e" stroke-width="0.3" x1="184.98032266829074" x2="189.97916517819016" y1="98.17113171792111" y2="98.06355123074" /><path d="M 185.9800911702706 98.14961562048488 a86.0,86.0 0 0,1 -9.607161424134198,41.387399972396054" fill="none" id="id112" stroke="none" /><text fill="#e1ed5e" style="font-size:6.75px; font-family:Arial;" text-anchor="middle"><textPath startOffset="21.466115282336823" xlink:href="#id112">April</textPath></text><path d="M 120.99513854157772 99.54816195383933 l 30.343199997058523 -0.653018420134846 a51.3502260142907,51.3502260142907 0 0,0 0.011411959014875829,0.8838688021222136 l -30.349944963191117 0.1306133599521697" fill="#a0ff22" stroke="none" /><path d="M 120.99980553446 99.90962569577887 l 25.29652106348343 -0.10886555528221296 a46.29675531811121,46.29675531811121 0 0,0 -0.0034297137016953043,0.7969446779723979 l -25.29464705249223 -0.32658860089386965" fill="#ddff1b" stroke="none" /><path d="M 120.9764740272857 100.99374915477107 l 25.2635172429912 1.1968455172261045 a46.29185130983926,46.29185130983926 0 0,0 -0.04455843995922657,0.7956208781388604 l -25.239172452144444 -1.6315381117003884" fill="#ddff1b" stroke="none" /><path d="M 120.95626037817324 101.35467743843564 l 25.237482898701074 1.6314288937440613 a46.29015822998291,46.29015822998291 0 0,0 -0.05824501335278475,0.7947069313201883 l -25.205661326683952 -2.06560896156102" fill="#ddff1b" stroke="none" /><path d="M 120.70491114924044 103.5080841355445 l 24.934186111152613 4.224660617896801 a46.2895510905592,46.2895510905592 0 0,0 -0.1398684142484699,0.7844563461955583 l -24.857771254564955 -4.653235714825578" fill="#ddff1b" stroke="none" /><path d="M 120.5718875245553 104.21870165774334 l 24.77087162949401 5.079792366274509 a46.28636731065441,46.28636731065441 0 0,0 -0.16677630840543714,0.7791233901782627 l -24.679761282364133 -5.50542957586894" fill="#deff1b" stroke="none" /><path d="M 120.41448212921028 104.9243191809786 l 29.492682601233685 7.114135039652219 a51.33857683510418,51.33857683510418 0 0,0 -0.21461648506265857,0.8572861743347039 l -29.36585480187597 -7.620749053384319" fill="#a0ff22" stroke="none" /><path d="M 120.13307415673323 105.97154293290107 l 24.24544620156581 7.191287420533986 a46.289449900655256,46.289449900655256 0 0,0 -0.23315164356704676,0.7619530612409229 l -24.118067785492627 -7.607567454326967" fill="#ddff1b" stroke="none" /><path d="M 119.79798401119884 107.00284435728193 l 33.369844396744554 11.803415257075363 a56.39586313107654,56.39586313107654 0 0,0 -0.33159623220751255,0.9124104161201887 l -33.161723903531815 -12.376073470201682" fill="#66ff29" stroke="none" /><path d="M 119.26925614724726 108.34839909993367 l 23.200060262834306 10.051418733375533 a46.283864711566466,46.283864711566466 0 0,0 -0.32301490507484276,0.7283133374992633 l -23.02360427302819 -10.449280407367484" fill="#deff1b" stroke="none" /><path d="M 119.12269723197855 108.67885076344098 l 31.5300479801519 14.309936389426344 a55.62539826630315,55.62539826630315 0 0,0 -0.4032189316440466,0.8684977067211299 l -31.279054431668023 -14.850554163426304" fill="#6fff27" stroke="none" /><path d="M 118.97047184881838 109.00673069616215 l 13.717190316473607 6.512597054678771 a36.18470383560272,36.18470383560272 0 0,0 -0.27198274575290216,0.560365014879222 l -13.603054314105991 -6.747751025523268" fill="#ff9a0e" stroke="none" /><line stroke="#e1ed5e" stroke-width="0.3" x1="174.80103733775053" x2="179.2010983576182" y1="140.37084112569926" y2="142.7455964860345" /><path d="M 175.68104954172406 140.8457921977663 a86.0,86.0 0 0,1 -30.038265399797805,32.042727171017184" fill="none" id="id113" stroke="none" /><text fill="#e1ed5e" style="font-size:6.75px; font-family:Arial;" text-anchor="middle"><textPath startOffset="22.206326154141568" xlink:href="#id113">May</textPath></text><path d="M 118.48025628344425 109.97397251340804 l 26.703209009619282 14.411979390152398 a51.34413487568215,51.34413487568215 0 0,0 -0.42645849326773577,0.7741460385238295 l -26.451174106900037 -14.869495947074032" fill="#a0ff22" stroke="none" /><path d="M 118.30583269289576 110.29060199501025 l 23.133850054715182 13.004666191323171 a47.53858249985838,47.53858249985838 0 0,0 -0.4071294842069025,0.7098645727610854 l -22.906568574355898 -13.400950609942571" fill="#ceff1d" stroke="none" /><path d="M 117.94076556474637 110.91462005526583 l 21.594002378416114 13.137139024660705 a46.276181683005525,46.276181683005525 0 0,0 -0.4198689977029654,0.6769625134964966 l -21.364668741045186 -13.506897869522474" fill="#deff1b" stroke="none" /><path d="M 117.55443506779139 111.5257021239791 l 21.1523276695434 13.887967741854052 a46.304082947985094,46.304082947985094 0 0,0 -0.4431893752071137,0.6625079832105657 l -20.910135188925565 -14.250012639270425" fill="#ddff1b" stroke="none" /><path d="M 117.35343817320211 111.8261652097733 l 20.891382165392088 14.237232673002291 a46.28138926098933,46.28138926098933 0 0,0 -0.45430493321601867,0.6544601399606961 l -20.643216325013935 -14.594734075150006" fill="#deff1b" stroke="none" /><path d="M 116.93607887273984 112.41649034213515 l 20.472418057879 15.009116514269344 a46.38490653273088,46.38490653273088 0 0,0 -0.47762921110020357,0.6398623813188749 l -20.211027580083705 -15.359291775097534" fill="#dcff1b" stroke="none" /><path d="M 116.498646956653 112.99209946851258 l 27.809827017556678 21.89925269408404 a56.39722796075665,56.39722796075665 0 0,0 -0.6071620500802969,0.757528012908186 l -27.42874705542153 -22.374708540570477" fill="#66ff29" stroke="none" /><path d="M 116.0416608686014 113.55231037782055 l 19.31276301607945 16.31580176086978 a46.28217163171011,46.28217163171011 0 0,0 -0.5193685913496809,0.6041430068946864 l -19.02905191515899 -16.645821866925992" fill="#deff1b" stroke="none" /><path d="M 115.56566222782051 114.09645910891815 l 39.58998534366514 35.853187699408686 a74.41177779966372,74.41177779966372 0 0,0 -0.867972964735801,0.942013226478214 l -38.96696597093362 -36.52935218068823" fill="#40ffc9" stroke="none" /><path d="M 114.81725581225074 114.88116024355365 l 17.848921957544274 17.925901475311925 a46.29667880867163,46.29667880867163 0 0,0 -0.5695594845268035,0.5574338319904458 l -17.537712520641676 -18.23048541022494" fill="#ddff1b" stroke="none" /><path d="M 113.48314897796784 116.09983520530334 l 16.24332872496936 19.395685391068927 a46.29897902795169,46.29897902795169 0 0,0 -0.6154013364087713,0.5064334035547444 l -15.907057260015899 -19.67241391348085" fill="#ddff1b" stroke="none" /><path d="M 112.92097659922987 116.55440617244103 l 21.775668536942714 27.89907240126726 a56.39121333158768,56.39121333158768 0 0,0 -0.7703342414393907,0.5906594475985301 l -21.292205567009827 -28.269771190693163" fill="#66ff29" stroke="none" /><path d="M 112.34349029814194 116.9893568818739 l 14.861601754283303 20.45523996383821 a46.28406709137437,46.28406709137437 0 0,0 -0.64857790957144,0.46274311766767545 l -14.50729651686298 -20.708027343350103" fill="#deff1b" stroke="none" /><path d="M 111.45004920935366 117.60387380957326 l 13.78989249479683 21.20126498038761 a46.2913971892947,46.2913971892947 0 0,0 -0.6717062443929366,0.4287147058525671 l -13.422904448356961 -21.435494115063985" fill="#ddff1b" stroke="none" /><line stroke="#e1ed5e" stroke-width="0.3" x1="143.8653032363475" x2="146.44561519142675" y1="172.8068346515853" y2="177.08958963109032" /><path d="M 144.38136562736335 173.6633856474863 a86.0,86.0 0 0,1 -40.68145358897372,12.25698825130547" fill="none" id="id114" stroke="none" /><text fill="#e1ed5e" style="font-size:6.75px; font-family:Arial;" text-anchor="middle"><textPath startOffset="21.466115282336833" xlink:href="#id114">June</textPath></text><path d="M 110.8373102113329 117.98757091392108 l 13.050921246548315 21.661682358118455 a46.28942522019088,46.28942522019088 0 0,0 -0.6860360171501195,0.40532217129478176 l -12.676117358369813 -21.883123101706985" fill="#ddff1b" stroke="none" /><path d="M 109.89434966115114 118.52300852407294 l 11.93441679316965 22.342176248095274 a46.32988637349253,46.32988637349253 0 0,0 -0.7066611471592096,0.3696917133253043 l -11.548064743483945 -22.544297380365297" fill="#ddff1b" stroke="none" /><path d="M 109.2508944713604 118.85261126421891 l 11.476898638823638 23.38903651170575 a47.05314244600326,47.05314244600326 0 0,0 -0.7301915739968098,0.3505363291873448 l -11.072594396826595 -23.583127117392657" fill="#d4ff1c" stroke="none" /><path d="M 105.88484417918355 120.15858648285463 l 4.263675928842822 14.60526011045003 a36.214879405374745,36.214879405374745 0 0,0 -0.5999060855228706,0.16953945206868606 l -4.0116386752153455 -14.676488355857236" fill="#ff9b0e" stroke="none" /><path d="M 103.41894727170886 120.7198165907248 l 8.231793316533867 49.88706586460046 a71.56166296498876,71.56166296498876 0 0,0 -1.2171075976965986,0.1900871756782384 l -7.371849855228752 -50.0213713476258" fill="#3dffa9" stroke="none" /><path d="M 103.06178313531738 120.77559828337769 l 2.9503488550715486 20.01946574914297 a41.23570031522829,41.23570031522829 0 0,0 -0.7031107288224502,0.09744474025523948 l -2.605309535062268 -20.06728505489081" fill="#ffdf14" stroke="none" /><path d="M 102.34483914955558 120.86867818915974 l 4.5931229183223925 40.87802955861212 a62.135265633487585,62.135265633487585 0 0,0 -1.0638960058597269,0.11027717101568062 l -3.8887943158570626 -40.951036098083556" fill="#30ff37" stroke="none" /><path d="M 101.98527174616119 120.90594882070398 l 1.9119588769579956 20.13392600094411 a41.22450402256312,41.22450402256312 0 0,0 -0.7070113986672751,0.06100391842582842 l -1.5651031605491788 -20.1638541716486" fill="#ffdf14" stroke="none" /><path d="M 101.62511606390274 120.93702456842531 l 0.36734691634441713 4.732678227404857 a25.746913414114452,25.746913414114452 0 0,0 -0.4421569415300077,0.030493731438328137 l -0.2858272140354791 -4.73830030335947" fill="#ff0000" stroke="none" /><path d="M 101.26447882468166 120.96189622390904 l 1.5225141186922353 25.23947600585373 a46.28535541161491,46.28535541161491 0 0,0 -0.7956935981578906,0.04112827028861421 l -1.087832452120865 -25.261944082904545" fill="#deff1b" stroke="none" /><line stroke="#e1ed5e" stroke-width="0.3" x1="102.19456741930631" x2="102.32365962044197" y1="184.97166512339345" y2="189.96999836594603" /><path d="M 102.22038585953345 185.97133177190398 a86.0,86.0 0 0,1 -42.740103519485714,-10.115201625700543" fill="none" id="id115" stroke="none" /><text fill="#e1ed5e" style="font-size:6.75px; font-family:Arial;" text-anchor="middle"><textPath startOffset="22.20632615414155" xlink:href="#id115">July</textPath></text><path d="M 100.54218724476979 120.99299961872073 l 0.7970814955513866 30.86227441463377 a51.872565830437686,51.872565830437686 0 0,0 -0.8928017276103045,0.015370391403246893 l -0.2657200780484142 -30.871422283316175" fill="#9aff23" stroke="none" /><path d="M 99.09653310690486 120.98055641714683 l -0.6538561631861163 15.18402746715912 a36.198099157643995,36.198099157643995 0 0,0 -0.6222831284124342,-0.032164929767743516 l 0.9151273600120393 -15.170522730629175" fill="#ff9b0e" stroke="none" /><path d="M 98.73552117531835 120.96189622390904 l -1.5223375710045395 25.23654928676959 a46.28242337244677,46.28242337244677 0 0,0 -0.7948173994999964,-0.054815261384329884 l 1.9565177312834658 -25.206605680868975" fill="#deff1b" stroke="none" /><path d="M 98.01472825383883 120.90594882070398 l -2.391298504520879 25.181622741172472 a46.29490921937571,46.29490921937571 0 0,0 -0.7926733475424144,-0.08216383351854083 l 2.824404448668887 -25.136729539198168" fill="#ddff1b" stroke="none" /><path d="M 96.93821686468263 120.77559828337769 l -3.6856154659121674 25.008585834691495 a46.27870896255786,46.27870896255786 0 0,0 -0.7870997676154645,-0.12292879617724496 l 4.115551097136149 -24.941438731167143" fill="#deff1b" stroke="none" /><path d="M 96.58105272829116 120.7198165907248 l -4.117937478014791 24.95590089457347 a46.29336669035207,46.29336669035207 0 0,0 -0.7851157219424016,-0.13650243192928113 l 4.546902171429243 -24.881319884123183" fill="#ddff1b" stroke="none" /><path d="M 95.86986931433489 120.58985236759428 l -4.9732225366115355 24.79290017999381 a46.28677207027022,46.28677207027022 0 0,0 -0.7798407229206373,-0.16342320573734812 l 5.39925472096156 -24.70362099352992" fill="#deff1b" stroke="none" /><path d="M 94.81253420990036 120.34920634021253 l -6.245157179155412 24.49828051073318 a46.281766872094316,46.281766872094316 0 0,0 -0.7702818973984558,-0.20343845008615338 l 6.665929519365357 -24.38715071134345" fill="#deff1b" stroke="none" /><path d="M 93.76903079525671 120.05430185196036 l -7.901355879064902 25.43042191861665 a47.62964107318181,47.62964107318181 0 0,0 -0.7808508934512539,-0.2500037976246071 l 8.337928117607097 -25.290645274332334" fill="#cdff1d" stroke="none" /><path d="M 92.06813273071674 119.44442032107085 l -9.552418187439287 23.417088059265424 a46.29048648015914,46.29048648015914 0 0,0 -0.7351999235657111,-0.3073136276769476 l 9.95408957050246 -23.249189388568503" fill="#ddff1b" stroke="none" /><path d="M 91.07499286063937 119.00905698771935 l -10.74900239939751 22.893919969000372 a46.2917501199353,46.2917501199353 0 0,0 -0.7183759495326281,-0.3448641114102261 l 11.14149101693038 -22.705501581090584" fill="#ddff1b" stroke="none" /><path d="M 90.7491055286396 118.85261126421891 l -13.361494812707305 27.22969853268743 a51.331271417648225,51.331271417648225 0 0,0 -0.7898809415375538,-0.3960627017462939 l 13.828229661927619 -26.995667990031833" fill="#a0ff22" stroke="none" /><line stroke="#e1ed5e" stroke-width="0.3" x1="58.666819895761336" x2="56.23545636021788" y1="174.27360380694188" y2="178.64263932499728" /><path d="M 58.180547188652646 175.14741091055294 a86.0,86.0 0 0,1 -31.652253787137756,-30.449443065178592" fill="none" id="id116" stroke="none" /><text fill="#e1ed5e" style="font-size:6.75px; font-family:Arial;" text-anchor="middle"><textPath startOffset="22.20632615414155" xlink:href="#id116">August</textPath></text><path d="M 89.1626897886671 117.98757091392108 l -13.048638837173362 21.657894056437886 a46.2850024809743,46.2850024809743 0 0,0 -0.678892547396418,-0.41703125153702236 l 13.419510584502088 -21.430074338072483" fill="#deff1b" stroke="none" /><path d="M 88.54995079064634 117.60387380957326 l -11.024792529472256 16.950063088550767 a41.22005660288216,41.22005660288216 0 0,0 -0.591459332086633,-0.3919869940154016 l 11.31492656029885 -16.757778073444047" fill="#ffdf14" stroke="none" /><path d="M 87.65650970185807 116.9893568818739 l -14.860042271887812 20.453093520463774 a46.28141394145371,46.28141394145371 0 0,0 -0.6404797372222019,-0.4738115978890099 l 15.209906979528578 -20.194271973834997" fill="#deff1b" stroke="none" /><path d="M 87.36589467227662 116.77436683061367 l -18.245666318131274 24.22486531101742 a51.3273546279514,51.3273546279514 0 0,0 -0.7011592135802922,-0.5376189860106829 l 18.659954260205055 -23.90720698317937" fill="#a0ff22" stroke="none" /><path d="M 86.79598089348748 116.32954008644616 l -15.894661355207402 19.657083776282082 a46.27926427300636,46.27926427300636 0 0,0 -0.6151392898843163,-0.5062177571051452 l 16.230670773636408 -19.380570900319757" fill="#deff1b" stroke="none" /><path d="M 85.70375840098266 115.38237550388516 l -17.20886622542996 18.516282090104422 a46.278405392846004,46.278405392846004 0 0,0 -0.5788418446778768,-0.5473310936292035 l 17.525043904498656 -18.21731635972929" fill="#deff1b" stroke="none" /><path d="M 85.44109423537348 115.13401014063109 l -19.26985318860331 20.031048918069295 a48.79514638688579,48.79514638688579 0 0,0 -0.6002965901372398,-0.5875165591334389 l 19.611799731116346 -19.696382256013283" fill="#bfff1e" stroke="none" /><path d="M 84.67929136418377 114.36230785411682 l -14.768565591012361 13.84470461672844 a41.24318096398133,41.24318096398133 0 0,0 -0.4810793010861619,-0.5221165670131204 l 15.004691300094253 -13.588436794913978" fill="#ffdf14" stroke="none" /><path d="M 83.95833913139862 113.55231037782056 l -27.039096315119117 22.843159981989277 a56.39664796984376,56.39664796984376 0 0,0 -0.6201053147063331,-0.7469567985395285 l 27.428297629718987 -22.374341926335987" fill="#66ff29" stroke="none" /><path d="M 83.50135304334701 112.99209946851258 l -19.867401981359798 15.644874600984494 a46.28785801070286,46.28785801070286 0 0,0 -0.48755041131169014,-0.6302246290771957 l 20.133759209889558 -15.300571977794045" fill="#deff1b" stroke="none" /><path d="M 83.06392112726016 112.41649034213515 l -24.468675941423307 17.938926760699914 a51.340092215617,51.340092215617 0 0,0 -0.5163840446303848,-0.717212273766745 l 24.7738397784293 -17.515080881482028" fill="#a0ff22" stroke="none" /><path d="M 82.6465618267979 111.8261652097733 l -44.293010001650856 30.185168419625523 a74.60051424685682,74.60051424685682 0 0,0 -0.7140224618276565,-1.0673667005925345 l 44.80603556888924 -29.418264804827167" fill="#41ffcb" stroke="none" /><line stroke="#e1ed5e" stroke-width="0.3" x1="26.63291911575756" x2="22.317208475507996" y1="142.92168965132927" y2="145.44649492493687" /><path d="M 25.769776987707644 143.4266507060508 a86.0,86.0 0 0,1 -11.730757126820373,-40.83630448921669" fill="none" id="id117" stroke="none" /><text fill="#e1ed5e" style="font-size:6.75px; font-family:Arial;" text-anchor="middle"><textPath startOffset="21.46611528233685" xlink:href="#id117">September</textPath></text><path d="M 81.87401531095188 110.60418214915194 l -21.823547489718987 12.767354529515524 a46.28384003110209,46.28384003110209 0 0,0 -0.3963836304760193,-0.6911282710105932 l 22.040083116347382 -12.389806412646625" fill="#deff1b" stroke="none" /><path d="M 81.69416730710424 110.29060199501025 l -22.138977056799103 12.445399523213062 a46.39728872170943,46.39728872170943 0 0,0 -0.38537055669310544,-0.6995594988429243 l 22.349924022943725 -12.062469505972315" fill="#dcff1b" stroke="none" /><path d="M 81.18737489456691 109.33194174019688 l -22.65154852873208 11.236227268161674 a46.285281370221774,46.285281370221774 0 0,0 -0.34790385385528216,-0.7167849846595418 l 22.84160563920208 -10.844653327536848" fill="#deff1b" stroke="none" /><path d="M 80.87730276802145 108.67885076344099 l -32.229820942412495 14.627528883522569 a56.39386894955478,56.39386894955478 0 0,0 -0.39357258385967164,-0.8874022764758707 l 32.47683461100345 -14.070578270554003" fill="#66ff29" stroke="none" /><path d="M 80.32549172779594 107.34259656027581 l -37.89435802136409 14.142309378813136 a61.44733964573427,61.44733964573427 0 0,0 -0.36129788914381006,-0.9941366196548369 l 38.13218017151313 -13.487924962152183" fill="#31ff2f" stroke="none" /><path d="M 79.97269907076064 106.31721596034903 l -24.111802158930427 7.60559108635507 a46.28287996103778,46.28287996103778 0 0,0 -0.2331185519614433,-0.761844915959147 l 24.239147483398 -7.1894191978438755" fill="#deff1b" stroke="none" /><path d="M 79.86692584326677 105.97154293290107 l -24.2385654080151 7.189246552170784 a46.28227282161407,46.28227282161407 0 0,0 -0.21996721948777298,-0.7657347480250771 l 24.358725264388976 -6.7709543286411105" fill="#deff1b" stroke="none" /><path d="M 79.58551787078972 104.9243191809786 l -54.05819505067313 13.0397531072423 a76.60866491145472,76.60866491145472 0 0,0 -0.2981880435560974,-1.2845862873335105 l 54.274643660159775 -12.107298162560214" fill="#43ffe1" stroke="none" /><path d="M 79.35854240842038 103.8639653848113 l -25.586715480886532 4.789689995995818 a47.03115708833514,47.03115708833514 0 0,0 -0.1421092494361594,-0.7970241399551992 l 25.66537117266188 -4.348547105307405" fill="#d4ff1c" stroke="none" /><path d="M 79.23777060512086 103.15116336523772 l -25.001213986566057 3.7945303513681035 a46.28752976052663,46.28752976052663 0 0,0 -0.11277835172832193,-0.7887715293164962 l 25.062826389310978 -3.3636133500712067" fill="#deff1b" stroke="none" /><path d="M 79.07016306316243 101.71520430193888 l -25.19792771406224 2.0649751904677203 a46.282398691982394,46.282398691982394 0 0,0 -0.05823524984340187,-0.7945737159917543 l 25.229739522569975 -1.6309283379792054" fill="#deff1b" stroke="none" /><line stroke="#e1ed5e" stroke-width="0.3" x1="15.007084014347285" x2="10.007500721073583" y1="101.09737516637583" y2="101.16192664675087" /><path d="M 14.007167355692545 101.11028546245083 a86.0,86.0 0 0,1 10.666146001902534,-42.60595125391555" fill="none" id="id118" stroke="none" /><text fill="#e1ed5e" style="font-size:6.75px; font-family:Arial;" text-anchor="middle"><textPath startOffset="22.20632615414155" xlink:href="#id118">October</textPath></text><path d="M 79.00486145842228 99.54816195383935 l -27.447001110220704 -0.5906890935752468 a48.45335650789763,48.45335650789763 0 0,0 0.025122616681311816,-0.8336973411315638 l 27.432766799083744 1.063056582131805" fill="#c3ff1e" stroke="none" /><path d="M 79.03285615573316 98.82574320788736 l -55.529487022277976 -3.1099074715543784 a76.61650342694125,76.61650342694125 0 0,0 0.08507864662974392,-1.3161290066617675 l 55.46772778464382 4.0652955424691575" fill="#43ffe1" stroke="none" /><path d="M 79.21141760316559 97.0276538004421 l -25.031195656486833 -3.578953959423343 a46.28576017123071,46.28576017123071 0 0,0 0.11955855747481618,-0.7877415128002195 l 24.965881205572718 4.009294584615654" fill="#deff1b" stroke="none" /><path d="M 79.26566170972629 96.67025291283419 l -25.346491225782035 -4.070417109405008 a46.6712468124005,46.6712468124005 0 0,0 0.1342090340729091,-0.79210931623615 l 25.2726703301889 4.506112213956986" fill="#d9ff1c" stroke="none" /><path d="M 79.54389044137918 95.25157060432595 l -7.771954238009535 -1.8040857602879457 a28.97859624922756,28.97859624922756 0 0,0 0.11697306935330841,-0.4849288898932465 l 7.739748368395412 1.9375998818405888" fill="#ff3204" stroke="none" /><path d="M 79.62865764111835 94.90015583598534 l -24.529342365332226 -6.140774687555959 a46.286315481679225,46.286315481679225 0 0,0 0.20014129666403122,-0.771226058819644 l 24.42000473679789 6.562097171924466" fill="#deff1b" stroke="none" /><path d="M 79.81627453868168 94.20196356495316 l -24.312760454023707 -6.98415519073297 a46.29602230831917,46.29602230831917 0 0,0 0.22661705145143196,-0.764040040123337 l 24.188937505460565 7.401624617602846" fill="#ddff1b" stroke="none" /><path d="M 79.91906864156998 93.8553929516997 l -15.668691131727346 -4.794496243583575 a37.38581935733481,37.38581935733481 0 0,0 0.19359537333060448,-0.6137502381644432 l 15.583840274628537 5.063496648174432" fill="#ffab0f" stroke="none" /><path d="M 80.2630227832202 92.82701384747504 l -38.00743305665646 -13.812996185486636 a61.43963193670895,61.43963193670895 0 0,0 0.3697946457594701,-0.990865800304594 l 37.76403382239536 14.465185122820571" fill="#31ff2f" stroke="none" /><path d="M 80.38941819471856 92.48833698450439 l -23.603486830774816 -9.041110601609942 a46.27580407190054,46.27580407190054 0 0,0 0.2913314182245883,-0.7414066823447438 l 23.444361862668536 9.44606628885045" fill="#deff1b" stroke="none" /><path d="M 80.95270993114464 91.15688171328213 l -22.93100354568624 -10.646216656259305 a46.28186806199827,46.28186806199827 0 0,0 0.3416964007957127,-0.7196997635223694 l 22.744348951048778 11.039358835422206" fill="#deff1b" stroke="none" /><path d="M 81.10775173730289 90.83032412892265 l -34.10866789633297 -16.555225437152043 a58.91407014470039,58.91407014470039 0 0,0 0.4506645459479239,-0.9085122247076581 l 33.81864333743163 17.139897250358665" fill="#4bff2c" stroke="none" /><path d="M 81.6062741919709 89.86733742301443 l -22.579687272546078 -12.438608393667261 a46.77908563345467,46.77908563345467 0 0,0 0.39459797939493,-0.7019457749178276 l 22.362231651858718 12.825437678519874" fill="#d7ff1c" stroke="none" /><line stroke="#e1ed5e" stroke-width="0.3" x1="26.266209847984243" x2="21.928928074336255" y1="57.711370442889674" y2="55.22380399835377" /><path d="M 25.398753493254645 57.213857153982495 a86.0,86.0 0 0,1 29.58750427330803,-30.492523968695096" fill="none" id="id119" stroke="none" /><text fill="#e1ed5e" style="font-size:6.75px; font-family:Arial;" text-anchor="middle"><textPath startOffset="21.46611528233685" xlink:href="#id119">November</textPath></text><path d="M 81.78341655067845 89.55222093294921 l -21.930084290937373 -12.577587681626882 a46.28090799193396,46.28090799193396 0 0,0 0.4022920005074554,-0.6876474337351761 l 21.71033261595959 12.95321452771595" fill="#deff1b" stroke="none" /><path d="M 82.15384107792192 88.93136811851018 l -31.165750170325577 -19.329773843885707 a57.67348007123017,57.67348007123017 0 0,0 0.5305202275342905,-0.839155595251033 l 30.82840234654532 19.863377086850956" fill="#58ff2a" stroke="none" /><path d="M 82.54541684631803 88.32363383020206 l -25.219935078733336 -16.8710529587012 a51.342668856098086,51.342668856098086 0 0,0 0.49771958316062337,-0.7303420729174325 l 24.925791029903973 17.302673054889045" fill="#a0ff22" stroke="none" /><path d="M 82.95767976084542 87.72973835380427 l -25.04194604697802 -18.029894158448233 a51.857351558171736,51.857351558171736 0 0,0 0.5278026116193185,-0.7199221690922516 l 24.727880822845066 18.458278771211983" fill="#9aff23" stroke="none" /><path d="M 84.31358615837235 86.03803664274999 l -25.59073852533102 -22.777478471686436 a55.25929689587923,55.25929689587923 0 0,0 0.6385247527081496,-0.7050749800330912 l 25.194870132006823 23.21460623898908" fill="#73ff27" stroke="none" /><path d="M 84.80347519578584 85.50635884689758 l -25.915108917278705 -24.716459449100025 a56.811956633133356,56.811956633133356 0 0,0 0.681028558738492,-0.701859793880402 l 25.485816094837094 25.15888343853055" fill="#62ff29" stroke="none" /><path d="M 86.37877921826538 84.01681056812374 l -24.60662912434606 -28.873507072268602 a58.9363362426508,58.9363362426508 0 0,0 0.7777981613759187,-0.6513835918746839 l 24.105973426011033 29.292791821537097" fill="#4bff2c" stroke="none" /><path d="M 87.51073957382395 83.11751280151077 l -21.04073430008169 -28.442030620439514 a56.378829908585914,56.378829908585914 0 0,0 0.7851548983456877,-0.5704484247198699 l 20.54803408538222 28.79999827997605" fill="#67ff28" stroke="none" /><path d="M 87.80319425747018 82.90503203632743 l -16.152691524692848 -22.63951316194658 a48.81109490296699,48.81109490296699 0 0,0 0.6881640592188213,-0.48210290115062 l 15.760596325890367 22.914200905861144" fill="#beff1e" stroke="none" /><path d="M 89.00827224532344 82.1063720568725 l -18.52698650752849 -30.160408888585422 a56.39632033667914,56.39632033667914 0 0,0 0.8315447667608048,-0.5009964177554913 l 18.005079674550036 30.474851915799533" fill="#66ff29" stroke="none" /><line stroke="#e1ed5e" stroke-width="0.3" x1="56.762969772571076" x2="54.21961505331055" y1="26.818313649435495" y2="22.513508569990535" /><path d="M 56.25429882871897 25.957352633546506 a86.0,86.0 0 0,1 42.265352541879196,-11.944610805530505" fill="none" id="id120" stroke="none" /><text fill="#e1ed5e" style="font-size:6.75px; font-family:Arial;" text-anchor="middle"><textPath startOffset="22.20632615414155" xlink:href="#id120">December</textPath></text><path d="M 89.3179101791058 81.91981866633112 l -15.434112617604468 -26.123311030836845 a51.34203703621,51.34203703621 0 0,0 0.7647598546101447,-0.4429982696232131 l 14.982156030529003 26.385113457850107" fill="#a0ff22" stroke="none" /><path d="M 89.94658935756843 81.56283822128135 l -25.830963290769056 -47.37194829006441 a74.95683598327088,74.95683598327088 0 0,0 1.1381123071348231,-0.6079401791461994 l 25.011705937105926 47.80956719571236" fill="#41ffcf" stroke="none" /><path d="M 91.23893434514133 80.91482961587045 l -16.34240205460938 -35.600409811470605 a60.17222592168019,60.17222592168019 0 0,0 0.945041718125105,-0.42401267161785644 l 15.7271782180175 35.87644281360499" fill="#3eff2e" stroke="none" /><path d="M 91.56875222667455 80.76684994638697 l -10.147687993205118 -23.148650249378406 a46.27519693247683,46.27519693247683 0 0,0 0.7322856929578169,-0.31352651729370634 l 9.747718542456994 23.319896294634898" fill="#deff1b" stroke="none" /><path d="M 91.90106846888425 80.62456947434976 l -3.8977227708623237 -9.324693814849896 a31.106540334812827,31.106540334812827 0 0,0 0.4958028957791197,-0.2022504500576268 l 3.7366360054948236 9.3904051510911" fill="#ff5107" stroke="none" /><path d="M 92.23578459929587 80.48803036053334 l -11.212337540655035 -28.177321002824396 a51.32619217807918,51.32619217807918 0 0,0 0.8237043257368863,-0.31958448137140766 l 10.725650049918471 28.366148188086356" fill="#a0ff22" stroke="none" /><path d="M 93.59665428221793 80.00007090966166 l -7.70947185025421 -24.079426150748276 a46.28348710046148,46.28348710046148 0 0,0 0.7608446070968383,-0.23639812302675625 l 7.293841870446642 24.208564408657555" fill="#deff1b" stroke="none" /><path d="M 94.28887869178378 79.79150937346287 l -7.561426417418655 -26.75569413309855 a48.80363893467833,48.80363893467833 0 0,0 0.8103777100040788,-0.22150684033945983 l 7.099750818190854 26.881887514264307" fill="#beff1e" stroke="none" /><path d="M 94.98787191387505 79.60689891045804 l -6.0351189257277875 -24.55539607626589 a46.28616493084651,46.28616493084651 0 0,0 0.7753512592389162,-0.18350059246737296 l 5.611543979526337 24.655642580874133" fill="#deff1b" stroke="none" /><path d="M 95.33964822691252 79.52364482259891 l -5.608319047739622 -24.641473082110327 a46.27163307342062,46.27163307342062 0 0,0 0.778150661198908,-0.17007359496804134 l 5.183325662387193 24.734360175174235" fill="#deff1b" stroke="none" /><path d="M 96.04723909329186 79.375362276772 l -5.711106079249188 -29.79929640660576 a51.341634744640636,51.341634744640636 0 0,0 0.8693969431308295,-0.1588767343117519 l 5.197314015015465 29.893188622268248" fill="#a0ff22" stroke="none" /><path d="M 96.40284397218896 79.31037775812273 l -2.165931019523278 -12.457701097600212 a33.64458673972711,33.64458673972711 0 0,0 0.5714305457898852,-0.0942909362611815 l 1.9511712675945074 12.493138296801021" fill="#ff760a" stroke="none" /><path d="M 97.11714578562143 79.19881850522333 l -4.250714152241848 -30.67094968666612 a51.96410382178166,51.96410382178166 0 0,0 0.8870650412570127,-0.11516650129231482 l 3.7221343824769777 30.739574511122573" fill="#99ff23" stroke="none" /><path d="M 97.47563105711357 79.15227682838746 l -2.2846226130775587 -18.867756998541832 a40.00557167359639,40.00557167359639 0 0,0 0.6843492090611563,-0.0768946074508739 l 1.9595067005066846 18.904287559463302" fill="#ffcf13" stroke="none" /><path d="M 97.83486435360386 79.11191278185805 l -2.70363614972317 -26.083256167131758 a47.22300327403989,47.22300327403989 0 0,0 0.8092558238886886,-0.0768485915832457 l 2.2542551987442447 26.125930303230184" fill="#d2ff1c" stroke="none" /><path d="M 98.19473922651362 79.07773832637324 l -2.1969470672849054 -25.46175162055526 a46.55635678267347,46.55635678267347 0 0,0 0.7990175110487121,-0.06201913687884287 l 1.7583393668738592 25.495796019622563" fill="#daff1c" stroke="none" /><path d="M 98.55514903715128 79.0497635885617 l -3.4717975703498003 -50.340818355464684 a71.46039408355207,71.46039408355207 0 0,0 1.227886770962955,-0.07406948323780112 l 2.604748750547222 50.393121108082795" fill="#3cffa8" stroke="none" /><path d="M 98.91598698831166 79.02799685794201 l -1.3051564033045353 -25.250383432527848 a46.284091771838746,46.284091771838746 0 0,0 0.795996383711115,-0.03427727870547671 l 0.8703191872040962 25.269108437757517" fill="#deff1b" stroke="none" /><path d="M 99.63851952072746 79.00311137660856 l -1.0844414378176228 -62.990665870174325 a84.0,84.0 0 0,0 1.445921917090143,-0.012445506434235476 l 1.543054966925665e-14 63.0" fill="#4dd2ff" stroke="none" /></svg>