<?xml version="1.0" encoding="utf-8" ?>
<svg baseProfile="full" height="200mm" version="1.1" viewBox="0,0,200,200" width="200mm" xmlns="http://www.w3.org/2000/svg" xmlns:ev="http://www.w3.org/2001/xml-events" xmlns:xlink="http://www.w3.org/1999/xlink"><defs /><rect fill="#1a1a1a" height="200" width="200" x="0" y="0" /><text alignment-baseline="middle" fill="#e1ed5e" style="dominant-baseline: central; font-size:9.0px; font-family:Arial;" text-anchor="middle" x="100.0" y="100.0">2014</text><line stroke="#e1ed5e" stroke-width="0.3" x1="100.0" x2="100.0" y1="15.0" y2="10.0" /><path d="M 100.0 14.0 a86.0,86.0 0 0,1 42.46469731375804,11.215312516191453" fill="none" id="id13" stroke="none" /><text fill="#e1ed5e" style="font-size:6.75px; font-family:Arial;" text-anchor="middle"><textPath startOffset="22.20632615414155" xlink:href="#id13">January</textPath></text><path d="M 100.0 79.0 l 0.0 -16.69977091583626 a37.69977091583626,37.69977091583626 0 0,0 0.6489395837676675,0.00558562787502671 l -0.2874591044951391 16.697296664569794" fill="#ff8f0d" stroke="none" /><path d="M 107.08798089147638 80.2323363322302 l 17.01983298319405 -47.46659722206393 a71.42571334763116,71.42571334763116 0 0,0 1.1537554458008612,0.4249378676312006 l -17.834370754767487 47.166596086626406" fill="#3cffa0" stroke="none" /><path d="M 107.76421540070413 80.48803036053334 l 11.643356965713325 -29.260500371469305 a52.49197744537139,52.49197744537139 0 0,0 0.8366624556270644,0.3412956229934549 l -12.145303290928778 29.05574386229227" fill="#a5ff21" stroke="none" /><path d="M 108.43124777332544 80.76684994638697 l 15.160789088054491 -34.58441019658505 a58.76150095557813,58.76150095557813 0 0,0 0.9228854171848118,0.4140717852266183 l -15.753856623706083 34.3183180808419" fill="#5aff2a" stroke="none" /><path d="M 109.08828744355905 81.06846463323043 l 18.08716811011368 -37.67683019356943 a62.79341076866757,62.79341076866757 0 0,0 0.9703936208023426,0.476167935354485 l -18.733032997926454 37.359907098080114" fill="#30ff31" stroke="none" /><line stroke="#e1ed5e" stroke-width="0.3" x1="143.23703022742887" x2="145.7803849466894" y1="26.81831364943548" y2="22.513508569990506" /><path d="M 143.74570117128098 25.957352633546492 a86.0,86.0 0 0,1 28.547481713284135,27.462654790039103" fill="none" id="id14" stroke="none" /><text fill="#e1ed5e" style="font-size:6.75px; font-family:Arial;" text-anchor="middle"><textPath startOffset="19.985693538727396" xlink:href="#id14">February</textPath></text><path d="M 110.99172775467656 82.1063720568725 l 6.599595065265682 -10.743597486111435 a33.60870897312881,33.60870897312881 0 0,0 0.49033641632672037,0.30704861892024304 l -6.783550633964665 10.628404525868246" fill="#ff5107" stroke="none" /><path d="M 114.16331599549186 84.49514656593476 l 33.97144391762704 -37.18919065662508 a71.36958311861723,71.36958311861723 0 0,0 0.8999096641265825,0.8363679571074503 l -34.606561465548474 36.59891811344299" fill="#3bffa0" stroke="none" /><path d="M 117.45458315368197 88.32363383020206 l 15.696525656951975 -10.500301241828147 a39.884841642663815,39.884841642663815 0 0,0 0.37682318000575477,0.5739275555011448 l -15.874945472315655 10.228555622349328" fill="#ffaf10" stroke="none" /><line stroke="#e1ed5e" stroke-width="0.3" x1="172.23445277983987" x2="176.4835382374775" y1="55.19839476539836" y2="52.563006222186495" /><path d="M 173.08426987136738 54.67131705675599 a86.0,86.0 0 0,1 12.851231095245387,41.99856678651699" fill="none" id="id15" stroke="none" /><text fill="#e1ed5e" style="font-size:6.75px; font-family:Arial;" text-anchor="middle"><textPath startOffset="22.20632615414155" xlink:href="#id15">March</textPath></text><path d="M 117.84615892207809 88.93136811851018 l 26.760762600919723 -16.59769093118829 a52.49002634533724,52.49002634533724 0 0,0 0.46962127132517917,0.7719338914594981 l -27.042499670531125 16.134589266521708" fill="#a5ff21" stroke="none" /><path d="M 118.56541770881063 90.18545643968196 l 25.90588992438977 -13.695058690280133 a50.303067506744355,50.303067506744355 0 0,0 0.3980902525109894,0.7689836582687735 l -26.137789610060874 13.247102309751016" fill="#c1ff1e" stroke="none" /><path d="M 119.7369772167798 92.82701384747503 l 29.61288747192551 -10.762176469039776 a52.507896578090964,52.507896578090964 0 0,0 0.30141262693552423,0.852134085007583 l -29.793753179670844 10.250844757605579" fill="#a5ff21" stroke="none" /><path d="M 119.85752413597 93.16781622104841 l 41.69657152995256 -14.346130851670777 a65.095527525654,65.095527525654 0 0,0 0.3554299690212248,1.062690367393098 l -41.93733879274555 13.626267381355365" fill="#33ff50" stroke="none" /><path d="M 120.45610955862082 95.25157060432595 l 36.81383850129339 -8.545511178760254 a58.792650958957985,58.792650958957985 0 0,0 0.220348173023811,0.9877776537309346 l -36.95548106131923 7.910555355479355" fill="#5aff2a" stroke="none" /><path d="M 120.78858239683441 97.02765380044208 l 31.854676062854768 -4.55457344450734 a53.17863462502447,53.17863462502447 0 0,0 0.12176388178155531,0.9072823514376769 l -31.928355943694157 4.0055727510049985" fill="#9dff22" stroke="none" /><path d="M 120.94382443527127 98.46500227214037 l 32.57774311505058 -2.3876614232967697 a53.66512319803073,53.66512319803073 0 0,0 0.05959233126920512,0.9218669885444642 l -32.6140160373242 1.8265353704992702" fill="#97ff23" stroke="none" /><path d="M 120.96714384426684 98.82574320788733 l 25.16477027175952 -1.4093432387858853 a46.20420423649878,46.20420423649878 0 0,0 0.037637486615670956,0.7944678560534405 l -25.185301366608687 0.9759642761094449" fill="#f7ff19" stroke="none" /><line stroke="#e1ed5e" stroke-width="0.3" x1="184.98032266829074" x2="189.97916517819016" y1="98.17113171792111" y2="98.06355123074" /><path d="M 185.9800911702706 98.14961562048488 a86.0,86.0 0 0,1 -9.607161424134198,41.387399972396054" fill="none" id="id16" stroke="none" /><text fill="#e1ed5e" style="font-size:6.75px; font-family:Arial;" text-anchor="middle"><textPath startOffset="21.466115282336823" xlink:href="#id16">April</textPath></text><line stroke="#e1ed5e" stroke-width="0.3" x1="174.80103733775053" x2="179.2010983576182" y1="140.37084112569926" y2="142.7455964860345" /><path d="M 175.68104954172406 140.8457921977663 a86.0,86.0 0 0,1 -30.038265399797805,32.042727171017184" fill="none" id="id17" stroke="none" /><text fill="#e1ed5e" style="font-size:6.75px; font-family:Arial;" text-anchor="middle"><textPath startOffset="22.206326154141568" xlink:href="#id17">May</textPath></text><line stroke="#e1ed5e" stroke-width="0.3" x1="143.8653032363475" x2="146.44561519142675" y1="172.8068346515853" y2="177.08958963109032" /><path d="M 144.38136562736335 173.6633856474863 a86.0,86.0 0 0,1 -40.68145358897372,12.25698825130547" fill="none" id="id18" stroke="none" /><text fill="#e1ed5e" style="font-size:6.75px; font-family:Arial;" text-anchor="middle"><textPath startOffset="21.466115282336833" xlink:href="#id18">June</textPath></text><line stroke="#e1ed5e" stroke-width="0.3" x1="102.19456741930631" x2="102.32365962044197" y1="184.97166512339345" y2="189.96999836594603" /><path d="M 102.22038585953345 185.97133177190398 a86.0,86.0 0 0,1 -42.740103519485714,-10.115201625700543" fill="none" id="id19" stroke="none" /><text fill="#e1ed5e" style="font-size:6.75px; font-family:Arial;" text-anchor="middle"><textPath startOffset="22.20632615414155" xlink:href="#id19">July</textPath></text><path d="M 91.7346041902142 119.30500536409082 l -8.694119455762074 20.3063503057917 a43.08926381418329,43.08926381418329 0 0,0 -0.6793316377663962,-0.2977990262802232 l 9.042371768186214 -20.153686726217025" fill="#ffdd14" stroke="none" /><path d="M 90.7491055286396 118.85261126421891 l -9.097517033375425 18.540039844883804 a41.65182543075636,41.65182543075636 0 0,0 -0.6409345059918448,-0.3213778668863948 l 9.41530544705003 -18.38069413708811" fill="#ffc812" stroke="none" /><line stroke="#e1ed5e" stroke-width="0.3" x1="58.666819895761336" x2="56.23545636021788" y1="174.27360380694188" y2="178.64263932499728" /><path d="M 58.180547188652646 175.14741091055294 a86.0,86.0 0 0,1 -31.652253787137756,-30.449443065178592" fill="none" id="id20" stroke="none" /><text fill="#e1ed5e" style="font-size:6.75px; font-family:Arial;" text-anchor="middle"><textPath startOffset="22.20632615414155" xlink:href="#id20">August</textPath></text><path d="M 88.8546689885994 117.79835938074946 l -3.998140197523794 6.384766501538533 a28.533284032759166,28.533284032759166 0 0,0 -0.41402909010217454,-0.26425295441160923 l 4.107451089672892 -6.3149991183031196" fill="#ff0000" stroke="none" /><path d="M 88.54995079064634 117.60387380957326 l -10.309439618464493 15.85024402712663 a39.90806126936944,39.90806126936944 0 0,0 -0.5726337421284194,-0.3795104195191423 l 10.580748059332874 -15.670435586516168" fill="#ffaf10" stroke="none" /><path d="M 88.24862548938628 117.40417183066458 l -10.601699724154388 15.701465690642522 a39.94550241813501,39.94550241813501 0 0,0 -0.5665472802629143,-0.389676385418742 l 10.870403889040192 -15.516648515858678" fill="#ffb010" stroke="none" /><path d="M 87.07902340077011 116.55440617244103 l -19.38047804608626 24.83034489901565 a52.498396103593976,52.498396103593976 0 0,0 -0.707584650546596,-0.5621480406106417 l 19.805020189350216 -24.493062944399878" fill="#a5ff21" stroke="none" /><path d="M 86.24171649860922 115.8653595955263 l -20.714498224605396 23.886916063405305 a52.61764057796455,52.61764057796455 0 0,0 -0.6791625643176155,-0.5992819981329757 l 21.122603141829597 -23.526810923500044" fill="#a4ff21" stroke="none" /><path d="M 85.18274418774928 114.88116024355367 l -17.79015566069777 17.866881728918017 a46.21339130595092,46.21339130595092 0 0,0 -0.5588725700058738,-0.5661349628022467 l 18.095068855759177 -17.558006272135106" fill="#f7ff19" stroke="none" /><path d="M 83.72743513129214 113.27417163493432 l -19.37156958160305 15.802151752902523 a45.99931415212523,45.99931415212523 0 0,0 -0.49522004702651695,-0.6178631522287708 l 19.640707540684428 -15.466360767095493" fill="#f9ff18" stroke="none" /><path d="M 83.50135304334701 112.99209946851258 l -29.733564786188705 23.414127974891468 a58.845822275636664,58.845822275636664 0 0,0 -0.6198235582175219,-0.8012055020526225 l 30.132195161624296 -22.898844478725593" fill="#59ff2a" stroke="none" /><path d="M 83.28015986056508 112.70617746262583 l -8.117605407310991 6.168942646382891 a31.195654511759713,31.195654511759713 0 0,0 -0.32122422934479405,-0.4303323489206731 l 8.22259090335087 -6.028297417952909" fill="#ff2b04" stroke="none" /><path d="M 83.06392112726016 112.41649034213515 l -26.475967519473294 19.41054936472684 a53.8290463268841,53.8290463268841 0 0,0 -0.5414182067327382,-0.751982535377221 l 26.806165518581636 -18.951933223898482" fill="#95ff23" stroke="none" /><line stroke="#e1ed5e" stroke-width="0.3" x1="26.63291911575756" x2="22.317208475507996" y1="142.92168965132927" y2="145.44649492493687" /><path d="M 25.769776987707644 143.4266507060508 a86.0,86.0 0 0,1 -11.730757126820373,-40.83630448921669" fill="none" id="id21" stroke="none" /><text fill="#e1ed5e" style="font-size:6.75px; font-family:Arial;" text-anchor="middle"><textPath startOffset="21.46611528233685" xlink:href="#id21">September</textPath></text><path d="M 81.51974371655577 109.97397251340807 l -33.265137832024315 17.95351564948672 a58.80076876413944,58.80076876413944 0 0,0 -0.4730591617690392,-0.8948496570672232 l 33.56924950201824 -17.37825097733337" fill="#5aff2a" stroke="none" /><path d="M 81.02952815118164 109.00673069616217 l -17.047451799768776 8.09372632583655 a39.87124846699283,39.87124846699283 0 0,0 -0.2890198130934503,-0.622522964993656 l 17.18424622970205 -7.799083293564067" fill="#ffaf10" stroke="none" /><path d="M 80.87730276802145 108.67885076344099 l -42.69496683185649 19.37714334900899 a67.8863933048957,67.8863933048957 0 0,0 -0.4737788649652961,-1.0682462665292334 l 43.02218678155307 -18.63934874598706" fill="#37ff74" stroke="none" /><path d="M 80.58989483394504 108.01547362559985 l -29.107452898895676 12.020028692451834 a52.49166404032654,52.49166404032654 0 0,0 -0.3376898373870286,-0.8381184826525986 l 29.310045350540094 -11.51721084195643" fill="#a5ff21" stroke="none" /><path d="M 80.0844068197444 106.66101706037122 l -59.712226107265096 19.971494356872178 a83.96356512723631,83.96356512723631 0 0,0 -0.4466371836673389,-1.3746079072632946 l 60.04715554194868 -18.940687549631082" fill="#4dd2ff" stroke="none" /><path d="M 79.97269907076064 106.31721596034903 l -30.072068024220396 9.48563906611863 a52.53262792324824,52.53262792324824 0 0,0 -0.26459740972269263,-0.8647196444774309 l 30.23089220644922 -8.966592449089152" fill="#a5ff21" stroke="none" /><path d="M 79.86692584326677 105.97154293290107 l -30.875326170023143 9.157733903739498 a53.204811074698384,53.204811074698384 0 0,0 -0.25286818563517394,-0.8802673273854399 l 31.02838699254442 -8.624909100849461" fill="#9cff22" stroke="none" /><path d="M 79.18660465613746 102.79330883721812 l -21.855309723353297 2.9331413150898498 a43.05125577099835,43.05125577099835 0 0,0 -0.09224959689156408,-0.7353200524137548 l 21.90256082949171 -2.5565035083886865" fill="#ffdc14" stroke="none" /><line stroke="#e1ed5e" stroke-width="0.3" x1="15.007084014347285" x2="10.007500721073583" y1="101.09737516637583" y2="101.16192664675087" /><path d="M 14.007167355692545 101.11028546245083 a86.0,86.0 0 0,1 10.666146001902534,-42.60595125391555" fill="none" id="id22" stroke="none" /><text fill="#e1ed5e" style="font-size:6.75px; font-family:Arial;" text-anchor="middle"><textPath startOffset="22.20632615414155" xlink:href="#id22">October</textPath></text><path d="M 79.00019446554 99.90962569577889 l -28.688825992322695 -0.12346460464704606 a49.68909166087994,49.68909166087994 0 0,0 0.011042792243262201,-0.85527642882466 l 28.682450192961717 0.617277291532178" fill="#c9ff1d" stroke="none" /><path d="M 79.00486145842228 99.54816195383935 l -31.478143995253237 -0.6774436401747105 a52.48543281061117,52.48543281061117 0 0,0 0.02721321090807839,-0.9030739857044522 l 31.461819089889513 1.2191877733041572" fill="#a5ff21" stroke="none" /><path d="M 79.03285615573316 98.82574320788736 l -37.745961269931655 -2.1139479809577235 a58.80511034579023,58.80511034579023 0 0,0 0.06530001996114745,-1.010162406325965 l 37.703980658966096 2.7633694515367004" fill="#5aff2a" stroke="none" /><path d="M 79.32604984820605 96.31383870115002 l -61.98883072610159 -11.052596485229055 a83.96645951500349,83.96645951500349 0 0,0 0.26595087002344614,-1.420720182072957 l 61.78939413216828 12.117994744764584" fill="#4dd2ff" stroke="none" /><path d="M 79.62865764111835 94.90015583598534 l -30.534825825889662 -7.644211684433946 a52.4771275769225,52.4771275769225 0 0,0 0.22691027032830538,-0.8743778340996892 l 30.39871922369105 8.1686859440825" fill="#a5ff21" stroke="none" /><path d="M 80.14247586403 93.16781622104843 l -59.50586936180704 -20.47360147329313 a83.92945928411967,83.92945928411967 0 0,0 0.4817827498094835,-1.3620647112742423 l 59.14463353118774 21.49486381099398" fill="#4dd3ff" stroke="none" /><line stroke="#e1ed5e" stroke-width="0.3" x1="26.266209847984243" x2="21.928928074336255" y1="57.711370442889674" y2="55.22380399835377" /><path d="M 25.398753493254645 57.213857153982495 a86.0,86.0 0 0,1 29.58750427330803,-30.492523968695096" fill="none" id="id23" stroke="none" /><text fill="#e1ed5e" style="font-size:6.75px; font-family:Arial;" text-anchor="middle"><textPath startOffset="21.46611528233685" xlink:href="#id23">November</textPath></text><path d="M 81.78341655067845 89.55222093294921 l -54.623603312767884 -31.328341060533898 a83.96985780892125,83.96985780892125 0 0,0 0.7298992942438576,-1.2476344941952264 l 54.0762443440537 32.263954967083016" fill="#4dd2ff" stroke="none" /><path d="M 82.95767976084542 87.72973835380427 l -31.48203215628213 -22.666677206547565 a59.79299684575819,59.79299684575819 0 0,0 0.6085713778949007,-0.8300906755223815 l 31.087198165873595 23.205230325741447" fill="#4fff2b" stroke="none" /><path d="M 83.39014120810768 87.1503855733568 l -49.82957637567698 -38.54884327992962 a84.0,84.0 0 0,0 0.8945836776241158,-1.1360304241878092 l 49.15863861745889 39.40086609807048" fill="#4dd2ff" stroke="none" /><path d="M 84.31358615837235 86.03803664274999 l -9.270195150233526 -8.251097179308346 a33.41036352351547,33.41036352351547 0 0,0 0.38605891325289293,-0.4262958944017555 l 9.12679259636459 8.409445860979657" fill="#ff4e07" stroke="none" /><path d="M 85.05521093208273 85.24692304244772 l -17.929169817003235 -17.699173999257717 a46.193568436863806,46.193568436863806 0 0,0 0.5634827855259844,-0.5610630113706964 l 17.62185123130994 18.005172861278524" fill="#f7ff19" stroke="none" /><path d="M 88.39885842347998 82.49532879139004 l -17.38257574298594 -26.228132044829426 a52.465359524748024,52.465359524748024 0 0,0 0.7570825685752892,-0.49242756222307726 l 16.92852614862636 26.523458531212036" fill="#a6ff21" stroke="none" /><line stroke="#e1ed5e" stroke-width="0.3" x1="56.762969772571076" x2="54.21961505331055" y1="26.818313649435495" y2="22.513508569990535" /><path d="M 56.25429882871897 25.957352633546506 a86.0,86.0 0 0,1 42.265352541879196,-11.944610805530505" fill="none" id="id24" stroke="none" /><text fill="#e1ed5e" style="font-size:6.75px; font-family:Arial;" text-anchor="middle"><textPath startOffset="22.20632615414155" xlink:href="#id24">December</textPath></text><path d="M 89.94658935756843 81.56283822128135 l -15.082903426914061 -27.66085465574348 a52.50582257411766,52.50582257411766 0 0,0 0.7972257911363496,-0.425850407947472 l 14.604532589249406 27.916383790192704" fill="#a5ff21" stroke="none" /><path d="M 92.57280143429618 80.3572730644239 l -11.136446682876665 -29.452582866770243 a52.487697315690184,52.487697315690184 0 0,0 0.8478454575705606,-0.3122686372853903 l 10.627818899533533 29.639914771861957" fill="#a5ff21" stroke="none" /><path d="M 94.63758080256005 79.69619591428918 l -8.042319301853958 -30.450747971648475 a52.49487183313859,52.49487183313859 0 0,0 0.8756422377508876,-0.22322070339041963 l 7.5169681754180715 30.584671671207758" fill="#a5ff21" stroke="none" /><path d="M 95.692805502759 79.44645832069477 l -7.795350961215087 -37.198708112386704 a59.00672811278368,59.00672811278368 0 0,0 0.9959031671719228,-0.19976880636412175 l 7.153881384576028 37.32738087482804" fill="#58ff2a" stroke="none" /><path d="M 97.11714578562143 79.19881850522333 l -4.326592377719529 -31.218447625268286 a52.516834767066314,52.516834767066314 0 0,0 0.8965005604466544,-0.11639150248434431 l 3.788577088765017 31.28829745091677" fill="#a5ff21" stroke="none" /><path d="M 97.83486435360386 79.11191278185805 l -3.2440280706363995 -31.29667251580405 a52.46435171244692,52.46435171244692 0 0,0 0.8990762811814275,-0.0853781262922347 l 2.7048266623647357 31.347876186611465" fill="#a6ff21" stroke="none" /><path d="M 99.27714615592234 79.0124445844662 l -1.0932363151631057 -31.741351221609555 a52.760172276207285,52.760172276207285 0 0,0 0.907910523007185,-0.023448650212321752 l 0.5466991569610418 31.75546666396424" fill="#a2ff22" stroke="none" /></svg>