<?xml version="1.0" encoding="utf-8" ?>
<svg baseProfile="full" height="200mm" version="1.1" viewBox="0,0,200,200" width="200mm" xmlns="http://www.w3.org/2000/svg" xmlns:ev="http://www.w3.org/2001/xml-events" xmlns:xlink="http://www.w3.org/1999/xlink"><defs /><rect fill="#1a1a1a" height="200" width="200" x="0" y="0" /><text alignment-baseline="middle" fill="#e1ed5e" style="dominant-baseline: central; font-size:9.0px; font-family:Arial;" text-anchor="middle" x="100.0" y="100.0">2016</text><line stroke="#e1ed5e" stroke-width="0.3" x1="100.0" x2="100.0" y1="15.0" y2="10.0" /><path d="M 100.0 14.0 a86.0,86.0 0 0,1 42.35913384403234,11.155469271406648" fill="none" id="id37" stroke="none" /><text fill="#e1ed5e" style="font-size:6.75px; font-family:Arial;" text-anchor="middle"><textPath startOffset="22.145653131862478" xlink:href="#id37">January</textPath></text><path d="M 101.08105385017728 79.02784411241856 l 0.5648653894148661 -10.95823764964652 a31.972786578362367,31.972786578362367 0 0,0 0.5478851346803382,0.03295940918356127 l -0.7528948762276666 10.946926262638268" fill="#ff5007" stroke="none" /><path d="M 101.44090949804482 79.04949213459386 l 0.7445185393403694 -10.825136162650216 a31.850708769261985,31.850708769261985 0 0,0 0.5451491557170057,0.04219799241671881 l -0.9302366898326087 10.810760403238442" fill="#ff4e07" stroke="none" /><path d="M 102.15924093988457 79.11130261209362 l 1.1277469659764106 -10.909928886245615 a31.968060973672852,31.968060973672852 0 0,0 0.5453813591573172,0.061111118850232446 l -1.3148642267345245 10.888962006888411" fill="#ff5007" stroke="none" /><path d="M 103.58742460773223 79.30868818359171 l 1.8613279840747043 -10.735645183479507 a31.895807421658404,31.895807421658404 0 0,0 0.5386826208479408,0.09816591798072728 l -2.045345338473699 10.702111091567414" fill="#ff4f07" stroke="none" /><path d="M 103.94208987418118 79.37332000966035 l 2.0608414106373396 -10.783193089144403 a31.978356913380495,31.978356913380495 0 0,0 0.5383076931345441,0.1076766148131221 l -2.245645589302841 10.746227077668422" fill="#ff5007" stroke="none" /><path d="M 105.69591212413111 79.78721728523813 l 2.946467438257878 -10.455973478472968 a31.863197123648455,31.863197123648455 0 0,0 0.5251965075172463,0.15287704904235802 l -3.125523958156729 10.403852735128094" fill="#ff4e07" stroke="none" /><path d="M 108.07796709384702 80.6158196554323 l 4.195900553532748 -10.068633864515524 a31.9079314882706,31.9079314882706 0 0,0 0.5037881383512148,0.21503719916768138 l -4.368123767054392 9.995122015688441" fill="#ff4f07" stroke="none" /><path d="M 110.34350942703115 81.72400993836675 l 5.367463049156248 -9.483792907483169 a31.897338551044733,31.897338551044733 0 0,0 0.47421854051633733,0.27379020202181886 l -5.529474057532982 9.390255808185177" fill="#ff4f07" stroke="none" /><line stroke="#e1ed5e" stroke-width="0.3" x1="143.13028292997686" x2="145.6673583964461" y1="26.7553504044142" y2="22.446841604673864" /><path d="M 143.63769802327073 25.89364864446614 a86.0,86.0 0 0,1 29.32050498858742,28.57503671076993" fill="none" id="id38" stroke="none" /><text fill="#e1ed5e" style="font-size:6.75px; font-family:Arial;" text-anchor="middle"><textPath startOffset="20.669276256404974" xlink:href="#id38">February</textPath></text><path d="M 112.45986205192187 83.09580414077388 l 6.465752449280228 -8.772034981161385 a31.897456237402025,31.897456237402025 0 0,0 0.43797791273354797,0.3286667908786936 l -6.615383350924542 8.659749163018677" fill="#ff4f07" stroke="none" /><path d="M 113.03279911837588 83.53348406188908 l 6.751859673319586 -8.53075413138573 a31.879401412685993,31.879401412685993 0 0,0 0.4261960661022402,0.34331338201541756 l -6.897306509777086 8.413592455576905" fill="#ff4e07" stroke="none" /><path d="M 114.13192950727249 84.46653392183569 l 8.80451806021149 -9.677707672720778 a34.08348440100071,34.08348440100071 0 0,0 0.4294035839233175,0.3974495466561474 l -8.969351415448772 9.525140379932257" fill="#ff6f0a" stroke="none" /><path d="M 114.39649973595853 84.71141617570332 l 7.463837449800429 -7.926336720389 a31.887409392597966,31.887409392597966 0 0,0 0.39529381044619655,0.37868252849970674 l -7.598803746111937 7.7970420615837135" fill="#ff4f07" stroke="none" /><path d="M 114.91283532996326 85.21462403516908 l 10.847286867478733 -10.754575571005205 a36.2749640948134,36.2749640948134 0 0,0 0.4346314168588308,0.4459701226351544 l -11.030305085488376 10.566782756302308" fill="#ff8f0d" stroke="none" /><path d="M 115.8921839302757 86.27271002978787 l 8.258451347883627 -7.133453580367726 a31.91275302793122,31.91275302793122 0 0,0 0.35454375118434384,0.41765164740757804 l -8.379689662575082 6.990635150510596" fill="#ff4f07" stroke="none" /><path d="M 116.57777611688842 87.10902102172516 l 8.663547021913988 -6.736826565236009 a31.974601549531734,31.974601549531734 0 0,0 0.3332180154285209,0.43619307863793005 l -8.777917014696815 6.587112573357197" fill="#ff5007" stroke="none" /><path d="M 116.7966241395341 87.39550010848427 l 8.31202118297573 -6.237495655600237 a31.392114712601526,31.392114712601526 0 0,0 0.31974809228658746,0.4337996965859374 l -8.417871294846144 6.0938896497454245" fill="#ff4706" stroke="none" /><path d="M 117.42321728460499 88.27688183743584 l 9.077365951690686 -6.107656922268541 a31.94084300687329,31.94084300687329 0 0,0 0.3021840431302671,0.4575451561562214 l -9.180874433741677 5.950931887773261" fill="#ff4f07" stroke="none" /><line stroke="#e1ed5e" stroke-width="0.3" x1="172.87174338648825" x2="177.1583165268699" y1="56.24261187166439" y2="53.66864786411523" /><path d="M 173.72905801456457 55.72781907015455 a86.0,86.0 0 0,1 12.242430191666344,42.057860355516425" fill="none" id="id39" stroke="none" /><text fill="#e1ed5e" style="font-size:6.75px; font-family:Arial;" text-anchor="middle"><textPath startOffset="22.145653131862474" xlink:href="#id39">March</textPath></text><path d="M 119.0197475246899 91.09779779509293 l 9.839044150960701 -4.605169465112996 a31.863442161992815,31.863442161992815 0 0,0 0.22761958702340332,0.49738987644125754 l -9.916648202839156 4.435590606457055" fill="#ff4e07" stroke="none" /><path d="M 119.16976305983485 91.42560881287824 l 9.401993636196826 -4.205392164939751 a31.299650848258025,31.299650848258025 0 0,0 0.2151718612946311,0.49235532752153033 l -9.472799379508428 4.043374767642371" fill="#ff4606" stroke="none" /><path d="M 119.31412917781788 91.75594674310238 l 10.040929457038558 -4.285875714637328 a31.91737124964351,31.91737124964351 0 0,0 0.21076735726951645,0.5057649302845227 l -10.113022658844558 4.112878274911528" fill="#ff4f07" stroke="none" /><path d="M 119.83427380445688 93.10060997987247 l 10.296064073525587 -3.5815055502316215 a31.901197980611315,31.901197980611315 0 0,0 0.17547873505080178,0.5187716996498581 l -10.356028230148754 3.4042321761076018" fill="#ff4f07" stroke="none" /><path d="M 119.94978838288452 93.4421083053983 l 10.35445803889977 -3.4037160230561003 a31.899545130185246,31.899545130185246 0 0,0 0.16653884271067004,0.5216805528030823 l -10.411361597387698 3.225466436561631" fill="#ff4f07" stroke="none" /><path d="M 120.35273937422433 94.82641323984039 l 10.535505072050032 -2.678084190543014 a31.870556658001853,31.870556658001853 0 0,0 0.13023291895837252,0.5313947514427166 l -10.579925517524696 2.4968336144922025" fill="#ff4e07" stroke="none" /><path d="M 120.7213421655516 96.59031103205396 l 10.743328494666804 -1.7678106154814628 a31.88780333752078,31.88780333752078 0 0,0 0.08424227372162381,0.5408958286224254 l -10.772092260526692 1.583126604927596" fill="#ff4f07" stroke="none" /><path d="M 120.77682067341334 96.94652285012252 l 10.761946392761192 -1.5816355117582126 a31.877548485422636,31.877548485422636 0 0,0 0.07492056269203269,0.5420878700030036 l -10.787511472008438 1.3966593335551234" fill="#ff4e07" stroke="none" /><path d="M 120.82617615685814 97.30363454192243 l 10.815602091468051 -1.4002962266379644 a31.905873560760945,31.905873560760945 0 0,0 0.06566215673138308,0.5437768519370687 l -10.838046334459099 1.2144256977774828" fill="#ff4f07" stroke="none" /><path d="M 120.86939407059847 97.66154086499901 l 10.798399560949345 -1.209983194110459 a31.865978667747363,31.865978667747363 0 0,0 0.05624740906874576,0.544142659203942 l -10.817579362499757 1.0244360126235856" fill="#ff4e07" stroke="none" /><path d="M 120.9064616781168 98.02013634271609 l 10.938087733195951 -1.0358482806205958 a31.987026209104826,31.987026209104826 0 0,0 0.0470763381331356,0.5470984081596915 l -10.954257694026827 0.8479288250852423" fill="#ff5007" stroke="none" /><path d="M 120.96210409425399 98.7389718711861 l 10.99885203640177 -0.6616636259509237 a32.01873608326136,32.01873608326136 0 0,0 0.0282960404435626,0.5489356252571596 l -11.008589666301905 0.47275620731703344" fill="#ff5107" stroke="none" /><line stroke="#e1ed5e" stroke-width="0.3" x1="184.99686870605535" x2="189.99668451229388" y1="99.2704041080226" y2="99.22748670261217" /><path d="M 185.99683186730306 99.26182062694052 a86.0,86.0 0 0,1 -10.086455211305974,41.156179273409016" fill="none" id="id40" stroke="none" /><text fill="#e1ed5e" style="font-size:6.75px; font-family:Arial;" text-anchor="middle"><textPath startOffset="21.40746469413373" xlink:href="#id40">April</textPath></text><path d="M 120.99922638620191 100.18025310272382 l 10.890358121926191 0.09348062662635345 a31.890759323911176,31.890759323911176 0 0,0 -0.009398006926020433,0.5473867881138994 l -10.887148683401502 -0.28041433070932387" fill="#ff4f07" stroke="none" /><path d="M 120.99303781780057 100.54070618675476 l 10.955152839999768 0.2821658765559446 a31.95878603357359,31.95878603357359 0 0,0 -0.018833332398395523,0.5483119238110741 l -10.948694820604526 -0.4701840649311294" fill="#ff5007" stroke="none" /><path d="M 120.9064616781168 101.97986365728391 l 10.450057892288957 0.9896313472839895 a31.496812857039885,31.496812857039885 0 0,0 -0.0555957855744366,0.5378387930016821 l -10.431529714232854 -1.168874662568603" fill="#ff4906" stroke="none" /><path d="M 120.35273937422433 105.17358676015961 l 10.551674489066178 2.682194393118503 a31.88724029704894,31.88724029704894 0 0,0 -0.1394087660655424,0.5293577918714488 l -10.504076242195906 -2.862932689362755" fill="#ff4f07" stroke="none" /><path d="M 120.26092885502905 105.52220625578681 l 10.518254499406048 2.866797036413289 a31.901935743814654,31.901935743814654 0 0,0 -0.1485437801319077,0.5271294721551937 l -10.46749222719956 -3.046934432471491" fill="#ff4f07" stroke="none" /><path d="M 120.16314734710363 105.8691983318838 l 10.445430949213469 3.04051271597425 a31.878958833031206,31.878958833031206 0 0,0 -0.1574572821245139,0.5241240819869061 l -10.391697347085325 -3.2193744015518795" fill="#ff4e07" stroke="none" /><path d="M 119.58574465831526 107.57618678355244 l 10.177327263487143 3.9368088194075215 a31.912215811130366,31.912215811130366 0 0,0 -0.20202153593803168,0.5092262407986191 l -10.108247052582987 -4.110936077419704" fill="#ff4f07" stroke="none" /><line stroke="#e1ed5e" stroke-width="0.3" x1="174.33088141563837" x2="178.70328620479359" y1="141.23008692659167" y2="143.65538615756765" /><path d="M 175.20536237346943 141.71514677278685 a86.0,86.0 0 0,1 -30.301960400862466,31.631185727798858" fill="none" id="id41" stroke="none" /><text fill="#e1ed5e" style="font-size:6.75px; font-family:Arial;" text-anchor="middle"><textPath startOffset="22.145653131862474" xlink:href="#id41">May</textPath></text><path d="M 118.00360718960297 110.81064883170644 l 9.513526183817856 5.712599127573346 a32.09689007076035,32.09689007076035 0 0,0 -0.2876982358414444,0.4699334468851928 l -9.414059983521007 -5.8750696905830955" fill="#ff5207" stroke="none" /><path d="M 117.423217284605 111.72311816256416 l 10.932429937918519 7.355826761077914 a34.17672993145443,34.17672993145443 0 0,0 -0.3316937296248308,0.4839510643098335 l -10.804546471478368 -7.542412560457792" fill="#ff710a" stroke="none" /><path d="M 117.01052211995028 112.31430620078461 l 51.03156635985084 36.94291860235382 a84.0,84.0 0 0,0 -0.8555919216646877,1.1607747629244907 l -50.38987241860232 -37.81349967454719" fill="#4dd2ff" stroke="none" /><path d="M 115.41159269507618 114.26474011684316 l 8.011807451814244 7.415609368059064 a31.916973982958446,31.916973982958446 0 0,0 -0.37562352022284506,0.3988991616455591 l -7.883328097855139 -7.55204998964912" fill="#ff4f07" stroke="none" /><path d="M 113.86319453409587 115.77377054828091 l 7.169758147939952 8.157868638005668 a31.86076666791566,31.86076666791566 0 0,0 -0.4139176636902391,0.35753221949842245 l -7.028661004486858 -8.279744989968808" fill="#ff4e07" stroke="none" /><path d="M 112.7482090630111 116.68781488649013 l 6.594391959131426 8.632270757328758 a31.86287732318148,31.86287732318148 0 0,0 -0.4375031162305858,0.3283104947313033 l -6.445235853990074 -8.744200279324076" fill="#ff4e07" stroke="none" /><path d="M 112.45986205192187 116.90419585922612 l 6.4955556186656365 8.812468704297103 a31.94768685428089,31.94768685428089 0 0,0 -0.44425386838457015,0.3216055408290222 l -6.3433207399070985 -8.922675016499202" fill="#ff4f07" stroke="none" /><path d="M 111.5731344415666 117.5232005979908 l 5.978996907665291 9.052963371053966 a31.849172771207762,31.849172771207762 0 0,0 -0.4588015411437705,0.2973896158864311 l -5.822709734264511 -9.15426682864429" fill="#ff4e07" stroke="none" /><line stroke="#e1ed5e" stroke-width="0.3" x1="143.1302829299769" x2="145.66735839644613" y1="173.24464959558577" y2="177.55315839532614" /><path d="M 143.63769802327073 174.10635135553383 a86.0,86.0 0 0,1 -40.68552437913181,11.842963189579606" fill="none" id="id42" stroke="none" /><text fill="#e1ed5e" style="font-size:6.75px; font-family:Arial;" text-anchor="middle"><textPath startOffset="21.407464694133747" xlink:href="#id42">June</textPath></text><path d="M 106.72888874123015 119.89276391827305 l 3.548974833041551 10.491913482386028 a32.0758959406197,32.0758959406197 0 0,0 -0.5231078585352186,0.1719559433428418 l -3.368344236858598 -10.55129034713089" fill="#ff5107" stroke="none" /><path d="M 106.38641147887787 120.00534299687104 l 3.3651126221181547 10.541167359983861 a32.06526964292909,32.06526964292909 0 0,0 -0.5258083790971323,0.1628967799241761 l -3.1836636101493982 -10.59738072771468" fill="#ff5107" stroke="none" /><path d="M 105.69591212413111 120.21278271476187 l 15.981271888279066 56.71189603062799 a79.92062629127305,79.92062629127305 0 0,0 -1.323708584431065,0.36078266095730355 l -15.005381902913305 -56.977879185729435" fill="#48fbff" stroke="none" /><line stroke="#e1ed5e" stroke-width="0.3" x1="101.45913802915013" x2="101.54496967792366" y1="184.9874750549273" y2="189.98673829345242" /><path d="M 101.47630435890484 185.9873277026323 a86.0,86.0 0 0,1 -42.54439059252881,-10.42667462771756" fill="none" id="id43" stroke="none" /><text fill="#e1ed5e" style="font-size:6.75px; font-family:Arial;" text-anchor="middle"><textPath startOffset="22.145653131862474" xlink:href="#id43">July</textPath></text><path d="M 100.36049292484886 120.99690560180557 l 0.18676402960988361 10.878068414728842 a31.87967155930166,31.87967155930166 0 0,0 -0.5472569544587346,0.0046975427672514775 l -1.332375495087327e-15 -10.87967155930166" fill="#ff4e07" stroke="none" /><path d="M 100.0 121.0 l 1.1022916873511564e-15 9.000894691584666 a30.000894691584666,30.000894691584666 0 0,0 -0.5150052512119885,-0.004420700684051023 l 0.15451232636313525 -8.99956838909505" fill="#ff3204" stroke="none" /><path d="M 96.41257539226777 120.69131181640829 l -1.8517058727381734 10.68014740226698 a31.839481683792965,31.839481683792965 0 0,0 -0.5377313454751746,-0.09799256391916031 l 2.034771951764405 -10.646786664416455" fill="#ff4e07" stroke="none" /><path d="M 96.05791012581884 120.62667999033965 l -2.0481763088151697 10.716923924648198 a31.910888350573874,31.910888350573874 0 0,0 -0.537171961036051,-0.1074494365853878 l 2.2318447553821787 -10.680185091399949" fill="#ff4f07" stroke="none" /><path d="M 95.35216902796893 120.47920084513623 l -2.4279755221288872 10.69810814204875 a31.970167863575597,31.970167863575597 0 0,0 -0.5341573306127152,-0.12605967558959563 l 2.6112650064814904 -10.654852322812927" fill="#ff5007" stroke="none" /><line stroke="#e1ed5e" stroke-width="0.3" x1="58.13341422392154" x2="55.67067388415222" y1="173.97424548756322" y2="178.32567169271397" /><path d="M 57.64086615596768 174.84453072859336 a86.0,86.0 0 0,1 -31.369924170532247,-30.572349798747897" fill="none" id="id44" stroke="none" /><text fill="#e1ed5e" style="font-size:6.75px; font-family:Arial;" text-anchor="middle"><textPath startOffset="22.145653131862474" xlink:href="#id44">August</textPath></text><path d="M 86.13680546590413 115.77377054828092 l -7.187748005113643 8.178337793116807 a31.88801774628136,31.88801774628136 0 0,0 -0.40806788541441874,-0.36489681940902113 l 7.327080917351433 -8.053745443824402" fill="#ff4f07" stroke="none" /><path d="M 85.86807049272751 115.53346607816431 l -7.343743230491006 8.072060244772434 a31.912777887899033,31.912777887899033 0 0,0 -0.40205575922895315,-0.37213680839835944 l 7.481228761033925 -7.944805690241698" fill="#ff4f07" stroke="none" /><path d="M 85.60350026404147 115.28858382429668 l -7.47256479081889 7.935604854113945 a31.900139859360657,31.900139859360657 0 0,0 -0.395451624292198,-0.37883371059428234 l 7.6076889009764015 -7.80615901321408" fill="#ff4f07" stroke="none" /><path d="M 85.34317274990678 115.03919595460226 l -7.615334523620527 7.814004095589545 a31.91109434990537,31.91109434990537 0 0,0 -0.3890237138605179,-0.38569874483263167 l 7.748350157611007 -7.682125340528254" fill="#ff4f07" stroke="none" /><path d="M 83.20337586046588 112.60449989151573 l -8.084283193917488 6.066596822922164 a31.107385011532212,31.107385011532212 0 0,0 -0.3168479442854745,-0.4298650888328794 l 8.187233157786793 -5.926925424820405" fill="#ff4306" stroke="none" /><path d="M 82.78059297857968 112.02048342749411 l -8.035499296248467 5.609402577106172 a30.79972684374697,30.79972684374697 0 0,0 -0.2989190682876271,-0.4361318539362323 l 8.130608101351418 -5.470635988099889" fill="#ff3e05" stroke="none" /><path d="M 82.576782715395 111.72311816256416 l -9.07809352777927 6.108146467931628 a31.941719945822662,31.941719945822662 0 0,0 -0.30219233962253966,-0.45755771810295304 l 9.181610306322536 -5.951408871489614" fill="#ff4f07" stroke="none" /><path d="M 82.18462484594161 111.11811171558189 l -9.249151149761092 5.7721543817123 a31.90250261166891,31.90250261166891 0 0,0 -0.2859558574076766,-0.46708740265845594 l 9.346874971624173 -5.6125298629292875" fill="#ff4f07" stroke="none" /><line stroke="#e1ed5e" stroke-width="0.3" x1="26.387840678322732" x2="22.057713659400548" y1="142.50000000000003" y2="145.00000000000006" /><path d="M 25.521815274538298 143.00000000000003 a86.0,86.0 0 0,1 -11.493303480769221,-40.785679425670985" fill="none" id="id45" stroke="none" /><text fill="#e1ed5e" style="font-size:6.75px; font-family:Arial;" text-anchor="middle"><textPath startOffset="21.40746469413373" xlink:href="#id45">September</textPath></text><path d="M 81.4637452351635 109.86951160357371 l -9.755438865093533 5.194221718383028 a32.052082460346526,32.052082460346526 0 0,0 -0.2544201675566344,-0.48788421784638264 l 9.843167101625117 -5.0259912574321435" fill="#ff5107" stroke="none" /><path d="M 81.29705330413844 109.54985784667822 l -9.709374868095715 4.957675989684624 a31.901858169500468,31.901858169500468 0 0,0 -0.2448544889746163,-0.4898729994688588 l 9.793049270282069 -4.790271134052013" fill="#ff4f07" stroke="none" /><path d="M 80.9802524753101 108.90220220490708 l -9.876348694445227 4.622629875080579 a31.904630690502884,31.904630690502884 0 0,0 -0.22791382126845675,-0.4980328313675345 l 9.954246980568739 -4.452408061498356" fill="#ff4f07" stroke="none" /><path d="M 80.5471966667186 107.91128576633889 l -10.108406651535615 4.111000984924334 a31.912388103932994,31.912388103932994 0 0,0 -0.20202262664438764,-0.5092289900911364 l 10.177487953146128 -3.936870977619632" fill="#ff4f07" stroke="none" /><path d="M 80.41425534168474 107.57618678355246 l -10.179023438991239 3.9374649365305134 a31.91403446475868,31.91403446475868 0 0,0 -0.19326123521932784,-0.5126483872352561 l 10.245115358025002 -3.7621482691011123" fill="#ff4f07" stroke="none" /><path d="M 80.28708602549918 107.23885506374661 l -10.259692788286541 3.767501303411598 a31.929563677532006,31.929563677532006 0 0,0 -0.1845222104036367,-0.5161414631681689 l 10.32285516873412 -3.5908248838625076" fill="#ff4f07" stroke="none" /><path d="M 79.64726062577567 105.17358676015961 l -21.20219212084405 5.389514326591212 a42.87646716007211,42.87646716007211 0 0,0 -0.17520646196422376,-0.7149021541657784 l 21.29158610932457 -5.024756347817334" fill="#ffeb16" stroke="none" /><path d="M 79.56144815229197 104.8234425847677 l -5.652084406470617 1.3338765300991258 a26.807347478446385,26.807347478446385 0 0,0 -0.10185405520140481,-0.44878776055180797 l 5.674149323229687 -1.2366544356082914" fill="#ff0000" stroke="none" /><path d="M 79.48165901384964 104.47187691870673 l -10.65939430383365 2.323165376132636 a31.909618888369234,31.909618888369234 0 0,0 -0.112051825883351,-0.5362085500694226 l 10.697703840541369 -2.1398403747778043" fill="#ff4f07" stroke="none" /><path d="M 79.06263194458094 101.62068470465958 l -10.92189414145914 0.8454236814350906 a31.95456584435781,31.95456584435781 0 0,0 -0.03763949436568989,-0.5472699873436335 l 10.934797596989895 -0.6578102699371138" fill="#ff5007" stroke="none" /><path d="M 79.03789590574601 101.26102812881392 l -21.554649173480172 1.2966741693609312 a42.59361629957561,42.59361629957561 0 0,0 -0.03764141989603534,-0.7302334899969455 l 21.57373218283278 -0.9264688859872551" fill="#ffe715" stroke="none" /><line stroke="#e1ed5e" stroke-width="0.3" x1="15.003131293944662" x2="10.003315487706104" y1="100.72959589197737" y2="100.7725132973878" /><path d="M 14.003168132696942 100.73817937305945 a86.0,86.0 0 0,1 10.791469493833604,-42.45332614584628" fill="none" id="id46" stroke="none" /><text fill="#e1ed5e" style="font-size:6.75px; font-family:Arial;" text-anchor="middle"><textPath startOffset="22.145653131862435" xlink:href="#id46">October</textPath></text><path d="M 79.22317932658666 96.9465228501225 l -21.358996777741165 -3.13903698887848 a42.588429692062014,42.588429692062014 0 0,0 0.11251154911856681,-0.722404855680668 l 21.301963736484332 3.505230026490598" fill="#ffe715" stroke="none" /><path d="M 80.28708602549916 92.7611449362534 l -9.583355819081195 -3.5191410000762207 a31.20906764271522,31.20906764271522 0 0,0 0.1889921805196718,-0.501324212450209 l 9.521532954747087 3.6831334927205748" fill="#ff4406" stroke="none" /><path d="M 80.83023694016515 91.42560881287825 l -9.675974759630275 -4.327940436552323 a31.59979037393414,31.59979037393414 0 0,0 0.22573616492447965,-0.49327425925154195 l 9.600254129850748 4.493403678018536" fill="#ff4a06" stroke="none" /><path d="M 81.1358732173502 90.77261029715801 l -9.795174467267929 -4.791310674392783 a31.9042239899393,31.9042239899393 0 0,0 0.24487264721954172,-0.4899093281224304 l 9.711481906836642 4.958751858678983" fill="#ff4f07" stroke="none" /><path d="M 81.29705330413844 90.45014215332179 l -9.704776473271979 -4.95532801652276 a31.89669501030054,31.89669501030054 0 0,0 0.2531867468849712,-0.48551897107585457 l 9.618281657412068 5.121193230703101" fill="#ff4f07" stroke="none" /><path d="M 81.46374523516351 90.13048839642627 l -9.654239031710793 -5.140338507210011 a31.937431656934557,31.937431656934557 0 0,0 0.26181797052777156,-0.4817155765985091 l 9.56457571156767 5.305308917283139" fill="#ff4f07" stroke="none" /><line stroke="#e1ed5e" stroke-width="0.3" x1="26.387840678322718" x2="22.05771365940052" y1="57.49999999999999" y2="54.99999999999999" /><path d="M 25.521815274538284 56.99999999999999 a86.0,86.0 0 0,1 29.574782752854787,-30.34633250058573" fill="none" id="id47" stroke="none" /><text fill="#e1ed5e" style="font-size:6.75px; font-family:Arial;" text-anchor="middle"><textPath startOffset="21.40746469413373" xlink:href="#id47">November</textPath></text><path d="M 82.98947788004972 87.6856937992154 l -8.856516894678798 -6.411435236640192 a31.93363586824449,31.93363586824449 0 0,0 0.3252638199792011,-0.4412828405271464 l 8.745151055115779 6.562524386436201" fill="#ff4f07" stroke="none" /><path d="M 84.58840730492382 85.73525988315684 l -8.04705265016233 -7.448231797469799 a31.96499946481188,31.96499946481188 0 0,0 0.376188721064355,-0.39949938535280993 l 7.918008095361704 7.58527264276712" fill="#ff5007" stroke="none" /><path d="M 86.40962598614128 83.9905735841838 l -7.055910240415974 -8.311844521376084 a31.90287249619735,31.90287249619735 0 0,0 0.420549234328931,-0.3508371286290241 l 6.9121866719251335 8.43174383391699" fill="#ff4f07" stroke="none" /><path d="M 86.68645165197937 83.75963576809568 l -7.159442834487976 -8.733356148953987 a32.29287967370474,32.29287967370474 0 0,0 0.4317238614953979,-0.3477661826920378 l 7.008468202637332 8.854970625439424" fill="#ff5507" stroke="none" /><line stroke="#e1ed5e" stroke-width="0.3" x1="56.869717070023135" x2="54.33264160355391" y1="26.7553504044142" y2="22.446841604673864" /><path d="M 56.362301976729285 25.89364864446614 a86.0,86.0 0 0,1 42.16139366436587,-11.88097634709845" fill="none" id="id48" stroke="none" /><text fill="#e1ed5e" style="font-size:6.75px; font-family:Arial;" text-anchor="middle"><textPath startOffset="22.145653131862474" xlink:href="#id48">December</textPath></text><path d="M 89.34428304082924 81.90426304109057 l -4.94056624637972 -8.390161597301983 a30.736734897475003,30.736734897475003 0 0,0 0.4569638165890381,-0.26382818251759854 l 4.795809961930282 8.473736677095756" fill="#ff3d05" stroke="none" /><path d="M 90.61103034731259 81.2157712731953 l -4.600242765337391 -9.203567111135825 a31.289211877943814,31.289211877943814 0 0,0 0.4825090750161968,-0.23601936742851348 l 4.441573441059141 9.281180228661553" fill="#ff4506" stroke="none" /><path d="M 93.27111125876988 80.10723608172694 l -3.4846022613862973 -10.301607412543683 a31.874997388608122,31.874997388608122 0 0,0 0.5198315163397751,-0.17087894458677375 l 3.3072480073987616 10.359907278532486" fill="#ff4e07" stroke="none" /><path d="M 98.5590905019552 79.04949213459386 l -0.7262572955528857 -10.559621685772346 a31.584567058032057,31.584567058032057 0 0,0 0.5412326114896732,-0.032559209908081664 l 0.5448803319307287 10.570532873505122" fill="#ff4a06" stroke="none" /></svg>