<?xml version="1.0" encoding="utf-8" ?>
<svg baseProfile="full" height="200mm" version="1.1" viewBox="0,0,200,200" width="200mm" xmlns="http://www.w3.org/2000/svg" xmlns:ev="http://www.w3.org/2001/xml-events" xmlns:xlink="http://www.w3.org/1999/xlink"><defs /><rect fill="#1a1a1a" height="200" width="200" x="0" y="0" /><text alignment-baseline="middle" fill="#e1ed5e" style="dominant-baseline: central; font-size:9.0px; font-family:Arial;" text-anchor="middle" x="100.0" y="100.0">2022</text><line stroke="#e1ed5e" stroke-width="0.3" x1="100.0" x2="100.0" y1="15.0" y2="10.0" /><path d="M 100.0 14.0 a86.0,86.0 0 0,1 42.46469731375804,11.215312516191453" fill="none" id="id109" stroke="none" /><text fill="#e1ed5e" style="font-size:6.75px; font-family:Arial;" text-anchor="middle"><textPath startOffset="22.20632615414155" xlink:href="#id109">January</textPath></text><path d="M 101.80526077348638 79.07773832637324 l 2.723557287433307 -31.564956757325117 a52.682238863276936,52.682238863276936 0 0,0 0.9028101912153897,0.0857327060416098 l -3.2664926057389407 31.513398506768326" fill="#9aff23" stroke="none" /><path d="M 102.52436894288641 79.15227682838746 l 3.4260448883253 -28.294293354621626 a49.50096173840815,49.50096173840815 0 0,0 0.8450174146626651,0.10970751258540125 l -3.9125770314958115 28.231127518872086" fill="#c0ff1e" stroke="none" /><path d="M 103.2404852339499 79.25152402106235 l 4.397001753691978 -28.153525993581205 a49.49481795508129,49.49481795508129 0 0,0 0.8406360005738428,0.13871214294188086 l -4.880966960404695 28.0736675876997" fill="#c1ff1e" stroke="none" /><path d="M 103.95276090670814 79.375362276772 l 8.076784319200256 -42.14288556372185 a63.9098735558127,63.9098735558127 0 0,0 1.078657426423272,0.21636853225829153 l -8.801008155090653 41.99761307538635" fill="#32ff47" stroke="none" /><path d="M 105.36241919743992 79.69619591428918 l 10.944932129624345 -41.44095221003728 a63.861918522117946,63.861918522117946 0 0,0 1.0604183708040917,0.2898523982767834 l -11.656648389652148 41.246413270934205" fill="#32ff46" stroke="none" /><path d="M 108.43124777332544 80.76684994638697 l 11.802387914139318 -26.923310030308684 a50.39661517018485,50.39661517018485 0 0,0 0.7915097548512045,0.35512735504616766 l -12.264079787457304 26.716162344745985" fill="#b5ff1f" stroke="none" /><path d="M 109.08828744355905 81.06846463323043 l 19.162656905713177 -39.91714821793892 a65.2785065414246,65.2785065414246 0 0,0 1.0087976675876078,0.4950126343250707 l -19.846925840311215 39.581380423479025" fill="#34ff58" stroke="none" /><path d="M 109.41281617654863 81.2277094730956 l 12.876170996046907 -25.6793735560362 a49.726747218400675,49.726747218400675 0 0,0 0.7618599716116875,0.3902542682613454 l -13.316291455247349 25.453926762462356" fill="#beff1f" stroke="none" /><path d="M 110.36928655335952 81.73862282372117 l 14.122577988110974 -24.871308360048346 a49.60120956482238,49.60120956482238 0 0,0 0.7388295440737358,0.4279777600747965 l -14.548604264650038 24.6245264425835" fill="#bfff1e" stroke="none" /><line stroke="#e1ed5e" stroke-width="0.3" x1="143.23703022742887" x2="145.7803849466894" y1="26.81831364943548" y2="22.513508569990506" /><path d="M 143.74570117128098 25.957352633546492 a86.0,86.0 0 0,1 28.547481713284135,27.462654790039103" fill="none" id="id110" stroke="none" /><text fill="#e1ed5e" style="font-size:6.75px; font-family:Arial;" text-anchor="middle"><textPath startOffset="19.985693538727396" xlink:href="#id110">February</textPath></text><path d="M 110.68208982089419 81.91981866633111 l 14.49596476116213 -24.535430415089508 a49.49772517255638,49.49772517255638 0 0,0 0.7298273023503614,0.4397127835726702 l -14.916154129730128 24.28227102205822" fill="#c1ff1e" stroke="none" /><path d="M 111.2981086023043 82.29822771554956 l 32.83277582798099 -51.44209014372464 a82.02687774190602,82.02687774190602 0 0,0 1.1836594632266195,0.7698850405125972 l -33.71340231699189 50.869306179052515" fill="#4ae6ff" stroke="none" /><path d="M 112.48926042617603 83.11751280151076 l 20.48226646983361 -27.687115943893097 a55.43979716885466,55.43979716885466 0 0,0 0.7623073651124712,0.5741541031136467 l -20.955819988704466 27.330445251273602" fill="#79ff26" stroke="none" /><path d="M 113.89432698308785 84.25364557470407 l 18.841831809641715 -21.353330899550905 a49.47769945849808,49.47769945849808 0 0,0 0.6337598815887532,0.5689958791924801 l -19.206602678826457 21.025836011589128" fill="#c1ff1e" stroke="none" /><path d="M 114.68862486808459 84.99185889309783 l 20.09546797224186 -20.532597274775906 a49.73004322780481,49.73004322780481 0 0,0 0.6066217490997657,0.6040167225253743 l -20.445925521508947 20.18364470160041" fill="#beff1f" stroke="none" /><path d="M 115.19652480421416 85.50635884689758 l 20.63554866849 -19.6810942798932 a49.516159294401206,49.516159294401206 0 0,0 0.5829529841948554,0.6218535983176932 l -20.97126897465532 19.32297126469745" fill="#c0ff1e" stroke="none" /><path d="M 115.9244219780498 86.31012108654704 l 47.54459548498703 -40.87305373317451 a83.69844560518243,83.69844560518243 0 0,0 0.9298075727292808,1.1005988897060077 l -48.24111367120343 40.04859589383939" fill="#4dd5ff" stroke="none" /><path d="M 116.38621287248628 86.86637796730983 l 22.242973050306247 -17.827841197922307 a49.50581996531561,49.50581996531561 0 0,0 0.5272273629567953,0.6695252101781506 l -22.546554493857005 17.44232359379112" fill="#c0ff1e" stroke="none" /><path d="M 116.82858285166822 87.43820079747576 l 25.09215393214772 -18.730192674733924 a52.31191956088372,52.31191956088372 0 0,0 0.5324291914924101,0.7262328188396872 l -25.410845736153757 18.295497412222744" fill="#9eff22" stroke="none" /><path d="M 117.45458315368197 88.32363383020206 l 28.417929411114766 -19.010373760868116 a55.1902474770658,55.1902474770658 0 0,0 0.5214252759466025,0.7941664681986209 l -28.740951322419292 18.51838922869182" fill="#7cff26" stroke="none" /><line stroke="#e1ed5e" stroke-width="0.3" x1="172.23445277983987" x2="176.4835382374775" y1="55.19839476539836" y2="52.563006222186495" /><path d="M 173.08426987136738 54.67131705675599 a86.0,86.0 0 0,1 12.851231095245387,41.99856678651699" fill="none" id="id111" stroke="none" /><text fill="#e1ed5e" style="font-size:6.75px; font-family:Arial;" text-anchor="middle"><textPath startOffset="22.20632615414155" xlink:href="#id111">March</textPath></text><path d="M 117.84615892207809 88.93136811851018 l 24.57614569538835 -15.242737160184303 a49.91933563163958,49.91933563163958 0 0,0 0.44662164405869814,0.7341285515782064 l -24.834883137733275 14.817440835399015" fill="#bbff1f" stroke="none" /><path d="M 118.21658344932153 89.55222093294921 l 29.658803356101075 -17.010249244579917 a55.190542491727214,55.190542491727214 0 0,0 0.4655515654921315,0.8281642873708426 l -29.94721256288564 16.497201447274282" fill="#7cff26" stroke="none" /><path d="M 118.56541770881063 90.18545643968196 l 53.86296557824046 -28.474469588943016 a81.9263036729979,81.9263036729979 0 0,0 0.6483513736434268,1.2524084877816586 l -54.345126385044004 27.54308837890101" fill="#4ae7ff" stroke="none" /><path d="M 118.89224826269711 90.83032412892265 l 25.760838872854837 -12.50346382000196 a49.63489875887964,49.63489875887964 0 0,0 0.3664516358122988,0.771840601839337 l -25.972248702508892 12.058180802522083" fill="#bfff1e" stroke="none" /><path d="M 119.85752413597 93.16781622104841 l 26.923149512206045 -9.263184277962713 a49.4721366009665,49.4721366009665 0 0,0 0.27012424121711825,0.8076370991767983 l -27.078611047194933 8.7983740758636" fill="#c1ff1e" stroke="none" /><path d="M 120.18372546131832 94.20196356495316 l 32.82506955391968 -9.429426179092623 a55.15258803204557,55.15258803204557 0 0,0 0.25426191233358497,0.9147153808929841 l -32.98251823681964 8.862999494780686" fill="#7cff26" stroke="none" /><path d="M 120.37134235888165 94.90015583598534 l 27.617808022086056 -6.91395366014774 a49.470090887797866,49.470090887797866 0 0,0 0.1996876702572085,0.8278343109106482 l -27.732728492604082 6.437534117577687" fill="#c1ff1e" stroke="none" /><path d="M 120.53481517161879 95.60439243477599 l 27.875838317991207 -5.967000178646574 a49.5073227971824,49.5073227971824 0 0,0 0.17120269709023384,0.8348451524123038 l -27.97442031099644 5.486279370070858" fill="#c0ff1e" stroke="none" /><path d="M 120.6074358757038 95.95851677861258 l 27.87413887031531 -5.466612403138442 a49.405131031695134,49.405131031695134 0 0,0 0.15648316789103564,0.8359393400664721 l -27.964107762116203 4.985994985609408" fill="#c2ff1e" stroke="none" /><path d="M 120.87857604477298 97.74499172005257 l 42.49277453739755 -4.58946808509769 a63.739900622138,63.739900622138 0 0,0 0.10842725995008905,1.0918477106786022 l -42.56547892302987 3.8573448437146527" fill="#32ff45" stroke="none" /><path d="M 120.96714384426684 98.82574320788733 l 28.461083628082942 -1.5939519950544638 a49.505683016677025,49.505683016677025 0 0,0 0.040326838492934156,0.8512358236364029 l -28.484304074809373 1.103805064795061" fill="#c0ff1e" stroke="none" /><line stroke="#e1ed5e" stroke-width="0.3" x1="184.98032266829074" x2="189.97916517819016" y1="98.17113171792111" y2="98.06355123074" /><path d="M 185.9800911702706 98.14961562048488 a86.0,86.0 0 0,1 -9.607161424134198,41.387399972396054" fill="none" id="id112" stroke="none" /><text fill="#e1ed5e" style="font-size:6.75px; font-family:Arial;" text-anchor="middle"><textPath startOffset="21.466115282336823" xlink:href="#id112">April</textPath></text><path d="M 120.99513854157772 99.54816195383933 l 34.171753938055936 -0.735413033959147 a55.17966646317015,55.17966646317015 0 0,0 0.012263005268116429,0.949783272321575 l -34.17934995044177 0.14709350357710932" fill="#7cff26" stroke="none" /><path d="M 120.99980553446 99.90962569577887 l 28.592126975738225 -0.12304845287230384 a49.592391748828774,49.592391748828774 0 0,0 -0.0036738580125562537,0.8536752176386379 l -28.590008820436164 -0.3691362429700187" fill="#bfff1e" stroke="none" /><path d="M 120.9764740272857 100.99374915477107 l 28.451616449233896 1.3478799993515989 a49.48352609960657,49.48352609960657 0 0,0 -0.047630601591677764,0.8504763878477278 l -28.42419949675469 -1.8374281035347502" fill="#c1ff1e" stroke="none" /><path d="M 120.95626037817324 101.35467743843564 l 28.34955518943593 1.8326028648133559 a49.40872599570413,49.40872599570413 0 0,0 -0.06216897965796677,0.8482463339486525 l -28.313809651113623 -2.3203223352587785" fill="#c2ff1e" stroke="none" /><path d="M 120.70491114924044 103.5080841355445 l 28.164863591893493 4.772042267378727 a49.566272570141464,49.566272570141464 0 0,0 -0.14976934926480764,0.8399860477980837 l -28.078547800289495 -5.256147065910029" fill="#c0ff1e" stroke="none" /><path d="M 120.5718875245553 104.21870165774334 l 28.01447864564148 5.744962748902538 a49.59747560141245,49.59747560141245 0 0,0 -0.1787066984867549,0.834858200806811 l -27.91143790843028 -6.226334769125518" fill="#bfff1e" stroke="none" /><path d="M 120.41448212921028 104.9243191809786 l 34.20255395019006 8.250235856553255 a56.18353433645373,56.18353433645373 0 0,0 -0.234870411316933,0.9381905417168963 l -34.05547222457807 -8.837754237667548" fill="#71ff27" stroke="none" /><path d="M 120.13307415673323 105.97154293290107 l 27.458532575372786 8.144300511279045 a49.64089108269553,49.64089108269553 0 0,0 -0.2500322507375354,0.8171198621794741 l -27.314273552129116 -8.615747346010577" fill="#bfff1e" stroke="none" /><path d="M 119.79798401119884 107.00284435728193 l 37.58950520348262 13.295972673698914 a60.8717166771434,60.8717166771434 0 0,0 -0.35791334288527354,0.9848238019560999 l -37.35506759959211 -13.941044272661145" fill="#3dff2e" stroke="none" /><path d="M 119.26925614724726 108.34839909993367 l 26.32074036288324 11.40345239463086 a49.684840940240946,49.684840940240946 0 0,0 -0.3467503044524265,0.7818303971332778 l -26.120548973699538 -11.854831128256825" fill="#beff1f" stroke="none" /><path d="M 119.12269723197855 108.67885076344098 l 35.62749224717476 16.169564603669052 a60.1250945467832,60.1250945467832 0 0,0 -0.4358364549964495,0.9387529502311059 l -35.34388117533848 -16.780437621178987" fill="#45ff2d" stroke="none" /><path d="M 118.97047184881838 109.00673069616215 l 15.507664360814546 7.362671721474769 a38.166729123682295,38.166729123682295 0 0,0 -0.28688066180198046,0.5910591345572975 l -15.378630442397853 -7.628519811997341" fill="#ffa60f" stroke="none" /><line stroke="#e1ed5e" stroke-width="0.3" x1="174.80103733775053" x2="179.2010983576182" y1="140.37084112569926" y2="142.7455964860345" /><path d="M 175.68104954172406 140.8457921977663 a86.0,86.0 0 0,1 -30.038265399797805,32.042727171017184" fill="none" id="id113" stroke="none" /><text fill="#e1ed5e" style="font-size:6.75px; font-family:Arial;" text-anchor="middle"><textPath startOffset="22.206326154141568" xlink:href="#id113">May</textPath></text><path d="M 118.48025628344425 109.97397251340804 l 30.145005948071013 16.26955038561543 a55.255213520854255,55.255213520854255 0 0,0 -0.45894346375385214,0.8331156958536512 l -29.86048607486565 -16.78603659986689" fill="#7bff26" stroke="none" /><path d="M 118.30583269289576 110.29060199501025 l 26.360548815850475 14.818551047897994 a51.24017177583478,51.24017177583478 0 0,0 -0.43883060050919365,0.7651381411291753 l -26.101566219188904 -15.270109034885484" fill="#abff21" stroke="none" /><path d="M 117.94076556474637 110.91462005526583 l 24.59757017414413 14.964418980039076 a49.791913689126304,49.791913689126304 0 0,0 -0.45176762935139864,0.7283932644592028 l -24.33633790512477 -15.385608575863552" fill="#bdff1f" stroke="none" /><path d="M 117.55443506779139 111.5257021239791 l 23.882497672834255 15.680513391100767 a49.57012767387335,49.57012767387335 0 0,0 -0.4744496060401248,0.7092377868621007 l -23.609044961383407 -16.089288092168673" fill="#c0ff1e" stroke="none" /><path d="M 117.35343817320211 111.8261652097733 l 23.81075848631244 16.22675350087023 a49.81422823661089,49.81422823661089 0 0,0 -0.48898380091015564,0.7044176353462713 l -23.527913778240148 -16.634212398403523" fill="#bdff1f" stroke="none" /><path d="M 116.93607887273984 112.41649034213515 l 23.318473935907644 17.095669463641787 a49.91389183610014,49.91389183610014 0 0,0 -0.5139674640455467,0.6885434094515887 l -23.020745205167007 -17.49452575260269" fill="#bbff1f" stroke="none" /><path d="M 116.498646956653 112.99209946851258 l 31.488297058010033 24.795917419565786 a61.07930104544501,61.07930104544501 0 0,0 -0.6575683766944929,0.8204176556864246 l -31.056810769260686 -25.33426290883046" fill="#3aff2e" stroke="none" /><path d="M 116.0416608686014 113.55231037782055 l 21.900956048101097 18.502358101574163 a49.67035282551896,49.67035282551896 0 0,0 -0.5573900331236085,0.648370533438174 l -21.57922350540671 -18.876605734173864" fill="#beff1e" stroke="none" /><path d="M 115.56566222782051 114.09645910891815 l 45.502072391063635 41.20724794382699 a82.38791310173062,82.38791310173062 0 0,0 -0.9610102500954874,1.0429868246491312 l -44.78601573297243 -41.98438602327746" fill="#4be2ff" stroke="none" /><path d="M 114.81725581225074 114.88116024355365 l 20.12733979965264 20.214145765604435 a49.525804045526655,49.525804045526655 0 0,0 -0.6092854206566141,0.5963140216946801 l -19.776404426620232 -20.557609890221688" fill="#c0ff1e" stroke="none" /><path d="M 113.48314897796784 116.09983520530334 l 18.292393714945817 21.842414172118826 a49.49039706092154,49.49039706092154 0 0,0 -0.6578213414232011,0.5413421797423824 l -17.913702244977923 -22.154051470718386" fill="#c1ff1e" stroke="none" /><path d="M 112.92097659922987 116.55440617244103 l 24.581078207467094 31.49337433419721 a60.95074508435963,60.95074508435963 0 0,0 -0.8326198924580563,0.6384174288032309 l -24.035329586515545 -31.91183110482781" fill="#3cff2e" stroke="none" /><path d="M 112.34349029814194 116.9893568818739 l 16.830182503803623 23.16475891646557 a49.63321670314582,49.63321670314582 0 0,0 -0.6955094907947664,0.49622755475975266 l -16.428945685159974 -23.45103073306954" fill="#bfff1e" stroke="none" /><path d="M 111.45004920935366 117.60387380957326 l 15.531507914352549 23.878910945928094 a49.48561261509326,49.48561261509326 0 0,0 -0.7180555571749954,0.45829703021191154 l -15.118170555130622 -24.142722404963813" fill="#c1ff1e" stroke="none" /><line stroke="#e1ed5e" stroke-width="0.3" x1="143.8653032363475" x2="146.44561519142675" y1="172.8068346515853" y2="177.08958963109032" /><path d="M 144.38136562736335 173.6633856474863 a86.0,86.0 0 0,1 -40.68145358897372,12.25698825130547" fill="none" id="id114" stroke="none" /><text fill="#e1ed5e" style="font-size:6.75px; font-family:Arial;" text-anchor="middle"><textPath startOffset="21.466115282336833" xlink:href="#id114">June</textPath></text><path d="M 110.8373102113329 117.98757091392108 l 14.717108349205398 24.42718948862061 a49.51807960707082,49.51807960707082 0 0,0 -0.7338865399378431,0.43359310359142617 l -14.294453938239172 -24.676901164505786" fill="#c0ff1e" stroke="none" /><path d="M 109.89434966115114 118.52300852407294 l 13.492346876312713 25.258745118030607 a49.6364737558307,49.6364737558307 0 0,0 -0.7570959100236866,0.3960767975618984 l -13.055560063762531 -25.48725133453722" fill="#bfff1e" stroke="none" /><path d="M 109.2508944713604 118.85261126421891 l 12.961976194909228 26.41551032445704 a50.42434387677812,50.42434387677812 0 0,0 -0.7825073758972392,0.37565109332559676 l -12.505356151011757 -26.634715694282193" fill="#b5ff20" stroke="none" /><path d="M 103.41894727170886 120.7198165907248 l 9.247440427780225 56.042183271662935 a77.80001285492813,77.80001285492813 0 0,0 -1.3232083048846033,0.2066579240697534 l -8.281396259287105 -56.193059503079795" fill="#45ffec" stroke="none" /><path d="M 103.06178313531738 120.77559828337769 l 3.3280731606099816 22.582497840872367 a43.826416269212686,43.826416269212686 0 0,0 -0.7472850769880667,0.10356690239341672 l -2.938859492435084 -22.636439308758387" fill="#fff417" stroke="none" /><path d="M 102.34483914955558 120.86867818915974 l 5.164233898166346 45.960822231584174 a67.2500431562853,67.2500431562853 0 0,0 -1.1514725426603174,0.11935483713391692 l -4.3723287589004265 -46.042906437173855" fill="#36ff71" stroke="none" /><path d="M 101.98527174616119 120.90594882070398 l 2.1627829599162007 22.775234653758883 a43.87769533116226,43.87769533116226 0 0,0 -0.7525143475201673,0.06493010431927936 l -1.770424294654492 -22.809089010356825" fill="#fff517" stroke="none" /><path d="M 101.62511606390274 120.93702456842531 l 0.47747882251482876 6.151551916783038 a27.17005486287012,27.17005486287012 0 0,0 -0.46659683691573706,0.03217924971537794 l -0.37151922482016136 -6.158859511014702" fill="#ff0000" stroke="none" /><path d="M 101.26447882468166 120.96189622390904 l 1.7751421339668099 29.427416630933724 a50.48090872355089,50.48090872355089 0 0,0 -0.8678195412634254,0.044856357695290845 l -1.268334524289905 -29.45361279539122" fill="#b4ff20" stroke="none" /><line stroke="#e1ed5e" stroke-width="0.3" x1="102.19456741930631" x2="102.32365962044197" y1="184.97166512339345" y2="189.96999836594603" /><path d="M 102.22038585953345 185.97133177190398 a86.0,86.0 0 0,1 -42.740103519485714,-10.115201625700543" fill="none" id="id115" stroke="none" /><text fill="#e1ed5e" style="font-size:6.75px; font-family:Arial;" text-anchor="middle"><textPath startOffset="22.20632615414155" xlink:href="#id115">July</textPath></text><path d="M 100.54218724476979 120.99299961872073 l 0.8960519075251873 34.69431923101965 a55.70588849064203,55.70588849064203 0 0,0 -0.9587787433743864,0.016506245562743736 l -0.2987134742581328 -34.704602953861546" fill="#76ff27" stroke="none" /><path d="M 99.09653310690486 120.98055641714683 l -0.8091512424074113 18.790332463843235 a39.807746272077644,39.807746272077644 0 0,0 -0.684336732085166,-0.03537239227610505 l 1.1324760429060663 -18.77362026480493" fill="#ffbd11" stroke="none" /><path d="M 98.73552117531835 120.96189622390904 l -1.7190681203743645 28.497849736779994 a49.54965209634925,49.54965209634925 0 0,0 -0.8509261779234235,-0.05868485125134892 l 2.209357059076718 -28.46403654101236" fill="#c0ff1e" stroke="none" /><path d="M 98.01472825383883 120.90594882070398 l -2.6910637523232364 28.33830743227316 a49.46579512757542,49.46579512757542 0 0,0 -0.8469660719458089,-0.08779149639250901 l 3.1784624208746384 -28.287786567424895" fill="#c1ff1e" stroke="none" /><path d="M 96.93821686468263 120.77559828337769 l -4.15292790723091 28.17951438337735 a49.48388739420285,49.48388739420285 0 0,0 -0.8416128526878023,-0.13144261894732623 l 4.63737662352723 -28.103853457082916" fill="#c1ff1e" stroke="none" /><path d="M 96.58105272829116 120.7198165907248 l -4.646444493746178 28.15880739257055 a49.539584443459404,49.539584443459404 0 0,0 -0.8401701882088238,-0.1460743565817931 l 5.130463653427052 -28.07465445746775" fill="#c0ff1e" stroke="none" /><path d="M 95.86986931433489 120.58985236759428 l -5.596562419522092 27.900423195792776 a49.456196608470684,49.456196608470684 0 0,0 -0.8332392688239967,-0.17461339021573424 l 6.075993149775476 -27.7999538248505" fill="#c1ff1e" stroke="none" /><path d="M 94.81253420990036 120.34920634021253 l -7.020777478368379 27.540856240189488 a49.42164806698494,49.42164806698494 0 0,0 -0.8225399205437297,-0.21724026896460155 l 7.493807841723599 -27.415924621921306" fill="#c1ff1e" stroke="none" /><path d="M 93.76903079525671 120.05430185196036 l -8.879992640841039 28.580152944272104 a50.92790356205019,50.92790356205019 0 0,0 -0.8349233397943308,-0.26731608739208484 l 9.370637325726308 -28.423064010220315" fill="#afff20" stroke="none" /><path d="M 92.06813273071674 119.44442032107085 l -10.77115284002085 26.40473120054955 a49.51714507583752,49.51714507583752 0 0,0 -0.7864467203331671,-0.3287347928819826 l 11.224071019851479 -26.215411364647593" fill="#c0ff1e" stroke="none" /><path d="M 91.07499286063937 119.00905698771935 l -12.068360579070472 25.703974284140525 a49.39611982412772,49.39611982412772 0 0,0 -0.7665509381250161,-0.36799103352380813 l 12.509024185195731 -25.492428974117153" fill="#c2ff1e" stroke="none" /><path d="M 90.7491055286396 118.85261126421891 l -15.000189812990483 30.569232878971544 a55.051192243951434,55.051192243951434 0 0,0 -0.8471227452875252,-0.4247649304668825 l 15.524166465960768 -30.306500107595358" fill="#7eff26" stroke="none" /><line stroke="#e1ed5e" stroke-width="0.3" x1="58.666819895761336" x2="56.23545636021788" y1="174.27360380694188" y2="178.64263932499728" /><path d="M 58.180547188652646 175.14741091055294 a86.0,86.0 0 0,1 -31.652253787137756,-30.449443065178592" fill="none" id="id116" stroke="none" /><text fill="#e1ed5e" style="font-size:6.75px; font-family:Arial;" text-anchor="middle"><textPath startOffset="22.20632615414155" xlink:href="#id116">August</textPath></text><path d="M 89.1626897886671 117.98757091392108 l -14.68359294479166 24.37156122830097 a49.45313512555617,49.45313512555617 0 0,0 -0.7253616308204505,-0.4455763579642795 l 15.10093377554442 -24.115196403508314" fill="#c1ff1e" stroke="none" /><path d="M 88.54995079064634 117.60387380957326 l -12.370518193583234 19.01904849989391 a43.68818913485804,43.68818913485804 0 0,0 -0.6268741310746013,-0.4154579916746625 l 12.696067023397797 -18.80329248712793" fill="#fff216" stroke="none" /><path d="M 87.65650970185807 116.9893568818739 l -16.7803455668432 23.096164257461595 a49.54842904172348,49.54842904172348 0 0,0 -0.6856913415082923,-0.5072580618830553 l 17.175421878770056 -22.80389624683877" fill="#c0ff1e" stroke="none" /><path d="M 87.36589467227662 116.77436683061367 l -20.584604797532094 27.330285998116995 a55.21506228855139,55.21506228855139 0 0,0 -0.7542673869060984,-0.578340068668224 l 21.052000912931682 -26.971906587621405" fill="#7cff26" stroke="none" /><path d="M 86.79598089348748 116.32954008644616 l -17.88357411909213 22.11679172159104 a49.44248054107271,49.44248054107271 0 0,0 -0.6571844398981596,-0.5408180531472982 l 18.26162868753498 -21.80567854958656" fill="#c1ff1e" stroke="none" /><path d="M 85.70375840098266 115.38237550388516 l -19.355879748860595 20.826411504229576 a49.43219120989196,49.43219120989196 0 0,0 -0.6182888218276126,-0.5846306726804488 l 19.711504405079026 -20.490146194803195" fill="#c1ff1e" stroke="none" /><path d="M 85.44109423537348 115.13401014063109 l -21.780034806274497 22.640387468014637 a52.415872753504125,52.415872753504125 0 0,0 -0.6448401534348619,-0.6311118109974858 l 22.16652491208515 -22.262125554094585" fill="#9dff22" stroke="none" /><path d="M 84.67929136418377 114.36230785411682 l -16.71526312751267 15.66962472862891 a43.911507164698776,43.911507164698776 0 0,0 -0.5122038766816308,-0.5558961466436646 l 16.98251341219003 -15.379577327183902" fill="#fff517" stroke="none" /><path d="M 83.95833913139862 113.55231037782056 l -30.54121196528123 25.801816112347794 a60.98123738710006,60.98123738710006 0 0,0 -0.6705148401963446,-0.8076783193569199 l 30.980822805371112 -25.27227653587711" fill="#3bff2e" stroke="none" /><path d="M 83.50135304334701 112.99209946851258 l -22.56798338765204 17.771486701088623 a49.72524349335107,49.72524349335107 0 0,0 -0.5237564225190884,-0.6770257791821842 l 22.870546627389196 -17.380382927793185" fill="#beff1f" stroke="none" /><path d="M 83.06392112726016 112.41649034213515 l -27.680303200455874 20.293494139841123 a55.322370105704145,55.322370105704145 0 0,0 -0.5564382142857294,-0.772844012181341 l 28.02552120711721 -19.814016522208643" fill="#7aff26" stroke="none" /><path d="M 82.6465618267979 111.8261652097733 l -49.862760283694996 33.98088811247307 a81.34066307243934,81.34066307243934 0 0,0 -0.7785343181615422,-1.1638031727280838 l 50.44029770726727 -33.11754802553916" fill="#49edff" stroke="none" /><line stroke="#e1ed5e" stroke-width="0.3" x1="26.63291911575756" x2="22.317208475507996" y1="142.92168965132927" y2="145.44649492493687" /><path d="M 25.769776987707644 143.4266507060508 a86.0,86.0 0 0,1 -11.730757126820373,-40.83630448921669" fill="none" id="id117" stroke="none" /><text fill="#e1ed5e" style="font-size:6.75px; font-family:Arial;" text-anchor="middle"><textPath startOffset="21.46611528233685" xlink:href="#id117">September</textPath></text><path d="M 81.87401531095188 110.60418214915194 l -24.496458384719904 14.331078348402349 a49.38056165797923,49.38056165797923 0 0,0 -0.42290454490771534,-0.7373697207767859 l 24.739514925779996 -13.907288781767257" fill="#c2ff1e" stroke="none" /><path d="M 81.69416730710424 110.29060199501025 l -25.00453201571337 14.056267822498825 a49.68458273049568,49.68458273049568 0 0,0 -0.41267444355982047,-0.7491239844560641 l 25.242782868724706 -13.623773319644938" fill="#beff1f" stroke="none" /><path d="M 81.18737489456691 109.33194174019688 l -25.504191092129503 12.651271370621496 a49.46960538112471,49.46960538112471 0 0,0 -0.37183886218883383,-0.7660981911419492 l 25.718183210933056 -12.21038422351426" fill="#c1ff1e" stroke="none" /><path d="M 80.87730276802145 108.67885076344099 l -36.289237524923124 16.46989820406649 a60.85180431288652,60.85180431288652 0 0,0 -0.42468449677338443,-0.957551426791157 l 36.567363106427784 -15.842798440782635" fill="#3dff2e" stroke="none" /><path d="M 80.32549172779594 107.34259656027581 l -43.0222920808203 16.056072633546123 a66.9207478630425,66.9207478630425 0 0,0 -0.3934804188796296,-1.0826891196412793 l 43.292296760705156 -15.313135716898728" fill="#36ff6d" stroke="none" /><path d="M 79.97269907076064 106.31721596034903 l -27.0500442007266 8.532401423273908 a49.3638284670661,49.3638284670661 0 0,0 -0.24863673611501622,-0.8125592396491497 l 27.192907709347743 -8.06551521107271" fill="#c2ff1e" stroke="none" /><path d="M 79.86692584326677 105.97154293290107 l -27.18893770686519 8.064337693914439 a49.35968751713045,49.35968751713045 0 0,0 -0.23459334548622263,-0.816650211393147 l 27.323723689237514 -7.595130007016696" fill="#c2ff1e" stroke="none" /><path d="M 79.58551787078972 104.9243191809786 l -61.06197300378852 14.729183086193002 a83.8133216881737,83.8133216881737 0 0,0 -0.32623111820341166,-1.4053951189586888 l 61.30646468792249 -13.675919309885739" fill="#4dd4ff" stroke="none" /><path d="M 79.35854240842038 103.8639653848113 l -28.760392959053295 5.383784665123936 a50.25996138889431,50.25996138889431 0 0,0 -0.15186539800096924,-0.851741802246674 l 28.848804799393452 -4.887924112144049" fill="#b7ff1f" stroke="none" /><path d="M 79.23777060512086 103.15116336523772 l -28.054775679560308 4.2579811474001525 a49.37606107059371,49.37606107059371 0 0,0 -0.12030347722568044,-0.8414022395182965 l 28.123913207802588 -3.774433435901456" fill="#c2ff1e" stroke="none" /><path d="M 79.07016306316243 101.71520430193888 l -28.35523502502464 2.323717152894306 a49.45029023983832,49.45029023983832 0 0,0 -0.06222127824685515,-0.8489599066425599 l 28.39103286193583 -1.8352841097549855" fill="#c1ff1e" stroke="none" /><line stroke="#e1ed5e" stroke-width="0.3" x1="15.007084014347285" x2="10.007500721073583" y1="101.09737516637583" y2="101.16192664675087" /><path d="M 14.007167355692545 101.11028546245083 a86.0,86.0 0 0,1 10.666146001902534,-42.60595125391555" fill="none" id="id118" stroke="none" /><text fill="#e1ed5e" style="font-size:6.75px; font-family:Arial;" text-anchor="middle"><textPath startOffset="22.20632615414155" xlink:href="#id118">October</textPath></text><path d="M 79.00486145842228 99.54816195383935 l -31.182807919266924 -0.6710876889972442 a52.19002834907688,52.19002834907688 0 0,0 0.02706004643015691,-0.8979912023455863 l 31.166636178381122 1.207749038767825" fill="#9fff22" stroke="none" /><path d="M 79.03285615573316 98.82574320788736 l -62.90143153280056 -3.522770376337934 a84.0,84.0 0 0,0 0.09327763598234728,-1.442963742987953 l 62.831473305813795 4.604993183578899" fill="#4dd2ff" stroke="none" /><path d="M 79.21141760316559 97.0276538004421 l -28.17427659090749 -4.028350868360757 a49.46080589406387,49.46080589406387 0 0,0 0.12775986788074234,-0.8417779013495653 l 28.100760829587443 4.512727882102415" fill="#c1ff1e" stroke="none" /><path d="M 79.26566170972629 96.67025291283419 l -28.515882614461923 -4.579392683971364 a49.88124648687764,49.88124648687764 0 0,0 0.14343979144730742,-0.8465897687830652 l 28.432830961494393 5.069568241070257" fill="#bcff1f" stroke="none" /><path d="M 79.54389044137918 95.25157060432595 l -16.150579669239463 -3.7489967013924623 a37.57999396620827,37.57999396620827 0 0,0 0.15169289784433104,-0.6288649939941117 l 16.083653971134318 4.026446927045971" fill="#ff9e0e" stroke="none" /><path d="M 79.62865764111835 94.90015583598534 l -27.56265317238928 -6.900145972201225 a49.41323396481128,49.41323396481128 0 0,0 0.21366204276931336,-0.8233270090227502 l 27.439794797749656 7.373569406772838" fill="#c2ff1e" stroke="none" /><path d="M 79.81627453868168 94.20196356495316 l -27.45936704821055 -7.888058670534976 a49.56988463886673,49.56988463886673 0 0,0 0.2426424677013564,-0.8180697770569214 l 27.319518683397483 8.359557834338437" fill="#c0ff1e" stroke="none" /><path d="M 79.91906864156998 93.8553929516997 l -17.35686651427347 -5.311064632230813 a39.15125953541629,39.15125953541629 0 0,0 0.20273737038306383,-0.6427328670967152 l 17.262873660122203 5.609047665753942" fill="#ffb410" stroke="none" /><path d="M 80.2630227832202 92.82701384747504 l -42.92518492789666 -15.600248898327076 a66.67208410817139,66.67208410817139 0 0,0 0.4012878812526866,-1.0752520139748278 l 42.650292458142346 16.336824049331245" fill="#36ff6a" stroke="none" /><path d="M 80.38941819471856 92.48833698450439 l -26.481210874508715 -10.143397799550025 a49.35741610760957,49.35741610760957 0 0,0 0.31073184621901434,-0.7907786554847198 l 26.30268547840801 10.597725459930508" fill="#c2ff1e" stroke="none" /><path d="M 80.95270993114464 91.15688171328213 l -25.626622932220524 -11.897716528677904 a49.253839765720095,49.253839765720095 0 0,0 0.3636382989288669,-0.765914996872469 l 25.418026439449903 12.337073941190905" fill="#c4ff1e" stroke="none" /><path d="M 81.10775173730289 90.83032412892265 l -38.15272657346216 -18.518078495044186 a63.40931237520816,63.40931237520816 0 0,0 0.4850510056469734,-0.9778332291707287 l 37.828315554861774 19.172071312713875" fill="#31ff40" stroke="none" /><path d="M 81.6062741919709 89.86733742301443 l -25.240600552438625 -13.904441726901021 a49.817033434837654,49.817033434837654 0 0,0 0.42022413364099936,-0.7475318438784535 l 24.997518777505192 14.336857080714259" fill="#bdff1f" stroke="none" /><line stroke="#e1ed5e" stroke-width="0.3" x1="26.266209847984243" x2="21.928928074336255" y1="57.711370442889674" y2="55.22380399835377" /><path d="M 25.398753493254645 57.213857153982495 a86.0,86.0 0 0,1 29.58750427330803,-30.492523968695096" fill="none" id="id119" stroke="none" /><text fill="#e1ed5e" style="font-size:6.75px; font-family:Arial;" text-anchor="middle"><textPath startOffset="21.46611528233685" xlink:href="#id119">November</textPath></text><path d="M 81.78341655067845 89.55222093294921 l -24.52691679527481 -14.066952158502168 a49.27452546926159,49.27452546926159 0 0,0 0.428313710451394,-0.7321269710905774 l 24.281143410353092 14.487058541946638" fill="#c3ff1e" stroke="none" /><path d="M 82.15384107792192 88.93136811851018 l -35.20345145302085 -21.83405666130943 a62.4247392809474,62.4247392809474 0 0,0 0.5742255686009373,-0.9082869489581089 l 34.82239828817395 22.436791257981756" fill="#30ff33" stroke="none" /><path d="M 82.54541684631803 88.32363383020206 l -28.18788365685557 -18.85648303549888 a54.9134742767603,54.9134742767603 0 0,0 0.5323352318036837,-0.7811362659544291 l 27.859123959383144 19.338897324723725" fill="#7fff26" stroke="none" /><path d="M 82.95767976084542 87.72973835380427 l -27.980602828230822 -20.14569101523397 a55.47844255636379,55.47844255636379 0 0,0 0.5646579701814123,-0.770192836752063 l 27.629682245535776 20.624346295657535" fill="#79ff26" stroke="none" /><path d="M 84.31358615837235 86.03803664274999 l -28.54587734110517 -25.407750774711737 a59.215453845313505,59.215453845313505 0 0,0 0.6842384023510665,-0.7555531337342859 l 28.104295298138062 25.89535669571558" fill="#4eff2b" stroke="none" /><path d="M 84.80347519578584 85.50635884689758 l -28.932839005927825 -27.594610708371572 a60.98214242745771,60.98214242745771 0 0,0 0.7310183107113033,-0.7533786275116393 l 28.453556431513405 28.088553531433337" fill="#3bff2e" stroke="none" /><path d="M 86.37877921826538 84.01681056812374 l -27.49621417351338 -32.26415655665918 a63.391244286861074,63.391244286861074 0 0,0 0.8365907417565429,-0.70062068715936 l 26.936765894797727 32.732678401212354" fill="#31ff40" stroke="none" /><path d="M 87.51073957382395 83.11751280151077 l -23.543205936796294 -31.82477258671879 a60.586597428659715,60.586597428659715 0 0,0 0.8437540087714028,-0.6130231705474343 l 22.99190661167111 32.22531499208289" fill="#40ff2d" stroke="none" /><path d="M 87.80319425747018 82.90503203632743 l -18.022751183224152 -25.260577285422425 a52.03089307456695,52.03089307456695 0 0,0 0.7335584390014981,-0.5139045651520854 l 17.58526160463899 25.567066693338454" fill="#a1ff22" stroke="none" /><path d="M 89.00827224532344 82.1063720568725 l -21.288497014448026 -34.65592066568817 a61.672262567020226,61.672262567020226 0 0,0 0.9093367596635601,-0.5478652230588524 l 20.688798188566818 35.017232498205644" fill="#34ff2f" stroke="none" /><line stroke="#e1ed5e" stroke-width="0.3" x1="56.762969772571076" x2="54.21961505331055" y1="26.818313649435495" y2="22.513508569990535" /><path d="M 56.25429882871897 25.957352633546506 a86.0,86.0 0 0,1 42.265352541879196,-11.944610805530505" fill="none" id="id120" stroke="none" /><text fill="#e1ed5e" style="font-size:6.75px; font-family:Arial;" text-anchor="middle"><textPath startOffset="22.20632615414155" xlink:href="#id120">December</textPath></text><path d="M 89.3179101791058 81.91981866633112 l -17.272488954258794 -29.234891075897142 a54.95611477914637,54.95611477914637 0 0,0 0.8185929654251378,-0.47418188209412887 l 16.766699256368337 29.52787711538132" fill="#7fff26" stroke="none" /><path d="M 89.94658935756843 81.56283822128135 l -28.86879371715692 -52.94308956934675 a81.30238787835546,81.30238787835546 0 0,0 1.2344604335281288,-0.6594060115185824 l 27.953188237100484 53.432174307367085" fill="#49edff" stroke="none" /><path d="M 91.23893434514133 80.91482961587045 l -18.283224801525773 -39.82831247417371 a64.8243172643174,64.8243172643174 0 0,0 1.0181056662835652,-0.45679433539358844 l 17.594937016775432 40.13712714008383" fill="#33ff53" stroke="none" /><path d="M 91.56875222667455 80.76684994638697 l -11.356011401210269 -25.90504717237974 a49.284809773934086,49.284809773934086 0 0,0 0.7799115610520602,-0.33391742851903006 l 10.9084160823679 26.096684128861554" fill="#c3ff1e" stroke="none" /><path d="M 91.90106846888425 80.62456947434976 l -4.352885872665264 -10.41360054568719 a32.28674850191965,32.28674850191965 0 0,0 0.5146140724826522,-0.20992400135551584 l 4.172987930594232 10.486985433226284" fill="#ff5007" stroke="none" /><path d="M 92.23578459929587 80.48803036053334 l -12.544387944751627 -31.52484882136159 a54.92901062686817,54.92901062686817 0 0,0 0.8815238719602978,-0.34201756702554503 l 11.999880907791653 31.736109092277687" fill="#7fff26" stroke="none" /><path d="M 93.59665428221793 80.00007090966166 l -8.624678996588283 -26.937944000069137 a49.284941483854126,49.284941483854126 0 0,0 0.8101848907296307,-0.25172838932765856 l 8.159708733147925 27.082412524279324" fill="#c3ff1e" stroke="none" /><path d="M 94.28887869178378 79.79150937346287 l -8.450301921457752 -29.90093152556832 a52.07206637255588,52.07206637255588 0 0,0 0.8646494979329836,-0.2363413701090958 l 7.934354534301046 30.041959436503713" fill="#a1ff22" stroke="none" /><path d="M 94.98787191387505 79.60689891045804 l -6.755932450019099 -27.488206813540266 a49.306256147593636,49.306256147593636 0 0,0 0.8259415712991134,-0.19547368482459435 l 6.281767191757451 27.60042641050573" fill="#c3ff1e" stroke="none" /><path d="M 95.33964822691252 79.52364482259891 l -6.272915779184542 -27.561535640776444 a49.266370818528024,49.266370818528024 0 0,0 0.8285132051958966,-0.18108089642828457 l 5.797559849835125 27.6654300353006" fill="#c3ff1e" stroke="none" /><path d="M 96.04723909329186 79.375362276772 l -6.389783355162252 -33.340485281181856 a54.9472722042672,54.9472722042672 0 0,0 0.9304532418059427,-0.17003438263258935 l 5.8149349922534155 33.44553514516518" fill="#7fff26" stroke="none" /><path d="M 96.40284397218896 79.31037775812273 l -2.4124121333517685 -13.875376921345856 a35.083529991112314,35.083529991112314 0 0,0 0.5958700234942973,-0.09832365948793498 l 2.1732129037185857 13.914846843773418" fill="#ff790b" stroke="none" /><path d="M 97.11714578562143 79.19881850522333 l -3.881006994614962 -28.003334499134827 a49.27099146409063,49.27099146409063 0 0,0 0.8410916548424549,-0.10919783629068025 l 3.3984006112646497 28.065990658589644" fill="#c3ff1e" stroke="none" /><path d="M 98.19473922651362 79.07773832637324 l -2.460536874042 -28.516653711416122 a49.62260960508918,49.62260960508918 0 0,0 0.8516416824341433,-0.06610378539174608 l 1.9693050022455227 28.554782758996332" fill="#bfff1e" stroke="none" /><path d="M 98.91598698831166 79.02799685794201 l -1.460452414935323 -28.254838553225547 a49.292557730349,49.292557730349 0 0,0 0.8477361485378111,-0.03650530181640095 l 0.9738754340081879 28.27579158156614" fill="#c3ff1e" stroke="none" /></svg>