<?xml version="1.0" encoding="utf-8" ?>
<svg baseProfile="full" height="200mm" version="1.1" viewBox="0,0,200,200" width="200mm" xmlns="http://www.w3.org/2000/svg" xmlns:ev="http://www.w3.org/2001/xml-events" xmlns:xlink="http://www.w3.org/1999/xlink"><defs /><rect fill="#1a1a1a" height="200" width="200" x="0" y="0" /><text alignment-baseline="middle" fill="#e1ed5e" style="dominant-baseline: central; font-size:9.0px; font-family:Arial;" text-anchor="middle" x="100.0" y="100.0">2017</text><line stroke="#e1ed5e" stroke-width="0.3" x1="100.0" x2="100.0" y1="15.0" y2="10.0" /><path d="M 100.0 14.0 a86.0,86.0 0 0,1 42.46469731375804,11.215312516191453" fill="none" id="id49" stroke="none" /><text fill="#e1ed5e" style="font-size:6.75px; font-family:Arial;" text-anchor="middle"><textPath startOffset="22.20632615414155" xlink:href="#id49">January</textPath></text><path d="M 101.44485096284872 79.0497635885617 l 0.7434520923336894 -10.780002571517874 a31.805608564792976,31.805608564792976 0 0,0 0.5458596838120255,0.04236921716840051 l -0.928901965508056 10.76560809216101" fill="#ff2303" stroke="none" /><path d="M 104.307194497241 79.44645832069477 l 2.220735662855217 -10.597149266059777 a31.827337597555008,31.827337597555008 0 0,0 0.5352407544475488,0.11698289781319289 l -2.402819141456294 10.557352870150714" fill="#ff2403" stroke="none" /><path d="M 104.66035177308747 79.52364482259891 l 2.399077861365326 -10.54091467327399 a31.810479024267895,31.810479024267895 0 0,0 0.5328653822434735,0.12611201978702163 l -2.580166930571323 10.498056741346101" fill="#ff2403" stroke="none" /><path d="M 107.08798089147638 80.2323363322302 l 3.6724778728557523 -10.242170306248921 a31.880677658529464,31.880677658529464 0 0,0 0.5149756822914546,0.18966988984650393 l -3.848235880919783 10.177437148596093" fill="#ff2503" stroke="none" /><line stroke="#e1ed5e" stroke-width="0.3" x1="143.23703022742887" x2="145.7803849466894" y1="26.81831364943548" y2="22.513508569990506" /><path d="M 143.74570117128098 25.957352633546492 a86.0,86.0 0 0,1 28.547481713284135,27.462654790039103" fill="none" id="id50" stroke="none" /><text fill="#e1ed5e" style="font-size:6.75px; font-family:Arial;" text-anchor="middle"><textPath startOffset="19.985693538727396" xlink:href="#id50">February</textPath></text><path d="M 116.60985879189232 87.15038557335679 l 8.599604292929603 -6.652771752628604 a31.872560231497747,31.872560231497747 0 0,0 0.3319664652040312,0.4368289555368467 l -8.712846698357747 6.503758021210724" fill="#ff2503" stroke="none" /><path d="M 117.04232023915458 87.72973835380427 l 8.730508401242938 -6.285859019445058 a31.75796451734771,31.75796451734771 0 0,0 0.31559459121364464,0.4463861680440123 l -8.837415612260466 6.134646351069253" fill="#ff2303" stroke="none" /><line stroke="#e1ed5e" stroke-width="0.3" x1="172.23445277983987" x2="176.4835382374775" y1="55.19839476539836" y2="52.563006222186495" /><path d="M 173.08426987136738 54.67131705675599 a86.0,86.0 0 0,1 12.851231095245387,41.99856678651699" fill="none" id="id51" stroke="none" /><text fill="#e1ed5e" style="font-size:6.75px; font-family:Arial;" text-anchor="middle"><textPath startOffset="22.20632615414155" xlink:href="#id51">March</textPath></text><path d="M 119.196687751892 91.48605970444005 l 9.845269724512184 -4.366484453544295 a31.7701217463611,31.7701217463611 0 0,0 0.21741245925624597,0.5018179314217024 l -9.91897289361111 4.1963673775359895" fill="#ff2303" stroke="none" /><path d="M 119.47837535516314 92.15188598940014 l 9.999973592058264 -4.029131353229522 a31.781158161507502,31.781158161507502 0 0,0 0.20007971910386338,0.5091810613811268 l -10.06784686104383 3.85640128695261" fill="#ff2303" stroke="none" /><path d="M 119.61058180528143 92.48833698450437 l 10.057724666458565 -3.85252406824198 a31.77031880506203,31.77031880506203 0 0,0 0.1912201199428747,0.5123748527845899 l -10.122549374903064 3.678826078428057" fill="#ff2303" stroke="none" /><path d="M 120.67395015179393 96.31383870115 l 10.740725722389879 -1.9150693113188477 a31.910118217084673,31.910118217084673 0 0,0 0.09176155418092205,0.541581887099555 l -10.772099138091024 1.7299016359034547" fill="#ff2503" stroke="none" /><path d="M 120.78858239683441 97.02765380044208 l 10.664746903667773 -1.5248427874134862 a31.773206210113045,31.773206210113045 0 0,0 0.07275156558774479,0.5420836666133622 l -10.689414468313354 1.3410407787354597" fill="#ff2303" stroke="none" /><path d="M 120.83666639777658 97.38593545837742 l 10.63456602534521 -1.3341597658522506 a31.717927823429562,31.717927823429562 0 0,0 0.06329938850178944,0.5423105043982266 l -10.655955766850589 1.1509055231291712" fill="#ff2203" stroke="none" /><path d="M 120.87857604477298 97.74499172005257 l 10.593207382377562 -1.1441283307461003 a31.654814511913116,31.654814511913116 0 0,0 0.053847664779116004,0.5422386357594046 l -10.611332172838907 0.9616141642822608" fill="#ff2103" stroke="none" /><line stroke="#e1ed5e" stroke-width="0.3" x1="184.98032266829074" x2="189.97916517819016" y1="98.17113171792111" y2="98.06355123074" /><path d="M 185.9800911702706 98.14961562048488 a86.0,86.0 0 0,1 -9.607161424134198,41.387399972396054" fill="none" id="id52" stroke="none" /><text fill="#e1ed5e" style="font-size:6.75px; font-family:Arial;" text-anchor="middle"><textPath startOffset="21.466115282336823" xlink:href="#id52">April</textPath></text><path d="M 120.49622156327973 104.57218783832717 l 10.552452940084603 2.3539849453820083 a31.8118226111875,31.8118226111875 0 0,0 -0.12382287509314807,0.5334257051555589 l -10.510369499060904 -2.5352793078861318" fill="#ff2403" stroke="none" /><path d="M 119.9155931802556 106.66101706037122 l 10.209856179206316 3.414812984885293 a31.76578426877571,31.76578426877571 0 0,0 -0.1779022615374906,0.5170672462306679 l -10.149563086725594 -3.590052934205261" fill="#ff2303" stroke="none" /><path d="M 119.67450827220406 107.3425965602758 l 10.10518857034335 3.7712923652769477 a31.785985450879956,31.785985450879956 0 0,0 -0.19571951178839742,0.5109618853905542 l -10.038774778961447 -3.944677817500646" fill="#ff2303" stroke="none" /><path d="M 119.41010516605496 108.01547362559984 l 9.943451257915788 4.106184413912713 a31.757926071488257,31.757926071488257 0 0,0 -0.21300346316839583,0.5034772667242448 l -9.871296813555084 -4.276736206303121" fill="#ff2303" stroke="none" /><path d="M 119.26925614724726 108.34839909993367 l 9.893687609570224 4.286437011558454 a31.782327984708196,31.782327984708196 0 0,0 -0.22180873876922585,0.500120150127706 l -9.818437786069724 -4.456105498178848" fill="#ff2303" stroke="none" /><line stroke="#e1ed5e" stroke-width="0.3" x1="174.80103733775053" x2="179.2010983576182" y1="140.37084112569926" y2="142.7455964860345" /><path d="M 175.68104954172406 140.8457921977663 a86.0,86.0 0 0,1 -30.038265399797805,32.042727171017184" fill="none" id="id53" stroke="none" /><text fill="#e1ed5e" style="font-size:6.75px; font-family:Arial;" text-anchor="middle"><textPath startOffset="22.206326154141568" xlink:href="#id53">May</textPath></text><path d="M 118.48025628344425 109.97397251340804 l 9.485220198836764 5.119264803247019 a31.778509838849928,31.778509838849928 0 0,0 -0.2639486565891778,0.4791434807793002 l -9.395695132796078 -5.281778802424125" fill="#ff2303" stroke="none" /><path d="M 117.35343817320211 111.8261652097733 l 52.0603145196063 35.47849562931987 a84.0,84.0 0 0,0 -0.8245563713514552,1.1878349512519217 l -51.44189724109271 -36.36937184275882" fill="#4dd2ff" stroke="none" /><path d="M 115.80600337817218 113.82643327865902 l 8.103139733932847 7.088289063229942 a31.76590522861624,31.76590522861624 0 0,0 -0.3635549621241663,0.4084578539661929 l -7.979925922160343 -7.226721086937001" fill="#ff2303" stroke="none" /><path d="M 113.75828350139079 115.86535959552629 l 7.059934678036547 8.141161095906568 a31.775953862542547,31.775953862542547 0 0,0 -0.41631723439430374,0.3547945789603415 l -6.918751967065196 -8.261480065089858" fill="#ff2303" stroke="none" /><path d="M 112.92097659922987 116.55440617244103 l 6.620244874631026 8.481883840126685 a31.75964663348572,31.75964663348572 0 0,0 -0.43385381963549424,0.3326606084205536 l -6.473262326502038 -8.59458379037461" fill="#ff2303" stroke="none" /><path d="M 111.7513745106137 117.40417183066458 l 6.010790287921251 8.90217794646798 a31.741432496457318,31.741432496457318 0 0,0 -0.4554522242580997,0.30184889918756475 l -5.856663364923187 -9.004324866746863" fill="#ff2203" stroke="none" /><line stroke="#e1ed5e" stroke-width="0.3" x1="143.8653032363475" x2="146.44561519142675" y1="172.8068346515853" y2="177.08958963109032" /><path d="M 144.38136562736335 173.6633856474863 a86.0,86.0 0 0,1 -40.68145358897372,12.25698825130547" fill="none" id="id54" stroke="none" /><text fill="#e1ed5e" style="font-size:6.75px; font-family:Arial;" text-anchor="middle"><textPath startOffset="21.466115282336833" xlink:href="#id54">June</textPath></text><path d="M 110.21172684928248 118.3499491758327 l 10.432540944732933 18.746740775199438 a42.454095186142304,42.454095186142304 0 0,0 -0.6416172073732658,0.3498608591924977 l -10.108300925491019 -18.923542286151708" fill="#ffc812" stroke="none" /><path d="M 107.93186726928326 119.44442032107085 l 3.2697240912587313 8.015500941446186 a29.656751756593373,29.656751756593373 0 0,0 -0.47433704133800353,0.18874849794926493 l -3.1312659738788615 -8.070596283801521" fill="#ff0000" stroke="none" /><path d="M 106.91757812671514 119.82793768551818 l 3.5390880382674643 10.144130763818659 a31.74376717432298,31.74376717432298 0 0,0 -0.5174691568744988,0.17555363353463235 l -3.3639491484557387 -10.203547384251413" fill="#ff2203" stroke="none" /><path d="M 102.70371172650421 120.8252237178851 l 1.385975263914389 10.675415080508976 a31.76500880507494,31.76500880507494 0 0,0 -0.54283764603204,0.06573007917424305 l -1.2020101948309687 -10.69769068840857" fill="#ff2303" stroke="none" /><path d="M 102.34483914955558 120.86867818915974 l 1.1995511004063246 10.675805157286154 a31.742985553319137,31.742985553319137 0 0,0 -0.5435115662568014,0.056337196127235305 l -1.0156069375439205 -10.694871721869148" fill="#ff2203" stroke="none" /><line stroke="#e1ed5e" stroke-width="0.3" x1="102.19456741930631" x2="102.32365962044197" y1="184.97166512339345" y2="189.96999836594603" /><path d="M 102.22038585953345 185.97133177190398 a86.0,86.0 0 0,1 -42.740103519485714,-10.115201625700543" fill="none" id="id55" stroke="none" /><text fill="#e1ed5e" style="font-size:6.75px; font-family:Arial;" text-anchor="middle"><textPath startOffset="22.20632615414155" xlink:href="#id55">July</textPath></text><path d="M 93.42475214034765 119.94407469862007 l -3.367100550631753 10.213106233095678 a31.753832109837052,31.753832109837052 0 0,0 -0.5176332298298577,-0.1756092959892832 l 3.5424035133988365 -10.15363395020827" fill="#ff2303" stroke="none" /><path d="M 92.06813273071674 119.44442032107085 l -4.06571288686418 9.966812049809441 a31.764170368153792,31.764170368153792 0 0,0 -0.5044884468173472,-0.21087621168487636 l 4.23667279317899 -9.895350795104592" fill="#ff2303" stroke="none" /><line stroke="#e1ed5e" stroke-width="0.3" x1="58.666819895761336" x2="56.23545636021788" y1="174.27360380694188" y2="178.64263932499728" /><path d="M 58.180547188652646 175.14741091055294 a86.0,86.0 0 0,1 -31.652253787137756,-30.449443065178592" fill="none" id="id56" stroke="none" /><text fill="#e1ed5e" style="font-size:6.75px; font-family:Arial;" text-anchor="middle"><textPath startOffset="22.20632615414155" xlink:href="#id56">August</textPath></text><path d="M 89.4739219176387 118.17145234162733 l -5.357313824373574 9.248475270374144 a31.688082439780594,31.688082439780594 0 0,0 -0.4696356838457645,-0.27746904001429623 l 5.515717379247721 -9.154887658066096" fill="#ff2203" stroke="none" /><path d="M 89.1626897886671 117.98757091392108 l -10.890454622764988 18.07577904404487 a42.10298059373687,42.10298059373687 0 0,0 -0.6175520841770148,-0.3793509290112379 l 11.19998590687431 -17.885639648205256" fill="#ffc212" stroke="none" /><path d="M 88.24862548938628 117.40417183066458 l -6.013681235862593 8.9064595353731 a31.74659869269362,31.74659869269362 0 0,0 -0.45026218367898796,-0.3096944356441965 l 6.166100304164471 -8.801624310363803" fill="#ff2203" stroke="none" /><path d="M 87.65650970185807 116.9893568818739 l -31.004369382299664 42.67385347340728 a73.7477837549969,73.7477837549969 0 0,0 -1.0205816360725595,-0.7550018957054945 l 31.73433598879079 -42.13384162896202" fill="#3effba" stroke="none" /><path d="M 85.97065885151581 115.62618273729859 l -7.200986179739591 8.020613708258864 a31.778888913886746,31.778888913886746 0 0,0 -0.4038952270742453,-0.3689487136689171 l 7.33798095628069 -7.895472228003372" fill="#ff2303" stroke="none" /><path d="M 85.18274418774928 114.88116024355367 l -7.596638855165934 7.629401931676484 a31.766461616096798,31.766461616096798 0 0,0 -0.38416146362958753,-0.38915353444472567 l 7.726840943851055 -7.497507903251094" fill="#ff2303" stroke="none" /><path d="M 83.72743513129214 113.27417163493432 l -8.326120956721404 6.791944572012617 a31.744989588419664,31.744989588419664 0 0,0 -0.3417606441879342,-0.42639895172576797 l 8.441799512964199 -6.647617786708589" fill="#ff2203" stroke="none" /><path d="M 83.50135304334701 112.99209946851258 l -11.204993300439577 8.823534916881483 a35.26207009141108,35.26207009141108 0 0,0 -0.3714156911904178,-0.48010484820263505 l 11.355215808848063 -8.629352074565595" fill="#ff5b08" stroke="none" /><path d="M 82.6465618267979 111.8261652097733 l -8.926315167056842 6.083179415312395 a31.802044911057788,31.802044911057788 0 0,0 -0.3043862985100524,-0.455016216597214 l 9.029704570977623 -5.92862628450936" fill="#ff2303" stroke="none" /><line stroke="#e1ed5e" stroke-width="0.3" x1="26.63291911575756" x2="22.317208475507996" y1="142.92168965132927" y2="145.44649492493687" /><path d="M 25.769776987707644 143.4266507060508 a86.0,86.0 0 0,1 -11.730757126820373,-40.83630448921669" fill="none" id="id57" stroke="none" /><text fill="#e1ed5e" style="font-size:6.75px; font-family:Arial;" text-anchor="middle"><textPath startOffset="21.46611528233685" xlink:href="#id57">September</textPath></text><path d="M 81.35079622478065 109.6543875284942 l -13.370293945353616 6.921582319232561 a36.05566544484409,36.05566544484409 0 0,0 -0.2805840385113218,-0.5536189269974768 l 13.487456653651204 -6.6904091805323995" fill="#ff6709" stroke="none" /><path d="M 81.02952815118164 109.00673069616217 l -9.730921215192613 4.62001090480362 a31.771969571846647,31.771969571846647 0 0,0 -0.23030953532512968,-0.49606624979220143 l 9.80900536735757 -4.451824587732592" fill="#ff2303" stroke="none" /><path d="M 80.32549172779594 107.34259656027581 l -14.143047234897324 5.278235600199927 a36.09587877997683,36.09587877997683 0 0,0 -0.21223644319159418,-0.5839835397379656 l 14.231807939094143 -5.034004263455844" fill="#ff6809" stroke="none" /><path d="M 79.23777060512086 103.15116336523772 l -10.822175707476761 1.6425232075500298 a31.946112073738355,31.946112073738355 0 0,0 -0.07783586383728129,-0.5443838503908983 l 10.848845622330643 -1.4559938851787309" fill="#ff2603" stroke="none" /><path d="M 79.1416061653843 102.43462659150553 l -15.024623705313044 1.7536991913353364 a36.12662481652615,36.12662481652615 0 0,0 -0.06677868713869185,-0.6182877065213338 l 15.052584693952788 -1.4948151629292206" fill="#ff6809" stroke="none" /><path d="M 79.0095281055655 100.63252640178507 l -10.871613756079293 0.32760496120876875 a31.876548656259537,31.876548656259537 0 0,0 -0.01180637129841412,-0.54859568199208 l 10.875642190062715 -0.14041946342655987" fill="#ff2503" stroke="none" /><line stroke="#e1ed5e" stroke-width="0.3" x1="15.007084014347285" x2="10.007500721073583" y1="101.09737516637583" y2="101.16192664675087" /><path d="M 14.007167355692545 101.11028546245083 a86.0,86.0 0 0,1 10.666146001902534,-42.60595125391555" fill="none" id="id58" stroke="none" /><text fill="#e1ed5e" style="font-size:6.75px; font-family:Arial;" text-anchor="middle"><textPath startOffset="22.20632615414155" xlink:href="#id58">October</textPath></text><path d="M 79.00019446554 99.90962569577889 l -10.80507719296581 -0.04650049410064171 a31.805177251757673,31.805177251757673 0 0,0 0.007068311231130872,-0.5474484944033468 l 10.802675874616963 0.23248524656446046" fill="#ff2303" stroke="none" /><path d="M 79.03285615573316 98.82574320788736 l -10.772703642182174 -0.6033211063560272 a31.789584798297835,31.789584798297835 0 0,0 0.03530068236720936,-0.5460859317688663 l 10.760722368810551 0.7886661023779054" fill="#ff2303" stroke="none" /><path d="M 79.71946130924805 94.55025226153421 l -10.46928696058529 -2.813286856271547 a31.8406896643503,31.8406896643503 0 0,0 0.14679047589524052,-0.5280834429256435 l 10.419309714123688 2.9930816026161335" fill="#ff2403" stroke="none" /><path d="M 79.81627453868168 94.20196356495316 l -10.40913435871869 -2.990158600047019 a31.83010279504738,31.83010279504738 0 0,0 0.15580699341233545,-0.5253037259809651 l 10.356121468194647 3.168891712774523" fill="#ff2403" stroke="none" /><path d="M 79.91906864156998 93.8553929516997 l -10.345413810592696 -3.1656152537698405 a31.818905066932714,31.818905066932714 0 0,0 0.16476816373947836,-0.5223601060151796 l 10.289390163085013 3.3432255262114348" fill="#ff2403" stroke="none" /><path d="M 80.14247586403 93.16781622104843 l -10.269984839873695 -3.533493065530957 a31.860854563771255,31.860854563771255 0 0,0 0.1828918028775878,-0.5170597552099898 l 10.207639956186298 3.7097504471675578" fill="#ff2403" stroke="none" /><path d="M 80.2630227832202 92.82701384747504 l -10.14247705815196 -3.6860683726469805 a31.791521714891147,31.791521714891147 0 0,0 0.19134773663395754,-0.5127168020696622 l 10.077524733016373 3.860108311745984" fill="#ff2303" stroke="none" /><path d="M 80.38941819471856 92.48833698450439 l -10.068330533722019 -3.8565865535706148 a31.781676102603935,31.781676102603935 0 0,0 0.20008297982548368,-0.5091893595619824 l 10.000454004014845 4.029324918028361" fill="#ff2303" stroke="none" /><path d="M 80.95270993114464 91.15688171328213 l -9.815466840597669 -4.557043757772641 a31.821739098182277,31.821739098182277 0 0,0 0.2349380907085111,-0.49483953571522066 l 9.735570556047406 4.725325709128394" fill="#ff2403" stroke="none" /><path d="M 81.10775173730289 90.83032412892265 l -19.439245449355926 -9.43517031272917 a42.60802402975596,42.60802402975596 0 0,0 0.3259310680105083,-0.6570571445258241 l 19.273954368392005 9.768387045753956" fill="#ffca12" stroke="none" /><path d="M 81.26839172434947 90.50648371742162 l -19.555495521844414 -9.91107717065854 a42.9236597261412,42.9236597261412 0 0,0 0.3396908257490377,-0.6561745539288945 l 19.38199526293526 10.246224446847771" fill="#ffce13" stroke="none" /><path d="M 81.43458229118936 90.18545643968196 l -9.521734900422215 -5.033632068813884 a31.77037080689936,31.77037080689936 0 0,0 0.2597483501128821,-0.48127424382159717 l 9.433678451090861 5.196787295967955" fill="#ff2303" stroke="none" /><line stroke="#e1ed5e" stroke-width="0.3" x1="26.266209847984243" x2="21.928928074336255" y1="57.711370442889674" y2="55.22380399835377" /><path d="M 25.398753493254645 57.213857153982495 a86.0,86.0 0 0,1 29.58750427330803,-30.492523968695096" fill="none" id="id59" stroke="none" /><text fill="#e1ed5e" style="font-size:6.75px; font-family:Arial;" text-anchor="middle"><textPath startOffset="21.46611528233685" xlink:href="#id59">November</textPath></text><path d="M 81.78341655067845 89.55222093294921 l -17.114320719040204 -9.81559699449796 a40.729316207931944,40.729316207931944 0 0,0 0.35403536377128414,-0.6051611989344325 l 16.942825680798595 10.108737605786285" fill="#ffae10" stroke="none" /><path d="M 81.96595687620814 89.24020034530311 l -12.385521088877054 -7.389675438866299 a35.422497555375145,35.422497555375145 0 0,0 0.31692036551905195,-0.5209337523139747 l 12.256484925071785 7.601776964387348" fill="#ff5d08" stroke="none" /><path d="M 83.39014120810768 87.1503855733568 l -17.12455826427067 -13.247792993271768 a42.65073936240935,42.65073936240935 0 0,0 0.4542220865739499,-0.5768159229738283 l 16.893982097102754 13.540601310198642" fill="#ffca12" stroke="none" /><path d="M 83.6137871275137 86.86637796730984 l -11.71331380032911 -9.388272775469813 a36.01137521653523,36.01137521653523 0 0,0 0.3918406447324346,-0.4803502986826045 l 11.549974663520283 9.588507243760501" fill="#ff6709" stroke="none" /><path d="M 83.84228863543731 86.58626213691792 l -10.623917540835645 -8.819717208485107 a34.80778894508906,34.80778894508906 0 0,0 0.3866803680414041,-0.457707590494521 l 10.470526559307116 9.001283748608744" fill="#ff5407" stroke="none" /><path d="M 84.07557802195018 86.31012108654704 l -11.409380233279524 -9.808395814079564 a36.045882684415794,36.045882684415794 0 0,0 0.4085339696861658,-0.4670249495887255 l 11.238854400015514 10.00333631987123" fill="#ff6709" stroke="none" /><path d="M 84.5562425177563 85.77008943001954 l -11.087148171453203 -10.215721603845106 a36.076001540959915,36.076001540959915 0 0,0 0.42472221302711805,-0.45306404395741523 l 10.90965863645563 10.405055064680571" fill="#ff6809" stroke="none" /><path d="M 85.05521093208273 85.24692304244772 l -10.723934085032804 -10.586367202990274 a36.0689725202708,36.0689725202708 0 0,0 0.4399799754496351,-0.43809056160987864 l 10.540118309415854 10.769393615250262" fill="#ff6709" stroke="none" /><path d="M 85.31137513191541 84.99185889309783 l -10.534912923792112 -10.764074998793065 a36.06153049631823,36.06153049631823 0 0,0 0.4473634740605881,-0.43036330760066516 l 10.348066206119096 10.943821393156044" fill="#ff6709" stroke="none" /><path d="M 85.57189188830299 84.74124197986013 l -11.823858062767378 -12.504577013668264 a38.20953415346359,38.20953415346359 0 0,0 0.48178968608134976,-0.4477710058757865 l 11.606860492891172 12.706252605618698" fill="#ff880c" stroke="none" /><path d="M 85.83668400450813 84.49514656593479 l -17.007344394825573 -18.618265823368947 a46.21685122361301,46.21685122361301 0 0,0 0.5919916746220755,-0.5314959705745387 l 16.684341732607525 18.908260802712768" fill="#fffd17" stroke="none" /><path d="M 86.10567301691215 84.25364557470407 l -14.188645528001144 -16.079903803238697 a42.444835467792174,42.444835467792174 0 0,0 0.5519975134129247,-0.4786868041578636 l 13.909754215941447 16.32175560081624" fill="#ffc712" stroke="none" /><path d="M 86.37877921826538 84.01681056812374 l -14.020521030514267 -16.451729779228863 a42.61560599881157,42.61560599881157 0 0,0 0.5624092385947976,-0.47100156329930815 l 13.735254254960358 16.690632499921982" fill="#ffca12" stroke="none" /><path d="M 86.65592168130627 83.78471172551755 l -13.621584484014903 -16.552504705708365 a42.436720268913646,42.436720268913646 0 0,0 0.5680389449362192,-0.4593146556776952 l 13.334642140514184 16.784525458650194" fill="#ffc712" stroke="none" /><path d="M 86.93701828274178 83.55741782278169 l -13.356678135576022 -16.812262514974964 a42.47214525122739,42.47214525122739 0 0,0 0.576341843292381,-0.44984395047253756 l 13.065303737124216 17.039684854670725" fill="#ffc812" stroke="none" /><path d="M 87.51073957382395 83.11751280151077 l -12.752018882986139 -17.237673665263028 a42.441813798793646,42.441813798793646 0 0,0 0.5910622489475189,-0.4294318605588657 l 12.45341131768484 17.454624760638563" fill="#ffc712" stroke="none" /><path d="M 87.80319425747018 82.90503203632743 l -12.548104566707947 -17.587346236457552 a42.60485306263559,42.60485306263559 0 0,0 0.6006652521171486,-0.4208043950955087 l 12.243508175007138 17.800735474317005" fill="#ffca12" stroke="none" /><path d="M 88.09926311788651 82.69761687909137 l -12.147518897172198 -17.661177455595013 a42.43547070803842,42.43547070803842 0 0,0 0.6054032292751006,-0.40877096286833764 l 11.841710973490558 17.867660330762018" fill="#ffc712" stroke="none" /><path d="M 88.70189139769569 82.29822771554957 l -11.530408837845577 -18.065738149527785 a42.43178067392374,42.43178067392374 0 0,0 0.6190611871062793,-0.38765605857317137 l 11.217728498367057 18.26153854942389" fill="#ffc712" stroke="none" /><line stroke="#e1ed5e" stroke-width="0.3" x1="56.762969772571076" x2="54.21961505331055" y1="26.818313649435495" y2="22.513508569990535" /><path d="M 56.25429882871897 25.957352633546506 a86.0,86.0 0 0,1 42.265352541879196,-11.944610805530505" fill="none" id="id60" stroke="none" /><text fill="#e1ed5e" style="font-size:6.75px; font-family:Arial;" text-anchor="middle"><textPath startOffset="22.20632615414155" xlink:href="#id60">December</textPath></text><path d="M 89.63071344664047 81.73862282372117 l -10.604676002708898 -18.675922139981544 a42.4767134566973,42.4767134566973 0 0,0 0.6389224074457123,-0.3555596279969282 l 10.28162950619114 18.855697165538658" fill="#ffc812" stroke="none" /><path d="M 90.58718382345135 81.22770947309562 l -9.616445871930456 -19.17839596123086 a42.45429800421175,42.45429800421175 0 0,0 0.6560780733937448,-0.32193466129852005 l 9.284896531526284 19.341085782664205" fill="#ffc812" stroke="none" /><path d="M 91.90106846888425 80.62456947434976 l -8.268372351249292 -19.780791260716757 a42.43934896956883,42.43934896956883 0 0,0 0.6764349840134491,-0.2759348142500407 l 7.926653497647462 19.920186961150375" fill="#ffc712" stroke="none" /><path d="M 92.57280143429618 80.3572730644239 l -7.5830979521183455 -20.055034355348766 a42.44079703615611,42.44079703615611 0 0,0 0.6855556410934907,-0.25249592825678396 l 7.236759985252285 20.182593551411873" fill="#ffc712" stroke="none" /><path d="M 97.11714578562143 79.19881850522333 l -2.9555164157072698 -21.325474270356427 a42.52930398640767,42.52930398640767 0 0,0 0.7260061469494857,-0.09425643438997992 l 2.5879955402499264 21.373189027910545" fill="#ffc912" stroke="none" /></svg>