<?xml version="1.0" encoding="utf-8" ?>
<svg baseProfile="full" height="200mm" version="1.1" viewBox="0,0,200,200" width="200mm" xmlns="http://www.w3.org/2000/svg" xmlns:ev="http://www.w3.org/2001/xml-events" xmlns:xlink="http://www.w3.org/1999/xlink"><defs /><rect fill="#1a1a1a" height="200" width="200" x="0" y="0" /><text alignment-baseline="middle" fill="#e1ed5e" style="dominant-baseline: central; font-size:9.0px; font-family:Arial;" text-anchor="middle" x="100.0" y="100.0">2015</text><line stroke="#e1ed5e" stroke-width="0.3" x1="100.0" x2="100.0" y1="15.0" y2="10.0" /><path d="M 100.0 14.0 a86.0,86.0 0 0,1 42.46469731375804,11.215312516191453" fill="none" id="id25" stroke="none" /><text fill="#e1ed5e" style="font-size:6.75px; font-family:Arial;" text-anchor="middle"><textPath startOffset="22.20632615414155" xlink:href="#id25">January</textPath></text><path d="M 101.08401301168833 79.027996857942 l 2.1445656772091244 -41.490127549973316 a62.54551535433058,62.54551535433058 0 0,0 1.0747045530822497,0.06482911353275089 l -2.858432279130986 41.447065167060266" fill="#30ff3a" stroke="none" /><path d="M 103.59715602781102 79.31037775812273 l 1.0702810150275546 -6.155893634407665 a27.248241983891887,27.248241983891887 0 0,0 0.4614098948019394,0.08431970901722913 l -1.1760860309323948 6.136558444039697" fill="#ff1101" stroke="none" /><path d="M 106.0581310904928 79.89281104454417 l 1.7857508567361815 -5.926981335895915 a27.190154592446987,27.190154592446987 0 0,0 0.4469732896937876,0.13887677686234656 l -1.8875095191406872 5.8953644241510474" fill="#ff1001" stroke="none" /><path d="M 110.36928655335952 81.73862282372117 l 6.96269687050438 -12.262023338064873 a35.10093486453218,35.10093486453218 0 0,0 0.5228422437689212,0.3028639747226617 l -7.172735846738629 12.140355205952162" fill="#ff860c" stroke="none" /><line stroke="#e1ed5e" stroke-width="0.3" x1="143.23703022742887" x2="145.7803849466894" y1="26.81831364943548" y2="22.513508569990506" /><path d="M 143.74570117128098 25.957352633546492 a86.0,86.0 0 0,1 28.547481713284135,27.462654790039103" fill="none" id="id26" stroke="none" /><text fill="#e1ed5e" style="font-size:6.75px; font-family:Arial;" text-anchor="middle"><textPath startOffset="19.985693538727396" xlink:href="#id26">February</textPath></text><path d="M 111.90073688211348 82.69761687909136 l 4.289485740607184 -6.2364479116590195 a28.56921201141232,28.56921201141232 0 0,0 0.40278352586723415,0.28217560006940695 l -4.396200406058069 6.1616874688256775" fill="#ff2503" stroke="none" /><path d="M 112.48926042617603 83.11751280151076 l 4.433253373271039 -5.99269618600014 a28.454270121837528,28.454270121837528 0 0,0 0.39125142569897675,0.2946824623437664 l -4.535750952728399 5.9154971341505265" fill="#ff2403" stroke="none" /><path d="M 112.77801427241765 83.33499621200491 l 4.582583992199857 -5.976576482127144 a28.53123777956065,28.53123777956065 0 0,0 0.38716542515143465,0.30218875544690876 l -4.684781972510722 5.896809337457012" fill="#ff2503" stroke="none" /><path d="M 115.4437574822437 85.77008943001954 l 5.585832313015504 -5.146797621272276 a28.59546235481831,28.59546235481831 0 0,0 0.33042241856768645,0.36486068736724303 l -5.673598372199226 5.049884146635484" fill="#ff2603" stroke="none" /><path d="M 116.15771136456269 86.58626213691792 l 8.769785646450739 -7.280462134935144 a32.39799408593099,32.39799408593099 0 0,0 0.352523357254039,0.43215195316249505 l -8.893807495781187 7.128426012164549" fill="#ff5f08" stroke="none" /><path d="M 116.82858285166822 87.43820079747576 l 6.429099447156471 -4.799040835469602 a29.02272476418906,29.02272476418906 0 0,0 0.29539244613494514,0.4029149645593573 l -6.510754505805043 4.687663427238751" fill="#ff2c04" stroke="none" /><path d="M 117.45458315368197 88.32363383020206 l 6.086768015064331 -4.071786275773256 a28.323126951295166,28.323126951295166 0 0,0 0.26759065163436185,0.4075589207784997 l -6.1559553020566185 3.9664092910170825" fill="#ff2203" stroke="none" /><line stroke="#e1ed5e" stroke-width="0.3" x1="172.23445277983987" x2="176.4835382374775" y1="55.19839476539836" y2="52.563006222186495" /><path d="M 173.08426987136738 54.67131705675599 a86.0,86.0 0 0,1 12.851231095245387,41.99856678651699" fill="none" id="id27" stroke="none" /><text fill="#e1ed5e" style="font-size:6.75px; font-family:Arial;" text-anchor="middle"><textPath startOffset="22.20632615414155" xlink:href="#id27">March</textPath></text><path d="M 117.84615892207809 88.93136811851018 l 5.269841068185495 -3.268486575312316 a27.201147424221688,27.201147424221688 0 0,0 0.24336504140469656,0.4000281395402307 l -5.325321907876416 3.177290662565004" fill="#ff1001" stroke="none" /><path d="M 119.04729006885535 91.15688171328212 l 6.499282728332045 -3.0174332273880617 a28.165582967528934,28.165582967528934 0 0,0 0.20037489698692573,0.4414995248115898 l -6.550259942282318 2.9051116937344093" fill="#ff1f03" stroke="none" /><path d="M 120.53481517161879 95.60439243477599 l 7.293084145502679 -1.5611309659165424 a28.458297811573768,28.458297811573768 0 0,0 0.09841245829224714,0.47989409710617975 l -7.318875899709923 1.4353612126469508" fill="#ff2403" stroke="none" /><path d="M 120.6074358757038 95.95851677861258 l 29.43957755857861 -5.773622660546841 a51.00039075502093,51.00039075502093 0 0,0 0.16153590816116772,0.862931280630218 l -29.534599190649637 5.26601330245406" fill="#a7ff21" stroke="none" /><line stroke="#e1ed5e" stroke-width="0.3" x1="184.98032266829074" x2="189.97916517819016" y1="98.17113171792111" y2="98.06355123074" /><path d="M 185.9800911702706 98.14961562048488 a86.0,86.0 0 0,1 -9.607161424134198,41.387399972396054" fill="none" id="id28" stroke="none" /><text fill="#e1ed5e" style="font-size:6.75px; font-family:Arial;" text-anchor="middle"><textPath startOffset="21.466115282336823" xlink:href="#id28">April</textPath></text><line stroke="#e1ed5e" stroke-width="0.3" x1="174.80103733775053" x2="179.2010983576182" y1="140.37084112569926" y2="142.7455964860345" /><path d="M 175.68104954172406 140.8457921977663 a86.0,86.0 0 0,1 -30.038265399797805,32.042727171017184" fill="none" id="id29" stroke="none" /><text fill="#e1ed5e" style="font-size:6.75px; font-family:Arial;" text-anchor="middle"><textPath startOffset="22.206326154141568" xlink:href="#id29">May</textPath></text><path d="M 118.12598468904814 110.60418214915192 l 5.664535321554854 3.31390351313526 a27.56269128509888,27.56269128509888 0 0,0 -0.24310178777267233,0.4074525794957058 l -5.606652658083955 -3.41091818651707" fill="#ff1602" stroke="none" /><path d="M 117.75023020441432 111.22182372390056 l 5.5671881558209035 3.5196165572473777 a27.58644704467913,27.58644704467913 0 0,0 -0.2572043889549865,0.3991869234185074 l -5.505778903488867 -3.614925080587338" fill="#ff1602" stroke="none" /><path d="M 116.93607887273984 112.41649034213515 l 7.289289502579392 5.344058290581296 a30.038401433082335,30.038401433082335 0 0,0 -0.3093078988759074,0.41436847691870893 l -7.196220337008392 -5.46873964700932" fill="#ff3c05" stroke="none" /><path d="M 116.498646956653 112.99209946851258 l 5.912249264369201 4.655686658859663 a28.525297976128122,28.525297976128122 0 0,0 -0.30709804408097596,0.3831520284739244 l -5.831233308233371 -4.756766520911838" fill="#ff2503" stroke="none" /><path d="M 115.80600337817218 113.82643327865902 l 5.6727742803140195 4.962306613193004 a28.536899558753007,28.536899558753007 0 0,0 -0.32659958416288215,0.3669380950654182 l -5.586515846502799 -5.059218877999289" fill="#ff2503" stroke="none" /><path d="M 114.55890576462653 115.13401014063108 l 3.814193304126626 3.9648611699397365 a26.50165381118626,26.50165381118626 0 0,0 -0.3314778469323291,0.31343299407852904 l -3.7453796228034895 -4.0299288007641865" fill="#ff0500" stroke="none" /><path d="M 111.45004920935366 117.60387380957326 l 34.35014762806101 52.81162142871979 a84.0,84.0 0 0,0 -1.2188727918122781,0.7779422847047646 l -33.4359930342018 -53.39507814224836" fill="#4dd2ff" stroke="none" /><line stroke="#e1ed5e" stroke-width="0.3" x1="143.8653032363475" x2="146.44561519142675" y1="172.8068346515853" y2="177.08958963109032" /><path d="M 144.38136562736335 173.6633856474863 a86.0,86.0 0 0,1 -40.68145358897372,12.25698825130547" fill="none" id="id30" stroke="none" /><text fill="#e1ed5e" style="font-size:6.75px; font-family:Arial;" text-anchor="middle"><textPath startOffset="21.466115282336833" xlink:href="#id30">June</textPath></text><path d="M 110.5260780823613 118.17145234162733 l 3.7604433331285376 6.491754695021843 a28.502253866806228,28.502253866806228 0 0,0 -0.42665326897883615,0.24226486109251055 l -3.648141297228502 -6.555522721908981" fill="#ff2403" stroke="none" /><path d="M 110.21172684928248 118.3499491758327 l 5.1348531489337095 9.227067634982673 a31.559616186285332,31.559616186285332 0 0,0 -0.4769667735099009,0.260080314662397 l -4.97526356355516 -9.31408860140484" fill="#ff5307" stroke="none" /><path d="M 108.92500713936063 119.00905698771935 l 3.1909546243305353 6.796301375672748 a28.508122521876405,28.508122521876405 0 0,0 -0.44599193471523924,0.20473302270473032 l -3.0734946938478767 -6.850221468711553" fill="#ff2403" stroke="none" /><path d="M 108.2653958097858 119.30500536409082 l 18.038232940600214 42.13085394709381 a66.82997601931191,66.82997601931191 0 0,0 -1.0614144935019416,0.4436713443670759 l -17.31034698760081 -42.43511033448086" fill="#36ff70" stroke="none" /><path d="M 106.91757812671514 119.82793768551818 l 2.477651185315708 7.1017214997784635 a28.521516047746758,28.521516047746758 0 0,0 -0.46494181931715783,0.15773350871059805 l -2.355039633061323 -7.143317995387185" fill="#ff2503" stroke="none" /><path d="M 106.57524785965236 119.94407469862006 l 2.448737959265565 7.427524227127911 a28.820769382721892,28.820769382721892 0 0,0 -0.4724940817394144,0.1512776841016438 l -2.3205225324352106 -7.468574757889261" fill="#ff2904" stroke="none" /><path d="M 106.2309692047433 120.05430185196036 l 4.355675405793937 14.018690589973803 a35.67976818952051,35.67976818952051 0 0,0 -0.5880790798363756,0.1771834026684486 l -4.113721351517316 -14.091589361747978" fill="#ff8e0d" stroke="none" /><path d="M 105.18746579009965 120.34920634021253 l 1.846321221427646 7.242683234046471 a28.47431351238573,28.47431351238573 0 0,0 -0.47599115370071476,0.11698704477240263 l -1.7213767829837203 -7.273391537132903" fill="#ff2403" stroke="none" /><path d="M 104.83641907484287 120.43548508189849 l 9.798659316586233 41.402606595502576 a63.54632248860618,63.54632248860618 0 0,0 -1.066609440829377,0.2427568361505637 l -9.084529726363995 -41.56514016523083" fill="#32ff47" stroke="none" /><path d="M 104.48393922423573 120.51570834832081 l 8.91260186153465 40.77850552203056 a62.74111863082382,62.74111863082382 0 0,0 -1.0570639757646572,0.22151803376200796 l -8.209346424340614 -40.925879536519105" fill="#31ff3d" stroke="none" /><line stroke="#e1ed5e" stroke-width="0.3" x1="102.19456741930631" x2="102.32365962044197" y1="184.97166512339345" y2="189.96999836594603" /><path d="M 102.22038585953345 185.97133177190398 a86.0,86.0 0 0,1 -42.740103519485714,-10.115201625700543" fill="none" id="id31" stroke="none" /><text fill="#e1ed5e" style="font-size:6.75px; font-family:Arial;" text-anchor="middle"><textPath startOffset="22.20632615414155" xlink:href="#id31">July</textPath></text><path d="M 99.45781275523022 120.99299961872073 l -0.1868078218377666 7.233029862735837 a28.235441808039656,28.235441808039656 0 0,0 -0.4857566898437928,-0.01673044256884459 l 0.31128486335620237 -7.228742621740898" fill="#ff2003" stroke="none" /><path d="M 97.2962882734958 120.8252237178851 l -5.818611811647671 44.81760814854513 a66.19374119909952,66.19374119909952 0 0,0 -1.128670769798851,-0.15642348422263683 l 6.589211172633353 -44.710810098829896" fill="#35ff68" stroke="none" /><path d="M 95.86986931433489 120.58985236759428 l -1.0488622626257338 5.228870654471077 a26.333029192414866,26.333029192414866 0 0,0 -0.4436595511764571,-0.09297317257004578 l 1.1387132752315776 -5.21004150117449" fill="#ff0300" stroke="none" /><path d="M 95.51606077576429 120.51570834832081 l -1.318261238313288 6.031540959777724 a27.173920880762537,27.173920880762537 0 0,0 -0.4561075986886357,-0.10380860450267973 l 1.4218889863947863 -6.007955621697357" fill="#ff1001" stroke="none" /><path d="M 95.16358092515715 120.4354850818985 l -1.7230200211499922 7.280334766930263 a28.481448543688398,28.481448543688398 0 0,0 -0.47611042652462293,-0.11701635913062568 l 1.8480837324178256 -7.2495971494856075" fill="#ff2403" stroke="none" /><path d="M 90.10565033884886 118.52300852407294 l -3.4206097412238137 6.403653151959068 a28.259982416807258,28.259982416807258 0 0,0 -0.42709875028990224,-0.23288829230157818 l 3.5303313033823565 -6.343824207897724" fill="#ff2103" stroke="none" /><line stroke="#e1ed5e" stroke-width="0.3" x1="58.666819895761336" x2="56.23545636021788" y1="174.27360380694188" y2="178.64263932499728" /><path d="M 58.180547188652646 175.14741091055294 a86.0,86.0 0 0,1 -31.652253787137756,-30.449443065178592" fill="none" id="id32" stroke="none" /><text fill="#e1ed5e" style="font-size:6.75px; font-family:Arial;" text-anchor="middle"><textPath startOffset="22.20632615414155" xlink:href="#id32">August</textPath></text><path d="M 89.1626897886671 117.98757091392108 l -4.621203347691419 7.670189493821387 a29.95473769866222,29.95473769866222 0 0,0 -0.439365822464751,-0.2698943736056028 l 4.752548370088479 -7.5895066533874065" fill="#ff3a05" stroke="none" /><path d="M 88.8546689885994 117.79835938074946 l -3.9913983934383506 6.3740002845581145 a28.52058114527655,28.52058114527655 0 0,0 -0.41384476624586486,-0.264135310205531 l 4.100524961731139 -6.304350545528779" fill="#ff2503" stroke="none" /><path d="M 88.24862548938628 117.40417183066458 l -4.230736270244119 6.265859449126534 a28.560431470793674,28.560431470793674 0 0,0 -0.40507275646550644,-0.27861273554756744 l 4.337965911332516 -6.192105924213866" fill="#ff2503" stroke="none" /><path d="M 87.65650970185807 116.9893568818739 l -4.4181100502848185 6.081006795864013 a28.516537771326107,28.516537771326107 0 0,0 -0.3946349746654317,-0.2919415198677037 l 4.5221299953688145 -6.004055327256543" fill="#ff2503" stroke="none" /><path d="M 87.36589467227662 116.77436683061367 l -4.500857580360105 5.975811832092217 a28.48117945321848,28.48117945321848 0 0,0 -0.3890681982738079,-0.2983209037172769 l 4.6030545071274 -5.897451586547573" fill="#ff2403" stroke="none" /><path d="M 87.07902340077011 116.55440617244103 l -4.312838780857082 5.52562605359249 a28.00950223866181,28.00950223866181 0 0,0 -0.3775180829223624,-0.2999231970986863 l 4.407314356496802 -5.450568942488673" fill="#ff1d02" stroke="none" /><path d="M 85.97065885151581 115.62618273729859 l -4.996474088497534 5.56518059705716 a28.47903659537034,28.47903659537034 0 0,0 -0.3619556046692513,-0.33063786298080483 l 5.09152924263364 -5.4783499674897795" fill="#ff2403" stroke="none" /><path d="M 85.70375840098266 115.38237550388516 l -5.112120112823147 5.500505195842141 a28.5092828856967,28.5092828856967 0 0,0 -0.35658890482322314,-0.3371770666675752 l 5.206044852037188 -5.411693492428635" fill="#ff2403" stroke="none" /><path d="M 85.44109423537348 115.13401014063109 l -5.112626325529641 5.314584757037059 a28.374534499494146,28.374534499494146 0 0,0 -0.3490743971075706,-0.34164276799129006 l 5.203350675013007 -5.225791886123199" fill="#ff2203" stroke="none" /><path d="M 84.9287848128048 114.62390073753433 l -27.9475629076737 27.11807778878097 a59.94170534833772,59.94170534833772 0 0,0 -0.7121458468372937,-0.7466820732873256 l 28.410215305889952 -26.632988598911144" fill="#42ff2d" stroke="none" /><path d="M 84.43433777217949 114.09645910891817 l -5.561334446548189 5.03641428609886 a28.50292674145124,28.50292674145124 0 0,0 -0.32621077149664435,-0.36650125991312843 l 5.647204067693171 -4.939938856444868" fill="#ff2403" stroke="none" /><path d="M 84.19399662182784 113.82643327865904 l -5.6214854244485695 4.91744125877067 a28.468756717871308,28.468756717871308 0 0,0 -0.3194702744654088,-0.37161610356035973 l 5.705298208484757 -4.81994805604878" fill="#ff2403" stroke="none" /><path d="M 83.95833913139862 113.55231037782056 l -6.881489519094239 5.813617591618821 a30.008498626462885,30.008498626462885 0 0,0 -0.329956303335219,-0.39745362304132437 l 6.980541822322994 -5.6943027114637355" fill="#ff3b05" stroke="none" /><path d="M 83.72743513129214 113.27417163493432 l -5.806750148777004 4.736794644111135 a28.4937020751296,28.4937020751296 0 0,0 -0.3067578884967639,-0.38272763208130695 l 5.8874259493286285 -4.636139178451569" fill="#ff2403" stroke="none" /><path d="M 83.50135304334701 112.99209946851258 l -5.883193327225185 4.632806138625634 a28.488314659761187,28.488314659761187 0 0,0 -0.3000676662707494,-0.38787790818341655 l 5.962067810714003 -4.530850236328964" fill="#ff2403" stroke="none" /><path d="M 83.06392112726016 112.41649034213515 l -6.0176361738879205 4.411760360648046 a28.46160670372473,28.46160670372473 0 0,0 -0.28626983225164476,-0.3976037591304495 l 6.0926857985151734 -4.307522996066458" fill="#ff2403" stroke="none" /><path d="M 82.44556493220864 111.52570212397912 l -4.308541598315774 2.828855890787057 a26.154217336827976,26.154217336827976 0 0,0 -0.24385088365384164,-0.3784619866486669 l 4.356597345346661 -2.7542723042169417" fill="#ff0000" stroke="none" /><path d="M 82.24976979558568 111.22182372390057 l -7.577815557772906 4.790749721116906 a29.965186641560052,29.965186641560052 0 0,0 -0.2718775063888857,-0.43835310798151556 l 7.659157703829748 -4.6596002817701265" fill="#ff3b05" stroke="none" /><path d="M 82.05923443525364 110.91462005526583 l -6.440507719873369 3.918210428185709 a28.538734154305462,28.538734154305462 0 0,0 -0.2517104451781628,-0.42188118447635775 l 6.506999040749764 -3.80676714982324" fill="#ff2503" stroke="none" /><line stroke="#e1ed5e" stroke-width="0.3" x1="26.63291911575756" x2="22.317208475507996" y1="142.92168965132927" y2="145.44649492493687" /><path d="M 25.769776987707644 143.4266507060508 a86.0,86.0 0 0,1 -11.730757126820373,-40.83630448921669" fill="none" id="id33" stroke="none" /><text fill="#e1ed5e" style="font-size:6.75px; font-family:Arial;" text-anchor="middle"><textPath startOffset="21.46611528233685" xlink:href="#id33">September</textPath></text><path d="M 81.87401531095188 110.60418214915194 l -5.186447738289428 3.0342095873615333 a27.008799211327016,27.008799211327016 0 0,0 -0.23130850592754346,-0.40330587713666494 l 5.237908240369348 -2.9444838643665614" fill="#ff0d01" stroke="none" /><path d="M 81.51974371655577 109.97397251340807 l -8.048572931321376 4.3438924199918185 a30.14597876595291,30.14597876595291 0 0,0 -0.24252797617207564,-0.458771531863382 l 8.122153415718337 -4.204705873042311" fill="#ff3d05" stroke="none" /><path d="M 80.87730276802145 108.67885076344099 l -7.864375062926369 3.5692526368469264 a29.636432105679802,29.636432105679802 0 0,0 -0.20683254008778584,-0.4663527757020556 l 7.924648687745434 -3.4333515246521746" fill="#ff3605" stroke="none" /><path d="M 80.58989483394504 108.01547362559985 l -6.925564796352942 2.8599372075855873 a28.492842489991073,28.492842489991073 0 0,0 -0.18330040632256264,-0.4549365761356849 l 6.9737678169328925 -2.740301263607097" fill="#ff2403" stroke="none" /><path d="M 80.32549172779594 107.34259656027581 l -6.979569771606884 2.6048002973273094 a28.44979051958409,28.44979051958409 0 0,0 -0.16727899565010507,-0.46027995255919896 l 7.023373028262213 -2.4842725477619934" fill="#ff2403" stroke="none" /><path d="M 80.20201598880116 107.00284435728193 l -7.079740976870662 2.504210737964639 a28.50958079520548,28.50958079520548 0 0,0 -0.15966610035623852,-0.46406442568011347 l 7.121797908170129 -2.3819736091952293" fill="#ff2403" stroke="none" /><path d="M 80.0844068197444 106.66101706037122 l -7.126956353094024 2.383698915056423 a28.515020118173233,28.515020118173233 0 0,0 -0.15168327188702363,-0.4668331087515726 l 7.166931875997297 -2.260666906327047" fill="#ff2503" stroke="none" /><path d="M 79.50377843672027 104.57218783832718 l -7.3240614579212435 1.6338125845137408 a28.504080210173857,28.504080210173857 0 0,0 -0.10270422044659284,-0.47979992593093657 l 7.351099717092277 -1.5074988391666404" fill="#ff2403" stroke="none" /><path d="M 79.23777060512086 103.15116336523772 l -7.394374905543401 1.1222727033797493 a28.47905584044412,28.47905584044412 0 0,0 -0.06938847229655198,-0.48530281362980693 l 7.412597428856552 -0.9948244177695418" fill="#ff2403" stroke="none" /><path d="M 79.1416061653843 102.43462659150553 l -7.427462438085904 0.8669458301800074 a28.47788695699818,28.47788695699818 0 0,0 -0.05264028713256583,-0.4873836817759303 l 7.441285026719521 -0.738965826519295" fill="#ff2403" stroke="none" /><path d="M 79.10278846688536 102.07522291339032 l -7.475679039219956 0.742381365607428 a28.512450145553963,28.512450145553963 0 0,0 -0.044296676053736196,-0.4888101290705033 l 7.487350311550768 -0.6135898479883584" fill="#ff2503" stroke="none" /><path d="M 79.07016306316243 101.71520430193888 l -7.472860420192208 0.6124023985080862 a28.497911679752818,28.497911679752818 0 0,0 -0.035857757021852434,-0.4892506054425531 l 7.482294735878395 -0.4836786565687725" fill="#ff2403" stroke="none" /><line stroke="#e1ed5e" stroke-width="0.3" x1="15.007084014347285" x2="10.007500721073583" y1="101.09737516637583" y2="101.16192664675087" /><path d="M 14.007167355692545 101.11028546245083 a86.0,86.0 0 0,1 10.666146001902534,-42.60595125391555" fill="none" id="id34" stroke="none" /><text fill="#e1ed5e" style="font-size:6.75px; font-family:Arial;" text-anchor="middle"><textPath startOffset="22.20632615414155" xlink:href="#id34">October</textPath></text><path d="M 79.01574976396665 99.18683210126434 l -9.79602804444905 -0.3796092522372601 a30.803380469614368,30.803380469614368 0 0,0 0.02509212828789595,-0.5296551698115937 l 9.788042307927656 0.5481755286718628" fill="#ff4706" stroke="none" /><path d="M 79.08570108090925 98.10471618934814 l -7.432971749764554 -0.6735865771480423 a28.463430036498764,28.463430036498764 0 0,0 0.04841883494507251,-0.4875710602005284 l 7.420275789137253 0.8014331680530009" fill="#ff2403" stroke="none" /><path d="M 79.16333360222342 97.38593545837743 l -9.107815216593696 -1.1426212022038482 a30.179209183330634,30.179209183330634 0 0,0 0.06910176775262378,-0.5148884333991026 l 9.086797449783239 1.2992279776676101" fill="#ff3e05" stroke="none" /><path d="M 79.26566170972629 96.67025291283419 l -7.420618211349638 -1.191684129403912 a28.515695955990175,28.515695955990175 0 0,0 0.08200046648750242,-0.4839713949895129 l 7.399005883341913 1.3192413127092528" fill="#ff2503" stroke="none" /><path d="M 79.81627453868168 94.20196356495316 l -7.462949517778915 -2.14382886350314 a28.764767717124943,28.764767717124943 0 0,0 0.14080230915580913,-0.47471538989606393 l 7.4249413115113985 2.271973640145743" fill="#ff2803" stroke="none" /><path d="M 80.2630227832202 92.82701384747504 l -7.064132520088339 -2.5673092789059884 a28.516185548197065,28.516185548197065 0 0,0 0.17163404793944326,-0.45989391739774343 l 7.0188938836472685 2.6885263333330736" fill="#ff2503" stroke="none" /><path d="M 80.65960295795068 91.81776055985345 l -14.119119878322007 -5.9733013379916695 a36.330684101268304,36.330684101268304 0 0,0 0.24862175348205107,-0.5738532854354635 l 14.014207414997275 6.215453768013733" fill="#ff980e" stroke="none" /><path d="M 80.95270993114464 91.15688171328213 l -6.807193729714281 -3.1603876002758384 a28.505060709803665,28.505060709803665 0 0,0 0.21045124271897545,-0.44326398892445057 l 6.751784293153554 3.277094004840821" fill="#ff2403" stroke="none" /><path d="M 81.26839172434947 90.50648371742162 l -6.69745954387868 -3.3943930652433036 a28.50851973582433,28.50851973582433 0 0,0 0.22561176450774864,-0.4358101182466278 l 6.638038346210818 3.5091759057502667" fill="#ff2403" stroke="none" /><line stroke="#e1ed5e" stroke-width="0.3" x1="26.266209847984243" x2="21.928928074336255" y1="57.711370442889674" y2="55.22380399835377" /><path d="M 25.398753493254645 57.213857153982495 a86.0,86.0 0 0,1 29.58750427330803,-30.492523968695096" fill="none" id="id35" stroke="none" /><text fill="#e1ed5e" style="font-size:6.75px; font-family:Arial;" text-anchor="middle"><textPath startOffset="21.46611528233685" xlink:href="#id35">November</textPath></text><path d="M 82.95767976084542 87.72973835380427 l -6.087712692883939 -4.383078508109191 a28.501441397448154,28.501441397448154 0 0,0 0.2900868392326832,-0.39567812270723635 l 6.011363241137622 4.487219074487928" fill="#ff2403" stroke="none" /><path d="M 87.51073957382395 83.11751280151077 l -4.4819174045136565 -6.058478294503406 a28.5360959963267,28.5360959963267 0 0,0 0.39740547271923055,-0.2887319767925961 l 4.376966615440645 6.134729506112669" fill="#ff2503" stroke="none" /><line stroke="#e1ed5e" stroke-width="0.3" x1="56.762969772571076" x2="54.21961505331055" y1="26.818313649435495" y2="22.513508569990535" /><path d="M 56.25429882871897 25.957352633546506 a86.0,86.0 0 0,1 42.265352541879196,-11.944610805530505" fill="none" id="id36" stroke="none" /><text fill="#e1ed5e" style="font-size:6.75px; font-family:Arial;" text-anchor="middle"><textPath startOffset="22.20632615414155" xlink:href="#id36">December</textPath></text><path d="M 89.63071344664047 81.73862282372117 l -3.6960911433395203 -6.509195603680065 a28.485366867885684,28.485366867885684 0 0,0 0.42846862892906484,-0.23844232810588453 l 3.58349842533841 6.571853329346134" fill="#ff2403" stroke="none" /><path d="M 90.58718382345135 81.22770947309562 l -3.3673481718666243 -6.71561379738945 a28.512556315014287,28.512556315014287 0 0,0 0.44062589405740304,-0.21621321259671913 l 3.2512510107987955 6.772582170120998" fill="#ff2503" stroke="none" /><path d="M 92.23578459929587 80.48803036053334 l -2.679918716828405 -6.7348070526549355 a28.2484198529954,28.2484198529954 0 0,0 0.45334252631508654,-0.17588985711153068 l 2.5635930255136423 6.779939613657018" fill="#ff2003" stroke="none" /><path d="M 93.94186890950719 79.89281104454417 l -2.155274705837113 -7.153446353973832 a28.471077820288233,28.471077820288233 0 0,0 0.4704639293141785,-0.13734132193718893 l 2.031820558799513 7.18948600482972" fill="#ff2403" stroke="none" /><path d="M 94.28887869178378 79.79150937346287 l -2.0430328234758264 -7.229159990617338 a28.5123057237936,28.5123057237936 0 0,0 0.47344291376120795,-0.12940983274061757 l 1.9182920204908958 7.263256364184251" fill="#ff2503" stroke="none" /><path d="M 98.19473922651362 79.07773832637324 l -0.6438267282960107 -7.46169832066412 a28.489422853910046,28.489422853910046 0 0,0 0.48894607123590994,-0.037951625463817466 l 0.5152904676977667 7.4716752083164" fill="#ff2403" stroke="none" /></svg>