<?xml version="1.0" encoding="utf-8" ?>
<svg baseProfile="full" height="200mm" version="1.1" viewBox="0,0,200,200" width="200mm" xmlns="http://www.w3.org/2000/svg" xmlns:ev="http://www.w3.org/2001/xml-events" xmlns:xlink="http://www.w3.org/1999/xlink"><defs /><rect fill="#1a1a1a" height="200" width="200" x="0" y="0" /><text alignment-baseline="middle" fill="#e1ed5e" style="dominant-baseline: central; font-size:9.0px; font-family:Arial;" text-anchor="middle" x="100.0" y="100.0">2020</text><line stroke="#e1ed5e" stroke-width="0.3" x1="100.0" x2="100.0" y1="15.0" y2="10.0" /><path d="M 100.0 14.0 a86.0,86.0 0 0,1 42.35913384403234,11.155469271406648" fill="none" id="id85" stroke="none" /><text fill="#e1ed5e" style="font-size:6.75px; font-family:Arial;" text-anchor="middle"><textPath startOffset="22.145653131862478" xlink:href="#id85">January</textPath></text><path d="M 100.0 79.0 l 0.0 -14.892526956934041 a35.89252695693404,35.89252695693404 0 0,0 0.6161429534724532,0.005288846219487765 l -0.2556500286235984 14.890332508908989" fill="#ff8a0c" stroke="none" /><path d="M 101.44090949804482 79.04949213459386 l 0.5019225588791368 -7.297843849242971 a28.315083806973455,28.315083806973455 0 0,0 0.4846342397982846,0.03751375520153328 l -0.627125793452655 7.288152327046385" fill="#ff1802" stroke="none" /><path d="M 101.80034050326958 79.07731436759882 l 1.2597100475529424 -14.639740240838632 a35.69383761047929,35.69383761047929 0 0,0 0.6100254239459745,0.057770041888725705 l -1.51083503488393 14.615958443444722" fill="#ff870c" stroke="none" /><path d="M 102.15924093988457 79.11130261209362 l 1.4902194002165432 -14.416520879033918 a35.49333736985387,35.49333736985387 0 0,0 0.605523262475688,0.06785014456106166 l -1.7374785642930277 14.388814973965886" fill="#ff840c" stroke="none" /><path d="M 104.64783097203109 79.52079915486377 l 3.2092423331466464 -14.140513864793844 a35.50011616206186,35.50011616206186 0 0,0 0.593135680941264,0.1399784056774099 l -3.4515101678277955 14.083339315470207" fill="#ff840c" stroke="none" /><path d="M 105.3480935250658 79.69241777938227 l 4.4294389667084095 -16.81930123062541 a38.392780785323325,38.392780785323325 0 0,0 0.6358915822367907,0.1733150784229014 l -4.717511949879893 16.740785658058364" fill="#ffae10" stroke="none" /><path d="M 106.72888874123014 80.10723608172694 l 4.652169145910639 -13.753311443600406 a35.51882410620202,35.51882410620202 0 0,0 0.5759025996147642,0.200328819069481 l -4.8875775175704215 13.671424191962334" fill="#ff850c" stroke="none" /><path d="M 107.74402155503746 80.48000691201159 l 8.060016848385354 -20.3165076506287 a42.856906339057005,42.856906339057005 0 0,0 0.6815177466241549,0.2771673344967425 l -8.40758905619995 20.175153059552663" fill="#ffeb16" stroke="none" /><path d="M 109.71004243097381 81.37971332152246 l 14.134061322481537 -27.10392623169964 a51.56786722427792,51.56786722427792 0 0,0 0.7814034331809019,0.4160533154454218 l -14.597253571448999 26.85730244853164" fill="#a4ff21" stroke="none" /><line stroke="#e1ed5e" stroke-width="0.3" x1="143.13028292997686" x2="145.6673583964461" y1="26.7553504044142" y2="22.446841604673864" /><path d="M 143.63769802327073 25.89364864446614 a86.0,86.0 0 0,1 29.32050498858742,28.57503671076993" fill="none" id="id86" stroke="none" /><text fill="#e1ed5e" style="font-size:6.75px; font-family:Arial;" text-anchor="middle"><textPath startOffset="20.669276256404974" xlink:href="#id86">February</textPath></text><path d="M 110.65571695917076 81.90426304109057 l 7.294081569720954 -12.386945143930644 a35.37497951109809,35.37497951109809 0 0,0 0.5206308287777299,0.31262385374230733 l -7.5056451550561185 12.259907289652416" fill="#ff820c" stroke="none" /><path d="M 111.5731344415666 82.4767994020092 l 6.325467367818691 -9.577563807106998 a32.47785981359526,32.47785981359526 0 0,0 0.4625832583291231,0.3112466606387261 l -6.488946914244814 9.467567472411153" fill="#ff5808" stroke="none" /><path d="M 114.39649973595853 84.71141617570332 l 9.812813647528003 -10.420868041119418 a35.313832554963604,35.313832554963604 0 0,0 0.43776963064772806,0.4193734034108488 l -9.990255764041043 10.250882507402988" fill="#ff820b" stroke="none" /><path d="M 114.91283532996326 85.21462403516908 l 15.281010550439834 -15.150404407460025 a42.51845805703182,42.51845805703182 0 0,0 0.5094383448507055,0.522728620885481 l -15.538835696441353 14.885853094506803" fill="#ffe615" stroke="none" /><path d="M 115.16444852881244 85.47280134310134 l 12.426507507731229 -11.904313093434418 a38.20845022267301,38.20845022267301 0 0,0 0.44966645592914917,0.47753019348696185 l -12.629029797396637 11.689241440002961" fill="#ffab0f" stroke="none" /><path d="M 115.41159269507618 85.73525988315684 l 10.514362176358352 -9.7319366601244 a35.32698164765728,35.32698164765728 0 0,0 0.40811461762087875,0.44858945592352023 l -10.679874494821108 9.550009628643208" fill="#ff820b" stroke="none" /><path d="M 116.1254893667686 86.54754324733833 l 11.023589972822494 -9.196270822892016 a35.35586754386121,35.35586754386121 0 0,0 0.3847950469393929,0.4693873904666063 l -11.179831839000515 9.005681150726915" fill="#ff820c" stroke="none" /><path d="M 116.35404254752997 86.82634096563983 l 23.642166173168285 -19.04445552797239 a51.35857881582438,51.35857881582438 0 0,0 0.5471732455067232,0.6913355209580787 l -23.965605849316567 18.635800063099634" fill="#a7ff21" stroke="none" /><path d="M 117.62189284568427 88.57770195909679 l 4.856655036461245 -3.1480251181926833 a26.787673132439014,26.787673132439014 0 0,0 0.24680670636359184,0.3880211359078806 l -4.909979434450726 3.0641903076061308" fill="#ff0000" stroke="none" /><line stroke="#e1ed5e" stroke-width="0.3" x1="172.87174338648825" x2="177.1583165268699" y1="56.24261187166439" y2="53.66864786411523" /><path d="M 173.72905801456457 55.72781907015455 a86.0,86.0 0 0,1 12.242430191666344,42.057860355516425" fill="none" id="id87" stroke="none" /><text fill="#e1ed5e" style="font-size:6.75px; font-family:Arial;" text-anchor="middle"><textPath startOffset="22.145653131862474" xlink:href="#id87">March</textPath></text><path d="M 118.00360718960297 89.18935116829356 l 25.91772025001301 -15.562846333545028 a51.231281960238974,51.231281960238974 0 0,0 0.4462642063943941,0.7578541851319825 l -26.18105816653717 15.11564098011949" fill="#a8ff21" stroke="none" /><path d="M 118.53625476483649 90.13048839642627 l 18.95406680020317 -10.091972979049999 a42.47334549799913,42.47334549799913 0 0,0 0.3371411418169437,0.6465125931598128 l -19.12451601099506 9.765114142785688" fill="#ffe615" stroke="none" /><path d="M 119.0197475246899 91.09779779509293 l 19.473822977447448 -9.11473244441131 a42.50135179215866,42.50135179215866 0 0,0 0.30361252540401906,0.6634481613447278 l -19.627419967706516 8.779095300851898" fill="#ffe615" stroke="none" /><path d="M 119.31412917781788 91.75594674310238 l 15.76010425640227 -6.727051353330456 a38.135755194417726,38.135755194417726 0 0,0 0.25183064974044295,0.6043018836480067 l -15.873260750679195 6.455516960241172" fill="#ffaa0f" stroke="none" /><path d="M 119.4528033332814 92.08871423366111 l 13.909139796880769 -5.656726067281874 a36.01541606780973,36.01541606780973 0 0,0 0.2279970063667123,0.5747013947120598 l -14.004195478213607 5.4171236553562485" fill="#ff8c0c" stroke="none" /><path d="M 119.71291397450082 92.76114493625339 l 16.204150515324255 -5.950388520098915 a38.26214405754419,38.26214405754419 0 0,0 0.22111844269417671,0.6185076381644706 l -16.303909128062372 5.671345925553528" fill="#ffac0f" stroke="none" /><path d="M 119.94978838288452 93.4421083053983 l 16.319474513341135 -5.364535418486963 a38.178576444158345,38.178576444158345 0 0,0 0.19931995617500067,0.62436692383355 l -16.409159185293394 5.083599460962026" fill="#ffab0f" stroke="none" /><path d="M 120.05942366710727 93.78553927170692 l 31.435781822158578 -9.738885565158705 a53.909789893307014,53.909789893307014 0 0,0 0.26627246645547914,0.8863344404039893 l -31.598330608617687 9.197813521163992" fill="#89ff25" stroke="none" /><path d="M 120.26092885502905 94.47779374421319 l 13.813963843188763 -3.7650572734297487 a35.317864831500984,35.317864831500984 0 0,0 0.15440721462135537,0.5863093440089309 l -13.876560538614848 3.5273674250480194" fill="#ff820b" stroke="none" /><path d="M 120.43855184770803 95.1765574152323 l 13.903714627422536 -3.281238794219562 a35.28565043900679,35.28565043900679 0 0,0 0.13406722132884294,0.5907249142373386 l -13.957992710309044 3.0420795460431975" fill="#ff810b" stroke="none" /><path d="M 120.51834098615036 95.52812308129327 l 14.012964554475559 -3.0540604036219317 a35.34191272299339,35.34191272299339 0 0,0 0.12410445466852231,0.5938847419072106 l -14.063326719968448 2.8130592104293166" fill="#ff820c" stroke="none" /><path d="M 120.65975698304385 96.23510406497455 l 21.431148446787606 -3.905469156121218 a42.78409541563893,42.78409541563893 0 0,0 0.12546982498103734,0.7236766081821466 l -21.49503308926088 3.5369995150184783" fill="#ffea16" stroke="none" /><path d="M 120.7213421655516 96.59031103205396 l 16.9619284172211 -2.7910788662829695 a38.19003015904114,38.19003015904114 0 0,0 0.10089170897229778,0.6477971464307207 l -17.00734161833166 2.4994935379208076" fill="#ffab0f" stroke="none" /><path d="M 120.86939407059847 97.66154086499901 l 17.196112830348216 -1.9268603102994761 a38.30373043969057,38.30373043969057 0 0,0 0.06761084030602431,0.6540735483507933 l -17.22665606313591 1.6313822396657511" fill="#ffac0f" stroke="none" /><path d="M 120.93736805541906 98.37931529534042 l 17.11725686397608 -1.3249839383701822 a38.1684613458596,38.1684613458596 0 0,0 0.04495888295813605,0.6536922910928342 l -17.13747970809928 1.0309482231230138" fill="#ffaa0f" stroke="none" /><line stroke="#e1ed5e" stroke-width="0.3" x1="184.99686870605535" x2="189.99668451229388" y1="99.2704041080226" y2="99.22748670261217" /><path d="M 185.99683186730306 99.26182062694052 a86.0,86.0 0 0,1 -10.086455211305974,41.156179273409016" fill="none" id="id88" stroke="none" /><text fill="#e1ed5e" style="font-size:6.75px; font-family:Arial;" text-anchor="middle"><textPath startOffset="21.40746469413373" xlink:href="#id88">April</textPath></text><path d="M 120.99922638620191 99.81974689727618 l 17.172018976222713 -0.14740113009736652 a38.172651595280996,38.172651595280996 0 0,0 0.0,0.6553084656423847 l -17.172018976222713 -0.1474011300973644" fill="#ffaa0f" stroke="none" /><path d="M 120.99303781780057 100.54070618675476 l 17.155262971478656 0.4418587202380937 a38.160952384679504,38.160952384679504 0 0,0 -0.022488272869470118,0.6547215277365375 l -17.14515001161234 -0.7362865125387418" fill="#ffaa0f" stroke="none" /><path d="M 120.96210409425399 101.26102812881392 l 17.130859661774604 1.030549977575148 a38.16182933162128,38.16182933162128 0 0,0 -0.044951071064719246,0.6535787078770118 l -17.11064462954482 -1.3244721096065033" fill="#ffaa0f" stroke="none" /><path d="M 120.9064616781168 101.97986365728391 l 17.105995731320256 1.619955580792733 a38.18253025731916,38.18253025731916 0 0,0 -0.06739690693501031,0.6520039370509424 l -17.07566643190358 -1.9133640401266068" fill="#ffab0f" stroke="none" /><path d="M 120.82617615685814 102.69636545807757 l 17.02357428757646 2.204042515357437 a38.165660049474866,38.165660049474866 0 0,0 -0.0896992667967301,0.6490192109013522 l -16.98323050422452 -2.4959500344588745" fill="#ffaa0f" stroke="none" /><path d="M 120.7213421655516 103.40968896794604 l 16.938893228730613 2.7872884347827718 a38.1666851964207,38.1666851964207 0 0,0 -0.11192867969228606,0.6455748805759661 l -16.888549731546092 -3.077656348279326" fill="#ffaa0f" stroke="none" /><path d="M 120.35273937422433 105.17358676015961 l 9.194467604062398 2.337197710266781 a30.486871331425824,30.486871331425824 0 0,0 -0.1332864516941709,0.5061103669910912 l -9.152991671563496 -2.4946885816306756" fill="#ff3a05" stroke="none" /><path d="M 120.16314734710363 105.8691983318838 l 13.740231851892647 3.999581239801294 a35.310507378759695,35.310507378759695 0 0,0 -0.17440646513637828,0.5805423998103816 l -13.669549066752639 -4.234861243202399" fill="#ff810b" stroke="none" /><path d="M 119.71291397450082 107.23885506374661 l 16.11536417514411 5.917784946165808 a38.16756072267067,38.16756072267067 0 0,0 -0.23113059988442114,0.613101376160589 l -16.011402891445247 -6.193554602520556" fill="#ffaa0f" stroke="none" /><path d="M 119.58574465831526 107.57618678355244 l 10.68146049638088 4.131818383906134 a32.45275169962791,32.45275169962791 0 0,0 -0.2054434196163758,0.517851623007909 l -10.608958401798379 -4.314571024127607" fill="#ff5708" stroke="none" /><path d="M 119.0197475246899 108.90220220490707 l 12.99071544324791 6.080310767116106 a35.34325161015269,35.34325161015269 0 0,0 -0.26191157341340465,0.547294455237574 l -12.884424611874593 -6.302417724418784" fill="#ff820c" stroke="none" /><line stroke="#e1ed5e" stroke-width="0.3" x1="174.33088141563837" x2="178.70328620479359" y1="141.23008692659167" y2="143.65538615756765" /><path d="M 175.20536237346943 141.71514677278685 a86.0,86.0 0 0,1 -30.301960400862466,31.631185727798858" fill="none" id="id89" stroke="none" /><text fill="#e1ed5e" style="font-size:6.75px; font-family:Arial;" text-anchor="middle"><textPath startOffset="22.145653131862474" xlink:href="#id89">May</textPath></text><path d="M 117.81537515405839 111.11811171558189 l 12.15464679152803 7.585398551703423 a35.32737623624741,35.32737623624741 0 0,0 -0.325486776332849,0.5117192743118147 l -12.02264232356929 -7.79293150069391" fill="#ff820b" stroke="none" /><path d="M 117.01052211995028 112.31430620078461 l 11.5832270349589 8.385363100313066 a35.29984135812334,35.29984135812334 0 0,0 -0.3595507035958972,0.48779958313985416 l -11.437574311779175 -8.5829689927218" fill="#ff810b" stroke="none" /><path d="M 116.57777611688842 112.89097897827486 l 23.972632760478792 18.641264231721273 a51.36748019881847,51.36748019881847 0 0,0 -0.5472680806585981,0.6914553420744486 l -23.649098249178632 -19.050039517710406" fill="#a7ff21" stroke="none" /><path d="M 116.1254893667686 113.45245675266167 l 10.96928008827151 9.150963585601605 a35.285140538334105,35.285140538334105 0 0,0 -0.3920102435718498,0.4617870812319021 l -10.810575281192545 -9.337917449283063" fill="#ff810b" stroke="none" /><path d="M 115.6541949942343 113.99807769240083 l 10.649933001008002 9.523235760247116 a35.28681532991901,35.28681532991901 0 0,0 -0.40765059661935005,0.4480794155583294 l -10.484884703546772 -9.704652751363117" fill="#ff810b" stroke="none" /><path d="M 114.91283532996324 114.78537596483092 l 11.526668044688522 11.42815010637835 a37.23165706471028,37.23165706471028 0 0,0 -0.45388595407219556,0.45000661025403504 l -11.328790170486362 -11.624336726861047" fill="#ff9d0e" stroke="none" /><path d="M 114.39649973595853 115.28858382429668 l 10.824672196435545 11.4954267551841 a36.78981837907223,36.78981837907223 0 0,0 -0.46349955532708337,0.42900826876417203 l -10.625742869794495 -11.679552770080653" fill="#ff970d" stroke="none" /><path d="M 113.59037401385872 116.0094264158162 l 10.650947881035343 12.546789822432128 a37.457965415348816,37.457965415348816 0 0,0 -0.49377743890688786,0.4119267013393024 l -10.43399610796656 -12.727778707683301" fill="#ffa00e" stroke="none" /><path d="M 113.31354834802062 116.24036423190432 l 6.354561550573446 7.7515318544444005 a31.02330776692468,31.02330776692468 0 0,0 -0.4147509407902864,0.33409399922201766 l -6.2205598394279065 -7.859474147459822" fill="#ff4206" stroke="none" /><path d="M 113.03279911837588 116.46651593811092 l 10.666323749857192 13.476551616638599 a38.18685270236212,38.18685270236212 0 0,0 -0.5175046916557869,0.4024147783306861 l -10.433409113566173 -13.657667446590077" fill="#ffab0f" stroke="none" /><path d="M 112.45986205192187 116.90419585922612 l 8.503050431530125 11.536020968489906 a35.33114253737585,35.33114253737585 0 0,0 -0.4913030736237057,0.3556655370909104 l -8.303766347532452 -11.680287276953893" fill="#ff820b" stroke="none" /><path d="M 112.16784306229584 117.11559508785304 l 10.540332506700773 14.826297672677793 a39.191143780165774,39.191143780165774 0 0,0 -0.5516711659015252,0.38510931874114546 l -10.284266249625489 -15.00505180722406" fill="#ffb911" stroke="none" /><path d="M 111.27062007382361 117.71928675628689 l 9.20540175704042 14.47242053865893 a38.151978829170694,38.151978829170694 0 0,0 -0.5556306516007511,0.3467546208641813 l -8.955606976649953 -14.62831095636466" fill="#ffaa0f" stroke="none" /><path d="M 110.96478420261333 117.91015095944535 l 8.434137995562088 13.77653056567299 a37.153249770715064,37.153249770715064 0 0,0 -0.5468024995984742,0.3283391900969824 l -8.196402739406178 -13.919283756305896" fill="#ff9c0e" stroke="none" /><line stroke="#e1ed5e" stroke-width="0.3" x1="143.1302829299769" x2="145.66735839644613" y1="173.24464959558577" y2="177.55315839532614" /><path d="M 143.63769802327073 174.10635135553383 a86.0,86.0 0 0,1 -40.68552437913181,11.842963189579606" fill="none" id="id90" stroke="none" /><text fill="#e1ed5e" style="font-size:6.75px; font-family:Arial;" text-anchor="middle"><textPath startOffset="21.407464694133747" xlink:href="#id90">June</textPath></text><path d="M 110.02825361518725 118.45085714620011 l 6.844323024742243 12.592783473357471 a35.33258362172996,35.33258362172996 0 0,0 -0.535391584551967,0.28506586272299733 l -6.627142624403723 -12.708419803803038" fill="#ff820c" stroke="none" /><path d="M 109.71004243097381 118.62028667847754 l 6.654986385937321 12.761813887881285 a35.392801586415715,35.392801586415715 0 0,0 -0.5411269112709726,0.27630325657685156 l -6.434932252952766 -12.874175096130973" fill="#ff830c" stroke="none" /><path d="M 109.3889696526874 118.78422872680471 l 6.466621540327118 12.937574898691725 a35.46367997451136,35.46367997451136 0 0,0 -0.5468832991997856,0.2675080263102161 l -6.243577991865263 -13.046676675099164" fill="#ff840c" stroke="none" /><path d="M 108.73861861582097 119.09545874513695 l 4.796738235343891 10.481738717650298 a32.52716549041868,32.52716549041868 0 0,0 -0.5097263907616079,0.22799413112972336 l -4.616098441726656 -10.562536599689873" fill="#ff5808" stroke="none" /><path d="M 107.407793817531 119.65005319985036 l 5.037720124618795 13.363151147706997 a35.28119156969936,35.28119156969936 0 0,0 -0.568549427131201,0.20877922487272277 l -4.807581545833466 -13.447661221588442" fill="#ff810b" stroke="none" /><path d="M 106.0420521117495 120.11202640906438 l 4.522152124085974 15.052773670813119 a36.717374304192795,36.717374304192795 0 0,0 -0.6052072136682478,0.1761669995143862 l -4.263084898036119 -15.128184364630023" fill="#ff960d" stroke="none" /><path d="M 105.3480935250658 120.30758222061773 l 3.6399895639703903 13.821633261660219 a35.29290278584604,35.29290278584604 0 0,0 -0.5871977819088207,0.1492633799421557 l -3.4021864888361724 -13.882081873437645" fill="#ff810b" stroke="none" /><path d="M 104.64783097203109 120.47920084513623 l 3.7855832841788066 16.6799784370837 a38.10416094004705,38.10416094004705 0 0,0 -0.6391294079179852,0.1392952797335962 l -3.4986914596416856 -16.742505174951017" fill="#ffa90f" stroke="none" /><path d="M 103.94208987418118 120.62667999033965 l 4.37077493497415 22.86974137347279 a44.28365830409241,44.28365830409241 0 0,0 -0.7478988319883274,0.1362920810091917 l -3.977541369434765 -22.94140162841335" fill="#fffe18" stroke="none" /><path d="M 102.875027216393 120.80226474461374 l 2.351665368622169 17.015479126556933 a38.177219213605895,38.177219213605895 0 0,0 -0.6499620270191295,0.08415059709073522 l -2.059225519712264 -17.053341319848062" fill="#ffab0f" stroke="none" /><path d="M 102.51750503828377 120.84855314841334 l 1.7189104328233427 14.235044208892749 a35.338449592100254,35.338449592100254 0 0,0 -0.602880846759019,0.06755405636845765 l -1.4742936844635244 -14.262454025768179" fill="#ff820c" stroke="none" /><path d="M 101.44090949804482 120.95050786540614 l 1.1888025385652445 17.28492800444521 a38.325760808534596,38.325760808534596 0 0,0 -0.6567495945605426,0.03950842475565319 l -0.8919085918722368 -17.302788407025552" fill="#ffad10" stroke="none" /><path d="M 101.08105385017728 120.97215588758144 l 1.179349450632461 22.879064276531164 a43.90944013493895,43.90944013493895 0 0,0 -0.753097581097383,0.03234125051177341 l -0.7864261089342487 -22.895938095468768" fill="#fff917" stroke="none" /><path d="M 100.72087961077811 120.9876233191556 l 0.7358117792256899 21.42235711108197 a42.43499016023034,42.43499016023034 0 0,0 -0.7282383557755242,0.018756836805491093 l -0.3679601093794218 -21.431831665237507" fill="#ffe515" stroke="none" /><line stroke="#e1ed5e" stroke-width="0.3" x1="101.45913802915013" x2="101.54496967792366" y1="184.9874750549273" y2="189.98673829345242" /><path d="M 101.47630435890484 185.9873277026323 a86.0,86.0 0 0,1 -42.54439059252881,-10.42667462771756" fill="none" id="id91" stroke="none" /><text fill="#e1ed5e" style="font-size:6.75px; font-family:Arial;" text-anchor="middle"><textPath startOffset="22.145653131862474" xlink:href="#id91">July</textPath></text><path d="M 100.0 121.0 l 1.7496732672792524e-15 14.287166458912424 a35.287166458912424,35.287166458912424 0 0,0 -0.6057511355429358,-0.005199644960818226 l 0.24525821069408196 -14.28506121214604" fill="#ff810b" stroke="none" /><path d="M 99.27912038922189 120.98762331915562 l -0.24520530516473385 7.138884917415308 a28.143094812879127,28.143094812879127 0 0,0 -0.4826865604079629,-0.020728637776363152 l 0.3677176261735355 -7.133623711213116" fill="#ff1502" stroke="none" /><path d="M 98.91894614982273 120.97215588758144 l -1.399869291655888 27.157090280036872 a48.19314594731169,48.19314594731169 0 0,0 -0.8258369408402579,-0.049680299626917654 l 1.8658505846285922 -27.12905800258526" fill="#ceff1d" stroke="none" /><path d="M 98.55909050195518 120.95050786540614 l -0.7914796345406929 11.507940180319197 a32.53512579930092,32.53512579930092 0 0,0 -0.5568634748169943,-0.043104754801590074 l 0.9889121041329233 -11.492657658522555" fill="#ff5908" stroke="none" /><path d="M 97.84075906011543 120.88869738790638 l -1.1789126236515926 11.404910210510064 a32.465679739291595,32.465679739291595 0 0,0 -0.5538708324149763,-0.062062382036100275 l 1.3745193576673682 -11.382992067966992" fill="#ff5708" stroke="none" /><path d="M 96.05791012581884 120.62667999033965 l -3.2207820485222167 16.85249265081702 a38.157504059446545,38.157504059446545 0 0,0 -0.6423243708752898,-0.1284828635182275 l 3.5096029049284647 -16.79472039063593" fill="#ffaa0f" stroke="none" /><path d="M 95.35216902796893 120.47920084513623 l -3.1676031417167816 13.957043904407456 a35.31198044342471,35.31198044342471 0 0,0 -0.5899923107316012,-0.139236578866884 l 3.4067276061882708 -13.900611181894345" fill="#ff810b" stroke="none" /><path d="M 93.95794788825049 120.11202640906438 l -8.728536774735256 29.054460120360353 a51.33725444257466,51.33725444257466 0 0,0 -0.8418316404739488,-0.26080159412248244 l 9.226009048080837 -28.90034193843122" fill="#a7ff21" stroke="none" /><path d="M 93.27111125876986 119.89276391827306 l -5.560904229492231 16.439825246566933 a38.35486992135764,38.35486992135764 0 0,0 -0.6218862772469659,-0.21632432914825822 l 5.842296278784219 -16.341942484850087" fill="#ffad10" stroke="none" /><path d="M 92.59220618246901 119.65005319985036 l -5.158143463192501 13.68258836042706 a35.62257392622002,35.62257392622002 0 0,0 -0.5703474969223805,-0.22062266426929025 l 5.39226322260841 -13.592025808019729" fill="#ff860c" stroke="none" /><path d="M 91.92203290615298 119.3841803445677 l -6.698852384038877 16.07480709010994 a38.41476517922054,38.41476517922054 0 0,0 -0.6065232728092284,-0.2588887190590914 l 6.973810732018537 -15.957443721391444" fill="#ffae10" stroke="none" /><path d="M 91.59046798132341 119.24265499422711 l -5.767580964824617 13.197353956309344 a35.40260884818862,35.40260884818862 0 0,0 -0.5547868607563513,-0.24814910621233074 l 5.9932812284366035 -13.096401099187158" fill="#ff830c" stroke="none" /><path d="M 90.93487009805054 118.94263497670748 l -5.015927046210085 10.48135836263297 a32.61974170361966,32.61974170361966 0 0,0 -0.50302709630647,-0.24605575981274633 l 5.195114391778625 -10.393708852723002" fill="#ff5a08" stroke="none" /><path d="M 90.28995756902619 118.62028667847754 l -8.024631900330156 15.388289756259926 a38.35494680943766,38.35494680943766 0 0,0 -0.5811891926035518,-0.30945050944993374 l 8.28760990872027 -15.248268779087418" fill="#ffad10" stroke="none" /><path d="M 89.97174638481275 118.45085714620012 l -5.51789044994926 10.15229693495288 a32.554923109787225,32.554923109787225 0 0,0 -0.48872041497579183,-0.27108497583364355 l 5.691355053081154 -10.056079043686088" fill="#ff5908" stroke="none" /><line stroke="#e1ed5e" stroke-width="0.3" x1="58.13341422392154" x2="55.67067388415222" y1="173.97424548756322" y2="178.32567169271397" /><path d="M 57.64086615596768 174.84453072859336 a86.0,86.0 0 0,1 -31.369924170532247,-30.572349798747897" fill="none" id="id92" stroke="none" /><text fill="#e1ed5e" style="font-size:6.75px; font-family:Arial;" text-anchor="middle"><textPath startOffset="22.145653131862474" xlink:href="#id92">August</textPath></text><path d="M 89.34428304082925 118.09573695890944 l -8.259135302990902 14.02581736392115 a37.27688141749465,37.27688141749465 0 0,0 -0.5486220468495588,-0.32943177594141826 l 8.498690106397888 -13.881971587443811" fill="#ff9e0e" stroke="none" /><path d="M 89.03521579738668 117.91015095944536 l -9.09049174045449 14.848635081055843 a38.41031314634041,38.41031314634041 0 0,0 -0.5593929325986179,-0.349102562463947 l 9.344048801842822 -14.690396721750346" fill="#ffae10" stroke="none" /><path d="M 88.4268655584334 117.5232005979908 l -9.506534750607385 14.394105267484804 a38.250057084425535,38.250057084425535 0 0,0 -0.544796859735862,-0.3665636407416362 l 9.752227898440252 -14.228791952686047" fill="#ffac0f" stroke="none" /><path d="M 88.1277618465304 117.32195027204791 l -9.759299537264189 14.239109685068659 a38.26256562859244,38.26256562859244 0 0,0 -0.5386001059094231,-0.37598470371697773 l 10.002294734347378 -14.069480165546553" fill="#ffac0f" stroke="none" /><path d="M 87.83215693770417 117.11559508785305 l -28.57917826760788 40.2001933019387 a70.3236755723349,70.3236755723349 0 0,0 -0.9778975565439572,-0.7079224176286859 l 29.26505683452579 -39.70367011293694" fill="#3bff98" stroke="none" /><path d="M 87.54013794807813 116.9041958592261 l -8.52412548163848 11.564613321542453 a35.3666626780027,35.3666626780027 0 0,0 -0.4856129274001538,-0.3644129939376992 l 8.7213913979494 -11.416581300340738" fill="#ff820c" stroke="none" /><path d="M 87.2517909369889 116.68781488649013 l -9.599753090932612 12.5663849522449 a36.81357929675876,36.81357929675876 0 0,0 -0.4988942176304756,-0.38794316116415495 l 9.814057253198316 -12.399740739459952" fill="#ff970d" stroke="none" /><path d="M 86.68645165197938 116.24036423190432 l -7.283208276013654 8.884329863636033 a32.488099926345036,32.488099926345036 0 0,0 -0.4282638044726395,-0.3572728974210978 l 7.434646414648186 -8.757994782303065" fill="#ff5808" stroke="none" /><path d="M 86.13680546590413 115.77377054828092 l -7.59191056287872 8.638200592756041 a32.500244148514426,32.500244148514426 0 0,0 -0.41590248759452003,-0.37190256898902213 l 7.73907807729661 -8.506602493883637" fill="#ff5808" stroke="none" /><path d="M 85.60350026404147 115.28858382429668 l -18.340854828324836 19.477352244985212 a47.753583055525795,47.753583055525795 0 0,0 -0.5919795984699654,-0.5671030642139528 l 18.672506912660115 -19.159637050465676" fill="#d3ff1c" stroke="none" /><path d="M 85.34317274990678 115.03919595460226 l -5.005975772852147 5.136572145341767 a28.17245891188535,28.17245891188535 0 0,0 -0.34344652910710927,-0.34051110632610726 l 5.093414222089219 -5.049881028787" fill="#ff1602" stroke="none" /><path d="M 84.58840730492382 114.26474011684316 l -13.725369107519478 12.70399673805712 a39.7023338184895,39.7023338184895 0 0,0 -0.45866083172898764,-0.5041485996217598 l 13.941427640090346 -12.466510562877685" fill="#ffc011" stroke="none" /><path d="M 84.3458050057657 113.99807769240083 l -8.727562328765865 7.804240051202385 a32.707967670748175,32.707967670748175 0 0,0 -0.3706730679065767,-0.4217579077611206 l 8.860246460631034 -7.653269865629964" fill="#ff5b08" stroke="none" /><path d="M 84.1078160697243 113.72728997021213 l -11.156660517526166 9.636857633615467 a35.74245905383155,35.74245905383155 0 0,0 -0.3970909528992067,-0.46777214404426587 l 11.320446033932484 -9.443918707121647" fill="#ff880c" stroke="none" /><path d="M 83.4222238831116 112.89097897827486 l -13.935955845735295 10.836683556519136 a38.653457900321285,38.653457900321285 0 0,0 -0.40282061094782445,-0.5273051104460242 l 14.119928434037414 -10.595857532832241" fill="#ffb110" stroke="none" /><path d="M 83.20337586046588 112.60449989151573 l -11.736797859260262 8.807511921136035 a35.673945966579325,35.673945966579325 0 0,0 -0.3633611902727084,-0.49296924014210564 l 11.886261069116802 -8.60473637172505" fill="#ff870c" stroke="none" /><path d="M 82.78059297857968 112.02048342749411 l -11.985640045322334 8.366907603350395 a35.617137549432755,35.617137549432755 0 0,0 -0.34567324656355525,-0.5043475973063574 l 12.127503028701215 -8.159925270973986" fill="#ff860c" stroke="none" /><path d="M 82.576782715395 111.72311816256416 l -15.525555728181232 10.446286777457804 a39.712770722310225,39.712770722310225 0 0,0 -0.3757122383460725,-0.5688762152465875 l 15.70259240544803 -10.178230683872155" fill="#ffc011" stroke="none" /><path d="M 81.99639281039703 110.81064883170644 l -8.193898501466803 4.920200620304512 a30.557632907597196,30.557632907597196 0 0,0 -0.26618068642872394,-0.452032998212351 l 8.277152898025298 -4.778816453798602" fill="#ff3b05" stroke="none" /><line stroke="#e1ed5e" stroke-width="0.3" x1="26.387840678322732" x2="22.057713659400548" y1="142.50000000000003" y2="145.00000000000006" /><path d="M 25.521815274538298 143.00000000000003 a86.0,86.0 0 0,1 -11.493303480769221,-40.785679425670985" fill="none" id="id93" stroke="none" /><text fill="#e1ed5e" style="font-size:6.75px; font-family:Arial;" text-anchor="middle"><textPath startOffset="21.40746469413373" xlink:href="#id93">September</textPath></text><path d="M 81.63589988554817 110.18625677009913 l -10.40765142443288 5.772948803493596 a32.901518645124995,32.901518645124995 0 0,0 -0.26972140187981936,-0.49625700010424273 l 10.505218175928029 -5.593436969914766" fill="#ff5e08" stroke="none" /><path d="M 81.4637452351635 109.86951160357371 l -13.082375948141962 6.965628324629886 a35.82121919429739,35.82121919429739 0 0,0 -0.2843384856747164,-0.5452565377159169 l 13.200022502791628 -6.740025543809467" fill="#ff890c" stroke="none" /><path d="M 81.29705330413844 109.54985784667822 l -14.291520708953918 7.297352305108563 a37.04677272348967,37.04677272348967 0 0,0 -0.28434295441891044,-0.5688763826317631 l 14.414683576584567 -7.050944066313048" fill="#ff9a0e" stroke="none" /><path d="M 80.83023694016515 108.57439118712176 l -13.386599496069925 5.987655683920568 a35.664687744966336,35.664687744966336 0 0,0 -0.24517964375322884,-0.5610190062744196 l 13.487413021840121 -5.7569746078702995" fill="#ff870c" stroke="none" /><path d="M 80.68587082218212 108.24405325689762 l -12.115259264901779 5.171283762339261 a34.172762914682025,34.172762914682025 0 0,0 -0.22566090652611603,-0.5415040266941326 l 12.202246015964379 -4.9625472262038475" fill="#ff710a" stroke="none" /><path d="M 80.41425534168474 107.57618678355246 l -17.671707055719597 6.835795920657639 a39.94775279900098,39.94775279900098 0 0,0 -0.24191087650470983,-0.6416973406698172 l 17.786448616038744 -6.531430299793676" fill="#ffc312" stroke="none" /><path d="M 80.28708602549918 107.23885506374661 l -6.899759422707032 2.5336872316443473 a28.350255171014954,28.350255171014954 0 0,0 -0.16383724508405684,-0.4582819337257428 l 6.942236837835032 -2.414870341537683" fill="#ff1902" stroke="none" /><path d="M 80.05021161711548 106.5578916946017 l -22.408867555391456 7.366239862123434 a44.58853184963855,44.58853184963855 0 0,0 -0.23278458868619273,-0.729194408543025 l 22.532016859854906 -6.980476419889017" fill="#fcff18" stroke="none" /><path d="M 79.64726062577567 105.17358676015961 l -14.273039000807524 3.628150699720427 a35.72695215645296,35.72695215645296 0 0,0 -0.14599133974186995,-0.5956944858136713 l 14.333217867065688 -3.382600389298656" fill="#ff880c" stroke="none" /><path d="M 79.407916724674 104.11899336999214 l -30.087375383298358 6.018317722751569 a51.683388106066346,51.683388106066346 0 0,0 -0.1665526905027515,-0.8714740551783711 l 30.186254366083265 -5.500941102539883" fill="#a3ff22" stroke="none" /><path d="M 79.2786578344484 103.40968896794605 l -10.27084974380892 1.6900644168270507 a31.408970755695528,31.408970755695528 0 0,0 -0.08297727766660856,-0.5327736465022963 l 10.298348513613796 -1.5135025883933044" fill="#ff4806" stroke="none" /><path d="M 79.17382384314188 102.69636545807758 l -17.327241232029166 2.243358280940875 a38.47186152330649,38.47186152330649 0 0,0 -0.07917493298783401,-0.6556820237961322 l 17.36319825127666 -1.9455825802213438" fill="#ffaf10" stroke="none" /><path d="M 79.01933749520258 100.90099992219065 l -19.381265356759332 0.8323149268715188 a40.39912871668758,40.39912871668758 0 0,0 -0.023807231567791895,-0.6931215711281096 l 19.39269727532397 -0.49948709117928936" fill="#ffc912" stroke="none" /><path d="M 79.00696218219943 100.54070618675478 l -14.596630376373728 0.37595742068285176 a35.60147123842809,35.60147123842809 0 0,0 -0.010491530473673157,-0.6110790525681183 l 14.600933338446067 -0.12533145214568106" fill="#ff860c" stroke="none" /><line stroke="#e1ed5e" stroke-width="0.3" x1="15.003131293944662" x2="10.003315487706104" y1="100.72959589197737" y2="100.7725132973878" /><path d="M 14.003168132696942 100.73817937305945 a86.0,86.0 0 0,1 10.791469493833604,-42.45332614584628" fill="none" id="id94" stroke="none" /><text fill="#e1ed5e" style="font-size:6.75px; font-family:Arial;" text-anchor="middle"><textPath startOffset="22.145653131862435" xlink:href="#id94">October</textPath></text><path d="M 79.00077361379809 99.81974689727619 l -17.180913460391466 -0.1474774785465337 a38.18154640712352,38.18154640712352 0 0,0 0.011251862457580536,-0.6553645788342105 l 17.17585016633522 0.44238897334979654" fill="#ffab0f" stroke="none" /><path d="M 79.00696218219943 99.45929381324524 l -10.08743814076841 -0.2598166238996884 a31.09078356332569,31.09078356332569 0 0,0 0.018321818005206297,-0.5334197403646903 l 10.081491635766355 0.43294262882851725" fill="#ff4306" stroke="none" /><path d="M 79.03789590574601 98.7389718711861 l -14.97203270664948 -0.9006803087950594 a35.999099585896246,35.999099585896246 0 0,0 0.04240357739902224,-0.6165387090757573 l 14.954365168085396 1.1575624420251416" fill="#ff8b0c" stroke="none" /><path d="M 79.34024301695615 96.23510406497455 l -14.755751796163187 -2.688989517215238 a35.99876247207304,35.99876247207304 0 0,0 0.11600808236852597,-0.6070033073017163 l 14.7074174215125 2.941895389550269" fill="#ff8b0c" stroke="none" /><path d="M 79.407916724674 95.88100663000787 l -14.691783951556959 -2.9387682577182987 a35.982819312525905,35.982819312525905 0 0,0 0.1263550222428021,-0.6046545224647647 l 14.639171218489789 3.1905392314684726" fill="#ff8b0c" stroke="none" /><path d="M 79.48165901384962 95.52812308129327 l -14.27182819885271 -3.1104785300759037 a35.606853077361684,35.606853077361684 0 0,0 0.13528762522312426,-0.5961022389751683 l 14.216329712071923 3.3550151029900803" fill="#ff860c" stroke="none" /><path d="M 79.64726062577567 94.8264132398404 l -11.793829181305005 -2.997945258477467 a33.16889816419831,33.16889816419831 0 0,0 0.14501208388524905,-0.5506345023101565 l 11.740627616615031 3.1999602651604078" fill="#ff6209" stroke="none" /><path d="M 80.16572619554312 93.10060997987247 l -14.029019103424229 -4.880021086156115 a35.85355118500523,35.85355118500523 0 0,0 0.2071990892920482,-0.579572729376984 l 13.943179844088238 5.120128771914021" fill="#ff890c" stroke="none" /><path d="M 80.28708602549916 92.7611449362534 l -16.382057584774326 -6.015718460270656 a38.451666949151395,38.451666949151395 0 0,0 0.2328510567675541,-0.617665092445676 l 16.276375844192337 6.296051832910477" fill="#ffae10" stroke="none" /><path d="M 80.5471966667186 92.08871423366112 l -29.935961805190615 -12.17469505415077 a53.316946156210285,53.316946156210285 0 0,0 0.3520801181003099,-0.8448641131741595 l 29.722555842553827 12.686791676766195" fill="#90ff24" stroke="none" /><path d="M 80.9802524753101 91.09779779509293 l -10.7938099632915 -5.05204807423584 a32.91761399224026,32.91761399224026 0 0,0 0.24393635788865925,-0.5097331681963756 l 10.705494347442935 5.236593744497302" fill="#ff5e08" stroke="none" /><path d="M 81.1358732173502 90.77261029715801 l -13.339765308738842 -6.525147676668399 a35.850147834097925,35.850147834097925 0 0,0 0.2751585685367482,-0.5505014584912375 l 13.22578682699035 6.753180991323407" fill="#ff890c" stroke="none" /><path d="M 81.29705330413844 90.45014215332179 l -10.512648535644448 -5.367833247886488 a32.80378807887972,32.80378807887972 0 0,0 0.2603869895145384,-0.49932638570562665 l 10.41895347715497 5.547505876696602" fill="#ff5d08" stroke="none" /><line stroke="#e1ed5e" stroke-width="0.3" x1="26.387840678322718" x2="22.05771365940052" y1="57.49999999999999" y2="54.99999999999999" /><path d="M 25.521815274538284 56.99999999999999 a86.0,86.0 0 0,1 29.574782752854787,-30.34633250058573" fill="none" id="id95" stroke="none" /><text fill="#e1ed5e" style="font-size:6.75px; font-family:Arial;" text-anchor="middle"><textPath startOffset="21.40746469413373" xlink:href="#id95">November</textPath></text><path d="M 81.81346652052679 89.5 l -18.759808437530808 -10.830980451354227 a42.66196090270845,42.66196090270845 0 0,0 0.3716187726914698,-0.6310899196538883 l 18.57111595470956 11.151421539301689" fill="#ffe815" stroke="none" /><path d="M 83.2033758604659 87.39550010848427 l -12.687345495724088 -9.5208205884705 a36.86236931879075,36.86236931879075 0 0,0 0.38415507787869646,-0.5028713284868771 l 12.522038440491086 9.737212830198262" fill="#ff980e" stroke="none" /><path d="M 83.42222388311158 87.10902102172516 l -11.630711471035143 -9.044111587606345 a35.7332753904739,35.7332753904739 0 0,0 0.3807015832370843,-0.4810040138805354 l 11.473743457156498 9.242435545401563" fill="#ff880c" stroke="none" /><path d="M 83.64595745247003 86.82634096563983 l -9.23857742769454 -7.441944011168412 a32.8631295850999,32.8631295850999 0 0,0 0.3576653712594127,-0.4362935973606003 l 9.109465237196497 7.599439890227505" fill="#ff5d08" stroke="none" /><path d="M 84.10781606972428 86.27271002978789 l -11.244367716034315 -9.712617022738979 a35.85835572207752,35.85835572207752 0 0,0 0.4063758060234069,-0.4623810698768335 l 11.075980846052316 9.904210370427112" fill="#ff890c" stroke="none" /><path d="M 84.34580500576568 86.00192230759919 l -8.788022689633193 -7.858304078707029 a32.789074848644034,32.789074848644034 0 0,0 0.3787954735975806,-0.4163625806838497 l 8.651829515193747 8.008004234948537" fill="#ff5c08" stroke="none" /><path d="M 85.86807049272753 84.46653392183569 l -9.844249115524054 -10.820554236581751 a35.62852127302358,35.62852127302358 0 0,0 0.4559347480299144,-0.40769966312151945 l 9.657049340670747 10.987949429586672" fill="#ff860c" stroke="none" /><path d="M 86.13680546590413 84.22622945171909 l -9.810175750027888 -11.162179174407836 a35.860477521534065,35.860477521534065 0 0,0 0.4658797206370285,-0.4024158066936596 l 9.617116549628012 11.328939113566205" fill="#ff890c" stroke="none" /><path d="M 86.96720088162412 83.53348406188908 l -11.023868335229766 -13.928297520196757 a38.76297117274024,38.76297117274024 0 0,0 0.5253121958167886,-0.4084859407895463 l 10.783146194777732 14.11548451260711" fill="#ffb310" stroke="none" /><path d="M 87.54013794807813 83.09580414077388 l -8.653808783174494 -11.740553626475263 a35.58523245998806,35.58523245998806 0 0,0 0.49483636326539027,-0.3582233663119587 l 8.450991409535137 11.8873777641603" fill="#ff850c" stroke="none" /><path d="M 88.4268655584334 82.4767994020092 l -27.120872421643185 -41.06445753624535 a70.21210616969307,70.21210616969307 0 0,0 1.0114367098012984,-0.655601055461551 l 26.411950079584862 41.523972433410805" fill="#3aff97" stroke="none" /><line stroke="#e1ed5e" stroke-width="0.3" x1="56.869717070023135" x2="54.33264160355391" y1="26.7553504044142" y2="22.446841604673864" /><path d="M 56.362301976729285 25.89364864446614 a86.0,86.0 0 0,1 42.16139366436587,-11.88097634709845" fill="none" id="id96" stroke="none" /><text fill="#e1ed5e" style="font-size:6.75px; font-family:Arial;" text-anchor="middle"><textPath startOffset="22.145653131862474" xlink:href="#id96">December</textPath></text><path d="M 89.34428304082924 81.90426304109057 l -9.02794364543425 -15.33142200694768 a38.79202819299296,38.79202819299296 0 0,0 0.5767220661344824,-0.3329706401303388 l 8.763429111439368 15.484139544354193" fill="#ffb310" stroke="none" /><path d="M 89.65649057296885 81.72400993836675 l -4.279215691027126 -7.560964099516867 a29.68791488474166,29.68791488474166 0 0,0 0.4456803670924646,-0.24721138679827057 l 4.148791135778558 7.633308401748284" fill="#ff2d04" stroke="none" /><path d="M 90.28995756902619 81.37971332152246 l -5.344783748333127 -10.249327573581937 a32.55921403154353,32.55921403154353 0 0,0 0.4978036813299903,-0.25418210667875496 l 5.168052845289553 10.339567631933525" fill="#ff5908" stroke="none" /><path d="M 90.61103034731259 81.2157712731953 l -6.510801335179445 -13.025964083267661 a35.5624954703771,35.5624954703771 0 0,0 0.5484071270831565,-0.268253406887964 l 6.286233958834235 13.13581124025284" fill="#ff850c" stroke="none" /><path d="M 91.26138138417902 80.90454125486306 l -3.6875476049361025 -8.057957013171526 a29.86164085058688,29.86164085058688 0 0,0 0.4679555129841563,-0.20931054880398647 l 3.5486786890963273 8.120071312885358" fill="#ff3004" stroke="none" /><path d="M 93.27111125876988 80.10723608172694 l -20.186666223690388 -59.67829175481917 a84.0,84.0 0 0,0 1.3699090494089559,-0.4503163143918858 l 19.15923443663367 60.01602899061309" fill="#4dd2ff" stroke="none" /><path d="M 95.00130118170881 79.60360301121753 l -2.743618913892504 -11.194901430931516 a32.52619897420399,32.52619897420399 0 0,0 0.5434474943383921,-0.12825212893305044 l 2.5510392658142056 11.240349703510798" fill="#ff5808" stroke="none" /><path d="M 95.70440661134978 79.44403061299748 l -2.9846550108600476 -14.282654684241747 a35.59117508506922,35.59117508506922 0 0,0 0.5991240703168718,-0.11984159351156243 l 2.739034455012199 14.331785674416174" fill="#ff860c" stroke="none" /><path d="M 96.05791012581881 79.37332000966035 l -2.1694457891729684 -11.351457089484901 a32.556905861283866,32.556905861283866 0 0,0 0.5498477948593332,-0.1002005846171211 l 1.9742632607625967 11.387025848033383" fill="#ff5908" stroke="none" /><path d="M 96.76829788921471 79.25015418208739 l -1.8499208746496876 -11.877819058945208 a33.02101463436039,33.02101463436039 0 0,0 0.5608460432113135,-0.08242505455785673 l 1.6457497258306892 11.907825186801949" fill="#ff6008" stroke="none" /><path d="M 97.12497278360702 79.19773525538626 l -1.6051767134099875 -11.614259080349282 a32.724658044768276,32.724658044768276 0 0,0 0.557132905811643,-0.0721320088466779 l 1.4055659857075504 11.640102685396355" fill="#ff5b08" stroke="none" /><path d="M 98.1996594967304 79.07731436759882 l -1.0800268810855316 -12.551549479921642 a33.59793048126511,33.59793048126511 0 0,0 0.5750541869692138,-0.04451283096827367 l 0.8644036993411007 12.568240077884969" fill="#ff6809" stroke="none" /><path d="M 98.9189461498227 79.02784411241856 l -0.4515743257322055 -8.76042128015374 a29.77205223294019,29.77205223294019 0 0,0 0.5106250603977089,-0.021928437177888546 l 0.30112350473367644 8.766882285757456" fill="#ff2f04" stroke="none" /><path d="M 99.27912038922189 79.0123766808444 l -0.3014332348654724 -8.775899740599478 a29.781075005495367,29.781075005495367 0 0,0 0.5110810916495752,-0.013163635991453102 l 0.15073882914515338 8.779781093940977" fill="#ff2f04" stroke="none" /></svg>