<?xml version="1.0" encoding="utf-8" ?>
<svg baseProfile="full" height="200mm" version="1.1" viewBox="0,0,200,200" width="200mm" xmlns="http://www.w3.org/2000/svg" xmlns:ev="http://www.w3.org/2001/xml-events" xmlns:xlink="http://www.w3.org/1999/xlink"><defs /><rect fill="#1a1a1a" height="200" width="200" x="0" y="0" /><text alignment-baseline="middle" fill="#e1ed5e" style="dominant-baseline: central; font-size:9.0px; font-family:Arial;" text-anchor="middle" x="100.0" y="100.0">2018</text><line stroke="#e1ed5e" stroke-width="0.3" x1="100.0" x2="100.0" y1="15.0" y2="10.0" /><path d="M 100.0 14.0 a86.0,86.0 0 0,1 42.46469731375804,11.215312516191453" fill="none" id="id61" stroke="none" /><text fill="#e1ed5e" style="font-size:6.75px; font-family:Arial;" text-anchor="middle"><textPath startOffset="22.20632615414155" xlink:href="#id61">January</textPath></text><path d="M 100.36148047927253 79.00311137660856 l 0.243137499612531 -14.122840076477043 a35.12493283769746,35.12493283769746 0 0,0 0.6044388175291909,0.015610871388566082 l -0.4862029523365898 14.116562412946118" fill="#ff700a" stroke="none" /><path d="M 100.72285384407766 79.0124445844662 l 0.2915019612952824 -8.463555415172204 a29.46857388579268,29.46857388579268 0 0,0 0.5068021721555412,0.021823967619705727 l -0.4371449658401551 8.457283721028302" fill="#ff1802" stroke="none" /><path d="M 101.44485096284872 79.0497635885617 l 0.58202105201033 -8.439263944572778 a29.45930992641535,29.45930992641535 0 0,0 0.5055916339093076,0.03924364149048733 l -0.7272028752819788 8.427995040893826" fill="#ff1802" stroke="none" /><path d="M 101.80526077348638 79.07773832637324 l 1.210958696317501 -14.034534562770684 a35.0866809915534,35.0866809915534 0 0,0 0.601276898221925,0.05709848655504688 l -1.4523607216296701 14.011610531700459" fill="#ff6f0a" stroke="none" /><path d="M 103.2404852339499 79.25152402106235 l 2.1838840145657663 -13.983172810749554 a35.15268424166813,35.15268424166813 0 0,0 0.5970445616583441,0.09851746834883504 l -2.4242577823629854 13.943509079461096" fill="#ff700a" stroke="none" /><path d="M 105.71112130821622 79.79150937346287 l 2.307569946469057 -8.165210142920895 a29.485018310876264,29.485018310876264 0 0,0 0.487218561165616,0.14223245841687582 l -2.4477787253581 8.124279355585315" fill="#ff1802" stroke="none" /><path d="M 108.43124777332544 80.76684994638697 l 5.7718838272324975 -13.166676004042994 a35.37623037901486,35.37623037901486 0 0,0 0.5556053981065625,0.24928394662179357 l -5.99767134380584 13.065371726904669" fill="#ff730a" stroke="none" /><path d="M 109.73455568895987 81.39251694778311 l 6.556255547060718 -12.53220155864869 a35.14356965921125,35.14356965921125 0 0,0 0.5336048223103267,0.2850332161729131 l -6.771005415899356 12.417489615974024" fill="#ff700a" stroke="none" /><path d="M 110.36928655335952 81.73862282372117 l 6.967400180247914 -12.270306348931781 a35.11046006225007,35.11046006225007 0 0,0 0.5229841253389245,0.30294616168582933 l -7.177581038052168 12.148556029855902" fill="#ff6f0a" stroke="none" /><line stroke="#e1ed5e" stroke-width="0.3" x1="143.23703022742887" x2="145.7803849466894" y1="26.81831364943548" y2="22.513508569990506" /><path d="M 143.74570117128098 25.957352633546492 a86.0,86.0 0 0,1 28.547481713284135,27.462654790039103" fill="none" id="id62" stroke="none" /><text fill="#e1ed5e" style="font-size:6.75px; font-family:Arial;" text-anchor="middle"><textPath startOffset="19.985693538727396" xlink:href="#id62">February</textPath></text><path d="M 111.2981086023043 82.29822771554956 l 7.613841769811551 -11.929297014506714 a35.151986212403045,35.151986212403045 0 0,0 0.5072481395968796,0.3299283000187656 l -7.818056935192711 11.79646979032842" fill="#ff700a" stroke="none" /><path d="M 114.42810811169701 84.74124197986012 l 5.839956700706173 -6.1761726107338495 a29.500011904915304,29.500011904915304 0 0,0 0.36596416261255155,0.35205723448024856 l -5.945404106931143 6.074732289491299" fill="#ff1802" stroke="none" /><path d="M 114.94478906791727 85.2469230424477 l 10.081417708728674 -9.95209304207545 a35.16612646195122,35.16612646195122 0 0,0 0.4215509875051843,0.43444534800203466 l -10.251232959936967 9.7770834985233" fill="#ff700a" stroke="none" /><path d="M 115.9244219780498 86.31012108654704 l 10.736296296798004 -9.229760206349287 a35.15826725412921,35.15826725412921 0 0,0 0.39057383802722756,0.46231623089408697 l -10.893580748312349 9.043585025826093" fill="#ff700a" stroke="none" /><path d="M 116.38621287248628 86.86637796730983 l 6.6338655813928575 -5.317072580448325 a29.501731198864395,29.501731198864395 0 0,0 0.3141877046685601,0.398986478668116 l -6.724407366655381 5.202093707827172" fill="#ff1802" stroke="none" /><line stroke="#e1ed5e" stroke-width="0.3" x1="172.23445277983987" x2="176.4835382374775" y1="55.19839476539836" y2="52.563006222186495" /><path d="M 173.08426987136738 54.67131705675599 a86.0,86.0 0 0,1 12.851231095245387,41.99856678651699" fill="none" id="id63" stroke="none" /><text fill="#e1ed5e" style="font-size:6.75px; font-family:Arial;" text-anchor="middle"><textPath startOffset="22.20632615414155" xlink:href="#id63">March</textPath></text><line stroke="#e1ed5e" stroke-width="0.3" x1="184.98032266829074" x2="189.97916517819016" y1="98.17113171792111" y2="98.06355123074" /><path d="M 185.9800911702706 98.14961562048488 a86.0,86.0 0 0,1 -9.607161424134198,41.387399972396054" fill="none" id="id64" stroke="none" /><text fill="#e1ed5e" style="font-size:6.75px; font-family:Arial;" text-anchor="middle"><textPath startOffset="21.466115282336823" xlink:href="#id64">April</textPath></text><path d="M 120.89721153311464 102.0752229133903 l 7.043107798799968 0.6994243544114209 a28.077751188976677,28.077751188976677 0 0,0 -0.051900651437246606,0.4805355738343757 l -7.03002484586167 -0.8205562501305881" fill="#ff0200" stroke="none" /><path d="M 120.81339534386255 102.79330883721812 l 7.025145253173868 0.942825521460053 a28.088129922067438,28.088129922067438 0 0,0 -0.06843599155388456,0.4786411655340183 l -7.007875210603382 -1.0636121589744807" fill="#ff0200" stroke="none" /><path d="M 120.70491114924044 103.5080841355445 l 6.9878631652985375 1.1839708818281438 a28.087455020383057,28.087455020383057 0 0,0 -0.08486899746101523,0.47599040863706954 l -6.966447725498333 -1.3040800411984317" fill="#ff0200" stroke="none" /><path d="M 119.79798401119884 107.00284435728193 l 6.657470611485132 2.35484736622867 a28.06167268152683,28.06167268152683 0 0,0 -0.16499694151337932,0.4540007196781718 l -6.615949408966526 -2.4690958829129728" fill="#ff0100" stroke="none" /><path d="M 119.67450827220406 107.3425965602758 l 6.597135072643418 2.462074305587704 a28.04159080413915,28.04159080413915 0 0,0 -0.17266371906063377,0.4507704859040861 l -6.553777073989277 -2.5752683583249336" fill="#ff0100" stroke="none" /><path d="M 119.54520255179757 107.68017299344265 l 6.58080798181359 2.5858899954100623 a28.070633688847366,28.070633688847366 0 0,0 -0.18058424892864985,0.4481952962344446 l -6.5353211186275475 -2.6987846594873206" fill="#ff0100" stroke="none" /><path d="M 119.41010516605496 108.01547362559984 l 13.116171754833845 5.416370899090599 a35.19052624883294,35.19052624883294 0 0,0 -0.2360262425464008,0.5578963163547633 l -13.020994531095136 -5.641341741111526" fill="#ff700a" stroke="none" /><line stroke="#e1ed5e" stroke-width="0.3" x1="174.80103733775053" x2="179.2010983576182" y1="140.37084112569926" y2="142.7455964860345" /><path d="M 175.68104954172406 140.8457921977663 a86.0,86.0 0 0,1 -30.038265399797805,32.042727171017184" fill="none" id="id65" stroke="none" /><text fill="#e1ed5e" style="font-size:6.75px; font-family:Arial;" text-anchor="middle"><textPath startOffset="22.206326154141568" xlink:href="#id65">May</textPath></text><path d="M 118.30583269289576 110.29060199501025 l 12.368271768103575 6.952809209333043 a35.188576476555156,35.188576476555156 0 0,0 -0.30136167797846564,0.5254494874068872 l -12.246758093972732 -7.164678542598246" fill="#ff700a" stroke="none" /><path d="M 118.12598468904814 110.60418214915192 l 6.165353356577802 3.606895356506533 a28.14291789986792,28.14291789986792 0 0,0 -0.24821936231953443,0.41602992879858464 l -6.10235311856004 -3.712487379191222" fill="#ff0300" stroke="none" /><path d="M 115.07121518719521 114.62390073753431 l 10.109174175025732 9.80913336036935 a35.08596818761558,35.08596818761558 0 0,0 -0.42430526429753407,0.4298189925788618 l -9.938828285672662 -9.981692846928876" fill="#ff6f0a" stroke="none" /><path d="M 114.81725581225074 114.88116024355365 l 4.993360030147064 5.014895585519836 a28.076921797246076,28.076921797246076 0 0,0 -0.3454130515933155,0.3380593707945079 l -4.906297026177954 -5.100105059236916" fill="#ff0200" stroke="none" /><path d="M 112.34349029814194 116.9893568818739 l 8.297664586968365 11.420755519637162 a35.11683017667747,35.11683017667747 0 0,0 -0.4920915930270383,0.3510942857826435 l -8.099845666092442 -11.561894067264024" fill="#ff6f0a" stroke="none" /><path d="M 111.45004920935366 117.60387380957326 l 3.8612409164472035 5.9364633809582115 a28.08172146362054,28.08172146362054 0 0,0 -0.4074767409435469,0.2600709351649022 l -3.758482373456726 -6.002048744946922" fill="#ff0200" stroke="none" /><path d="M 111.1453310114006 117.79835938074945 l 3.7489353740177194 5.986802815790629 a28.06373303528099,28.06373303528099 0 0,0 -0.41162921440063566,0.2528562835297433 l -3.645326959684775 -6.05044756614875" fill="#ff0100" stroke="none" /><line stroke="#e1ed5e" stroke-width="0.3" x1="143.8653032363475" x2="146.44561519142675" y1="172.8068346515853" y2="177.08958963109032" /><path d="M 144.38136562736335 173.6633856474863 a86.0,86.0 0 0,1 -40.68145358897372,12.25698825130547" fill="none" id="id66" stroke="none" /><text fill="#e1ed5e" style="font-size:6.75px; font-family:Arial;" text-anchor="middle"><textPath startOffset="21.466115282336833" xlink:href="#id66">June</textPath></text><path d="M 109.89434966115114 118.52300852407294 l 6.635616898725068 12.422401935133035 a35.08358908320754,35.08358908320754 0 0,0 -0.5351234645415952,0.27995130515132755 l -6.420802531656977 -12.534782659229078" fill="#ff6f0a" stroke="none" /><path d="M 108.92500713936063 119.00905698771935 l 3.0198556346347396 6.4318836900750656 a28.10553698580824,28.10553698580824 0 0,0 -0.43969373314192867,0.20184182726970332 l -2.9086939057253915 -6.482912587678844" fill="#ff0200" stroke="none" /><path d="M 105.53697534728816 120.25689768951611 l 1.8410297675897782 6.73536530439584 a27.982444871877682,27.982444871877682 0 0,0 -0.4657205674391263,0.12300103472904167 l -1.7248187573391545 -6.766057688428465" fill="#ff0000" stroke="none" /><path d="M 104.83641907484287 120.43548508189849 l 9.025615511243826 38.136238460883874 a60.18972338894731,60.18972338894731 0 0,0 -1.0102697480105287,0.2299341054912857 l -8.367825613840436 -38.28594929995284" fill="#48ff2c" stroke="none" /><path d="M 104.48393922423573 120.51570834832081 l 1.5195828039266963 6.952662838956609 a28.11678666605919,28.11678666605919 0 0,0 -0.47371234283906444,0.09927102726076298 l -1.399678999658254 -6.977789846943914" fill="#ff0200" stroke="none" /><path d="M 101.98527174616119 120.90594882070398 l 0.6614613921501509 6.965534082627235 a27.996870459680302,27.996870459680302 0 0,0 -0.48015390388132556,0.041429699209141226 l -0.5414631705272835 -6.975888034115039" fill="#ff0000" stroke="none" /><path d="M 101.62511606390274 120.93702456842531 l 0.5481926099043746 7.062586111070555 a28.08382931145581,28.08382931145581 0 0,0 -0.4822892699828179,0.03326149177609435 l -0.42654057914262633 -7.0709759473629346" fill="#ff0200" stroke="none" /><path d="M 101.26447882468166 120.96189622390904 l 0.4288143297402278 7.1086690452113475 a28.12159092645292,28.12159092645292 0 0,0 -0.48343951712593974,0.024988300992472446 l -0.30638674420080847 -7.114997152966022" fill="#ff0200" stroke="none" /><line stroke="#e1ed5e" stroke-width="0.3" x1="102.19456741930631" x2="102.32365962044197" y1="184.97166512339345" y2="189.96999836594603" /><path d="M 102.22038585953345 185.97133177190398 a86.0,86.0 0 0,1 -42.740103519485714,-10.115201625700543" fill="none" id="id67" stroke="none" /><text fill="#e1ed5e" style="font-size:6.75px; font-family:Arial;" text-anchor="middle"><textPath startOffset="22.20632615414155" xlink:href="#id67">July</textPath></text><path d="M 97.2962882734958 120.8252237178851 l -0.9136644662830133 7.037461400527131 a28.096523495406572,28.096523495406572 0 0,0 -0.47907436908345397,-0.06639534221937078 l 1.0346674265532982 -7.020691492815155" fill="#ff0200" stroke="none" /><path d="M 93.76903079525671 120.05430185196036 l -2.095480773394119 6.744280476083066 a28.062319648085865,28.062319648085865 0 0,0 -0.46005988867005126,-0.14729664813970902 l 2.211262007155111 -6.707210981283651" fill="#ff0100" stroke="none" /><path d="M 93.08242187328487 119.8279376855182 l -19.08216888120304 54.69545100182279 a78.92858991468333,78.92858991468333 0 0,0 -1.2789454883354556,-0.45858434941615717 l 20.02083393016822 -54.358879111366676" fill="#46fff7" stroke="none" /><path d="M 92.40401165467489 119.57807347666478 l -2.555978706067361 6.587837768731537 a28.066302683369535,28.066302683369535 0 0,0 -0.44889902594160336,-0.1786261866422295 l 2.6689988080508225 -6.5428647376832405" fill="#ff0100" stroke="none" /><path d="M 92.06813273071674 119.44442032107085 l -2.665305725242274 6.533811402324487 a28.056525069051673,28.056525069051673 0 0,0 -0.44560246942160314,-0.1862618683576611 l 2.777379654161339 -6.4869644909468525" fill="#ff0100" stroke="none" /><path d="M 91.7346041902142 119.30500536409082 l -2.7833376466739104 6.500880228324877 a28.07166261910292,28.07166261910292 0 0,0 -0.4425689105318115,-0.19400920447575856 l 2.894827231863465 -6.452006470554666" fill="#ff0100" stroke="none" /><line stroke="#e1ed5e" stroke-width="0.3" x1="58.666819895761336" x2="56.23545636021788" y1="174.27360380694188" y2="178.64263932499728" /><path d="M 58.180547188652646 175.14741091055294 a86.0,86.0 0 0,1 -31.652253787137756,-30.449443065178592" fill="none" id="id68" stroke="none" /><text fill="#e1ed5e" style="font-size:6.75px; font-family:Arial;" text-anchor="middle"><textPath startOffset="22.20632615414155" xlink:href="#id68">August</textPath></text><path d="M 87.95078237400918 117.19931262002967 l -4.072526298984049 5.813211707491196 a28.09780957845654,28.09780957845654 0 0,0 -0.39373416696407365,-0.2809188738383528 l 4.17198779379701 -5.7422485718086245" fill="#ff0200" stroke="none" /><path d="M 87.65650970185807 116.9893568818739 l -4.171779806993435 5.741962302532487 a28.097455730171365,28.097455730171365 0 0,0 -0.38883537753270625,-0.2876511165576989 l 4.270000154944705 -5.669301237235021" fill="#ff0200" stroke="none" /><path d="M 87.36589467227662 116.77436683061367 l -8.604913420799535 11.424787946751438 a35.3028079273859,35.3028079273859 0 0,0 -0.48225530466092426,-0.3697728031928503 l 8.800297453953945 -11.274975801731221" fill="#ff720a" stroke="none" /><path d="M 85.97065885151581 115.62618273729859 l -9.456440983756893 10.532787911614117 a35.15499548817736,35.15499548817736 0 0,0 -0.4468040063945348,-0.4081448662206632 l 9.636344539618282 -10.368450278806877" fill="#ff700a" stroke="none" /><path d="M 85.70375840098266 115.38237550388516 l -9.6841490831345 10.419886695438842 a35.22521642050335,35.22521642050335 0 0,0 -0.44059057521401934,-0.41660588914197705 l 9.862075492739336 -10.251646169550934" fill="#ff710a" stroke="none" /><path d="M 85.44109423537348 115.13401014063109 l -11.741858024639598 12.20568367483384 a37.936644999553444,37.936644999553444 0 0,0 -0.4667111448732009,-0.4567750849333381 l 11.950219121888592 -12.001758486977934" fill="#ff990e" stroke="none" /><path d="M 84.9287848128048 114.62390073753433 l -5.078171013229055 4.9274506337604995 a28.075845574046014,28.075845574046014 0 0,0 -0.3335590254866939,-0.349735304671388 l 5.1622365900947065 -4.839308212506611" fill="#ff0200" stroke="none" /><path d="M 84.19399662182784 113.82643327865904 l -23.00672541034314 20.125324931021527 a51.56694485365074,51.56694485365074 0 0,0 -0.5786731815863514,-0.6731276433647684 l 23.34974110150027 -19.72632018849523" fill="#adff20" stroke="none" /><path d="M 83.72743513129214 113.27417163493432 l -14.44462946817484 11.783052783049584 a39.64102071671499,39.64102071671499 0 0,0 -0.42676784437673515,-0.5324585044158519 l 14.645315224606435 -11.532666445055472" fill="#ffb210" stroke="none" /><path d="M 83.50135304334701 112.99209946851258 l -11.120456758591871 8.756965387677358 a35.154469305512336,35.154469305512336 0 0,0 -0.3702823311759997,-0.4786398276055322 l 11.26954590698594 -8.564247565958572" fill="#ff700a" stroke="none" /><path d="M 82.85270091963577 112.12312394758628 l -6.02309758155072 4.258324193642953 a28.376383220457505,28.376383220457505 0 0,0 -0.27854675690879793,-0.4012673783259379 l 6.095505245621652 -4.1540155531300025" fill="#ff0601" stroke="none" /><path d="M 82.44556493220864 111.52570212397912 l -25.020327587753748 16.4275775157206 a50.93128957518403,50.93128957518403 0 0,0 -0.474861847655067,-0.7369961328592545 l 25.29939429878586 -15.994459782939897" fill="#b5ff20" stroke="none" /><line stroke="#e1ed5e" stroke-width="0.3" x1="26.63291911575756" x2="22.317208475507996" y1="142.92168965132927" y2="145.44649492493687" /><path d="M 25.769776987707644 143.4266507060508 a86.0,86.0 0 0,1 -11.730757126820373,-40.83630448921669" fill="none" id="id69" stroke="none" /><text fill="#e1ed5e" style="font-size:6.75px; font-family:Arial;" text-anchor="middle"><textPath startOffset="21.46611528233685" xlink:href="#id69">September</textPath></text><path d="M 81.87401531095188 110.60418214915194 l -12.249064258988483 7.166027710343489 a35.19124830190212,35.19124830190212 0 0,0 -0.30138456000014957,-0.5254893841404314 l 12.37060081514101 -6.95411848034475" fill="#ff710a" stroke="none" /><path d="M 81.51974371655577 109.97397251340807 l -14.967712436580044 8.078218729292544 a38.00852825562652,38.00852825562652 0 0,0 -0.30578311975484035,-0.5784264251987119 l 15.10454806455977 -7.819377289007707" fill="#ff9a0e" stroke="none" /><path d="M 80.87730276802145 108.67885076344099 l -9.487961806063698 4.306118721910815 a31.419408701097886,31.419408701097886 0 0,0 -0.21927592655321393,-0.4944093272235078 l 9.560678817348192 -4.1421610581946116" fill="#ff3705" stroke="none" /><path d="M 80.32549172779594 107.34259656027581 l -6.625235267819559 2.4725613985096166 a28.071584138180068,28.071584138180068 0 0,0 -0.16505521886741928,-0.45416107392737226 l 6.666814747692203 -2.3581525275761273" fill="#ff0100" stroke="none" /><path d="M 79.76711848015287 105.62410040840567 l -60.698644559541364 16.872301225217015 a84.0,84.0 0 0,0 -0.3752476946329004,-1.3964362672978443 l 60.98008033051604 -15.824974024743632" fill="#4dd2ff" stroke="none" /><path d="M 79.35854240842038 103.8639653848113 l -11.130499156955137 2.0835671738458226 a32.323836083717694,32.323836083717694 0 0,0 -0.09766963794079968,-0.5477831984080133 l 11.164715237235125 -1.8916652247045957" fill="#ff4506" stroke="none" /><path d="M 79.10278846688536 102.07522291339032 l -11.248364349508925 1.1170324518787365 a32.30369240725585,32.30369240725585 0 0,0 -0.05018671459656658,-0.5538062135816418 l 11.265925660382567 -0.9232448497485285" fill="#ff4406" stroke="none" /><path d="M 79.0235259727143 100.99374915477108 l -14.085378612297994 0.6672872224566607 a35.101175939936205,35.101175939936205 0 0,0 -0.023397218932088175,-0.603778257431896 l 14.094777964081283 -0.42473171801076803" fill="#ff6f0a" stroke="none" /><line stroke="#e1ed5e" stroke-width="0.3" x1="15.007084014347285" x2="10.007500721073583" y1="101.09737516637583" y2="101.16192664675087" /><path d="M 14.007167355692545 101.11028546245083 a86.0,86.0 0 0,1 10.666146001902534,-42.60595125391555" fill="none" id="id70" stroke="none" /><text fill="#e1ed5e" style="font-size:6.75px; font-family:Arial;" text-anchor="middle"><textPath startOffset="22.20632615414155" xlink:href="#id70">October</textPath></text><path d="M 79.01574976396665 99.18683210126434 l -15.455414578808863 -0.5989180864588322 a36.46701466596399,36.46701466596399 0 0,0 0.029705668544320222,-0.6270397128807349 l 15.442815302031045 0.8648689059625763" fill="#ff840c" stroke="none" /><path d="M 79.12142395522702 97.74499172005258 l -7.013340351189553 -0.7574817615965329 a28.05412797592835,28.05412797592835 0 0,0 0.05598755239349037,-0.47966715788536884 l 6.999262445792474 0.8780926578067636" fill="#ff0100" stroke="none" /><path d="M 79.16333360222342 97.38593545837743 l -8.408814333778883 -1.0549280277081405 a29.474729001189914,29.474729001189914 0 0,0 0.06748870938396702,-0.5028692749400566 l 8.389409625337082 1.1995156447128563" fill="#ff1802" stroke="none" /><path d="M 79.21141760316559 97.0276538004421 l -7.0087990134635225 -1.002116292177083 a28.080077730800276,28.080077730800276 0 0,0 0.07253232041248604,-0.477897366908908 l 6.990510799611734 1.1226127714780831" fill="#ff0200" stroke="none" /><path d="M 79.26566170972629 96.67025291283419 l -11.149843637772365 -1.7905639840284806 a32.292702622830056,32.292702622830056 0 0,0 0.09286172370827231,-0.5480751499270176 l 11.117370052543869 1.9822249222713262" fill="#ff4406" stroke="none" /><path d="M 79.62865764111835 94.90015583598534 l -6.851254323395479 -1.7151706923287284 a28.062683364534237,28.062683364534237 0 0,0 0.12134259938389588,-0.46758253418766504 l 6.820715392141276 1.8328496520652573" fill="#ff0100" stroke="none" /><path d="M 79.71946130924805 94.55025226153421 l -13.62475071593271 -3.661217067925987 a35.10809492772789,35.10809492772789 0 0,0 0.1618537166293384,-0.5822739343724943 l 13.55971022873701 3.895202305717424" fill="#ff6f0a" stroke="none" /><path d="M 80.38941819471856 92.48833698450439 l -13.169899658017313 -5.044615665215716 a35.102992739556534,35.102992739556534 0 0,0 0.2209924789821686,-0.562401754207647 l 13.081113629153453 5.270566424319126" fill="#ff6f0a" stroke="none" /><path d="M 80.803312248108 91.48605970444005 l -10.328231294870536 -4.580683175127168 a32.298452107755125,32.298452107755125 0 0,0 0.229776852884227,-0.506282837254353 l 10.247852125022957 4.757788021223592" fill="#ff4406" stroke="none" /><path d="M 80.95270993114464 91.15688171328213 l -15.380239169065336 -7.140610226356972 a37.95700655488478,37.95700655488478 0 0,0 0.2802344215538006,-0.5902451604799838 l 15.255046553669784 7.404297802477488" fill="#ff990e" stroke="none" /><path d="M 81.26839172434947 90.50648371742162 l -12.604470815281656 -6.388172716258915 a35.1308681681644,35.1308681681644 0 0,0 0.2780199473545023,-0.5370460463169929 l 12.49264143476704 6.604191484836243" fill="#ff700a" stroke="none" /><path d="M 81.43458229118936 90.18545643968196 l -6.257547840056098 -3.308030921806774 a28.078133479259947,28.078133479259947 0 0,0 0.22956133845007637,-0.42534229582294053 l 6.19967840238755 3.4152542009621873" fill="#ff0200" stroke="none" /><path d="M 81.6062741919709 89.86733742301443 l -7.757613569159357 -4.273483334443542 a29.85681817009766,29.85681817009766 0 0,0 0.2518527235311483,-0.44801789267983444 l 7.682903204335778 4.406384737058161" fill="#ff1e03" stroke="none" /><line stroke="#e1ed5e" stroke-width="0.3" x1="26.266209847984243" x2="21.928928074336255" y1="57.711370442889674" y2="55.22380399835377" /><path d="M 25.398753493254645 57.213857153982495 a86.0,86.0 0 0,1 29.58750427330803,-30.492523968695096" fill="none" id="id71" stroke="none" /><text fill="#e1ed5e" style="font-size:6.75px; font-family:Arial;" text-anchor="middle"><textPath startOffset="21.46611528233685" xlink:href="#id71">November</textPath></text><path d="M 82.54541684631803 88.32363383020206 l -5.902398453887542 -3.948450961036104 a28.101307802099623,28.101307802099623 0 0,0 0.27241613101045836,-0.39973705787284225 l 5.833557857208342 4.049466042179362" fill="#ff0200" stroke="none" /><path d="M 82.7489923806493 88.02491185347247 l -11.597851974232425 -8.050851449744991 a35.118299454327634,35.118299454327634 0 0,0 0.3489879004793584,-0.4936186358252482 l 11.457551453949188 8.249296585902025" fill="#ff6f0a" stroke="none" /><path d="M 83.39014120810768 87.1503855733568 l -11.183784738593161 -8.651929165806385 a35.139763766390175,35.139763766390175 0 0,0 0.37423165596404734,-0.4752361992546624 l 11.033199002035143 8.843157759014096" fill="#ff700a" stroke="none" /><path d="M 83.6137871275137 86.86637796730984 l -13.246376551241264 -10.61702934537158 a37.97609507094478,37.97609507094478 0 0,0 0.4132188089886266,-0.5065574002781006 l 13.061659250176245 10.843470915257763" fill="#ff9a0e" stroke="none" /><path d="M 84.80347519578584 85.50635884689758 l -5.302167508386697 -5.056926777027681 a28.327038195288132,28.327038195288132 0 0,0 0.33956799129527365,-0.3499546638989024 l 5.214335253388305 5.147445636476707" fill="#ff0600" stroke="none" /><path d="M 85.05521093208273 85.24692304244772 l -5.038762919571632 -4.974125548742916 a28.080328857779634,28.080328857779634 0 0,0 0.3425321415662773,-0.34106119969403564 l 4.9523949778380425 5.060122599087061" fill="#ff0200" stroke="none" /><path d="M 85.57189188830299 84.74124197986013 l -6.793994361253574 -7.185135788143863 a30.888606356550508,30.888606356550508 0 0,0 0.3894790211323175,-0.36197830318536056 l 6.6693074563264005 7.301018677403871" fill="#ff2e04" stroke="none" /><path d="M 86.10567301691215 84.25364557470407 l -9.358032139528298 -10.605399669353055 a35.1438066895429,35.1438066895429 0 0,0 0.45704721647967483,-0.3963468423131127 l 9.17409112440185 10.764911505085848" fill="#ff700a" stroke="none" /><path d="M 86.37877921826538 84.01681056812374 l -4.586613465284889 -5.381948728468313 a28.071237175756046,28.071237175756046 0 0,0 0.3704634195949532,-0.3102524599531793 l 4.493292508730825 5.460102345815304" fill="#ff0100" stroke="none" /><path d="M 86.65592168130627 83.78471172551755 l -8.978127020214316 -10.909926809538282 a35.129163732528,35.129163732528 0 0,0 0.4702232636421347,-0.38022117736254857 l 8.78900035800768 11.062854084164965" fill="#ff700a" stroke="none" /><path d="M 88.09926311788651 82.69761687909137 l -3.998820205514069 -5.813851689421394 a28.05630459253394,28.05630459253394 0 0,0 0.4002636737249245,-0.27025981923761244 l 3.898151837382605 5.881823420957672" fill="#ff0100" stroke="none" /><line stroke="#e1ed5e" stroke-width="0.3" x1="56.762969772571076" x2="54.21961505331055" y1="26.818313649435495" y2="22.513508569990535" /><path d="M 56.25429882871897 25.957352633546506 a86.0,86.0 0 0,1 42.265352541879196,-11.944610805530505" fill="none" id="id72" stroke="none" /><text fill="#e1ed5e" style="font-size:6.75px; font-family:Arial;" text-anchor="middle"><textPath startOffset="22.20632615414155" xlink:href="#id72">December</textPath></text><path d="M 90.91171255644093 81.06846463323043 l -3.990752737637802 -8.313015742714661 a30.221298073025586,30.221298073025586 0 0,0 0.47090796249062516,-0.22109760257575195 l 3.8470665638475685 8.38047832793042" fill="#ff2403" stroke="none" /><path d="M 91.56875222667455 80.76684994638697 l -6.8082912292988365 -15.530902464529849 a37.95764608740514,37.95764608740514 0 0,0 0.6006639195662802,-0.25717294298750026 l 6.539943551942248 15.645794935480135" fill="#ff990e" stroke="none" /><path d="M 93.25333710446033 80.11325718540243 l -2.2735444206913145 -6.701593642946461 a28.07674795284084,28.07674795284084 0 0,0 0.4590109460847871,-0.1513286921759159 l 2.157850652364118 6.739736059381611" fill="#ff0200" stroke="none" /><path d="M 94.98787191387505 79.60689891045804 l -2.0180229585924536 -8.210832901401337 a29.455187377943847,29.455187377943847 0 0,0 0.49341129598289485,-0.11677451227954501 l 1.8763879756470248 8.244353325821754" fill="#ff1802" stroke="none" /><path d="M 96.40284397218896 79.31037775812273 l -2.4151845416090216 -13.891322873953794 a35.09971515877037,35.09971515877037 0 0,0 0.5961449176179818,-0.09836901937372666 l 2.1757104178521542 13.930838156267146" fill="#ff6f0a" stroke="none" /><path d="M 96.75951476605007 79.25152402106235 l -2.180919295539198 -13.964190035928425 a35.133471347591076,35.133471347591076 0 0,0 0.598324722815231,-0.088177510980505 l 1.940225592295318 13.9996620310699" fill="#ff700a" stroke="none" /></svg>