<?xml version="1.0" encoding="utf-8" ?>
<svg baseProfile="full" height="200mm" version="1.1" viewBox="0,0,200,200" width="200mm" xmlns="http://www.w3.org/2000/svg" xmlns:ev="http://www.w3.org/2001/xml-events" xmlns:xlink="http://www.w3.org/1999/xlink"><defs /><rect fill="#1a1a1a" height="200" width="200" x="0" y="0" /><text alignment-baseline="middle" fill="#e1ed5e" style="dominant-baseline: central; font-size:9.0px; font-family:Arial;" text-anchor="middle" x="100.0" y="100.0">2024</text><line stroke="#e1ed5e" stroke-width="0.3" x1="100.0" x2="100.0" y1="15.0" y2="10.0" /><path d="M 100.0 14.0 a86.0,86.0 0 0,1 42.35913384403234,11.155469271406648" fill="none" id="id133" stroke="none" /><text fill="#e1ed5e" style="font-size:6.75px; font-family:Arial;" text-anchor="middle"><textPath startOffset="22.145653131862478" xlink:href="#id133">January</textPath></text><path d="M 100.0 79.0 l 0.0 -30.839008814861273 a51.83900881486127,51.83900881486127 0 0,0 0.8898855194730907,0.007638596918000102 l -0.5293925946242359 30.83446461613771" fill="#97ff23" stroke="none" /><path d="M 100.36049292484886 79.00309439819443 l 0.49848539090288635 -29.03427494743605 a50.03855384498781,50.03855384498781 0 0,0 0.8587251708994247,0.022117714294484014 l -0.9968238758730524 29.02143951579152" fill="#acff21" stroke="none" /><path d="M 101.44090949804482 79.04949213459386 l 1.5942266766162791 -23.1797059933398 a44.23446424245905,44.23446424245905 0 0,0 0.7571065689640973,0.058604836714412537 l -1.9919022403556101 23.148923389630333" fill="#f3ff19" stroke="none" /><path d="M 102.15924093988457 79.11130261209362 l 3.1536775396192316 -30.508969410178434 a51.67153234670714,51.67153234670714 0 0,0 0.8815264261475383,0.09877687473800065 l -3.6769398673675666 30.450336774933465" fill="#99ff23" stroke="none" /><path d="M 102.87502721639298 79.19773525538626 l 2.983301776120972 -21.58568552189389 a42.79086755816542,42.79086755816542 0 0,0 0.7267822936792532,0.1068119690480335 l -3.353409175407907 21.531292479546973" fill="#fff917" stroke="none" /><path d="M 103.23170211078529 79.25015418208739 l 4.179332785029578 -26.834314530938666 a48.1578213204478,48.1578213204478 0 0,0 0.815753354649227,0.13423190407697266 l -4.639363642731875 26.758616628366028" fill="#c2ff1e" stroke="none" /><path d="M 103.94208987418118 79.37332000966035 l 5.7292821989666445 -29.978025429209996 a51.52059441016438,51.52059441016438 0 0,0 0.8672719615012973,0.1734786816681357 l -6.243050645998898 29.875257350879" fill="#9bff22" stroke="none" /><path d="M 104.64783097203109 79.52079915486377 l 8.70708348901357 -38.365016417315175 a60.34066328349734,60.34066328349734 0 0,0 1.0081713603898816,0.2379256959437176 l -9.364387003143337 38.20989457772523" fill="#3aff2e" stroke="none" /><path d="M 105.3480935250658 79.69241777938227 l 11.317625360835597 -42.9748669278347 a65.44016011754829,65.44016011754829 0 0,0 1.0838716578426206,0.29541404010818095 l -12.053678419612911 42.77425239358237" fill="#35ff62" stroke="none" /><path d="M 106.38641147887787 79.99465700312896 l 4.422735047842706 -13.854154545006272 a35.542977118194685,35.542977118194685 0 0,0 0.5796505475851548,0.19054264831406614 l -4.659908333075603 13.776190975290184" fill="#ff970e" stroke="none" /><path d="M 107.06938296918511 80.22567764915836 l 6.453869045758593 -18.052620359830357 a40.1715812471471,40.1715812471471 0 0,0 0.6473570899639194,0.2377184902647676 l -6.762815287376637 17.939171020556866" fill="#ffd614" stroke="none" /><path d="M 108.07796709384702 80.6158196554323 l 6.8284841272908645 -16.385876083135567 a38.75176415144527,38.75176415144527 0 0,0 0.6118440841851037,0.2611598570404541 l -7.108763286646399 16.26624157643571" fill="#ffc312" stroke="none" /><path d="M 108.4095320186766 80.7573450057729 l 8.319221560680415 -19.03600699268175 a41.774479767279814,41.774479767279814 0 0,0 0.6546391140043039,0.29281174902075435 l -8.64477407754035 18.890391492751142" fill="#ffeb16" stroke="none" /><path d="M 109.3889696526874 81.21577127319529 l 19.477236792179163 -38.967520868033525 a64.5640957172216,64.5640957172216 0 0,0 0.987132075689465,0.5040366714415486 l -20.143296089582204 38.62742624491914" fill="#34ff58" stroke="none" /><path d="M 110.02825361518725 81.54914285379988 l 8.42499171976906 -15.501035837781327 a38.64263578727278,38.64263578727278 0 0,0 0.5801102627097531,0.32177738381424603 l -8.689846170634913 15.354125538533935" fill="#ffc212" stroke="none" /><path d="M 110.34350942703115 81.72400993836675 l 8.582029307349192 -15.163623471920369 a38.42373966260902,38.42373966260902 0 0,0 0.5712467112208442,0.3298094424970429 l -8.841068486430434 15.014067132147154" fill="#ffbf11" stroke="none" /><line stroke="#e1ed5e" stroke-width="0.3" x1="143.13028292997686" x2="145.6673583964461" y1="26.7553504044142" y2="22.446841604673864" /><path d="M 143.63769802327073 25.89364864446614 a86.0,86.0 0 0,1 29.32050498858742,28.57503671076993" fill="none" id="id134" stroke="none" /><text fill="#e1ed5e" style="font-size:6.75px; font-family:Arial;" text-anchor="middle"><textPath startOffset="20.669276256404974" xlink:href="#id134">February</textPath></text><path d="M 110.65571695917076 81.90426304109057 l 9.214288831019926 -15.647876871020944 a39.15927226603783,39.15927226603783 0 0,0 0.5763261111657727,0.3460672705608866 l -9.481547698743134 15.487395599924136" fill="#ffc912" stroke="none" /><path d="M 111.27062007382361 82.28071324371311 l 7.016464089079271 -11.031046951741187 a34.073437389028854,34.073437389028854 0 0,0 0.49084306517011955,0.3181585446455974 l -7.204792786506398 10.908974565391695" fill="#ff830c" stroke="none" /><path d="M 111.5731344415666 82.4767994020092 l 24.839121433964642 -37.60959572040502 a66.07176104684117,66.07176104684117 0 0,0 0.941062332432294,0.6331887355379499 l -25.48108005449394 37.17765731080995" fill="#36ff6a" stroke="none" /><path d="M 112.16784306229584 82.88440491214696 l 15.743662088347294 -22.145432360079496 a48.17136489701833,48.17136489701833 0 0,0 0.669854919339724,0.4849233038636105 l -16.121498018060986 21.87190828484281" fill="#c2ff1e" stroke="none" /><path d="M 112.45986205192187 83.09580414077388 l 17.578911452435182 -23.84916951292589 a50.627706868889305,50.627706868889305 0 0,0 0.6951594263783855,0.5216605933182182 l -17.985723867724335 23.543889892343657" fill="#a5ff21" stroke="none" /><path d="M 113.03279911837588 83.53348406188908 l 18.02192740177265 -22.770116542220492 a50.039078405160645,50.039078405160645 0 0,0 0.6689729863991247,0.538877283730119 l -18.410151158527036 22.457390964696966" fill="#acff21" stroke="none" /><path d="M 113.31354834802062 83.75963576809568 l 9.207896046466114 -11.232135993734099 a35.52398803993805,35.52398803993805 0 0,0 0.46828341154194336,0.3906586769849588 l -9.39935379216995 11.072415132837271" fill="#ff970d" stroke="none" /><path d="M 113.59037401385872 83.9905735841838 l 18.806798092464366 -22.154360863901864 a50.06047762475193,50.06047762475193 0 0,0 0.6503583594716437,0.5617640611376853 l -19.184335931698868 21.82825267029946" fill="#acff21" stroke="none" /><path d="M 114.39649973595853 84.71141617570332 l 10.001253455681175 -10.620984587198201 a35.58870742342434,35.58870742342434 0 0,0 0.44117713022889393,0.4226377109288467 l -10.182103071775382 10.447734745963775" fill="#ff980e" stroke="none" /><path d="M 114.65682725009322 84.96080404539774 l 8.623783618101829 -8.848761706043675 a33.3559794278797,33.3559794278797 0 0,0 0.40663810692933117,0.40316258843797487 l -8.774413645161122 8.69941910737704" fill="#ff790b" stroke="none" /><path d="M 115.8921839302757 86.27271002978787 l 13.321875177578125 -11.507118487421975 a38.603582991270294,38.603582991270294 0 0,0 0.4288774180937017,0.5052165201174553 l -13.51744715917894 11.276735184854967" fill="#ffc112" stroke="none" /><path d="M 116.35404254752997 86.82634096563983 l 14.931650766183658 -12.027880901138754 a40.17352637297718,40.17352637297718 0 0,0 0.4280079261496017,0.5407740327742068 l -15.135925122974818 11.76978692444987" fill="#ffd614" stroke="none" /><path d="M 116.7966241395341 87.39550010848427 l 34.05866030512141 -25.558253643995716 a63.58188195829857,63.58188195829857 0 0,0 0.6476207686637928,0.8786219518623519 l -34.49238309336903 24.96982538286449" fill="#32ff4b" stroke="none" /><path d="M 117.42321728460499 88.27688183743584 l 12.052917358059034 -8.109740703113207 a35.52724031300962,35.52724031300962 0 0,0 0.33611401918025935,0.5089194644398596 l -12.190355816160016 7.901641360334288" fill="#ff970d" stroke="none" /><path d="M 117.81537515405839 88.88188828441811 l 11.450013199952073 -7.145655076084921 a34.49678438538065,34.49678438538065 0 0,0 0.30920952117158534,0.5050705148361222 l -11.57099068557906 6.948047445124244" fill="#ff890c" stroke="none" /><line stroke="#e1ed5e" stroke-width="0.3" x1="172.87174338648825" x2="177.1583165268699" y1="56.24261187166439" y2="53.66864786411523" /><path d="M 173.72905801456457 55.72781907015455 a86.0,86.0 0 0,1 12.242430191666344,42.057860355516425" fill="none" id="id135" stroke="none" /><text fill="#e1ed5e" style="font-size:6.75px; font-family:Arial;" text-anchor="middle"><textPath startOffset="22.145653131862474" xlink:href="#id135">March</textPath></text><path d="M 118.00360718960297 89.18935116829356 l 6.233760862231268 -3.7431942872723805 a28.27126384886114,28.27126384886114 0 0,0 0.24626463837212342,0.41821119454825356 l -6.297099210733159 3.6356319244305704" fill="#ff2e04" stroke="none" /><path d="M 118.36410011445183 89.81374322990088 l 55.092300343355504 -30.558770310297362 a84.0,84.0 0 0,0 0.6886186015386349,1.2669806661015868 l -55.60876429450948 29.60853481072117" fill="#4dd2ff" stroke="none" /><path d="M 119.4528033332814 92.08871423366111 l 19.631212951993113 -7.9838434050971605 a42.19259959239582,42.19259959239582 0 0,0 0.26710190935413614,0.6732712954536751 l -19.765373536313373 7.64567109242992" fill="#fff116" stroke="none" /><path d="M 119.83427380445688 93.10060997987247 l 17.829499057787082 -6.202025296006936 a39.877397978109705,39.877397978109705 0 0,0 0.2193533722015413,0.6484792683739008 l -17.93333785156099 5.895044353158874" fill="#ffd213" stroke="none" /><path d="M 119.94978838288452 93.4421083053983 l 15.59101027425667 -5.125074753961576 a37.411763848096015,37.411763848096015 0 0,0 0.19531663632191149,0.6118265814124404 l -15.676691626355838 4.856679138857749" fill="#ffb110" stroke="none" /><path d="M 120.16314734710363 94.1308016681162 l 22.350706250503393 -6.505964846838405 a44.2783514984328,44.2783514984328 0 0,0 0.20617161799849756,0.7316303386949202 l -22.45909636057647 6.121326584240472" fill="#f2ff19" stroke="none" /><path d="M 120.35273937422433 94.82641323984039 l 16.361047986612263 -4.158914418816373 a37.88136429212011,37.88136429212011 0 0,0 0.15479493184972715,0.6316161458468931 l -16.430030444978282 3.8774424483613847" fill="#ffb811" stroke="none" /><path d="M 120.43855184770803 95.1765574152323 l 16.718030548321185 -3.945409688566685 a38.17727577426747,38.17727577426747 0 0,0 0.14505390200496074,0.6391342564749438 l -16.783295311883812 3.657841098152715" fill="#ffbc11" stroke="none" /><path d="M 120.592083275326 95.88100663000786 l 15.673122894458283 -3.1350635302985683 a36.983597986805115,36.983597986805115 0 0,0 0.11918177145301236,0.6236093896650841 l -15.724630958193453 2.8655515756001697" fill="#ffab0f" stroke="none" /><path d="M 120.7213421655516 96.59031103205396 l 30.405854752955044 -5.003271828814026 a51.81474861573274,51.81474861573274 0 0,0 0.13688594944913055,0.8789059908178808 l -30.48726219454244 4.480577656064704" fill="#97ff23" stroke="none" /><path d="M 120.82617615685814 97.30363454192243 l 17.855168675049896 -2.3117090579155213 a39.00419526618537,39.00419526618537 0 0,0 0.08027047364405879,0.6647546720134109 l -17.892221234953617 2.0048607089786974" fill="#ffc712" stroke="none" /><path d="M 120.9064616781168 98.02013634271609 l 15.913459490554514 -1.5070211589169644 a36.98465844899236,36.98465844899236 0 0,0 0.0544315146866546,0.6325767088037119 l -15.936984627938909 1.2336234027375905" fill="#ffab0f" stroke="none" /><line stroke="#e1ed5e" stroke-width="0.3" x1="184.99686870605535" x2="189.99668451229388" y1="99.2704041080226" y2="99.22748670261217" /><path d="M 185.99683186730306 99.26182062694052 a86.0,86.0 0 0,1 -10.086455211305974,41.156179273409016" fill="none" id="id136" stroke="none" /><text fill="#e1ed5e" style="font-size:6.75px; font-family:Arial;" text-anchor="middle"><textPath startOffset="21.40746469413373" xlink:href="#id136">April</textPath></text><path d="M 120.99922638620191 99.81974689727618 l 17.430749001780686 -0.14962201619178397 a38.431391152481424,38.431391152481424 0 0,0 0.0,0.6597502378312196 l -17.430749001780686 -0.14962201619178184" fill="#ffbf11" stroke="none" /><path d="M 120.93736805541906 101.62068470465957 l 16.336720125256814 1.2645654583339634 a37.38558971320173,37.38558971320173 0 0,0 -0.05502157815922253,0.639434140782438 l -16.312604924399853 -1.5448206464920589" fill="#ffb110" stroke="none" /><path d="M 120.9064616781168 101.97986365728391 l 23.860902122928916 2.2596522391277687 a44.96765900879326,44.96765900879326 0 0,0 -0.0793735016741058,0.767866626860784 l -23.818596228773146 -2.668923388271484" fill="#eaff1a" stroke="none" /><path d="M 120.82617615685814 102.69636545807757 l 16.180075857150836 2.0948347561119487 a37.3151214337672,37.3151214337672 0 0,0 -0.08770027896021991,0.6345555307110416 l -16.141731061635408 -2.3722785950230754" fill="#ffb010" stroke="none" /><path d="M 120.77682067341334 103.0534771498775 l 18.03720868250219 2.650848530933776 a39.230959793441656,39.230959793441656 0 0,0 -0.10364167196779826,0.6654538815521913 l -17.989045518396125 -2.9600905944174176" fill="#ffca12" stroke="none" /><path d="M 120.65975698304385 103.76489593502545 l 16.069821521080762 2.928456795060891 a37.334473450954235,37.334473450954235 0 0,0 -0.12031248781520774,0.6295257754673672 l -16.017182740983397 -3.2038851355615727" fill="#ffb010" stroke="none" /><path d="M 120.43855184770803 104.8234425847677 l 16.95461280471469 4.0012424568954685 a38.42035695835933,38.42035695835933 0 0,0 -0.15699742203445988,0.6406030574022471 l -16.883427856163934 -4.291701338905816" fill="#ffbf11" stroke="none" /><path d="M 120.35273937422433 105.17358676015961 l 15.79692087213296 4.015515512317653 a37.29929672930994,37.29929672930994 0 0,0 -0.16306989515887482,0.6192029530010086 l -15.725661496169355 -4.286098969691464" fill="#ffb010" stroke="none" /><path d="M 120.16314734710363 105.8691983318838 l 15.892864935950572 4.6261813577598385 a37.55248349424496,37.55248349424496 0 0,0 -0.18548008481076395,0.6174028782068008 l -15.811108531136178 -4.8983218395573624" fill="#ffb310" stroke="none" /><path d="M 120.05942366710727 106.21446072829308 l 28.916286151952246 8.958339366153194 a51.27215633252371,51.27215633252371 0 0,0 -0.2676779729632981,0.838497437809765 l -28.75824346321169 -9.453405837654342" fill="#9dff22" stroke="none" /><path d="M 119.71291397450082 107.23885506374661 l 27.31208642886711 10.029376448496173 a50.095333939371734,50.095333939371734 0 0,0 -0.30336139815034036,0.8047021500960089 l -27.13589434690233 -10.49674687878634" fill="#abff21" stroke="none" /><path d="M 119.58574465831526 107.57618678355244 l 15.580620364522709 6.026918666844236 a37.70567207747522,37.70567207747522 0 0,0 -0.23869723844154092,0.6016729694495649 l -15.474864451115042 -6.293492653507365" fill="#ffb510" stroke="none" /><path d="M 119.31412917781788 108.2440532568976 l 15.067050589935869 6.431227954634377 a37.382207008952044,37.382207008952044 0 0,0 -0.2569868622628849,0.5880362328832442 l -14.95442984565602 -6.688926257293465" fill="#ffb110" stroke="none" /><path d="M 119.16976305983485 108.57439118712176 l 14.913811053003432 6.6707579879901475 a37.33771012899365,37.33771012899365 0 0,0 -0.26672555076608456,0.5828434647218251 l -14.79710103738229 -6.925790434926662" fill="#ffb010" stroke="none" /><path d="M 118.8641267826498 109.22738970284198 l 33.94236326440559 16.602910746134366 a58.785455789456535,58.785455789456535 0 0,0 -0.45119261266821314,0.9026874672854397 l -33.65235073852565 -17.183130069583555" fill="#4aff2c" stroke="none" /><path d="M 118.70294669586154 109.54985784667822 l 10.347255049545456 5.283382155409104 a32.61808134161744,32.61808134161744 0 0,0 -0.2589129031031614,0.49649963064623487 l -10.255034077467347 -5.4602280291598415" fill="#ff6e0a" stroke="none" /><path d="M 118.5362547648365 109.86951160357373 l 14.100284000610303 7.5076070286702175 a36.97442243697109,36.97442243697109 0 0,0 -0.30311041751483453,0.5576890281894653 l -13.96932823348013 -7.748550890334286" fill="#ffab0f" stroke="none" /><line stroke="#e1ed5e" stroke-width="0.3" x1="174.33088141563837" x2="178.70328620479359" y1="141.23008692659167" y2="143.65538615756765" /><path d="M 175.20536237346943 141.71514677278685 a86.0,86.0 0 0,1 -30.301960400862466,31.631185727798858" fill="none" id="id137" stroke="none" /><text fill="#e1ed5e" style="font-size:6.75px; font-family:Arial;" text-anchor="middle"><textPath startOffset="22.145653131862474" xlink:href="#id137">May</textPath></text><path d="M 118.18653347947321 110.5 l 15.526902173509777 8.96446114955685 a38.92892229911371,38.92892229911371 0 0,0 -0.33910111070588167,0.575867820562422 l -15.370727352674129 -9.22968013841282" fill="#ffc612" stroke="none" /><path d="M 118.00360718960297 110.81064883170644 l 13.941402961379618 8.371411909265888 a37.26171128406119,37.26171128406119 0 0,0 -0.33399275061304073,0.5455520575967423 l -13.795642246311171 -8.609501082987189" fill="#ffaf10" stroke="none" /><path d="M 117.62189284568427 111.42229804090321 l 9.74583306745319 6.317131248508493 a32.61410389955017,32.61410389955017 0 0,0 -0.3085535900638498,0.46718946204405654 l -9.635955038468614 -6.48350058889161" fill="#ff6e0a" stroke="none" /><path d="M 117.423217284605 111.72311816256416 l 12.925846765635058 8.697086566132029 a36.57937191761826,36.57937191761826 0 0,0 -0.3550119722695266,0.5179730772025688 l -12.774645056550211 -8.917694378404642" fill="#ffa60f" stroke="none" /><path d="M 117.21940702142032 112.02048342749411 l 13.625791750862916 9.511860874418415 a37.61739143584744,37.61739143584744 0 0,0 -0.37417643350651875,0.5263260131254689 l -13.460500218826438 -9.744364114253388" fill="#ffb410" stroke="none" /><path d="M 117.01052211995028 112.31430620078461 l 13.874731505086322 10.04423562089965 a38.12877238877277,38.12877238877277 0 0,0 -0.3883651147479235,0.5268918658354711 l -13.700264370754569 -10.280933796004" fill="#ffbb11" stroke="none" /><path d="M 116.57777611688842 112.89097897827486 l 11.458081709954715 8.90987364124843 a35.5145955773839,35.5145955773839 0 0,0 -0.37837177299283375,0.47806037474582075 l -11.303443506320319 -9.105253959908934" fill="#ff970d" stroke="none" /><path d="M 116.1254893667686 113.45245675266167 l 31.30464848420213 26.115451153926404 a61.76760730889875,61.76760730889875 0 0,0 -0.686224694491608,0.808370964623663 l -30.851729226203407 -26.648988900999623" fill="#30ff35" stroke="none" /><path d="M 115.41159269507618 114.26474011684316 l 8.574646482547065 7.936564772206533 a32.683904428061986,32.683904428061986 0 0,0 -0.3846493481008162,0.40848427807155874 l -8.437141300709989 -8.08259051022259" fill="#ff6f0a" stroke="none" /><path d="M 114.65682725009322 115.03919595460226 l 20.265850191060256 20.7945476199858 a50.03649246528158,50.03649246528158 0 0,0 -0.6202797952145618,0.5942140125189268 l -19.905897909980382 -21.139373762810305" fill="#acff21" stroke="none" /><path d="M 114.13192950727249 115.5334660781643 l 18.815528781274217 20.68156212612302 a48.95981286231445,48.95981286231445 0 0,0 -0.6265339998231672,0.5602505660422386 l -18.45772975462767 -21.001508222048646" fill="#b9ff1f" stroke="none" /><path d="M 113.59037401385872 116.0094264158162 l 11.27347898698668 13.280129899910602 a38.41990753788693,38.41990753788693 0 0,0 -0.5064579278863799,0.42250521624321347 l -11.043846724938405 -13.471697300065685" fill="#ffbf11" stroke="none" /><path d="M 113.31354834802062 116.24036423190432 l 11.045798042432615 13.474077590128838 a38.422985430144294,38.422985430144294 0 0,0 -0.5136773123887793,0.4137820815513489 l -10.812869959688584 -13.66170796547359" fill="#ffbf11" stroke="none" /><path d="M 113.03279911837588 116.46651593811092 l 11.65805512535534 14.72957181227252 a39.7848485508592,39.7848485508592 0 0,0 -0.539160583417523,0.41925453074910246 l -11.403484597302587 -14.927527394642414" fill="#ffd113" stroke="none" /><path d="M 112.45986205192187 116.90419585922612 l 18.653068960609147 25.306470470686513 a52.438104735065835,52.438104735065835 0 0,0 -0.7291867791732369,0.5278749948405101 l -18.215901171061944 -25.6229462369001" fill="#90ff24" stroke="none" /><path d="M 111.8722381534696 117.32195027204791 l 10.785359389728907 15.736161673984867 a40.07749358263301,40.07749358263301 0 0,0 -0.5708250997301935,0.38407660221326323 l -10.51363800190171 -15.918987950255252" fill="#ffd513" stroke="none" /><path d="M 111.5731344415666 117.5232005979908 l 11.999142207218519 18.168230651993163 a42.77301124633607,42.77301124633607 0 0,0 -0.6161643073166272,0.3993902597166737 l -11.685492267644882 -18.371534753413734" fill="#fff817" stroke="none" /><path d="M 111.27062007382361 117.71928675628689 l 12.469754938842415 19.604525935103542 a44.23428986164484,44.23428986164484 0 0,0 -0.6442110751049729,0.40203535651061184 l -12.131379734947728 -19.8156970884557" fill="#f3ff19" stroke="none" /><line stroke="#e1ed5e" stroke-width="0.3" x1="143.1302829299769" x2="145.66735839644613" y1="173.24464959558577" y2="177.55315839532614" /><path d="M 143.63769802327073 174.10635135553383 a86.0,86.0 0 0,1 -40.68552437913181,11.842963189579606" fill="none" id="id138" stroke="none" /><text fill="#e1ed5e" style="font-size:6.75px; font-family:Arial;" text-anchor="middle"><textPath startOffset="21.407464694133747" xlink:href="#id138">June</textPath></text><path d="M 110.65571695917076 118.09573695890943 l 15.624774300787472 26.534282664672176 a51.792884380636885,51.792884380636885 0 0,0 -0.7700061245176358,0.44456324326791924 l -15.166975708409439 -26.798592805216266" fill="#97ff23" stroke="none" /><path d="M 110.02825361518725 118.45085714620011 l 8.324537284475689 15.316210991260366 a38.43227581612426,38.43227581612426 0 0,0 -0.5823609523555568,0.3100744055182465 l -8.060387516333579 -15.45685586450118" fill="#ffbf11" stroke="none" /><path d="M 109.71004243097381 118.62028667847754 l 8.060898177555769 15.457835124727936 a38.43338022794761,38.43338022794761 0 0,0 -0.5876148651774006,0.3000403370812594 l -7.7943560906647855 -15.593933413482032" fill="#ffbf11" stroke="none" /><path d="M 108.73861861582097 119.09545874513695 l 6.055208049300826 13.231722378787246 a35.55142679016792,35.55142679016792 0 0,0 -0.5571189555239839,0.24919222253884665 l -5.827175690921216 -13.333718352235943" fill="#ff980e" stroke="none" /><path d="M 108.4095320186766 119.2426549942271 l 12.418487156946773 28.415928898380333 a52.01102769056612,52.01102769056612 0 0,0 -0.8211920231681513,0.3505180435943721 l -11.92886005860819 -28.62492159163411" fill="#95ff23" stroke="none" /><path d="M 107.74402155503746 119.51999308798841 l 6.482523134640963 16.340192996829064 a38.579107297151836,38.579107297151836 0 0,0 -0.6176840934067015,0.23893347669533824 l -6.201066778740732 -16.449066361662442" fill="#ffc111" stroke="none" /><path d="M 107.06938296918513 119.77432235084164 l 5.868794023480659 16.41606139274932 a38.433582963365765,38.433582963365765 0 0,0 -0.6231625313645157,0.2167682765802933 l -5.586125720071121 -16.514388101898202" fill="#ffbf11" stroke="none" /><path d="M 106.38641147887787 120.00534299687104 l 6.627367426382281 20.76013407052866 a42.79231895945445,42.79231895945445 0 0,0 -0.7017112321349203,0.21739193344100127 l -6.270015561375737 -20.870842591776306" fill="#fff917" stroke="none" /><path d="M 105.69591212413111 120.21278271476187 l 4.964775049230382 17.61823516774729 a39.304403888559385,39.304403888559385 0 0,0 -0.6509906046483641,0.1774303841235472 l -4.661603043647323 -17.70086604601498" fill="#ffcb12" stroke="none" /><path d="M 104.9986988182912 120.39639698878246 l 4.010875868074443 16.365742256489767 a37.85006364483401,37.85006364483401 0 0,0 -0.6323985862795909,0.14924434442990814 l -3.7293451280549728 -16.432182744565903" fill="#ffb711" stroke="none" /><path d="M 104.64783097203109 120.47920084513623 l 2.7339388449235273 12.046238996303643 a33.35258254632805,33.35258254632805 0 0,0 -0.5594301464585419,0.12192519664554219 l -2.5267462818458495 -12.091395651082903" fill="#ff790b" stroke="none" /><path d="M 103.94208987418118 120.62667999033965 l 3.2728741169949767 17.12506036507939 a38.4350049467532,38.4350049467532 0 0,0 -0.64912196525746,0.11829164546027295 l -2.9784174181864596 -17.178720184471025" fill="#ffbf11" stroke="none" /><path d="M 102.875027216393 120.80226474461374 l 3.896682599833145 28.19445416212668 a49.46245563517148,49.46245563517148 0 0,0 -0.8420916606341619,0.1090256247314705 l -3.4121131173082078 -28.257191383058544" fill="#b3ff20" stroke="none" /><path d="M 102.51750503828377 120.84855314841334 l 2.089817645571101 17.306688007219826 a38.432406247302374,38.432406247302374 0 0,0 -0.6556643511191236,0.07346855812786171 l -1.7924173928511784 -17.34001232585466" fill="#ffbf11" stroke="none" /><path d="M 102.15924093988457 120.88869738790638 l 0.43418745408086673 4.200369755125886 a25.222750859932127,25.222750859932127 0 0,0 -0.431069347440982,0.04082271538377196 l -0.3620185432548695 -4.2072042260148415" fill="#ff0000" stroke="none" /><path d="M 101.80034050326958 120.92268563240118 l 1.4951448725521803 17.375849783134953 a38.44005773717478,38.44005773717478 0 0,0 -0.657930885398605,0.05092801157558417 l -1.1966449923783395 -17.398955561705588" fill="#ffbf11" stroke="none" /><path d="M 101.08105385017728 120.97215588758144 l 1.274649003097661 24.727850134875922 a45.76068057170443,45.76068057170443 0 0,0 -0.7848484913953351,0.03370477121572602 l -0.8499747511014962 -24.74608747451748" fill="#e0ff1b" stroke="none" /><line stroke="#e1ed5e" stroke-width="0.3" x1="101.45913802915013" x2="101.54496967792366" y1="184.9874750549273" y2="189.98673829345242" /><path d="M 101.47630435890484 185.9873277026323 a86.0,86.0 0 0,1 -42.54439059252881,-10.42667462771756" fill="none" id="id139" stroke="none" /><text fill="#e1ed5e" style="font-size:6.75px; font-family:Arial;" text-anchor="middle"><textPath startOffset="22.145653131862474" xlink:href="#id139">July</textPath></text><path d="M 100.36049292484886 120.99690560180557 l 0.29921305208305365 17.427660229531874 a38.43022861372001,38.43022861372001 0 0,0 -0.6597059769319037,0.0056627823825721926 l -2.134587368019882e-15 -17.43022861372001" fill="#ffbf11" stroke="none" /><path d="M 100.0 121.0 l 2.1345767770855217e-15 17.430142132178005 a38.430142132178005,38.430142132178005 0 0,0 -0.6597044923612359,-0.005662769639318505 l 0.2992115675123816 -17.42757376073312" fill="#ffbf11" stroke="none" /><path d="M 99.27912038922189 120.98762331915562 l -0.5984146730002688 17.42219027672182 a38.432464374240446,38.432464374240446 0 0,0 -0.6591611249632102,-0.02830721490168307 l 0.8974015585643178 -17.40935049339431" fill="#ffbf11" stroke="none" /><path d="M 98.91894614982273 120.97215588758144 l -0.7593593509918211 14.731368544760057 a35.75092694800855,35.75092694800855 0 0,0 -0.6126272847019618,-0.03685413615991974 l 1.0121309878262292 -14.716162430775446" fill="#ff9a0e" stroke="none" /><path d="M 98.19965949673042 120.92268563240118 l -2.1165412599805804 24.597417727455813 a45.688311116075916,45.688311116075916 0 0,0 -0.7808359432267098,-0.07394597565563912 l 2.538476766592306 -24.55745999629499" fill="#e1ff1b" stroke="none" /><path d="M 97.48249496171623 120.84855314841334 l -2.0905887503996077 17.313073861371283 a38.438838489205494,38.438838489205494 0 0,0 -0.6544160600308918,-0.08472726083695546 l 2.3874826323212934 -17.27463500433393" fill="#ffbf11" stroke="none" /><path d="M 97.12497278360702 120.80226474461374 l -1.9991030426359446 14.464513764446938 a35.60200573267081,35.60200573267081 0 0,0 -0.6046829349930932,-0.08886756804350664 l 2.2471110832367227 -14.428065123104549" fill="#ff980e" stroke="none" /><path d="M 96.41257539226777 120.69131181640829 l -3.0402718994189293 17.5354803950312 a38.79708756810844,38.79708756810844 0 0,0 -0.6552371142755308,-0.1194060293176928 l 3.3408437472455175 -17.48070619178214" fill="#ffc412" stroke="none" /><path d="M 95.70440661134978 120.55596938700252 l -5.347164760120602 25.588119072609963 a47.1408494247211,47.1408494247211 0 0,0 -0.7907037561849967,-0.1723302034606553 l 5.785630932924735 -25.49255741101559" fill="#cfff1d" stroke="none" /><path d="M 95.00130118170881 120.39639698878247 l -4.217565947307068 17.209108312921416 a38.71838794715098,38.71838794715098 0 0,0 -0.6441904668371833,-0.16375069758278862 l 4.51236170736963 -17.134172383503362" fill="#ffc312" stroke="none" /><path d="M 94.6519064749342 120.30758222061772 l -3.792113431762764 14.399272365844343 a35.89023737034182,35.89023737034182 0 0,0 -0.5944424801082641,-0.16201794132179845 l 4.038737312805723 -14.3320539303784" fill="#ff9c0e" stroke="none" /><path d="M 93.95794788825049 120.11202640906438 l -5.0150192010366865 16.693367873652722 a38.43040299453422,38.43040299453422 0 0,0 -0.630184250175518,-0.19523269159154685 l 5.300844084083838 -16.604818594254528" fill="#ffbf11" stroke="none" /><path d="M 92.59220618246901 119.65005319985036 l -5.152567850372134 13.667798384998385 a35.60676788840204,35.60676788840204 0 0,0 -0.5700944289064528,-0.22052477212420923 l 5.386434541772115 -13.577333724736135" fill="#ff980e" stroke="none" /><path d="M 91.59046798132341 119.24265499422711 l -13.159257205924314 30.11095573826564 a53.86085369681475,53.86085369681475 0 0,0 -0.844042145827393,-0.3775293160459145 l 13.674212754607343 -29.880622671309872" fill="#80ff26" stroke="none" /><path d="M 90.93487009805054 118.94263497670748 l -8.791310609546242 18.370457968581086 a41.36567868274771,41.36567868274771 0 0,0 -0.6378976701774451,-0.31202771594368506 l 9.105368528985757 -18.216836502540183" fill="#ffe615" stroke="none" /><path d="M 90.28995756902619 118.62028667847754 l -6.720914608585035 12.88823994777027 a35.53538517299054,35.53538517299054 0 0,0 -0.5384646189227604,-0.286702080436095 l 6.941168043294358 -12.770967399611601" fill="#ff970e" stroke="none" /><path d="M 89.97174638481275 118.45085714620012 l -6.93633549561799 12.762076056188274 a35.52526541484541,35.52526541484541 0 0,0 -0.5333117328250961,-0.2958190281694105 l 7.154391416599188 -12.641124112585715" fill="#ff970d" stroke="none" /><line stroke="#e1ed5e" stroke-width="0.3" x1="58.13341422392154" x2="55.67067388415222" y1="173.97424548756322" y2="178.32567169271397" /><path d="M 57.64086615596768 174.84453072859336 a86.0,86.0 0 0,1 -31.369924170532247,-30.572349798747897" fill="none" id="id140" stroke="none" /><text fill="#e1ed5e" style="font-size:6.75px; font-family:Arial;" text-anchor="middle"><textPath startOffset="22.145653131862474" xlink:href="#id140">August</textPath></text><path d="M 88.72937992617639 117.7192867562869 l -7.794252343856758 12.253859275446699 a35.52265253809261,35.52265253809261 0 0,0 -0.5117196558626198,-0.33169049850866544 l 8.003457631976387 -12.11825493523414" fill="#ff970d" stroke="none" /><path d="M 87.83215693770417 117.11559508785305 l -8.537627865732041 12.009242789581926 a35.734754899653055,35.734754899653055 0 0,0 -0.49691557239671835,-0.35972855337901083 l 8.742524448502714 -11.86091346482985" fill="#ff9a0e" stroke="none" /><path d="M 86.13680546590413 115.77377054828092 l -5.047823822182932 5.743496893405808 a28.646455512481563,28.646455512481563 0 0,0 -0.3665859263691539,-0.3278033958402926 l 5.145674775375457 -5.655997967682134" fill="#ff3404" stroke="none" /><path d="M 85.34317274990678 115.03919595460226 l -12.16689749763518 12.484308677741408 a38.432479969272606,38.432479969272606 0 0,0 -0.46852501912272176,-0.46452055584228685 l 12.379414436887863 -12.273608111670463" fill="#ffbf11" stroke="none" /><path d="M 83.20337586046588 112.60449989151573 l -3.6021852396081555 2.703146958857883 a25.503636528588146,25.503636528588146 0 0,0 -0.25977030222538355,-0.35242830529981006 l 3.6480575614173696 -2.6409123442891933" fill="#ff0400" stroke="none" /><line stroke="#e1ed5e" stroke-width="0.3" x1="26.387840678322732" x2="22.057713659400548" y1="142.50000000000003" y2="145.00000000000006" /><path d="M 25.521815274538298 143.00000000000003 a86.0,86.0 0 0,1 -11.493303480769221,-40.785679425670985" fill="none" id="id141" stroke="none" /><text fill="#e1ed5e" style="font-size:6.75px; font-family:Arial;" text-anchor="middle"><textPath startOffset="21.40746469413373" xlink:href="#id141">September</textPath></text><path d="M 81.81346652052679 110.50000000000001 l -10.06804122936962 5.812786313988807 a32.625572627977604,32.625572627977604 0 0,0 -0.2758672926571719,-0.4874310730317802 l 10.16634188704817 -5.639098470857905" fill="#ff6e0a" stroke="none" /><path d="M 79.83685265289637 105.86919833188381 l -9.202352748788995 2.6786707686464997 a30.584287829564886,30.584287829564886 0 0,0 -0.1424084658476227,-0.5053574061870982 l 9.246979706711192 -2.520305438556406" fill="#ff5107" stroke="none" /><path d="M 79.64726062577567 105.17358676015961 l -4.262409439789523 1.0834878115720392 a25.397963172905385,25.397963172905385 0 0,0 -0.10378390672929032,-0.4234737558005148 l 4.2803808730351065 -1.010158231163425" fill="#ff0300" stroke="none" /><path d="M 79.2786578344484 103.40968896794605 l -11.889481597380009 1.9564096723705147 a33.0493697536669,33.0493697536669 0 0,0 -0.08731093903352917,-0.5605988612368302 l 11.921314028551805 -1.7520226292022345" fill="#ff740a" stroke="none" /><path d="M 79.17382384314188 102.69636545807758 l -10.520159298190924 1.3620452420774625 a31.607964880257608,31.607964880257608 0 0,0 -0.06504906189060132,-0.5386995471536823 l 10.541990446341186 -1.181252018000381" fill="#ff6008" stroke="none" /><path d="M 79.0935383218832 101.97986365728391 l -21.35462650748263 2.0223053325800735 a42.450169979099506,42.450169979099506 0 0,0 -0.062475284281861235,-0.7260575043722893 l 21.386195414462236 -1.6554267808321221" fill="#fff417" stroke="none" /><path d="M 79.01933749520258 100.90099992219065 l -12.044975400379135 0.517263070031671 a33.05607703522821,33.05607703522821 0 0,0 -0.01947996666510712,-0.5671379749465993 l 12.05208005404109 -0.3104188305209518" fill="#ff740a" stroke="none" /><line stroke="#e1ed5e" stroke-width="0.3" x1="15.003131293944662" x2="10.003315487706104" y1="100.72959589197737" y2="100.7725132973878" /><path d="M 14.003168132696942 100.73817937305945 a86.0,86.0 0 0,1 10.791469493833604,-42.45332614584628" fill="none" id="id142" stroke="none" /><text fill="#e1ed5e" style="font-size:6.75px; font-family:Arial;" text-anchor="middle"><textPath startOffset="22.145653131862435" xlink:href="#id142">October</textPath></text><path d="M 79.00077361379809 100.18025310272382 l -4.498883368748049 0.03861750290678716 a25.499049108103684,25.499049108103684 0 0,0 0.0,-0.43774121126120774 l 4.498883368748049 0.038617502906785506" fill="#ff0400" stroke="none" /><path d="M 79.01933749520258 99.09900007780938 l -18.84365392336202 -0.8092275787217871 a39.86102177660587,39.86102177660587 0 0,0 0.035226533657659126,-0.68338534211444 l 18.82698580024779 1.132584714212939" fill="#ffd213" stroke="none" /><path d="M 79.03789590574601 98.7389718711861 l -22.275827424124067 -1.3400584620760831 a43.31609831738379,43.31609831738379 0 0,0 0.05102231857889153,-0.7418533142773742 l 22.249541144380114 1.7222552005077822" fill="#ffff18" stroke="none" /><path d="M 79.0935383218832 98.0201363427161 l -19.41601649402385 -1.838716948740288 a40.50288636365887,40.50288636365887 0 0,0 0.07149262357561337,-0.69162628021415 l 19.381591477966573 2.171747751237351" fill="#ffdb14" stroke="none" /><path d="M 79.13060592940154 97.66154086499901 l -26.130926565330448 -2.9280248255422765 a47.29446049155001,47.29446049155001 0 0,0 0.09733180542473015,-0.8060469741152608 l 26.07681267364605 3.3761654765809737" fill="#cdff1d" stroke="none" /><path d="M 79.17382384314186 97.30363454192245 l -20.303142668489176 -2.628648301512958 a41.47260105873391,41.47260105873391 0 0,0 0.09747144166508617,-0.7052547965441981 l 20.255026710268883 2.976791406257223" fill="#ffe715" stroke="none" /><path d="M 79.2786578344484 96.59031103205396 l -12.895304850241807 -2.121917505868282 a34.068719182933734,34.068719182933734 0 0,0 0.09991087088984722,-0.5762593530119008 l 12.856979161859725 2.3429698918007755" fill="#ff830c" stroke="none" /><path d="M 79.34024301695615 96.23510406497455 l -4.171915293987574 -0.760261940374973 a25.240622057928547,25.240622057928547 0 0,0 0.08133935617927338,-0.42560188227028767 l 4.1582496455261415 0.8317663876785751" fill="#ff0000" stroke="none" /><path d="M 79.407916724674 95.88100663000787 l -14.23302506885853 -2.847003632886773 a35.514972693616265,35.514972693616265 0 0,0 0.12471216125892225,-0.5967928379345286 l 14.18205519677524 3.090912922106711" fill="#ff970d" stroke="none" /><path d="M 79.56144815229197 95.17655741523228 l -15.049910249862716 -3.5517378401865796 a36.46333211873612,36.46333211873612 0 0,0 0.1490004152650693,-0.6079725407978664 l 14.98672230808135 3.8095662055925636" fill="#ffa40f" stroke="none" /><path d="M 79.73907114497095 94.47779374421319 l -12.601567863887379 -3.434613357985712 a34.06124349160573,34.06124349160573 0 0,0 0.15859808335352554,-0.5628086473141549 l 12.540751288459273 3.65042992920288" fill="#ff830c" stroke="none" /><path d="M 80.05021161711548 93.44210830539832 l -18.20185792280435 -5.983312234062882 a40.1600536829165,40.1600536829165 0 0,0 0.22090817480063288,-0.6530757659877982 l 18.096464326431352 6.294889674524842" fill="#ffd614" stroke="none" /><path d="M 80.28708602549916 92.7611449362534 l -12.264415424844968 -4.5036632238577505 a34.065177692902,34.065177692902 0 0,0 0.20628787394981318,-0.5472030941256515 l 12.18529686708072 4.713534598177547" fill="#ff830c" stroke="none" /><path d="M 80.5471966667186 92.08871423366112 l -16.87572570018179 -6.863210728094395 a39.21795211888554,39.21795211888554 0 0,0 0.2589769709092988,-0.621450452926391 l 16.755422884736014 7.1518936904620505" fill="#ffca12" stroke="none" /><path d="M 81.29705330413844 90.45014215332179 l -10.407455231772753 -5.314120797397635 a32.685675173077854,32.685675173077854 0 0,0 0.25944944340277204,-0.4975285174162261 l 10.31469771939504 5.491995557918348" fill="#ff6f0a" stroke="none" /><path d="M 81.46374523516351 90.13048839642627 l -3.787419269931399 -2.0165874339997187 a25.290823884199078,25.290823884199078 0 0,0 0.2073301401773349,-0.3814641058459383 l 3.7522437801387136 2.0813063733202766" fill="#ff0100" stroke="none" /><path d="M 81.63589988554816 89.8137432299009 l -20.943379850022414 -11.616939760536475 a44.94949788497158,44.94949788497158 0 0,0 0.3800729087339759,-0.6715524118502105 l 20.74087357626707 11.97474894248579" fill="#eaff1a" stroke="none" /><line stroke="#e1ed5e" stroke-width="0.3" x1="26.387840678322718" x2="22.05771365940052" y1="57.49999999999999" y2="54.99999999999999" /><path d="M 25.521815274538284 56.99999999999999 a86.0,86.0 0 0,1 29.574782752854787,-30.34633250058573" fill="none" id="id143" stroke="none" /><text fill="#e1ed5e" style="font-size:6.75px; font-family:Arial;" text-anchor="middle"><textPath startOffset="21.40746469413373" xlink:href="#id143">November</textPath></text><path d="M 82.18462484594161 88.88188828441811 l -26.66396523696149 -16.640286366206386 a52.43033840904748,52.43033840904748 0 0,0 0.4830639478199177,-0.7594567607619923 l 26.374383597515685 17.095556801647053" fill="#90ff24" stroke="none" /><path d="M 82.78059297857968 87.97951657250589 l -14.696673954905583 -10.259419821743396 a38.92339031588559,38.92339031588559 0 0,0 0.38716707385777105,-0.5445989756419669 l 14.518391782517838 10.510196024094883" fill="#ffc612" stroke="none" /><path d="M 83.64595745247003 86.82634096563983 l -15.860836567632969 -12.776367209174598 a41.366681017996896,41.366681017996896 0 0,0 0.45021364400972297,-0.5491874419773238 l 15.639176104384616 13.046756932850414" fill="#ffe615" stroke="none" /><path d="M 84.10781606972428 86.27271002978789 l -9.58859941672164 -8.282403801707142 a33.67041639050933,33.67041639050933 0 0,0 0.3815803129927849,-0.43416835045386126 l 9.445008039770263 8.445784429972303" fill="#ff7d0b" stroke="none" /><path d="M 84.34580500576568 86.00192230759919 l -9.19034588626888 -8.2180639619866 a33.32878878043428,33.32878878043428 0 0,0 0.3850305136328182,-0.4232159819008257 l 9.047917671794195 8.374617519445083" fill="#ff780b" stroke="none" /><path d="M 84.83555147118756 85.47280134310135 l -7.340811249963835 -7.032331121596835 a31.165686932587242,31.165686932587242 0 0,0 0.37341419921147195,-0.38315586438644234 l 7.219010249601561 7.157309678051008" fill="#ff5908" stroke="none" /><path d="M 85.34317274990677 84.96080404539775 l -43.17667599094001 -44.30307322425367 a82.86265146871898,82.86265146871898 0 0,0 1.0272108605457917,-0.984044767953142 l 42.40979264452892 45.037730122512386" fill="#4cddff" stroke="none" /><path d="M 86.13680546590413 84.22622945171909 l -8.628330076134285 -9.81745574593494 a34.07021488829141,34.07021488829141 0 0,0 0.44262160716262877,-0.38232600221971635 l 8.458528989208808 9.964125880619365" fill="#ff830c" stroke="none" /><path d="M 88.4268655584334 82.4767994020092 l -6.805688507294907 -10.304679818843091 a33.34924379171446,33.34924379171446 0 0,0 0.48041073335032386,-0.3113964331998638 l 6.627792141687557 10.419990093746861" fill="#ff790b" stroke="none" /><path d="M 88.72937992617638 82.28071324371311 l -9.353678197949174 -14.705535731829686 a38.42825513328599,38.42825513328599 0 0,0 0.5596542327514409,-0.34926563308498965 l 9.099859836408033 14.863937161756212" fill="#ffbf11" stroke="none" /><line stroke="#e1ed5e" stroke-width="0.3" x1="56.869717070023135" x2="54.33264160355391" y1="26.7553504044142" y2="22.446841604673864" /><path d="M 56.362301976729285 25.89364864446614 a86.0,86.0 0 0,1 42.16139366436587,-11.88097634709845" fill="none" id="id144" stroke="none" /><text fill="#e1ed5e" style="font-size:6.75px; font-family:Arial;" text-anchor="middle"><textPath startOffset="22.145653131862474" xlink:href="#id144">December</textPath></text><path d="M 89.34428304082924 81.90426304109057 l -16.206022849936822 -27.52136977419814 a52.93839336693099,52.93839336693099 0 0,0 0.7870364356440432,-0.45439569798112955 l 15.73119394643238 27.795512369455444" fill="#8aff24" stroke="none" /><path d="M 90.61103034731259 81.2157712731953 l -5.520809432299674 -11.045317108223339 a33.34821310186135,33.34821310186135 0 0,0 0.5142608104029863,-0.2515507323059431 l 5.330388372634634 11.138461590626497" fill="#ff790b" stroke="none" /><path d="M 91.26138138417902 80.90454125486306 l -6.49305608099153 -14.188499347020182 a36.6036306990166,36.6036306990166 0 0,0 0.5736078223747133,-0.2565674829512604 l 6.248534855761198 14.297870580881288" fill="#ffa60f" stroke="none" /><path d="M 91.92203290615298 80.6158196554323 l -5.051886018030022 -12.122687368742127 a34.133206058667746,34.133206058667746 0 0,0 0.54279199469331,-0.22074877888438202 l 4.843039562146271 12.207623404205801" fill="#ff840c" stroke="none" /><path d="M 92.592206182469 80.34994680014964 l -4.60814905937963 -12.223662861047394 a34.0634211251881,34.0634211251881 0 0,0 0.5489252971684588,-0.2015729725278806 l 4.397634610557044 12.300966682583995" fill="#ff830c" stroke="none" /><path d="M 93.95794788825049 79.88797359093562 l -5.515287861922116 -18.358599542176304 a40.16915692851048,40.16915692851048 0 0,0 0.6621024515178672,-0.1927283740523345 l 5.199325398022625 18.450571610531156" fill="#ffd614" stroke="none" /><path d="M 94.6519064749342 79.69241777938228 l -1.4932261877048665 -5.6700230537615735 a26.863351079189727,26.863351079189727 0 0,0 0.44694822253796274,-0.11361249039172251 l 1.3956726719415256 5.694820775988559" fill="#ff1902" stroke="none" /><path d="M 95.35216902796891 79.52079915486377 l -3.858495844967055 -17.001244633187007 a38.43359714066773,38.43359714066773 0 0,0 0.6446551132125315,-0.1404995814840627 l 3.5660783151354054 17.06497567280478" fill="#ffbf11" stroke="none" /><path d="M 96.41257539226777 79.30868818359171 l -1.5183367165927502 -8.75736269902599 a29.8880114664218,29.8880114664218 0 0,0 0.5062780032197121,-0.08330785276842928 l 1.3677812103199654 8.782136550290087" fill="#ff4606" stroke="none" /><path d="M 97.84075906011542 79.11130261209362 l -1.792381678605222 -17.33966682292229 a38.43205890340414,38.43205890340414 0 0,0 0.6568229866878356,-0.06220181973562293 l 1.494459128532371 17.367880398163095" fill="#ffbf11" stroke="none" /><path d="M 98.9189461498227 79.02784411241856 l -0.5363887411762105 -10.405798281414178 a31.419613752685024,31.419613752685024 0 0,0 0.538882642170921,-0.023141939324121456 l 0.3576803384044694 10.413472789164128" fill="#ff5d08" stroke="none" /><path d="M 99.63950707515114 79.00309439819443 l -0.2491810249256709 -14.513545474766495 a35.51568439417508,35.51568439417508 0 0,0 0.6096739497745195,-0.005233317603021691 l 3.5553172861519405e-15 14.515684394175082" fill="#ff970d" stroke="none" /></svg>