<?xml version="1.0" encoding="utf-8" ?>
<svg baseProfile="full" height="200mm" version="1.1" viewBox="0,0,200,200" width="200mm" xmlns="http://www.w3.org/2000/svg" xmlns:ev="http://www.w3.org/2001/xml-events" xmlns:xlink="http://www.w3.org/1999/xlink"><defs /><rect fill="#1a1a1a" height="200" width="200" x="0" y="0" /><text alignment-baseline="middle" fill="#e1ed5e" style="dominant-baseline: central; font-size:9.0px; font-family:Arial;" text-anchor="middle" x="100.0" y="100.0">2025</text><line stroke="#e1ed5e" stroke-width="0.3" x1="100.0" x2="100.0" y1="15.0" y2="10.0" /><path d="M 100.0 14.0 a86.0,86.0 0 0,1 42.46469731375804,11.215312516191453" fill="none" id="id145" stroke="none" /><text fill="#e1ed5e" style="font-size:6.75px; font-family:Arial;" text-anchor="middle"><textPath startOffset="22.20632615414155" xlink:href="#id145">January</textPath></text><path d="M 100.0 79.0 l 0.0 -7.259640090533697 a28.259640090533697,28.259640090533697 0 0,0 0.48644324971406083,0.004186970625903761 l -0.12496277044153248 7.258564496516352" fill="#ff0000" stroke="none" /><path d="M 101.44485096284872 79.0497635885617 l 1.3164740999268898 -19.088781010759234 a40.13412304059166,40.13412304059166 0 0,0 0.6887967469127686,0.053463884255069365 l -1.6448610362019995 19.0632918643157" fill="#ffb610" stroke="none" /><path d="M 102.16513564639614 79.11191278185805 l 1.8441868100094285 -17.79174205465741 a38.88706544768252,38.88706544768252 0 0,0 0.6652156529335262,0.0747447294820023 l -2.15016916645268 17.757361371704803" fill="#ffa40f" stroke="none" /><path d="M 102.88285421437855 79.19881850522331 l 2.3775825442681144 -17.15540306390242 a38.31937507647897,38.31937507647897 0 0,0 0.6525808179970443,0.09617344904929209 l -2.672532342693814 17.111935130692157" fill="#ff9b0e" stroke="none" /><path d="M 103.59715602781102 79.31037775812273 l 2.5663918474628353 -14.761016046599185 a35.98245513401199,35.98245513401199 0 0,0 0.6093112666833637,0.11134773936678173 l -2.8200982352491 14.714652825881664" fill="#ff790b" stroke="none" /><path d="M 103.95276090670814 79.375362276772 l 3.4862511663537075 -18.190492421689907 a39.5215539774194,39.5215539774194 0 0,0 0.6670364895074081,0.13380124464169485 l -3.798854065328241 18.127787220971" fill="#ffad10" stroke="none" /><path d="M 104.66035177308747 79.52364482259891 l 4.2074858904626495 -18.486582063297778 a39.95934212733884,39.95934212733884 0 0,0 0.6693690497599224,0.15841802763155033 l -4.525078627185096 18.41141812352536" fill="#ffb310" stroke="none" /><path d="M 105.36241919743992 79.69619591428918 l 4.782919249642848 -18.10963519019278 a39.73059537949803,39.73059537949803 0 0,0 0.6597210700585544,0.18032668955480152 l -5.093938208925113 18.024621959811686" fill="#ffb010" stroke="none" /><path d="M 106.0581310904928 79.89281104454417 l 8.926971947843827 -29.628991032735893 a51.94459464551983,51.94459464551983 0 0,0 0.8539063752498071,0.26531286739336196 l -9.435663695804351 29.470938030460008" fill="#aaff21" stroke="none" /><path d="M 106.74666289553966 80.11325718540242 l 4.677851062283685 -13.788627420843836 a35.56051292749521,35.56051292749521 0 0,0 0.5779734765187959,0.20164359715070554 l -4.914506542865754 13.706062970520923" fill="#ff720a" stroke="none" /><path d="M 107.08798089147638 80.2323363322302 l 5.900337780501011 -16.455446841206818 a38.48129619529945,38.48129619529945 0 0,0 0.6215969426964801,0.22893939986750586 l -6.182717048970067 16.351444173532986" fill="#ff9e0e" stroke="none" /><path d="M 107.76421540070413 80.48803036053334 l 6.538120084046585 -16.430713728979587 a38.68376000394406,38.68376000394406 0 0,0 0.6165751646805553,0.25151649095360096 l -6.819979118315528 16.315736351842407" fill="#ffa10e" stroke="none" /><path d="M 108.43124777332544 80.76684994638697 l 15.243605756921943 -34.773329495613055 a58.9677752927787,58.9677752927787 0 0,0 0.9261250821805338,0.41552532847623075 l -15.839912957569256 34.50578383662029" fill="#57ff2a" stroke="none" /><path d="M 109.41281617654863 81.2277094730956 l 5.26361277940322 -10.497397002425524 a32.743124086802,32.743124086802 0 0,0 0.5016550846908833,0.2569672187678702 l -5.443528351682859 10.405237258345153" fill="#ff4706" stroke="none" /><path d="M 110.05341064243156 81.56283822128135 l 8.647751073925855 -15.859293054152634 a39.06379735310601,39.06379735310601 0 0,0 0.5875863130103708,0.3269911470240684 l -8.91946147600826 15.708086509568384" fill="#ffa60f" stroke="none" /><line stroke="#e1ed5e" stroke-width="0.3" x1="143.23703022742887" x2="145.7803849466894" y1="26.81831364943548" y2="22.513508569990506" /><path d="M 143.74570117128098 25.957352633546492 a86.0,86.0 0 0,1 28.547481713284135,27.462654790039103" fill="none" id="id146" stroke="none" /><text fill="#e1ed5e" style="font-size:6.75px; font-family:Arial;" text-anchor="middle"><textPath startOffset="19.985693538727396" xlink:href="#id146">February</textPath></text><path d="M 111.2981086023043 82.29822771554956 l 23.60885863702317 -36.99014181923592 a64.8822150529133,64.8822150529133 0 0,0 0.9362595524375364,0.6089692566591465 l -24.242085215244987 36.57827363841725" fill="#33ff4f" stroke="none" /><path d="M 111.90073688211348 82.69761687909136 l 6.688275713916191 -9.724028853572573 a32.80210867474423,32.80210867474423 0 0,0 0.46246109212308395,0.3239835489736451 l -6.854667945622926 9.607460461834991" fill="#ff4806" stroke="none" /><path d="M 112.48926042617603 83.11751280151076 l 10.363178854004467 -14.008534402221052 a38.425111536466446,38.425111536466446 0 0,0 0.5283523213532294,0.39794401455090156 l -10.602777329116078 13.828073798164302" fill="#ff9d0e" stroke="none" /><path d="M 113.6212207817346 84.01681056812373 l 11.32054607539459 -13.283569460818429 a38.45302211840459,38.45302211840459 0 0,0 0.5000837524433064,0.4336677022117085 l -11.54752362648466 13.08673676518705" fill="#ff9d0e" stroke="none" /><path d="M 114.16331599549186 84.49514656593476 l 13.97513044364076 -15.298843104225202 a41.7209765996797,41.7209765996797 0 0,0 0.5260659849511841,0.48892100026992447 l -14.23640431238679 15.056017517880637" fill="#ffcc13" stroke="none" /><path d="M 114.68862486808459 84.99185889309783 l 9.310579516371133 -9.51310911835905 a34.31112827781612,34.31112827781612 0 0,0 0.41853727241157707,0.41673994035313455 l -9.472952588950033 9.351433327355798" fill="#ff5f08" stroke="none" /><path d="M 114.94478906791727 85.2469230424477 l 12.12055946994921 -11.965076644181105 a38.031471485626355,38.031471485626355 0 0,0 0.4558990703280173,0.4698440666326839 l -12.324722803980336 11.754668381998306" fill="#ff970d" stroke="none" /><path d="M 115.4437574822437 85.77008943001954 l 11.019309416283823 -10.153214832397236 a35.98375625284303,35.98375625284303 0 0,0 0.41579463282261203,0.4591308186438679 l -11.19244768972247 9.962031226483818" fill="#ff790b" stroke="none" /><path d="M 115.9244219780498 86.31012108654704 l 9.017292445034359 -7.751970016234925 a32.89136670748485,32.89136670748485 0 0,0 0.3653907981313999,0.4325074547971 l -9.149393856652877 7.595603611808719" fill="#ff4a06" stroke="none" /><path d="M 116.15771136456269 86.58626213691792 l 8.955205649025102 -7.434393298389358 a32.63898242680466,32.63898242680466 0 0,0 0.35514555721983126,0.4353664602681424 l -9.081849698321342 7.279142668513114" fill="#ff4606" stroke="none" /><path d="M 116.82858285166822 87.43820079747576 l 50.48574855500462 -37.68539760757273 a84.0,84.0 0 0,0 0.8549495499454944,1.1661502253140252 l -51.126960717463746 36.81078493858721" fill="#4dd2ff" stroke="none" /><line stroke="#e1ed5e" stroke-width="0.3" x1="172.23445277983987" x2="176.4835382374775" y1="55.19839476539836" y2="52.563006222186495" /><path d="M 173.08426987136738 54.67131705675599 a86.0,86.0 0 0,1 12.851231095245387,41.99856678651699" fill="none" id="id147" stroke="none" /><text fill="#e1ed5e" style="font-size:6.75px; font-family:Arial;" text-anchor="middle"><textPath startOffset="22.20632615414155" xlink:href="#id147">March</textPath></text><path d="M 118.21658344932153 89.55222093294921 l 12.56684300907845 -7.207476621202176 a35.48700322565022,35.48700322565022 0 0,0 0.2993453073740342,0.5325018999714068 l -12.689045957744918 6.990091211295975" fill="#ff710a" stroke="none" /><path d="M 118.56541770881063 90.18545643968196 l 11.975633451878526 -6.330877011190797 a34.54606216967042,34.54606216967042 0 0,0 0.2733918882887328,0.5281061092835324 l -12.082834773327376 6.123798179646919" fill="#ff6309" stroke="none" /><path d="M 119.04729006885535 91.15688171328212 l 18.98639957879696 -8.814848553638999 a41.932867075232025,41.932867075232025 0 0,0 0.2983177706725532,0.657303664157985 l -19.13531966643286 8.48672288063895" fill="#ffcf13" stroke="none" /><path d="M 119.61058180528143 92.48833698450437 l 13.995725116266264 -5.3609409335620635 a35.98732828836506,35.98732828836506 0 0,0 0.21660157941595257,0.580384545304715 l -14.085931284183843 5.119233251228016" fill="#ff790b" stroke="none" /><path d="M 119.97218684219823 93.5106431181261 l 9.67600313424035 -3.1439239991260246 a31.173951777264804,31.173951777264804 0 0,0 0.16142839547866336,0.5117721279544227 l -9.72868701348722 2.976901704745183" fill="#ff2f04" stroke="none" /><path d="M 120.08093135843002 93.85539295169968 l 12.099471796034033 -3.7023432007007373 a33.65324317788914,33.65324317788914 0 0,0 0.16473118770251616,0.555391672672819 l -12.161408880848251 3.4935221412813884" fill="#ff5507" stroke="none" /><path d="M 120.28053869075195 94.5502522615342 l 14.795704371168235 -3.9758735044129607 a36.320588695024085,36.320588695024085 0 0,0 0.15704965153039063,0.6051763719313782 l -14.861950354568927 3.720600706932732" fill="#ff7e0b" stroke="none" /><path d="M 120.53481517161879 95.60439243477599 l 21.5592595741935 -4.614896393902275 a43.047651623560874,43.047651623560874 0 0,0 0.14886432238613892,0.725915304042835 l -21.63550319249464 4.243105433696028" fill="#ffdf14" stroke="none" /><path d="M 120.73433829027371 96.67025291283417 l 16.708642124235464 -2.683256714769019 a37.92272401929219,37.92272401929219 0 0,0 0.09795639441783367,0.6454102488097683 l -16.752354412092597 2.395247353567169" fill="#ff960d" stroke="none" /><path d="M 120.83666639777658 97.38593545837742 l 14.438684558364853 -1.8114055584113262 a35.55186592410084,35.55186592410084 0 0,0 0.0709507690925144,0.6078628606801763 l -14.467725680460957 1.5625989594062972" fill="#ff720a" stroke="none" /><path d="M 120.87857604477298 97.74499172005257 l 14.058650056028034 -1.5184164002967717 a35.14041123031955,35.14041123031955 0 0,0 0.0597769758978812,0.6019459895549816 l -14.082704157608143 1.276194880037355" fill="#ff6c0a" stroke="none" /><path d="M 120.94382443527127 98.46500227214037 l 13.75698909648029 -1.0082660437949515 a34.79388811813941,34.79388811813941 0 0,0 0.038636805122547635,0.5976942741910861 l -13.772306492607253 0.7713127053508302" fill="#ff6709" stroke="none" /><path d="M 120.96714384426684 98.82574320788733 l 12.8236697432445 -0.7181846706284716 a33.84376482597413,33.84376482597413 0 0,0 0.02756879523650121,0.5819336947010687 l -12.834132146714497 0.49733986930440316" fill="#ff5808" stroke="none" /><line stroke="#e1ed5e" stroke-width="0.3" x1="184.98032266829074" x2="189.97916517819016" y1="98.17113171792111" y2="98.06355123074" /><path d="M 185.9800911702706 98.14961562048488 a86.0,86.0 0 0,1 -9.607161424134198,41.387399972396054" fill="none" id="id148" stroke="none" /><text fill="#e1ed5e" style="font-size:6.75px; font-family:Arial;" text-anchor="middle"><textPath startOffset="21.466115282336823" xlink:href="#id148">April</textPath></text><path d="M 120.99513854157772 99.54816195383933 l 17.51144393144602 -0.37686517742035636 a38.51549873472433,38.51549873472433 0 0,0 0.008559598021552102,0.6629502997771891 l -17.515336536585288 0.07537861958270455" fill="#ff9e0e" stroke="none" /><path d="M 120.99824983174949 100.27111621757518 l 18.54639702399048 0.23945943357570945 a39.54794283449815,39.54794283449815 0 0,0 -0.014647686681125486,0.680620443092285 l -18.539527274624348 -0.5586696924581093" fill="#ffad10" stroke="none" /><path d="M 120.95626037817324 101.35467743843564 l 24.78337550947937 1.6020739886367419 a45.835103033990585,45.835103033990585 0 0,0 -0.057672436006318495,0.786894568342476 l -24.752126514808715 -2.028441693475988" fill="#f9ff18" stroke="none" /><path d="M 120.89721153311464 102.0752229133903 l 17.62407423870274 1.7501800481605423 a38.71076291333281,38.71076291333281 0 0,0 -0.07155536778257215,0.6625138368427438 l -17.591336569419116 -2.0532902068880774" fill="#ffa10e" stroke="none" /><path d="M 120.8583938346157 102.4346265915055 l 13.052684223578614 1.5235311190888932 a34.141297976657036,34.141297976657036 0 0,0 -0.07315747053824784,0.5831370204671698 l -13.024525243793518 -1.7479858938434578" fill="#ff5d08" stroke="none" /><path d="M 120.76222939487914 103.15116336523771 l 16.20240004529936 2.459100536875185 a37.38795114339729,37.38795114339729 0 0,0 -0.10204817940787586,0.6354541105854371 l -16.157670111530194 -2.737633877153827" fill="#ff8e0d" stroke="none" /><path d="M 120.49622156327973 104.57218783832717 l 16.612759877278148 3.705885908650684 a38.02108636685797,38.02108636685797 0 0,0 -0.14799152773012114,0.637543628163232 l -16.54650778361747 -3.991298194162481" fill="#ff970d" stroke="none" /><path d="M 120.32669344350535 105.2749913415812 l 12.55832969350782 3.259019012713163 a33.974314996024496,33.974314996024496 0 0,0 -0.15177123070226015,0.5647972097267662 l -12.500370386463784 -3.4747071556154774" fill="#ff5a08" stroke="none" /><path d="M 120.23288151984713 105.62410040840565 l 16.010532861597383 4.450421177891739 a37.61756333440366,37.61756333440366 0 0,0 -0.1787861811036657,0.6223781509653087 l -15.931554043607617 -4.72535680436163" fill="#ff910d" stroke="none" /><path d="M 120.02730092923936 106.31721596034902 l 23.71230381444278 7.47957723522019 a45.86397851925676,45.86397851925676 0 0,0 -0.24396960951549404,0.7508612507769165 l -23.58004195391104 -7.886637385974901" fill="#f9ff18" stroke="none" /><path d="M 119.79798401119884 107.00284435728193 l 14.013115575976705 4.956649489344936 a35.863908715607224,35.863908715607224 0 0,0 -0.2108725062809853,0.5802305711475509 l -13.925718808690494 -5.197127857498618" fill="#ff770b" stroke="none" /><path d="M 119.54520255179757 107.68017299344265 l 9.379750622983016 3.685718131032399 a31.077908507759496,31.077908507759496 0 0,0 -0.19993067589267854,0.4962115413702363 l -9.314917332832945 -3.846629040245449" fill="#ff2d04" stroke="none" /><path d="M 119.12269723197855 108.67885076344098 l 13.799760493103603 6.2630318536128 a36.154502884172466,36.154502884172466 0 0,0 -0.26207776450040837,0.5644921892014187 l -13.689908111763362 -6.499644110093049" fill="#ff7b0b" stroke="none" /><path d="M 118.81262510543309 109.33194174019688 l 14.247154981715237 7.0672550751317145 a36.903695148297714,36.903695148297714 0 0,0 -0.28718337861603915,0.5666400511036339 l -14.12339293331293 -7.311449337938043" fill="#ff870c" stroke="none" /><path d="M 118.64920377521936 109.65438752849418 l 11.248445463790253 5.8231360925373465 a33.666350670342055,33.666350670342055 0 0,0 -0.27084978585597524,0.5123457224326751 l -11.146543169709384 -6.015896830056156" fill="#ff5607" stroke="none" /><line stroke="#e1ed5e" stroke-width="0.3" x1="174.80103733775053" x2="179.2010983576182" y1="140.37084112569926" y2="142.7455964860345" /><path d="M 175.68104954172406 140.8457921977663 a86.0,86.0 0 0,1 -30.038265399797805,32.042727171017184" fill="none" id="id149" stroke="none" /><text fill="#e1ed5e" style="font-size:6.75px; font-family:Arial;" text-anchor="middle"><textPath startOffset="22.206326154141568" xlink:href="#id149">May</textPath></text><path d="M 118.48025628344425 109.97397251340804 l 16.599383503598222 8.95884733767075 a39.862674209115184,39.862674209115184 0 0,0 -0.33109479830564653,0.6010332319099679 l -16.442712295841066 -9.243251087978523" fill="#ffb210" stroke="none" /><path d="M 118.12598468904814 110.60418214915192 l 11.404042477756128 6.671667539466644 a34.212241770102416,34.212241770102416 0 0,0 -0.30175054576470967,0.5057512713606171 l -11.28751105629319 -6.866980904713365" fill="#ff5e08" stroke="none" /><path d="M 117.94076556474637 110.91462005526583 l 18.889030588876565 11.491515863458996 a43.10996185947964,43.10996185947964 0 0,0 -0.3911415293712538,0.6306446875207277 l -18.68842441983735 -11.814956882344998" fill="#ffe015" stroke="none" /><path d="M 117.55443506779139 111.5257021239791 l 11.154944963942679 7.3239937581175605 a34.34442511753635,34.34442511753635 0 0,0 -0.3287201330989923,0.49139199764964603 l -11.027221725432966 -7.514922669973013" fill="#ff6008" stroke="none" /><path d="M 117.35343817320211 111.8261652097733 l 13.530162240127373 9.220647365078154 a37.373320618472334,37.373320618472334 0 0,0 -0.3668620194585961,0.5284921008924467 l -13.369439313506641 -9.45218072815762" fill="#ff8e0d" stroke="none" /><path d="M 117.14729908036423 112.12312394758627 l 10.736285218214169 7.590543316882762 a34.14854243375735,34.14854243375735 0 0,0 -0.34346962966327454,0.47704927489954513 l -10.60403579617529 -7.774226197233438" fill="#ff5d08" stroke="none" /><path d="M 116.0416608686014 113.55231037782055 l 9.686891687681692 8.183676479830604 a33.681026429095134,33.681026429095134 0 0,0 -0.37796124587432545,0.4396543175219429 l -9.544587932236588 -8.349207896514075" fill="#ff5607" stroke="none" /><path d="M 115.80600337817218 113.82643327865902 l 9.635616507356152 8.42883590178707 a33.80196782280322,33.80196782280322 0 0,0 -0.3868573252705895,0.434638305987855 l -9.489100332437225 -8.593448377515791" fill="#ff5808" stroke="none" /><path d="M 115.32070863581623 114.36230785411682 l 13.429251023282456 12.589172082791212 a39.40739081935467,39.40739081935467 0 0,0 -0.46818503984179666,0.4908901424950012 l -13.210559432061695 -12.81846934186872" fill="#ffab0f" stroke="none" /><path d="M 114.81725581225074 114.88116024355365 l 18.24131842501241 18.319990285371464 a46.852809169194785,46.852809169194785 0 0,0 -0.5764012133423475,0.5641299036294893 l -17.923267259294267 -18.631270291923524" fill="#ecff1a" stroke="none" /><path d="M 114.29624159901734 115.38237550388516 l 9.280280422201407 9.985334764171034 a34.63196666175711,34.63196666175711 0 0,0 -0.4401565478510248,0.4020725704508902 l -9.107024324883518 -10.143600101208508" fill="#ff6409" stroke="none" /><path d="M 114.0293411484842 115.62618273729858 l 8.599324037694679 9.578112571934978 a33.87200894755486,33.87200894755486 0 0,0 -0.4372031927452966,0.3857809848541473 l -8.433178492042794 -9.724716698561416" fill="#ff5908" stroke="none" /><path d="M 113.75828350139079 115.86535959552629 l 12.646484587397135 14.583289083849312 a40.303002173817205,40.303002173817205 0 0,0 -0.5280355855051155,0.4500033814548423 l -12.393583525314972 -14.798816855527102" fill="#ffb811" stroke="none" /><path d="M 112.92097659922987 116.55440617244103 l 17.293825915798603 22.15691796103714 a49.10703521074533,49.10703521074533 0 0,0 -0.6708284586105374,0.5143626564696184 l -16.909868728694573 -22.451319959334132" fill="#ceff1d" stroke="none" /><path d="M 112.34349029814194 116.9893568818739 l 7.503161732676867 10.327216155227601 a33.765141186195336,33.765141186195336 0 0,0 -0.4731503963057802,0.3375802448419903 l -7.324284008522202 -10.45484066191381" fill="#ff5708" stroke="none" /><path d="M 112.04921762599082 117.19931262002967 l 7.3797232248902604 10.533975792784624 a33.8617635213433,33.8617635213433 0 0,0 -0.4802615780647664,0.3303282926518209 l -7.197304762202611 -10.65944487480154" fill="#ff5908" stroke="none" /><path d="M 111.7513745106137 117.40417183066458 l 9.507183690832294 14.08045147667546 a37.989574906931594,37.989574906931594 0 0,0 -0.5451057192177077,0.36126634699113486 l -9.263403272874621 -14.242015844757914" fill="#ff970d" stroke="none" /><path d="M 111.1453310114006 117.79835938074945 l 7.082220531395693 11.309839618272795 a34.3442991515619,34.3442991515619 0 0,0 -0.5037504048775346,0.30944464277008854 l -6.88649092658585 -11.430072727871261" fill="#ff6008" stroke="none" /><line stroke="#e1ed5e" stroke-width="0.3" x1="143.8653032363475" x2="146.44561519142675" y1="172.8068346515853" y2="177.08958963109032" /><path d="M 144.38136562736335 173.6633856474863 a86.0,86.0 0 0,1 -40.68145358897372,12.25698825130547" fill="none" id="id150" stroke="none" /><text fill="#e1ed5e" style="font-size:6.75px; font-family:Arial;" text-anchor="middle"><textPath startOffset="21.466115282336833" xlink:href="#id150">June</textPath></text><path d="M 110.8373102113329 117.98757091392108 l 10.259868606542023 17.029143812336155 a40.88106241639851,40.88106241639851 0 0,0 -0.6058809566893953,0.3579651487274141 l -9.965219778824245 -17.203227533357317" fill="#ffc011" stroke="none" /><path d="M 110.21172684928248 118.3499491758327 l 6.532926889110143 11.73933440973551 a34.434697842603626,34.434697842603626 0 0,0 -0.5204184559732499,0.2837736364519153 l -6.329885621268244 -11.850048697947196" fill="#ff6109" stroke="none" /><path d="M 109.89434966115114 118.52300852407294 l 5.91706391000487 11.077213661938957 a33.55851535123994,33.55851535123994 0 0,0 -0.5118617983193527,0.2677819007980914 l -5.725511209159023 -11.177424981681765" fill="#ff5407" stroke="none" /><path d="M 109.57404056367764 118.69057910512821 l 8.62431276178514 16.836506888539166 a39.91683733664052,39.91683733664052 0 0,0 -0.6142366668094414,0.3079910160822879 l -8.333222187292938 -16.982465745530757" fill="#ffb310" stroke="none" /><path d="M 108.92500713936063 119.00905698771935 l 5.553207583065067 11.827580388768329 a34.0663603315303,34.0663603315303 0 0,0 -0.5329471255536632,0.24464988593586465 l -5.348792461743985 -11.921417345038268" fill="#ff5c08" stroke="none" /><path d="M 108.59647513512805 119.15986991738527 l 11.57361358660237 25.79533207596269 a49.272737546286116,49.272737546286116 0 0,0 -0.7768183192661892,0.3405343225802542 l -11.127874592678427 -25.9907309518374" fill="#ccff1d" stroke="none" /><path d="M 107.93186726928326 119.44442032107085 l 4.84649642380055 11.880848525275443 a33.831332326241544,33.831332326241544 0 0,0 -0.5411062618003826,0.215317348730912 l -4.641269085958302 -11.962512718412425" fill="#ff5808" stroke="none" /><path d="M 107.59598834532513 119.57807347666477 l 4.794262690938336 12.356841922669613 a34.254301077445334,34.254301077445334 0 0,0 -0.5515428219679843,0.20854630162503357 l -4.5808496482100765 -12.437536474401277" fill="#ff5f08" stroke="none" /><path d="M 106.91757812671514 119.82793768551818 l 4.611642139761067 13.218405531548775 a34.99976742741462,34.99976742741462 0 0,0 -0.5705466538362758,0.19356040229906182 l -4.383425752987565 -13.29582892074596" fill="#ff6a09" stroke="none" /><path d="M 106.2309692047433 120.05430185196036 l 7.903649927413584 25.437805286522245 a47.637372617623605,47.637372617623605 0 0,0 -0.7851660388035477,0.23656408667628062 l -7.46460891416979 -25.57008474230425" fill="#e1ff1b" stroke="none" /><path d="M 105.53697534728816 120.25689768951611 l 3.598526284350973 13.165126120858382 a34.64807448680115,34.64807448680115 0 0,0 -0.5766587224436249,0.15230080976693006 l -3.371377119095851 -13.225118279928894" fill="#ff6509" stroke="none" /><path d="M 105.18746579009965 120.34920634021253 l 3.252870691000347 12.760245477768086 a34.16833445752613,34.16833445752613 0 0,0 -0.5711753131957097,0.14038099535717746 l -3.0327420930614264 -12.814347731439293" fill="#ff5d08" stroke="none" /><path d="M 104.83641907484287 120.43548508189849 l 4.339001856171936 18.333731285478468 a39.84018683442379,39.84018683442379 0 0,0 -0.6687077668361029,0.15219571060632425 l -4.0227739399429705 -18.405703729662477" fill="#ffb210" stroke="none" /><path d="M 104.13013068566511 120.58985236759428 l 2.68826402108014 13.401745255003194 a34.6687065711074,34.6687065711074 0 0,0 -0.5861196949358994,0.11233123451109621 l -2.4571767115725365 -13.446033687862759" fill="#ff6509" stroke="none" /><path d="M 103.7750983002368 120.6578951692458 l 4.243516285461021 23.2211475310569 a44.605701072496935,44.605701072496935 0 0,0 -0.7564936340561937,0.13152611507028997 l -3.8431736799327765 -23.290752224648198" fill="#fff417" stroke="none" /><path d="M 103.06178313531738 120.77559828337769 l 1.8532605536009383 12.57522008398291 a33.711047747536014,33.711047747536014 0 0,0 -0.574807731406107,0.07966311391290934 l -1.6365242310080008 -12.60525776338842" fill="#ff5608" stroke="none" /><path d="M 102.70371172650421 120.8252237178851 l 1.7145106177757659 13.205944565708169 a34.3167758309218,34.3167758309218 0 0,0 -0.586445227381477,0.07101034998016015 l -1.4869379673429086 -13.23350044441368" fill="#ff6008" stroke="none" /><path d="M 102.34483914955558 120.86867818915974 l 2.0143638688561123 17.92750319056903 a39.040316860964936,39.040316860964936 0 0,0 -0.6684583505424605,0.06928844119502223 l -1.705472921708049 -17.959521000219812" fill="#ffa60f" stroke="none" /><path d="M 101.62511606390274 120.93702456842531 l 0.9910158775652104 12.767656561374231 a33.806059758520135,33.806059758520135 0 0,0 -0.580558288583581,0.040038698646466135 l -0.771094828202699 -12.782823604536983" fill="#ff5808" stroke="none" /><path d="M 101.26447882468166 120.96189622390904 l 1.1733065181353717 19.450487419733197 a40.48584381161612,40.48584381161612 0 0,0 -0.6959939369686529,0.035974936615241405 l -0.8383245127532393 -19.46780216311064" fill="#ffbb11" stroke="none" /><line stroke="#e1ed5e" stroke-width="0.3" x1="102.19456741930631" x2="102.32365962044197" y1="184.97166512339345" y2="189.96999836594603" /><path d="M 102.22038585953345 185.97133177190398 a86.0,86.0 0 0,1 -42.740103519485714,-10.115201625700543" fill="none" id="id151" stroke="none" /><text fill="#e1ed5e" style="font-size:6.75px; font-family:Arial;" text-anchor="middle"><textPath startOffset="22.20632615414155" xlink:href="#id151">July</textPath></text><path d="M 100.54218724476979 120.99299961872073 l 0.3230661189119157 12.508827857097659 a33.512999083980276,33.512999083980276 0 0,0 -0.576807084835265,0.009930257059217561 l -0.10769934418398276 -12.512535591436036" fill="#ff5307" stroke="none" /><path d="M 100.18074693466247 120.99922214144158 l 0.11618164483633443 13.498011311961324 a34.4985113087493,34.4985113087493 0 0,0 -0.5938571589975704,0.0 l 0.11618164483632513 -13.498011311961324" fill="#ff6209" stroke="none" /><path d="M 99.81925306533755 120.99922214144158 l -0.10290684606599637 11.95574201272444 a32.9561848803785,32.9561848803785 0 0,0 -0.5672235087199321,-0.009765267105255718 l 0.30869004467859634 -11.952199268340024" fill="#ff4b06" stroke="none" /><path d="M 99.09653310690486 120.98055641714683 l -0.5425122452155061 12.598368412530583 a33.61004386170235,33.61004386170235 0 0,0 -0.5777917550105013,-0.029865233961439808 l 0.7592920686394963 -12.587163371806941" fill="#ff5507" stroke="none" /><path d="M 98.73552117531835 120.96189622390904 l -1.333836572670115 22.111674209336588 a43.15186801022508,43.15186801022508 0 0,0 -0.7410557403066466,-0.051107542601383504 l 1.7142550737556914 -22.08543832221892" fill="#ffe015" stroke="none" /><path d="M 98.01472825383883 120.90594882070398 l -1.3139342924244286 13.83641464918269 a34.89866157832927,34.89866157832927 0 0,0 -0.5975438631266667,-0.061937864622524264 l 1.5519107521566886 -13.811747416104405" fill="#ff6809" stroke="none" /><path d="M 97.2962882734958 120.8252237178851 l -2.176163825801592 16.761808618436884 a37.9024825738065,37.9024825738065 0 0,0 -0.6462759682247372,-0.0895679603159104 l 2.46436838521316 -16.721866092628368" fill="#ff950d" stroke="none" /><path d="M 96.58105272829116 120.7198165907248 l -2.0728978431145983 12.562364876477423 a33.73223926722015,33.73223926722015 0 0,0 -0.5720843671224458,-0.09946420024265737 l 2.2888311817090945 -12.52482209771376" fill="#ff5708" stroke="none" /><path d="M 96.22490169976321 120.6578951692458 l -3.963277305695319 21.687638465618054 a43.04679634815896,43.04679634815896 0 0,0 -0.7277622282158726,-0.13947736312626985 l 4.336007148482887 -21.616203904143315" fill="#ffdf14" stroke="none" /><path d="M 95.51606077576429 120.51570834832081 l -2.9814946788350225 13.64145948777344 a34.963478344470104,34.963478344470104 0 0,0 -0.5868534106459383,-0.1335659256323431 l 3.2158682388738233 -13.588116828563411" fill="#ff6909" stroke="none" /><path d="M 95.16358092515715 120.4354850818985 l -3.1166862897588086 13.169039984690166 a34.5328248177215,34.5328248177215 0 0,0 -0.5772683200380605,-0.1418785081969071 l 3.3429078945400796 -13.113440218179228" fill="#ff6309" stroke="none" /><path d="M 94.81253420990036 120.34920634021253 l -4.328038216271621 16.9778744140007 a38.52084856446991,38.52084856446991 0 0,0 -0.6411145106806456,-0.16932416926987054 l 4.619643169763756 -16.90085889542725" fill="#ff9e0e" stroke="none" /><path d="M 94.11515582081647 120.15858648285463 l -3.8066105650421234 13.039578609980481 a34.58384681597046,34.58384681597046 0 0,0 -0.5700159458634475,-0.17174112857655272 l 4.030501485345817 -12.972122112298203" fill="#ff6409" stroke="none" /><path d="M 93.76903079525671 120.05430185196036 l -7.392526163096714 23.792759400961227 a45.914751513593274,45.914751513593274 0 0,0 -0.7527366138849334,-0.24100249312715788 l 7.800984122072588 -23.661984061174365" fill="#f8ff18" stroke="none" /><path d="M 93.08242187328487 119.8279376855182 l -4.4411071400935755 12.729599003502756 a34.48206673399032,34.48206673399032 0 0,0 -0.5587415627922531,-0.2003448453446872 l 4.659568263515555 -12.651266617118111" fill="#ff6209" stroke="none" /><path d="M 92.7421414339146 119.70592522655815 l -4.827665940232692 13.107671246387799 a34.968443146387656,34.968443146387656 0 0,0 -0.563041521973555,-0.21289412606249383 l 5.05257768296653 -13.022628870218673" fill="#ff6909" stroke="none" /><path d="M 92.40401165467489 119.57807347666478 l -5.055170909723842 13.02931271196358 a34.975612425674015,34.975612425674015 0 0,0 -0.5594081460148764,-0.22260004616770096 l 5.278700131780577 -12.940365821389813" fill="#ff6a09" stroke="none" /><path d="M 91.7346041902142 119.30500536409082 l -7.531585732756439 17.591087749098495 a40.135599072052685,40.135599072052685 0 0,0 -0.6327650982372622,-0.2773856238151017 l 7.833271505651444 -17.458837571988944" fill="#ffb610" stroke="none" /><path d="M 91.07499286063937 119.00905698771935 l -3.7145190593767476 7.911422745004164 a29.74003785418818,29.74003785418818 0 0,0 -0.4615191233272949,-0.22155722566804154 l 3.8501508507042845 -7.846311242836561" fill="#ff1802" stroke="none" /><path d="M 90.7491055286396 118.85261126421891 l -3.2195632393552396 6.561222201814598 a28.308571969529506,28.308571969529506 0 0,0 -0.43560973385880003,-0.21842376366653696 l 3.3320268808968 -6.504830597238759" fill="#ff0100" stroke="none" /><path d="M 90.42595943632237 118.69057910512821 l -7.5652041658386855 14.768899919277018 a37.59375541872435,37.59375541872435 0 0,0 -0.5734105651814886,-0.29998130664599243 l 7.81830563354667 -14.636489193686309" fill="#ff910d" stroke="none" /><line stroke="#e1ed5e" stroke-width="0.3" x1="58.666819895761336" x2="56.23545636021788" y1="174.27360380694188" y2="178.64263932499728" /><path d="M 58.180547188652646 175.14741091055294 a86.0,86.0 0 0,1 -31.652253787137756,-30.449443065178592" fill="none" id="id152" stroke="none" /><text fill="#e1ed5e" style="font-size:6.75px; font-family:Arial;" text-anchor="middle"><textPath startOffset="22.20632615414155" xlink:href="#id152">August</textPath></text><path d="M 89.7882731507175 118.34994917583269 l -4.239167832291696 7.617567079346931 a29.717675843863823,29.717675843863823 0 0,0 -0.44484704979783074,-0.25259576467004746 l 4.369663649010734 -7.54346814888225" fill="#ff1802" stroke="none" /><path d="M 89.4739219176387 118.17145234162733 l -11.16280854440268 19.27065730238437 a43.27030595804489,43.27030595804489 0 0,0 -0.6412909259321711,-0.37888598270721763 l 11.492867341363231 -19.075652747383405" fill="#ffe215" stroke="none" /><path d="M 88.54995079064634 117.60387380957326 l -7.865409744625711 12.092671225540933 a35.425580328703546,35.425580328703546 0 0,0 -0.5083154126122991,-0.3368837378871696 l 8.072399855977972 -11.955489466562444" fill="#ff700a" stroke="none" /><path d="M 87.65650970185807 116.9893568818739 l -6.700687571264032 9.222705227813716 a32.399890598020434,32.399890598020434 0 0,0 -0.4483759602180471,-0.33169781621401734 l 6.858448501900644 -9.10599746285993" fill="#ff4206" stroke="none" /><path d="M 85.18274418774928 114.88116024355367 l -8.22168098306853 8.25713976533122 a32.65231287305507,32.65231287305507 0 0,0 -0.39487433179677284,-0.40000561333861573 l 8.362595939920837 -8.114393658011938" fill="#ff4606" stroke="none" /><path d="M 84.67929136418377 114.36230785411682 l -6.393593086623094 5.993636090002027 a29.7636582622036,29.7636582622036 0 0,0 -0.3471769048816367,-0.37679196197754444 l 6.49581639950046 -5.882692873223138" fill="#ff1802" stroke="none" /><path d="M 84.43433777217949 114.09645910891817 l -11.098963404959427 10.051360584566444 a35.97387185285103,35.97387185285103 0 0,0 -0.41171436874845146,-0.4625654578429456 l 11.270336623356217 -9.858820956982635" fill="#ff790b" stroke="none" /><path d="M 84.19399662182784 113.82643327865904 l -12.440186351905222 10.882156763691205 a37.52814485354237,37.52814485354237 0 0,0 -0.42113278269762333,-0.4898725681113963 l 12.625661644173624 -10.666407096418277" fill="#ff900d" stroke="none" /><path d="M 83.95833913139862 113.55231037782056 l -6.925381902390506 5.850698739669867 a30.06595776718227,30.06595776718227 0 0,0 -0.330588091213066,-0.39821465223975355 l 7.025065993497108 -5.730622830316352" fill="#ff1d02" stroke="none" /><path d="M 83.50135304334701 112.99209946851258 l -20.687807244956367 16.29091465609579 a47.33209579461281,47.33209579461281 0 0,0 -0.49854937697855645,-0.644442274877113 l 20.96516343915299 -15.932394387105424" fill="#e5ff1a" stroke="none" /><path d="M 83.06392112726016 112.41649034213515 l -19.103952367268565 14.005841720931135 a44.688068692120964,44.688068692120964 0 0,0 -0.4494772927372812,-0.6242846472171142 l 19.342209452381454 -13.674923468262884" fill="#fff517" stroke="none" /><path d="M 82.85270091963577 112.12312394758628 l -9.816886559301047 6.940529349842802 a33.02257083049274,33.02257083049274 0 0,0 -0.324154418770093,-0.46696861681729046 l 9.934901885233273 -6.770519470838499" fill="#ff4c07" stroke="none" /><path d="M 82.6465618267979 111.8261652097733 l -11.96958739137999 8.157133852695152 a35.484814635012356,35.484814635012356 0 0,0 -0.3396351212720643,-0.5077084240033457 l 12.108225618062786 -7.949888514485986" fill="#ff710a" stroke="none" /><path d="M 82.05923443525364 110.91462005526583 l -20.447614824210635 12.439711451401234 a44.934313714694255,44.934313714694255 0 0,0 -0.3963187732065047,-0.6642530601073469 l 20.65871447311537 -12.085896297407777" fill="#fff917" stroke="none" /><line stroke="#e1ed5e" stroke-width="0.3" x1="26.63291911575756" x2="22.317208475507996" y1="142.92168965132927" y2="145.44649492493687" /><path d="M 25.769776987707644 143.4266507060508 a86.0,86.0 0 0,1 -11.730757126820373,-40.83630448921669" fill="none" id="id153" stroke="none" /><text fill="#e1ed5e" style="font-size:6.75px; font-family:Arial;" text-anchor="middle"><textPath startOffset="21.46611528233685" xlink:href="#id153">September</textPath></text><path d="M 81.69416730710424 110.29060199501025 l -11.314619345822232 6.360499757986227 a33.97985239177232,33.97985239177232 0 0,0 -0.28223275526097147,-0.5123344308440657 l 11.42242851053472 -6.164794808744338" fill="#ff5a08" stroke="none" /><path d="M 81.51974371655577 109.97397251340807 l -10.832119712053272 5.846199458107805 a33.30905624165529,33.30905624165529 0 0,0 -0.2679753097820888,-0.5069082969754658 l 10.931147530060247 -5.658876146046214" fill="#ff5007" stroke="none" /><path d="M 81.35079622478065 109.6543875284942 l -16.092544397470885 8.330846818196381 a39.12106492159951,39.12106492159951 0 0,0 -0.30443887946979103,-0.6006867913178854 l 16.233561946726944 -8.05260581517581" fill="#ffa70f" stroke="none" /><path d="M 80.87730276802145 108.67885076344099 l -23.3320989077337 10.589290933259944 a46.622644709504314,46.622644709504314 0 0,0 -0.3253792493135183,-0.7336443095888435 l 23.5109192417785 -10.186098287178405" fill="#efff19" stroke="none" /><path d="M 80.58989483394504 108.01547362559985 l -12.473507389601272 5.150980308696321 a34.49522081105066,34.49522081105066 0 0,0 -0.2219149596279569,-0.5507747306832048 l 12.560324963486616 -4.935506210170311" fill="#ff6209" stroke="none" /><path d="M 80.45479744820244 107.68017299344265 l -12.998907738305189 5.10784474560498 a34.966448379390336,34.966448379390336 0 0,0 -0.21530294275016398,-0.562088044020338 l 13.084904960648862 -4.883333134751483" fill="#ff6909" stroke="none" /><path d="M 80.32549172779594 107.34259656027581 l -15.5175093232896 5.791189746897289 a37.56293978383511,37.56293978383511 0 0,0 -0.22086246422025224,-0.6077186448802164 l 15.614896048515076 -5.523223305010956" fill="#ff900d" stroke="none" /><path d="M 80.20201598880116 107.00284435728193 l -7.5840189333370445 2.682581426613783 a29.044475513768937,29.044475513768937 0 0,0 -0.1626617443268625,-0.47277116928860674 l 7.629071508607136 -2.5516375542358793" fill="#ff0d01" stroke="none" /><path d="M 80.0844068197444 106.66101706037122 l -12.479979433790087 4.1740838532478435 a34.15951605043924,34.15951605043924 0 0,0 -0.18170869735089853,-0.5592418663984233 l 12.549980382157235 -3.958643086871617" fill="#ff5d08" stroke="none" /><path d="M 79.97269907076064 106.31721596034903 l -21.44853065519678 6.7655147670560645 a43.4902569422888,43.4902569422888 0 0,0 -0.21905261149159794,-0.7158766086538234 l 21.56181003919451 -6.395311185850193" fill="#ffe515" stroke="none" /><path d="M 79.67330655649465 105.27499134158121 l -12.80159764594503 3.3221496122057497 a34.225641017907,34.225641017907 0 0,0 -0.14307733535100908,-0.571522832559938 l 12.856886295591098 -3.10129894024842" fill="#ff5e08" stroke="none" /><path d="M 79.58551787078972 104.9243191809786 l -17.43376364279897 4.205319349249804 a38.933790050687946,38.933790050687946 0 0,0 -0.15154409356770546,-0.6528479888122604 l 17.50356830229723 -3.9046027030889694" fill="#ffa40f" stroke="none" /><path d="M 79.4281124754447 104.21870165774334 l -9.02927219185017 1.8516436821126165 a30.217176391934046,30.217176391934046 0 0,0 -0.10010528508918862,-0.510434691990708 l 9.059807409915024 -1.6959452630539538" fill="#ff2003" stroke="none" /><path d="M 79.35854240842038 103.8639653848113 l -37.502536856271576 7.020265095734153 a59.15395644845225,59.15395644845225 0 0,0 -0.17873947554128497,-1.002465900949917 l 37.617822774152046 -6.373680444051022" fill="#55ff2b" stroke="none" /><path d="M 79.23777060512086 103.15116336523772 l -9.104395888849513 1.3818091613340697 a30.208660112049238,30.208660112049238 0 0,0 -0.07360260772142913,-0.51477646697628 l 9.12683254758754 -1.2248872223773892" fill="#ff1f03" stroke="none" /><path d="M 79.18660465613746 102.79330883721812 l -14.470822076092377 1.9420894341912087 a35.60056173331422,35.60056173331422 0 0,0 -0.07628435942683584,-0.6080614014826138 l 14.50210794476606 -1.6927102784211863" fill="#ff730a" stroke="none" /><path d="M 79.10278846688536 102.07522291339032 l -17.62173691567874 1.7499479374654163 a38.70841409356677,38.70841409356677 0 0,0 -0.060137030346512514,-0.6636071187358582 l 17.649248542302328 -1.446359430180992" fill="#ffa10e" stroke="none" /><path d="M 79.07016306316243 101.71520430193888 l -10.214723941914215 0.8370986597345467 a31.248966746733295,31.248966746733295 0 0,0 -0.03931929712535442,-0.5364805699484181 l 10.227619797703905 -0.661144953289368" fill="#ff3004" stroke="none" /><path d="M 79.04373962182676 101.35467743843564 l -38.73262394531702 2.503796519191125 a59.81346615156728,59.81346615156728 0 0,0 -0.05757373414229928,-1.0280176989577894 l 38.769984030346855 -1.8367071038978984" fill="#4dff2c" stroke="none" /><path d="M 79.0095281055655 100.63252640178507 l -54.53787679245224 1.6434431365820874 a75.56263291275339,75.56263291275339 0 0,0 -0.027986734388151826,-1.3004335752562417 l 54.5580855895254 -0.7044197455357168" fill="#41ffd2" stroke="none" /><line stroke="#e1ed5e" stroke-width="0.3" x1="15.007084014347285" x2="10.007500721073583" y1="101.09737516637583" y2="101.16192664675087" /><path d="M 14.007167355692545 101.11028546245083 a86.0,86.0 0 0,1 10.666146001902534,-42.60595125391555" fill="none" id="id154" stroke="none" /><text fill="#e1ed5e" style="font-size:6.75px; font-family:Arial;" text-anchor="middle"><textPath startOffset="22.20632615414155" xlink:href="#id154">October</textPath></text><path d="M 79.00175016825051 100.2711162175752 l -10.11118561105323 0.13054928006069863 a31.112028361100172,31.112028361100172 0 0,0 -0.002304812707162984,-0.5355573031617215 l 10.111934721049895 0.04351750130469823" fill="#ff2e04" stroke="none" /><path d="M 79.00019446554 99.90962569577889 l -13.899217482277173 -0.059816368638155176 a34.89934619388971,34.89934619388971 0 0,0 0.00775595239444115,-0.6007070603088762 l 13.896128522765016 0.29905968700750335" fill="#ff6809" stroke="none" /><path d="M 79.01574976396665 99.18683210126434 l -18.352090332312414 -0.7111681649367495 a39.36586452427912,39.36586452427912 0 0,0 0.0320670428942538,-0.6768845932333567 l 18.33712968118466 1.0269638647931154" fill="#ffab0f" stroke="none" /><path d="M 79.03285615573316 98.82574320788736 l -10.128291200944485 -0.5672310364988418 a31.144162543053863,31.144162543053863 0 0,0 0.03458397448411945,-0.5349987780398834 l 10.117026635455952 0.741488878791737" fill="#ff2e04" stroke="none" /><path d="M 79.08570108090925 98.10471618934814 l -14.546002181795473 -1.318179612499392 a35.60560772318659,35.60560772318659 0 0,0 0.06056831665253631,-0.6099146829604539 l 14.521156739460707 1.5683698261642762" fill="#ff730a" stroke="none" /><path d="M 79.12142395522702 97.74499172005258 l -8.96948008065228 -0.9687562889978831 a30.021644066615075,30.021644066615075 0 0,0 0.05991411928970177,-0.5133075851381145 l 8.95147560835899 1.1230076124608592" fill="#ff1c02" stroke="none" /><path d="M 79.16333360222342 97.38593545837743 l -31.681241254419042 -3.9745709710361283 a52.929582863302585,52.929582863302585 0 0,0 0.12119362439369058,-0.9030332715280972 l 31.608131630967517 4.519322584628886" fill="#9eff22" stroke="none" /><path d="M 79.26566170972629 96.67025291283419 l -30.819951058301047 -4.949405224622485 a52.214836141065874,52.214836141065874 0 0,0 0.15015032169454998,-0.886195698163629 l 30.730188875086274 5.479186711101941" fill="#a7ff21" stroke="none" /><path d="M 79.32604984820605 96.31383870115002 l -41.194573883102954 -7.344984526691138 a62.84425546126685,62.84425546126685 0 0,0 0.19904953135380427,-1.0633305557585977 l 41.06203862783929 8.052993159912308" fill="#30ff34" stroke="none" /><path d="M 79.46518482838121 95.60439243477599 l -14.242734998074148 -3.0487478549864235 a35.56538237426847,35.56538237426847 0 0,0 0.13329501053684417,-0.5975353957116675 l 14.188145600535266 3.2934614202480503" fill="#ff730a" stroke="none" /><path d="M 79.54389044137918 95.25157060432595 l -10.064479318528093 -2.3362443044851577 a31.332075367675124,31.332075367675124 0 0,0 0.12647296623499632,-0.524312095569613 l 10.022773552032282 2.5091416317141677" fill="#ff3104" stroke="none" /><path d="M 79.62865764111835 94.90015583598534 l -31.358717428221834 -7.850468037398458 a53.32644439385932,53.32644439385932 0 0,0 0.230582702822691,-0.8885292145800537 l 31.218938393528834 8.389093677527375" fill="#99ff23" stroke="none" /><path d="M 79.81627453868168 94.20196356495316 l -9.685109675692013 -2.7821731367039337 a31.07679695105444,31.07679695105444 0 0,0 0.15211959348691817,-0.5128716465371532 l 9.635784185093389 2.9484741699876262" fill="#ff2d04" stroke="none" /><path d="M 79.91906864156998 93.8553929516997 l -43.57734532429464 -13.334324909858754 a66.57180319358126,66.57180319358126 0 0,0 0.34472945395068266,-1.0928865748419347 l 43.34136038657575 14.082461651127103" fill="#35ff65" stroke="none" /><path d="M 80.14247586403 93.16781622104843 l -13.654774425318822 -4.698064456329509 a35.44038345204751,35.44038345204751 0 0,0 0.20343947809825402,-0.5751508000385166 l 13.571881866410758 4.932412882794637" fill="#ff710a" stroke="none" /><path d="M 80.2630227832202 92.82701384747504 l -9.538660220792423 -3.4666239376927193 a31.149064997974538,31.149064997974538 0 0,0 0.18748089943850194,-0.5023556008563409 l 9.477574732852293 3.6303026755784016" fill="#ff2e04" stroke="none" /><path d="M 80.38941819471856 92.48833698450439 l -32.149509274480586 -12.314590264650406 a55.427315898514884,55.427315898514884 0 0,0 0.3489451749775599,-0.8880274090482003 l 31.932770549621335 12.86616667859437" fill="#80ff26" stroke="none" /><path d="M 80.65960295795068 91.81776055985345 l -13.474969584882448 -5.700784081758307 a35.63125915498512,35.63125915498512 0 0,0 0.24383537907497121,-0.5628056733888158 l 13.374843495964797 5.931888899733722" fill="#ff730a" stroke="none" /><path d="M 80.803312248108 91.48605970444005 l -40.21997133125148 -17.837995753702774 a64.9981838988362,64.9981838988362 0 0,0 0.46240847981314814,-1.01885579070155 l 39.90696053447498 18.527673553246395" fill="#33ff50" stroke="none" /><path d="M 81.10775173730289 90.83032412892265 l -13.126455122919987 -6.37114953920446 a35.59093453295359,35.59093453295359 0 0,0 0.27225367915950466,-0.5488468040408672 l 13.01484143080707 6.596155931744288" fill="#ff730a" stroke="none" /><path d="M 81.26839172434947 90.50648371742162 l -13.058552235101477 -6.618309354247415 a35.63993870155858,35.63993870155858 0 0,0 0.28204864833099097,-0.544828214293803 l 12.942694153610372 6.842110290801553" fill="#ff740a" stroke="none" /><path d="M 81.43458229118936 90.18545643968196 l -32.48025735311178 -17.170575186744774 a57.73956681791481,57.73956681791481 0 0,0 0.47206742748904035,-0.8746692485201928 l 32.17988182640427 17.727125418597442" fill="#65ff29" stroke="none" /><line stroke="#e1ed5e" stroke-width="0.3" x1="26.266209847984243" x2="21.928928074336255" y1="57.711370442889674" y2="55.22380399835377" /><path d="M 25.398753493254645 57.213857153982495 a86.0,86.0 0 0,1 29.58750427330803,-30.492523968695096" fill="none" id="id155" stroke="none" /><text fill="#e1ed5e" style="font-size:6.75px; font-family:Arial;" text-anchor="middle"><textPath startOffset="21.46611528233685" xlink:href="#id155">November</textPath></text><path d="M 81.78341655067845 89.55222093294921 l -12.099972701609405 -6.93971193091474 a34.94879711888352,34.94879711888352 0 0,0 0.30378880014055076,-0.5192735340266023 l 11.978724226998528 7.146964877295234" fill="#ff6909" stroke="none" /><path d="M 81.96595687620814 89.24020034530311 l -41.658367275350514 -24.854974713529803 a69.50968286907471,69.50968286907471 0 0,0 0.6218938703444916,-1.0222300068631625 l 41.224357606719806 25.56837249360004" fill="#39ff8a" stroke="none" /><path d="M 82.34701348167596 88.62581576622439 l -12.095010046761226 -7.7930650679661815 a35.3882289106342,35.3882289106342 0 0,0 0.3343401754568545,-0.509223024981759 l 11.95907323594645 8.000106156925607" fill="#ff700a" stroke="none" /><path d="M 82.54541684631803 88.32363383020206 l -12.168653077914074 -8.140306066317665 a35.640379113395795,35.640379113395795 0 0,0 0.34550043913229594,-0.5069792619116847 l 12.026728173113037 8.348563351499767" fill="#ff740a" stroke="none" /><path d="M 82.7489923806493 88.02491185347247 l -13.376280915627811 -9.285378951295474 a37.28321692427359,37.28321692427359 0 0,0 0.3705017554862078,-0.524048458020334 l 13.214466540337725 9.514253909647595" fill="#ff8c0c" stroke="none" /><path d="M 83.17141714833178 87.43820079747576 l -8.126314643174899 -6.0659375601538645 a31.140640421766477,31.140640421766477 0 0,0 0.32434320462238014,-0.42679763819995625 l 8.020695498328411 6.204919974234847" fill="#ff2e04" stroke="none" /><path d="M 83.39014120810768 87.1503855733568 l -13.372705593714066 -10.345308342062305 a37.907236899875016,37.907236899875016 0 0,0 0.4037047070768902,-0.5126639811327713 l 13.192646806043205 10.573964717148124" fill="#ff950d" stroke="none" /><path d="M 83.84228863543731 86.58626213691792 l -8.991210137103538 -7.464283346186469 a32.68577706452207,32.68577706452207 0 0,0 0.363106899003761,-0.4298040386088418 l 8.861392624612652 7.617946334424427" fill="#ff4606" stroke="none" /><path d="M 84.07557802195018 86.31012108654704 l -8.713938257468742 -7.49118302494654 a32.49132468726842,32.49132468726842 0 0,0 0.3682476018430458,-0.42097066694119095 l 8.583698792047853 7.640069248090675" fill="#ff4306" stroke="none" /><path d="M 84.5562425177563 85.77008943001954 l -6.392104742103449 -5.889698730290174 a29.69180960258582,29.69180960258582 0 0,0 0.34956121921860117,-0.37288753621123183 l 6.289776200914392 5.998855683379456" fill="#ff1702" stroke="none" /><path d="M 85.05521093208273 85.24692304244772 l -44.60655145347574 -44.034337548255195 a83.67987967350652,83.67987967350652 0 0,0 1.0207518770790147,-1.0163684441249592 l 43.84196377622941 44.79564184303027" fill="#4dd5ff" stroke="none" /><path d="M 85.83668400450813 84.49514656593479 l -6.216448053448975 -6.8052648108596445 a30.21715007728279,30.21715007728279 0 0,0 0.38705149318821974,-0.34749865218244086 l 6.0983855726647835 6.911262471811364" fill="#ff2003" stroke="none" /><path d="M 86.10567301691215 84.25364557470407 l -6.241792982337364 -7.0737851980050594 a30.433897214930393,30.433897214930393 0 0,0 0.3957945743211514,-0.3432291546268002 l 6.119104609369439 7.18017934605154" fill="#ff2303" stroke="none" /><path d="M 86.65592168130627 83.78471172551755 l -5.638367344834567 -6.851559898733468 a29.873277825089744,29.873277825089744 0 0,0 0.3998703271605332,-0.32333399544654484 l 5.519593619109533 6.9475999914441475" fill="#ff1a02" stroke="none" /><path d="M 87.51073957382395 83.11751280151077 l -8.64896514905281 -11.691328263363848 a35.54275609061984,35.54275609061984 0 0,0 0.4949831184950916,-0.359626286231402 l 8.446436714203937 11.838473784411917" fill="#ff720a" stroke="none" /><path d="M 87.80319425747018 82.90503203632743 l -8.384223169291692 -11.751275662245162 a35.43563915601118,35.43563915601118 0 0,0 0.4995899668116598,-0.3499946984430596 l 8.180702062896373 11.893855203452164" fill="#ff710a" stroke="none" /><path d="M 88.09926311788651 82.69761687909137 l -5.675743621448074 -8.251916802055003 a31.015397973343156,31.015397973343156 0 0,0 0.44247941113935896,-0.2987640735868302 l 5.532859515902175 8.348392787940499" fill="#ff2c04" stroke="none" /><path d="M 88.70189139769569 82.29822771554957 l -5.057380536357499 -7.923857148279948 a30.40024520934826,30.40024520934826 0 0,0 0.4435263283491334,-0.27773614612304504 l 4.920235055636123 8.009737635725923" fill="#ff2203" stroke="none" /><path d="M 89.00827224532344 82.1063720568725 l -8.927879030712583 -14.533852117002475 a38.05695990925507,38.05695990925507 0 0,0 0.5611370682066429,-0.33807880498899673 l 8.676379896288292 14.68537753145009" fill="#ff980e" stroke="none" /><line stroke="#e1ed5e" stroke-width="0.3" x1="56.762969772571076" x2="54.21961505331055" y1="26.818313649435495" y2="22.513508569990535" /><path d="M 56.25429882871897 25.957352633546506 a86.0,86.0 0 0,1 42.265352541879196,-11.944610805530505" fill="none" id="id156" stroke="none" /><text fill="#e1ed5e" style="font-size:6.75px; font-family:Arial;" text-anchor="middle"><textPath startOffset="22.20632615414155" xlink:href="#id156">December</textPath></text><path d="M 89.3179101791058 81.91981866633112 l -8.648358796268484 -14.637949867198847 a38.00187301986523,38.00187301986523 0 0,0 0.566052859669135,-0.32789435250432913 l 8.39510920413403 14.784648377093225" fill="#ff970d" stroke="none" /><path d="M 90.26544431104013 81.39251694778311 l -4.635667935395889 -8.86102204350334 a31.000356436783125,31.000356436783125 0 0,0 0.47495426497833965,-0.24329002184564053 l 4.482453182828786 8.939504590661485" fill="#ff2c04" stroke="none" /><path d="M 90.58718382345135 81.22770947309562 l -7.573026156147959 -15.1031364582732 a37.89542707477151,37.89542707477151 0 0,0 0.5856264254606857,-0.28736434362591573 l 7.311928463676847 15.231255962033945" fill="#ff950d" stroke="none" /><path d="M 91.23893434514133 80.91482961587045 l -14.084721123302863 -30.682260930450695 a54.76063543426686,54.76063543426686 0 0,0 0.8600493700163421,-0.38587908248893643 l 13.554489634819747 30.92016034345616" fill="#88ff25" stroke="none" /><path d="M 91.90106846888425 80.62456947434976 l -5.534731865185098 -13.240982754329163 a35.35119789843125,35.35119789843125 0 0,0 0.5634579126656326,-0.22984863016194282 l 5.305990082931085 13.334292270674682" fill="#ff6f0a" stroke="none" /><path d="M 92.23578459929587 80.48803036053334 l -3.586920034440359 -9.014159345044419 a30.701601106586544,30.701601106586544 0 0,0 0.4927122111611539,-0.19116468318705282 l 3.431224658279529 9.074566732122024" fill="#ff2703" stroke="none" /><path d="M 92.57280143429618 80.3572730644239 l -6.198721719782643 -16.393771758514582 a38.526548531572764,38.526548531572764 0 0,0 0.622327913756683,-0.22920862267789668 l 5.915611480253391 16.498043648998802" fill="#ff9e0e" stroke="none" /><path d="M 93.25333710446033 80.11325718540243 l -3.002447604864103 -8.850138840005101 a30.345568420771475,30.345568420771475 0 0,0 0.496102614650911,-0.16355723213255832 l 2.8496621679707825 8.900509796396895" fill="#ff2203" stroke="none" /><path d="M 93.59665428221793 80.00007090966166 l -10.579559147273493 -33.04373089913357 a55.696040458314734,55.696040458314734 0 0,0 0.9155756118240617,-0.2844737993874407 l 10.009198162738702 33.220944833403536" fill="#7dff26" stroke="none" /><path d="M 94.28887869178378 79.79150937346287 l -3.954048680434034 -13.991185160165987 a35.539180277900506,35.539180277900506 0 0,0 0.5901231989601219,-0.1613029623087894 l 3.7126275922501897 14.057174663301073" fill="#ff720a" stroke="none" /><path d="M 94.63758080256005 79.69619591428918 l -3.0066252666516418 -11.38402801526346 a32.774374265597785,32.774374265597785 0 0,0 0.5466939040071431,-0.13936444877896176 l 2.810222473959499 11.434095460211287" fill="#ff4806" stroke="none" /><path d="M 94.98787191387505 79.60689891045804 l -4.412861830765216 -17.954835922509744 a39.48917203504989,39.48917203504989 0 0,0 0.6614931115900979,-0.15655404752810972 l 4.103145032212584 18.028135882178727" fill="#ffac10" stroke="none" /><path d="M 95.33964822691252 79.52364482259891 l -1.9315388222645613 -8.486671583897559 a29.703702476236735,29.703702476236735 0 0,0 0.49952755471724186,-0.1091773756067529 l 1.7851685433937985 8.51866245760018" fill="#ff1702" stroke="none" /><path d="M 95.692805502759 79.44645832069477 l -8.133114364716382 -38.81048445451724 a60.65351501271835,60.65351501271835 0 0,0 1.0236972906855577,-0.2053440460674184 l 7.463850664563688 38.94473245666186" fill="#44ff2d" stroke="none" /><path d="M 96.40284397218896 79.31037775812273 l -2.4963592038578155 -14.358212017642542 a35.57360839388311,35.57360839388311 0 0,0 0.6041936736357472,-0.0996971330810607 l 2.2488363240831823 14.39905541366323" fill="#ff730a" stroke="none" /><path d="M 96.75951476605007 79.25152402106235 l -2.250073385698932 -14.40697618520384 a35.581625185213795,35.581625185213795 0 0,0 0.6059568044282704,-0.08930228141798818 l 2.0017476008420125 14.443572950782798" fill="#ff730a" stroke="none" /><path d="M 97.11714578562143 79.19881850522333 l -2.416677267318096 -17.4374903181224 a38.604158531693145,38.604158531693145 0 0,0 0.6590010596171293,-0.08555725099535702 l 2.1161614791931087 17.476505892281892" fill="#ffa00e" stroke="none" /><path d="M 97.83486435360386 79.11191278185805 l -1.5044880887759036 -14.514507887445733 a35.59227273676013,35.59227273676013 0 0,0 0.6099411727481523,-0.057921263821236295 l 1.254421788937515 14.53825469578215" fill="#ff730a" stroke="none" /><path d="M 98.55514903715128 79.0497635885617 l -2.8387755503382324 -41.162043994723106 a62.25981716450909,62.25981716450909 0 0,0 1.0697954697743397,-0.06453298422148782 l 2.12981803172427 41.2048102483249" fill="#32ff2f" stroke="none" /><path d="M 99.27714615592234 79.0124445844662 l -0.5561560354103713 -16.147601217715447 a37.15717594823083,37.15717594823083 0 0,0 0.6394101761460994,-0.01651407840608349 l 0.2781192240693929 16.154782088263893" fill="#ff8a0c" stroke="none" /><path d="M 99.63851952072746 79.00311137660856 l -0.25136676178265527 -14.60084348508804 a35.60300707816602,35.60300707816602 0 0,0 0.6128472410551874,-0.005274969686541029 l 3.576705175240433e-15 14.603007078166023" fill="#ff730a" stroke="none" /></svg>