<?xml version="1.0" encoding="utf-8" ?>
<svg baseProfile="full" height="200mm" version="1.1" viewBox="0,0,200,200" width="200mm" xmlns="http://www.w3.org/2000/svg" xmlns:ev="http://www.w3.org/2001/xml-events" xmlns:xlink="http://www.w3.org/1999/xlink"><defs /><rect fill="#1a1a1a" height="200" width="200" x="0" y="0" /><text alignment-baseline="middle" fill="#e1ed5e" style="dominant-baseline: central; font-size:9.0px; font-family:Arial;" text-anchor="middle" x="100.0" y="100.0">2026</text><line stroke="#e1ed5e" stroke-width="0.3" x1="100.0" x2="100.0" y1="15.0" y2="10.0" /><path d="M 100.0 14.0 a86.0,86.0 0 0,1 42.46469731375804,11.215312516191453" fill="none" id="id157" stroke="none" /><text fill="#e1ed5e" style="font-size:6.75px; font-family:Arial;" text-anchor="middle"><textPath startOffset="22.20632615414155" xlink:href="#id157">January</textPath></text><path d="M 100.0 79.0 l 0.0 -14.631931716230142 a35.63193171623014,35.63193171623014 0 0,0 0.6133451311518513,0.005279255183792635 l -0.2518646518793229 14.629763837654908" fill="#ffa70f" stroke="none" /><path d="M 100.72285384407766 79.0124445844662 l 0.40391186738766627 -11.727298359472565 a32.734252068568516,32.734252068568516 0 0,0 0.562965487116286,0.024242478104586702 l -0.6057181868932839 11.718608154843784" fill="#ff7f0b" stroke="none" /><path d="M 101.08401301168833 79.027996857942 l 0.874565772736766 -16.919904038057133 a37.942491491746566,37.942491491746566 0 0,0 0.6519567091334423,0.0393278091114739 l -1.1656845307098203 16.902342959565356" fill="#ffc612" stroke="none" /><path d="M 101.80526077348638 79.07773832637324 l 1.120134979194231 -12.981923436592655 a34.03015880506328,34.03015880506328 0 0,0 0.5831713845271883,0.055379149867859585 l -1.3434314908116636 12.960718742209618" fill="#ff910d" stroke="none" /><path d="M 102.16513564639614 79.11191278185805 l 1.516592397617844 -14.631283877544462 a35.709674381365645,35.709674381365645 0 0,0 0.6108620973624901,0.06863747420376841 l -1.7682211984900593 14.603010449870093" fill="#ffa80f" stroke="none" /><path d="M 102.52436894288641 79.15227682838746 l 2.35130932141421 -19.41849505073768 a40.56033245015261,40.56033245015261 0 0,0 0.6923943709621417,0.08989266120238962 l -2.685218420884198 19.375144066371153" fill="#ffe815" stroke="none" /><path d="M 103.2404852339499 79.25152402106235 l 2.2267925754679743 -14.257911678818722 a35.43075363988848,35.43075363988848 0 0,0 0.6017673822779506,0.0992967742177587 l -2.4718891638848 14.217468641661338" fill="#ffa40f" stroke="none" /><path d="M 103.59715602781102 79.31037775812273 l 7.633482281636546 -43.90520277020921 a65.56385174148713,65.56385174148713 0 0,0 1.1102297885028043,0.20288739743867068 l -8.38810719124225 43.767299891419796" fill="#35ff69" stroke="none" /><path d="M 104.307194497241 79.44645832069477 l 3.0012406360383674 -14.321648242714016 a35.63273910597197,35.63273910597197 0 0,0 0.5992362416006245,0.1309698326120216 l -3.24731960179252 14.267864912006123" fill="#ffa70f" stroke="none" /><path d="M 104.66035177308747 79.52364482259891 l 2.0963570328346934 -9.210839282745308 a30.446389421449847,30.446389421449847 0 0,0 0.5100151721895645,0.12070411332793872 l -2.2545958919867815 9.1733892572765" fill="#ff5f08" stroke="none" /><path d="M 105.01212808612495 79.60689891045804 l 3.457326761674588 -14.067001668530567 a35.48563579134285,35.48563579134285 0 0,0 0.591919180812759,0.15089337881950965 l -3.698954831172372 14.00540529354219" fill="#ffa50f" stroke="none" /><path d="M 105.71112130821622 79.79150937346287 l 2.4536555904790114 -8.682126210418835 a30.022180517498562,30.022180517498562 0 0,0 0.49609477737357827,0.14482366932985463 l -2.602740585576017 8.638604212170277" fill="#ff5908" stroke="none" /><path d="M 106.0581310904928 79.89281104454417 l 13.369010566382658 -44.37230188491603 a67.34254652142212,67.34254652142212 0 0,0 1.1070300999097074,0.34395964078834856 l -14.130826039003082 44.13560210924516" fill="#38ff7e" stroke="none" /><path d="M 106.74666289553966 80.11325718540242 l 4.636211720752074 -13.665889574173628 a35.43090423269264,35.43090423269264 0 0,0 0.5758669155680346,0.20090865939839345 l -4.8707606403833825 13.584060061603028" fill="#ffa40f" stroke="none" /><path d="M 107.08798089147638 80.2323363322302 l 5.877190007425145 -16.39089003725552 a38.4127148542891,38.4127148542891 0 0,0 0.6204891330301502,0.22853138421820618 l -6.158461466227871 16.28729538523099" fill="#ffcc13" stroke="none" /><path d="M 107.76421540070413 80.48803036053334 l 5.426356337122278 -13.636780362025409 a35.67675446887182,35.67675446887182 0 0,0 0.5686469143555228,0.2319653542393231 l -5.6602871210661885 13.541354121602506" fill="#ffa80f" stroke="none" /><path d="M 108.09893153111575 80.62456947434976 l 2.822276047589835 -6.751855263153488 a28.317977287705446,28.317977287705446 0 0,0 0.4481201809156893,0.19186167503017615 l -2.9380799862958398 6.702274060160521" fill="#ff4106" stroke="none" /><path d="M 108.43124777332544 80.76684994638697 l 19.652510777533692 -44.8308125768045 a69.94918728801991,69.94918728801991 0 0,0 1.0985948936335788,0.4929075055008781 l -20.42128778963405 44.48588474078709" fill="#3bff9b" stroke="none" /><path d="M 110.05341064243156 81.56283822128135 l 5.573055049529643 -10.2205431772785 a32.64123899865053,32.64123899865053 0 0,0 0.490980052500769,0.273229867643854 l -5.748159191102447 10.123097912074467" fill="#ff7e0b" stroke="none" /><path d="M 110.36928655335952 81.73862282372117 l 5.760615460795888 -10.145034680617881 a32.666465581233254,32.666465581233254 0 0,0 0.48657986536279285,0.28185846457526215 l -5.9343920586240095 10.044372058652568" fill="#ff7e0b" stroke="none" /><line stroke="#e1ed5e" stroke-width="0.3" x1="143.23703022742887" x2="145.7803849466894" y1="26.81831364943548" y2="22.513508569990506" /><path d="M 143.74570117128098 25.957352633546492 a86.0,86.0 0 0,1 28.547481713284135,27.462654790039103" fill="none" id="id158" stroke="none" /><text fill="#e1ed5e" style="font-size:6.75px; font-family:Arial;" text-anchor="middle"><textPath startOffset="19.985693538727396" xlink:href="#id158">February</textPath></text><path d="M 110.68208982089419 81.91981866633111 l 15.856100831925943 -26.83755548707426 a52.17162681211862,52.17162681211862 0 0,0 0.7692530822937577,0.4634663748505038 l -16.315715980437336 26.56064250276514" fill="#8bff24" stroke="none" /><path d="M 111.2981086023043 82.29822771554956 l 7.1940749506202 -11.271610236351837 a34.37175798896213,34.37175798896213 0 0,0 0.49598933582943444,0.3226052608644178 l -7.387031312233914 11.146106051327891" fill="#ff960d" stroke="none" /><path d="M 111.60114157652 82.49532879139004 l 5.685471260299378 -8.578664816828793 a31.291650668925097,31.291650668925097 0 0,0 0.44642055450858825,0.3014251511826142 l -5.832296509214508 8.47952775334751" fill="#ff6b09" stroke="none" /><path d="M 111.90073688211348 82.69761687909136 l 5.330214800810555 -7.749555301821235 a30.405678986589194,30.405678986589194 0 0,0 0.42867498703546636,0.3003142232320332 l -5.462820927429673 7.656656235825266" fill="#ff5f08" stroke="none" /><path d="M 112.48926042617603 83.11751280151076 l 5.6654166566257835 -7.658285672314834 a30.52608447012494,30.52608447012494 0 0,0 0.41973925244976523,0.3161389028378743 l -5.796402062833932 7.559630179971112" fill="#ff6008" stroke="none" /><path d="M 112.77801427241765 83.33499621200491 l 14.321721756288598 -18.67829713059193 a44.53700273533631,44.53700273533631 0 0,0 0.6043617081117262,0.4717138994077703 l -14.641116019559755 18.429004841960936" fill="#e5ff1a" stroke="none" /><path d="M 113.34407831869373 83.78471172551755 l 8.455601444871897 -10.274970791399706 a34.30684863364113,34.30684863364113 0 0,0 0.4527564061665734,0.37917046958731127 l -8.631215387997589 10.127899164418576" fill="#ff950d" stroke="none" /><path d="M 113.6212207817346 84.01681056812373 l 5.93715940305596 -6.966684186893001 a30.15339010078784,30.15339010078784 0 0,0 0.3921465632546872,0.3400656353780623 l -6.056199764957411 6.863453558095268" fill="#ff5b08" stroke="none" /><path d="M 114.16331599549186 84.49514656593476 l 6.325133113974993 -6.924244429366006 a30.378297810749515,30.378297810749515 0 0,0 0.38304446495327316,0.3559980844802021 l -6.443385462723113 6.814341758811163" fill="#ff5e08" stroke="none" /><path d="M 114.68862486808459 84.99185889309783 l 44.06587460425377 -45.02442332070654 a84.0,84.0 0 0,0 1.0246567993307099,1.0202565973995252 l -44.8343672037518 44.25923087265689" fill="#4dd2ff" stroke="none" /><path d="M 115.4437574822437 85.77008943001954 l 2.1650023471566064 -1.9948377083269577 a23.943911113766305,23.943911113766305 0 0,0 0.27667344287046547,0.30550972594282616 l -2.1990194306431077 1.9572751951145824" fill="#ff0000" stroke="none" /><path d="M 116.38621287248628 86.86637796730983 l 11.473096510261124 -9.195737555890972 a35.70352109974307,35.70352109974307 0 0,0 0.38023556201832587,0.48286055023739105 l -11.629686152873415 8.996884611700542" fill="#ffa80f" stroke="none" /><path d="M 116.82858285166822 87.43820079747576 l 11.785460572557973 -8.797329550958825 a35.706804144187544,35.706804144187544 0 0,0 0.36342281110791735,0.49570830592842946 l -11.935145996179516 8.593158801358902" fill="#ffa80f" stroke="none" /><path d="M 117.65298651832404 88.62581576622439 l 7.918373766374253 -5.101971950023736 a30.419700679046706,30.419700679046706 0 0,0 0.2798212715071422,0.4426100523005943 l -8.00502263412735 4.964914250008936" fill="#ff5f08" stroke="none" /><line stroke="#e1ed5e" stroke-width="0.3" x1="172.23445277983987" x2="176.4835382374775" y1="55.19839476539836" y2="52.563006222186495" /><path d="M 173.08426987136738 54.67131705675599 a86.0,86.0 0 0,1 12.851231095245387,41.99856678651699" fill="none" id="id159" stroke="none" /><text fill="#e1ed5e" style="font-size:6.75px; font-family:Arial;" text-anchor="middle"><textPath startOffset="22.20632615414155" xlink:href="#id159">March</textPath></text><line stroke="#e1ed5e" stroke-width="0.3" x1="184.98032266829074" x2="189.97916517819016" y1="98.17113171792111" y2="98.06355123074" /><path d="M 185.9800911702706 98.14961562048488 a86.0,86.0 0 0,1 -9.607161424134198,41.387399972396054" fill="none" id="id160" stroke="none" /><text fill="#e1ed5e" style="font-size:6.75px; font-family:Arial;" text-anchor="middle"><textPath startOffset="21.466115282336823" xlink:href="#id160">April</textPath></text><line stroke="#e1ed5e" stroke-width="0.3" x1="174.80103733775053" x2="179.2010983576182" y1="140.37084112569926" y2="142.7455964860345" /><path d="M 175.68104954172406 140.8457921977663 a86.0,86.0 0 0,1 -30.038265399797805,32.042727171017184" fill="none" id="id161" stroke="none" /><text fill="#e1ed5e" style="font-size:6.75px; font-family:Arial;" text-anchor="middle"><textPath startOffset="22.206326154141568" xlink:href="#id161">May</textPath></text><line stroke="#e1ed5e" stroke-width="0.3" x1="143.8653032363475" x2="146.44561519142675" y1="172.8068346515853" y2="177.08958963109032" /><path d="M 144.38136562736335 173.6633856474863 a86.0,86.0 0 0,1 -40.68145358897372,12.25698825130547" fill="none" id="id162" stroke="none" /><text fill="#e1ed5e" style="font-size:6.75px; font-family:Arial;" text-anchor="middle"><textPath startOffset="21.466115282336833" xlink:href="#id162">June</textPath></text><line stroke="#e1ed5e" stroke-width="0.3" x1="102.19456741930631" x2="102.32365962044197" y1="184.97166512339345" y2="189.96999836594603" /><path d="M 102.22038585953345 185.97133177190398 a86.0,86.0 0 0,1 -42.740103519485714,-10.115201625700543" fill="none" id="id163" stroke="none" /><text fill="#e1ed5e" style="font-size:6.75px; font-family:Arial;" text-anchor="middle"><textPath startOffset="22.20632615414155" xlink:href="#id163">July</textPath></text><line stroke="#e1ed5e" stroke-width="0.3" x1="58.666819895761336" x2="56.23545636021788" y1="174.27360380694188" y2="178.64263932499728" /><path d="M 58.180547188652646 175.14741091055294 a86.0,86.0 0 0,1 -31.652253787137756,-30.449443065178592" fill="none" id="id164" stroke="none" /><text fill="#e1ed5e" style="font-size:6.75px; font-family:Arial;" text-anchor="middle"><textPath startOffset="22.20632615414155" xlink:href="#id164">August</textPath></text><line stroke="#e1ed5e" stroke-width="0.3" x1="26.63291911575756" x2="22.317208475507996" y1="142.92168965132927" y2="145.44649492493687" /><path d="M 25.769776987707644 143.4266507060508 a86.0,86.0 0 0,1 -11.730757126820373,-40.83630448921669" fill="none" id="id165" stroke="none" /><text fill="#e1ed5e" style="font-size:6.75px; font-family:Arial;" text-anchor="middle"><textPath startOffset="21.46611528233685" xlink:href="#id165">September</textPath></text><line stroke="#e1ed5e" stroke-width="0.3" x1="15.007084014347285" x2="10.007500721073583" y1="101.09737516637583" y2="101.16192664675087" /><path d="M 14.007167355692545 101.11028546245083 a86.0,86.0 0 0,1 10.666146001902534,-42.60595125391555" fill="none" id="id166" stroke="none" /><text fill="#e1ed5e" style="font-size:6.75px; font-family:Arial;" text-anchor="middle"><textPath startOffset="22.20632615414155" xlink:href="#id166">October</textPath></text><line stroke="#e1ed5e" stroke-width="0.3" x1="26.266209847984243" x2="21.928928074336255" y1="57.711370442889674" y2="55.22380399835377" /><path d="M 25.398753493254645 57.213857153982495 a86.0,86.0 0 0,1 29.58750427330803,-30.492523968695096" fill="none" id="id167" stroke="none" /><text fill="#e1ed5e" style="font-size:6.75px; font-family:Arial;" text-anchor="middle"><textPath startOffset="21.46611528233685" xlink:href="#id167">November</textPath></text><line stroke="#e1ed5e" stroke-width="0.3" x1="56.762969772571076" x2="54.21961505331055" y1="26.818313649435495" y2="22.513508569990535" /><path d="M 56.25429882871897 25.957352633546506 a86.0,86.0 0 0,1 42.265352541879196,-11.944610805530505" fill="none" id="id168" stroke="none" /><text fill="#e1ed5e" style="font-size:6.75px; font-family:Arial;" text-anchor="middle"><textPath startOffset="22.20632615414155" xlink:href="#id168">December</textPath></text></svg>