<?xml version="1.0" encoding="utf-8" ?>
<svg baseProfile="full" height="200mm" version="1.1" viewBox="0,0,200,200" width="200mm" xmlns="http://www.w3.org/2000/svg" xmlns:ev="http://www.w3.org/2001/xml-events" xmlns:xlink="http://www.w3.org/1999/xlink"><defs /><rect fill="#1a1a1a" height="200" width="200" x="0" y="0" /><text alignment-baseline="middle" fill="#e1ed5e" style="dominant-baseline: central; font-size:9.0px; font-family:Arial;" text-anchor="middle" x="100.0" y="100.0">2023</text><line stroke="#e1ed5e" stroke-width="0.3" x1="100.0" x2="100.0" y1="15.0" y2="10.0" /><path d="M 100.0 14.0 a86.0,86.0 0 0,1 42.46469731375804,11.215312516191453" fill="none" id="id121" stroke="none" /><text fill="#e1ed5e" style="font-size:6.75px; font-family:Arial;" text-anchor="middle"><textPath startOffset="22.20632615414155" xlink:href="#id121">January</textPath></text><path d="M 100.0 79.0 l 0.0 -14.182657992671729 a35.18265799267173,35.18265799267173 0 0,0 0.6056116225367822,0.005212690433586931 l -0.2441311432642539 14.1805566788467" fill="#ffa70f" stroke="none" /><path d="M 101.80526077348638 79.07773832637324 l 0.9039426381125318 -10.476339313579853 a31.51526498507083,31.51526498507083 0 0,0 0.540073903867602,0.05128652477736503 l -1.084141669070378 10.459227244287309" fill="#ff750a" stroke="none" /><path d="M 102.16513564639614 79.11191278185805 l 1.082037671380871 -10.438928983844207 a31.494857971979897,31.494857971979897 0 0,0 0.5387619834174927,0.060536186315134057 l -1.261566358308089 10.418756844058473" fill="#ff750a" stroke="none" /><path d="M 102.52436894288641 79.15227682838746 l 0.5043236508024717 -4.165001273072641 a25.195423452937195,25.195423452937195 0 0,0 0.4301042008040939,0.05583986933758733 l -0.5759425801144117 4.155703080570918" fill="#ff1b02" stroke="none" /><path d="M 102.88285421437855 79.19881850522331 l 1.7638582119639339 -12.72708644617438 a33.84873243554819,33.84873243554819 0 0,0 0.576445556767749,0.08495309064347187 l -1.9826727491603389 12.694838871369939" fill="#ff950d" stroke="none" /><path d="M 104.66035177308747 79.52364482259891 l 2.324557752817283 -10.213492992511618 a31.474684141026252,31.474684141026252 0 0,0 0.527240397197588,0.12478076756263846 l -2.5000218369773948 10.171966312808111" fill="#ff750a" stroke="none" /><path d="M 105.01212808612495 79.60689891045804 l 2.5015533268577146 -10.178197563767844 a31.48110083408239,31.48110083408239 0 0,0 0.5251214188852146,0.13386514198996727 l -2.676383634427954 10.13362942560901" fill="#ff750a" stroke="none" /><path d="M 105.71112130821622 79.79150937346287 l 4.078475103982431 -14.431461259774322 a35.996700746036495,35.996700746036495 0 0,0 0.5948193946931939,0.17364409233270714 l -4.326284716399052 14.359118838522912" fill="#ffb210" stroke="none" /><path d="M 106.74666289553966 80.11325718540242 l 4.014124677703944 -11.83220005612011 a33.49456502228871,33.49456502228871 0 0,0 0.544395133722855,0.18992877267724578 l -4.217201815490073 11.761350430270657" fill="#ff910d" stroke="none" /><path d="M 108.09893153111575 80.62456947434976 l 8.521754904241083 -20.386969499542808 a43.09635336482574,43.09635336482574 0 0,0 0.6819818191971234,0.2919890238014178 l -8.87142048122852 20.2372609477786" fill="#f1ff19" stroke="none" /><path d="M 109.08828744355905 81.06846463323043 l 5.442247389325276 -11.336580138509932 a33.575217925884054,33.575217925884054 0 0,0 0.5188629968255138,0.254603819145025 l -5.636581653161222 11.241221159230076" fill="#ff920d" stroke="none" /><path d="M 109.41281617654863 81.2277094730956 l 4.84810409146525 -9.668734287662462 a31.816123890151307,31.816123890151307 0 0,0 0.48745258034442984,0.24969214441335516 l -5.013817159398435 9.583849617936606" fill="#ff7a0b" stroke="none" /><path d="M 109.73455568895987 81.39251694778311 l 7.187257534137376 -13.738354068902463 a36.504807105686396,36.504807105686396 0 0,0 0.5542732652941244,0.2960735826213487 l -7.4226758459598114 13.612601759779361" fill="#ffb911" stroke="none" /><line stroke="#e1ed5e" stroke-width="0.3" x1="143.23703022742887" x2="145.7803849466894" y1="26.81831364943548" y2="22.513508569990506" /><path d="M 143.74570117128098 25.957352633546492 a86.0,86.0 0 0,1 28.547481713284135,27.462654790039103" fill="none" id="id122" stroke="none" /><text fill="#e1ed5e" style="font-size:6.75px; font-family:Arial;" text-anchor="middle"><textPath startOffset="19.985693538727396" xlink:href="#id122">February</textPath></text><path d="M 110.68208982089419 81.91981866633111 l 5.350409430356279 -9.055940769286266 a31.518409779489794,31.518409779489794 0 0,0 0.4647283466774775,0.27999362899221814 l -5.505499843251394 8.962500530835433" fill="#ff750a" stroke="none" /><path d="M 110.99172775467656 82.1063720568725 l 7.758246795673993 -12.629787122746706 a35.822345162236786,35.822345162236786 0 0,0 0.5226324035628315,0.32727236316465624 l -7.974498351609088 12.494370418259104" fill="#ffb010" stroke="none" /><path d="M 111.60114157652 82.49532879139004 l 5.7971669815727225 -8.747199685867512 a31.493838542529502,31.493838542529502 0 0,0 0.4493050563076265,0.3033727796734634 l -5.946876732286891 8.64611499389538" fill="#ff750a" stroke="none" /><path d="M 112.77801427241765 83.33499621200491 l 6.384817524671012 -8.327037829655518 a31.49311459195315,31.49311459195315 0 0,0 0.4273577331114357,0.33355948932951457 l -6.527207812941878 8.215899951102779" fill="#ff750a" stroke="none" /><path d="M 114.16331599549186 84.49514656593476 l 7.082669640398008 -7.753534181630114 a31.50149996622969,31.50149996622969 0 0,0 0.397207087604501,0.36916069873614255 l -7.215084611797355 7.630468896819331" fill="#ff750a" stroke="none" /><path d="M 114.42810811169701 84.74124197986012 l 7.333082459680332 -7.755260074831362 a31.673244923112403,31.673244923112403 0 0,0 0.3929243348399374,0.3779928988024773 l -7.465490038132687 7.627884089266583" fill="#ff780b" stroke="none" /><path d="M 115.4437574822437 85.77008943001954 l 9.276375754693515 -8.547272097129973 a33.61376262043338,33.61376262043338 0 0,0 0.3884092029843404,0.4288911430251497 l -9.42212859829389 8.386328166835273" fill="#ff920d" stroke="none" /><path d="M 115.68641384162765 86.03803664274999 l 17.004877162305913 -15.135484389975609 a43.7650770924306,43.7650770924306 0 0,0 0.4960211637686292,0.567037936115671 l -17.26289018965239 14.840530897656992" fill="#e9ff1a" stroke="none" /><path d="M 116.82858285166822 87.43820079747576 l 8.498664624085663 -6.343880494178235 a31.605287366078308,31.605287366078308 0 0,0 0.3216776929705556,0.4387680117031754 l -8.606604929569844 6.196650038803566" fill="#ff770a" stroke="none" /><path d="M 117.04232023915458 87.72973835380427 l 13.227193274707455 -9.523417002373638 a37.29889914465285,37.29889914465285 0 0,0 0.3706575974617522,0.5242688854427937 l -13.38916349197309 9.29432161659905" fill="#ffc312" stroke="none" /><path d="M 117.65298651832404 88.62581576622439 l 12.339002104218281 -7.950274195736937 a35.678481962222925,35.678481962222925 0 0,0 0.32819514871132927,0.51912590902588 l -12.474024849175565 7.736700638996851" fill="#ffae10" stroke="none" /><line stroke="#e1ed5e" stroke-width="0.3" x1="172.23445277983987" x2="176.4835382374775" y1="55.19839476539836" y2="52.563006222186495" /><path d="M 173.08426987136738 54.67131705675599 a86.0,86.0 0 0,1 12.851231095245387,41.99856678651699" fill="none" id="id123" stroke="none" /><text fill="#e1ed5e" style="font-size:6.75px; font-family:Arial;" text-anchor="middle"><textPath startOffset="22.20632615414155" xlink:href="#id123">March</textPath></text><path d="M 117.84615892207809 88.93136811851018 l 9.297366761158909 -5.766458238761668 a31.940432775301204,31.940432775301204 0 0,0 0.2857667959228569,0.4697254751774186 l -9.395249355367989 5.605564990377168" fill="#ff7b0b" stroke="none" /><path d="M 118.3937258080291 89.86733742301442 l 22.997206779587163 -12.668609880495476 a47.255765004419075,47.255765004419075 0 0,0 0.3863539103092506,0.7158551188132479 l -23.211868789114877 12.27087377834977" fill="#c0ff1e" stroke="none" /><path d="M 119.04729006885535 91.15688171328212 l 11.647991802269175 -5.40783328955606 a33.84213276342215,33.84213276342215 0 0,0 0.24075886780352726,0.5304802514077864 l -11.73935298703605 5.206531029306211" fill="#ff950d" stroke="none" /><path d="M 119.47837535516314 92.15188598940014 l 14.628614056202435 -5.894076319856335 a36.771381831330274,36.771381831330274 0 0,0 0.23149589799355774,0.5891318099289593 l -14.727903504077695 5.641395505031592" fill="#ffbc11" stroke="none" /><path d="M 119.61058180528143 92.48833698450437 l 20.761522733869477 -7.952520940677981 a43.2324855907049,43.2324855907049 0 0,0 0.26020894315879534,0.6972305999183089 l -20.895336265529895 7.5939672037303385" fill="#f0ff19" stroke="none" /><path d="M 119.97218684219823 93.5106431181261 l 21.033244113403263 -6.834115288119555 a43.115661638425436,43.115661638425436 0 0,0 0.22326627461353737,0.7078151035362854 l -21.147765871785005 6.471050018156849" fill="#f1ff19" stroke="none" /><path d="M 120.08093135843002 93.85539295169968 l 2.2520714848153065 -0.6891161605939671 a23.3551448056351,23.3551448056351 0 0,0 0.114322436101026,0.3854384218053597 l -2.263599818028035 0.6502483520420774" fill="#ff0000" stroke="none" /><path d="M 120.18372546131832 94.20196356495316 l 15.151720352942833 -4.352527823882984 a36.76448946561409,36.76448946561409 0 0,0 0.16948995017357257,0.6097455293545907 l -15.224397073682768 4.091070991109442" fill="#ffbc11" stroke="none" /><path d="M 120.28053869075195 94.5502522615342 l 12.16377442740325 -3.2686263016858312 a33.59528984266824,33.59528984266824 0 0,0 0.14526550236164942,0.5597672381272388 l -12.218236261635202 3.0587626380097417" fill="#ff920d" stroke="none" /><path d="M 120.67395015179393 96.31383870115 l 10.333804321154728 -1.8425153044699598 a31.496779239134362,31.496779239134362 0 0,0 0.09057294601713382,0.5345666544336265 l -10.363989128692085 1.6643628617204953" fill="#ff750a" stroke="none" /><path d="M 120.78858239683441 97.02765380044208 l 12.47985633399911 -1.784366669996679 a33.60677510429423,33.60677510429423 0 0,0 0.07694991456085576,0.5733662429631666 l -12.508722247617804 1.569282084968848" fill="#ff920d" stroke="none" /><path d="M 120.83666639777658 97.38593545837742 l 10.415558138411885 -1.306684125524814 a31.49720318649385,31.49720318649385 0 0,0 0.0628588889009615,0.5385365728269056 l -10.436507380316435 1.1272038143730556" fill="#ff750a" stroke="none" /><path d="M 120.87857604477298 97.74499172005257 l 54.40879053971858 -5.876467480631043 a75.72521683872878,75.72521683872878 0 0,0 0.12881535256266138,1.2971530209334903 l -54.50188301796347 4.939038928993118" fill="#42ffdb" stroke="none" /><path d="M 120.94382443527127 98.46500227214037 l 10.672425359273836 -0.7821947098471601 a31.701050958358444,31.701050958358444 0 0,0 0.03520237013751553,0.5445650850895447 l -10.684308320415767 0.5983705605045802" fill="#ff780b" stroke="none" /><path d="M 120.98425023603335 99.18683210126433 l 12.59693049314821 -0.4881479864380852 a33.606385140311666,33.606385140311666 0 0,0 0.017424599507094424,0.578237628015596 l -12.60346678711095 0.2712402109974901" fill="#ff920d" stroke="none" /><line stroke="#e1ed5e" stroke-width="0.3" x1="184.98032266829074" x2="189.97916517819016" y1="98.17113171792111" y2="98.06355123074" /><path d="M 185.9800911702706 98.14961562048488 a86.0,86.0 0 0,1 -9.607161424134198,41.387399972396054" fill="none" id="id124" stroke="none" /><text fill="#e1ed5e" style="font-size:6.75px; font-family:Arial;" text-anchor="middle"><textPath startOffset="21.466115282336823" xlink:href="#id124">April</textPath></text><path d="M 120.9764740272857 100.99374915477107 l 14.794083444509479 0.7008617320275267 a35.81067561357449,35.81067561357449 0 0,0 -0.03446973482539553,0.6154802707655406 l -14.779827358796554 -0.9554137191284906" fill="#ffb010" stroke="none" /><path d="M 120.95626037817324 101.35467743843564 l 4.1846548754338775 0.27050902427678925 a25.19338903021264,25.19338903021264 0 0,0 -0.031699811289825824,0.43251873943234465 l -4.179378505479714 -0.3425009002059042" fill="#ff1b02" stroke="none" /><path d="M 120.92983693683757 101.71520430193887 l 17.939147739891006 1.4701167271123114 a38.999285119831065,38.999285119831065 0 0,0 -0.0605889248542827,0.6685937369733321 l -17.911184218759647 -1.7786918526342141" fill="#ffd914" stroke="none" /><path d="M 120.89721153311464 102.0752229133903 l 14.615661071733383 1.4514259331846397 a35.687552069807396,35.687552069807396 0 0,0 -0.06596707792434739,0.6107732131817525 l -14.588511692307984 -1.7027954682511837" fill="#ffae10" stroke="none" /><path d="M 120.81339534386255 102.79330883721812 l 26.00536733288229 3.4901091910246023 a47.23852115275203,47.23852115275203 0 0,0 -0.11509541730251946,0.804977080545787 l -25.941437864563166 -3.937231743550799" fill="#c0ff1e" stroke="none" /><path d="M 120.70491114924044 103.5080841355445 l 24.178792053711987 4.096672340628136 a45.523391067369,45.523391067369 0 0,0 -0.13755338666709335,0.7714724420912156 l -24.104692224705705 -4.512263533452571" fill="#d4ff1c" stroke="none" /><path d="M 120.5718875245553 104.21870165774334 l 11.331395585090009 2.323742888556267 a32.567208259468366,32.567208259468366 0 0,0 -0.11734424376256812,0.5481932409484603 l -11.289717302602998 -2.5184499489208965" fill="#ff840c" stroke="none" /><path d="M 120.41448212921028 104.9243191809786 l 10.464808730266245 2.524289278050663 a31.764955091422266,31.764955091422266 0 0,0 -0.1327906504263036,0.5304326396835112 l -10.41980676554488 -2.7040497571315703" fill="#ff790b" stroke="none" /><path d="M 120.23288151984713 105.62410040840565 l 12.4130772298402 3.450442422125285 a33.883712167786854,33.883712167786854 0 0,0 -0.16104018876081877,0.5606020235643798 l -12.351844404193281 -3.663601921194247" fill="#ff960d" stroke="none" /><path d="M 120.13307415673323 105.97154293290107 l 17.217315414676758 5.106718297844101 a38.95868931358861,38.95868931358861 0 0,0 -0.19622791941090975,0.6412841943062854 l -17.126860722759716 -5.402329464702444" fill="#ffd914" stroke="none" /><path d="M 120.02730092923936 106.31721596034902 l 10.016912692853586 3.1596369855476425 a31.50342067027175,31.50342067027175 0 0,0 -0.1675798194459187,0.5157576514715091 l -9.96104062239142 -3.331593536996947" fill="#ff750a" stroke="none" /><path d="M 119.9155931802556 106.66101706037122 l 24.415270435225217 8.165989907036504 a46.74468530759319,46.74468530759319 0 0,0 -0.2617906474688668,0.7608861630302798 l -24.271088956813117 -8.585048773156085" fill="#c6ff1e" stroke="none" /><path d="M 119.79798401119884 107.00284435728193 l 9.885622869926596 3.496693314517463 a31.485819169822015,31.485819169822015 0 0,0 -0.18513022808807486,0.5093988774292199 l -9.823968380833294 -3.666339988952814" fill="#ff750a" stroke="none" /><path d="M 119.54520255179757 107.68017299344265 l 30.818877365134373 12.110097554663469 a54.1128021289449,54.1128021289449 0 0,0 -0.34811895727749825,0.8640027029348557 l -30.60585579359948 -12.638799625441138" fill="#73ff27" stroke="none" /><path d="M 119.41010516605496 108.01547362559984 l 9.703454581869034 4.007076912401149 a31.498271105486534,31.498271105486534 0 0,0 -0.21126193234982976,0.49936080230904195 l -9.633041668326895 -4.173512240376355" fill="#ff750a" stroke="none" /><path d="M 119.26925614724726 108.34839909993367 l 10.535628283302923 4.564557604374721 a32.48192707900497,32.48192707900497 0 0,0 -0.22669123802556485,0.5111288970085908 l -10.455495960546084 -4.745234837875999" fill="#ff830c" stroke="none" /><path d="M 118.81262510543309 109.33194174019688 l 9.41109860428233 4.6683449754732695 a31.50534253366121,31.50534253366121 0 0,0 -0.24517357074715007,0.48375071470681064 l -9.329346363748911 -4.8296499018827745" fill="#ff750a" stroke="none" /><path d="M 118.64920377521936 109.65438752849418 l 13.053835809430288 6.757757122319405 a35.69931667336353,35.69931667336353 0 0,0 -0.28720523857381064,0.5432840752615332 l -12.935578062631585 -6.981456212667073" fill="#ffae10" stroke="none" /><line stroke="#e1ed5e" stroke-width="0.3" x1="174.80103733775053" x2="179.2010983576182" y1="140.37084112569926" y2="142.7455964860345" /><path d="M 175.68104954172406 140.8457921977663 a86.0,86.0 0 0,1 -30.038265399797805,32.042727171017184" fill="none" id="id125" stroke="none" /><text fill="#e1ed5e" style="font-size:6.75px; font-family:Arial;" text-anchor="middle"><textPath startOffset="22.206326154141568" xlink:href="#id125">May</textPath></text><path d="M 118.30583269289576 110.29060199501025 l 10.97193353400363 6.167859337966937 a33.58673167615562,33.58673167615562 0 0,0 -0.2876431737010587,0.5015301188630614 l -10.864138364150193 -6.355809302688313" fill="#ff920d" stroke="none" /><path d="M 117.94076556474637 110.91462005526583 l 53.8222966942391 32.74386016579747 a84.0,84.0 0 0,0 -0.7621414413281484,1.228814674538906 l -53.25069061324299 -33.665471171701654" fill="#4dd2ff" stroke="none" /><path d="M 117.75023020441432 111.22182372390056 l 8.869209682498896 5.607178412962929 a31.49301339687173,31.49301339687173 0 0,0 -0.2936275647956612,0.45571650117588713 l -8.771377254326184 -5.759016514060269" fill="#ff750a" stroke="none" /><path d="M 117.35343817320211 111.8261652097733 l 12.15499733883807 8.283488563980008 a35.70918567075513,35.70918567075513 0 0,0 -0.350526625721348,0.5049597478627053 l -12.010609805954585 -8.491489574029734" fill="#ffae10" stroke="none" /><path d="M 117.14729908036423 112.12312394758627 l 8.573696552162895 6.061595211218301 a31.50005757475808,31.50005757475808 0 0,0 -0.3168308905295651,0.44005039613278873 l -8.468085869257727 -6.208279212802221" fill="#ff750a" stroke="none" /><path d="M 116.71984013943494 112.70617746262583 l 8.400073584422874 6.383603238589314 a31.55043252816902,31.55043252816902 0 0,0 -0.3323209804310614,0.4295696645261222 l -8.288945786773743 -6.527250897228689" fill="#ff760a" stroke="none" /><path d="M 116.27256486870786 113.27417163493432 l 8.141460040077236 6.6413093942409365 a31.506681781333597,31.506681781333597 0 0,0 -0.3464294692091023,0.41729661253221895 l -8.02593457097459 -6.7804672638869254" fill="#ff750a" stroke="none" /><path d="M 116.0416608686014 113.55231037782055 l 11.835840986337013 9.999151081876335 a36.49419743684854,36.49419743684854 0 0,0 -0.4095300468188688,0.4763759650076596 l -11.661968429947365 -10.201404146045522" fill="#ffb911" stroke="none" /><path d="M 115.56566222782051 114.09645910891815 l 24.14501083075159 21.866024900100413 a53.57460042654281,53.57460042654281 0 0,0 -0.6249186102226469,0.6782257284722037 l -23.765045812533224 -22.278401883373952" fill="#78ff26" stroke="none" /><path d="M 115.07121518719521 114.62390073753431 l 7.536182176120731 7.3125078976511535 a31.50080061447175,31.50080061447175 0 0,0 -0.38094874449054505,0.3858990669186942 l -7.40919280657465 -7.441147458550512" fill="#ff750a" stroke="none" /><path d="M 114.81725581225074 114.88116024355365 l 7.404630784463538 7.43656576117481 a31.494335013449046,31.494335013449046 0 0,0 -0.3874553786008215,0.3792066365082204 l -7.275525453486922 -7.562922500605603" fill="#ff750a" stroke="none" /><path d="M 114.55890576462653 115.13401014063108 l 18.881274231325182 19.627120355376633 a48.23465384474244,48.23465384474244 0 0,0 -0.6033102431227378,0.5704674915992473 l -18.540628153811635 -19.9492224837218" fill="#b4ff20" stroke="none" /><path d="M 114.29624159901734 115.38237550388516 l 7.741624196698468 8.329781612795665 a32.3718075484848,32.3718075484848 0 0,0 -0.41143095329821755,0.3758324209041738 l -7.597093693933386 -8.461806800286421" fill="#ff810b" stroke="none" /><path d="M 114.0293411484842 115.62618273729858 l 8.863078922942163 9.871888451437183 a34.26681384477526,34.26681384477526 0 0,0 -0.4422991397215593,0.3902775655651039 l -8.691837430314017 -10.022989158774577" fill="#ff9b0e" stroke="none" /><path d="M 113.48314897796784 116.09983520530334 l 6.739794752284607 8.047792470932471 a31.49722806068919,31.49722806068919 0 0,0 -0.4186579628466058,0.3445270013337598 l -6.60026666089331 -8.16261459112341" fill="#ff750a" stroke="none" /><path d="M 113.20401910651253 116.32954008644616 l 16.434392388117647 20.324574444593797 a47.137665915694434,47.137665915694434 0 0,0 -0.6353315784871435,0.5047458303521993 l -16.08210331691315 -20.604454188951124" fill="#c1ff1e" stroke="none" /><path d="M 112.92097659922987 116.55440617244103 l 6.464009440068017 8.281714385254517 a31.50572278333195,31.50572278333195 0 0,0 -0.43038508355171146,0.33000092950600357 l -6.320495628022811 -8.391754656587892" fill="#ff750a" stroke="none" /><path d="M 112.34349029814194 116.9893568818739 l 22.39774942790224 30.827857371808204 a59.105327312222954,59.105327312222954 0 0,0 -0.8282420288825787,0.5909286964179428 l -21.863780071170776 -31.208830330070366" fill="#3fff2d" stroke="none" /><path d="M 112.04921762599082 117.19931262002967 l 21.70068915552376 30.97603084625581 a58.821084024824806,58.821084024824806 0 0,0 -0.8342597578958558,0.5738114686673849 l -21.164272513005024 -31.34498310428829" fill="#42ff2d" stroke="none" /><path d="M 111.45004920935366 117.60387380957326 l 32.87275585522573 50.54020600850937 a81.29038481300185,81.29038481300185 0 0,0 -1.179555217672833,0.7528479486423352 l -31.997918835505967 -51.09856838597552" fill="#4aecff" stroke="none" /><path d="M 111.1453310114006 117.79835938074945 l 12.276735652924401 19.605138057335214 a44.131789306903144,44.131789306903144 0 0,0 -0.6473099547967185,0.3976306436364825 l -11.937446498195374 -19.813557167800074" fill="#e5ff1a" stroke="none" /><line stroke="#e1ed5e" stroke-width="0.3" x1="143.8653032363475" x2="146.44561519142675" y1="172.8068346515853" y2="177.08958963109032" /><path d="M 144.38136562736335 173.6633856474863 a86.0,86.0 0 0,1 -40.68145358897372,12.25698825130547" fill="none" id="id126" stroke="none" /><text fill="#e1ed5e" style="font-size:6.75px; font-family:Arial;" text-anchor="middle"><textPath startOffset="21.466115282336833" xlink:href="#id126">June</textPath></text><path d="M 110.5260780823613 118.17145234162733 l 21.93259345050043 37.86282730335314 a64.75651205099052,64.75651205099052 0 0,0 -0.9693471149100525,0.5504205902516095 l -21.27759756866918 -38.234751059399386" fill="#35ff61" stroke="none" /><path d="M 110.21172684928248 118.3499491758327 l 12.800071864278923 23.001072357612838 a47.322826013383256,47.322826013383256 0 0,0 -0.7151993073598449,0.38998368698866115 l -12.40224974505043 -23.21799669636127" fill="#bfff1e" stroke="none" /><path d="M 109.89434966115114 118.52300852407294 l 16.438014850064103 30.773269554246824 a55.88842861564938,55.88842861564938 0 0,0 -0.8524558156710014,0.44596459320909926 l -15.905868131866606 -31.05166356640064" fill="#60ff29" stroke="none" /><path d="M 109.57404056367764 118.69057910512821 l 20.482243708632808 39.985729508927754 a65.92639393164072,65.92639393164072 0 0,0 -1.0144693609322224,0.5086759976098871 l -19.790920440017825 -40.33237334744694" fill="#36ff6f" stroke="none" /><path d="M 109.2508944713604 118.85261126421891 l 18.108045643140628 36.90280397444213 a62.10618272462387,62.10618272462387 0 0,0 -0.9637913423246529,0.4626784138192527 l -17.47014163281574 -37.20903666476094" fill="#31ff41" stroke="none" /><path d="M 108.92500713936063 119.00905698771935 l 4.467919537154118 9.516063771394538 a31.512743442685696,31.512743442685696 0 0,0 -0.49299736962345914,0.22631091240010082 l -4.303454171763239 -9.591561754128714" fill="#ff750a" stroke="none" /><path d="M 108.59647513512805 119.15986991738527 l 6.343664239295763 14.13879290219865 a36.49669450922302,36.49669450922302 0 0,0 -0.5753952854921723,0.25223638385104336 l -6.099348279145837 -14.245893839344149" fill="#ffb911" stroke="none" /><path d="M 108.2653958097858 119.30500536409082 l 4.136937272359076 9.662404326631863 a31.51077101675933,31.51077101675933 0 0,0 -0.50046387939664,0.209193942176618 l -3.970001933464975 -9.732183311828456" fill="#ff750a" stroke="none" /><path d="M 107.93186726928326 119.44442032107085 l 8.55807893339039 20.979534613011904 a43.65792549216951,43.65792549216951 0 0,0 -0.6982750969787749,0.2778580718434849 l -8.195682760369749 -21.123739529261456" fill="#ebff1a" stroke="none" /><path d="M 107.59598834532513 119.57807347666477 l 5.6987226859210525 14.688017726720632 a36.75478673265655,36.75478673265655 0 0,0 -0.591804186853159,0.2237697047965584 l -5.445048278307619 -14.783935681623822" fill="#ffbc11" stroke="none" /><path d="M 107.2578585660854 119.70592522655815 l 14.576419873534897 39.576665414923 a63.17563824880835,63.17563824880835 0 0,0 -1.0236873305143541,0.36705785567176447 l -13.89301298239081 -39.82171081163472" fill="#33ff4e" stroke="none" /><path d="M 106.91757812671514 119.82793768551818 l 13.129681380551343 37.63376422723571 a60.85835850942639,60.85835850942639 0 0,0 -0.992078958168282,0.33656704664609416 l -12.479932689445834 -37.85419426077993" fill="#30ff32" stroke="none" /><path d="M 106.57524785965236 119.94407469862006 l 2.6305365523551236 7.97895662908057 a29.401396993478237,29.401396993478237 0 0,0 -0.4820130194934265,0.1543253473723318 l -2.4928021877707565 -8.023054823112608" fill="#ff5808" stroke="none" /><path d="M 106.2309692047433 120.05430185196036 l 6.347738679060338 20.430123045758886 a42.3935437457773,42.3935437457773 0 0,0 -0.6987364958369393,0.21052357437279343 l -5.9951272087831535 -20.536361989237406" fill="#faff18" stroke="none" /><path d="M 105.88484417918355 120.15858648285463 l 1.3111509653347384 4.491359383868278 a25.678827413889067,25.678827413889067 0 0,0 -0.4253744617577627,0.12021507184339766 l -1.23364533547237 -4.513263249050195" fill="#ff2203" stroke="none" /><path d="M 105.53697534728816 120.25689768951611 l 11.90767812856168 43.5639681307415 a66.16206502928854,66.16206502928854 0 0,0 -1.1011559071935024,0.29082528334010277 l -11.15603177855668 -43.76248476338518" fill="#36ff72" stroke="none" /><path d="M 104.83641907484287 120.43548508189849 l 13.326659853886621 56.309586580745965 a78.86509659333267,78.86509659333267 0 0,0 -1.3237313078731143,0.30127693597278954 l -12.355408396620644 -56.53064025029644" fill="#46fffb" stroke="none" /><path d="M 104.48393922423573 120.51570834832081 l 2.2438983836103126 10.266679029144111 a31.5090331735815,31.5090331735815 0 0,0 -0.5308649989961008,0.11124792204333714 l -2.0668419231848336 -10.30378293191399" fill="#ff750a" stroke="none" /><path d="M 104.13013068566511 120.58985236759428 l 8.360738468428046 41.68061106310434 a63.51088432779573,63.51088432779573 0 0,0 -1.0737343220741844,0.2057837383347423 l -7.642036531782158 -41.81835199978755" fill="#33ff52" stroke="none" /><path d="M 103.7750983002368 120.6578951692458 l 4.913453645578454 26.88714366005812 a48.33240788741182,48.33240788741182 0 0,0 -0.8196969895397203,0.14251482856624156 l -4.449907684566684 -26.967737067145368" fill="#b3ff20" stroke="none" /><path d="M 103.41894727170886 120.7198165907248 l 1.8884900643005333 11.444800008909048 a32.59956214548146,32.59956214548146 0 0,0 -0.5544473552586362,0.08659327410562724 l -1.69120684543338 -11.475611590361781" fill="#ff840c" stroke="none" /><path d="M 102.70371172650421 120.8252237178851 l 5.18981047672775 39.97429281080238 a61.30977819968897,61.30977819968897 0 0,0 -1.047733242603366,0.12686590455397573 l -4.500949811073004 -40.05770424408171" fill="#30ff38" stroke="none" /><path d="M 102.34483914955558 120.86867818915974 l 1.4161811853143866 12.603776860118527 a33.683089540380045,33.683089540380045 0 0,0 -0.5767305259207351,0.05978047712053346 l -1.199018062788049 -12.626286705694818" fill="#ff930d" stroke="none" /><path d="M 101.62511606390274 120.93702456842531 l 3.916373094800055 50.45621142162089 a71.60797614251118,71.60797614251118 0 0,0 -1.2297382296306405,0.08480994821440997 l -3.0472721043904842 -50.51614971435159" fill="#3dffaf" stroke="none" /><path d="M 101.26447882468166 120.96189622390904 l 2.1548488689022336 35.72200458122185 a56.78693874793769,56.78693874793769 0 0,0 -0.9762267831561146,0.05045977382950105 l -1.5396340173326395 -35.753804161813555" fill="#56ff2a" stroke="none" /><line stroke="#e1ed5e" stroke-width="0.3" x1="102.19456741930631" x2="102.32365962044197" y1="184.97166512339345" y2="189.96999836594603" /><path d="M 102.22038585953345 185.97133177190398 a86.0,86.0 0 0,1 -42.740103519485714,-10.115201625700543" fill="none" id="id127" stroke="none" /><text fill="#e1ed5e" style="font-size:6.75px; font-family:Arial;" text-anchor="middle"><textPath startOffset="22.20632615414155" xlink:href="#id127">July</textPath></text><path d="M 100.54218724476979 120.99299961872073 l 0.24948504577762684 9.65983527168735 a30.66305646595329,30.66305646595329 0 0,0 -0.5277554589472757,0.009085788835704984 l -0.08316989693768316 -9.662698537802214" fill="#ff6a09" stroke="none" /><path d="M 100.18074693466247 120.99922214144158 l 0.18281268943840942 21.23922202587037 a42.24000877456591,42.24000877456591 0 0,0 -0.7271192482017151,0.0 l 0.1828126894383948 -21.23922202587037" fill="#fcff18" stroke="none" /><path d="M 99.81925306533755 120.99922214144158 l -0.22250030945911226 25.850139221432187 a46.85109676890201,46.85109676890201 0 0,0 -0.8063749973819316,-0.013882476863846771 l 0.6674349967337119 -25.84247926728918" fill="#c4ff1e" stroke="none" /><path d="M 99.45781275523022 120.99299961872073 l -0.3283743309608652 12.714357025470449 a33.71859678865415,33.71859678865415 0 0,0 -0.5800877518966421,-0.0199793950776424 l 0.5471824345321503 -12.706820831966713" fill="#ff940d" stroke="none" /><path d="M 99.09653310690486 120.98055641714683 l -0.45201351395169004 10.496782010779873 a31.506509829559334,31.506509829559334 0 0,0 -0.5416298081485054,-0.027996074365150603 l 0.6326313905136843 -10.48744612965252" fill="#ff750a" stroke="none" /><path d="M 98.73552117531835 120.96189622390904 l -2.166068547750383 35.90799879408676 a56.97327105434936,56.97327105434936 0 0,0 -0.9784134848778214,-0.06747712235448 l 2.7838447934071344 -35.86539332721599" fill="#54ff2b" stroke="none" /><path d="M 98.37488393609728 120.93702456842531 l -1.0563579223376234 13.609484432711568 a34.6504197219098,34.6504197219098 0 0,0 -0.5942640740707792,-0.05127560484364261 l 1.2904663141499442 -13.589284575589263" fill="#ffa00e" stroke="none" /><path d="M 97.65516085044442 120.86867818915974 l -2.6271178608461403 23.380911741166855 a44.5280424621984,44.5280424621984 0 0,0 -0.7609473021374428,-0.09214012105190755 l 3.029192586034972 -23.3322260913896" fill="#e0ff1b" stroke="none" /><path d="M 97.2962882734958 120.8252237178851 l -2.460260565501834 18.950051582278665 a40.10909042893422,40.10909042893422 0 0,0 -0.6839008817192033,-0.0947824304872506 l 2.786090038407868 -18.90489458629881" fill="#ffe715" stroke="none" /><path d="M 96.93821686468263 120.77559828337769 l -1.8442974312124305 12.514401201038446 a33.649571946723306,33.649571946723306 0 0,0 -0.5723057287759284,-0.08938238477302721 l 2.0594390235968763 -12.480800508918312" fill="#ff930d" stroke="none" /><path d="M 96.58105272829116 120.7198165907248 l -2.2831803362034284 13.83673805125388 a35.023845134150726,35.023845134150726 0 0,0 -0.5939894508348296,-0.10327267982698829 l 2.5210187585103077 -13.795386792905886" fill="#ffa50f" stroke="none" /><path d="M 96.22490169976321 120.6578951692458 l -2.8400403789011373 15.541120192839683 a36.7984887315869,36.7984887315869 0 0,0 -0.6221264397396141,-0.11923201284949991 l 3.107134433212446 -15.489930981641715" fill="#ffbd11" stroke="none" /><path d="M 95.86986931433489 120.58985236759428 l -2.611133552717679 13.017228377089765 a34.276530158570765,34.276530158570765 0 0,0 -0.5774918591750224,-0.121019033938303 l 2.8348168733220884 -12.97035336242492" fill="#ff9b0e" stroke="none" /><path d="M 95.16358092515715 120.4354850818985 l -5.331291445807184 22.52648604723854 a44.148763295618394,44.148763295618394 0 0,0 -0.7380132541703023,-0.18138570210179503 l 5.718257984720697 -22.431379086822712" fill="#e5ff1a" stroke="none" /><path d="M 94.81253420990036 120.34920634021253 l -5.879489125276084 23.063850871772328 a44.801462337629445,44.801462337629445 0 0,0 -0.7456447268106003,-0.19693154941014188 l 6.275624294898174 -22.959227973058606" fill="#ddff1b" stroke="none" /><path d="M 94.46302465271185 120.25689768951611 l -2.7726325806582435 10.143612892284416 a31.515720324154984,31.515720324154984 0 0,0 -0.522063657881213,-0.14754040447016015 l 2.9468274066440703 -10.094383694475734" fill="#ff750a" stroke="none" /><path d="M 94.11515582081647 120.15858648285463 l -3.0091265131818563 10.307789842320547 a31.738033982334972,31.738033982334972 0 0,0 -0.5231108487310494,-0.15760900757894006 l 3.1861123363531516 -10.254465465635882" fill="#ff790b" stroke="none" /><path d="M 93.76903079525671 120.05430185196036 l -8.773158809373433 28.236309501325564 a50.56784553783273,50.56784553783273 0 0,0 -0.8290204687340069,-0.26542617448509337 l 9.257900623198381 -28.081110480180765" fill="#9aff23" stroke="none" /><path d="M 93.42475214034765 119.94407469862007 l -5.183274394971469 15.7219338226166 a37.55432078269304,37.55432078269304 0 0,0 -0.6121895553762096,-0.2076879354653196 l 5.453133683284904 -15.630382900253158" fill="#ffc712" stroke="none" /><path d="M 93.08242187328487 119.8279376855182 l -2.4832479823425633 7.117763666654543 a28.53850649373972,28.53850649373972 0 0,0 -0.4624331204124358,-0.16581206439753884 l 2.6054006633847258 -7.073964061217047" fill="#ff4c07" stroke="none" /><path d="M 92.7421414339146 119.70592522655815 l -5.086844675276078 13.811371480633834 a35.718354898780305,35.718354898780305 0 0,0 -0.575116164606212,-0.21745972272006533 l 5.323831060642573 -13.721763507807136" fill="#ffae10" stroke="none" /><path d="M 92.06813273071674 119.44442032107085 l -3.967133029948308 9.725150394616811 a31.503175456747467,31.503175456747467 0 0,0 -0.5003432443468738,-0.2091435167160326 l 4.133947733792644 -9.655421834880805" fill="#ff750a" stroke="none" /><path d="M 91.7346041902142 119.30500536409082 l -5.035597389926166 11.761352615301519 a33.79400861399159,33.79400861399159 0 0,0 -0.5327855986919404,-0.2335575493410857 l 5.23730366327585 -11.67293051266598" fill="#ff950d" stroke="none" /><path d="M 91.40352486487194 119.15986991738527 l -9.886807959591719 22.03577064160553 a45.15210465775789,45.15210465775789 0 0,0 -0.7063767351682112,-0.3242629135247121 l 10.26465269052735 -21.862320657746743" fill="#d9ff1c" stroke="none" /><path d="M 91.07499286063937 119.00905698771935 l -5.614427471573609 11.957970463674645 a34.21040701279395,34.21040701279395 0 0,0 -0.5308922984773919,-0.25486056554099973 l 5.819432438051242 -11.859555621634081" fill="#ff9a0e" stroke="none" /><line stroke="#e1ed5e" stroke-width="0.3" x1="58.666819895761336" x2="56.23545636021788" y1="174.27360380694188" y2="178.64263932499728" /><path d="M 58.180547188652646 175.14741091055294 a86.0,86.0 0 0,1 -31.652253787137756,-30.449443065178592" fill="none" id="id128" stroke="none" /><text fill="#e1ed5e" style="font-size:6.75px; font-family:Arial;" text-anchor="middle"><textPath startOffset="22.20632615414155" xlink:href="#id128">August</textPath></text><path d="M 89.7882731507175 118.34994917583269 l -5.129652049597595 9.217721526348468 a31.54892033751553,31.54892033751553 0 0,0 -0.4722591433525052,-0.26816106680208746 l 5.287559959871307 -9.128057293751748" fill="#ff760a" stroke="none" /><path d="M 89.4739219176387 118.17145234162733 l -5.269884494915775 9.097543662127283 a31.513656988606105,31.513656988606105 0 0,0 -0.46705059791643727,-0.27594172568142616 l 5.425702963860595 -9.005483364152106" fill="#ff750a" stroke="none" /><path d="M 88.8546689885994 117.79835938074946 l -5.599741047007954 8.942417546130564 a31.55101565551343,31.55101565551343 0 0,0 -0.4578175540065409,-0.2922008238548393 l 5.752840403061419 -8.84470229345192" fill="#ff760a" stroke="none" /><path d="M 88.24862548938628 117.40417183066458 l -18.506025160936915 27.408031419018027 a54.07072955837396,54.07072955837396 0 0,0 -0.766885454399013,-0.5274708083705516 l 18.97506749995882 -27.085419821282372" fill="#73ff27" stroke="none" /><path d="M 87.65650970185807 116.9893568818739 l -6.16740916362729 8.488710468964845 a31.492623180954666,31.492623180954666 0 0,0 -0.4358204579681023,-0.3224095558091741 l 6.312614592013956 -8.381290964415905" fill="#ff750a" stroke="none" /><path d="M 87.07902340077011 116.55440617244103 l -9.042271495585045 11.584993898086813 a35.69607966154847,35.69607966154847 0 0,0 -0.4811194232174094,-0.38223036756445067 l 9.240348411519813 -11.427629616517232" fill="#ffae10" stroke="none" /><path d="M 86.24171649860922 115.8653595955263 l -15.151174003266222 17.47157076912314 a44.1260428698411,44.1260428698411 0 0,0 -0.5695572074210558,-0.5025680142680901 l 15.449673563593866 -17.208179613082763" fill="#e5ff1a" stroke="none" /><path d="M 85.97065885151581 115.62618273729859 l -7.053863561243344 7.856745362833348 a31.558666527409603,31.558666527409603 0 0,0 -0.4010963006852818,-0.3663919607745031 l 7.18805941139548 -7.73416063547227" fill="#ff760a" stroke="none" /><path d="M 85.70375840098266 115.38237550388516 l -7.143312579135256 7.686014234778856 a31.492937120771057,31.492937120771057 0 0,0 -0.39390790720999036,-0.37246451275894593 l 7.274556320736063 -7.56191508527398" fill="#ff750a" stroke="none" /><path d="M 85.18274418774928 114.88116024355367 l -7.404786582549926 7.436722231193194 a31.494555820854664,31.494555820854664 0 0,0 -0.3808732243056127,-0.3858225653700692 l 7.531700431911073 -7.30815917184246" fill="#ff750a" stroke="none" /><path d="M 84.9287848128048 114.62390073753433 l -7.553894116035628 7.329694146269303 a31.525480159789964,31.525480159789964 0 0,0 -0.37454289354763104,-0.3927067264819353 l 7.6789435609622165 -7.198580303204868" fill="#ff760a" stroke="none" /><path d="M 84.43433777217949 114.09645910891817 l -12.485074315187205 11.30664002468745 a37.843906592700264,37.843906592700264 0 0,0 -0.4331165735376388,-0.486611061806813 l 12.677849738373181 -11.090054793139773" fill="#ffca12" stroke="none" /><path d="M 84.19399662182784 113.82643327865904 l -5.702846416857241 4.988612465438733 a28.576853673167523,28.576853673167523 0 0,0 -0.32068331528484434,-0.37302714408215043 l 5.787872241712865 -4.889708222195051" fill="#ff4c07" stroke="none" /><path d="M 83.95833913139862 113.55231037782056 l -8.021586275705253 6.776793738583842 a31.500989465469054,31.500989465469054 0 0,0 -0.3463668797565893,-0.41722121950467694 l 8.13704915535538 -6.6377112619654035" fill="#ff750a" stroke="none" /><path d="M 83.50135304334701 112.99209946851258 l -8.257690794109534 6.502638698746732 a31.51065018433969,31.51065018433969 0 0,0 -0.3319019526572454,-0.42902801464295276 l 8.368399563984847 -6.359532689990527" fill="#ff750a" stroke="none" /><path d="M 83.28015986056508 112.70617746262583 l -11.551585325696962 8.77858232488643 a35.508708804427286,35.508708804427286 0 0,0 -0.36563610538868746,-0.4898293145665249 l 11.700982697780734 -8.578440130810597" fill="#ffac0f" stroke="none" /><path d="M 82.85270091963577 112.12312394758628 l -25.87577400504605 18.294147319219743 a52.689611965083,52.689611965083 0 0,0 -0.5172089910695898,-0.7450781269051013 l 26.186843903277776 -17.84602793012763" fill="#82ff25" stroke="none" /><path d="M 82.44556493220864 111.52570212397912 l -8.775474123641896 5.761706392440955 a31.497914395126465,31.497914395126465 0 0,0 -0.2936732596348527,-0.45578742058105776 l 8.873352246653793 -5.609797371938448" fill="#ff750a" stroke="none" /><line stroke="#e1ed5e" stroke-width="0.3" x1="26.63291911575756" x2="22.317208475507996" y1="142.92168965132927" y2="145.44649492493687" /><path d="M 25.769776987707644 143.4266507060508 a86.0,86.0 0 0,1 -11.730757126820373,-40.83630448921669" fill="none" id="id129" stroke="none" /><text fill="#e1ed5e" style="font-size:6.75px; font-family:Arial;" text-anchor="middle"><textPath startOffset="21.46611528233685" xlink:href="#id129">September</textPath></text><path d="M 81.87401531095188 110.60418214915194 l -12.683980566954384 7.420465294200306 a35.69512396018855,35.69512396018855 0 0,0 -0.30569984720635063,-0.5330134511210841 l 12.809832410313113 -7.201031997220915" fill="#ffae10" stroke="none" /><path d="M 81.51974371655577 109.97397251340807 l -16.54732265917342 8.930749597934179 a39.803514979061646,39.803514979061646 0 0,0 -0.3202240009307448,-0.6057431301953603 l 16.698599168329054 -8.644591452652694" fill="#ffe315" stroke="none" /><path d="M 81.02952815118164 109.00673069616217 l -12.177545633092194 5.781610227281655 a34.48034252036092,34.48034252036092 0 0,0 -0.2499420643645694,-0.5383529707513779 l 12.27526231429659 -5.57113718925145" fill="#ff9e0e" stroke="none" /><path d="M 80.73074385275274 108.34839909993369 l -27.066568891182786 11.726582367411405 a50.49765898441481,50.49765898441481 0 0,0 -0.3386926533352538,-0.8005693842921361 l 27.26441252571035 -11.25893845745311" fill="#9aff22" stroke="none" /><path d="M 80.58989483394504 108.01547362559985 l -28.21570004949037 11.651776105265336 a51.52686711226757,51.52686711226757 0 0,0 -0.3314830972559205,-0.8227138626582418 l 28.412085761003677 -11.16436287476429" fill="#8fff24" stroke="none" /><path d="M 80.45479744820244 107.68017299344265 l -9.768058120641273 3.838301290442636 a31.49511868653421,31.49511868653421 0 0,0 -0.1939285243357257,-0.5062861823031704 l 9.832680924570509 -3.669591541306308" fill="#ff750a" stroke="none" /><path d="M 80.20201598880116 107.00284435728193 l -41.76577220978051 14.773181051229328 a65.30154180896727,65.30154180896727 0 0,0 -0.36571714620374607,-1.06294521526955 l 42.01388018692748 -14.052063132870481" fill="#35ff68" stroke="none" /><path d="M 79.97269907076064 106.31721596034903 l -10.013654686125985 3.1586093117651823 a31.500004426539192,31.500004426539192 0 0,0 -0.15865986353648717,-0.5185096140355094 l 10.066541322168604 -2.9857727251776254" fill="#ff750a" stroke="none" /><path d="M 79.86692584326677 105.97154293290107 l -12.066387433616468 3.578934346733184 a33.58596348144884,33.58596348144884 0 0,0 -0.15962506917728633,-0.5556758066478588 l 12.126205139679858 -3.370701064580729" fill="#ff920d" stroke="none" /><path d="M 79.50377843672027 104.57218783832718 l -22.173381569347573 4.946319751323782 a43.718383069712914,43.718383069712914 0 0,0 -0.15752349906585536,-0.7358973453625651 l 22.255239107137868 -4.563908586545053" fill="#eaff1a" stroke="none" /><path d="M 79.35854240842038 103.8639653848113 l -12.382019807388959 2.317844838114334 a33.59709566543597,33.59709566543597 0 0,0 -0.10151691652583497,-0.5693607798643374 l 12.420083166253983 -2.1043653075167827" fill="#ff920d" stroke="none" /><path d="M 79.23777060512086 103.15116336523772 l -10.387405695014518 1.5765364915033957 a31.506363042550067,31.506363042550067 0 0,0 -0.07676442686131557,-0.5368902226764717 l 10.413004172892434 -1.3975007968465236" fill="#ff750a" stroke="none" /><path d="M 79.1416061653843 102.43462659150553 l -7.472952228055162 0.8722554744977477 a28.523685573944853,28.523685573944853 0 0,0 -0.05272494412800891,-0.4881675004132267 l 7.486859473684222 -0.7434916521997389" fill="#ff4b07" stroke="none" /><path d="M 79.07016306316243 101.71520430193888 l -12.564664737467373 1.0296767755602052 a33.60678524553679,33.60678524553679 0 0,0 -0.04228604373408199,-0.5769594703333486 l 12.58052733986579 -0.813244168730096" fill="#ff920d" stroke="none" /><path d="M 79.04373962182676 101.35467743843564 l -6.554544995523642 0.4237060460412703 a27.56822555274984,27.56822555274984 0 0,0 -0.026535925617936648,-0.4738167777348348 l 6.56086727202911 -0.3108175519709979" fill="#ff3e05" stroke="none" /><path d="M 79.0235259727143 100.99374915477108 l -7.407633766989274 0.35093265842599897 a28.415941730932737,28.415941730932737 0 0,0 -0.01894107510750542,-0.4887849857493989 l 7.41257697494798 -0.2233704256626033" fill="#ff4a06" stroke="none" /><line stroke="#e1ed5e" stroke-width="0.3" x1="15.007084014347285" x2="10.007500721073583" y1="101.09737516637583" y2="101.16192664675087" /><path d="M 14.007167355692545 101.11028546245083 a86.0,86.0 0 0,1 10.666146001902534,-42.60595125391555" fill="none" id="id130" stroke="none" /><text fill="#e1ed5e" style="font-size:6.75px; font-family:Arial;" text-anchor="middle"><textPath startOffset="22.20632615414155" xlink:href="#id130">October</textPath></text><path d="M 79.00175016825051 100.2711162175752 l -8.947991224149789 0.11553084447636046 a29.94873702393176,29.94873702393176 0 0,0 -0.0022186348268615286,-0.5155325987581904 l 8.948654156266153 0.03851123248550529" fill="#ff6008" stroke="none" /><path d="M 79.00486145842228 99.54816195383935 l -23.92341454668867 -0.5148577069334616 a44.92895405217503,44.92895405217503 0 0,0 0.023295246643255503,-0.7730558259057906 l 23.911007605589766 0.9265836802642465" fill="#dbff1b" stroke="none" /><path d="M 79.01574976396665 99.18683210126434 l -6.293136618657198 -0.24386750172577087 a27.297859942828367,27.297859942828367 0 0,0 0.022236566027100092,-0.4693787637293325 l 6.2880064443966 0.3521573720781125" fill="#ff3a05" stroke="none" /><path d="M 79.05617556472873 98.46500227214037 l -7.622232701725716 -0.5586424730844448 a28.642677068409395,28.642677068409395 0 0,0 0.04027094405886864,-0.4914075200790388 l 7.6114872738473505 0.689763910371262" fill="#ff4d07" stroke="none" /><path d="M 79.12142395522702 97.74499172005258 l -45.29093405402941 -4.891685672402834 a66.55433345142953,66.55433345142953 0 0,0 0.1328223152871831,-1.137940484159566 l 45.20002138573863 5.670569894887262" fill="#37ff76" stroke="none" /><path d="M 79.3925641242962 95.95851677861259 l -10.320358193343743 -2.024005059566021 a31.516957246279276,31.516957246279276 0 0,0 0.10898969646865785,-0.5314724668840355 l 10.28398920096009 2.2013531826134587" fill="#ff750a" stroke="none" /><path d="M 79.81627453868168 94.20196356495316 l -10.092148855816301 -2.8991004106789573 a31.5002976966919,31.5002976966919 0 0,0 0.15419261154502892,-0.5198608328766233 l 10.040750347159566 3.07239063030212" fill="#ff750a" stroke="none" /><path d="M 80.02781315780177 93.51064311812611 l -10.251175327993801 -3.330808773602007 a31.77872361142881,31.77872361142881 0 0,0 0.1735159261793001,-0.5187905337521559 l 10.192322108042728 3.5067724102764855" fill="#ff790b" stroke="none" /><path d="M 80.2630227832202 92.82701384747504 l -15.782462312554504 -5.735801504824905 a37.79242494549119,37.79242494549119 0 0,0 0.22746614773841495,-0.6094961868853819 l 15.68139157631446 6.006620828739628" fill="#ffca12" stroke="none" /><path d="M 80.803312248108 91.48605970444005 l -15.371577011559646 -6.8174619818005775 a37.815563258351034,37.815563258351034 0 0,0 0.26902654921540253,-0.5927643403756945 l 15.251948145380892 7.0810483310183425" fill="#ffca12" stroke="none" /><line stroke="#e1ed5e" stroke-width="0.3" x1="26.266209847984243" x2="21.928928074336255" y1="57.711370442889674" y2="55.22380399835377" /><path d="M 25.398753493254645 57.213857153982495 a86.0,86.0 0 0,1 29.58750427330803,-30.492523968695096" fill="none" id="id131" stroke="none" /><text fill="#e1ed5e" style="font-size:6.75px; font-family:Arial;" text-anchor="middle"><textPath startOffset="21.46611528233685" xlink:href="#id131">November</textPath></text><path d="M 81.96595687620814 89.24020034530311 l -9.005852975840162 -5.373236221879533 a31.486994579886428,31.486994579886428 0 0,0 0.2817099448099131,-0.46305707862490963 l 8.912027232744032 5.527461073711517" fill="#ff750a" stroke="none" /><path d="M 82.15384107792192 88.93136811851018 l -8.921454305495907 -5.533307978833572 a31.498087640788427,31.498087640788427 0 0,0 0.28974101443935407,-0.45830070338793805 l 8.82488569481059 5.6860563299357265" fill="#ff750a" stroke="none" /><path d="M 82.54541684631803 88.32363383020206 l -8.708961231299437 -5.825920871320017 a31.47794635065282,31.47794635065282 0 0,0 0.30514951180880345,-0.44776925510737203 l 8.607387253821893 5.974968149697805" fill="#ff750a" stroke="none" /><path d="M 82.7489923806493 88.02491185347247 l -18.47278283390319 -12.823204744255813 a43.48729164531943,43.48729164531943 0 0,0 0.43215471263268596,-0.6112521936210101 l 18.249315501466626 13.13928343820861" fill="#edff1a" stroke="none" /><path d="M 83.39014120810768 87.1503855733568 l -9.109213441361776 -7.0470123748811995 a32.516863849677776,32.516863849677776 0 0,0 0.3462982815172311,-0.43976365038579385 l 8.986561079250574 7.202768419220041" fill="#ff830c" stroke="none" /><path d="M 83.84228863543731 86.58626213691792 l -8.047895287685147 -6.681166367119583 a31.45976111518206,31.45976111518206 0 0,0 0.3494870652572594,-0.41368245136968906 l 7.931697608940764 6.818707768118387" fill="#ff750a" stroke="none" /><path d="M 84.07557802195018 86.31012108654704 l -6.36131297503061 -5.468682284279133 a29.388849068417027,29.388849068417027 0 0,0 0.33308500944599834,-0.3807737453626619 l 6.2662361020067685 5.5773715858447375" fill="#ff5808" stroke="none" /><path d="M 84.5562425177563 85.77008943001954 l -7.73585245980576 -7.127830698724921 a31.519001081355977,31.519001081355977 0 0,0 0.37107271648379686,-0.39583450164797046 l 7.6120124213515075 7.259934617250941" fill="#ff750a" stroke="none" /><path d="M 85.05521093208273 85.24692304244772 l -5.993114627419614 -5.9162348101361175 a29.421357210453507,29.421357210453507 0 0,0 0.3588904013241654,-0.3573492118858855 l 5.890388425928136 6.018519872672112" fill="#ff5808" stroke="none" /><path d="M 85.31137513191541 84.99185889309783 l -6.61469530042786 -6.758582327450335 a30.45688262560271,30.45688262560271 0 0,0 0.377834679585668,-0.36347666240338444 l 6.497377377229764 6.871442076616034" fill="#ff6709" stroke="none" /><path d="M 85.83668400450813 84.49514656593479 l -5.66033075129611 -6.196472543231609 a29.392592936220105,29.392592936220105 0 0,0 0.37648974028130827,-0.3380162061399167 l 5.552830023418831 6.2929877581408045" fill="#ff5808" stroke="none" /><path d="M 86.65592168130627 83.78471172551755 l -4.0115945119015555 -4.874758668021905 a27.313173734293503,27.313173734293503 0 0,0 0.36560191957748833,-0.29562465972239566 l 3.927089193759566 4.943089425008435" fill="#ff3a05" stroke="none" /><path d="M 86.93701828274178 83.55741782278169 l -3.911582398378273 -4.923570775830095 a27.28824506869054,27.28824506869054 0 0,0 0.3702981653051498,-0.2890235915928393 l 3.8262516779136972 4.990172756646157" fill="#ff3a05" stroke="none" /><path d="M 87.80319425747018 82.90503203632743 l -26.20639868031368 -36.730727318304496 a66.12118860494687,66.12118860494687 0 0,0 0.9322107123638327,-0.6530731776728601 l 25.570256828366187 37.1763853387413" fill="#36ff71" stroke="none" /><line stroke="#e1ed5e" stroke-width="0.3" x1="56.762969772571076" x2="54.21961505331055" y1="26.818313649435495" y2="22.513508569990535" /><path d="M 56.25429882871897 25.957352633546506 a86.0,86.0 0 0,1 42.265352541879196,-11.944610805530505" fill="none" id="id132" stroke="none" /><text fill="#e1ed5e" style="font-size:6.75px; font-family:Arial;" text-anchor="middle"><textPath startOffset="22.20632615414155" xlink:href="#id132">December</textPath></text><path d="M 89.63071344664047 81.73862282372117 l -3.543041557880811 -6.239659585714673 a28.17540906335461,28.17540906335461 0 0,0 0.4238063335073753,-0.2358477657514744 l 3.43511113530139 6.299722749026332" fill="#ff4606" stroke="none" /><path d="M 90.91171255644093 81.06846463323043 l -4.538433191345955 -9.453872250990317 a31.486804869470745,31.486804869470745 0 0,0 0.4906270766594484,-0.23035599108246815 l 4.375027903386897 9.530593224712792" fill="#ff750a" stroke="none" /><path d="M 91.90106846888425 80.62456947434976 l -4.045529709858775 -9.678298863458107 a31.489794064888237,31.489794064888237 0 0,0 0.5019115246122939,-0.20474231313721417 l 3.8783343156581 9.746502062778898" fill="#ff750a" stroke="none" /><path d="M 94.28887869178378 79.79150937346287 l -1.7097053822551511 -6.049699056774994 a27.286648643884632,27.286648643884632 0 0,0 0.45309104657777244,-0.12384689864314784 l 1.6053164464536562 6.078232496244438" fill="#ff3a05" stroke="none" /><path d="M 94.98787191387505 79.60689891045804 l -2.438152505831069 -9.920235410738364 a31.215461724570147,31.215461724570147 0 0,0 0.5228980969157822,-0.12375308538003058 l 2.267030721952753 9.960734408259267" fill="#ff710a" stroke="none" /><path d="M 95.692805502759 79.44645832069477 l -2.1248440953034824 -10.13956339859292 a31.35981217703445,31.35981217703445 0 0,0 0.5292843251591685,-0.1061694563785174 l 1.9499933606771775 10.174636811048646" fill="#ff730a" stroke="none" /><path d="M 96.04723909329186 79.375362276772 l -2.4635681238381597 -12.854357058233834 a34.088302536286264,34.088302536286264 0 0,0 0.5772365092963815,-0.10548628247100196 l 2.241936493438885 12.894858822055573" fill="#ff990e" stroke="none" /><path d="M 97.11714578562143 79.19881850522333 l -1.4406253805638822 -10.39480590368691 a31.494159864536517,31.494159864536517 0 0,0 0.5376282118788239,-0.06979957193487023 l 1.2614824401772005 10.418063798785917" fill="#ff750a" stroke="none" /><path d="M 97.83486435360386 79.11191278185805 l -1.08086696230347 -10.427634599884174 a31.483503075732877,31.483503075732877 0 0,0 0.5395296032444534,-0.0512348368746576 l 0.9012122319687802 10.444694981274012" fill="#ff750a" stroke="none" /><path d="M 99.63851952072746 79.00311137660856 l -0.2712646744920216 -15.756629982431733 a36.7589648431264,36.7589648431264 0 0,0 0.6327451537645534,-0.0054462373032257766 l 3.8598331706020836e-15 15.7589648431264" fill="#ffbc11" stroke="none" /></svg>