<?xml version="1.0" encoding="utf-8" ?>
<svg baseProfile="full" height="200mm" version="1.1" viewBox="0,0,200,200" width="200mm" xmlns="http://www.w3.org/2000/svg" xmlns:ev="http://www.w3.org/2001/xml-events" xmlns:xlink="http://www.w3.org/1999/xlink"><defs /><rect fill="#1a1a1a" height="200" width="200" x="0" y="0" /><text alignment-baseline="middle" fill="#e1ed5e" style="dominant-baseline: central; font-size:9.0px; font-family:Arial;" text-anchor="middle" x="100.0" y="100.0">2026</text><line stroke="#e1ed5e" stroke-width="0.3" x1="100.0" x2="100.0" y1="15.0" y2="10.0" /><path d="M 100.0 14.0 a86.0,86.0 0 0,1 42.46469731375804,11.215312516191453" fill="none" id="id157" stroke="none" /><text fill="#e1ed5e" style="font-size:6.75px; font-family:Arial;" text-anchor="middle"><textPath startOffset="22.20632615414155" xlink:href="#id157">January</textPath></text><path d="M 100.0 79.0 l 0.0 -14.75777604005556 a35.75777604005556,35.75777604005556 0 0,0 0.6155113343180484,0.005297900378338841 l -0.25403085504552 14.75558951628578" fill="#ffa90f" stroke="none" /><path d="M 100.72285384407766 79.0124445844662 l 0.40641922133313263 -11.800097626306343 a32.80709450177433,32.80709450177433 0 0,0 0.5642182353326359,0.0242964240780086 l -0.6094782890551002 11.79135347570414" fill="#ff800b" stroke="none" /><path d="M 101.08401301168833 79.027996857942 l 0.8759016561122407 -16.945748884978524 a37.968370840594304,37.968370840594304 0 0,0 0.6524013877627557,0.03935463334075875 l -1.1674650927146084 16.928160982257463" fill="#ffc612" stroke="none" /><path d="M 101.80526077348638 79.07773832637324 l 1.1415357566976057 -13.229950022845873 a34.279106953813525,34.279106953813525 0 0,0 0.5874375837363603,0.05578427688821644 l -1.3690984675242102 13.20834020144248" fill="#ff950d" stroke="none" /><path d="M 102.16513564639614 79.11191278185805 l 1.5209203459019733 -14.673037640817897 a35.75165185012978,35.75165185012978 0 0,0 0.6115801785283215,0.06871815898959613 l -1.7732672279400201 14.644683528357701" fill="#ffa80f" stroke="none" /><path d="M 102.52436894288641 79.15227682838746 l 2.3591273693301558 -19.483061087787586 a40.62537009320297,40.62537009320297 0 0,0 0.6935046108252902,0.09003680220072373 l -2.694146708663292 19.439565962422726" fill="#ffe815" stroke="none" /><path d="M 103.2404852339499 79.25152402106235 l 2.2768109697802372 -14.578174040152804 a35.754898391283376,35.754898391283376 0 0,0 0.6072727616020427,0.10020520897814422 l -2.527412937521155 14.536822568235035" fill="#ffa90f" stroke="none" /><path d="M 103.59715602781102 79.31037775812273 l 7.6599962545246125 -44.057702155541485 a65.71863886396517,65.71863886396517 0 0,0 1.1128508864048823,0.20336638632663925 l -8.417242262032396 43.91932028786411" fill="#36ff6a" stroke="none" /><path d="M 104.307194497241 79.44645832069477 l 3.0259419830396785 -14.439520831344884 a35.75317209021724,35.75317209021724 0 0,0 0.6012615646786302,0.1314124897914391 l -3.274046271871837 14.385294843457576" fill="#ffa80f" stroke="none" /><path d="M 104.66035177308747 79.52364482259891 l 2.1285300167816326 -9.352198879293082 a30.591364027613132,30.591364027613132 0 0,0 0.5124436784962397,0.12127886230883686 l -2.289197382240396 9.314174104843376" fill="#ff6109" stroke="none" /><path d="M 105.01212808612495 79.60689891045804 l 3.520849191242824 -14.325458616433485 a35.75178442082935,35.75178442082935 0 0,0 0.5963586807745582,0.15202510620936235 l -3.766916760702407 14.262730514055255" fill="#ffa80f" stroke="none" /><path d="M 105.71112130821622 79.79150937346287 l 2.4668294499792487 -8.728741192286382 a30.07062127625236,30.07062127625236 0 0,0 0.4968952258092196,0.14505734217795968 l -2.6167148935118956 8.684985521189718" fill="#ff5a08" stroke="none" /><path d="M 106.0581310904928 79.89281104454417 l 13.411153262985806 -44.5121752470197 a67.48863062152603,67.48863062152603 0 0,0 1.109431546013053,0.3447057817822987 l -14.175370181709578 44.27472933035487" fill="#38ff7f" stroke="none" /><path d="M 106.74666289553966 80.11325718540242 l 4.739476246409197 -13.97027636441511 a35.752330554472145,35.752330554472145 0 0,0 0.581091134043801,0.2027312866443696 l -4.9792493845162715 13.886624224598531" fill="#ffa80f" stroke="none" /><path d="M 107.08798089147638 80.2323363322302 l 5.926135364545835 -16.52739370063647 a38.557728295390575,38.557728295390575 0 0,0 0.6228315674216814,0.22939412257322422 l -6.209749257740093 16.42293631025692" fill="#ffce13" stroke="none" /><path d="M 107.76421540070413 80.48803036053334 l 5.4543258419841765 -13.707069515730081 a35.75240404475126,35.75240404475126 0 0,0 0.5698526826081727,0.23245721738461675 l -5.689462394180737 13.611151412161886" fill="#ffa80f" stroke="none" /><path d="M 108.09893153111575 80.62456947434976 l 2.8436586275425544 -6.803009750722787 a28.373420919656393,28.373420919656393 0 0,0 0.4489975532692319,0.19223732008376843 l -2.9603399386021017 6.753052902676228" fill="#ff4106" stroke="none" /><path d="M 108.43124777332544 80.76684994638697 l 19.694873902077482 -44.92745026946826 a70.05470258532077,70.05470258532077 0 0,0 1.1002520761014414,0.4936510349684986 l -20.465308096645703 44.58177890398323" fill="#3bff9d" stroke="none" /><path d="M 110.05341064243156 81.56283822128135 l 5.652010394110751 -10.365341048678717 a32.80616434539855,32.80616434539855 0 0,0 0.49346081174549,0.27461040747768023 l -5.829595294928276 10.266515243640857" fill="#ff800b" stroke="none" /><path d="M 110.36928655335952 81.73862282372117 l 5.832247499103323 -10.271186047224091 a32.81153562020992,32.81153562020992 0 0,0 0.4887407407062826,0.2831101830490639 l -6.008184972274933 10.16927170678498" fill="#ff800b" stroke="none" /><line stroke="#e1ed5e" stroke-width="0.3" x1="143.23703022742887" x2="145.7803849466894" y1="26.81831364943548" y2="22.513508569990506" /><path d="M 143.74570117128098 25.957352633546492 a86.0,86.0 0 0,1 28.547481713284135,27.462654790039103" fill="none" id="id158" stroke="none" /><text fill="#e1ed5e" style="font-size:6.75px; font-family:Arial;" text-anchor="middle"><textPath startOffset="19.985693538727396" xlink:href="#id158">February</textPath></text><path d="M 110.68208982089419 81.91981866633111 l 16.14002280431215 -27.318113208590017 a52.72979113390217,52.72979113390217 0 0,0 0.7774830274036668,0.4684248246937397 l -16.607867897933456 27.036241774437663" fill="#85ff25" stroke="none" /><path d="M 111.2981086023043 82.29822771554956 l 7.222106741624854 -11.315530187784107 a34.42386118887098,34.42386118887098 0 0,0 0.49674119238345993,0.3230942892814066 l -7.415814959792594 11.189536974343172" fill="#ff960d" stroke="none" /><path d="M 111.60114157652 82.49532879139004 l 5.703667839924772 -8.60612117889134 a31.324589511159957,31.324589511159957 0 0,0 0.4468904746278858,0.30174244334484207 l -5.850963008959199 8.506666823247828" fill="#ff6c09" stroke="none" /><path d="M 111.90073688211348 82.69761687909136 l 5.433837385948458 -7.900211323023558 a30.58853104940276,30.58853104940276 0 0,0 0.43125292998127546,0.30212023701105295 l -5.569021455513384 7.805506243248569" fill="#ff6109" stroke="none" /><path d="M 112.48926042617603 83.11751280151076 l 5.701783153364521 -7.707444461121804 a30.587232721138495,30.587232721138495 0 0,0 0.4205800521007706,0.3167721757034067 l -5.833609359223675 7.60815569591255" fill="#ff6109" stroke="none" /><path d="M 112.77801427241765 83.33499621200491 l 14.361683884313567 -18.730415480181662 a44.60267840845994,44.60267840845994 0 0,0 0.605252919004975,0.47240950364610396 l -14.681969358477973 18.480427587312334" fill="#e4ff1a" stroke="none" /><path d="M 113.34407831869373 83.78471172551755 l 8.533743041837369 -10.369925908625635 a34.429822547394025,34.429822547394025 0 0,0 0.4543793248973951,0.38052961735173024 l -8.710979903693882 10.221495133880087" fill="#ff970d" stroke="none" /><path d="M 113.6212207817346 84.01681056812373 l 5.979737622388022 -7.016645622520629 a30.21903345392784,30.21903345392784 0 0,0 0.3930002588175517,0.3408059517577226 l -6.0996316798523385 6.912674677343235" fill="#ff5c08" stroke="none" /><path d="M 114.16331599549186 84.49514656593476 l 6.334434258430982 -6.934426570441238 a30.392088651371722,30.392088651371722 0 0,0 0.3832183557091114,0.3561596969864545 l -6.452860497934941 6.824362287380143" fill="#ff5e08" stroke="none" /><path d="M 114.68862486808459 84.99185889309783 l 44.06587460425377 -45.02442332070654 a84.0,84.0 0 0,0 1.0246567993307099,1.0202565973995252 l -44.8343672037518 44.25923087265689" fill="#4dd2ff" stroke="none" /><path d="M 115.4437574822437 85.77008943001954 l 2.1699598406898017 -1.9994055532772381 a23.950652178194233,23.950652178194233 0 0,0 0.27675133630629656,0.30559573782017374 l -2.2040548176121337 1.9617570281875152" fill="#ff0000" stroke="none" /><path d="M 116.38621287248628 86.86637796730983 l 11.51651308335779 -9.230536131098287 a35.75916226845759,35.75916226845759 0 0,0 0.3808281296532775,0.48361305095759416 l -11.673695293605032 9.030930686187654" fill="#ffa90f" stroke="none" /><path d="M 116.82858285166822 87.43820079747576 l 11.826354811247125 -8.827855307018094 a35.757835120476024,35.757835120476024 0 0,0 0.3639422028961449,0.4964167557438676 l -11.976559626656897 8.622976107602733" fill="#ffa90f" stroke="none" /><path d="M 117.65298651832404 88.62581576622439 l 8.061908554694075 -5.194454382081959 a30.590449722081857,30.590449722081857 0 0,0 0.2813919383205614,0.4450944700029723 l -8.15012808926059 5.054912264364781" fill="#ff6109" stroke="none" /><line stroke="#e1ed5e" stroke-width="0.3" x1="172.23445277983987" x2="176.4835382374775" y1="55.19839476539836" y2="52.563006222186495" /><path d="M 173.08426987136738 54.67131705675599 a86.0,86.0 0 0,1 12.851231095245387,41.99856678651699" fill="none" id="id159" stroke="none" /><text fill="#e1ed5e" style="font-size:6.75px; font-family:Arial;" text-anchor="middle"><textPath startOffset="22.20632615414155" xlink:href="#id159">March</textPath></text><path d="M 117.84615892207809 88.93136811851018 l 17.372244949118045 -10.774698641676544 a41.442334147330236,41.442334147330236 0 0,0 0.3707790413536526,0.6094632542007716 l -17.555139788757923 10.47406761426869" fill="#fff316" stroke="none" /><path d="M 118.21658344932153 89.55222093294921 l 10.235636696275357 -5.870457054188475 a32.79959849330518,32.79959849330518 0 0,0 0.27667610675072574,0.4921759215599215 l -10.335170444318516 5.69339762269376" fill="#ff800b" stroke="none" /><path d="M 118.56541770881063 90.18545643968196 l 13.0513711064327 -6.899561984278466 a35.762867043116216,35.762867043116216 0 0,0 0.2830214831292799,0.5467074214769919 l -13.168202022722097 6.673881840541129" fill="#ffa90f" stroke="none" /><path d="M 118.89224826269711 90.83032412892265 l 8.625262190433794 -4.186418550591566 a30.587556942958095,30.587556942958095 0 0,0 0.22582619401925494,0.47564755746427684 l -8.696046578294807 4.037328577486749" fill="#ff6109" stroke="none" /><path d="M 119.04729006885535 91.15688171328212 l 20.340639134131504 -9.443583693025431 a43.42594197245988,43.42594197245988 0 0,0 0.3089397673509356,0.6807078258397854 l -20.500181218445785 9.092053858343583" fill="#f2ff19" stroke="none" /><path d="M 119.47837535516314 92.15188598940014 l 13.682580862496467 -5.512906113068617 a35.751445789151106,35.751445789151106 0 0,0 0.22507484449430937,0.5727909291511576 l -13.775449256872477 5.276566179021675" fill="#ffa80f" stroke="none" /><path d="M 119.61058180528143 92.48833698450437 l 8.95164723762392 -3.4288507169386495 a30.58587531245377,30.58587531245377 0 0,0 0.1840911569597893,0.49327277628732397 l -9.009342983085334 3.274254803621992" fill="#ff6109" stroke="none" /><path d="M 119.85752413597 93.16781622104841 l 11.159234226179727 -3.8394483896167855 a32.801265713950855,32.801265713950855 0 0,0 0.17909913783204084,0.53548362594926 l -11.223670657783538 3.6467916607452113" fill="#ff800b" stroke="none" /><path d="M 119.97218684219823 93.5106431181261 l 22.673883669556286 -7.367191394332485 a44.84073215531138,44.84073215531138 0 0,0 0.2321992250337513,0.7361349975171959 l -22.797338378358244 6.97580623038887" fill="#e1ff1b" stroke="none" /><path d="M 120.37134235888165 94.90015583598534 l 14.824675716409628 -3.7112692233940643 a36.28216376516157,36.28216376516157 0 0,0 0.14645416299291003,0.6071470559252258 l -14.886362679663357 3.4555369358094326" fill="#ffb010" stroke="none" /><path d="M 120.53481517161879 95.60439243477599 l 11.544061212312377 -2.4710795969754646 a32.80557426168687,32.80557426168687 0 0,0 0.11344590003793124,0.5532024980763014 l -11.584886408265303 2.2720014427357516" fill="#ff800b" stroke="none" /><path d="M 120.6074358757038 95.95851677861258 l 22.439915794926474 -4.400864994633633 a43.86738799216872,43.86738799216872 0 0,0 0.13894321696497305,0.7422402208606228 l -22.512344735801307 4.013946696310446" fill="#edff1a" stroke="none" /><path d="M 120.83666639777658 97.38593545837742 l 10.24361359057422 -1.2851128176655238 a31.323910806817594,31.323910806817594 0 0,0 0.06251304973622818,0.5355736340638891 l -10.264216993314038 1.1085954452767819" fill="#ff6c09" stroke="none" /><line stroke="#e1ed5e" stroke-width="0.3" x1="184.98032266829074" x2="189.97916517819016" y1="98.17113171792111" y2="98.06355123074" /><path d="M 185.9800911702706 98.14961562048488 a86.0,86.0 0 0,1 -9.607161424134198,41.387399972396054" fill="none" id="id160" stroke="none" /><text fill="#e1ed5e" style="font-size:6.75px; font-family:Arial;" text-anchor="middle"><textPath startOffset="21.466115282336823" xlink:href="#id160">April</textPath></text><path d="M 120.99980553446 99.90962569577887 l 9.223492910577153 -0.0396940225429269 a30.2235783233457,30.2235783233457 0 0,0 -0.0022389953675498514,0.5202636713646686 l -9.2228096179201 -0.1190791270254264" fill="#ff5c08" stroke="none" /><path d="M 120.9764740272857 100.99374915477107 l 22.25395658109753 1.0542692024413232 a43.27891530269349,43.27891530269349 0 0,0 -0.04165832418557071,0.7438373628126546 l -22.232511906024428 -1.437178281589401" fill="#f4ff19" stroke="none" /><path d="M 120.92983693683757 101.71520430193887 l 13.238020368317668 1.0848584035038185 a34.28239816552893,34.28239816552893 0 0,0 -0.05326081336859206,0.587728637370417 l -13.217384958672001 -1.312568429422806" fill="#ff950d" stroke="none" /><path d="M 120.89721153311464 102.0752229133903 l 13.286823149058003 1.319464073060477 a34.35217790603619,34.35217790603619 0 0,0 -0.0634986897494638,0.5879190043189243 l -13.262142157807487 -1.5479793992641928" fill="#ff950d" stroke="none" /><path d="M 120.8583938346157 102.4346265915055 l 14.651857202606735 1.7101892620901842 a35.751327628310186,35.751327628310186 0 0,0 -0.07660741836644853,0.6106364990918762 l -14.620248274993438 -1.9621435154694553" fill="#ffa80f" stroke="none" /><path d="M 120.70491114924044 103.5080841355445 l 22.370606347377905 3.790306979058274 a43.689434883770076,43.689434883770076 0 0,0 -0.132011908360265,0.7403928888664669 l -22.30204799667845 -4.17481861865796" fill="#efff19" stroke="none" /><path d="M 120.5718875245553 104.21870165774334 l 10.837720734927993 2.2225043947000884 a32.06325975979726,32.06325975979726 0 0,0 -0.115528446254902,0.5397104395027608 l -10.797858249948648 -2.408728653619018" fill="#ff760a" stroke="none" /><path d="M 120.41448212921028 104.9243191809786 l 8.896523386892934 2.1459922657267185 a30.15168897953224,30.15168897953224 0 0,0 -0.12604653082367775,0.5034932342985855 l -8.858265541774195 -2.2988133394227" fill="#ff5b08" stroke="none" /><path d="M 120.23288151984713 105.62410040840565 l 11.399472329755248 3.16869235469481 a32.83167700013641,32.83167700013641 0 0,0 -0.15604014799956728,0.5431962257307403 l -11.343239544869583 -3.364446055930132" fill="#ff810b" stroke="none" /><path d="M 120.13307415673323 105.97154293290107 l 22.21771996121246 6.589856451464093 a44.1744102044855,44.1744102044855 0 0,0 -0.22249856856983133,0.7271381957672287 l -22.100994620136497 -6.971321619783379" fill="#e9ff1a" stroke="none" /><path d="M 119.9155931802556 106.66101706037122 l 10.494377045573659 3.509974516241707 a32.06579733590533,32.06579733590533 0 0,0 -0.17958246570564715,0.5219507060294682 l -10.43240374892478 -3.690097925360475" fill="#ff760a" stroke="none" /><path d="M 119.79798401119884 107.00284435728193 l 13.291189702674243 4.701293462924656 a35.098151791529695,35.098151791529695 0 0,0 -0.20637001094332638,0.5678416377231152 l -13.20829543072569 -4.929382897653902" fill="#ffa00e" stroke="none" /><path d="M 119.54520255179757 107.68017299344265 l 13.728630400793227 5.394584996584276 a35.75048609256509,35.75048609256509 0 0,0 -0.2299903433396663,0.5708171707982751 l -13.633737443196168 -5.630101535225364" fill="#ffa80f" stroke="none" /><path d="M 119.41010516605496 108.01547362559984 l 12.68360850157123 5.237742328133976 a34.72253144711486,34.72253144711486 0 0,0 -0.23288735642120598,0.5504769167667748 l -12.591570163957714 -5.4552937705669144" fill="#ff9b0e" stroke="none" /><path d="M 119.26925614724726 108.34839909993367 l 13.535305638242802 5.864166864779356 a35.75103222620788,35.75103222620788 0 0,0 -0.24950630965763493,0.5625708605359012 l -13.432358243853894 -6.096286061807945" fill="#ffa80f" stroke="none" /><path d="M 118.97047184881838 109.00673069616215 l 11.998225081392821 5.6964730767503005 a34.28183762202749,34.28183762202749 0 0,0 -0.2576798298047717,0.5308967716423075 l -11.898391994973336 -5.902158804357883" fill="#ff950d" stroke="none" /><path d="M 118.81262510543309 109.33194174019688 l 8.594660488983497 4.263353493224229 a30.59397581449324,30.59397581449324 0 0,0 -0.23808134400624753,0.46975707850728465 l -8.52000047519098 -4.410664783434208" fill="#ff6109" stroke="none" /><path d="M 118.64920377521936 109.65438752849418 l 11.791572908772583 6.104304280435419 a34.277941196248825,34.277941196248825 0 0,0 -0.27577010420575465,0.521653110480074 l -11.684750296341935 -6.3063724060016275" fill="#ff940d" stroke="none" /><line stroke="#e1ed5e" stroke-width="0.3" x1="174.80103733775053" x2="179.2010983576182" y1="140.37084112569926" y2="142.7455964860345" /><path d="M 175.68104954172406 140.8457921977663 a86.0,86.0 0 0,1 -30.038265399797805,32.042727171017184" fill="none" id="id161" stroke="none" /><text fill="#e1ed5e" style="font-size:6.75px; font-family:Arial;" text-anchor="middle"><textPath startOffset="22.206326154141568" xlink:href="#id161">May</textPath></text><path d="M 118.48025628344425 109.97397251340804 l 7.827097058325084 4.224359755738281 a29.894305127796233,29.894305127796233 0 0,0 -0.2482986684448747,0.45073420645104567 l -7.7532219804287 -4.3584644805871315" fill="#ff5708" stroke="none" /><path d="M 118.12598468904814 110.60418214915192 l 19.108430602400713 11.178939084877207 a43.138220324817425,43.138220324817425 0 0,0 -0.3804773044047438,0.6377018471960108 l -18.91317242229774 -11.506203025959323" fill="#f6ff19" stroke="none" /><path d="M 117.75023020441432 111.22182372390056 l 8.106230891761674 5.124817711376163 a30.590345971099588,30.590345971099588 0 0,0 -0.28521147470260677,0.44265454245461766 l -8.016814553682018 -5.2635938537522335" fill="#ff6109" stroke="none" /><path d="M 117.55443506779139 111.5257021239791 l 11.229254310791038 7.37278298964191 a34.433319820088116,34.433319820088116 0 0,0 -0.32957096924938956,0.492663882251525 l -11.100680236130929 -7.564983786099242" fill="#ff970d" stroke="none" /><path d="M 117.35343817320211 111.8261652097733 l 14.628482662401359 9.969139890734432 a38.702436418900355,38.702436418900355 0 0,0 -0.3799088159051058,0.5472869842497036 l -14.454712939334117 -10.219468137171155" fill="#ffd013" stroke="none" /><path d="M 116.93607887273984 112.41649034213515 l 19.04163191066039 13.960152198969917 a44.61079404085099,44.61079404085099 0 0,0 -0.4593610283390359,0.6153891651665302 l -18.798509615626262 -14.285854243645762" fill="#e4ff1a" stroke="none" /><path d="M 116.498646956653 112.99209946851258 l 10.42990044221921 8.213176774314391 a34.27550737112303,34.27550737112303 0 0,0 -0.3690037272306066,0.4603888866370154 l -10.28697880293375 -8.391493494529657" fill="#ff940d" stroke="none" /><path d="M 116.27256486870786 113.27417163493432 l 11.841538575381575 9.659609086799868 a36.28169112179789,36.28169112179789 0 0,0 -0.3989327433642879,0.48054018849539715 l -11.673509832123745 -9.862010532409036" fill="#ffb010" stroke="none" /><path d="M 115.56566222782051 114.09645910891815 l 10.934369741911372 9.902302497169602 a35.751814681532515,35.751814681532515 0 0,0 -0.4170254965196511,0.45259881293622073 l -10.762297837395998 -10.089052564907158" fill="#ffa80f" stroke="none" /><line stroke="#e1ed5e" stroke-width="0.3" x1="143.8653032363475" x2="146.44561519142675" y1="172.8068346515853" y2="177.08958963109032" /><path d="M 144.38136562736335 173.6633856474863 a86.0,86.0 0 0,1 -40.68145358897372,12.25698825130547" fill="none" id="id162" stroke="none" /><text fill="#e1ed5e" style="font-size:6.75px; font-family:Arial;" text-anchor="middle"><textPath startOffset="21.466115282336833" xlink:href="#id162">June</textPath></text><path d="M 104.13013068566511 120.58985236759428 l 6.658272891425359 33.19334575378602 a54.85455361139878,54.85455361139878 0 0,0 -0.9273877628694874,0.17773607195541563 l -6.085917513984167 -33.3030390240899" fill="#6eff28" stroke="none" /><line stroke="#e1ed5e" stroke-width="0.3" x1="102.19456741930631" x2="102.32365962044197" y1="184.97166512339345" y2="189.96999836594603" /><path d="M 102.22038585953345 185.97133177190398 a86.0,86.0 0 0,1 -42.740103519485714,-10.115201625700543" fill="none" id="id163" stroke="none" /><text fill="#e1ed5e" style="font-size:6.75px; font-family:Arial;" text-anchor="middle"><textPath startOffset="22.20632615414155" xlink:href="#id163">July</textPath></text><line stroke="#e1ed5e" stroke-width="0.3" x1="58.666819895761336" x2="56.23545636021788" y1="174.27360380694188" y2="178.64263932499728" /><path d="M 58.180547188652646 175.14741091055294 a86.0,86.0 0 0,1 -31.652253787137756,-30.449443065178592" fill="none" id="id164" stroke="none" /><text fill="#e1ed5e" style="font-size:6.75px; font-family:Arial;" text-anchor="middle"><textPath startOffset="22.20632615414155" xlink:href="#id164">August</textPath></text><line stroke="#e1ed5e" stroke-width="0.3" x1="26.63291911575756" x2="22.317208475507996" y1="142.92168965132927" y2="145.44649492493687" /><path d="M 25.769776987707644 143.4266507060508 a86.0,86.0 0 0,1 -11.730757126820373,-40.83630448921669" fill="none" id="id165" stroke="none" /><text fill="#e1ed5e" style="font-size:6.75px; font-family:Arial;" text-anchor="middle"><textPath startOffset="21.46611528233685" xlink:href="#id165">September</textPath></text><line stroke="#e1ed5e" stroke-width="0.3" x1="15.007084014347285" x2="10.007500721073583" y1="101.09737516637583" y2="101.16192664675087" /><path d="M 14.007167355692545 101.11028546245083 a86.0,86.0 0 0,1 10.666146001902534,-42.60595125391555" fill="none" id="id166" stroke="none" /><text fill="#e1ed5e" style="font-size:6.75px; font-family:Arial;" text-anchor="middle"><textPath startOffset="22.20632615414155" xlink:href="#id166">October</textPath></text><line stroke="#e1ed5e" stroke-width="0.3" x1="26.266209847984243" x2="21.928928074336255" y1="57.711370442889674" y2="55.22380399835377" /><path d="M 25.398753493254645 57.213857153982495 a86.0,86.0 0 0,1 29.58750427330803,-30.492523968695096" fill="none" id="id167" stroke="none" /><text fill="#e1ed5e" style="font-size:6.75px; font-family:Arial;" text-anchor="middle"><textPath startOffset="21.46611528233685" xlink:href="#id167">November</textPath></text><line stroke="#e1ed5e" stroke-width="0.3" x1="56.762969772571076" x2="54.21961505331055" y1="26.818313649435495" y2="22.513508569990535" /><path d="M 56.25429882871897 25.957352633546506 a86.0,86.0 0 0,1 42.265352541879196,-11.944610805530505" fill="none" id="id168" stroke="none" /><text fill="#e1ed5e" style="font-size:6.75px; font-family:Arial;" text-anchor="middle"><textPath startOffset="22.20632615414155" xlink:href="#id168">December</textPath></text></svg>