<?xml version="1.0" encoding="utf-8" ?>
<svg baseProfile="full" height="200mm" version="1.1" viewBox="0,0,200,200" width="200mm" xmlns="http://www.w3.org/2000/svg" xmlns:ev="http://www.w3.org/2001/xml-events" xmlns:xlink="http://www.w3.org/1999/xlink"><defs /><rect fill="#1a1a1a" height="200" width="200" x="0" y="0" /><text alignment-baseline="middle" fill="#e1ed5e" style="dominant-baseline: central; font-size:9.0px; font-family:Arial;" text-anchor="middle" x="100.0" y="100.0">2017</text><line stroke="#e1ed5e" stroke-width="0.3" x1="100.0" x2="100.0" y1="15.0" y2="10.0" /><path d="M 100.0 14.0 a86.0,86.0 0 0,1 42.46469731375804,11.215312516191453" fill="none" id="id49" stroke="none" /><text fill="#e1ed5e" style="font-size:6.75px; font-family:Arial;" text-anchor="middle"><textPath startOffset="22.20632615414155" xlink:href="#id49">January</textPath></text><path d="M 101.44485096284872 79.0497635885617 l 0.7430857078341577 -10.774690022279204 a31.800283396531334,31.800283396531334 0 0,0 0.5457682912937021,0.04236212335002328 l -0.9284441884902009 10.760302636740716" fill="#ff0000" stroke="none" /><path d="M 104.307194497241 79.44645832069477 l 2.2192938289025563 -10.590268965144732 a31.820307844655467,31.820307844655467 0 0,0 0.5351225350006976,0.11695705962102308 l -2.401259088056782 10.550498407427838" fill="#ff0000" stroke="none" /><path d="M 104.66035177308747 79.52364482259891 l 2.399494887827582 -10.54274697743799 a31.812358186213984,31.812358186213984 0 0,0 0.5328968605606637,0.12611946968767693 l -2.580615435350769 10.499881595609445" fill="#ff0000" stroke="none" /><path d="M 107.08798089147638 80.2323363322302 l 3.6498631337369534 -10.17910008023119 a31.813675570238583,31.813675570238583 0 0,0 0.513893382645816,0.18927126975311276 l -3.824538842155346 10.114765542671753" fill="#ff0000" stroke="none" /><path d="M 109.08828744355905 81.06846463323043 l 6.5480368828072235 -13.640016625753962 a36.13032850170307,36.13032850170307 0 0,0 0.5583490348168848,0.27397944650141054 l -6.78185718463454 13.52528201911772" fill="#ff4906" stroke="none" /><path d="M 110.05341064243156 81.56283822128135 l 7.244941357993232 -13.286650734316725 a36.133547601817625,36.133547601817625 0 0,0 0.5435103458944345,0.30246291904408695 l -7.472575792959701 13.159972417712458" fill="#ff4a06" stroke="none" /><line stroke="#e1ed5e" stroke-width="0.3" x1="143.23703022742887" x2="145.7803849466894" y1="26.81831364943548" y2="22.513508569990506" /><path d="M 143.74570117128098 25.957352633546492 a86.0,86.0 0 0,1 28.547481713284135,27.462654790039103" fill="none" id="id50" stroke="none" /><text fill="#e1ed5e" style="font-size:6.75px; font-family:Arial;" text-anchor="middle"><textPath startOffset="19.985693538727396" xlink:href="#id50">February</textPath></text><path d="M 111.90073688211348 82.69761687909136 l 8.57702808940419 -12.470070342006519 a36.13499472021775,36.13499472021775 0 0,0 0.5094498432364599,0.35690217198182483 l -8.790409072224302 12.320583327260758" fill="#ff4a06" stroke="none" /><path d="M 113.6212207817346 84.01681056812373 l 9.81788752571354 -11.520344516752719 a36.13635534903419,36.13635534903419 0 0,0 0.46995536857740056,0.4075406646132195 l -10.014736692937703 11.349638858719828" fill="#ff4a06" stroke="none" /><path d="M 113.89432698308785 84.25364557470407 l 7.151457757552586 -8.104702634753243 a31.808772032744294,31.808772032744294 0 0,0 0.4074385797558181,0.3658023797971046 l -7.2899073249043935 7.980401246186841" fill="#ff0000" stroke="none" /><path d="M 116.60985879189232 87.15038557335679 l 8.555302224869079 -6.618499065544804 a31.816548712018417,31.816548712018417 0 0,0 0.33138308106428194,0.43606129039245684 l -8.667961246157475 6.470252999271313" fill="#ff0000" stroke="none" /><path d="M 117.04232023915458 87.72973835380427 l 8.779542010102507 -6.321162616708876 a31.8183850335451,31.8183850335451 0 0,0 0.3161950197486604,0.4472354316258096 l -8.88704964965505 6.169100684751274" fill="#ff0000" stroke="none" /><path d="M 117.65298651832404 88.62581576622439 l 12.756711789251073 -8.219413183004821 a36.17538957480073,36.17538957480073 0 0,0 0.33276604575729773,0.5263559704493022 l -12.896305431254326 7.998609564841313" fill="#ff4a06" stroke="none" /><line stroke="#e1ed5e" stroke-width="0.3" x1="172.23445277983987" x2="176.4835382374775" y1="55.19839476539836" y2="52.563006222186495" /><path d="M 173.08426987136738 54.67131705675599 a86.0,86.0 0 0,1 12.851231095245387,41.99856678651699" fill="none" id="id51" stroke="none" /><text fill="#e1ed5e" style="font-size:6.75px; font-family:Arial;" text-anchor="middle"><textPath startOffset="22.20632615414155" xlink:href="#id51">March</textPath></text><path d="M 119.196687751892 91.48605970444005 l 9.89327900205251 -4.387777091518835 a31.822640953912803,31.822640953912803 0 0,0 0.21777186392466885,0.5026474869488706 l -9.96734157581986 4.2168304599833615" fill="#ff0000" stroke="none" /><path d="M 119.47837535516314 92.15188598940014 l 10.042276842341858 -4.046175933446864 a31.826766085153967,31.826766085153967 0 0,0 0.2003668458506522,0.5099117676332929 l -10.11043723807421 3.872715160917786" fill="#ff0000" stroke="none" /><path d="M 119.61058180528143 92.48833698450437 l 10.109630551108518 -3.872406166482769 a31.825902244068182,31.825902244068182 0 0,0 0.19155466716409744,0.5132712730110531 l -10.17478980677424 3.697811756442383" fill="#ff0000" stroke="none" /><path d="M 120.6074358757038 95.95851677861258 l 14.846238934983036 -2.9116104457800986 a36.12905436247031,36.12905436247031 0 0,0 0.11443323317814538,0.6113069074063112 l -14.894157892071041 2.6556254609112244" fill="#ff4906" stroke="none" /><path d="M 120.67395015179393 96.31383870115 l 10.658646963438374 -1.900434684530874 a31.826744990133555,31.826744990133555 0 0,0 0.09152180399165397,0.5401668679110146 l -10.68978062895025 1.7166820283040216" fill="#ff0000" stroke="none" /><path d="M 120.78858239683441 97.02765380044208 l 10.717318587510553 -1.5323594733371133 a31.826312542215156,31.826312542215156 0 0,0 0.07287316391740349,0.542989715409191 l -10.742107750485793 1.347651415863258" fill="#ff0000" stroke="none" /><path d="M 120.83666639777658 97.38593545837742 l 10.726889904917709 -1.3457422606394809 a31.81097540762611,31.81097540762611 0 0,0 0.06348508333072021,0.5439014242905845 l -10.748465341252018 1.1608970980240436" fill="#ff0000" stroke="none" /><path d="M 120.87857604477298 97.74499172005257 l 10.738565014397803 -1.1598278048412822 a31.801017503241603,31.801017503241603 0 0,0 0.054096369116454567,0.5447430544958362 l -10.756938509196488 0.9748092196410111" fill="#ff0000" stroke="none" /><path d="M 120.94382443527127 98.46500227214037 l 10.782809991158912 -0.7902849304111207 a31.811731664107807,31.811731664107807 0 0,0 0.03532527531110074,0.5464663737257904 l -10.794815857474427 0.6045594924322951" fill="#ff0000" stroke="none" /><path d="M 120.98425023603335 99.18683210126433 l 10.796413900691618 -0.4183755486498387 a31.80451716712761,31.80451716712761 0 0,0 0.016490347647922253,0.547234357105586 l -10.802015942795185 0.2324710441192537" fill="#ff0000" stroke="none" /><line stroke="#e1ed5e" stroke-width="0.3" x1="184.98032266829074" x2="189.97916517819016" y1="98.17113171792111" y2="98.06355123074" /><path d="M 185.9800911702706 98.14961562048488 a86.0,86.0 0 0,1 -9.607161424134198,41.387399972396054" fill="none" id="id52" stroke="none" /><text fill="#e1ed5e" style="font-size:6.75px; font-family:Arial;" text-anchor="middle"><textPath startOffset="21.466115282336823" xlink:href="#id52">April</textPath></text><path d="M 120.89721153311464 102.0752229133903 l 17.206988020654492 1.7087607958750666 a38.29162514630903,38.29162514630903 0 0,0 -0.07078060761734115,0.6553405199329656 l -17.1750251115361 -2.0046976376928236" fill="#ff6d0a" stroke="none" /><path d="M 120.49622156327973 104.57218783832717 l 10.55683403853096 2.3549622574672187 a31.816311393038802,31.816311393038802 0 0,0 -0.12384034702115695,0.5335009737641383 l -10.51473312557925 -2.5363318885799218" fill="#ff0000" stroke="none" /><path d="M 119.9155931802556 106.66101706037122 l 10.26900036502521 3.4345944911249364 a31.828148863741838,31.828148863741838 0 0,0 -0.17825153049903955,0.5180823853221062 l -10.20835800358294 -3.610849579536343" fill="#ff0000" stroke="none" /><path d="M 119.67450827220406 107.3425965602758 l 10.13782977552087 3.7834741793047133 a31.82082572740653,31.82082572740653 0 0,0 -0.19593403783865598,0.5115219452134299 l -10.071201458088709 -3.9574196913512867" fill="#ff0000" stroke="none" /><path d="M 119.41010516605496 108.01547362559984 l 10.002906886489686 4.130736832287084 a31.822251750786243,31.822251750786243 0 0,0 -0.21343490168331294,0.5044970599286319 l -9.930321003614065 -4.302308417881879" fill="#ff0000" stroke="none" /><path d="M 119.26925614724726 108.34839909993367 l 9.942075205034355 4.307400921910459 a31.835061701930172,31.835061701930172 0 0,0 -0.22217676716894683,0.5009499570124168 l -9.866457353134134 -4.4778992154155635" fill="#ff0100" stroke="none" /><line stroke="#e1ed5e" stroke-width="0.3" x1="174.80103733775053" x2="179.2010983576182" y1="140.37084112569926" y2="142.7455964860345" /><path d="M 175.68104954172406 140.8457921977663 a86.0,86.0 0 0,1 -30.038265399797805,32.042727171017184" fill="none" id="id53" stroke="none" /><text fill="#e1ed5e" style="font-size:6.75px; font-family:Arial;" text-anchor="middle"><textPath startOffset="22.206326154141568" xlink:href="#id53">May</textPath></text><path d="M 118.48025628344425 109.97397251340804 l 9.522193233770283 5.139219506715853 a31.820524068614667,31.820524068614667 0 0,0 -0.2642976219610681,0.4797769542931252 l -9.432319202357705 -5.302366979406783" fill="#ff0000" stroke="none" /><path d="M 117.35343817320211 111.8261652097733 l 52.0603145196063 35.47849562931987 a84.0,84.0 0 0,0 -0.8245563713514552,1.1878349512519217 l -51.44189724109271 -36.36937184275882" fill="#4dd2ff" stroke="none" /><path d="M 115.80600337817218 113.82643327865902 l 8.14016820590505 7.120680027908677 a31.815101593618294,31.815101593618294 0 0,0 -0.3641180055031051,0.40909043917121246 l -8.016391350753606 -7.2597446368207565" fill="#ff0000" stroke="none" /><path d="M 113.75828350139079 115.86535959552629 l 7.092092726746399 8.178244138033202 a31.825038402982393,31.825038402982393 0 0,0 -0.41696032256770144,0.35534263265321103 l -6.95026692760165 -8.29911116090936" fill="#ff0000" stroke="none" /><path d="M 112.92097659922987 116.55440617244103 l 6.6621673996939785 8.535595144557638 a31.827781810386703,31.827781810386703 0 0,0 -0.43478458272272785,0.3333742778660702 l -6.514254088477757 -8.64900876425108" fill="#ff0000" stroke="none" /><path d="M 111.7513745106137 117.40417183066458 l 6.051204931745841 8.962033362101527 a31.813654475218172,31.813654475218172 0 0,0 -0.45648852471084783,0.30253570261990964 l -5.896041708295029 -9.064867085812756" fill="#ff0000" stroke="none" /><line stroke="#e1ed5e" stroke-width="0.3" x1="143.8653032363475" x2="146.44561519142675" y1="172.8068346515853" y2="177.08958963109032" /><path d="M 144.38136562736335 173.6633856474863 a86.0,86.0 0 0,1 -40.68145358897372,12.25698825130547" fill="none" id="id54" stroke="none" /><text fill="#e1ed5e" style="font-size:6.75px; font-family:Arial;" text-anchor="middle"><textPath startOffset="21.466115282336833" xlink:href="#id54">June</textPath></text><path d="M 110.21172684928248 118.3499491758327 l 10.379144516986667 18.650790134355198 a42.34428760910646,42.34428760910646 0 0,0 -0.639957663562068,0.34895594358708526 l -10.05656404155595 -18.82668672970205" fill="#ffad10" stroke="none" /><path d="M 107.93186726928326 119.44442032107085 l 8.15851809158929 20.000039030438504 a42.600068950581,42.600068950581 0 0,0 -0.6813554914125451,0.27112541160781883 l -7.813041524134878 -20.13751128645239" fill="#ffb110" stroke="none" /><path d="M 106.91757812671514 119.82793768551818 l 3.5649700138807514 10.21831658293597 a31.822338240369923,31.822338240369923 0 0,0 -0.5187499784946539,0.17598815776924773 l -3.388550302448871 -10.278167727603341" fill="#ff0000" stroke="none" /><path d="M 102.70371172650421 120.8252237178851 l 1.3929280196285183 10.728968383467706 a31.819011555651276,31.819011555651276 0 0,0 -0.5437605082349753,0.06584182493489406 l -1.2080400883421627 -10.75135573712795" fill="#ff0000" stroke="none" /><path d="M 102.34483914955558 120.86867818915974 l 1.2081871861343474 10.752664882997516 a31.820328939675875,31.820328939675875 0 0,0 -0.5448358596188024,0.05647446454891559 l -1.0229187299099425 -10.77186871600219" fill="#ff0000" stroke="none" /><line stroke="#e1ed5e" stroke-width="0.3" x1="102.19456741930631" x2="102.32365962044197" y1="184.97166512339345" y2="189.96999836594603" /><path d="M 102.22038585953345 185.97133177190398 a86.0,86.0 0 0,1 -42.740103519485714,-10.115201625700543" fill="none" id="id55" stroke="none" /><text fill="#e1ed5e" style="font-size:6.75px; font-family:Arial;" text-anchor="middle"><textPath startOffset="22.20632615414155" xlink:href="#id55">July</textPath></text><path d="M 93.42475214034765 119.94407469862007 l -3.3869201885922453 10.27322325809929 a31.81713198933275,31.81713198933275 0 0,0 -0.5186651090990388,-0.17595936546234697 l 3.56325503062851 -10.213400905738819" fill="#ff0000" stroke="none" /><path d="M 92.06813273071674 119.44442032107085 l -4.088809199616481 10.023431052343915 a31.825318966753848,31.825318966753848 0 0,0 -0.5054596279051973,-0.21128216545836281 l 4.26074028701914 -9.951563843865578" fill="#ff0000" stroke="none" /><path d="M 90.7491055286396 118.85261126421891 l -6.6685434911214765 13.589978625943916 a36.13793220180983,36.13793220180983 0 0,0 -0.5560872178781039,-0.2788336752253574 l 6.901484616682341 -13.473177109809255" fill="#ff4a06" stroke="none" /><line stroke="#e1ed5e" stroke-width="0.3" x1="58.666819895761336" x2="56.23545636021788" y1="174.27360380694188" y2="178.64263932499728" /><path d="M 58.180547188652646 175.14741091055294 a86.0,86.0 0 0,1 -31.652253787137756,-30.449443065178592" fill="none" id="id56" stroke="none" /><text fill="#e1ed5e" style="font-size:6.75px; font-family:Arial;" text-anchor="middle"><textPath startOffset="22.20632615414155" xlink:href="#id56">August</textPath></text><path d="M 89.4739219176387 118.17145234162733 l -5.423753032488131 9.363171066322323 a31.820631653218758,31.820631653218758 0 0,0 -0.4716001397453775,-0.2786296751861224 l 5.584121043261891 -9.268422818842451" fill="#ff0000" stroke="none" /><path d="M 89.1626897886671 117.98757091392108 l -10.864770476493872 18.033148963941407 a42.05321113423304,42.05321113423304 0 0,0 -0.6168220828086668,-0.3789025025475311 l 11.173571759234848 -17.8434579945655" fill="#ffa80f" stroke="none" /><path d="M 88.54995079064634 117.60387380957326 l -8.255014161400267 12.691668388186212 a36.14013557669165,36.14013557669165 0 0,0 -0.5185684400107254,-0.3436788853663509 l 8.472257300150954 -12.547691481728542" fill="#ff4a06" stroke="none" /><path d="M 88.24862548938628 117.40417183066458 l -6.056560064452348 8.969964489623319 a31.82322423122714,31.82322423122714 0 0,0 -0.4513489641130009,-0.31044193313650376 l 6.210065913188238 -8.864381767121714" fill="#ff0000" stroke="none" /><path d="M 87.65650970185807 116.9893568818739 l -31.024011452667143 42.7008884639417 a73.78120084106851,73.78120084106851 0 0,0 -1.0210440888086179,-0.755344007183947 l 31.754440511894327 -42.16053450801799" fill="#3effb5" stroke="none" /><path d="M 86.51685102203217 116.09983520530335 l -9.718312762026025 11.604354012396096 a36.13626885945051,36.13626885945051 0 0,0 -0.4734445290918223,-0.4034796988517632 l 9.916622767694903 -11.43534992332138" fill="#ff4a06" stroke="none" /><path d="M 85.97065885151581 115.62618273729859 l -7.2316873318044825 8.054809313550239 a31.824844328794622,31.824844328794622 0 0,0 -0.4044792995001191,-0.36948224998172924 l 7.369266180771456 -7.929134296981933" fill="#ff0000" stroke="none" /><path d="M 85.18274418774928 114.88116024355367 l -7.634814948401084 7.667742672236245 a31.820567313406507,31.820567313406507 0 0,0 -0.38481578025195456,-0.3898163537286651 l 7.765671353708573 -7.535185824526915" fill="#ff0000" stroke="none" /><path d="M 84.67929136418377 114.36230785411682 l -11.041691981371152 10.350968955577741 a36.13477849625855,36.13477849625855 0 0,0 -0.421492561377963,-0.4574469295838908 l 11.218230950744843 -10.159370771192506" fill="#ff4a06" stroke="none" /><path d="M 83.72743513129214 113.27417163493432 l -8.384533727395857 6.839594168118747 a31.820372184467715,31.820372184467715 0 0,0 -0.3425721991740898,-0.42741149135328077 l 8.501023838624807 -6.694254843187207" fill="#ff0000" stroke="none" /><path d="M 83.50135304334701 112.99209946851258 l -11.03443003634868 8.68922239425068 a35.04497177084459,35.04497177084459 0 0,0 -0.36912899269028854,-0.47714898214115814 l 11.182365846257037 -8.497995417996268" fill="#ff3705" stroke="none" /><path d="M 83.06392112726016 112.41649034213515 l -12.207863719896334 8.950054089567024 a36.13721919011998,36.13721919011998 0 0,0 -0.36347194953834877,-0.5048307477536875 l 12.36011546181029 -8.738589736362197" fill="#ff4a06" stroke="none" /><path d="M 82.6465618267979 111.8261652097733 l -8.945065787044895 6.095957743592425 a31.824735689439514,31.824735689439514 0 0,0 -0.30460347831912576,-0.4553408709444352 l 9.04867237077475 -5.941079958442169" fill="#ff0000" stroke="none" /><line stroke="#e1ed5e" stroke-width="0.3" x1="26.63291911575756" x2="22.317208475507996" y1="142.92168965132927" y2="145.44649492493687" /><path d="M 25.769776987707644 143.4266507060508 a86.0,86.0 0 0,1 -11.730757126820373,-40.83630448921669" fill="none" id="id57" stroke="none" /><text fill="#e1ed5e" style="font-size:6.75px; font-family:Arial;" text-anchor="middle"><textPath startOffset="21.46611528233685" xlink:href="#id57">September</textPath></text><path d="M 81.35079622478065 109.6543875284942 l -13.438843303491193 6.9570691998665275 a36.13285568514818,36.13285568514818 0 0,0 -0.28118473049941767,-0.5548041492776535 l 13.556606703776879 -6.724710838886189" fill="#ff4a06" stroke="none" /><path d="M 81.02952815118164 109.00673069616217 l -9.77923189693343 4.642947672199559 a31.825448701129368,31.825448701129368 0 0,0 -0.23069719632256466,-0.49690123709273504 l 9.857703710095821 -4.473926367827996" fill="#ff0000" stroke="none" /><path d="M 80.32549172779594 107.34259656027581 l -14.178520275903216 5.291474265444759 a36.1337416760054,36.1337416760054 0 0,0 -0.21245906933767086,-0.5845961112778434 l 14.26750360624611 -5.046630357160798" fill="#ff4a06" stroke="none" /><path d="M 79.23777060512086 103.15116336523772 l -10.848381632542267 1.6465005815327562 a31.972618111019273,31.972618111019273 0 0,0 -0.07790044510162736,-0.544835531603319 l 10.875116128660494 -1.4595195779490366" fill="#ff0300" stroke="none" /><path d="M 79.1416061653843 102.43462659150553 l -15.028302415982546 1.7541285765933499 a36.13032850170307,36.13032850170307 0 0,0 -0.06678553325938388,-0.6183510930963416 l 15.056270250742982 -1.4951811616122264" fill="#ff4906" stroke="none" /><path d="M 79.0095281055655 100.63252640178507 l -10.82515786217602 0.32620506036041585 a31.830071674852206,31.830071674852206 0 0,0 -0.011789157248510486,-0.5477958127343685 l 10.829169082109539 -0.1398194318359185" fill="#ff0100" stroke="none" /><line stroke="#e1ed5e" stroke-width="0.3" x1="15.007084014347285" x2="10.007500721073583" y1="101.09737516637583" y2="101.16192664675087" /><path d="M 14.007167355692545 101.11028546245083 a86.0,86.0 0 0,1 10.666146001902534,-42.60595125391555" fill="none" id="id58" stroke="none" /><text fill="#e1ed5e" style="font-size:6.75px; font-family:Arial;" text-anchor="middle"><textPath startOffset="22.20632615414155" xlink:href="#id58">October</textPath></text><path d="M 79.00019446554 99.90962569577889 l -17.370158211460275 -0.07475383331505066 a38.37031906519728,38.37031906519728 0 0,0 0.008527333617536142,-0.6604513861295153 l 17.36629787072502 0.37374147750503794" fill="#ff6e0a" stroke="none" /><path d="M 79.03285615573316 98.82574320788736 l -10.818842351755618 -0.6059050869638936 a31.83579580864044,31.83579580864044 0 0,0 0.0353519972934131,-0.5468797509647142 l 10.806809763457792 0.7920439021816196" fill="#ff0100" stroke="none" /><path d="M 79.12142395522702 97.74499172005258 l -15.054956516897844 -1.6260233230011063 a36.14251193074083,36.14251193074083 0 0,0 0.07212951983718688,-0.617961677209566 l 15.024736644057068 1.884928738535534" fill="#ff4a06" stroke="none" /><path d="M 79.16333360222342 97.38593545837743 l -15.01635589257442 -1.883877331133567 a36.134065484568694,36.134065484568694 0 0,0 0.08273668756210924,-0.6164844233216875 l 14.981703205954478 2.142080096519914" fill="#ff4a06" stroke="none" /><path d="M 79.21141760316559 97.0276538004421 l -17.563330260243102 -2.511200473129102 a38.741947402881536,38.741947402881536 0 0,0 0.1000724915852788,-0.659352685211845 l 17.51750187521852 2.813152270733039" fill="#ff740a" stroke="none" /><path d="M 79.32604984820605 96.31383870115002 l -10.63908190615635 -1.8969462386154414 a31.806871371405357,31.806871371405357 0 0,0 0.10074338209338925,-0.5381751755042099 l 10.6048528001531 2.079799491582224" fill="#ff0000" stroke="none" /><path d="M 79.3925641242962 95.95851677861259 l -10.619395027866295 -2.0826514800420677 a31.821690623243338,31.821690623243338 0 0,0 0.11004350372548316,-0.5366112053203455 l 10.581972228225817 2.2651383415258155" fill="#ff0000" stroke="none" /><path d="M 79.46518482838121 95.60439243477599 l -10.576078885558577 -2.2638768341104294 a31.81566377591222,31.81566377591222 0 0,0 0.1192414914485828,-0.5345362252571622 l 10.535543007107956 2.4455912289175505" fill="#ff0000" stroke="none" /><path d="M 79.71946130924805 94.55025226153421 l -22.981137106313145 -6.175447402174434 a44.79640336933684,44.79640336933684 0 0,0 0.20651830843797417,-0.7429562352869342 l 22.87143202730881 6.570114940880311" fill="#ffd213" stroke="none" /><path d="M 79.81627453868168 94.20196356495316 l -10.402481602303352 -2.9882475096408623 a31.823180986435297,31.823180986435297 0 0,0 0.15577311145487624,-0.5251894928640359 l 10.34950259373677 3.1668663892514375" fill="#ff0000" stroke="none" /><path d="M 79.91906864156998 93.8553929516997 l -10.35127872012659 -3.1674098699565287 a31.825038402982393,31.825038402982393 0 0,0 0.16479992405669786,-0.5224607949000547 l 10.295223312301689 3.345120831282998" fill="#ff0000" stroke="none" /><path d="M 80.14247586403 93.16781622104843 l -24.549429013044964 -8.446481521914855 a46.9618472949554,46.9618472949554 0 0,0 0.2695764767089073,-0.7621290012148493 l 24.400399455526248 8.867808149556316" fill="#fff216" stroke="none" /><path d="M 80.2630227832202 92.82701384747504 l -10.163745575982455 -3.693797964782963 a31.814151262948826,31.814151262948826 0 0,0 0.19148394001675625,-0.5130817594195012 l 10.098657047464071 3.8682028612318056" fill="#ff0000" stroke="none" /><path d="M 80.38941819471856 92.48833698450439 l -10.116933087327887 -3.875203339548964 a31.833722168134145,31.833722168134145 0 0,0 0.2004106381857872,-0.510023214349549 l 10.048728899260407 4.048775558794277" fill="#ff0100" stroke="none" /><path d="M 80.65960295795068 91.81776055985345 l -19.913992429501143 -8.424907405632998 a42.62281571108903,42.62281571108903 0 0,0 0.29168069477842096,-0.6732392586426651 l 19.766021024880043 8.766445808862263" fill="#ffb110" stroke="none" /><path d="M 80.95270993114464 91.15688171328213 l -9.816636892140448 -4.557586979625039 a31.82302910228835,31.82302910228835 0 0,0 0.23494761473549,-0.4948595957449679 l 9.736731083563205 4.725888991010539" fill="#ff0000" stroke="none" /><path d="M 81.10775173730289 90.83032412892265 l -19.45591535652907 -9.443261337336363 a42.626553748705675,42.626553748705675 0 0,0 0.32607281152536827,-0.6573428908024752 l 19.290482532050287 9.7767638166378" fill="#ffb110" stroke="none" /><path d="M 81.26839172434947 90.50648371742162 l -19.274797210428993 -9.768814213271236 a42.60896893969195,42.60896893969195 0 0,0 0.3372004143119286,-0.6513638717144393 l 19.10378736295695 10.09915080724601" fill="#ffb110" stroke="none" /><path d="M 81.43458229118936 90.18545643968196 l -9.56752469466692 -5.057838684430153 a31.82216526120256,31.82216526120256 0 0,0 0.26017181146094204,-0.4820588533869193 l 9.479044783987506 5.221778521149545" fill="#ff0000" stroke="none" /><line stroke="#e1ed5e" stroke-width="0.3" x1="26.266209847984243" x2="21.928928074336255" y1="57.711370442889674" y2="55.22380399835377" /><path d="M 25.398753493254645 57.213857153982495 a86.0,86.0 0 0,1 29.58750427330803,-30.492523968695096" fill="none" id="id59" stroke="none" /><text fill="#e1ed5e" style="font-size:6.75px; font-family:Arial;" text-anchor="middle"><textPath startOffset="21.46611528233685" xlink:href="#id59">November</textPath></text><path d="M 81.78341655067845 89.55222093294921 l -16.874279735791127 -9.677925999988975 a40.452597982351705,40.452597982351705 0 0,0 0.35163001924855025,-0.6010496854411975 l 16.70519004207225 9.966955097784066" fill="#ff8f0d" stroke="none" /><path d="M 81.96595687620814 89.24020034530311 l -12.371682715173625 -7.381418936008142 a35.40638326276881,35.40638326276881 0 0,0 0.31677619309036037,-0.5206967707487934 l 12.242790723797048 7.59328347996401" fill="#ff3d05" stroke="none" /><path d="M 83.39014120810768 87.1503855733568 l -17.105188493943032 -13.232808273451976 a42.62624998041177,42.62624998041177 0 0,0 0.4539612794143055,-0.5764847243664616 l 16.874873133934756 13.525285391771485" fill="#ffb110" stroke="none" /><path d="M 83.6137871275137 86.86637796730984 l -11.806907838027 -9.463288810303672 a36.13132207716438,36.13132207716438 0 0,0 0.3931457894240757,-0.481950251752511 l 11.642263556526531 9.665123231664264" fill="#ff4906" stroke="none" /><path d="M 83.84228863543731 86.58626213691792 l -10.639972999443327 -8.83304605860353 a34.82865604830398,34.82865604830398 0 0,0 0.38691218107508557,-0.45798198400880513 l 10.486350204881116 9.01488699224145" fill="#ff3404" stroke="none" /><path d="M 84.07557802195018 86.31012108654704 l -11.478920374596186 -9.868177959739967 a36.13758729822613,36.13758729822613 0 0,0 0.40957332417351394,-0.4682131114383545 l 11.307355186844827 10.064306627381264" fill="#ff4a06" stroke="none" /><path d="M 84.5562425177563 85.77008943001954 l -11.137983183939893 -10.262561091083956 a36.14512560376962,36.14512560376962 0 0,0 0.42553600955877163,-0.45393214535706106 l 10.959679852410666 10.452762653319066" fill="#ff4a06" stroke="none" /><path d="M 85.05521093208273 85.24692304244772 l -10.769858594007497 -10.631702591269251 a36.133504357025785,36.133504357025785 0 0,0 0.44076715384611487,-0.4388743596121595 l 10.585255639994068 10.81551280153152" fill="#ff4a06" stroke="none" /><path d="M 85.31137513191541 84.99185889309783 l -10.586312842026706 -10.816593000490021 a36.13501581523816,36.13501581523816 0 0,0 0.4482751005809275,-0.4312402915909509 l 10.39855449783335 10.997216378843287" fill="#ff4a06" stroke="none" /><path d="M 85.57189188830299 84.74124197986013 l -11.889267999124726 -12.573752707616688 a38.304737810995846,38.304737810995846 0 0,0 0.48299012312651335,-0.44888668128091064 l 11.671069992203357 12.776543974972247" fill="#ff6d0a" stroke="none" /><path d="M 85.83668400450813 84.49514656593479 l -14.583515197044198 -15.964853552346401 a42.62303088029721,42.62303088029721 0 0,0 0.5459584277217886,-0.4901668669928293 l 14.306545781726438 16.21351942810851" fill="#ffb110" stroke="none" /><path d="M 86.10567301691215 84.25364557470407 l -14.304616897270236 -16.211333435341118 a42.62011554847656,42.62011554847656 0 0,0 0.5542770408895247,-0.48066358792273434 l 14.023446057733938 16.455162016683534" fill="#ffb110" stroke="none" /><path d="M 86.37877921826538 84.01681056812374 l -14.023389958033242 -16.455096189093062 a42.62002905889288,42.62002905889288 0 0,0 0.5624676108693268,-0.4710504484005296 l 13.738064810204804 16.694047794887407" fill="#ffb110" stroke="none" /><path d="M 86.65592168130627 83.78471172551755 l -13.739382468362939 -16.695648970058226 a42.62210269939918,42.62210269939918 0 0,0 0.5705203911826637,-0.46132114596930074 l 13.449958678615774 16.92967621329166" fill="#ffb110" stroke="none" /><path d="M 86.93701828274178 83.55741782278169 l -13.449233027102128 -16.928762824227558 a42.6209361447705,42.6209361447705 0 0,0 0.5783609176137395,-0.451419870006384 l 13.155839554328963 17.157761083457164" fill="#ffb110" stroke="none" /><path d="M 87.51073957382395 83.11751280151077 l -12.857764866221771 -17.380616893872908 a42.619619815496925,42.619619815496925 0 0,0 0.5935384490601547,-0.4312309252485472 l 12.556681100807834 17.599367053938124" fill="#ffb110" stroke="none" /><path d="M 87.80319425747018 82.90503203632743 l -12.555262319946335 -17.59737849940288 a42.61717701213345,42.61717701213345 0 0,0 0.6008390015306563,-0.4209261176632644 l 12.250492178832019 17.810889459830086" fill="#ffb110" stroke="none" /><path d="M 88.09926311788651 82.69761687909137 l -12.252647590528307 -17.81402319510395 a42.62098044431336,42.62098044431336 0 0,0 0.6080497933765221,-0.41055793476362507 l 11.944193102745245 18.022293042166243" fill="#ffb110" stroke="none" /><path d="M 88.70189139769569 82.29822771554957 l -11.62865379329386 -18.219667438991934 a42.6143903599373,42.6143903599373 0 0,0 0.62172538283894,-0.3893243776965497 l 11.313309258082677 18.417136158011413" fill="#ffb110" stroke="none" /><line stroke="#e1ed5e" stroke-width="0.3" x1="56.762969772571076" x2="54.21961505331055" y1="26.818313649435495" y2="22.513508569990535" /><path d="M 56.25429882871897 25.957352633546506 a86.0,86.0 0 0,1 42.265352541879196,-11.944610805530505" fill="none" id="id60" stroke="none" /><text fill="#e1ed5e" style="font-size:6.75px; font-family:Arial;" text-anchor="middle"><textPath startOffset="22.20632615414155" xlink:href="#id60">December</textPath></text><path d="M 89.63071344664047 81.73862282372117 l -10.677446862551424 -18.80407908811757 a42.62408985032179,42.62408985032179 0 0,0 0.6411392004259701,-0.35679327089037083 l 10.352183573053408 18.985087756568124" fill="#ffb110" stroke="none" /><path d="M 90.58718382345135 81.22770947309562 l -9.6898794612953 -19.32484699651451 a42.618128397553946,42.618128397553946 0 0,0 0.6586098672021508,-0.32317700152484513 l 9.355798327082724 19.488779158174186" fill="#ffb110" stroke="none" /><path d="M 91.90106846888425 80.62456947434976 l -8.341952618640976 -19.95682057438969 a42.63013779267332,42.63013779267332 0 0,0 0.6794759409941786,-0.2771752969563628 l 7.997192808058417 20.097456757529628" fill="#ffb110" stroke="none" /><path d="M 92.57280143429618 80.3572730644239 l -7.650896628573558 -20.234341650881806 a42.63249410645311,42.63249410645311 0 0,0 0.6886521665383649,-0.25363640471078436 l 7.301462136262624 20.36304132339891" fill="#ffb110" stroke="none" /><path d="M 97.11714578562143 79.19881850522333 l -2.967564747698434 -21.41240878796316 a42.61706942752936,42.61706942752936 0 0,0 0.7275043668536827,-0.09445094633274387 l 2.598545652336894 21.46031805746004" fill="#ffb110" stroke="none" /></svg>