<?xml version="1.0" encoding="utf-8" ?>
<svg baseProfile="full" height="200mm" version="1.1" viewBox="0,0,200,200" width="200mm" xmlns="http://www.w3.org/2000/svg" xmlns:ev="http://www.w3.org/2001/xml-events" xmlns:xlink="http://www.w3.org/1999/xlink"><defs /><rect fill="#1a1a1a" height="200" width="200" x="0" y="0" /><text alignment-baseline="middle" fill="#e1ed5e" style="dominant-baseline: central; font-size:9.0px; font-family:Arial;" text-anchor="middle" x="100.0" y="100.0">2024</text><line stroke="#e1ed5e" stroke-width="0.3" x1="100.0" x2="100.0" y1="15.0" y2="10.0" /><path d="M 100.0 14.0 a86.0,86.0 0 0,1 42.35913384403234,11.155469271406648" fill="none" id="id133" stroke="none" /><text fill="#e1ed5e" style="font-size:6.75px; font-family:Arial;" text-anchor="middle"><textPath startOffset="22.145653131862478" xlink:href="#id133">January</textPath></text><path d="M 101.44090949804482 79.04949213459386 l 1.6025798410773706 -23.30115917133647 a44.35620433364517,44.35620433364517 0 0,0 0.7591902434093918,0.05876612629455652 l -2.0023390792619957 23.27021527804686" fill="#f2ff19" stroke="none" /><path d="M 102.15924093988457 79.11130261209362 l 3.162463811925177 -30.59396862447476 a51.756984467874645,51.756984467874645 0 0,0 0.8829842560116514,0.09894022761501663 l -3.6871839695376254 30.53517263635277" fill="#98ff23" stroke="none" /><path d="M 102.87502721639298 79.19773525538626 l 2.990944828747404 -21.640986843316345 a42.846694544511806,42.846694544511806 0 0,0 0.727730488177317,0.10695132098637805 l -3.362000422532403 21.586454449031084" fill="#fff917" stroke="none" /><path d="M 103.23170211078529 79.25015418208739 l 4.185201010117225 -26.871992745582 a48.195953772826165,48.195953772826165 0 0,0 0.816399286609929,0.13433819193530022 l -4.645877799780224 26.79618855515103" fill="#c2ff1e" stroke="none" /><path d="M 103.94208987418118 79.37332000966035 l 5.775557261490532 -30.220156110315145 a51.76710738780254,51.76710738780254 0 0,0 0.8714216378802172,0.1743087331623847 l -6.293475384901706 30.1165579804899" fill="#98ff23" stroke="none" /><path d="M 104.64783097203109 79.52079915486377 l 8.756029420091185 -38.58068122077351 a60.56181258062437,60.56181258062437 0 0,0 1.0118663212272576,0.23879769664048162 l -9.417027895058327 38.42468738048681" fill="#38ff2e" stroke="none" /><path d="M 105.3480935250658 79.69241777938227 l 11.399862017366157 -43.287132907518085 a65.76307327885478,65.76307327885478 0 0,0 1.0892200008609718,0.29687175478085753 l -12.141263419161822 43.085060658593086" fill="#35ff66" stroke="none" /><path d="M 106.38641147887787 79.99465700312896 l 4.438426327410687 -13.903307254764398 a35.594573679427455,35.594573679427455 0 0,0 0.5804920070631447,0.1908192527579904 l -4.676441072121574 13.825067080604384" fill="#ff980e" stroke="none" /><path d="M 107.06938296918511 80.22567764915836 l 6.472817305379091 -18.105622014339158 a40.227868118825285,40.227868118825285 0 0,0 0.6482641417732217,0.2380515722531201 l -6.782670598806437 17.991839593077316" fill="#ffd714" stroke="none" /><path d="M 108.07796709384702 80.6158196554323 l 6.843084258190285 -16.420911082303146 a38.78971958569325,38.78971958569325 0 0,0 0.6124433551709753,0.2614156501894671 l -7.123962688531691 16.301020782454277" fill="#ffc312" stroke="none" /><path d="M 108.4095320186766 80.7573450057729 l 8.336896805394362 -19.076451411611803 a41.81861779281662,41.81861779281662 0 0,0 0.6553307917485218,0.29312112767795734 l -8.663140999998516 18.930526533023993" fill="#ffec16" stroke="none" /><path d="M 109.3889696526874 81.21577127319529 l 19.52765310105111 -39.06838725832384 a64.67686021912921,64.67686021912921 0 0,0 0.9888561524475393,0.5049169973187546 l -20.19543647521223 38.72741230933225" fill="#34ff59" stroke="none" /><path d="M 110.02825361518725 81.54914285379988 l 8.444245945322844 -15.53646144415167 a38.68295574248583,38.68295574248583 0 0,0 0.5807155531961435,0.3221131282436733 l -8.709705686675088 15.38921540047485" fill="#ffc212" stroke="none" /><path d="M 110.34350942703115 81.72400993836675 l 8.629065927683959 -15.24673267308999 a38.51923617024972,38.51923617024972 0 0,0 0.5726664602198183,0.3306291349637822 l -8.889524855764174 15.096356640850038" fill="#ffc011" stroke="none" /><line stroke="#e1ed5e" stroke-width="0.3" x1="143.13028292997686" x2="145.6673583964461" y1="26.7553504044142" y2="22.446841604673864" /><path d="M 143.63769802327073 25.89364864446614 a86.0,86.0 0 0,1 29.32050498858742,28.57503671076993" fill="none" id="id134" stroke="none" /><text fill="#e1ed5e" style="font-size:6.75px; font-family:Arial;" text-anchor="middle"><textPath startOffset="20.669276256404974" xlink:href="#id134">February</textPath></text><path d="M 110.65571695917076 81.90426304109057 l 9.273062910856414 -15.747688107824459 a39.275102639657504,39.275102639657504 0 0,0 0.5780308432744182,0.34709091321119634 l -9.542026510688267 15.586183194077341" fill="#ffca12" stroke="none" /><path d="M 111.27062007382361 82.28071324371311 l 7.055183033123626 -11.09191956282458 a34.14558052042762,34.14558052042762 0 0,0 0.4918823191597433,0.318832176525761 l -7.244550984540377 10.969173544594925" fill="#ff830c" stroke="none" /><path d="M 111.5731344415666 82.4767994020092 l 24.909235979255975 -37.71575807842309 a66.19898720657795,66.19898720657795 0 0,0 0.94287441893841,0.6344079882101159 l -25.553006686291386 37.28260041615586" fill="#36ff6b" stroke="none" /><path d="M 112.16784306229584 82.88440491214696 l 15.775965857630798 -22.190871657088604 a48.22711669719199,48.22711669719199 0 0,0 0.6706301852614642,0.48548453660414737 l -16.15457705326623 21.91678634911138" fill="#c2ff1e" stroke="none" /><path d="M 112.45986205192187 83.09580414077388 l 17.641745445693548 -23.934415892398675 a50.733608029987806,50.733608029987806 0 0,0 0.6966135351057013,0.5227517836159499 l -18.050011969710017 23.62804508151871" fill="#a4ff21" stroke="none" /><path d="M 113.31354834802062 83.75963576809568 l 9.259840654446045 -11.295499969394498 a35.60592237773167,35.60592237773167 0 0,0 0.4693634842855017,0.39155971208175344 l -9.452378472893438 11.134878073400875" fill="#ff980e" stroke="none" /><path d="M 114.65682725009322 84.96080404539774 l 8.58492204906277 -8.808886312692227 a33.30029937271531,33.30029937271531 0 0,0 0.4059593191193457,0.40248960219834184 l -8.73487328831208 8.660216700265225" fill="#ff770b" stroke="none" /><path d="M 115.8921839302757 86.27271002978787 l 13.371611369232626 -11.550079425191813 a38.669304608219036,38.669304608219036 0 0,0 0.4296075709760467,0.5060766383769144 l -13.567913503715785 11.318836004365346" fill="#ffc212" stroke="none" /><path d="M 116.35404254752997 86.82634096563983 l 14.94661459329053 -12.039934701022307 a40.19274121654451,40.19274121654451 0 0,0 0.4282126406989343,0.5410326829197917 l -15.151093664631023 11.781582074187838" fill="#ffd614" stroke="none" /><path d="M 116.7966241395341 87.39550010848427 l 34.18065326221553 -25.649799433297467 a63.73440380302728,63.73440380302728 0 0,0 0.6491742979284033,0.8807296126737302 l -34.615929579727755 25.059263511354864" fill="#32ff4d" stroke="none" /><path d="M 117.42321728460499 88.27688183743584 l 12.090961582871332 -8.13533855542673 a35.57309457218621,35.57309457218621 0 0,0 0.33654783445024905,0.5095763160505346 l -12.228833856242305 7.926582361037136" fill="#ff970e" stroke="none" /><path d="M 117.81537515405839 88.88188828441811 l 11.514920007872233 -7.186161724713858 a34.573293746229716,34.573293746229716 0 0,0 0.3098953074921013,0.5061906952518422 l -11.636583279819735 6.987433913337461" fill="#ff890c" stroke="none" /><line stroke="#e1ed5e" stroke-width="0.3" x1="172.87174338648825" x2="177.1583165268699" y1="56.24261187166439" y2="53.66864786411523" /><path d="M 173.72905801456457 55.72781907015455 a86.0,86.0 0 0,1 12.242430191666344,42.057860355516425" fill="none" id="id135" stroke="none" /><text fill="#e1ed5e" style="font-size:6.75px; font-family:Arial;" text-anchor="middle"><textPath startOffset="22.145653131862474" xlink:href="#id135">March</textPath></text><path d="M 118.00360718960297 89.18935116829356 l 6.244895361034263 -3.749880233883443 a28.2842514947479,28.2842514947479 0 0,0 0.2463777708424193,0.41840331821593635 l -6.30834684200645 3.6421257473739503" fill="#ff2e04" stroke="none" /><path d="M 118.36410011445183 89.81374322990088 l 55.092300343355504 -30.558770310297362 a84.0,84.0 0 0,0 0.6886186015386349,1.2669806661015868 l -55.60876429450948 29.60853481072117" fill="#4dd2ff" stroke="none" /><path d="M 119.4528033332814 92.08871423366111 l 19.697985806758872 -8.01099934382926 a42.26468328779215,42.26468328779215 0 0,0 0.2675582380198183,0.6744215417871418 l -19.832602719744816 7.671676784828553" fill="#fff116" stroke="none" /><path d="M 119.83427380445688 93.10060997987247 l 17.904443214032266 -6.228094763876675 a39.956746851512634,39.956746851512634 0 0,0 0.21978984609010546,0.6497696258691132 l -18.008718481694736 5.9198234635334" fill="#ffd313" stroke="none" /><path d="M 119.94978838288452 93.4421083053983 l 15.639159583185652 -5.1409023881733305 a37.46244786880353,37.46244786880353 0 0,0 0.1955812437988553,0.6126554605652017 l -15.725105542761765 4.8716778939167416" fill="#ffb110" stroke="none" /><path d="M 120.16314734710363 94.1308016681162 l 22.37226161877433 -6.512239300390773 a44.300801502189515,44.300801502189515 0 0,0 0.20627615110422437,0.732001289809774 l -22.480756261953136 6.127230086677986" fill="#f3ff19" stroke="none" /><path d="M 120.35273937422433 94.82641323984039 l 16.365988659417624 -4.160170318523146 a37.886462088883725,37.886462088883725 0 0,0 0.15481576301875585,0.6317011441251841 l -16.43499194895267 3.878613349789866" fill="#ffb711" stroke="none" /><path d="M 120.43855184770803 95.1765574152323 l 16.755985128679995 -3.9543668661864 a38.216272969052795,38.216272969052795 0 0,0 0.14520207117513165,0.6397871171777634 l -16.821398061412793 3.6661454150696104" fill="#ffbc11" stroke="none" /><path d="M 120.592083275326 95.88100663000786 l 15.796307772939798 -3.1597039559886015 a37.109223083281464,37.109223083281464 0 0,0 0.11958660555115361,0.6257276527331658 l -15.84822067077311 2.888073738222121" fill="#ffad10" stroke="none" /><path d="M 120.7213421655516 96.59031103205396 l 30.502651127583096 -5.019199635423732 a51.91284669504386,51.91284669504386 0 0,0 0.13714510826171544,0.8805699763026641 l -30.584317727983077 4.494841477189627" fill="#96ff23" stroke="none" /><path d="M 120.82617615685814 97.30363454192243 l 17.892844989436288 -2.316587011118932 a39.04218604260804,39.04218604260804 0 0,0 0.0803486585058856,0.665402154827709 l -17.92997573420184 2.00909117936781" fill="#ffc712" stroke="none" /><path d="M 120.9064616781168 98.02013634271609 l 15.952362701551039 -1.5107053334458513 a37.02373571818814,37.02373571818814 0 0,0 0.0544890259640692,0.6332450770237671 l -15.975945350212848 1.2366392090464222" fill="#ffab0f" stroke="none" /><line stroke="#e1ed5e" stroke-width="0.3" x1="184.99686870605535" x2="189.99668451229388" y1="99.2704041080226" y2="99.22748670261217" /><path d="M 185.99683186730306 99.26182062694052 a86.0,86.0 0 0,1 -10.086455211305974,41.156179273409016" fill="none" id="id136" stroke="none" /><text fill="#e1ed5e" style="font-size:6.75px; font-family:Arial;" text-anchor="middle"><textPath startOffset="21.40746469413373" xlink:href="#id136">April</textPath></text><path d="M 120.99922638620191 99.81974689727618 l 17.437089607805788 -0.14967644266865288 a38.437731992095145,38.437731992095145 0 0,0 0.0,0.6598590907849574 l -17.437089607805788 -0.14967644266865077" fill="#ffbf11" stroke="none" /><path d="M 120.93736805541906 101.62068470465957 l 16.238052169507792 1.2569279345392248 a37.28662660259275,37.28662660259275 0 0,0 -0.054875930957532695,0.6377414995244864 l -16.21408261585252 -1.5354904814393684" fill="#ffaf10" stroke="none" /><path d="M 120.9064616781168 101.97986365728391 l 23.879712820304537 2.261433631726648 a44.986553867759355,44.986553867759355 0 0,0 -0.0794068534463091,0.7681892750025622 l -23.837373574376564 -2.671027429012142" fill="#eaff1a" stroke="none" /><path d="M 120.82617615685814 102.69636545807757 l 16.22320010924204 2.10041805392276 a37.35860561862641,37.35860561862641 0 0,0 -0.08780247814907366,0.6352949931311184 l -16.184753114537756 -2.3786013552539633" fill="#ffb010" stroke="none" /><path d="M 120.77682067341334 103.0534771498775 l 18.01416844166406 2.647462408964839 a39.20767206019285,39.20767206019285 0 0,0 -0.1035801496491256,0.6650588641331793 l -17.966066799876668 -2.956309455029469" fill="#ffc912" stroke="none" /><path d="M 120.65975698304385 103.76489593502545 l 16.100876455827226 2.934116038666002 a37.36603982563187,37.36603982563187 0 0,0 -0.12041421227300042,0.6300580408152029 l -16.048135951272066 -3.2100766445145195" fill="#ffb010" stroke="none" /><path d="M 120.43855184770803 104.8234425847677 l 16.961797708771442 4.002938074689383 a38.42773923212882,38.42773923212882 0 0,0 -0.15702758828075009,0.6407261459813679 l -16.890582593974397 -4.29352004527885" fill="#ffbf11" stroke="none" /><path d="M 120.35273937422433 105.17358676015961 l 15.815877769626534 4.020334281530149 a37.318856496673206,37.318856496673206 0 0,0 -0.1631554090825396,0.6195276632978071 l -15.744532879739264 -4.291242449200759" fill="#ffaf10" stroke="none" /><path d="M 120.16314734710363 105.8691983318838 l 15.912314939994108 4.631842970469515 a37.57274075259272,37.57274075259272 0 0,0 -0.18558013992421477,0.6177359291383165 l -15.830458480066264 -4.904316503198555" fill="#ffb310" stroke="none" /><path d="M 120.05942366710727 106.21446072829308 l 28.995554668529998 8.982896955216445 a51.35514171015758,51.35514171015758 0 0,0 -0.2681112170329753,0.8398545686873977 l -28.837078735719768 -9.479320557595226" fill="#9dff22" stroke="none" /><path d="M 119.71291397450082 107.23885506374661 l 27.514310439867526 10.103635906429943 a50.31076146249195,50.31076146249195 0 0,0 -0.30466595866475693,0.8081626518516116 l -27.336813797388327 -10.574466838475713" fill="#a9ff21" stroke="none" /><path d="M 119.58574465831526 107.57618678355244 l 15.599248466729255 6.034124416954942 a37.72564528519145,37.72564528519145 0 0,0 -0.23882367961768244,0.6019916838109312 l -15.493366112145448 -6.301017117979437" fill="#ffb510" stroke="none" /><path d="M 119.31412917781788 108.2440532568976 l 15.12281740587963 6.455031492260913 a37.442841538422,37.442841538422 0 0,0 -0.2574036990074233,0.5889900369292072 l -15.00977982485524 -6.7136835989659644" fill="#ffb110" stroke="none" /><path d="M 119.16976305983485 108.57439118712176 l 14.903514638318711 6.666152532666779 a37.3264306620694,37.3264306620694 0 0,0 -0.26664497480099925,0.5826673916964673 l -14.786885198662656 -6.921008906577936" fill="#ffb010" stroke="none" /><path d="M 118.8641267826498 109.22738970284198 l 34.11746356072003 16.688561075449503 a58.9803816540338,58.9803816540338 0 0,0 -0.4526887158953485,0.9056806759395305 l -33.82595493161295 -17.271773607552777" fill="#48ff2c" stroke="none" /><path d="M 118.70294669586154 109.54985784667822 l 10.411575273581647 5.3162245201017235 a32.69030122903544,32.69030122903544 0 0,0 -0.2594861636980242,0.497598933424127 l -10.318781040908673 -5.494169696630354" fill="#ff6f0a" stroke="none" /><path d="M 118.5362547648365 109.86951160357373 l 14.135401744980742 7.526305249532658 a37.01420785431323,37.01420785431323 0 0,0 -0.3034365720202128,0.5582891157438138 l -14.00411982334519 -7.767849198751075" fill="#ffab0f" stroke="none" /><line stroke="#e1ed5e" stroke-width="0.3" x1="174.33088141563837" x2="178.70328620479359" y1="141.23008692659167" y2="143.65538615756765" /><path d="M 175.20536237346943 141.71514677278685 a86.0,86.0 0 0,1 -30.301960400862466,31.631185727798858" fill="none" id="id137" stroke="none" /><text fill="#e1ed5e" style="font-size:6.75px; font-family:Arial;" text-anchor="middle"><textPath startOffset="22.145653131862474" xlink:href="#id137">May</textPath></text><path d="M 118.18653347947321 110.5 l 15.56780489603893 8.988076347419646 a38.9761526948393,38.9761526948393 0 0,0 -0.3395125240896524,0.5765664904316216 l -15.411218661819513 -9.253994006144817" fill="#ffc612" stroke="none" /><path d="M 118.00360718960297 110.81064883170644 l 13.968302747754866 8.387564458090585 a37.29308808027381,37.29308808027381 0 0,0 -0.3342739943378012,0.546011448084852 l -13.82226078896166 -8.626113022299995" fill="#ffaf10" stroke="none" /><path d="M 117.62189284568427 111.42229804090321 l 9.76514033369879 6.329645985225118 a32.63711235810273,32.63711235810273 0 0,0 -0.3087712671311117,0.46751905286791423 l -9.655044627646951 -6.4963449164320926" fill="#ff6e0a" stroke="none" /><path d="M 117.423217284605 111.72311816256416 l 13.087750260582698 8.806022463056207 a36.77451230635144,36.77451230635144 0 0,0 -0.35690585864979657,0.520736314030863 l -12.934654665117582 -9.029393512157114" fill="#ffa80f" stroke="none" /><path d="M 117.21940702142032 112.02048342749411 l 13.661348266558806 9.536682083832316 a37.66075453358273,37.66075453358273 0 0,0 -0.3746077619064175,0.5269327305366618 l -13.495625406122429 -9.769792041078482" fill="#ffb410" stroke="none" /><path d="M 117.01052211995028 112.31430620078461 l 13.932327061837249 10.085930362344639 a38.19987583187937,38.19987583187937 0 0,0 -0.38908934726607297,0.5278744263392232 l -13.757135694987348 -10.323611097952739" fill="#ffbb11" stroke="none" /><path d="M 116.57777611688842 112.89097897827486 l 11.478214302403932 8.925528866907838 a35.540098662867294,35.540098662867294 0 0,0 -0.37864348234258866,0.4784036706331919 l -11.323304389419782 -9.121252481455713" fill="#ff970d" stroke="none" /><path d="M 116.1254893667686 113.45245675266167 l 31.482682508218666 26.263973468760483 a61.99945853643743,61.99945853643743 0 0,0 -0.6888005112460043,0.8114052702835428 l -31.027187433465546 -26.800545521493582" fill="#30ff37" stroke="none" /><path d="M 115.41159269507618 114.26474011684316 l 8.58560437636438 7.946707235131984 a32.698835770637444,32.698835770637444 0 0,0 -0.38482507163472146,0.4086708903750551 l -8.447923470993398 -8.092919585451536" fill="#ff6f0a" stroke="none" /><path d="M 114.13192950727249 115.5334660781643 l 18.86927827810058 20.740642238661156 a49.039684434895726,49.039684434895726 0 0,0 -0.6275561086286531,0.5611645420387397 l -18.510457142648548 -21.061502310583283" fill="#b8ff1f" stroke="none" /><path d="M 113.59037401385872 116.0094264158162 l 11.276263570360461 13.283410132123182 a38.42421030768486,38.42421030768486 0 0,0 -0.5065146477489637,0.42255253396989273 l -11.046574588449602 -13.475024850004944" fill="#ffbe11" stroke="none" /><path d="M 113.31354834802062 116.24036423190432 l 11.066674659009378 13.499543667862113 a38.455914964529256,38.455914964529256 0 0,0 -0.5141175476940717,0.41413670395067026 l -10.833306340960053 -13.687528665606187" fill="#ffbf11" stroke="none" /><path d="M 113.03279911837588 116.46651593811092 l 11.690503016490638 14.770568662732995 a39.837132462216395,39.837132462216395 0 0,0 -0.5398691301426578,0.4198055009681738 l -11.43522394171275 -14.969075215321963" fill="#ffd113" stroke="none" /><path d="M 112.45986205192187 116.90419585922612 l 18.66363755040247 25.32080879249759 a52.455917162260846,52.455917162260846 0 0,0 -0.7294344728395358,0.5280543059533196 l -18.226222067188964 -25.63746386982399" fill="#90ff24" stroke="none" /><path d="M 111.8722381534696 117.32195027204791 l 10.81160856398716 15.774460003693736 a40.12392397362565,40.12392397362565 0 0,0 -0.5714864093630985,0.384521560847593 l -10.539225866527058 -15.95773123859845" fill="#ffd513" stroke="none" /><path d="M 111.5731344415666 117.5232005979908 l 12.024470057288019 18.20658024515866 a42.81896982861514,42.81896982861514 0 0,0 -0.6168263611956994,0.3998193950423803 l -11.710158063835308 -18.410313481904936" fill="#fff917" stroke="none" /><path d="M 111.27062007382361 117.71928675628689 l 12.484425011326767 19.627589725683215 a44.26162389652078,44.26162389652078 0 0,0 -0.6446091574083052,0.402283789309931 l -12.145651725128747 -19.839009311834694" fill="#f3ff19" stroke="none" /><line stroke="#e1ed5e" stroke-width="0.3" x1="143.1302829299769" x2="145.66735839644613" y1="173.24464959558577" y2="177.55315839532614" /><path d="M 143.63769802327073 174.10635135553383 a86.0,86.0 0 0,1 -40.68552437913181,11.842963189579606" fill="none" id="id138" stroke="none" /><text fill="#e1ed5e" style="font-size:6.75px; font-family:Arial;" text-anchor="middle"><textPath startOffset="21.407464694133747" xlink:href="#id138">June</textPath></text><path d="M 110.65571695917076 118.09573695890943 l 15.664599714577783 26.601914923955203 a51.87137123354421,51.87137123354421 0 0,0 -0.7711729905486644,0.4452369336850418 l -15.20563425616872 -26.866898754916416" fill="#97ff23" stroke="none" /><path d="M 110.02825361518725 118.45085714620011 l 8.324889862711236 15.316859695502059 a38.43301414437468,38.43301414437468 0 0,0 -0.5823721401796952,0.3100803624044434 l -8.060728906744988 -15.45751052562907" fill="#ffbf11" stroke="none" /><path d="M 109.71004243097381 118.62028667847754 l 8.066638243654083 15.46884245832754 a38.44579432283149,38.44579432283149 0 0,0 -0.5878046665076043,0.30013725099284944 l -7.7999063554328965 -15.605037660993226" fill="#ffbf11" stroke="none" /><path d="M 108.73861861582097 119.09545874513695 l 6.064183824414476 13.251336067280073 a35.57299670707051,35.57299670707051 0 0,0 -0.5574569731694201,0.24934341353223935 l -5.835813448389429 -13.353483231722162" fill="#ff970e" stroke="none" /><path d="M 108.4095320186766 119.2426549942271 l 12.435949271201888 28.455885633111198 a52.0546334939025,52.0546334939025 0 0,0 -0.8218805067350733,0.3508119162893276 l -11.945633689296384 -28.665172199059928" fill="#95ff23" stroke="none" /><path d="M 107.74402155503746 119.51999308798841 l 6.495521008778569 16.372956130495652 a38.61435453335202,38.61435453335202 0 0,0 -0.6182484314296036,0.23915177476595828 l -6.213500314855436 -16.48204779339965" fill="#ffc111" stroke="none" /><path d="M 107.06938296918513 119.77432235084164 l 5.874982659062609 16.43337210790548 a38.45196665368039,38.45196665368039 0 0,0 -0.6234606047188319,0.2168719619658189 l -5.592016282298756 -16.53180250243989" fill="#ffbf11" stroke="none" /><path d="M 106.38641147887787 120.00534299687104 l 5.212290879566024 16.327426942352652 a38.139219549649,38.139219549649 0 0,0 -0.6254094050898715,0.19375343237848056 l -4.931240841604528 -16.414496962537775" fill="#ffbb11" stroke="none" /><path d="M 105.69591212413111 120.21278271476187 l 4.973580535131205 17.64948273079469 a39.33686843504245,39.33686843504245 0 0,0 -0.6515283081282227,0.17757693759804383 l -4.669870826068288 -17.73226016253688" fill="#ffcb12" stroke="none" /><path d="M 104.9986988182912 120.39639698878246 l 4.032555855483347 16.45420400343194 a37.94114329418616,37.94114329418616 0 0,0 -0.6339203443941774,0.14960347520141803 l -3.7495033573492904 -16.521003622279583" fill="#ffb811" stroke="none" /><path d="M 104.64783097203109 120.47920084513623 l 2.739780491278929 12.071978368001632 a33.37897648668467,33.37897648668467 0 0,0 -0.5598728577807854,0.12202168351769853 l -2.5321452168790075 -12.117231509653049" fill="#ff780b" stroke="none" /><path d="M 103.94208987418118 120.62667999033965 l 3.279450634069673 17.159471481385797 a38.470038866064165,38.470038866064165 0 0,0 -0.6497136468920873,0.11839946956405431 l -2.9844022536265284 -17.213239124881216" fill="#ffbf11" stroke="none" /><path d="M 102.875027216393 120.80226474461374 l 3.9215952500624094 28.374709688962803 a49.644424575093694,49.644424575093694 0 0,0 -0.8451896573841245,0.10942672243480886 l -3.433927770787509 -28.437848007598006" fill="#b1ff20" stroke="none" /><path d="M 102.51750503828377 120.84855314841334 l 2.0930631284133754 17.333565260889813 a38.45947874116091,38.45947874116091 0 0,0 -0.6561262131478686,0.07352031073153459 l -1.7952010136647076 -17.366941332128317" fill="#ffbf11" stroke="none" /><path d="M 102.15924093988457 120.88869738790638 l 0.43899804867651476 4.2469078940191585 a25.269536971033748,25.269536971033748 0 0,0 -0.4318689453315481,0.04089843813534737 l -0.36602953995995136 -4.253818087659689" fill="#ff0000" stroke="none" /><path d="M 101.80034050326958 120.92268563240118 l 1.4989873469797361 17.42050516046623 a38.48487812689113,38.48487812689113 0 0,0 -0.6586980205286199,0.05098739268634897 l -1.1997203316758804 -17.443670320147636" fill="#ffbf11" stroke="none" /><path d="M 101.08105385017728 120.97215588758144 l 1.277049640360271 24.774421856435158 a45.8073141251639,45.8073141251639 0 0,0 -0.7856483106642754,0.03373911889654482 l -0.851575569095166 -24.792693543757533" fill="#e0ff1b" stroke="none" /><line stroke="#e1ed5e" stroke-width="0.3" x1="101.45913802915013" x2="101.54496967792366" y1="184.9874750549273" y2="189.98673829345242" /><path d="M 101.47630435890484 185.9873277026323 a86.0,86.0 0 0,1 -42.54439059252881,-10.42667462771756" fill="none" id="id139" stroke="none" /><text fill="#e1ed5e" style="font-size:6.75px; font-family:Arial;" text-anchor="middle"><textPath startOffset="22.145653131862474" xlink:href="#id139">July</textPath></text><path d="M 100.36049292484886 120.99690560180557 l 0.2997897431777049 17.461249594651512 a38.46382292903911,38.46382292903911 0 0,0 -0.660282668026555,0.005667732582032512 l -2.13870148509239e-15 -17.46382292903911" fill="#ffbf11" stroke="none" /><path d="M 100.0 121.0 l 2.1361521841308455e-15 17.443006306945954 a38.443006306945954,38.443006306945954 0 0,0 -0.6599253230273247,-0.005664665204993497 l 0.29943239817847034 -17.440436039935395" fill="#ffbf11" stroke="none" /><path d="M 99.27912038922189 120.98762331915562 l -0.5988091746887049 17.433675762941537 a38.44395663360427,38.44395663360427 0 0,0 -0.6593582304763218,-0.02831567946050891 l 0.8979931657658655 -17.4208275150552" fill="#ffbf11" stroke="none" /><path d="M 98.91894614982273 120.97215588758144 l -0.7586063576105508 14.716760674327213 a35.736299683137254,35.736299683137254 0 0,0 -0.6123766321364005,-0.036839057524000796 l 1.0111273418793976 -14.70156963897852" fill="#ff9a0e" stroke="none" /><path d="M 98.19965949673042 120.92268563240118 l -2.1257096766108687 24.703968626329672 a45.79525574620915,45.79525574620915 0 0,0 -0.7826636801052073,-0.07411906423832369 l 2.549472920101091 -24.663837806586166" fill="#e0ff1b" stroke="none" /><path d="M 97.48249496171623 120.84855314841334 l -2.092262985665592 17.326938931110973 a38.45280427678129,38.45280427678129 0 0,0 -0.6546538256877066,-0.08475804436146442 l 2.3893946332440925 -17.288469290549113" fill="#ffbf11" stroke="none" /><path d="M 97.12497278360702 120.80226474461374 l -2.0004134819089607 14.473995450231888 a35.611577546313626,35.611577546313626 0 0,0 -0.6048455076416739,-0.08889146062435137 l 2.2485840951583196 -14.437522916308655" fill="#ff980e" stroke="none" /><path d="M 96.41257539226777 120.69131181640829 l -3.0476103913815824 17.577806866543433 a38.8400454970036,38.8400454970036 0 0,0 -0.6559626230992307,-0.11953824119334142 l 3.3489077480318703 -17.522900451418725" fill="#ffc412" stroke="none" /><path d="M 95.70440661134978 120.55596938700252 l -5.35438845867522 25.62268708520212 a47.1761641428338,47.1761641428338 0 0,0 -0.7912960976595583,-0.1724593015280806 l 5.793446972953914 -25.52699632554032" fill="#cfff1d" stroke="none" /><path d="M 95.00130118170881 120.39639698878247 l -4.2200268232758615 17.219149526650074 a38.72872631663937,38.72872631663937 0 0,0 -0.6443624750074654,-0.16379442138704162 l 4.514994591508706 -17.14416987342777" fill="#ffc312" stroke="none" /><path d="M 94.6519064749342 120.30758222061772 l -3.8004160924823664 14.430798920947202 a35.92283887109989,35.92283887109989 0 0,0 -0.5949824519330782,-0.1621651130437996 l 4.04757994535014 -14.363433313759257" fill="#ff9c0e" stroke="none" /><path d="M 93.95794788825049 120.11202640906438 l -5.029802589716758 16.74257696653209 a38.48178473645561,38.48178473645561 0 0,0 -0.6310268113245657,-0.1954937191892903 l 5.316470033912958 -16.65376665953615" fill="#ffbf11" stroke="none" /><path d="M 92.59220618246901 119.65005319985036 l -5.138090131920231 13.629394516748286 a35.56572569757183,35.56572569757183 0 0,0 -0.5694373087652552,-0.22027058393704557 l 5.371299703179014 -13.5391840446732" fill="#ff970d" stroke="none" /><path d="M 91.59046798132341 119.24265499422711 l -13.456428636918204 30.790942128478125 a54.602940181177026,54.602940181177026 0 0,0 -0.8556712275381361,-0.3827308563791821 l 13.983013267311977 -30.55540752118909" fill="#78ff26" stroke="none" /><path d="M 90.93487009805054 118.94263497670748 l -8.795148092376825 18.378476831771728 a41.374568476971724,41.374568476971724 0 0,0 -0.6380347591653316,-0.3120947730372771 l 9.109343100804226 -18.22478830863723" fill="#ffe615" stroke="none" /><path d="M 90.28995756902619 118.62028667847754 l -6.72484514272916 12.895777265251983 a35.54388577611492,35.54388577611492 0 0,0 -0.5385934278268909,-0.2867706639223541 l 6.945227386342613 -12.778436133607055" fill="#ff970d" stroke="none" /><path d="M 89.97174638481275 118.45085714620012 l -6.93184583753145 12.753815590989769 a35.515863696117975,35.515863696117975 0 0,0 -0.5331705925169941,-0.29574074001970657 l 7.149760618204547 -12.632941935536914" fill="#ff970d" stroke="none" /><line stroke="#e1ed5e" stroke-width="0.3" x1="58.13341422392154" x2="55.67067388415222" y1="173.97424548756322" y2="178.32567169271397" /><path d="M 57.64086615596768 174.84453072859336 a86.0,86.0 0 0,1 -31.369924170532247,-30.572349798747897" fill="none" id="id140" stroke="none" /><text fill="#e1ed5e" style="font-size:6.75px; font-family:Arial;" text-anchor="middle"><textPath startOffset="22.145653131862474" xlink:href="#id140">August</textPath></text><path d="M 88.72937992617639 117.7192867562869 l -7.82471836389952 12.301756919225348 a35.57941839628917,35.57941839628917 0 0,0 -0.5125373933722256,-0.33222054608276763 l 8.034741389528756 -12.165622531438686" fill="#ff970e" stroke="none" /><path d="M 87.83215693770417 117.11559508785305 l -8.565575571859412 12.048554738237197 a35.78298874238673,35.78298874238673 0 0,0 -0.49758629611199784,-0.3602141056241352 l 8.771142878345364 -11.899739861239997" fill="#ff9a0e" stroke="none" /><path d="M 86.13680546590413 115.77377054828092 l -5.076459927637013 5.776079524755179 a28.689833553023135,28.689833553023135 0 0,0 -0.3671410309673155,-0.32829977379491354 l 5.1748659854277 -5.688084221076884" fill="#ff3404" stroke="none" /><path d="M 85.34317274990678 115.03919595460226 l -12.17580185656 12.493445334429481 a38.445237951217166,38.445237951217166 0 0,0 -0.46868054990656194,-0.46467475731117597 l 12.388474326596524 -12.282590566889645" fill="#ffbf11" stroke="none" /><path d="M 83.20337586046588 112.60449989151573 l -3.6151566350746966 2.7128809358399604 a25.519854031732496,25.519854031732496 0 0,0 -0.2599354875191916,-0.352652410875615 l 3.661194142177719 -2.6504222156954658" fill="#ff0400" stroke="none" /><line stroke="#e1ed5e" stroke-width="0.3" x1="26.387840678322732" x2="22.057713659400548" y1="142.50000000000003" y2="145.00000000000006" /><path d="M 25.521815274538298 143.00000000000003 a86.0,86.0 0 0,1 -11.493303480769221,-40.785679425670985" fill="none" id="id141" stroke="none" /><text fill="#e1ed5e" style="font-size:6.75px; font-family:Arial;" text-anchor="middle"><textPath startOffset="21.40746469413373" xlink:href="#id141">September</textPath></text><path d="M 81.81346652052679 110.50000000000001 l -10.074306622697419 5.816403640513192 a32.63280728102637,32.63280728102637 0 0,0 -0.2759284656570342,-0.48753915986105323 l 10.172668453375833 -5.642607710553017" fill="#ff6e0a" stroke="none" /><path d="M 79.83685265289637 105.86919833188381 l -9.238681880814102 2.689245649512565 a30.622124768381724,30.622124768381724 0 0,0 -0.14258464455870806,-0.5059826022801082 l 9.283485017447385 -2.5302551233294612" fill="#ff5107" stroke="none" /><path d="M 79.64726062577567 105.17358676015961 l -4.3288309366452395 1.1003718963335194 a25.466497015368702,25.466497015368702 0 0,0 -0.10406395713591507,-0.42461645702697937 l 4.347082420297448 -1.0258996146984405" fill="#ff0300" stroke="none" /><path d="M 79.2786578344484 103.40968896794605 l -11.917355292065329 1.9609962782237993 a33.077618290065516,33.077618290065516 0 0,0 -0.08738556696918026,-0.561078026118179 l 11.949262351172775 -1.7561300701741702" fill="#ff740a" stroke="none" /><path d="M 79.17382384314188 102.69636545807758 l -10.580686491679103 1.3698816990711367 a31.668997258629823,31.668997258629823 0 0,0 -0.06517466627459456,-0.53973973163615 l 10.602643244213358 -1.1880482905115877" fill="#ff6008" stroke="none" /><path d="M 79.0935383218832 101.97986365728391 l -21.565169551067097 2.0422439777082992 a42.6616550205832,42.6616550205832 0 0,0 -0.06278653363833166,-0.7296746936911382 l 21.59704970740317 -1.671748236641499" fill="#fff617" stroke="none" /><path d="M 79.01933749520258 100.90099992219065 l -12.035102622068848 0.5168390904510768 a33.046195157357644,33.046195157357644 0 0,0 -0.019474143268359157,-0.5669684331041656 l 12.042201452334055 -0.3101643927827913" fill="#ff740a" stroke="none" /><line stroke="#e1ed5e" stroke-width="0.3" x1="15.003131293944662" x2="10.003315487706104" y1="100.72959589197737" y2="100.7725132973878" /><path d="M 14.003168132696942 100.73817937305945 a86.0,86.0 0 0,1 10.791469493833604,-42.45332614584628" fill="none" id="id142" stroke="none" /><text fill="#e1ed5e" style="font-size:6.75px; font-family:Arial;" text-anchor="middle"><textPath startOffset="22.145653131862435" xlink:href="#id142">October</textPath></text><path d="M 79.00077361379809 100.18025310272382 l -4.554096213251125 0.03909143877227346 a25.554263986653993,25.554263986653993 0 0,0 0.0,-0.43868908299218035 l 4.554096213251125 0.03909143877227178" fill="#ff0400" stroke="none" /><path d="M 79.2786578344484 96.59031103205396 l -12.862310091572356 -2.1164882308852024 a34.03528071516834,34.03528071516834 0 0,0 0.09981280831174666,-0.5756937541205328 l 12.824082465768376 2.336975017926328" fill="#ff820b" stroke="none" /><path d="M 79.34024301695615 96.23510406497455 l -4.213722601912191 -0.7678806245535394 a25.28311788530626,25.28311788530626 0 0,0 0.08147630142694895,-0.42631843767367983 l 4.199920008203082 0.8401016272605338" fill="#ff0000" stroke="none" /><path d="M 79.407916724674 95.88100663000787 l -14.221108443144029 -2.8446199739993054 a35.50282000674828,35.50282000674828 0 0,0 0.12466948664228987,-0.5965886244455576 l 14.170181245677371 3.088325049730272" fill="#ff960d" stroke="none" /><path d="M 79.56144815229197 95.17655741523228 l -15.068000553099358 -3.556007102493085 a36.48191936360553,36.48191936360553 0 0,0 0.1490763684773308,-0.6082824558229906 l 15.004736658105728 3.8141453829241927" fill="#ffa40f" stroke="none" /><path d="M 79.73907114497095 94.47779374421319 l -12.642175646871905 -3.4456811898129343 a34.1033325512326,34.1033325512326 0 0,0 0.15879406105435784,-0.5635041030370548 l 12.581163093742965 3.6621932167530025" fill="#ff830c" stroke="none" /><path d="M 80.05021161711548 93.44210830539832 l -18.214179364164504 -5.987362536572887 a40.17302375876879,40.17302375876879 0 0,0 0.22097951922178774,-0.6532866830918697 l 18.108714423370355 6.2991508941389185" fill="#ffd614" stroke="none" /><path d="M 80.28708602549916 92.7611449362534 l -12.278182164031312 -4.508718561176183 a34.079843283351344,34.079843283351344 0 0,0 0.2063766840978561,-0.5474386735946156 l 12.198974796119021 4.718825514964943" fill="#ff820c" stroke="none" /><path d="M 80.5471966667186 92.08871423366112 l -16.886910785081557 -6.867759604749691 a39.23002681983588,39.23002681983588 0 0,0 0.2590567065739065,-0.6216417894947001 l 16.766528233971172 7.1566339036856546" fill="#ffc912" stroke="none" /><path d="M 81.29705330413844 90.45014215332179 l -10.408218442573293 -5.314510498270484 a32.68653211969017,32.68653211969017 0 0,0 0.25945624559732405,-0.49754156152118256 l 10.31545412800103 5.492398302896152" fill="#ff6e0a" stroke="none" /><path d="M 81.46374523516351 90.13048839642627 l -3.7953058782402413 -2.0207866087091975 a25.299758740597355,25.299758740597355 0 0,0 0.2074033867049293,-0.38159887120678365 l 3.7600571419199613 2.0856403133906007" fill="#ff0000" stroke="none" /><path d="M 81.63589988554816 89.8137432299009 l -20.97710329166649 -11.635645585140846 a44.9880618369274,44.9880618369274 0 0,0 0.38039898831398894,-0.6721285632237516 l 20.774270938331135 11.994030918463702" fill="#eaff1a" stroke="none" /><line stroke="#e1ed5e" stroke-width="0.3" x1="26.387840678322718" x2="22.05771365940052" y1="57.49999999999999" y2="54.99999999999999" /><path d="M 25.521815274538284 56.99999999999999 a86.0,86.0 0 0,1 29.574782752854787,-30.34633250058573" fill="none" id="id143" stroke="none" /><text fill="#e1ed5e" style="font-size:6.75px; font-family:Arial;" text-anchor="middle"><textPath startOffset="21.40746469413373" xlink:href="#id143">November</textPath></text><path d="M 82.18462484594161 88.88188828441811 l -26.733138258387108 -16.683455447590514 a52.51187659936771,52.51187659936771 0 0,0 0.48381519530962275,-0.7606378465947 l 26.442805371451595 17.139906968863887" fill="#8fff24" stroke="none" /><path d="M 82.78059297857968 87.97951657250589 l -14.725178852804149 -10.27931845427853 a38.95815358358263,38.95815358358263 0 0,0 0.38751286060766016,-0.545085368009747 l 14.546550893666515 10.530581048997796" fill="#ffc612" stroke="none" /><path d="M 83.64595745247003 86.82634096563983 l -15.865570699732261 -12.78018069088216 a41.3727600515934,41.3727600515934 0 0,0 0.45027980507945803,-0.5492681477247612 l 15.643844075414172 13.050651120305414" fill="#ffe615" stroke="none" /><path d="M 84.10781606972428 86.27271002978789 l -9.566112230278966 -8.262979905641808 a33.6407017259064,33.6407017259064 0 0,0 0.38124356244927643,-0.4337851901517933 l 9.422857603871098 8.425977373604903" fill="#ff7c0b" stroke="none" /><path d="M 84.34580500576568 86.00192230759919 l -9.18913224932302 -8.216978720345955 a33.32716069442459,33.32716069442459 0 0,0 0.38501170518476213,-0.4231953081216569 l 9.046722843296392 8.37351160402527" fill="#ff780b" stroke="none" /><path d="M 84.83555147118756 85.47280134310135 l -7.359325986134878 -7.050067820028418 a31.191326470935977,31.191326470935977 0 0,0 0.37372140141437393,-0.38347108090965676 l 7.237217783569702 7.175361593005805" fill="#ff5908" stroke="none" /><path d="M 85.34317274990677 84.96080404539775 l -43.20015065865174 -44.327160301331254 a82.89628548879267,82.89628548879267 0 0,0 1.0276278062998936,-0.984444192553877 l 42.43285036648654 45.062216624190704" fill="#4cddff" stroke="none" /><path d="M 86.13680546590413 84.22622945171909 l -8.646953779034236 -9.838646101129095 a34.09842611766838,34.09842611766838 0 0,0 0.44298811203287425,-0.38264258039748145 l 8.476786187238513 9.985632813991288" fill="#ff830c" stroke="none" /><path d="M 88.4268655584334 82.4767994020092 l -6.762786540289719 -10.239720772728482 a33.271396142777355,33.271396142777355 0 0,0 0.4792893032408722,-0.31066953575165146 l 6.58601160479182 10.35430415018404" fill="#ff770a" stroke="none" /><path d="M 88.72937992617638 82.28071324371311 l -9.38074604887768 -14.74809088933984 a38.47868934771034,38.47868934771034 0 0,0 0.560388737127978,-0.34972401813965764 l 9.126193182960005 14.906950704321034" fill="#ffbf11" stroke="none" /><line stroke="#e1ed5e" stroke-width="0.3" x1="56.869717070023135" x2="54.33264160355391" y1="26.7553504044142" y2="22.446841604673864" /><path d="M 56.362301976729285 25.89364864446614 a86.0,86.0 0 0,1 42.16139366436587,-11.88097634709845" fill="none" id="id144" stroke="none" /><text fill="#e1ed5e" style="font-size:6.75px; font-family:Arial;" text-anchor="middle"><textPath startOffset="22.145653131862474" xlink:href="#id144">December</textPath></text><path d="M 89.34428304082924 81.90426304109057 l -16.233062199701497 -27.567288501465043 a52.9916817892149,52.9916817892149 0 0,0 0.7878286759684658,-0.45485309814569774 l 15.757441055872631 27.841888496886916" fill="#8aff24" stroke="none" /><path d="M 90.61103034731259 81.2157712731953 l -5.516245863111679 -11.036186912833543 a33.33800591656914,33.33800591656914 0 0,0 0.5141034060058071,-0.2514737379276478 l 5.325982207843818 11.129254400858404" fill="#ff780b" stroke="none" /><path d="M 91.26138138417902 80.90454125486306 l -6.505422473886312 -14.215522147273864 a36.63334869704437,36.63334869704437 0 0,0 0.5740735268911372,-0.25677578665793455 l 6.260435544139556 14.325101684841645" fill="#ffa60f" stroke="none" /><path d="M 91.92203290615298 80.6158196554323 l -5.052160579401995 -12.123346216084304 a34.133919825973855,34.133919825973855 0 0,0 0.542803345141292,-0.22075339501276328 l 4.843302773070262 12.208286867676359" fill="#ff830c" stroke="none" /><path d="M 92.592206182469 80.34994680014964 l -4.602823521064432 -12.209536237954318 a34.04832401161098,34.04832401161098 0 0,0 0.5486820101678299,-0.20148363417137358 l 4.392552359242475 12.286750721134414" fill="#ff820c" stroke="none" /><path d="M 93.95794788825049 79.88797359093562 l -5.520697286481548 -18.376605757214662 a40.18795814267531,40.18795814267531 0 0,0 0.6624123492339731,-0.19281858076099526 l 5.20442492486595 18.468668032278178" fill="#ffd614" stroke="none" /><path d="M 94.6519064749342 79.69241777938228 l -1.520869395903387 -5.774988817860885 a26.971895810026645,26.971895810026645 0 0,0 0.44875417274761487,-0.11407155587290274 l 1.4215099299303942 5.80024560556905" fill="#ff1a02" stroke="none" /><path d="M 95.35216902796891 79.52079915486377 l -3.8610527397636165 -17.012510783439406 a38.445149796315256,38.445149796315256 0 0,0 0.6448488884271466,-0.14054181389019335 l 3.5684414347173514 17.076284055463315" fill="#ffbf11" stroke="none" /><path d="M 96.41257539226777 79.30868818359171 l -1.520736309638617 -8.771202914047512 a29.902058159934075,29.902058159934075 0 0,0 0.5065159425001898,-0.08334700558648539 l 1.3699428640853544 8.796015918129665" fill="#ff4606" stroke="none" /><path d="M 97.84075906011542 79.11130261209362 l -1.7890680490028779 -17.30761046240206 a38.399831734882156,38.399831734882156 0 0,0 0.6562722083614829,-0.06214966045547527 l 1.4916962772563793 17.335771878362717" fill="#ffbe11" stroke="none" /><path d="M 98.9189461498227 79.02784411241856 l -0.5364295535854643 -10.406590031250579 a31.420406553704314,31.420406553704314 0 0,0 0.5388962396234981,-0.02314252325724135 l 0.3577075533611461 10.414265122933648" fill="#ff5c08" stroke="none" /><path d="M 99.63950707515114 79.00309439819443 l -0.2501693181181808 -14.571108598588514 a35.57325600130554,35.57325600130554 0 0,0 0.6106622429670293,-0.005241800911457653 l 3.569418263030756e-15 14.573256001305538" fill="#ff970e" stroke="none" /></svg>